<?xml version="1.0" encoding="utf-8"?>
<!-- Generator: Adobe Illustrator 16.0.4, SVG Export Plug-In . SVG Version: 6.00 Build 0)  -->
<!DOCTYPE svg PUBLIC "-//W3C//DTD SVG 1.1//EN" "http://www.w3.org/Graphics/SVG/1.1/DTD/svg11.dtd">
<svg version="1.1" id="Layer_1" xmlns="http://www.w3.org/2000/svg" xmlns:xlink="http://www.w3.org/1999/xlink" x="0px" y="0px"
	 width="260px" height="140px" viewBox="0 0 260 140" enable-background="new 0 0 260 140" xml:space="preserve">
<path fill="none" stroke="#909A34" stroke-width="0.5" stroke-miterlimit="10" d="M234.688,58.036H25.368H234.688z"/>
<g>
	<path fill="#51545D" d="M28.007,47.88h-0.69v-6.151h-2.271v-0.633h5.232v0.633h-2.271V47.88z"/>
	<path fill="#51545D" d="M35.016,41.096h0.689v2.942h3.699v-2.942h0.69v6.784h-0.69v-3.21h-3.699v3.21h-0.689V41.096z"/>
	<path fill="#51545D" d="M46.307,47.249h3.632v0.632h-4.322v-6.784h4.207v0.633h-3.517v2.309h3.287v0.632h-3.287V47.249z"/>
	<path fill="#51545D" d="M66.918,46.808c-0.451,0.699-1.389,1.245-2.511,1.245c-2.021,0-3.535-1.504-3.535-3.564
		s1.514-3.564,3.535-3.564c0.844,0,1.754,0.316,2.348,1.073l-0.604,0.452c-0.269-0.441-1.025-0.891-1.744-0.891
		c-1.743,0-2.788,1.369-2.788,2.931s1.045,2.933,2.788,2.933c0.709,0,1.438-0.23,1.945-1.016L66.918,46.808z"/>
	<path fill="#51545D" d="M72.451,47.88h-0.69v-6.784h0.69V47.88z"/>
	<path fill="#51545D" d="M80.151,47.88h-0.69v-6.151H77.19v-0.633h5.232v0.633h-2.271V47.88z"/>
	<path fill="#51545D" d="M89.335,47.88h-0.689v-2.921l-2.539-3.863h0.862l2.022,3.201l2.022-3.201h0.862l-2.539,3.863V47.88z"/>
	<path fill="#51545D" d="M105.769,48.053c-2.021,0-3.536-1.504-3.536-3.564s1.515-3.564,3.536-3.564
		c2.022,0,3.536,1.504,3.536,3.564S107.791,48.053,105.769,48.053z M105.769,41.557c-1.744,0-2.788,1.369-2.788,2.931
		s1.044,2.933,2.788,2.933c1.744,0,2.789-1.371,2.789-2.933S107.513,41.557,105.769,41.557z"/>
	<path fill="#51545D" d="M115.058,47.88h-0.69v-6.784h4.091v0.633h-3.401v2.309h3.161v0.632h-3.161V47.88z"/>
	<path fill="#51545D" d="M129.728,41.096h1.975c1.38,0,2.232,0.594,2.232,1.812s-0.853,1.82-2.232,1.82h-1.284v3.153h-0.69V41.096z
		 M130.418,44.096h1.112c1.235,0,1.657-0.537,1.657-1.188c0-0.652-0.422-1.178-1.657-1.178h-1.112V44.096z"/>
	<path fill="#51545D" d="M138.911,41.096h0.691v2.942h3.698v-2.942h0.69v6.784h-0.69v-3.21h-3.698v3.21h-0.691V41.096z"/>
	<path fill="#51545D" d="M150.203,47.88h-0.689v-6.784h0.689V47.88z"/>
	<path fill="#51545D" d="M156.419,47.249h3.162v0.632h-3.852v-6.784h0.689V47.249z"/>
	<path fill="#51545D" d="M164.089,47.88h-0.804l2.951-6.784h0.67l2.952,6.784h-0.806l-0.747-1.782h-3.469L164.089,47.88z
		 M165.095,45.466h2.942l-1.466-3.564L165.095,45.466z"/>
	<path fill="#51545D" d="M174.365,41.096h2.252c1.696,0,3.564,1.132,3.564,3.392c0,2.262-1.868,3.392-3.564,3.392h-2.252V41.096z
		 M175.055,47.249h1.342c2.07,0,3.038-1.361,3.038-2.76c0-1.398-0.968-2.759-3.038-2.759h-1.342V47.249z"/>
	<path fill="#51545D" d="M185.936,47.249h3.631v0.632h-4.32v-6.784h4.205v0.633h-3.516v2.309h3.286v0.632h-3.286V47.249z"/>
	<path fill="#51545D" d="M195.3,47.249h3.163v0.632h-3.853v-6.784h0.689V47.249z"/>
	<path fill="#51545D" d="M203.086,41.096h1.974c1.381,0,2.233,0.594,2.233,1.812s-0.853,1.82-2.233,1.82h-1.284v3.153h-0.689V41.096
		z M203.775,44.096h1.112c1.235,0,1.658-0.537,1.658-1.188c0-0.652-0.423-1.178-1.658-1.178h-1.112V44.096z"/>
	<path fill="#51545D" d="M212.269,41.096h0.689v2.942h3.699v-2.942h0.69v6.784h-0.69v-3.21h-3.699v3.21h-0.689V41.096z"/>
	<path fill="#51545D" d="M223.561,47.88h-0.689v-6.784h0.689V47.88z"/>
	<path fill="#51545D" d="M228.97,47.88h-0.805l2.952-6.784h0.67l2.951,6.784h-0.805l-0.747-1.782h-3.469L228.97,47.88z
		 M229.976,45.466h2.942l-1.466-3.564L229.976,45.466z"/>
</g>
<g>
	<path fill="#909A34" d="M25.187,66.391h2.782l2.738,7.187l2.768-7.187h2.752v10.257h-1.738V68.13h-0.029l-3.114,8.518h-1.276
		l-3.115-8.518h-0.028v8.518h-1.739V66.391z"/>
	<path fill="#909A34" d="M45.935,66.391h1.579l4.418,10.257h-2.086l-0.956-2.346h-4.448l-0.927,2.346h-2.043L45.935,66.391z
		 M48.252,72.736l-1.579-4.172l-1.608,4.172H48.252z"/>
	<path fill="#909A34" d="M58.567,72.26l-3.854-5.869h2.289l2.521,4.086l2.55-4.086h2.173l-3.854,5.869v4.389h-1.826V72.26z"/>
	<path fill="#909A34" d="M74.113,66.131c3.202-0.058,5.463,2.086,5.463,5.375c0,3.202-2.261,5.346-5.463,5.404
		c-3.158,0-5.418-2.145-5.418-5.348C68.694,68.275,70.955,66.131,74.113,66.131z M74.127,75.258c2.13,0,3.535-1.623,3.535-3.81
		c0-2.043-1.405-3.666-3.535-3.666c-2.115,0-3.52,1.623-3.52,3.666C70.607,73.635,72.013,75.258,74.127,75.258z"/>
	<path fill="#909A34" d="M85.37,66.391h3.564c1.97,0,3.825,0.638,3.825,2.941c0,1.478-0.855,2.564-2.376,2.781l2.723,4.535h-2.202
		l-2.376-4.345h-1.333v4.345H85.37V66.391z M88.616,70.738c1.029,0,2.231-0.087,2.231-1.42c0-1.217-1.129-1.362-2.071-1.362h-1.579
		v2.782H88.616z"/>
	<path fill="#909A34" d="M99.177,66.391h1.768l-1.232,3.825h-1.549L99.177,66.391z"/>
	<path fill="#909A34" d="M111.926,68.594c-0.392-0.55-1.087-0.812-1.796-0.812c-0.84,0-1.681,0.376-1.681,1.319
		c0,2.057,4.868,0.884,4.868,4.534c0,2.203-1.739,3.275-3.752,3.275c-1.275,0-2.521-0.392-3.362-1.393l1.377-1.332
		c0.449,0.68,1.217,1.072,2.028,1.072c0.841,0,1.796-0.464,1.796-1.404c0-2.246-4.868-0.957-4.868-4.623
		c0-2.115,1.884-3.1,3.781-3.1c1.072,0,2.144,0.304,2.941,1.058L111.926,68.594z"/>
	<path fill="#909A34" d="M132.483,66.131c3.203-0.058,5.462,2.086,5.462,5.375c0,3.202-2.259,5.346-5.462,5.404
		c-3.158,0-5.418-2.145-5.418-5.348C127.065,68.275,129.326,66.131,132.483,66.131z M132.498,75.258c2.13,0,3.535-1.623,3.535-3.81
		c0-2.043-1.405-3.666-3.535-3.666c-2.114,0-3.52,1.623-3.52,3.666C128.978,73.635,130.384,75.258,132.498,75.258z"/>
	<path fill="#909A34" d="M143.741,66.391h6.62v1.652h-4.796v2.694h4.521v1.651h-4.521v4.26h-1.824V66.391z"/>
	<path fill="#909A34" d="M156.114,66.391h6.62v1.652h-4.796v2.694h4.521v1.651h-4.521v4.26h-1.824V66.391z"/>
	<path fill="#909A34" d="M168.443,66.391h1.824v10.257h-1.824V66.391z"/>
	<path fill="#909A34" d="M183.613,68.796c-0.754-0.796-1.45-1.014-2.159-1.014c-2.115,0-3.521,1.623-3.521,3.666
		c0,2.187,1.405,3.81,3.521,3.81c0.825,0,1.623-0.376,2.303-1.246l1.507,1.073c-0.927,1.274-2.317,1.825-3.824,1.825
		c-3.159,0-5.418-2.145-5.418-5.348c0-3.288,2.259-5.432,5.418-5.432c1.39,0,2.578,0.449,3.592,1.623L183.613,68.796z"/>
	<path fill="#909A34" d="M190.552,66.391h6.794v1.652h-4.969v2.521h4.708v1.651h-4.708v2.781h5.23v1.652h-7.056V66.391z"/>
	<path fill="#909A34" d="M216.674,66.131c3.203-0.058,5.462,2.086,5.462,5.375c0,3.202-2.259,5.346-5.462,5.404
		c-3.158,0-5.417-2.145-5.417-5.348C211.257,68.275,213.516,66.131,216.674,66.131z M216.688,75.258c2.13,0,3.535-1.623,3.535-3.81
		c0-2.043-1.405-3.666-3.535-3.666c-2.114,0-3.521,1.623-3.521,3.666C213.168,73.635,214.574,75.258,216.688,75.258z"/>
	<path fill="#909A34" d="M227.932,66.391h6.62v1.652h-4.795v2.694h4.52v1.651h-4.52v4.26h-1.825V66.391z"/>
</g>
<g>
	<path fill="#909A34" d="M32.19,88.704c-0.519-0.731-1.442-1.076-2.384-1.076c-1.115,0-2.231,0.5-2.231,1.749
		c0,2.729,6.46,1.173,6.46,6.017c0,2.922-2.307,4.347-4.98,4.347c-1.691,0-3.345-0.521-4.46-1.846l1.827-1.77
		c0.596,0.903,1.615,1.423,2.692,1.423c1.115,0,2.384-0.616,2.384-1.865c0-2.98-6.46-1.268-6.46-6.134
		c0-2.806,2.5-4.113,5.018-4.113c1.423,0,2.846,0.403,3.903,1.403L32.19,88.704z"/>
	<path fill="#909A34" d="M52.154,94.395c0,3.288-2.365,5.346-5.48,5.346c-3.115,0-5.479-2.058-5.479-5.346v-8.613h2.423v8.537
		c0,1.344,0.731,3.113,3.057,3.113c2.327,0,3.057-1.77,3.057-3.113v-8.537h2.423V94.395z"/>
	<path fill="#909A34" d="M66.504,88.704c-0.519-0.731-1.442-1.076-2.384-1.076c-1.115,0-2.231,0.5-2.231,1.749
		c0,2.729,6.46,1.173,6.46,6.017c0,2.922-2.307,4.347-4.98,4.347c-1.691,0-3.345-0.521-4.46-1.846l1.827-1.77
		c0.597,0.903,1.615,1.423,2.692,1.423c1.115,0,2.384-0.616,2.384-1.865c0-2.98-6.46-1.268-6.46-6.134
		c0-2.806,2.5-4.113,5.018-4.113c1.423,0,2.846,0.403,3.904,1.403L66.504,88.704z"/>
	<path fill="#909A34" d="M78.354,87.973h-4.173v-2.191h10.767v2.191h-4.172v11.42h-2.422V87.973z"/>
	<path fill="#909A34" d="M93.938,85.781h2.096l5.864,13.611h-2.768l-1.27-3.114h-5.902l-1.23,3.114h-2.711L93.938,85.781z
		 M97.014,94.202l-2.096-5.537l-2.134,5.537H97.014z"/>
	<path fill="#909A34" d="M108.057,85.781h2.423v13.611h-2.423V85.781z"/>
	<path fill="#909A34" d="M118.156,85.781h3.211l6.595,10.113L128,95.933h-0.039L128,95.895V85.781h2.422v13.611h-3.076
		l-6.729-10.439h-0.039v10.439h-2.422V85.781z"/>
	<path fill="#909A34" d="M142.562,85.781h2.097l5.864,13.611h-2.769l-1.27-3.114h-5.902l-1.23,3.114h-2.711L142.562,85.781z
		 M145.64,94.202l-2.096-5.537l-2.135,5.537H145.64z"/>
	<path fill="#909A34" d="M156.74,85.781h5.308c2.056,0,4.171,0.942,4.171,3.423c0,1.537-0.961,2.557-2.364,2.979v0.039
		c1.711,0.19,2.941,1.537,2.941,3.288c0,2.96-2.576,3.882-5.153,3.882h-4.902V85.781z M159.163,91.318h2.211
		c1.615,0,2.422-0.692,2.422-1.711c0-1.173-0.807-1.75-2.633-1.75h-2V91.318z M159.163,97.317h2.229c1.251,0,2.98-0.212,2.98-2
		c0-1.423-0.922-1.924-2.885-1.924h-2.325V97.317z"/>
	<path fill="#909A34" d="M173.841,85.781h2.422v13.611h-2.422V85.781z"/>
	<path fill="#909A34" d="M183.938,85.781h2.422v11.421h5.788v2.19h-8.21V85.781z"/>
	<path fill="#909A34" d="M198.556,85.781h2.423v13.611h-2.423V85.781z"/>
	<path fill="#909A34" d="M211.44,87.973h-4.171v-2.191h10.767v2.191h-4.172v11.42h-2.424V87.973z"/>
	<path fill="#909A34" d="M227.714,93.567l-5.113-7.786h3.037l3.346,5.422l3.384-5.422h2.885l-5.114,7.786v5.825h-2.424V93.567z"/>
</g>
</svg>
