<svg id="BG" xmlns="http://www.w3.org/2000/svg" xmlns:xlink="http://www.w3.org/1999/xlink" viewBox="0 0 1101 752.55"><defs><style>.cls-1{fill:#73a3ec;}.cls-2{font-size:22px;}.cls-2,.cls-28,.cls-29,.cls-7,.cls-8{fill:#fff;}.cls-2,.cls-28,.cls-29,.cls-7{font-family:Roboto;}.cls-3{letter-spacing:-1px;}.cls-4{fill:#686862;}.cls-5{fill:#b4b4b4;}.cls-6{fill:#9fb400;}.cls-28,.cls-7{font-size:12.83px;}.cls-7{font-weight:700;}.cls-9{opacity:0.7;}.cls-10{fill:#acdbe8;}.cls-11{fill:#c9c9c9;}.cls-12{fill:#b2b2b2;}.cls-13{fill:url(#linear-gradient);}.cls-14,.cls-15,.cls-18,.cls-30{fill:none;}.cls-14{stroke:#b0b0b0;}.cls-14,.cls-15,.cls-30{stroke-miterlimit:10;}.cls-15{stroke:#969696;}.cls-16{fill:url(#linear-gradient-2);}.cls-17{fill:gray;}.cls-19{fill:#46392e;}.cls-20{fill:#bf9969;}.cls-21{fill:#996d43;}.cls-22{fill:#cfe7ef;}.cls-23{fill:#333;opacity:0.4;isolation:isolate;}.cls-24{fill:#969696;}.cls-25{fill:#3c5d9a;}.cls-26{fill:#34527e;}.cls-27{fill:#f1f1f1;}.cls-29{font-size:11px;}.cls-30{stroke:#d3d7dc;}.cls-31,.cls-32,.cls-33{fill:#d3d7dc;}.cls-32,.cls-33{font-size:10.31px;font-family:FontAwesome;}.cls-32{white-space:pre;}</style><linearGradient id="linear-gradient" x1="134.54" y1="353.32" x2="163.37" y2="310.58" gradientTransform="matrix(1, 0, 0, -1, 154.5, 670.54)" gradientUnits="userSpaceOnUse"><stop offset="0" stop-color="#c9c9c9"/><stop offset="1" stop-color="#969696"/></linearGradient><linearGradient id="linear-gradient-2" x1="1186.54" y1="353.32" x2="1215.37" y2="310.58" gradientTransform="translate(1998.5 670.54) rotate(180)" xlink:href="#linear-gradient"/></defs><title>stormwater-01</title><rect class="cls-1" x="0.5" y="97.54" width="1100" height="136"/><text class="cls-2" transform="translate(333.09 180.21)"><tspan class="cls-3">T</tspan><tspan x="12.07" y="0">ogether </tspan><tspan x="91.22" y="0">W</tspan><tspan x="110.61" y="0">e Can Reduce S</tspan><tspan x="261.55" y="0">t</tspan><tspan x="268.4" y="0">ormwater Runoff</tspan></text><rect class="cls-4" x="0.5" y="246.54" width="1100" height="162"/><rect class="cls-5" x="0.5" y="232.54" width="1100" height="14"/><rect class="cls-6" x="483.5" y="556.54" width="133" height="44"/><text class="cls-7" transform="translate(503.24 582.71)">Get Sta<tspan x="42.32" y="0">r</tspan><tspan x="47.31" y="0">ted</tspan></text><path class="cls-8" d="M683.34,601.31a0.92,0.92,0,0,1,.26.66,0.9,0.9,0,0,1-.26.63s-3.36,3.53-3.73,3.89a1,1,0,0,1-1.32,0,0.91,0.91,0,0,1,0-1.32l3.07-3.2-3.07-3.23a0.9,0.9,0,0,1,0-1.32,1,1,0,0,1,1.32,0C680,597.78,683.34,601.31,683.34,601.31Z" transform="translate(-89.5 -23.46)"/><g class="cls-9"><path class="cls-10" d="M605.17,369.38c-5.5-5.5-5-11.92,2.29-15.58,7.79-4.12,15.12-1.37,21.54,3.21,16,11.46,32.08,6.88,50.42,11,8.25,1.38,27.5,5.5,28.42,17,0,4.13-2.29,4.58-3.21,7.33-1.83,6-1.37,2.75,1.38,8.71,4.13,9.17.92,11.92-9.17,15.58-27,9.17-61.42,5.5-89.83,2.75-8.25-.92-17.42-0.92-23.83-7.79-5.5-5.5-7.79-13.29-1.37-18.33,2.29-1.83,6.42-.92,8.25-3.21,2.75-3.21.92-5,2.29-8.71,2.29-5.5,7.79-7.33,12.83-10.54v-1.37Z" transform="translate(-89.5 -23.46)"/><path class="cls-8" d="M606.14,368.4c-2.61-2.83-4.34-6.09-2.38-9.79s7.52-5.24,11.32-5.47c7.56-.46,13.58,5.87,19.91,9,10.06,4.9,21.62,4.67,32.51,5.54,9.5,0.76,19.87,2.57,28.65,6.46,4,1.76,8.07,4.4,9.78,8.58s-2.93,8.72-3.73,13a3.23,3.23,0,0,0,.51,2.28,35.26,35.26,0,0,1,3.19,6.69c1.94,6-3.5,8.32-8.17,10.14-12,4.68-25.45,5.85-38.22,6.21-13.06.37-26.14-.6-39.15-1.76-5.78-.52-11.56-1.11-17.33-1.67-7-.68-13.71-1.83-18.9-7-4.32-4.3-8.18-14,0-17,3.41-1.23,7.44-1,8.54-5.41,0.43-1.73.33-3.45,0.59-5.21,0.52-3.55,4-5.92,6.77-7.64s6.49-2.32,6.49-5.94a1.38,1.38,0,0,0-2.75,0c0,1.72-7.54,5-9.51,6.76a11.55,11.55,0,0,0-3.27,4.79c-1,3.34.19,8-4.14,9.29s-7.13,1.8-9.42,6.25c-1.92,3.74-.6,8.13,1.25,11.57,5.15,9.59,15.86,11.46,25.67,12.4,12.59,1.21,25.16,2.5,37.79,3.09A196.2,196.2,0,0,0,679.9,422a103.39,103.39,0,0,0,17.3-4.12c3.64-1.2,7.76-2.8,10.31-5.79,1.76-2.07,1.77-4.72,1.31-7.25a23.92,23.92,0,0,0-2.32-6c-1.44-2.94-1.71-3.5-.28-6.85,1.53-3.57,3.57-5,2.64-9.25-0.71-3.28-3.35-6.15-6-8-16.95-12-39.63-8-58.72-12.39-12-2.76-20.83-14.62-34-11.22-4.34,1.12-8.28,4.1-9.8,8.34-1.42,4,1.27,8.08,3.82,10.84C605.4,371.65,607.34,369.7,606.14,368.4Z" transform="translate(-89.5 -23.46)"/></g><path class="cls-11" d="M335.35,377.89" transform="translate(-89.5 -23.46)"/><path class="cls-11" d="M445.22,284.71l0.13-.13H412.67v0.74L274.12,370.75H325l10.3,10,77.33-59.49v1.79h38.5V291.27A6.47,6.47,0,0,0,445.22,284.71Z" transform="translate(-89.5 -23.46)"/><path class="cls-12" d="M325,370.75H273.33v62.33h61.42V380.48A9.32,9.32,0,0,0,325,370.75Z" transform="translate(-89.5 -23.46)"/><polygon class="cls-13" points="245.25 408.95 361.67 300.13 361.67 268.24 245.25 357.01 245.25 408.95"/><polygon class="cls-11" points="185.91 347.29 329.64 261.12 0.5 261.12 0.5 347.29 185.91 347.29"/><rect class="cls-12" x="0.5" y="347.29" width="185.17" height="62.33"/><line class="cls-14" x1="175.38" y1="346.67" x2="329.64" y2="261.34"/><line class="cls-14" x1="261.75" y1="298.25" x2="0.5" y2="298.25"/><line class="cls-15" x1="174.21" y1="347.29" x2="174.21" y2="409.62"/><path class="cls-11" d="M945.51,377.89" transform="translate(-89.5 -23.46)"/><path class="cls-11" d="M835.21,284.71l0.3-.13h31.83v0.74l139.41,85.42H955.82l-10.73,10-77.76-59.49v1.79h-38.5V291.27A6.84,6.84,0,0,1,835.21,284.71Z" transform="translate(-89.5 -23.46)"/><path class="cls-12" d="M955.82,370.75h50.85v62.33H945.25V380.48C945.25,374.76,950.13,370.75,955.82,370.75Z" transform="translate(-89.5 -23.46)"/><polygon class="cls-16" points="855.75 408.95 739.33 300.13 739.33 268.24 855.75 357.01 855.75 408.95"/><polygon class="cls-11" points="915.95 347.29 772.22 261.12 1100.5 261.12 1100.5 347.29 915.95 347.29"/><rect class="cls-12" x="917.17" y="347.29" width="183.33" height="62.33"/><line class="cls-14" x1="926.48" y1="346.67" x2="772.22" y2="261.34"/><line class="cls-14" x1="839.25" y1="298.25" x2="1100.5" y2="298.25"/><line class="cls-15" x1="926.79" y1="347.29" x2="926.79" y2="409.62"/><polygon class="cls-17" points="350.67 289.25 350.67 309.7 327.79 309.7 350.67 289.25"/><polyline class="cls-18" points="319.5 337.2 319.5 347.43 319.5 349.12"/><polyline class="cls-18" points="319.5 378.45 319.5 378.56 319.5 383.04"/><path class="cls-19" d="M462.06,336a2.66,2.66,0,0,1-.7,1l-3.44,3.78-2.34,2.57L453.24,346l-2.34,2.58-2.34,2.58-2.33,2.58-2.34,2.58-2.34,2.59-2.34,2.58-2.34,2.59-2.33,2.59-2.34,2.59-4.68,5.17L425.21,377l-2.33,2.59-2.34,2.59-2.34,2.58-2.34,2.59L413.53,390l-1.78,2c-0.18.2-.39,0.41-0.6,0.61s-0.64.56-1,.83c-0.2.16-.4,0.3-0.6,0.44l-0.45.29c-0.15.1-.3,0.2-0.46,0.28a12.41,12.41,0,0,1-1.42.76l-0.47.21-0.37.15a6.3,6.3,0,0,1-.64.21l-0.38.11-0.34.08c-0.16,0-.33.26-0.48,0.28s-0.31.24-.45,0.24H370.5V370.74l1.87-1.34,41.94-33.48H460.6A4.34,4.34,0,0,1,462.06,336Z" transform="translate(-89.5 -23.46)"/><line class="cls-18" x1="328.03" y1="309.61" x2="325.88" y2="311.33"/><polygon class="cls-20" points="281 364.7 326.37 364.7 324.03 367.45 281 367.45 281 364.7"/><path class="cls-21" d="M370.5,390.92h43l-1.78,1.6c-0.18.2-.38-0.68-0.6,0.24H370.5v-1.83Z" transform="translate(-89.5 -23.46)"/><polygon class="cls-20" points="281 356.45 333.38 356.45 331.04 359.2 281 359.2 281 356.45"/><polygon class="cls-21" points="281 359.2 331.04 359.2 328.7 361.95 281 361.95 281 359.2"/><polygon class="cls-20" points="281 349.12 340.38 349.12 338.04 351.87 281 351.87 281 349.12"/><polygon class="cls-21" points="281 351.87 338.04 351.87 335.71 354.62 281 354.62 281 351.87"/><polygon class="cls-20" points="289.36 340.87 347.39 340.87 345.06 343.62 286.14 343.62 289.36 340.87"/><polygon class="cls-21" points="286.14 343.62 345.06 343.62 342.72 346.37 282.92 346.37 286.14 343.62"/><polygon class="cls-20" points="299.03 333.54 354.4 333.54 352.06 336.29 295.81 336.29 299.03 333.54"/><polygon class="cls-21" points="295.81 336.29 352.06 336.29 349.73 339.04 292.58 339.04 295.81 336.29"/><polygon class="cls-20" points="308.7 325.29 361.4 325.29 359.07 327.12 305.48 327.12 308.7 325.29"/><polygon class="cls-21" points="305.48 327.12 359.07 327.12 356.74 329.87 302.25 329.87 305.48 327.12"/><polygon class="cls-20" points="318.37 317.04 368.42 317.04 366.08 319.79 315.14 319.79 318.37 317.04"/><polygon class="cls-21" points="315.14 319.79 366.08 319.79 363.74 322.54 311.92 322.54 315.14 319.79"/><path class="cls-20" d="M464.43,334.9c-0.36-.82-1.31-1.74-3.82-1.74H417.53l-3.22,2.75H460.6a4.33,4.33,0,0,1,1.45.12,2.65,2.65,0,0,1-.7,1l-1.11,1.19-2.33,2.57-2.34,2.58L453.24,346l-2.34,2.58-2.34,2.58-2.33,2.58-2.34,2.59-2.34,2.59-2.34,2.59-2.34,2.59-2.33,2.58-2.34,2.59-4.68,5.17L425.21,377l-2.33,2.59-2.34,2.59-2.34,2.59-2.34,2.59L413.53,390l-1.78,2c-0.18.2-.38,0.62-0.6,0.83-1.87,1.73-4.94,3.66-7,3.66H370.5v2.75h33.6c3.22,0,7.39-2.79,9.56-5.21l1-1.27L417,390l2.33-2.62,2.34-2.6,2.34-2.59,2.34-2.59L428.7,377l2.33-2.59,2.34-2.59,4.67-5.17,2.34-2.59,2.33-2.59,2.34-2.59,2.34-2.59,2.34-2.59,2.33-2.59,2.34-2.59,4.68-5.17,2.34-2.58,1.87-2.08a4.63,4.63,0,0,0,1.36-2.65,2.11,2.11,0,0,0,0-.42A2.42,2.42,0,0,0,464.43,334.9Z" transform="translate(-89.5 -23.46)"/><path class="cls-21" d="M460.61,335.92a4.33,4.33,0,0,1,1.45.12,3.79,3.79,0,0,1-.7.8l-1.11.91H410.87l3.22-1.83h46.51Z" transform="translate(-89.5 -23.46)"/><polyline class="cls-18" points="284.67 326.2 284.67 326.85 284.67 330.79"/><polygon class="cls-17" points="749.42 289.25 749.42 309.7 774.45 309.7 749.42 289.25"/><polyline class="cls-18" points="781.5 349.12 781.5 347.43 781.5 337.2"/><polyline class="cls-18" points="781.5 383.04 781.5 378.56 781.5 378.45"/><path class="cls-19" d="M819.19,336a2.66,2.66,0,0,0,.71,1l3.44,3.78,2.34,2.57L828,346l2.34,2.58,2.34,2.58,2.33,2.58,2.34,2.58,2.34,2.59,2.34,2.58,2.34,2.59,2.33,2.59,2.34,2.59,4.67,5.17L856,377l2.33,2.59,2.34,2.59,2.34,2.58,2.34,2.59,2.34,2.58,1.78,2c0.18,0.2.39,0.41,0.6,0.61s0.64,0.56,1,.83c0.2,0.16.4,0.3,0.6,0.44l0.45,0.29c0.15,0.1.3,0.2,0.46,0.28a12.43,12.43,0,0,0,1.42.76l0.47,0.21,0.37,0.15a6.19,6.19,0,0,0,.64.21l0.38,0.11,0.34,0.08c0.16,0,.33.26,0.48,0.28s0.31,0.24.46,0.24H909.5V370.73l-1.25-1.33-41.32-33.48H820.64A4.33,4.33,0,0,0,819.19,336Z" transform="translate(-89.5 -23.46)"/><line class="cls-18" x1="776.36" y1="311.33" x2="774.21" y2="309.61"/><polygon class="cls-20" points="820 364.7 775.88 364.7 778.22 367.45 820 367.45 820 364.7"/><path class="cls-21" d="M909.5,390.92H867.71l1.78,1.6c0.18,0.2.38-.68,0.6,0.24H909.5v-1.83Z" transform="translate(-89.5 -23.46)"/><polygon class="cls-20" points="820 356.45 768.87 356.45 771.2 359.2 820 359.2 820 356.45"/><polygon class="cls-21" points="820 359.2 771.2 359.2 773.54 361.95 820 361.95 820 359.2"/><polygon class="cls-20" points="820 349.12 761.86 349.12 764.2 351.87 820 351.87 820 349.12"/><polygon class="cls-21" points="820 351.87 764.2 351.87 766.53 354.62 820 354.62 820 351.87"/><polygon class="cls-20" points="812.88 340.87 754.86 340.87 757.19 343.62 816.11 343.62 812.88 340.87"/><polygon class="cls-21" points="816.11 343.62 757.19 343.62 759.52 346.37 819.33 346.37 816.11 343.62"/><polygon class="cls-20" points="803.21 333.54 747.84 333.54 750.18 336.29 806.44 336.29 803.21 333.54"/><polygon class="cls-21" points="806.44 336.29 750.18 336.29 752.52 339.04 809.66 339.04 806.44 336.29"/><polygon class="cls-20" points="793.55 325.29 740.84 325.29 743.18 327.12 796.77 327.12 793.55 325.29"/><polygon class="cls-21" points="796.77 327.12 743.18 327.12 745.51 329.87 799.99 329.87 796.77 327.12"/><polygon class="cls-20" points="783.88 317.04 733.83 317.04 736.16 319.79 787.1 319.79 783.88 317.04"/><polygon class="cls-21" points="787.1 319.79 736.16 319.79 738.5 322.54 790.32 322.54 787.1 319.79"/><path class="cls-20" d="M816.81,334.9c0.36-.82,1.32-1.74,3.83-1.74h43.07l3.22,2.75H820.64a4.34,4.34,0,0,0-1.45.12,2.66,2.66,0,0,0,.71,1l1.11,1.19,2.33,2.57,2.34,2.58L828,346l2.34,2.58,2.34,2.58,2.33,2.58,2.34,2.59,2.34,2.59,2.34,2.59,2.34,2.59,2.33,2.58,2.34,2.59,4.67,5.17L856,377l2.33,2.59,2.34,2.59,2.34,2.59,2.34,2.59,2.34,2.59,1.78,2c0.18,0.2.38,0.62,0.6,0.83,1.87,1.73,4.94,3.66,7,3.66H909.5v2.75H877.14c-3.22,0-7.39-2.79-9.56-5.21l-1-1.27L864.23,390l-2.33-2.62-2.34-2.6-2.34-2.59-2.34-2.59L852.55,377l-2.33-2.59-2.34-2.59-4.68-5.17-2.34-2.58-2.33-2.59-2.34-2.59-2.34-2.59-2.34-2.59-2.33-2.58-2.34-2.59-4.68-5.17-2.34-2.59L818,338.75a4.63,4.63,0,0,1-1.36-2.65,2,2,0,0,1,0-.41A2.48,2.48,0,0,1,816.81,334.9Z" transform="translate(-89.5 -23.46)"/><path class="cls-21" d="M820.64,335.92a4.34,4.34,0,0,0-1.45.12,3.79,3.79,0,0,0,.71.8l1.11,0.91h49.37l-3.22-1.83H820.64Z" transform="translate(-89.5 -23.46)"/><polyline class="cls-18" points="816.33 330.79 816.33 326.85 816.33 326.2"/><g class="cls-9"><path class="cls-10" d="M469.41,333.5c-34.05,2.85-45.55,9.69-14.32,25.3,11.11,5.55-9.81,15.57-10.94,20.82-3.52,16.35,44.27,12.69,51.47,12.93,9.59,0.51,99.71-12.65,62.67-33.49C538.57,348,487.79,331.11,469.41,333.5Z" transform="translate(-89.5 -23.46)"/><path class="cls-8" d="M469.41,332.13c-5.87.51-39.67,1.67-33.07,14.84,1.29,2.58,3.94,4.47,6.19,6.13a65.08,65.08,0,0,0,6.35,4c2.41,1.37,6.29,2.42,7.87,4.82,2.51,3.82-10.86,12.48-12.82,15.22-2.64,3.68-1,8.27,2.28,10.87,4.56,3.56,11,4.45,16.56,5.17,11.24,1.47,22.75,1,34.06.77,10.19-.21,20.62-2.37,30.56-4.42,11.68-2.41,24.55-5.19,34.73-11.7,7.28-4.66,8.37-11.65,1.19-17.1-5.66-4.3-12.59-7.13-19.11-9.86-9.2-3.86-18.6-7.22-28.12-10.21a246.1,246.1,0,0,0-26.4-6.83c-6.58-1.29-13.57-2.45-20.28-1.67-1.74.2-1.76,3,0,2.75,7.57-.88,15.39.68,22.77,2.22a268,268,0,0,1,29.11,8.09,275.06,275.06,0,0,1,27.58,10.67c5.36,2.44,12.46,5.16,15.95,10.21,9.3,13.48-49.71,23-56.72,24a189.87,189.87,0,0,1-24.25,1.29,149.29,149.29,0,0,1-22.45-1.13c-4.88-.69-13.68-1.86-15.77-7.25s8.26-11.13,11.3-14.5c1.54-1.71,2.91-3.82,2.74-6.21-0.24-3.4-4.28-4.84-6.77-6.14-3.32-1.73-19.91-9.87-12.78-15.05,2.9-2.11,6.85-2.89,10.28-3.65a145.11,145.11,0,0,1,19-2.54C471.17,334.73,471.18,332,469.41,332.13Z" transform="translate(-89.5 -23.46)"/></g><g class="cls-9"><path class="cls-10" d="M604.62,324.45c-1.53-.1-28.5-2.58-27.79-9.77,1-11.56,62.89-9.58,66.75,2a98.86,98.86,0,0,0-17.19,1.15C621,324.36,621.83,332.39,604.62,324.45Z" transform="translate(-89.5 -23.46)"/><path class="cls-8" d="M604.62,323.07c-7.75-.55-16.6-1.65-23.58-5.2-9.18-4.67,7.28-8.28,10.39-8.73,9.91-1.45,20.27-1,30.17.22a71.25,71.25,0,0,1,13,2.8c2.49,0.81,6.57,2.17,7.62,4.9l1.33-1.74a101.48,101.48,0,0,0-15.84,1c-2.86.42-3.63,2.22-5.08,4.59-1.24,2-2.4,4.31-4.74,5.21-3.84,1.47-9.24-1.3-12.6-2.81-1.6-.72-3,1.65-1.39,2.38,4.84,2.17,12.64,5.9,17.45,1.54a24,24,0,0,0,4-5.54c2.95-4.83,13.07-3.63,18.17-3.57a1.38,1.38,0,0,0,1.33-1.74c-2.82-7.36-15.57-8.63-22.06-9.55-11.74-1.68-24.2-2-35.88.35-4.61.92-16.2,5.14-9.7,11.49,3.64,3.56,10.18,4.56,14.93,5.49a102.62,102.62,0,0,0,12.42,1.72C606.39,326,606.38,323.2,604.62,323.07Z" transform="translate(-89.5 -23.46)"/></g><g class="cls-9"><path class="cls-10" d="M749,313.49c-12,1.34-12.13,3.87-1,8-10.63,5.5-24.9,6-36.54,8.05-2.28.4-30.92,4.49-21.92,10.37,10.25,6.95,29.18,3.06,41,5.62,24.91,5.41-3.93,24.45,12.76,32.65,24.77,12.17,52.19-6.41,78,1.89,11.26,3.62,46.43,18.34,55.8,2.57,12.72-21.4-23.93-27.68-35.68-30.41-7.31-1.7-16.41-4.4-21.62-10.14-5.6-6.17,1.45-14.44-7.86-18-11.26-4.39-21.75-.59-33.1-2.11C767.76,320.56,761.29,311.22,749,313.49Z" transform="translate(-89.5 -23.46)"/><path class="cls-8" d="M749,312.12c-2.53.31-10.1,0.4-10.51,4.15s6.63,5.64,9.11,6.6l-0.33-2.51c-16,7.92-35.17,6.28-52.19,11.27-2.65.78-10.36,3-8.43,7.25,1.1,2.43,4.29,3.57,6.56,4.49,4.81,2,10.39,2.2,15.51,2.4,5.32,0.21,10.64.06,16,.41,4.57,0.3,11.18,1.08,14.13,5.1,3.27,4.46-1.59,12.29-2.31,17-1,6.56,3.37,10.3,9.09,12.48,10.72,4.07,21.9,3.34,33,1.74,12.62-1.82,25.26-4.69,38-2.19,7.58,1.49,14.89,4.93,22.3,7.11,12.86,3.78,33.59,8.75,40.66-6.71,6.36-13.91-9.24-21.68-20-25.23-6.25-2.07-12.72-3.3-19.11-4.82a51.52,51.52,0,0,1-16.07-6.31c-6-3.82-5.25-8.38-6-14.47-0.67-5.08-5.09-6.88-9.49-8.16-7.53-2.19-15.7-.82-23.39-0.69s-13.65-2.46-20.44-5.86c-5.29-2.65-10.51-3.9-16.41-3-1.75.27-1,2.92,0.73,2.65,11.15-1.7,18.83,7.41,29.4,8.58,6.63,0.74,13.21,0,19.85-.1a38.21,38.21,0,0,1,11.2,1.55c4.28,1.24,5.87,3.53,6,7.77,0.1,3.3,0,6.86,2.21,9.59,3.26,4.06,7.89,6.45,12.64,8.35,7.1,2.85,14.84,3.9,22.21,5.82,7.21,1.88,14.89,4.27,20.72,9.09,6.34,5.25,5.76,13.94-.19,19.39-6.32,5.79-17.9,3.6-25.34,2-8-1.67-15.72-4.41-23.42-7.09-22.25-7.74-43.72,2.71-66.26,1.1-5.61-.4-12.6-1.89-17-5.55-2.81-2.31-2.43-5.89-1.64-9,1.18-4.73,4.4-10.49,2.07-15.37-3.24-6.78-13.14-7.38-19.61-7.7-9.88-.49-24.47,2-32.63-5-2.08-1.79,14.21-5.93,15.87-6.25,7.81-1.51,15.71-2.37,23.57-3.58a67.21,67.21,0,0,0,19.69-5.71c1.18-.58.67-2.12-0.33-2.51a25.79,25.79,0,0,1-6.72-3.29c-0.8-.63,7.38-2.05,7.39-2.05C750.75,314.66,750.77,311.9,749,312.12Z" transform="translate(-89.5 -23.46)"/></g><g class="cls-9"><path class="cls-22" d="M464.57,359.84c2.79,3.69,9.43,9.74,3.72,13.95-2.12,1.56-4.83,2.29-7,3.79-3.06,2.09-2.82,5.39.27,7.19,4.1,2.39,10.2,2.06,14.75,2.09,4.81,0,9.59-.42,14.39-0.48a1.38,1.38,0,0,0,0-2.75c-8.78.1-18.45,1.91-27-.89-3.94-1.3.32-3.72,2.22-4.68,2.06-1,4.41-1.84,5.81-3.82,4.16-5.91-1.29-11.15-4.8-15.79-1.05-1.4-3.44,0-2.37,1.39h0Z" transform="translate(-89.5 -23.46)"/></g><g class="cls-9"><path class="cls-22" d="M596,400.27c-2.06.85-5.74,2-5.74,4.77,0,2,2.21,2.85,3.75,3.4,5.65,2,12.94,2.38,18.89,2.07,1.76-.09,1.77-2.84,0-2.75a67.32,67.32,0,0,1-10.41-.52,45,45,0,0,1-7.1-1.25c-3.82-1-1.27-2,1.33-3.07,1.61-.67.91-3.33-0.73-2.65h0Z" transform="translate(-89.5 -23.46)"/></g><g class="cls-9"><path class="cls-22" d="M633.77,410.18h1.07a1.38,1.38,0,0,0,0-2.75h-1.07a1.38,1.38,0,0,0,0,2.75h0Z" transform="translate(-89.5 -23.46)"/></g><g class="cls-9"><path class="cls-22" d="M650.53,410.83h8.81a1.38,1.38,0,0,0,0-2.75h-8.81a1.38,1.38,0,0,0,0,2.75h0Z" transform="translate(-89.5 -23.46)"/></g><g class="cls-9"><path class="cls-22" d="M673.52,410.61c1.79,0,3.58-.2,5.37-0.21a1.38,1.38,0,0,0,0-2.75c-1.79,0-3.58.2-5.37,0.21a1.38,1.38,0,0,0,0,2.75h0Z" transform="translate(-89.5 -23.46)"/></g><g class="cls-9"><path class="cls-22" d="M507,384.44h1.07a1.38,1.38,0,0,0,0-2.75H507a1.38,1.38,0,0,0,0,2.75h0Z" transform="translate(-89.5 -23.46)"/></g><g class="cls-9"><path class="cls-22" d="M525,382.45l3.22-.65a1.38,1.38,0,0,0,1-1.69,1.4,1.4,0,0,0-1.69-1l-3.22.65a1.38,1.38,0,0,0-1,1.69,1.4,1.4,0,0,0,1.69,1h0Z" transform="translate(-89.5 -23.46)"/></g><g class="cls-9"><path class="cls-22" d="M610.07,320.54l-1.93-.65a1.38,1.38,0,0,0-.73,2.65l1.93,0.65a1.38,1.38,0,1,0,.73-2.65h0Z" transform="translate(-89.5 -23.46)"/></g><g class="cls-9"><path class="cls-22" d="M601.16,318.74a5,5,0,0,0-2.2-.4,1.38,1.38,0,0,0,0,2.75l0.71,0q0.25,0,0,0c0.06,0,.39.14,0.11,0a1.4,1.4,0,0,0,1.88-.49,1.38,1.38,0,0,0-.49-1.88h0Z" transform="translate(-89.5 -23.46)"/></g><g class="cls-9"><path class="cls-22" d="M593.32,317.09a17.53,17.53,0,0,0-3.44-.86,1.4,1.4,0,0,0-1.69,1,1.38,1.38,0,0,0,1,1.69,17.58,17.58,0,0,1,3.44.86,1.38,1.38,0,0,0,1.69-1,1.4,1.4,0,0,0-1-1.69h0Z" transform="translate(-89.5 -23.46)"/></g><g class="cls-9"><path class="cls-22" d="M710.82,339.28a12.61,12.61,0,0,0,4-.19,1.38,1.38,0,0,0,1-1.69,1.4,1.4,0,0,0-1.69-1,8.39,8.39,0,0,1-2.57.19,1.41,1.41,0,0,0-1.69,1,1.38,1.38,0,0,0,1,1.69h0Z" transform="translate(-89.5 -23.46)"/></g><g class="cls-9"><path class="cls-22" d="M724.59,339.67a16.74,16.74,0,0,0,3.08.24,1.38,1.38,0,0,0,0-2.75,12.9,12.9,0,0,1-2.35-.14,1.4,1.4,0,0,0-1.69,1,1.38,1.38,0,0,0,1,1.69h0Z" transform="translate(-89.5 -23.46)"/></g><g class="cls-9"><path class="cls-22" d="M740.7,344.53a7,7,0,0,1,2.3,1.2c1.28,1.22,3.23-.72,1.94-1.94a10.38,10.38,0,0,0-3.52-1.91,1.38,1.38,0,0,0-1.69,1,1.41,1.41,0,0,0,1,1.69h0Z" transform="translate(-89.5 -23.46)"/></g><g class="cls-9"><path class="cls-22" d="M754.34,376.31c2.89,1.32,5.94,1.17,9,.72,1.75-.26,1-2.91-0.73-2.65-2.26.33-4.77,0.53-6.9-.44-1.6-.73-3,1.64-1.39,2.37h0Z" transform="translate(-89.5 -23.46)"/></g><g class="cls-9"><path class="cls-22" d="M771.33,376.3a19,19,0,0,0,8.52-1c1.62-.66.91-3.32-0.73-2.65a17.19,17.19,0,0,1-7.79.92c-1.77-.11-1.76,2.64,0,2.75h0Z" transform="translate(-89.5 -23.46)"/></g><g class="cls-9"><path class="cls-22" d="M792.65,372.17l4.07-.58a1.38,1.38,0,0,0,1-1.69,1.41,1.41,0,0,0-1.69-1l-4.07.59a1.38,1.38,0,0,0-1,1.69,1.41,1.41,0,0,0,1.69,1h0Z" transform="translate(-89.5 -23.46)"/></g><g class="cls-9"><path class="cls-10" d="M192,335.77c-3.27-.21-61-5.52-59.42-20.89,2.24-24.72,134.49-20.5,142.74,4.3a211.6,211.6,0,0,0-36.76,2.46C226.95,335.58,228.77,352.75,192,335.77Z" transform="translate(-89.5 -23.46)"/><path class="cls-8" d="M192,334.39c-8.55-.58-65.85-7.06-57.16-22,4.41-7.57,18.21-9.23,25.83-10.47,14.58-2.37,29.57-2.57,44.29-2,15,0.61,30.13,2.26,44.71,6,7.51,1.92,21.31,5.14,24.32,13.6l1.33-1.74A225.12,225.12,0,0,0,239.91,320c-4.76.68-7.65,8.32-10,12.11-2.58,4.16-5.58,7.78-10.53,9-8.65,2.08-19.15-3.11-26.7-6.55-1.6-.73-3,1.64-1.39,2.37,11,5,27.43,12.56,37.34,1.64,3.52-3.87,5.76-8.81,8.7-13.1,1.82-2.66,3.05-2.77,6.43-3.22s7-.8,10.48-1.09c7-.59,14-0.73,21.06-0.62a1.38,1.38,0,0,0,1.33-1.74c-2.79-7.84-12.78-11.34-19.93-13.7-13-4.29-27-6.09-40.59-7.22a260.23,260.23,0,0,0-45.43,0c-10.77,1-22.59,2.44-32.21,7.74-3.81,2.1-7.38,5.49-7.3,10.14,0.11,6.61,8.72,10.14,13.76,12.12,14.58,5.75,31.46,8.16,47.06,9.22C193.75,337.26,193.74,334.51,192,334.39Z" transform="translate(-89.5 -23.46)"/></g><g class="cls-9"><path class="cls-10" d="M956.68,292.13c-34,2.85-45.55,9.69-14.32,25.3,11.11,5.55-9.81,15.57-10.94,20.82-3.53,16.35,44.27,12.69,51.47,12.93,9.59,0.51,99.71-12.65,62.67-33.49C1025.84,306.59,975.05,289.74,956.68,292.13Z" transform="translate(-89.5 -23.46)"/><path class="cls-8" d="M956.68,290.75c-5.87.51-39.67,1.67-33.07,14.84,1.29,2.58,3.94,4.47,6.19,6.13a64.33,64.33,0,0,0,6.35,4c2.41,1.38,6.29,2.42,7.86,4.82,2.51,3.82-10.86,12.48-12.82,15.22-2.64,3.68-1,8.27,2.28,10.87,4.56,3.56,11,4.45,16.56,5.18,11.24,1.47,22.75,1,34.06.77,10.2-.21,20.62-2.37,30.57-4.42,11.68-2.41,24.55-5.19,34.73-11.7,7.28-4.66,8.37-11.65,1.19-17.1-5.66-4.3-12.59-7.13-19.11-9.86-9.2-3.86-18.6-7.22-28.12-10.21a245.93,245.93,0,0,0-26.4-6.83c-6.58-1.29-13.57-2.45-20.28-1.67-1.74.2-1.76,3,0,2.75,7.57-.88,15.39.68,22.77,2.23a267.9,267.9,0,0,1,29.11,8.09,275.13,275.13,0,0,1,27.58,10.67c5.36,2.44,12.46,5.16,15.95,10.21,9.3,13.47-49.71,23-56.72,24A189.78,189.78,0,0,1,971.12,350a149.29,149.29,0,0,1-22.45-1.13c-4.88-.69-13.68-1.86-15.77-7.25s8.26-11.13,11.3-14.5c1.54-1.71,2.91-3.82,2.74-6.21-0.24-3.4-4.28-4.84-6.77-6.14-3.32-1.73-19.91-9.87-12.78-15.05,2.9-2.11,6.85-2.89,10.28-3.65a145.36,145.36,0,0,1,19-2.55C958.43,293.35,958.45,290.6,956.68,290.75Z" transform="translate(-89.5 -23.46)"/></g><path class="cls-23" d="M325.68,324.27a3.52,3.52,0,0,0-1.3-.52,13.3,13.3,0,0,0-1.36-.28l-0.13,0c-6-1-20.9-1.74-38.91-1.74s-34.5.72-42.82,1.75l-0.19,0c-0.66.07-1.37,0.17-2,.28-1,.17-2,0.31-2.56.48-1.74.45-3.44,0.67-4.34,1.59h0a0.08,0.08,0,0,1,0,0c-0.82.55-1.08,1.08-.77,1.5,0.1,0.05.4,0.1,0.51,0.16a0.65,0.65,0,0,0,.46.37s-0.15.07-.15,0.1h0s0.41,0.05.45,0.09c6.11,4.18,4.91,12-5,21.13l-1.38.14c-0.4,0-.83.09-1.22,0.15a11.46,11.46,0,0,0-1.49.29,6.47,6.47,0,0,0-2.28.89c-0.42.32-.37,0.61,0,0.84a1.31,1.31,0,0,0,.77.32,12.53,12.53,0,0,0,2.66.36,54.3,54.3,0,0,0,6.83.77L210,370.75H251.2l17.49-17.86c2-.1,4.84-0.39,6.65-0.53,1.6-.12,3-0.33,3.89-0.48a6.1,6.1,0,0,0,1.39-.36,4.06,4.06,0,0,0,1.8-.86c0.32-.34.17-0.66-0.32-0.9a2.35,2.35,0,0,0-.85-0.29c-0.27-.06-0.58-0.11-0.9-0.16s-1-.13-1.58-0.19c10.6-9.09,26.53-16.84,41.93-21h0l0.05,0a6,6,0,0,1,.63-0.15,5,5,0,0,0,2.09-.54c0.13,0,.21,0,0.33-0.08a5.26,5.26,0,0,0,2.37-1.41C326.65,325.28,326.42,324.72,325.68,324.27Z" transform="translate(-89.5 -23.46)"/><path class="cls-17" d="M326.31,314.58a11.79,11.79,0,0,1-1.7,6.2,6.09,6.09,0,0,1-1.68,2,6.19,6.19,0,0,1-1.55.65s-0.09-.33-0.13-0.33h-80.6s-0.09.36-.13,0.33a6.73,6.73,0,0,1-1.55-.85,5.89,5.89,0,0,1-1.67-1.89,11.56,11.56,0,0,1-1.7-6.15c0-2.11-.08-4,0.81-5.65a4,4,0,0,0,1.18-2.32h0c0-.11.77-0.22,0.85-0.35,11.8-16.78,20.38-48.73,21.44-86,0.06-2,.24-4.1.26-6.18,4.21-1.79,12-3,20.87-3,8.61,0,16.21,1.14,20.49,2.85,0,2.17.07,4.32,0.13,6.45,1.07,37.13,9.31,68.94,21,85.75h0c0.12,0.18.25,0.35,0.38,0.53q1,1.37,2,2.6A11.85,11.85,0,0,1,326.31,314.58Z" transform="translate(-89.5 -23.46)"/><path class="cls-24" d="M306,219.87a6.46,6.46,0,0,1-.93,3.4,3.35,3.35,0,0,1-.92,1.09,4.12,4.12,0,0,1-.85.58c-3.7,2.18-12.25,3.7-22.22,3.7s-18.52-1.53-22.22-3.7a4.17,4.17,0,0,1-.85-0.58,3.33,3.33,0,0,1-.92-1.09,6.67,6.67,0,0,1-.09-6.64,2.71,2.71,0,0,1,.87-1.21c2.92,2.55,12.21,4.41,23.21,4.41s20.29-1.86,23.21-4.41a2.72,2.72,0,0,1,.88,1.23A6.46,6.46,0,0,1,306,219.87Z" transform="translate(-89.5 -23.46)"/><path class="cls-17" d="M304.29,215.42c-2.92,2.55-12.21,4.41-23.21,4.41s-20.29-1.86-23.21-4.41a9,9,0,0,1,2.42-1.42c4.21-1.79,11.95-3,20.79-3,8.61,0,16.18,1.14,20.45,2.85A9.6,9.6,0,0,1,304.29,215.42Z" transform="translate(-89.5 -23.46)"/><path class="cls-24" d="M326.31,314.58a11.79,11.79,0,0,1-1.7,6.2,6.09,6.09,0,0,1-1.68,2,7.77,7.77,0,0,1-1.55,1l-0.13.07c-6.81,3.92-22.29,6.66-40.31,6.66s-33.5-2.74-40.3-6.66l-0.13-.07a7.57,7.57,0,0,1-1.55-1,6.13,6.13,0,0,1-1.67-2,12.11,12.11,0,0,1-.29-11.87l0.11-.21a5,5,0,0,1,1.59-2.21l0.08,0.07c0.31,0.26.66,0.52,1,.78l0.29,0.18,0.37,0.23c0.23,0.14.47,0.28,0.73,0.41,0.5,0.27,1,.53,1.64.79l0.89,0.37,1,0.37,0.41,0.15c1.38,0.5,2.91.95,4.59,1.38l0.47,0.12a95.38,95.38,0,0,0,10.41,1.91l1.22,0.16c1.67,0.21,3.41.38,5.19,0.54l2.35,0.18c3.69,0.26,7.57.39,11.58,0.39q3,0,5.93-.1l2.34-.09,0.78,0,1.35-.08,2.45-.16,1.45-.12c1.63-.14,3.22-0.31,4.76-0.49l1.5-.19,1.57-.22,1.48-.22c1.28-.21,2.53-0.43,3.72-0.67l1.15-.24,0.23,0,0.61-.14a54.49,54.49,0,0,0,6.89-2c0.33-.12.66-0.24,1-0.37a24,24,0,0,0,2.54-1.17L321,308l0.36-.2a12,12,0,0,0,1.66-1.15l0.13-.11a4.92,4.92,0,0,1,1.6,2.24l0.26,0.48A11.8,11.8,0,0,1,326.31,314.58Z" transform="translate(-89.5 -23.46)"/><path class="cls-17" d="M323.2,306.49c-5.31,4.64-22.22,8-42.25,8s-36.93-3.38-42.25-8a16.4,16.4,0,0,1,4.4-2.58c7.66-3.26,21.75-5.44,37.84-5.44,15.67,0,29.44,2.08,37.23,5.2A17.47,17.47,0,0,1,323.2,306.49Z" transform="translate(-89.5 -23.46)"/><path class="cls-24" d="M296.56,214.06c-1.89,1-7.84,2.11-14.93,2.11s-12.92-.34-14.83-1.26H266V124.17h30.25V214A1.69,1.69,0,0,0,296.56,214.06Z" transform="translate(-89.5 -23.46)"/><path class="cls-23" d="M957.85,325.89a5.25,5.25,0,0,0,2.37,1.41c0.12,0,.21,0,0.34.08a5,5,0,0,0,2.09.54,6.07,6.07,0,0,1,.63.15l0.05,0h0c15.4,4.18,31.33,11.93,41.93,21-0.6.06-1.13,0.13-1.58,0.19s-0.64.09-.9,0.15a2.41,2.41,0,0,0-.85.29c-0.49.24-.63,0.55-0.32,0.89a4.07,4.07,0,0,0,1.8.84,6.77,6.77,0,0,0,1.39.32c0.91,0.15,2.29.29,3.88,0.41,1.81,0.15,4.69.58,6.65,0.69l17.49,17.86h41.25L1052.59,353a63.76,63.76,0,0,0,6.83-.62,10.54,10.54,0,0,0,2.66-.44,1.27,1.27,0,0,0,.77-0.36c0.34-.23.39-0.55,0-0.86a6.41,6.41,0,0,0-2.28-.9,11.48,11.48,0,0,0-1.49-.3c-0.4-.06-0.83-0.11-1.23-0.15l-1.4-.14c-9.87-9.17-11.22-17-5.11-21.14,0,0,.26-0.06.26-0.09h0a0.22,0.22,0,0,0,0-.08,1,1,0,0,0,.59-0.34c0.11-.05.24-0.06,0.33-0.11,0.31-.42,0-0.65-1-1.2v-0.43h0.4c-0.9-.92-2.6-1.14-4.34-1.59a23,23,0,0,0-2.56-.57c-0.64-.11-1.36-0.16-2-0.23h-0.19c-8.32-1-24.8-1.74-42.82-1.74s-32.89.72-38.91,1.75l-0.13,0a12.91,12.91,0,0,0-1.36.28,3.54,3.54,0,0,0-1.3.52C957.61,324.72,957.38,325.28,957.85,325.89Z" transform="translate(-89.5 -23.46)"/><path class="cls-17" d="M1047.73,314.58a11.8,11.8,0,0,1-1.7,6.2,6.1,6.1,0,0,1-1.68,2,6.18,6.18,0,0,1-1.55.65,3.49,3.49,0,0,1-.13-0.33h-80.6s-0.09.36-.13,0.33a6.79,6.79,0,0,1-1.56-.85,5.91,5.91,0,0,1-1.67-1.89,11.57,11.57,0,0,1-1.7-6.15c0-2.11-.08-4,0.81-5.65a4,4,0,0,0,1.18-2.32h0c0-.11.77-0.22,0.85-0.35,11.8-16.78,20.38-48.73,21.45-86,0.06-2,.24-4.1.26-6.18,4.21-1.79,12-3,20.87-3,8.61,0,16.21,1.14,20.49,2.85,0,2.17.07,4.32,0.13,6.45,1.07,37.13,9.31,68.94,21,85.75h0c0.12,0.18.25,0.35,0.38,0.53,0.66,0.92,1.32,1.78,2,2.6A11.87,11.87,0,0,1,1047.73,314.58Z" transform="translate(-89.5 -23.46)"/><path class="cls-24" d="M1027.42,219.87a6.47,6.47,0,0,1-.93,3.4,3.33,3.33,0,0,1-.92,1.09,4.09,4.09,0,0,1-.85.58c-3.7,2.18-12.25,3.7-22.22,3.7s-18.52-1.53-22.22-3.7a4.21,4.21,0,0,1-.85-0.58,3.36,3.36,0,0,1-.92-1.09,6.67,6.67,0,0,1-.09-6.64,2.71,2.71,0,0,1,.87-1.21c2.92,2.55,12.21,4.41,23.21,4.41s20.29-1.86,23.21-4.41a2.7,2.7,0,0,1,.88,1.23A6.42,6.42,0,0,1,1027.42,219.87Z" transform="translate(-89.5 -23.46)"/><path class="cls-17" d="M1025.71,215.42c-2.92,2.55-12.21,4.41-23.21,4.41s-20.29-1.86-23.21-4.41a9,9,0,0,1,2.42-1.42c4.21-1.79,12-3,20.79-3,8.61,0,16.17,1.14,20.45,2.85A9.59,9.59,0,0,1,1025.71,215.42Z" transform="translate(-89.5 -23.46)"/><path class="cls-24" d="M1047.73,314.58a11.8,11.8,0,0,1-1.7,6.2,6.1,6.1,0,0,1-1.68,2,7.76,7.76,0,0,1-1.55,1l-0.13.07c-6.81,3.92-22.29,6.66-40.3,6.66s-33.5-2.74-40.3-6.66l-0.13-.07a7.64,7.64,0,0,1-1.56-1,6.13,6.13,0,0,1-1.67-2,12.11,12.11,0,0,1-.29-11.87l0.11-.21a5,5,0,0,1,1.59-2.21l0.08,0.07c0.31,0.26.66,0.52,1,.78l0.29,0.18,0.37,0.23c0.23,0.14.47,0.28,0.73,0.41,0.5,0.27,1,.53,1.63.79l0.89,0.37,1,0.37,0.41,0.15c1.38,0.5,2.91.95,4.59,1.38l0.47,0.12A95.43,95.43,0,0,0,982,313.25l1.22,0.16c1.67,0.21,3.41.38,5.18,0.54l2.35,0.18c3.69,0.26,7.57.39,11.58,0.39q3,0,5.93-.1l2.35-.09,0.78,0,1.34-.08,2.46-.16,1.45-.12c1.63-.14,3.23-0.31,4.76-0.49l1.5-.19,1.57-.22,1.48-.22c1.28-.21,2.53-0.43,3.72-0.67l1.15-.24,0.23,0,0.62-.14a54.56,54.56,0,0,0,6.89-2c0.33-.12.66-0.24,1-0.37a24,24,0,0,0,2.54-1.17l0.37-.2,0.36-.2a12,12,0,0,0,1.66-1.15l0.13-.11a4.93,4.93,0,0,1,1.6,2.24l0.26,0.48A11.84,11.84,0,0,1,1047.73,314.58Z" transform="translate(-89.5 -23.46)"/><path class="cls-17" d="M1044.62,306.49c-5.32,4.64-22.22,8-42.25,8s-36.93-3.38-42.25-8a16.39,16.39,0,0,1,4.4-2.58c7.66-3.26,21.75-5.44,37.84-5.44,15.67,0,29.44,2.08,37.23,5.2A17.48,17.48,0,0,1,1044.62,306.49Z" transform="translate(-89.5 -23.46)"/><path class="cls-24" d="M1018,214.06c-1.89,1-7.84,2.11-14.93,2.11s-12.92-.34-14.83-1.26h-0.8V124.17h30.25V214A1.69,1.69,0,0,0,1018,214.06Z" transform="translate(-89.5 -23.46)"/><rect class="cls-25" x="0.5" y="64.54" width="1100" height="36"/><rect class="cls-26" x="802.5" y="71.54" width="61" height="22" rx="1.83" ry="1.83"/><rect class="cls-25" x="877.5" y="71.54" width="52" height="22" rx="1.83" ry="1.83"/><path class="cls-27" d="M97.88,101.43a1.09,1.09,0,0,1,1.1-1.1h13.2a1.09,1.09,0,0,1,1.1,1.1,1.12,1.12,0,0,1-1.1,1.1H99A1.12,1.12,0,0,1,97.88,101.43Zm15.4,4.4a1.12,1.12,0,0,1-1.1,1.1H99a1.12,1.12,0,0,1-1.1-1.1,1.09,1.09,0,0,1,1.1-1.1h13.2A1.09,1.09,0,0,1,113.28,105.83Zm0,4.4a1.12,1.12,0,0,1-1.1,1.1H99a1.12,1.12,0,0,1-1.1-1.1,1.09,1.09,0,0,1,1.1-1.1h13.2A1.09,1.09,0,0,1,113.28,110.23Z" transform="translate(-89.5 -23.46)"/><text class="cls-28" transform="translate(68.71 86.84)">Residential</text><path class="cls-8" d="M141.54,104.88a0.17,0.17,0,0,1,0,.12,2.18,2.18,0,0,0-.08.29,7.34,7.34,0,0,0-.36,2.09,0.5,0.5,0,1,1-1,.09,3.42,3.42,0,0,1,.85-2.1l0.34-.5A0.14,0.14,0,0,1,141.54,104.88Z" transform="translate(-89.5 -23.46)"/><path class="cls-8" d="M141.83,96.35a9.34,9.34,0,1,0,9.33,9.34A9.33,9.33,0,0,0,141.83,96.35Zm0,13.43a2.39,2.39,0,0,1-2.39-2.37c0-2.1,1.92-2.72,2.29-5.75,0-.1.18-0.1,0.18,0,0.38,3,2.29,3.65,2.29,5.75A2.38,2.38,0,0,1,141.83,109.78Z" transform="translate(-89.5 -23.46)"/><text class="cls-29" transform="translate(811.41 85.92)">O<tspan x="7.56" y="0">v</tspan><tspan x="12.82" y="0">e</tspan><tspan x="18.65" y="0">r</tspan><tspan x="22.47" y="0">view</tspan></text><text class="cls-29" transform="translate(947.65 85.92)">D<tspan x="7.21" y="0">I</tspan><tspan x="10.05" y="0">Y Resou</tspan><tspan x="49.99" y="0">r</tspan><tspan x="53.61" y="0">ces</tspan></text><text class="cls-29" transform="translate(1042.07 85.92)">Contact</text><text class="cls-29" transform="translate(886.11 85.92)">Wiza<tspan x="23.86" y="0">r</tspan><tspan x="27.48" y="0">d</tspan></text><path class="cls-27" d="M99.72,101.43a1.09,1.09,0,0,1,1.1-1.1H114a1.09,1.09,0,0,1,1.1,1.1,1.12,1.12,0,0,1-1.1,1.1h-13.2A1.12,1.12,0,0,1,99.72,101.43Zm15.4,4.4a1.12,1.12,0,0,1-1.1,1.1h-13.2a1.12,1.12,0,0,1-1.1-1.1,1.09,1.09,0,0,1,1.1-1.1H114A1.09,1.09,0,0,1,115.12,105.83Zm0,4.4a1.12,1.12,0,0,1-1.1,1.1h-13.2a1.12,1.12,0,0,1-1.1-1.1,1.09,1.09,0,0,1,1.1-1.1H114A1.09,1.09,0,0,1,115.12,110.23Z" transform="translate(-89.5 -23.46)"/><rect class="cls-30" x="0.5" y="0.5" width="1100" height="751.55" rx="6" ry="6"/><circle class="cls-31" cx="16.89" cy="17.49" r="4.09"/><circle class="cls-31" cx="33.66" cy="17.49" r="4.09"/><circle class="cls-31" cx="50.43" cy="17.49" r="4.09"/><line class="cls-30" x1="0.5" y1="64.55" x2="1100.5" y2="64.55"/><path class="cls-30" d="M90,58.05h70.89L166.53,36a6.75,6.75,0,0,1,6.26-5.16H241" transform="translate(-89.5 -23.46)"/><path class="cls-30" d="M1189.57,58.05H311.72L306.09,36a6.75,6.75,0,0,0-6.26-5.16H231.65" transform="translate(-89.5 -23.46)"/><path class="cls-31" d="M289.46,47.25a4.45,4.45,0,0,1,0-4.44,4.4,4.4,0,0,1,1.61-1.61,4.45,4.45,0,0,1,4.44,0,4.41,4.41,0,0,1,1.61,1.61,4.45,4.45,0,0,1,0,4.44,4.4,4.4,0,0,1-1.61,1.61,4.45,4.45,0,0,1-4.44,0A4.39,4.39,0,0,1,289.46,47.25Zm1.63-.92a0.36,0.36,0,0,0,.11.26l0.52,0.52a0.36,0.36,0,0,0,.26.11,0.36,0.36,0,0,0,.26-0.11l1-1,1,1a0.35,0.35,0,0,0,.26.11,0.36,0.36,0,0,0,.26-0.11l0.52-.52a0.36,0.36,0,0,0,.11-0.26,0.35,0.35,0,0,0-.11-0.26l-1-1,1-1a0.35,0.35,0,0,0,.11-0.26,0.36,0.36,0,0,0-.11-0.26L294.85,43a0.36,0.36,0,0,0-.26-0.11,0.35,0.35,0,0,0-.26.11l-1,1-1-1a0.35,0.35,0,0,0-.26-0.11,0.36,0.36,0,0,0-.26.11l-0.52.52a0.36,0.36,0,0,0-.11.26,0.35,0.35,0,0,0,.11.26l1,1-1,1A0.35,0.35,0,0,0,291.09,46.34Z" transform="translate(-89.5 -23.46)"/><text class="cls-32" transform="translate(9.95 53.78)">      </text><rect class="cls-30" x="61.8" y="41.47" width="1005.18" height="16.9" rx="2" ry="2"/><text class="cls-33" transform="translate(1079.3 53.79)"></text></svg>