<svg id="Layer_1" data-name="Layer 1" xmlns="http://www.w3.org/2000/svg" viewBox="0 0 795 269.14"><defs><style>.cls-1{fill:#5e5642;}.cls-2{fill:#766c59;}.cls-3{fill:#333;}.cls-4{fill:#4d4d4d;}.cls-5{fill:#dce2e5;}.cls-6{fill:#dddcc4;}.cls-7{fill:#bcbbaa;}.cls-23,.cls-24,.cls-26,.cls-27,.cls-29,.cls-31,.cls-8{fill:none;}.cls-26,.cls-27,.cls-8{stroke:#333;}.cls-18,.cls-19,.cls-20,.cls-23,.cls-24,.cls-26,.cls-27,.cls-29,.cls-30,.cls-31,.cls-8{stroke-miterlimit:10;}.cls-24,.cls-8{stroke-width:2px;}.cls-19,.cls-9{fill:#f9eca2;}.cls-10{fill:#73a3ec;}.cls-11{fill:#e6e6e6;}.cls-12{fill:#bec4c6;}.cls-13{fill:#ccc;}.cls-14{fill:#5f5643;}.cls-15{fill:#776c5a;}.cls-16{fill:#095268;}.cls-17{fill:#353738;}.cls-18,.cls-20,.cls-21{fill:#e8a34f;}.cls-18,.cls-19,.cls-20,.cls-30{stroke:#4d4d4d;}.cls-18,.cls-19,.cls-29,.cls-30{stroke-width:0.5px;}.cls-22{fill:#727575;}.cls-23,.cls-24{stroke:#c1272d;}.cls-25{fill:#f2f2f2;}.cls-26,.cls-27{stroke-width:4px;}.cls-27,.cls-29{stroke-dasharray:1 1;}.cls-28{fill:#eff3f4;}.cls-29{stroke:gray;}.cls-30{fill:#ea4e4e;}.cls-31{stroke:#f2f2f2;}.cls-32{fill:#fff;}</style></defs><title>stormwater-il-3</title><rect class="cls-1" x="278" y="229.14" width="100" height="10"/><rect class="cls-2" x="278" y="239.14" width="100" height="20"/><rect class="cls-3" x="278" y="219.14" width="100" height="10"/><rect class="cls-4" x="278" y="259.14" width="100" height="10"/><rect class="cls-1" y="229.14" width="100" height="10"/><rect class="cls-2" y="239.14" width="100" height="20"/><rect class="cls-5" y="219.14" width="100" height="10"/><path class="cls-6" d="M891.58,936h5.24l3.78-12h8.15l1.46,12h5s0-.09,0-0.13l-2.16-17.8,4.35-24.13a2.5,2.5,0,0,0-4.92-.88L908,917.93l0.13,1.07h-11.2Z" transform="translate(-852 -716.86)"/><rect class="cls-7" x="44" y="200.14" width="13" height="2"/><path class="cls-8" d="M925.35,836.81c0-8.59,4-15.56,9-15.56s9,7,9,15.56" transform="translate(-852 -716.86)"/><path class="cls-8" d="M908.13,836.81c0-8.59,4-15.56,9-15.56s9,7,9,15.56" transform="translate(-852 -716.86)"/><path class="cls-9" d="M913.62,843.75c0,4.35-2.51,7.87-5.62,7.87s-5.62-3.52-5.62-7.87a7.75,7.75,0,0,1,0-1,22.21,22.21,0,0,0,11.14,0A7.45,7.45,0,0,1,913.62,843.75Z" transform="translate(-852 -716.86)"/><path class="cls-3" d="M913.57,842.8a22.21,22.21,0,0,1-11.14,0,9.5,9.5,0,0,1,1.21-4,4.72,4.72,0,0,1,8.72,0A9.63,9.63,0,0,1,913.57,842.8Z" transform="translate(-852 -716.86)"/><path class="cls-3" d="M916.11,840.94c0,0.73-1,1.39-2.54,1.86a22.21,22.21,0,0,1-11.14,0c-1.53-.46-2.48-1.12-2.48-1.84,0-.9,1.47-1.7,3.69-2.15a22.18,22.18,0,0,1,4.39-.41,21.65,21.65,0,0,1,4.33.4C914.61,839.23,916.11,840,916.11,840.94Z" transform="translate(-852 -716.86)"/><path class="cls-9" d="M949.62,843.75c0,4.35-2.51,7.87-5.62,7.87s-5.62-3.52-5.62-7.87a7.75,7.75,0,0,1,0-1,22.21,22.21,0,0,0,11.14,0A7.45,7.45,0,0,1,949.62,843.75Z" transform="translate(-852 -716.86)"/><path class="cls-3" d="M949.57,842.8a22.21,22.21,0,0,1-11.14,0,9.5,9.5,0,0,1,1.21-4,4.72,4.72,0,0,1,8.72,0A9.63,9.63,0,0,1,949.57,842.8Z" transform="translate(-852 -716.86)"/><path class="cls-3" d="M952.11,840.94c0,0.73-1,1.39-2.54,1.86a22.21,22.21,0,0,1-11.14,0c-1.53-.46-2.48-1.12-2.48-1.84,0-.9,1.47-1.7,3.69-2.15a22.18,22.18,0,0,1,4.39-.41,21.65,21.65,0,0,1,4.33.4C950.61,839.23,952.11,840,952.11,840.94Z" transform="translate(-852 -716.86)"/><rect class="cls-3" x="69" y="217.14" width="10" height="2"/><polygon class="cls-3" points="74 96.14 74 217.15 70.9 217.15 72.99 96.14 74 96.14"/><polygon class="cls-4" points="77.35 217.15 74 217.15 74 96.14 75 96.14 75 100.74 77.35 217.15"/><path class="cls-4" d="M925,813.13a1.13,1.13,0,1,1,2,0" transform="translate(-852 -716.86)"/><rect class="cls-4" y="259.14" width="100" height="10"/><polygon class="cls-4" points="48 229.15 48 230.15 48 236.27 48 239.15 43.33 239.15 30.11 259.14 29.44 259.14 24.11 259.14 23.9 259.14 17.94 259.14 4.67 239.15 0 239.15 0 236.27 0 230.15 0 229.15 48 229.15"/><polygon class="cls-10" points="4.9 229.15 4.9 219.15 42.9 219.15 42.9 229.15 43.01 229.15 37.11 238.15 36.63 238.88 25.9 255.26 25.9 265.27 26 265.27 26 269.14 22 269.14 22 268.14 21.9 268.14 21.9 255.25 11.17 238.88 10.69 238.15 4.79 229.15 4.9 229.15"/><rect class="cls-5" x="35" y="219.14" width="5" height="10"/><rect class="cls-5" x="26" y="219.14" width="5" height="10"/><rect class="cls-5" x="17" y="219.14" width="5" height="10"/><rect class="cls-5" x="8" y="219.14" width="5" height="10"/><rect class="cls-5" x="43" y="219.14" width="5" height="10"/><rect class="cls-5" y="219.14" width="5" height="10"/><rect class="cls-1" x="139" y="229.14" width="100" height="10"/><rect class="cls-2" x="139" y="239.14" width="100" height="20"/><rect class="cls-5" x="139" y="219.14" width="100" height="10"/><path class="cls-6" d="M1036.58,936h5.24l3.78-12h8.15l1.46,12h5s0-.09,0-0.13l-2.16-17.8,4.35-24.13a2.5,2.5,0,0,0-4.92-.88L1053,917.93l0.13,1.07h-11.2Z" transform="translate(-852 -716.86)"/><rect class="cls-7" x="189" y="200.14" width="13" height="2"/><polygon class="cls-11" points="228.47 33.95 158.85 15.31 159.23 13.36 228.84 32 228.47 33.95"/><path class="cls-11" d="M1079.72,778.58c-5.84-18.37-37.64-37.75-75.6-46.07l0.47-2.95c39.41,8.64,71.29,28.37,77.53,48Z" transform="translate(-852 -716.86)"/><rect class="cls-12" x="221" y="216.14" width="18" height="3"/><polygon class="cls-13" points="230 2.15 230 216.15 224.54 216.15 228.23 2.15 230 2.15"/><polygon class="cls-11" points="235.9 216.15 230 216.15 230 2.15 232 2.15 232 10.72 235.9 216.15"/><path class="cls-13" d="M1011.44,728.69l-0.83,5.24a2.92,2.92,0,0,1-1.66,2.28c0.11-1.45-3.48-3.41-8.11-4.42-4.41-1-8.21-.73-8.84.51a3.33,3.33,0,0,1-.64-2.59l0.08-.49a3.5,3.5,0,0,1,3-3l14.9-.4C1010.76,725.78,1011.7,727.07,1011.44,728.69Z" transform="translate(-852 -716.86)"/><path class="cls-9" d="M1008.94,736.21a2.24,2.24,0,0,1-1.32.12l-14.24-3.12a2.48,2.48,0,0,1-1.4-.91c0.63-1.25,4.43-1.48,8.84-.51C1005.46,732.8,1009.05,734.76,1008.94,736.21Z" transform="translate(-852 -716.86)"/><path class="cls-11" d="M1080.23,719.73c0-1.59,1-2.87,2.13-2.87s2.13,1.29,2.13,2.88" transform="translate(-852 -716.86)"/><rect class="cls-4" x="139" y="259.14" width="100" height="10"/><polygon class="cls-4" points="187 229.15 187 230.15 187 236.27 187 239.15 182.33 239.15 169.11 259.14 168.44 259.14 163.11 259.14 162.9 259.14 156.94 259.14 143.67 239.15 139 239.15 139 236.27 139 230.15 139 229.15 187 229.15"/><polygon class="cls-10" points="143.9 229.15 143.9 219.15 181.9 219.15 181.9 229.15 182.01 229.15 176.11 238.15 175.63 238.88 164.9 255.26 164.9 265.27 165 265.27 165 269.14 161 269.14 161 268.14 160.9 268.14 160.9 255.25 150.17 238.88 149.69 238.15 143.79 229.15 143.9 229.15"/><rect class="cls-5" x="174" y="219.14" width="5" height="10"/><rect class="cls-5" x="165" y="219.14" width="5" height="10"/><rect class="cls-5" x="156" y="219.14" width="5" height="10"/><rect class="cls-5" x="147" y="219.14" width="5" height="10"/><rect class="cls-5" x="182" y="219.14" width="5" height="10"/><rect class="cls-5" x="139" y="219.14" width="5" height="10"/><rect class="cls-3" x="571" y="208.14" width="11" height="11" rx="2" ry="2"/><rect class="cls-3" x="634" y="208.14" width="11" height="11" rx="2" ry="2"/><rect class="cls-14" x="556" y="229.14" width="100" height="10"/><rect class="cls-15" x="556" y="239.14" width="100" height="20"/><rect class="cls-3" x="556" y="219.14" width="100" height="10"/><path class="cls-5" d="M1499,843.61v78.94c0,2.46-.29,4.45-2.5,4.45h-74c-2.21,0-5.5-2-5.5-4.45V843.61c0-2.45,3.29-4.61,5.5-4.61h3.77a9.15,9.15,0,0,0,8.75,5.86c0.39,0,.77.14,1.15,0.14h45.7c0.38,0,.76-0.14,1.15-0.14a9.15,9.15,0,0,0,8.75-5.86h4.73C1498.71,839,1499,841.16,1499,843.61Z" transform="translate(-852 -716.86)"/><rect class="cls-3" x="565" y="202.14" width="82" height="8"/><path class="cls-12" d="M1478,904.08a1.92,1.92,0,0,1-1.92,1.92h-36.17a1.92,1.92,0,0,1-1.92-1.92v-0.16a1.92,1.92,0,0,1,1.92-1.92h36.17a1.92,1.92,0,0,1,1.92,1.92v0.16Zm-1-.16a0.92,0.92,0,0,0-.92-0.92h-36.17a0.92,0.92,0,0,0-.92.92v0.16a0.92,0.92,0,0,0,.92.92h36.17a0.92,0.92,0,0,0,.92-0.92v-0.16Z" transform="translate(-852 -716.86)"/><path class="cls-12" d="M1469,920h-21V902h21v18Zm-20-1h19V903h-19v16Z" transform="translate(-852 -716.86)"/><path class="cls-12" d="M1474,920h-32v-5h32v5Zm-31-1h30v-3h-30v3Z" transform="translate(-852 -716.86)"/><path class="cls-16" d="M1424,864h33v33c-14-.12-34-1.93-34-1.93a8,8,0,0,1-3-.57V867C1420,865.35,1422.35,864,1424,864Z" transform="translate(-852 -716.86)"/><path class="cls-16" d="M1496,867v27.55c0,0.2-.84.48-2.49,0.62,0,0-20.07,1.83-34,1.83H1458V864h36C1495.65,864,1496,865.35,1496,867Z" transform="translate(-852 -716.86)"/><polygon class="cls-17" points="586.25 176.28 586.47 176.62 575.6 183.59 575.82 183.93 586.68 176.96 586.9 177.29 602.12 167.54 601.47 166.53 586.25 176.28"/><polygon class="cls-17" points="628.47 176.28 628.25 176.62 639.12 183.59 638.9 183.93 628.03 176.96 627.82 177.29 612.6 167.54 613.25 166.53 628.47 176.28"/><circle class="cls-18" cx="643.54" cy="194.69" r="1.38"/><circle class="cls-18" cx="570.54" cy="194.69" r="1.38"/><circle class="cls-19" cx="638.54" cy="196.69" r="1.38"/><circle class="cls-19" cx="575.54" cy="196.69" r="1.38"/><circle class="cls-19" cx="580.54" cy="196.69" r="1.38"/><circle class="cls-19" cx="633.54" cy="196.69" r="1.38"/><path class="cls-3" d="M1458.74,849c-14.2,0-32.89,2.56-32.89,2.56a2.85,2.85,0,0,0-2.3,1.77l-0.84,3.16-1,3.65-0.23.86a1.49,1.49,0,0,0,1.47,2h72a1.51,1.51,0,0,0,1.49-2l-0.26-1-0.9-3.57-0.76-3a2.79,2.79,0,0,0-2.26-1.69S1473.41,849,1458.74,849Z" transform="translate(-852 -716.86)"/><path class="cls-20" d="M1430.5,847.5a1,1,0,0,1-.5,1h-5a1,1,0,0,1-.5-1h0a1,1,0,0,1,.5-1h5a1,1,0,0,1,.5,1h0Z" transform="translate(-852 -716.86)"/><path class="cls-20" d="M1492.5,847.5a1,1,0,0,1-.5,1h-5a1,1,0,0,1-.5-1h0a1,1,0,0,1,.5-1h5a1,1,0,0,1,.5,1h0Z" transform="translate(-852 -716.86)"/><path class="cls-21" d="M1440.29,853.05h2.81v0.47h-2.81v-0.47Zm0,7.48h2.81V861h-2.81v-0.47Zm1.17-6.77h0.47v2.79h-0.47v-2.79Zm0,3.75h0.47v2.79h-0.47v-2.79Zm1.88-4.45h0.47v3.84h-0.47v-3.84Zm0,4.08h0.47V861h-0.47v-3.87Z" transform="translate(-852 -716.86)"/><path class="cls-21" d="M1445,853.05h0.47v3.84H1445v-3.84Zm0.47,7.95H1445v-3.87h0.47V861Zm0.23-7.95h2.81v0.47h-2.81v-0.47Zm0,7.48h2.81V861h-2.81v-0.47Zm3-7.48h0.47v3.84h-0.47v-3.84Zm0,4.08h0.47V861h-0.47v-3.87Z" transform="translate(-852 -716.86)"/><path class="cls-21" d="M1450.37,853.05h0.47v3.84h-0.47v-3.84Zm0.47,7.95h-0.47v-3.87h0.47V861Zm0.12-.7,0.7-2.79h0.47l-0.7,2.79H1451Zm1.88-2.79h0.47l0.7,2.79h-0.47Zm1.29-4.45h0.47v3.84h-0.47v-3.84Zm0,4.08h0.47V861h-0.47v-3.87Z" transform="translate(-852 -716.86)"/><path class="cls-21" d="M1455.76,853.05h0.47v3.84h-0.47v-3.84Zm0.47,7.95h-0.47v-3.87h0.47V861Zm0.12-7.24h0.47l0.7,2.79H1457Zm1.88,3.75h0.47l0.7,2.79h-0.47Zm1.29-4.45H1460v3.84h-0.47v-3.84Zm0,4.08H1460V861h-0.47v-3.87Z" transform="translate(-852 -716.86)"/><path class="cls-21" d="M1461.85,853.05h2.81v0.47h-2.81v-0.47Zm1.17,0.7h0.47v2.79H1463v-2.79Zm0,3.75h0.47v2.79H1463v-2.79Z" transform="translate(-852 -716.86)"/><path class="cls-21" d="M1466.54,853.05H1467v3.84h-0.47v-3.84ZM1467,861h-0.47v-3.87H1467V861Zm0.23-7.95h2.81v0.47h-2.81v-0.47Zm0,7.48h2.81V861h-2.81v-0.47Zm3-7.48h0.47v3.84h-0.47v-3.84Zm0,4.08h0.47V861h-0.47v-3.87Z" transform="translate(-852 -716.86)"/><path class="cls-21" d="M1471.93,853.05h0.47v3.84h-0.47v-3.84Zm0.47,7.95h-0.47v-3.87h0.47V861Zm0.12-.7,0.7-2.79h0.47l-0.7,2.79h-0.47Zm1.88-2.79h0.47l0.7,2.79h-0.47Zm1.29-4.45h0.47v3.84h-0.47v-3.84Zm0,4.08h0.47V861h-0.47v-3.87Z" transform="translate(-852 -716.86)"/><path class="cls-21" d="M1477.32,853.05h0.47v3.84h-0.47v-3.84Zm0.47,7.95h-0.47v-3.87h0.47V861Zm0.12-7.24h0.47l0.7,2.79h-0.47Zm1.88,3.75h0.47l0.7,2.79h-0.47Zm1.29-4.45h0.47v3.84h-0.47v-3.84Zm0,4.08h0.47V861h-0.47v-3.87Z" transform="translate(-852 -716.86)"/><rect class="cls-3" x="645" y="147.14" width="10" height="15" rx="2" ry="2"/><rect class="cls-3" x="557" y="147.14" width="10" height="15" rx="2" ry="2"/><rect class="cls-4" x="556" y="259.14" width="100" height="10"/><rect class="cls-22" x="715" y="195.14" width="60" height="14"/><polyline class="cls-23" points="745.08 111.14 752.71 84.39 745.08 57.65 744.71 57.65 737.08 84.39 744.71 111.27"/><line class="cls-23" x1="737" y1="84.64" x2="753" y2="84.64"/><line class="cls-24" x1="745" y1="84.14" x2="745" y2="111.14"/><rect class="cls-25" x="728" y="57.14" width="33" height="1"/><line class="cls-26" x1="736" y1="58.14" x2="736" y2="58.14"/><line class="cls-27" x1="736" y1="57.14" x2="736" y2="52.14"/><line class="cls-26" x1="736" y1="52.14" x2="736" y2="51.14"/><line class="cls-26" x1="753" y1="58.14" x2="753" y2="58.14"/><line class="cls-27" x1="753" y1="57.14" x2="753" y2="52.14"/><line class="cls-26" x1="753" y1="52.14" x2="753" y2="51.14"/><path class="cls-25" d="M1577,773.3l-1.21-1.6c4.24-3.21,12.34-5.2,21.14-5.2s16.89,2,21.14,5.2l-1.21,1.6c-3.91-3-11.55-4.79-19.93-4.79S1580.88,770.34,1577,773.3Z" transform="translate(-852 -716.86)"/><path class="cls-12" d="M1621.36,828.94a3.82,3.82,0,0,0-3.58-2.94h-41.5a3.9,3.9,0,0,0-3.64,2.93l-1.73,8a2.35,2.35,0,0,0,2.36,3l20.5,0.18c1.65,0,4.35,0,6,0l20.75-.16a2.39,2.39,0,0,0,2.42-3Z" transform="translate(-852 -716.86)"/><rect class="cls-25" x="726" y="111.14" width="15" height="1"/><path class="cls-25" d="M1593,835h-15v-1h15v1Zm0-3h-15v-1h15v1Z" transform="translate(-852 -716.86)"/><path class="cls-25" d="M1585.4,837" transform="translate(-852 -716.86)"/><rect class="cls-25" x="749" y="111.14" width="15" height="1"/><path class="cls-25" d="M1616,835h-15v-1h15v1Zm0-3h-15v-1h15v1Z" transform="translate(-852 -716.86)"/><path class="cls-25" d="M1608.4,837" transform="translate(-852 -716.86)"/><rect class="cls-14" x="695" y="229.14" width="100" height="10"/><rect class="cls-15" x="695" y="239.14" width="100" height="20"/><rect class="cls-3" x="695" y="219.14" width="100" height="10"/><path class="cls-5" d="M1637.87,846c-0.49-6.1-18.64-11-41-11s-40.49,4.9-41,11H1556v66h82V846h-0.13Z" transform="translate(-852 -716.86)"/><rect class="cls-28" x="734" y="135.14" width="22" height="57"/><path class="cls-22" d="M1581.73,839a1.14,1.14,0,0,1,.27,1v8a1,1,0,0,1-1,1h-20a1,1,0,0,1-1-1v-1.4a1.68,1.68,0,0,1,.91-1.41l19.56-6A10.25,10.25,0,0,1,1581.73,839Z" transform="translate(-852 -716.86)"/><rect class="cls-22" x="734" y="122.14" width="22" height="10" rx="1" ry="1"/><path class="cls-22" d="M1633.09,845.24a1.68,1.68,0,0,1,.91,1.41V848a1,1,0,0,1-1,1h-20a1,1,0,0,1-1-1v-8a1.25,1.25,0,0,1,.24-1,10.78,10.78,0,0,1,1.22.21Z" transform="translate(-852 -716.86)"/><rect class="cls-16" x="737" y="139.14" width="16" height="21" rx="1" ry="1"/><path class="cls-29" d="M1586.63,883c2,1.49,5.83,2.5,10.27,2.5s8.3-1,10.27-2.5" transform="translate(-852 -716.86)"/><path class="cls-29" d="M1586.63,888c2,1.49,5.83,2.5,10.27,2.5s8.3-1,10.27-2.5" transform="translate(-852 -716.86)"/><path class="cls-29" d="M1586.63,893c2,1.49,5.83,2.5,10.27,2.5s8.3-1,10.27-2.5" transform="translate(-852 -716.86)"/><rect class="cls-3" x="731" y="192.14" width="28" height="3"/><rect class="cls-16" x="710" y="139.14" width="16" height="21" rx="1" ry="1"/><rect class="cls-16" x="762" y="139.14" width="16" height="21" rx="1" ry="1"/><circle class="cls-30" cx="707.54" cy="134.69" r="1.38"/><circle class="cls-30" cx="781.54" cy="134.69" r="1.38"/><circle class="cls-19" cx="726.54" cy="181.98" r="2.67"/><circle class="cls-19" cx="762.54" cy="181.98" r="2.67"/><polygon class="cls-12" points="728 195.15 704 195.15 704 209.15 715 209.15 728 195.15"/><polygon class="cls-12" points="762 195.15 786 195.15 786 209.15 775 209.15 762 195.15"/><rect class="cls-3" x="730" y="206.14" width="31" height="3"/><rect class="cls-3" x="729" y="198.14" width="1" height="18"/><rect class="cls-3" x="725" y="201.14" width="4" height="13"/><rect class="cls-3" x="760" y="198.14" width="1" height="18"/><rect class="cls-3" x="761" y="201.14" width="4" height="13"/><rect class="cls-5" x="725" y="215.14" width="3" height="4"/><rect class="cls-5" x="762" y="215.14" width="3" height="4"/><rect class="cls-3" x="736" y="197.14" width="19" height="6" rx="2.92" ry="2.92"/><polygon class="cls-17" points="723.07 142.11 722.9 141.88 730.43 136.49 730.26 136.25 722.74 141.65 722.57 141.41 712.03 148.96 712.54 149.66 723.07 142.11"/><circle class="cls-19" cx="739.54" cy="126.98" r="2.67"/><circle class="cls-19" cx="750.54" cy="126.98" r="2.67"/><rect class="cls-4" x="695" y="259.14" width="100" height="10"/><path class="cls-28" d="M1353,903.46a4.31,4.31,0,0,1-4.32,5.54H1290a4.24,4.24,0,0,1-4.23-5.54l7.07-29.92c0.72-3.06,3.12-5.54,5.36-5.54h43c2.24,0,4.6,2.48,5.28,5.54Z" transform="translate(-852 -716.86)"/><path class="cls-16" d="M1350.06,903a3.91,3.91,0,0,1-3.94,5h-53.57a3.85,3.85,0,0,1-3.86-5l6.45-27.11c0.66-2.79,2.85-4.87,4.89-4.87h39.2c2,0,4.2,2.08,4.81,4.87Z" transform="translate(-852 -716.86)"/><rect class="cls-5" x="431" y="180.14" width="73" height="28" rx="5" ry="5"/><rect class="cls-3" x="432" y="208.14" width="11" height="11" rx="2" ry="2"/><rect class="cls-3" x="495" y="208.14" width="11" height="11" rx="2" ry="2"/><rect class="cls-14" x="417" y="229.14" width="100" height="10"/><rect class="cls-15" x="417" y="239.14" width="100" height="20"/><rect class="cls-3" x="417" y="219.14" width="100" height="10"/><rect class="cls-12" x="426" y="202.14" width="82" height="8" rx="3" ry="3"/><rect class="cls-4" x="417" y="259.14" width="100" height="10"/><circle class="cls-19" cx="439.07" cy="188.62" r="4.69"/><circle class="cls-19" cx="496.07" cy="187.62" r="4.69"/><path class="cls-12" d="M1342.33,898.5h0a4.5,4.5,0,0,1-4.5,4.5h-37a4.5,4.5,0,0,1-4.5-4.5h0" transform="translate(-852 -716.86)"/><line class="cls-31" x1="429" y1="204.64" x2="461" y2="204.64"/><line class="cls-31" x1="464" y1="204.64" x2="472" y2="204.64"/><line class="cls-31" x1="476" y1="204.64" x2="479" y2="204.64"/><line class="cls-31" x1="483" y1="204.64" x2="487" y2="204.64"/><rect class="cls-22" x="448" y="188.14" width="39" height="12" rx="5" ry="5"/><rect class="cls-25" x="453" y="191.14" width="29" height="1"/><path class="cls-25" d="M1334,915h-29v-1h29v1Zm0-3h-29v-1h29v1Z" transform="translate(-852 -716.86)"/><path class="cls-25" d="M1319.33,917" transform="translate(-852 -716.86)"/><polygon class="cls-17" points="452.65 174.78 452.81 175.02 444.9 180.09 445.06 180.33 452.96 175.27 453.12 175.51 464.19 168.42 463.71 167.68 452.65 174.78"/><polygon class="cls-17" points="483.34 174.78 483.19 175.02 491.09 180.09 490.93 180.33 483.03 175.27 482.87 175.51 471.81 168.42 472.28 167.68 483.34 174.78"/><circle class="cls-18" cx="500.54" cy="194.69" r="1.38"/><circle class="cls-18" cx="434.54" cy="195.69" r="1.38"/><path class="cls-32" d="M1293.92,903.32a3.88,3.88,0,0,0-2.23-.7,3.94,3.94,0,0,0-3.94,3.94,3.87,3.87,0,0,0,.69,2.22A3.93,3.93,0,1,1,1293.92,903.32Z" transform="translate(-852 -716.86)"/><path class="cls-32" d="M1350.92,902.32a3.88,3.88,0,0,0-2.23-.7,3.94,3.94,0,0,0-3.94,3.94,3.87,3.87,0,0,0,.69,2.22A3.93,3.93,0,1,1,1350.92,902.32Z" transform="translate(-852 -716.86)"/></svg>