<svg id="Layer_1" data-name="Layer 1" xmlns="http://www.w3.org/2000/svg" viewBox="0 0 795 278"><defs><style>.cls-1{fill:#54c9c0;}.cls-2{fill:none;stroke:#000;stroke-miterlimit:10;stroke-width:100px;stroke-dasharray:1 6;}.cls-2,.cls-4{opacity:0.3;}.cls-3{fill:#666;}.cls-5{fill:#5f5643;}.cls-6{fill:#776c5a;}.cls-7{fill:#dce2e5;}.cls-8{fill:#4d4d4d;}.cls-9{fill:#b7dbed;}.cls-10{fill:#fff;}.cls-11{fill:#9fb50b;}.cls-12{fill:#ae71e2;}.cls-13{fill:#b76c53;}.cls-14{fill:#c1745f;}.cls-15{fill:#bcbbaa;}.cls-16{fill:#73a3ec;}.cls-17{fill:#595959;}.cls-18{fill:#301818;}.cls-19{fill:#002868;}.cls-20{fill:#bf0b31;}.cls-20,.cls-21{fill-rule:evenodd;}.cls-21{fill:#fefdfd;}.cls-22{fill:#b3b3b3;}.cls-23{fill:#999;}.cls-24{fill:#ccccc6;}.cls-25{opacity:0.4;}.cls-26{fill:#e6e6e6;}</style></defs><title>stormwater-il-2</title><rect class="cls-1" x="695" y="136" width="100" height="92"/><line class="cls-2" x1="745" y1="138" x2="745" y2="217"/><rect class="cls-3" x="695" y="29" width="100" height="107"/><path class="cls-4" d="M1696,192h1v93h-1V192Zm16,0h1v93h-1V192Zm16,0h1v93h-1V192Zm16,0h1v93h-1V192Zm16,0h1v93h-1V192Zm16,0h1v93h-1V192Z" transform="translate(-991 -157)"/><rect class="cls-5" x="695" y="238" width="100" height="10"/><rect class="cls-6" x="695" y="248" width="100" height="20"/><rect class="cls-7" x="695" y="228" width="100" height="10"/><rect class="cls-8" x="695" y="268" width="100" height="10"/><polygon class="cls-1" points="727 66.67 727 111 762 111 762 66.67 755 62 746 56 743 56 734 62 727 66.67"/><rect class="cls-9" x="728" y="167" width="31" height="31"/><path class="cls-10" d="M1717,322h35v35h-35V322Zm31,4h-27v27h27V326Z" transform="translate(-991 -157)"/><rect class="cls-10" x="748" y="167" width="1" height="31"/><rect class="cls-10" x="729" y="182" width="31" height="1"/><rect class="cls-10" x="738" y="167" width="1" height="31"/><path class="cls-11" d="M1722.92,361.38c-0.12-7.61-6.62-13.64-12.08-18.4" transform="translate(-991 -157)"/><path class="cls-11" d="M1722.92,361.38a21.75,21.75,0,0,1-1-5.46,41.31,41.31,0,0,1,.23-11.91" transform="translate(-991 -157)"/><path class="cls-11" d="M1722.7,360.86a51.72,51.72,0,0,1,6.44-17.48" transform="translate(-991 -157)"/><path class="cls-11" d="M1722.54,360.8c1.46-.45,5.6-14.29,7.38-13" transform="translate(-991 -157)"/><path class="cls-11" d="M1722.35,358.88c-1.63-1.34-2.84-3.07-4.59-4.35s-4-2-5.71-3.43" transform="translate(-991 -157)"/><path class="cls-11" d="M1723.21,361a18,18,0,0,1-.52-6.1,58.55,58.55,0,0,1,.57-7.07c0.4-2.19,1.09-4.31,1.38-6.56a17.45,17.45,0,0,1,.8-4.2" transform="translate(-991 -157)"/><path class="cls-11" d="M1722.92,360.46c-0.81-1.32-1-3.16-1.32-4.6-0.86-3.34-1.61-6.73-2.47-10-0.46-1.67-1.38-3.11-2-4.72a4.92,4.92,0,0,0-1-2.13" transform="translate(-991 -157)"/><path class="cls-12" d="M1725.92,337.91a1.62,1.62,0,0,0,1.61-.52c0.17-.46,0-0.75-0.52-0.69a1.47,1.47,0,0,0-.34-1.38,1,1,0,0,0-1.67.06c0.29-1.09-1.15-.57-1.38.06-0.35.92,0.46,1.44,1.09,0.8-1.09.75-.23,2.7,0.86,2,0.63-.4-0.52-1.15-0.69-0.11,1.15,0.57,1.84-2.07.75-1.55a0.88,0.88,0,0,0-.29-0.75" transform="translate(-991 -157)"/><path class="cls-12" d="M1716.71,341.13a1.62,1.62,0,0,0,1.61-.52c0.17-.46,0-0.75-0.52-0.69a1.47,1.47,0,0,0-.35-1.38,1,1,0,0,0-1.67.06c0.29-1.09-1.15-.57-1.38.06-0.34.92,0.46,1.44,1.09,0.8-1.09.75-.23,2.7,0.86,2,0.63-.4-0.52-1.15-0.69-0.11,1.15,0.57,1.84-2.07.75-1.55a0.88,0.88,0,0,0-.29-0.75" transform="translate(-991 -157)"/><path class="cls-12" d="M1722.23,345.73a1.62,1.62,0,0,0,1.61-.52c0.17-.46,0-0.75-0.52-0.69a1.47,1.47,0,0,0-.34-1.38,1,1,0,0,0-1.67.06c0.29-1.09-1.15-.58-1.38.06-0.35.92,0.46,1.44,1.09,0.8-1.09.75-.23,2.7,0.86,2,0.63-.4-0.52-1.15-0.69-0.12,1.15,0.58,1.84-2.07.75-1.55a0.88,0.88,0,0,0-.29-0.75" transform="translate(-991 -157)"/><path class="cls-12" d="M1711.65,344.35a1.62,1.62,0,0,0,1.61-.52c0.17-.46,0-0.75-0.52-0.69a1.47,1.47,0,0,0-.34-1.38,1,1,0,0,0-1.67.06c0.29-1.09-1.15-.57-1.38.06-0.34.92,0.46,1.44,1.09,0.8-1.09.75-.23,2.7,0.86,2,0.63-.4-0.52-1.15-0.69-0.11,1.15,0.57,1.84-2.07.75-1.55a0.88,0.88,0,0,0-.29-0.75" transform="translate(-991 -157)"/><path class="cls-12" d="M1729.14,344.81a1.62,1.62,0,0,0,1.61-.52c0.17-.46,0-0.75-0.52-0.69a1.47,1.47,0,0,0-.34-1.38,1,1,0,0,0-1.67.06c0.29-1.09-1.15-.58-1.38.06-0.35.92,0.46,1.44,1.09,0.81-1.09.75-.23,2.7,0.86,2,0.63-.4-0.52-1.15-0.69-0.12,1.15,0.58,1.84-2.07.75-1.55a0.88,0.88,0,0,0-.29-0.75" transform="translate(-991 -157)"/><path class="cls-12" d="M1730.52,349.41a1.62,1.62,0,0,0,1.61-.52c0.17-.46,0-0.75-0.52-0.69a1.47,1.47,0,0,0-.35-1.38,1,1,0,0,0-1.67.06c0.29-1.09-1.15-.58-1.38.06-0.34.92,0.46,1.44,1.09,0.8-1.09.75-.23,2.7,0.86,2,0.63-.4-0.52-1.15-0.69-0.12,1.15,0.58,1.84-2.07.75-1.55a0.88,0.88,0,0,0-.29-0.75" transform="translate(-991 -157)"/><path class="cls-10" d="M1725.8,336.62a0.77,0.77,0,0,0-.51,0l-0.13-.51a0.6,0.6,0,0,0,.17.06l0.16,0q0.22,0,0,.21c-0.21-.43.44-0.82,0.65-0.38,0.43,0.91-.75,1.09-1.35.74a0.38,0.38,0,0,1-.13-0.51,1.14,1.14,0,0,1,1.16-.42,0.38,0.38,0,0,1,0,.75h0Z" transform="translate(-991 -157)"/><path class="cls-10" d="M1716.17,339.38c-0.13,0-.14,0,0-0.06,0.39-.29.76,0.37,0.38,0.65-0.71.52-1.28-.5-0.6-1a0.62,0.62,0,0,1,.9.35,0.66,0.66,0,0,1-.66.78c-0.48,0-.48-0.72,0-0.75h0Z" transform="translate(-991 -157)"/><path class="cls-10" d="M1711.19,343c0.27,0-.18,0,0-0.16l0.1-.11q0.28,0.31,0,.22l0.42-.17-0.11.23c-0.16.45-.89,0.26-0.72-0.2a2.52,2.52,0,0,1,.18-0.41,0.39,0.39,0,0,1,.42-0.17c1,0.16.39,1.2-.24,1.39-0.82.25-1.08-1.3-.09-1.38,0.48,0,.48.71,0,0.75h0Z" transform="translate(-991 -157)"/><path class="cls-10" d="M1721.71,344.53l-0.22-.06,0.36-.28a0.15,0.15,0,0,0,0,.21H1722q0.08-.21.13,0c-0.09-.06-0.06-0.39.06-0.23,0.29,0.39-.37.77-0.65,0.38-0.57-.79,1-1.32,1.26-0.41a0.86,0.86,0,0,1-.89,1,0.9,0.9,0,0,1-.75-1.17,0.38,0.38,0,0,1,.36-0.28,1,1,0,0,1,.75.28,0.38,0.38,0,0,1-.53.53h0Z" transform="translate(-991 -157)"/><path class="cls-10" d="M1729.31,343.52c-0.21.19,0-.2-0.21-0.22l-0.19.22a0.49,0.49,0,0,0-.11-0.17,0.59,0.59,0,0,1,.1,0c0.12-.19-0.42-0.16-0.18-0.28l0.09,0.69c-0.09,0-.31,0-0.33.13l-0.28-.36h0.06c0.47-.08.68,0.64,0.2,0.72a1.2,1.2,0,0,1-.46,0,0.37,0.37,0,0,1-.28-0.36A1,1,0,0,1,1729,343a0.38,0.38,0,0,1,.09.69c-0.49.23-1,.05-0.92-0.56a0.68,0.68,0,0,1,1.15-.34,0.67,0.67,0,0,1-.23,1.23c-0.66.08-.69-0.73-0.32-1.06a0.37,0.37,0,0,1,.53.53h0Z" transform="translate(-991 -157)"/><path class="cls-10" d="M1730.58,348h0l-0.55.22c0-.17.11-0.23,0.31-0.19l-0.17-.22c-0.13-.09,0,0,0-0.13l0.36,0.47-0.27,0a0.38,0.38,0,0,1-.38-0.65,1,1,0,0,1,.65-0.14,0.38,0.38,0,0,1,.36.47,1,1,0,0,1-.69.64,0.5,0.5,0,0,1-.65-0.51,0.66,0.66,0,0,1,.8-0.64,0.8,0.8,0,0,1,.37,1.05,0.38,0.38,0,0,1-.55.22,0.7,0.7,0,0,1-.1-1.16,0.38,0.38,0,0,1,.53.53h0Z" transform="translate(-991 -157)"/><path class="cls-11" d="M1748.92,363.38c-0.12-7.61-6.62-13.64-12.08-18.4" transform="translate(-991 -157)"/><path class="cls-11" d="M1748.92,363.38a21.75,21.75,0,0,1-1-5.46,41.31,41.31,0,0,1,.23-11.91" transform="translate(-991 -157)"/><path class="cls-11" d="M1748.7,362.86a51.72,51.72,0,0,1,6.44-17.48" transform="translate(-991 -157)"/><path class="cls-11" d="M1748.54,362.8c1.46-.45,5.6-14.29,7.38-13" transform="translate(-991 -157)"/><path class="cls-11" d="M1748.35,360.88c-1.63-1.34-2.84-3.07-4.59-4.35s-4-2-5.71-3.43" transform="translate(-991 -157)"/><path class="cls-11" d="M1749.21,363a18,18,0,0,1-.52-6.1,58.55,58.55,0,0,1,.57-7.07c0.4-2.19,1.09-4.31,1.38-6.56a17.45,17.45,0,0,1,.8-4.2" transform="translate(-991 -157)"/><path class="cls-11" d="M1748.92,362.46c-0.81-1.32-1-3.16-1.32-4.6-0.86-3.34-1.61-6.73-2.47-10-0.46-1.67-1.38-3.11-2-4.72a4.92,4.92,0,0,0-1-2.13" transform="translate(-991 -157)"/><path class="cls-12" d="M1751.92,339.91a1.62,1.62,0,0,0,1.61-.52c0.17-.46,0-0.75-0.52-0.69a1.47,1.47,0,0,0-.34-1.38,1,1,0,0,0-1.67.06c0.29-1.09-1.15-.57-1.38.06-0.35.92,0.46,1.44,1.09,0.8-1.09.75-.23,2.7,0.86,2,0.63-.4-0.52-1.15-0.69-0.11,1.15,0.57,1.84-2.07.75-1.55a0.88,0.88,0,0,0-.29-0.75" transform="translate(-991 -157)"/><path class="cls-12" d="M1742.71,343.13a1.62,1.62,0,0,0,1.61-.52c0.17-.46,0-0.75-0.52-0.69a1.47,1.47,0,0,0-.35-1.38,1,1,0,0,0-1.67.06c0.29-1.09-1.15-.57-1.38.06-0.34.92,0.46,1.44,1.09,0.8-1.09.75-.23,2.7,0.86,2,0.63-.4-0.52-1.15-0.69-0.11,1.15,0.57,1.84-2.07.75-1.55a0.88,0.88,0,0,0-.29-0.75" transform="translate(-991 -157)"/><path class="cls-12" d="M1748.23,347.73a1.62,1.62,0,0,0,1.61-.52c0.17-.46,0-0.75-0.52-0.69a1.47,1.47,0,0,0-.34-1.38,1,1,0,0,0-1.67.06c0.29-1.09-1.15-.58-1.38.06-0.35.92,0.46,1.44,1.09,0.8-1.09.75-.23,2.7,0.86,2,0.63-.4-0.52-1.15-0.69-0.12,1.15,0.58,1.84-2.07.75-1.55a0.88,0.88,0,0,0-.29-0.75" transform="translate(-991 -157)"/><path class="cls-12" d="M1737.65,346.35a1.62,1.62,0,0,0,1.61-.52c0.17-.46,0-0.75-0.52-0.69a1.47,1.47,0,0,0-.34-1.38,1,1,0,0,0-1.67.06c0.29-1.09-1.15-.57-1.38.06-0.34.92,0.46,1.44,1.09,0.8-1.09.75-.23,2.7,0.86,2,0.63-.4-0.52-1.15-0.69-0.11,1.15,0.57,1.84-2.07.75-1.55a0.88,0.88,0,0,0-.29-0.75" transform="translate(-991 -157)"/><path class="cls-12" d="M1755.14,346.81a1.62,1.62,0,0,0,1.61-.52c0.17-.46,0-0.75-0.52-0.69a1.47,1.47,0,0,0-.34-1.38,1,1,0,0,0-1.67.06c0.29-1.09-1.15-.58-1.38.06-0.35.92,0.46,1.44,1.09,0.81-1.09.75-.23,2.7,0.86,2,0.63-.4-0.52-1.15-0.69-0.12,1.15,0.58,1.84-2.07.75-1.55a0.88,0.88,0,0,0-.29-0.75" transform="translate(-991 -157)"/><path class="cls-12" d="M1756.52,351.41a1.62,1.62,0,0,0,1.61-.52c0.17-.46,0-0.75-0.52-0.69a1.47,1.47,0,0,0-.35-1.38,1,1,0,0,0-1.67.06c0.29-1.09-1.15-.58-1.38.06-0.34.92,0.46,1.44,1.09,0.8-1.09.75-.23,2.7,0.86,2,0.63-.4-0.52-1.15-0.69-0.12,1.15,0.58,1.84-2.07.75-1.55a0.88,0.88,0,0,0-.29-0.75" transform="translate(-991 -157)"/><path class="cls-10" d="M1751.8,338.62a0.77,0.77,0,0,0-.51,0l-0.13-.51a0.6,0.6,0,0,0,.17.06l0.16,0q0.22,0,0,.21c-0.21-.43.44-0.82,0.65-0.38,0.43,0.91-.75,1.09-1.35.74a0.38,0.38,0,0,1-.13-0.51,1.14,1.14,0,0,1,1.16-.42,0.38,0.38,0,0,1,0,.75h0Z" transform="translate(-991 -157)"/><path class="cls-10" d="M1742.17,341.38c-0.13,0-.14,0,0-0.06,0.39-.29.76,0.37,0.38,0.65-0.71.52-1.28-.5-0.6-1a0.62,0.62,0,0,1,.9.35,0.66,0.66,0,0,1-.66.78c-0.48,0-.48-0.72,0-0.75h0Z" transform="translate(-991 -157)"/><path class="cls-10" d="M1737.19,345c0.27,0-.18,0,0-0.16l0.1-.11q0.28,0.31,0,.22l0.42-.17-0.11.23c-0.16.45-.89,0.26-0.72-0.2a2.52,2.52,0,0,1,.18-0.41,0.39,0.39,0,0,1,.42-0.17c1,0.16.39,1.2-.24,1.39-0.82.25-1.08-1.3-.09-1.38,0.48,0,.48.71,0,0.75h0Z" transform="translate(-991 -157)"/><path class="cls-10" d="M1747.71,346.53l-0.22-.06,0.36-.28a0.15,0.15,0,0,0,0,.21H1748q0.08-.21.13,0c-0.09-.06-0.06-0.39.06-0.23,0.29,0.39-.37.77-0.65,0.38-0.57-.79,1-1.32,1.26-0.41a0.86,0.86,0,0,1-.89,1,0.9,0.9,0,0,1-.75-1.17,0.38,0.38,0,0,1,.36-0.28,1,1,0,0,1,.75.28,0.38,0.38,0,0,1-.53.53h0Z" transform="translate(-991 -157)"/><path class="cls-10" d="M1755.31,345.52c-0.21.19,0-.2-0.21-0.22l-0.19.22a0.49,0.49,0,0,0-.11-0.17,0.59,0.59,0,0,1,.1,0c0.12-.19-0.42-0.16-0.18-0.28l0.09,0.69c-0.09,0-.31,0-0.33.13l-0.28-.36h0.06c0.47-.08.68,0.64,0.2,0.72a1.2,1.2,0,0,1-.46,0,0.37,0.37,0,0,1-.28-0.36A1,1,0,0,1,1755,345a0.38,0.38,0,0,1,.09.69c-0.49.23-1,.05-0.92-0.56a0.68,0.68,0,0,1,1.15-.34,0.67,0.67,0,0,1-.23,1.23c-0.66.08-.69-0.73-0.32-1.06a0.37,0.37,0,0,1,.53.53h0Z" transform="translate(-991 -157)"/><path class="cls-10" d="M1756.58,350h0l-0.55.22c0-.17.11-0.23,0.31-0.19l-0.17-.22c-0.13-.09,0,0,0-0.13l0.36,0.47-0.27,0a0.38,0.38,0,0,1-.38-0.65,1,1,0,0,1,.65-0.14,0.38,0.38,0,0,1,.36.47,1,1,0,0,1-.69.64,0.5,0.5,0,0,1-.65-0.51,0.66,0.66,0,0,1,.8-0.64,0.8,0.8,0,0,1,.37,1.05,0.38,0.38,0,0,1-.55.22,0.7,0.7,0,0,1-.1-1.16,0.38,0.38,0,0,1,.53.53h0Z" transform="translate(-991 -157)"/><rect class="cls-10" x="722" y="198" width="43" height="10"/><rect class="cls-10" x="792" y="138" width="3" height="90"/><rect class="cls-10" x="695" y="134" width="100" height="4"/><rect class="cls-13" x="695" y="218" width="97" height="10"/><rect class="cls-14" x="783" y="222" width="8" height="2"/><rect class="cls-14" x="779" y="225" width="8" height="2"/><rect class="cls-14" x="772" y="222" width="8" height="2"/><rect class="cls-14" x="770" y="219" width="8" height="2"/><rect class="cls-14" x="779" y="219" width="8" height="2"/><rect class="cls-14" x="762" y="222" width="8" height="2"/><rect class="cls-14" x="758" y="225" width="8" height="2"/><rect class="cls-14" x="749" y="222" width="8" height="2"/><rect class="cls-14" x="749" y="219" width="8" height="2"/><rect class="cls-14" x="758" y="219" width="8" height="2"/><rect class="cls-14" x="740" y="222" width="8" height="2"/><rect class="cls-14" x="731" y="225" width="8" height="2"/><rect class="cls-14" x="727" y="222" width="8" height="2"/><rect class="cls-14" x="723" y="219" width="8" height="2"/><rect class="cls-14" x="736" y="219" width="8" height="2"/><rect class="cls-14" x="714" y="222" width="8" height="2"/><rect class="cls-14" x="701" y="225" width="8" height="2"/><rect class="cls-14" x="705" y="222" width="8" height="2"/><rect class="cls-14" x="697" y="219" width="8" height="2"/><rect class="cls-14" x="706" y="219" width="8" height="2"/><rect class="cls-15" x="695" y="216" width="97" height="2"/><g class="cls-4"><path d="M1718,263h35v1h-35v-1Zm0-7h35v1h-35v-1Zm0-7h35v1h-35v-1Zm0-7h35v1h-35v-1Zm0-7h35v1h-35v-1Zm0-7h35v1h-35v-1Zm0-7h35v1h-35v-1Zm13-7h9v1h-9v-1Z" transform="translate(-991 -157)"/></g><polygon class="cls-10" points="724.61 69.66 744.5 56.4 764.4 69.66 766.61 66.34 744.5 51.6 722.39 66.34 724.61 69.66"/><rect class="cls-9" x="733.01" y="71.94" width="23.47" height="30.11"/><path class="cls-10" d="M1722.5,227H1749v34h-26.5V227Zm23.47,3.89h-20.44v26.23H1746V230.89Z" transform="translate(-991 -157)"/><rect class="cls-10" x="748.16" y="71.94" width="0.76" height="30.11"/><rect class="cls-10" x="733.77" y="86.51" width="23.47" height="0.97"/><rect class="cls-10" x="740.59" y="71.94" width="0.76" height="30.11"/><polygon class="cls-8" points="795 238 795 239 795 245.13 795 248 790.33 248 777.11 268 776.44 268 771.11 268 770.9 268 764.94 268 751.67 248 747 248 747 245.13 747 239 747 238 795 238"/><polygon class="cls-16" points="751.9 238 751.9 228 789.9 228 789.9 238 790.01 238 784.11 247 783.63 247.73 772.9 264.11 772.9 274.13 773 274.13 773 278 769 278 769 277 768.9 277 768.9 264.1 758.17 247.73 757.69 247 751.79 238 751.9 238"/><rect class="cls-7" x="782" y="228" width="5" height="10"/><rect class="cls-7" x="773" y="228" width="5" height="10"/><rect class="cls-7" x="764" y="228" width="5" height="10"/><rect class="cls-7" x="755" y="228" width="5" height="10"/><rect class="cls-7" x="790" y="228" width="5" height="10"/><rect class="cls-7" x="747" y="228" width="5" height="10"/><rect class="cls-5" x="417" y="238" width="100" height="10"/><rect class="cls-6" x="417" y="248" width="100" height="20"/><rect class="cls-7" x="417" y="228" width="100" height="10"/><rect class="cls-8" x="417" y="268" width="100" height="10"/><polygon class="cls-17" points="517 100.25 517 136 424 136 517 100.25"/><rect class="cls-10" x="424" y="134" width="93" height="4"/><rect class="cls-10" x="428" y="138" width="3" height="90"/><rect class="cls-13" x="431" y="218" width="86" height="10"/><rect class="cls-14" x="432" y="222" width="8" height="2"/><rect class="cls-14" x="436" y="225" width="8" height="2"/><rect class="cls-14" x="441" y="222" width="8" height="2"/><rect class="cls-14" x="445" y="219" width="8" height="2"/><rect class="cls-14" x="436" y="219" width="8" height="2"/><rect class="cls-14" x="453" y="222" width="8" height="2"/><rect class="cls-14" x="457" y="225" width="8" height="2"/><rect class="cls-14" x="462" y="222" width="8" height="2"/><rect class="cls-14" x="466" y="219" width="8" height="2"/><rect class="cls-14" x="457" y="219" width="8" height="2"/><rect class="cls-14" x="475" y="222" width="8" height="2"/><rect class="cls-14" x="479" y="225" width="8" height="2"/><rect class="cls-14" x="484" y="222" width="8" height="2"/><rect class="cls-14" x="488" y="219" width="8" height="2"/><rect class="cls-14" x="479" y="219" width="8" height="2"/><rect class="cls-14" x="496" y="222" width="8" height="2"/><rect class="cls-14" x="500" y="225" width="8" height="2"/><rect class="cls-14" x="505" y="222" width="8" height="2"/><rect class="cls-14" x="509" y="219" width="8" height="2"/><rect class="cls-14" x="500" y="219" width="8" height="2"/><rect class="cls-15" x="431" y="216" width="86" height="2"/><rect class="cls-10" x="431" y="189" width="86" height="2"/><rect class="cls-10" x="459" y="191" width="2" height="20"/><rect class="cls-10" x="469" y="191" width="2" height="20"/><rect class="cls-10" x="479" y="191" width="2" height="20"/><rect class="cls-10" x="439" y="191" width="2" height="20"/><rect class="cls-10" x="449" y="191" width="2" height="20"/><rect class="cls-10" x="499" y="191" width="2" height="20"/><rect class="cls-10" x="509" y="191" width="2" height="20"/><rect class="cls-10" x="489" y="191" width="2" height="20"/><rect class="cls-10" x="431" y="211" width="86" height="2"/><rect class="cls-10" x="459" y="138" width="2" height="5"/><rect class="cls-10" x="469" y="138" width="2" height="5"/><rect class="cls-10" x="479" y="138" width="2" height="5"/><rect class="cls-10" x="439" y="138" width="2" height="5"/><rect class="cls-10" x="449" y="138" width="2" height="5"/><rect class="cls-10" x="499" y="138" width="2" height="5"/><rect class="cls-10" x="509" y="138" width="2" height="5"/><rect class="cls-10" x="489" y="138" width="2" height="5"/><rect class="cls-10" x="431" y="143" width="86" height="2"/><polygon class="cls-18" points="516.24 177.8 516.21 177.76 497.85 146.81 498.43 146.46 516.82 177.46 516.24 177.8"/><path class="cls-19" d="M1494,312.49a18.66,18.66,0,0,0-9.47,4.41l-0.09.06-0.6-1-0.06-.1-0.66-1.11-0.66-1.12-0.66-1.11-0.66-1.12-0.66-1.11-0.52-.88-0.12-.2a18.68,18.68,0,0,1,9.67-4.49l4.58,7.76Zm-9.42-.2h-0.42l0.33,0.26-0.14.43,0.27-.21a0.09,0.09,0,0,1,.15,0L1485,313c0-.13-0.06-0.24-0.09-0.34a0.1,0.1,0,0,1,0-.15l0.27-.17v0h-0.39l-0.14-.41h0Zm-0.71-1.24a0.1,0.1,0,0,1-.15,0l-0.29-.17,0.14,0.33a0.1,0.1,0,0,1,0,.14c-0.08.07-.15,0.16-0.25,0.26l0.32-.06a0.1,0.1,0,0,1,.14.08c0,0.1.08,0.19,0.13,0.31,0-.14,0-0.25.07-0.37a0.09,0.09,0,0,1,.09-0.1l0.35-.05-0.37-.21,0.08-.42h0Zm4.72-2.4h0l0.38,0.15a0.1,0.1,0,0,1,0,.07c0,0.11,0,.21,0,0.34l0.3-.27,0.46,0.19c-0.08-.11-0.15-0.21-0.22-0.29a0.07,0.07,0,0,1,0-.12l0.25-.21-0.4,0a0.11,0.11,0,0,1-.12-0.05l-0.23-.3c0,0.12,0,.22,0,0.32a0.08,0.08,0,0,1-.09.08l-0.25,0-0.11,0h0Zm-0.39-.67c0-.08.05-0.1,0.14-0.09h0.36l-0.43-.24,0.08-.38-0.3.19a0.15,0.15,0,0,1-.12,0l-0.36-.17,0.21,0.35-0.34.25h0.4a0.09,0.09,0,0,1,.1.06c0.05,0.1.11,0.2,0.18,0.31A2.48,2.48,0,0,0,1488.18,308Zm1,4.81-0.19-.39,0.34-.26h-0.38a0.1,0.1,0,0,1-.11-0.07c0-.1-0.1-0.2-0.16-0.32,0,0.13-.06.23-0.08,0.34a0.07,0.07,0,0,1-.08.07l-0.39,0,0.4,0.22-0.08.41,0.33-.27Zm-5.44-4.32a0.11,0.11,0,0,1,0,.1l-0.19.33,0.34-.14a0.08,0.08,0,0,1,.11,0l0.23,0.28a2.67,2.67,0,0,0,0-.33,0.11,0.11,0,0,1,.09-0.15,1.28,1.28,0,0,0,.27-0.13l-0.33-.08a0.08,0.08,0,0,1-.08-0.09c0-.11,0-0.23,0-0.36l-0.25.39-0.38-.13v0Zm1.45-.73,0.45,0.07-0.27-.24a0.09,0.09,0,0,1,0-.14,1.55,1.55,0,0,0,.13-0.29l-0.29.14a0.12,0.12,0,0,1-.16,0l-0.26-.23c0,0.14.05,0.25,0.08,0.35a0.07,0.07,0,0,1,0,.1,1.66,1.66,0,0,0-.3.18l0.35,0a0.08,0.08,0,0,1,.09.08c0,0.11,0,.21.08,0.35Zm2.56,5.16a0.12,0.12,0,0,1-.1-0.16c0-.1,0-0.2,0-0.31l-0.28.33-0.42-.15c0.08,0.11.13,0.21,0.2,0.29a0.09,0.09,0,0,1,0,.14c-0.07.08-.13,0.17-0.21,0.27l0.35-.1a0.09,0.09,0,0,1,.12,0l0.21,0.3c0-.14,0-0.25,0-0.36a0.07,0.07,0,0,1,.07-0.09L1488,313C1487.92,313,1487.82,312.94,1487.72,312.91Zm-1-5.56,0.38-.21-0.39,0a0.11,0.11,0,0,1-.12-0.08,1.57,1.57,0,0,0-.13-0.3l-0.09.36-0.5,0,0.38,0.26-0.13.38,0.3-.18a0.1,0.1,0,0,1,.14,0l0.31,0.22Zm-2.92,2.63a0.09,0.09,0,0,1,0-.13l0.23-.29-0.33.09a0.09,0.09,0,0,1-.14-0.05,1.24,1.24,0,0,0-.18-0.27l0,0.26c0,0.16,0,.16-0.16.21l-0.22.07,0,0,0.38,0.14c0,0.14,0,.27,0,0.41h0c0.07-.09.14-0.17,0.2-0.26a0.09,0.09,0,0,1,.13,0l0.31,0.12Zm5.5,1.46a0.12,0.12,0,0,1,.13.1c0,0.1.06,0.2,0.1,0.31,0-.11.1-0.2,0.13-0.29a0.09,0.09,0,0,1,.13-0.06l0.39,0.06-0.32-.25a0.07,0.07,0,0,1,0-.1c0-.09.09-0.19,0.15-0.3a3,3,0,0,0-.31.14,0.13,0.13,0,0,1-.18,0l-0.29-.22c0,0.12.06,0.21,0.1,0.31a0.09,0.09,0,0,1-.07.14l-0.27.13v0Zm-3.45,2.23,0.21-.39,0.42,0.07-0.25-.27a0.07,0.07,0,0,1,0-.11,2.12,2.12,0,0,0,.15-0.31l-0.28.14a0.1,0.1,0,0,1-.15,0c-0.07-.08-0.15-0.16-0.24-0.25,0,0.14,0,.26,0,0.37a0.08,0.08,0,0,1-.06.1l-0.33.17,0.42,0.07Zm3.32-4,0.27,0.26s0.06,0.08,0,.12a1.09,1.09,0,0,0-.17.26l0.33-.09a0.12,0.12,0,0,1,.15,0l0.27,0.27c0-.12,0-0.22,0-0.33s0-.08.08-0.09a2.45,2.45,0,0,0,.33-0.09l-0.38-.12a0.08,0.08,0,0,1-.08-0.08c0-.1,0-0.21,0-0.33l-0.25.31Z" transform="translate(-991 -157)"/><path class="cls-20" d="M1469.9,334.27l0.66,1.12c11.55-1.37,15.93-14.87,27.48-16.23l-0.66-1.12-0.12,0c-11.42,1.44-15.81,14.76-27.23,16.2h-0.13Z" transform="translate(-991 -157)"/><path class="cls-20" d="M1468.58,332l0.66,1.12,0.11,0c11.43-1.44,15.82-14.77,27.25-16.2h0.12l-0.66-1.12C1484.51,317.18,1480.13,330.68,1468.58,332Z" transform="translate(-991 -157)"/><path class="cls-21" d="M1468.58,332c11.55-1.37,15.93-14.87,27.48-16.23l-0.66-1.12-0.11,0c-11.42,1.44-15.82,14.77-27.25,16.21h-0.12Z" transform="translate(-991 -157)"/><path class="cls-21" d="M1494.09,312.47l-0.11,0a18.66,18.66,0,0,0-9.47,4.41l-0.09.06-0.08.07c-5.52,4.48-10,10.7-17.6,11.66h-0.13l0.66,1.12,0.13,0c11.41-1.44,15.81-14.76,27.23-16.2h0.13Z" transform="translate(-991 -157)"/><path class="cls-21" d="M1496.72,316.94h-0.12c-11.42,1.44-15.82,14.77-27.25,16.2l-0.11,0,0.65,1.1H1470c11.41-1.44,15.81-14.76,27.23-16.2l0.12,0Z" transform="translate(-991 -157)"/><path class="cls-20" d="M1494.75,313.59h-0.13c-11.41,1.44-15.81,14.76-27.23,16.2l-0.12,0,0.65,1.11H1468c11.43-1.44,15.82-14.77,27.25-16.21l0.11,0Z" transform="translate(-991 -157)"/><path class="cls-20" d="M1481.78,312.52l-0.66-1.12-0.06,0c-5.53,4.49-10,10.73-17.65,11.67h-0.09l0.66,1.12,0.14,0a18,18,0,0,0,8.68-3.81C1475.95,318,1478.7,315,1481.78,312.52Z" transform="translate(-991 -157)"/><path class="cls-21" d="M1483.76,315.86l-0.66-1.11c-5.58,4.51-10.1,10.82-17.8,11.73l0.66,1.12,0.14,0c6.89-.88,11.23-6.1,16.1-10.4C1482.71,316.72,1483.23,316.28,1483.76,315.86Z" transform="translate(-991 -157)"/><path class="cls-20" d="M1465.29,326.48c7.71-.91,12.22-7.23,17.8-11.73l-0.66-1.12-0.07.06c-5.53,4.48-10,10.71-17.63,11.67h-0.11Z" transform="translate(-991 -157)"/><path class="cls-21" d="M1463.32,323.13h0.09c7.62-.95,12.12-7.19,17.65-11.67l0.06,0-0.66-1.11-0.07.06c-5.53,4.48-10,10.72-17.63,11.67l-0.1,0Z" transform="translate(-991 -157)"/><path class="cls-20" d="M1483.76,315.86c-0.53.43-1,.87-1.55,1.32-4.87,4.3-9.21,9.52-16.1,10.4l-0.14,0,0.65,1.1h0.13c7.6-1,12.08-7.18,17.6-11.66l0.08-.07-0.6-1Z" transform="translate(-991 -157)"/><path class="cls-21" d="M1464.63,325.36h0.11c7.61-1,12.11-7.18,17.63-11.67l0.07-.06-0.66-1.11c-3.08,2.49-5.84,5.53-9,7.9a18,18,0,0,1-8.68,3.81l-0.14,0Z" transform="translate(-991 -157)"/><path class="cls-20" d="M1462.67,322l0.1,0c7.61-1,12.1-7.18,17.63-11.67l0.07-.06-0.52-.88-0.12-.2c-5.59,4.51-10.1,10.83-17.81,11.74Z" transform="translate(-991 -157)"/><path class="cls-21" d="M1488.12,308.27a2.48,2.48,0,0,0,.06-0.28c0-.08.05-0.1,0.14-0.09h0.36l-0.43-.24,0.08-.38-0.3.19a0.15,0.15,0,0,1-.12,0l-0.36-.17,0.21,0.35-0.34.25h0.4a0.09,0.09,0,0,1,.1.06C1488,308.06,1488.05,308.15,1488.12,308.27Z" transform="translate(-991 -157)"/><path class="cls-21" d="M1488.74,312.58l0.4,0.22-0.19-.39,0.34-.26h-0.38a0.1,0.1,0,0,1-.11-0.07c0-.1-0.1-0.2-0.16-0.32,0,0.13-.06.23-0.08,0.34a0.07,0.07,0,0,1-.08.07l-0.39,0,0.4,0.22-0.08.41Z" transform="translate(-991 -157)"/><path class="cls-21" d="M1483.49,308.21l0.22,0.27a0.11,0.11,0,0,1,0,.1l-0.19.33,0.34-.14a0.08,0.08,0,0,1,.11,0l0.23,0.28a2.67,2.67,0,0,0,0-.33,0.11,0.11,0,0,1,.09-0.15,1.28,1.28,0,0,0,.27-0.13l-0.33-.08a0.08,0.08,0,0,1-.08-0.09c0-.11,0-0.23,0-0.36l-0.25.39-0.38-.13v0Z" transform="translate(-991 -157)"/><path class="cls-21" d="M1485,308.13l0.19-.38,0.45,0.07-0.27-.24a0.09,0.09,0,0,1,0-.14,1.55,1.55,0,0,0,.13-0.29l-0.29.14a0.12,0.12,0,0,1-.16,0l-0.26-.23c0,0.14.05,0.25,0.08,0.35a0.07,0.07,0,0,1,0,.1,1.66,1.66,0,0,0-.3.18l0.35,0a0.08,0.08,0,0,1,.09.08C1484.91,307.88,1484.94,308,1485,308.13Z" transform="translate(-991 -157)"/><path class="cls-21" d="M1488.57,308.66l0.38,0.15a0.1,0.1,0,0,1,0,.07c0,0.11,0,.21,0,0.34l0.3-.27,0.46,0.19c-0.08-.11-0.15-0.21-0.22-0.29a0.07,0.07,0,0,1,0-.12l0.25-.21-0.4,0a0.11,0.11,0,0,1-.12-0.05l-0.23-.3c0,0.12,0,.22,0,0.32a0.08,0.08,0,0,1-.09.08l-0.25,0-0.11,0h0Z" transform="translate(-991 -157)"/><path class="cls-21" d="M1488,313c-0.12,0-.21-0.09-0.32-0.12a0.12,0.12,0,0,1-.1-0.16c0-.1,0-0.2,0-0.31l-0.28.33-0.42-.15c0.08,0.11.13,0.21,0.2,0.29a0.09,0.09,0,0,1,0,.14c-0.07.08-.13,0.17-0.21,0.27l0.35-.1a0.09,0.09,0,0,1,.12,0l0.21,0.3c0-.14,0-0.25,0-0.36a0.07,0.07,0,0,1,.07-0.09Z" transform="translate(-991 -157)"/><path class="cls-21" d="M1486.89,307.75l-0.15-.4,0.38-.21-0.39,0a0.11,0.11,0,0,1-.12-0.08,1.57,1.57,0,0,0-.13-0.3l-0.09.36-0.5,0,0.38,0.26-0.13.38,0.3-.18a0.1,0.1,0,0,1,.14,0Z" transform="translate(-991 -157)"/><path class="cls-21" d="M1484,310.28l-0.18-.3a0.09,0.09,0,0,1,0-.13l0.23-.29-0.33.09a0.09,0.09,0,0,1-.14-0.05,1.24,1.24,0,0,0-.18-0.27l0,0.26c0,0.16,0,.16-0.16.21l-0.22.07,0,0,0.38,0.14c0,0.14,0,.27,0,0.41h0c0.07-.09.14-0.17,0.2-0.26a0.09,0.09,0,0,1,.13,0Z" transform="translate(-991 -157)"/><path class="cls-21" d="M1489,311.4l0.34,0a0.12,0.12,0,0,1,.13.1c0,0.1.06,0.2,0.1,0.31,0-.11.1-0.2,0.13-0.29a0.09,0.09,0,0,1,.13-0.06l0.39,0.06-0.32-.25a0.07,0.07,0,0,1,0-.1c0-.09.09-0.19,0.15-0.3a3,3,0,0,0-.31.14,0.13,0.13,0,0,1-.18,0l-0.29-.22c0,0.12.06,0.21,0.1,0.31a0.09,0.09,0,0,1-.07.14l-0.27.13v0Z" transform="translate(-991 -157)"/><path class="cls-21" d="M1485.81,313.23l0.06,0.44,0.21-.39,0.42,0.07-0.25-.27a0.07,0.07,0,0,1,0-.11,2.12,2.12,0,0,0,.15-0.31l-0.28.14a0.1,0.1,0,0,1-.15,0c-0.07-.08-0.15-0.16-0.24-0.25,0,0.14,0,.26,0,0.37a0.08,0.08,0,0,1-.06.1l-0.33.17Z" transform="translate(-991 -157)"/><path class="cls-21" d="M1484.1,310.83l-0.25.22a0.1,0.1,0,0,1-.15,0l-0.29-.17,0.14,0.33a0.1,0.1,0,0,1,0,.14c-0.08.07-.15,0.16-0.25,0.26l0.32-.06a0.1,0.1,0,0,1,.14.08c0,0.1.08,0.19,0.13,0.31,0-.14,0-0.25.07-0.37a0.09,0.09,0,0,1,.09-0.1l0.35-.05-0.37-.21,0.08-.42h0Z" transform="translate(-991 -157)"/><path class="cls-21" d="M1489.66,309.81l-0.48-.13,0.27,0.26s0.06,0.08,0,.12a1.09,1.09,0,0,0-.17.26l0.33-.09a0.12,0.12,0,0,1,.15,0l0.27,0.27c0-.12,0-0.22,0-0.33s0-.08.08-0.09a2.45,2.45,0,0,0,.33-0.09l-0.38-.12a0.08,0.08,0,0,1-.08-0.08c0-.1,0-0.21,0-0.33Z" transform="translate(-991 -157)"/><path class="cls-21" d="M1484.69,311.88l-0.14.41h-0.42l0.33,0.26-0.14.43,0.27-.21a0.09,0.09,0,0,1,.15,0L1485,313c0-.13-0.06-0.24-0.09-0.34a0.1,0.1,0,0,1,0-.15l0.27-.17v0h-0.39l-0.14-.41h0Z" transform="translate(-991 -157)"/><polygon class="cls-21" points="493.69 154.88 493.69 154.89 493.69 154.88 493.69 154.88"/><polygon class="cls-21" points="493.1 153.82 493.1 153.83 493.1 153.83 493.1 153.82"/><path class="cls-21" d="M1488.57,308.66h0Z" transform="translate(-991 -157)"/><rect class="cls-18" x="516" y="174" width="1" height="5"/><rect class="cls-1" x="556" y="136" width="100" height="92"/><line class="cls-2" x1="606" y1="138" x2="606" y2="217"/><rect class="cls-3" x="556" y="29" width="100" height="107"/><path class="cls-4" d="M1637,285h-1V192h1v93Zm-16,0h-1V192h1v93Zm-16,0h-1V192h1v93Zm-16,0h-1V192h1v93Zm-16,0h-1V192h1v93Zm-16,0h-1V192h1v93Z" transform="translate(-991 -157)"/><rect class="cls-5" x="556" y="238" width="100" height="10"/><rect class="cls-6" x="556" y="248" width="100" height="20"/><rect class="cls-7" x="556" y="228" width="100" height="10"/><rect class="cls-8" x="556" y="268" width="100" height="10"/><polygon class="cls-1" points="624 66.67 624 111 589 111 589 66.67 596 62 605 56 608 56 617 62 624 66.67"/><rect class="cls-9" x="592" y="167" width="31" height="31"/><path class="cls-10" d="M1616,357h-35V322h35v35Zm-31-4h27V326h-27v27Z" transform="translate(-991 -157)"/><rect class="cls-10" x="602" y="167" width="1" height="31"/><rect class="cls-10" x="591" y="182" width="31" height="1"/><rect class="cls-10" x="612" y="167" width="1" height="31"/><path class="cls-11" d="M1610.08,361.38c0.12-7.61,6.62-13.64,12.08-18.4" transform="translate(-991 -157)"/><path class="cls-11" d="M1610.08,361.38a21.75,21.75,0,0,0,1-5.46,41.31,41.31,0,0,0-.23-11.91" transform="translate(-991 -157)"/><path class="cls-11" d="M1610.3,360.86a51.72,51.72,0,0,0-6.44-17.48" transform="translate(-991 -157)"/><path class="cls-11" d="M1610.46,360.8c-1.46-.45-5.6-14.29-7.38-13" transform="translate(-991 -157)"/><path class="cls-11" d="M1610.65,358.88c1.63-1.34,2.84-3.07,4.59-4.35s4-2,5.71-3.43" transform="translate(-991 -157)"/><path class="cls-11" d="M1609.79,361a18,18,0,0,0,.52-6.1,58.55,58.55,0,0,0-.57-7.07c-0.4-2.19-1.09-4.31-1.38-6.56a17.45,17.45,0,0,0-.8-4.2" transform="translate(-991 -157)"/><path class="cls-11" d="M1610.08,360.46c0.81-1.32,1-3.16,1.32-4.6,0.86-3.34,1.61-6.73,2.47-10,0.46-1.67,1.38-3.11,2-4.72a4.92,4.92,0,0,1,1-2.13" transform="translate(-991 -157)"/><path class="cls-12" d="M1607.08,337.91a1.62,1.62,0,0,1-1.61-.52c-0.17-.46,0-0.75.52-0.69a1.47,1.47,0,0,1,.34-1.38,1,1,0,0,1,1.67.06c-0.29-1.09,1.15-.57,1.38.06,0.35,0.92-.46,1.44-1.09.8,1.09,0.75.23,2.7-.86,2-0.63-.4.52-1.15,0.69-0.11-1.15.57-1.84-2.07-.75-1.55a0.88,0.88,0,0,1,.29-0.75" transform="translate(-991 -157)"/><path class="cls-12" d="M1616.29,341.13a1.62,1.62,0,0,1-1.61-.52c-0.17-.46,0-0.75.52-0.69a1.47,1.47,0,0,1,.35-1.38,1,1,0,0,1,1.67.06c-0.29-1.09,1.15-.57,1.38.06,0.34,0.92-.46,1.44-1.09.8,1.09,0.75.23,2.7-.86,2-0.63-.4.52-1.15,0.69-0.11-1.15.57-1.84-2.07-.75-1.55a0.88,0.88,0,0,1,.29-0.75" transform="translate(-991 -157)"/><path class="cls-12" d="M1610.77,345.73a1.62,1.62,0,0,1-1.61-.52c-0.17-.46,0-0.75.52-0.69a1.47,1.47,0,0,1,.34-1.38,1,1,0,0,1,1.67.06c-0.29-1.09,1.15-.58,1.38.06,0.35,0.92-.46,1.44-1.09.8,1.09,0.75.23,2.7-.86,2-0.63-.4.52-1.15,0.69-0.12-1.15.58-1.84-2.07-.75-1.55a0.88,0.88,0,0,1,.29-0.75" transform="translate(-991 -157)"/><path class="cls-12" d="M1621.35,344.35a1.62,1.62,0,0,1-1.61-.52c-0.17-.46,0-0.75.52-0.69a1.47,1.47,0,0,1,.34-1.38,1,1,0,0,1,1.67.06c-0.29-1.09,1.15-.57,1.38.06,0.34,0.92-.46,1.44-1.09.8,1.09,0.75.23,2.7-.86,2-0.63-.4.52-1.15,0.69-0.11-1.15.57-1.84-2.07-.75-1.55a0.88,0.88,0,0,1,.29-0.75" transform="translate(-991 -157)"/><path class="cls-12" d="M1603.86,344.81a1.62,1.62,0,0,1-1.61-.52c-0.17-.46,0-0.75.52-0.69a1.47,1.47,0,0,1,.34-1.38,1,1,0,0,1,1.67.06c-0.29-1.09,1.15-.58,1.38.06,0.35,0.92-.46,1.44-1.09.81,1.09,0.75.23,2.7-.86,2-0.63-.4.52-1.15,0.69-0.12-1.15.58-1.84-2.07-.75-1.55a0.88,0.88,0,0,1,.29-0.75" transform="translate(-991 -157)"/><path class="cls-12" d="M1602.48,349.41a1.62,1.62,0,0,1-1.61-.52c-0.17-.46,0-0.75.52-0.69a1.47,1.47,0,0,1,.35-1.38,1,1,0,0,1,1.67.06c-0.29-1.09,1.15-.58,1.38.06,0.34,0.92-.46,1.44-1.09.8,1.09,0.75.23,2.7-.86,2-0.63-.4.52-1.15,0.69-0.12-1.15.58-1.84-2.07-.75-1.55a0.88,0.88,0,0,1,.29-0.75" transform="translate(-991 -157)"/><path class="cls-10" d="M1607.2,336.62a0.77,0.77,0,0,1,.51,0l0.13-.51a0.6,0.6,0,0,1-.17.06l-0.16,0q-0.22,0,0,.21c0.21-.43-0.44-0.82-0.65-0.38-0.43.91,0.75,1.09,1.35,0.74a0.38,0.38,0,0,0,.13-0.51,1.14,1.14,0,0,0-1.16-.42,0.38,0.38,0,0,0,0,.75h0Z" transform="translate(-991 -157)"/><path class="cls-10" d="M1616.83,339.38c0.13,0,.14,0,0-0.06-0.39-.29-0.76.37-0.38,0.65,0.71,0.52,1.28-.5.6-1a0.62,0.62,0,0,0-.9.35,0.66,0.66,0,0,0,.66.78c0.48,0,.48-0.72,0-0.75h0Z" transform="translate(-991 -157)"/><path class="cls-10" d="M1621.81,343c-0.27,0,.18,0,0-0.16l-0.1-.11q-0.28.31,0,.22l-0.42-.17,0.11,0.23c0.16,0.45.89,0.26,0.72-.2a2.52,2.52,0,0,0-.18-0.41,0.39,0.39,0,0,0-.42-0.17c-1,.16-0.39,1.2.24,1.39,0.82,0.25,1.08-1.3.09-1.38-0.48,0-.48.71,0,0.75h0Z" transform="translate(-991 -157)"/><path class="cls-10" d="M1611.29,344.53l0.22-.06-0.36-.28a0.15,0.15,0,0,1,0,.21H1611q-0.08-.21-0.13,0c0.09-.06.06-0.39-0.06-0.23-0.29.39,0.37,0.77,0.65,0.38,0.57-.79-1-1.32-1.26-0.41a0.86,0.86,0,0,0,.89,1,0.9,0.9,0,0,0,.75-1.17,0.38,0.38,0,0,0-.36-0.28,1,1,0,0,0-.75.28,0.38,0.38,0,0,0,.53.53h0Z" transform="translate(-991 -157)"/><path class="cls-10" d="M1603.69,343.52c0.21,0.19,0-.2.21-0.22l0.19,0.22a0.49,0.49,0,0,1,.11-0.17,0.59,0.59,0,0,0-.1,0c-0.12-.19.42-0.16,0.18-0.28l-0.09.69c0.09,0,.31,0,0.33.13l0.28-.36h-0.06c-0.47-.08-0.68.64-0.2,0.72a1.2,1.2,0,0,0,.46,0,0.37,0.37,0,0,0,.28-0.36A1,1,0,0,0,1604,343a0.38,0.38,0,0,0-.09.69c0.49,0.23,1,.05.92-0.56a0.68,0.68,0,0,0-1.15-.34,0.67,0.67,0,0,0,.23,1.23c0.66,0.08.69-.73,0.32-1.06a0.37,0.37,0,0,0-.53.53h0Z" transform="translate(-991 -157)"/><path class="cls-10" d="M1602.42,348h0l0.55,0.22c0-.17-0.11-0.23-0.31-0.19l0.17-.22c0.13-.09,0,0,0-0.13l-0.36.47,0.27,0a0.38,0.38,0,0,0,.38-0.65,1,1,0,0,0-.65-0.14,0.38,0.38,0,0,0-.36.47,1,1,0,0,0,.69.64,0.5,0.5,0,0,0,.65-0.51,0.66,0.66,0,0,0-.8-0.64,0.8,0.8,0,0,0-.37,1.05,0.38,0.38,0,0,0,.55.22,0.7,0.7,0,0,0,.1-1.16,0.38,0.38,0,0,0-.53.53h0Z" transform="translate(-991 -157)"/><path class="cls-11" d="M1584.08,363.38c0.12-7.61,6.62-13.64,12.08-18.4" transform="translate(-991 -157)"/><path class="cls-11" d="M1584.08,363.38a21.75,21.75,0,0,0,1-5.46,41.31,41.31,0,0,0-.23-11.91" transform="translate(-991 -157)"/><path class="cls-11" d="M1584.3,362.86a51.72,51.72,0,0,0-6.44-17.48" transform="translate(-991 -157)"/><path class="cls-11" d="M1584.46,362.8c-1.46-.45-5.6-14.29-7.38-13" transform="translate(-991 -157)"/><path class="cls-11" d="M1584.65,360.88c1.63-1.34,2.84-3.07,4.59-4.35s4-2,5.71-3.43" transform="translate(-991 -157)"/><path class="cls-11" d="M1583.79,363a18,18,0,0,0,.52-6.1,58.55,58.55,0,0,0-.57-7.07c-0.4-2.19-1.09-4.31-1.38-6.56a17.45,17.45,0,0,0-.8-4.2" transform="translate(-991 -157)"/><path class="cls-11" d="M1584.08,362.46c0.81-1.32,1-3.16,1.32-4.6,0.86-3.34,1.61-6.73,2.47-10,0.46-1.67,1.38-3.11,2-4.72a4.92,4.92,0,0,1,1-2.13" transform="translate(-991 -157)"/><path class="cls-12" d="M1581.08,339.91a1.62,1.62,0,0,1-1.61-.52c-0.17-.46,0-0.75.52-0.69a1.47,1.47,0,0,1,.34-1.38,1,1,0,0,1,1.67.06c-0.29-1.09,1.15-.57,1.38.06,0.35,0.92-.46,1.44-1.09.8,1.09,0.75.23,2.7-.86,2-0.63-.4.52-1.15,0.69-0.11-1.15.57-1.84-2.07-.75-1.55a0.88,0.88,0,0,1,.29-0.75" transform="translate(-991 -157)"/><path class="cls-12" d="M1590.29,343.13a1.62,1.62,0,0,1-1.61-.52c-0.17-.46,0-0.75.52-0.69a1.47,1.47,0,0,1,.35-1.38,1,1,0,0,1,1.67.06c-0.29-1.09,1.15-.57,1.38.06,0.34,0.92-.46,1.44-1.09.8,1.09,0.75.23,2.7-.86,2-0.63-.4.52-1.15,0.69-0.11-1.15.57-1.84-2.07-.75-1.55a0.88,0.88,0,0,1,.29-0.75" transform="translate(-991 -157)"/><path class="cls-12" d="M1584.77,347.73a1.62,1.62,0,0,1-1.61-.52c-0.17-.46,0-0.75.52-0.69a1.47,1.47,0,0,1,.34-1.38,1,1,0,0,1,1.67.06c-0.29-1.09,1.15-.58,1.38.06,0.35,0.92-.46,1.44-1.09.8,1.09,0.75.23,2.7-.86,2-0.63-.4.52-1.15,0.69-0.12-1.15.58-1.84-2.07-.75-1.55a0.88,0.88,0,0,1,.29-0.75" transform="translate(-991 -157)"/><path class="cls-12" d="M1595.35,346.35a1.62,1.62,0,0,1-1.61-.52c-0.17-.46,0-0.75.52-0.69a1.47,1.47,0,0,1,.34-1.38,1,1,0,0,1,1.67.06c-0.29-1.09,1.15-.57,1.38.06,0.34,0.92-.46,1.44-1.09.8,1.09,0.75.23,2.7-.86,2-0.63-.4.52-1.15,0.69-0.11-1.15.57-1.84-2.07-.75-1.55a0.88,0.88,0,0,1,.29-0.75" transform="translate(-991 -157)"/><path class="cls-12" d="M1577.86,346.81a1.62,1.62,0,0,1-1.61-.52c-0.17-.46,0-0.75.52-0.69a1.47,1.47,0,0,1,.34-1.38,1,1,0,0,1,1.67.06c-0.29-1.09,1.15-.58,1.38.06,0.35,0.92-.46,1.44-1.09.81,1.09,0.75.23,2.7-.86,2-0.63-.4.52-1.15,0.69-0.12-1.15.58-1.84-2.07-.75-1.55a0.88,0.88,0,0,1,.29-0.75" transform="translate(-991 -157)"/><path class="cls-12" d="M1576.48,351.41a1.62,1.62,0,0,1-1.61-.52c-0.17-.46,0-0.75.52-0.69a1.47,1.47,0,0,1,.35-1.38,1,1,0,0,1,1.67.06c-0.29-1.09,1.15-.58,1.38.06,0.34,0.92-.46,1.44-1.09.8,1.09,0.75.23,2.7-.86,2-0.63-.4.52-1.15,0.69-0.12-1.15.58-1.84-2.07-.75-1.55a0.88,0.88,0,0,1,.29-0.75" transform="translate(-991 -157)"/><path class="cls-10" d="M1581.2,338.62a0.77,0.77,0,0,1,.51,0l0.13-.51a0.6,0.6,0,0,1-.17.06l-0.16,0q-0.22,0,0,.21c0.21-.43-0.44-0.82-0.65-0.38-0.43.91,0.75,1.09,1.35,0.74a0.38,0.38,0,0,0,.13-0.51,1.14,1.14,0,0,0-1.16-.42,0.38,0.38,0,0,0,0,.75h0Z" transform="translate(-991 -157)"/><path class="cls-10" d="M1590.83,341.38c0.13,0,.14,0,0-0.06-0.39-.29-0.76.37-0.38,0.65,0.71,0.52,1.28-.5.6-1a0.62,0.62,0,0,0-.9.35,0.66,0.66,0,0,0,.66.78c0.48,0,.48-0.72,0-0.75h0Z" transform="translate(-991 -157)"/><path class="cls-10" d="M1595.81,345c-0.27,0,.18,0,0-0.16l-0.1-.11q-0.28.31,0,.22l-0.42-.17,0.11,0.23c0.16,0.45.89,0.26,0.72-.2a2.52,2.52,0,0,0-.18-0.41,0.39,0.39,0,0,0-.42-0.17c-1,.16-0.39,1.2.24,1.39,0.82,0.25,1.08-1.3.09-1.38-0.48,0-.48.71,0,0.75h0Z" transform="translate(-991 -157)"/><path class="cls-10" d="M1585.29,346.53l0.22-.06-0.36-.28a0.15,0.15,0,0,1,0,.21H1585q-0.08-.21-0.13,0c0.09-.06.06-0.39-0.06-0.23-0.29.39,0.37,0.77,0.65,0.38,0.57-.79-1-1.32-1.26-0.41a0.86,0.86,0,0,0,.89,1,0.9,0.9,0,0,0,.75-1.17,0.38,0.38,0,0,0-.36-0.28,1,1,0,0,0-.75.28,0.38,0.38,0,0,0,.53.53h0Z" transform="translate(-991 -157)"/><path class="cls-10" d="M1577.69,345.52c0.21,0.19,0-.2.21-0.22l0.19,0.22a0.49,0.49,0,0,1,.11-0.17,0.59,0.59,0,0,0-.1,0c-0.12-.19.42-0.16,0.18-0.28l-0.09.69c0.09,0,.31,0,0.33.13l0.28-.36h-0.06c-0.47-.08-0.68.64-0.2,0.72a1.2,1.2,0,0,0,.46,0,0.37,0.37,0,0,0,.28-0.36A1,1,0,0,0,1578,345a0.38,0.38,0,0,0-.09.69c0.49,0.23,1,.05.92-0.56a0.68,0.68,0,0,0-1.15-.34,0.67,0.67,0,0,0,.23,1.23c0.66,0.08.69-.73,0.32-1.06a0.37,0.37,0,0,0-.53.53h0Z" transform="translate(-991 -157)"/><path class="cls-10" d="M1576.42,350h0l0.55,0.22c0-.17-0.11-0.23-0.31-0.19l0.17-.22c0.13-.09,0,0,0-0.13l-0.36.47,0.27,0a0.38,0.38,0,0,0,.38-0.65,1,1,0,0,0-.65-0.14,0.38,0.38,0,0,0-.36.47,1,1,0,0,0,.69.64,0.5,0.5,0,0,0,.65-0.51,0.66,0.66,0,0,0-.8-0.64,0.8,0.8,0,0,0-.37,1.05,0.38,0.38,0,0,0,.55.22,0.7,0.7,0,0,0,.1-1.16,0.38,0.38,0,0,0-.53.53h0Z" transform="translate(-991 -157)"/><rect class="cls-10" x="586" y="198" width="43" height="10"/><rect class="cls-10" x="556" y="138" width="3" height="90"/><rect class="cls-10" x="556" y="134" width="100" height="4"/><rect class="cls-13" x="559" y="218" width="97" height="10"/><rect class="cls-14" x="560" y="222" width="8" height="2"/><rect class="cls-14" x="564" y="225" width="8" height="2"/><rect class="cls-14" x="571" y="222" width="8" height="2"/><rect class="cls-14" x="573" y="219" width="8" height="2"/><rect class="cls-14" x="564" y="219" width="8" height="2"/><rect class="cls-14" x="581" y="222" width="8" height="2"/><rect class="cls-14" x="585" y="225" width="8" height="2"/><rect class="cls-14" x="594" y="222" width="8" height="2"/><rect class="cls-14" x="594" y="219" width="8" height="2"/><rect class="cls-14" x="585" y="219" width="8" height="2"/><rect class="cls-14" x="603" y="222" width="8" height="2"/><rect class="cls-14" x="612" y="225" width="8" height="2"/><rect class="cls-14" x="616" y="222" width="8" height="2"/><rect class="cls-14" x="620" y="219" width="8" height="2"/><rect class="cls-14" x="607" y="219" width="8" height="2"/><rect class="cls-14" x="629" y="222" width="8" height="2"/><rect class="cls-14" x="642" y="225" width="8" height="2"/><rect class="cls-14" x="638" y="222" width="8" height="2"/><rect class="cls-14" x="646" y="219" width="8" height="2"/><rect class="cls-14" x="637" y="219" width="8" height="2"/><rect class="cls-15" x="559" y="216" width="97" height="2"/><g class="cls-4"><path d="M1615,264h-35v-1h35v1Zm0-7h-35v-1h35v1Zm0-7h-35v-1h35v1Zm0-7h-35v-1h35v1Zm0-7h-35v-1h35v1Zm0-7h-35v-1h35v1Zm0-7h-35v-1h35v1Zm-13-7h-9v-1h9v1Z" transform="translate(-991 -157)"/></g><polygon class="cls-10" points="626.4 69.66 606.5 56.4 586.61 69.66 584.39 66.34 606.5 51.6 628.61 66.34 626.4 69.66"/><rect class="cls-9" x="594.51" y="71.94" width="23.47" height="30.11"/><path class="cls-10" d="M1610.5,261H1584V227h26.5v34ZM1587,257.11h20.44V230.89H1587v26.23Z" transform="translate(-991 -157)"/><rect class="cls-10" x="602.09" y="71.94" width="0.76" height="30.11"/><rect class="cls-10" x="593.76" y="86.51" width="23.47" height="0.97"/><rect class="cls-10" x="609.66" y="71.94" width="0.76" height="30.11"/><rect class="cls-22" x="278" width="100" height="66"/><path class="cls-23" d="M1357,169h-1v-6h1v6Zm-10,0h-1v-6h1v6Zm-10,0h-1v-6h1v6Zm-10,0h-1v-6h1v6Zm-10,0h-1v-6h1v6Zm-10,0h-1v-6h1v6Zm-10,0h-1v-6h1v6Zm-10,0h-1v-6h1v6Zm-10,0h-1v-6h1v6Z" transform="translate(-991 -157)"/><path class="cls-23" d="M1359,179h-1v-6h1v6Zm-10,0h-1v-6h1v6Zm-10,0h-1v-6h1v6Zm-10,0h-1v-6h1v6Zm-10,0h-1v-6h1v6Zm-10,0h-1v-6h1v6Zm-10,0h-1v-6h1v6Zm-10,0h-1v-6h1v6Zm-10,0h-1v-6h1v6Z" transform="translate(-991 -157)"/><path class="cls-23" d="M1357,189h-1v-6h1v6Zm-10,0h-1v-6h1v6Zm-10,0h-1v-6h1v6Zm-10,0h-1v-6h1v6Zm-10,0h-1v-6h1v6Zm-10,0h-1v-6h1v6Zm-10,0h-1v-6h1v6Zm-10,0h-1v-6h1v6Zm-10,0h-1v-6h1v6Z" transform="translate(-991 -157)"/><path class="cls-23" d="M1356,200h-1v-6h1v6Zm-10,0h-1v-6h1v6Zm-10,0h-1v-6h1v6Zm-10,0h-1v-6h1v6Zm-10,0h-1v-6h1v6Zm-10,0h-1v-6h1v6Zm-10,0h-1v-6h1v6Zm-10,0h-1v-6h1v6Zm-10,0h-1v-6h1v6Z" transform="translate(-991 -157)"/><path class="cls-23" d="M1362,210h-1v-6h1v6Zm-10,0h-1v-6h1v6Zm-10,0h-1v-6h1v6Zm-10,0h-1v-6h1v6Zm-10,0h-1v-6h1v6Zm-10,0h-1v-6h1v6Zm-10,0h-1v-6h1v6Zm-10,0h-1v-6h1v6Zm-10,0h-1v-6h1v6Zm-10,0h-1v-6h1v6Z" transform="translate(-991 -157)"/><rect class="cls-24" x="278" y="66" width="100" height="162"/><g class="cls-25"><rect class="cls-22" x="367" y="151" width="11" height="6"/><rect class="cls-22" x="356" y="159" width="22" height="6"/><rect class="cls-22" x="343" y="151" width="21" height="6"/><rect class="cls-22" x="332" y="143" width="21" height="5"/><rect class="cls-22" x="356" y="143" width="22" height="5"/><rect class="cls-22" x="367" y="176" width="11" height="5"/><rect class="cls-22" x="356" y="168" width="22" height="5"/><rect class="cls-22" x="367" y="192" width="11" height="6"/><rect class="cls-22" x="356" y="200" width="22" height="6"/><rect class="cls-22" x="343" y="192" width="21" height="6"/><rect class="cls-22" x="356" y="184" width="22" height="5"/></g><g class="cls-25"><rect class="cls-22" x="367" y="77" width="11" height="6"/><rect class="cls-22" x="356" y="85" width="22" height="6"/><rect class="cls-22" x="343" y="77" width="21" height="6"/><rect class="cls-22" x="332" y="69" width="21" height="5"/><rect class="cls-22" x="356" y="69" width="22" height="5"/><rect class="cls-22" x="367" y="102" width="11" height="5"/><rect class="cls-22" x="356" y="94" width="22" height="5"/><rect class="cls-22" x="367" y="118" width="11" height="6"/><rect class="cls-22" x="356" y="126" width="22" height="6"/><rect class="cls-22" x="343" y="118" width="21" height="6"/><rect class="cls-22" x="356" y="110" width="22" height="5"/></g><rect class="cls-10" x="278" y="60" width="100" height="6"/><rect class="cls-10" x="296" y="26" width="35" height="29"/><path class="cls-10" d="M1322,184c0-7-7.84-12.17-17.5-12.17S1287,177,1287,184h35Z" transform="translate(-991 -157)"/><rect class="cls-22" x="278" y="141" width="100" height="19"/><rect class="cls-10" x="278" y="158" width="100" height="2"/><rect class="cls-10" x="278" y="223" width="100" height="5"/><rect class="cls-10" x="374" y="160" width="4" height="63"/><rect class="cls-3" x="286" y="175" width="16" height="36"/><path class="cls-26" d="M1294,369h-18V331h18v38Zm-16-2h14V333h-14v34Z" transform="translate(-991 -157)"/><rect class="cls-3" x="320" y="175" width="16" height="36"/><path class="cls-26" d="M1328,369h-18V331h18v38Zm-16-2h14V333h-14v34Z" transform="translate(-991 -157)"/><path class="cls-10" d="M1301,332h2c0-7.87,14.61-13.2,31.9-13.2s31.9,5.33,31.9,13.2h2c0-8.86-14.89-15.17-33.9-15.17S1301,323.14,1301,332Z" transform="translate(-991 -157)"/><path class="cls-10" d="M1269,317v2h0.14c17.23,0,31.79,5.17,31.79,13h2c0-8.81-14.84-15-33.78-15H1269Z" transform="translate(-991 -157)"/><rect class="cls-10" x="309" y="160" width="4" height="63"/><rect class="cls-10" x="278" y="202" width="100" height="2"/><rect class="cls-10" x="343" y="204" width="2" height="19"/><rect class="cls-10" x="333" y="204" width="2" height="19"/><rect class="cls-10" x="323" y="204" width="2" height="19"/><rect class="cls-10" x="363" y="204" width="2" height="19"/><rect class="cls-10" x="353" y="204" width="2" height="19"/><rect class="cls-10" x="278" y="204" width="1" height="19"/><rect class="cls-10" x="297" y="204" width="2" height="19"/><rect class="cls-10" x="287" y="204" width="2" height="19"/><path class="cls-3" d="M1292,186c0-5,5.59-8.69,12.49-8.69S1317,181,1317,186h0v21h-25V186h0Z" transform="translate(-991 -157)"/><rect class="cls-10" x="313" y="20" width="1" height="30"/><rect class="cls-10" x="300" y="35" width="28" height="1"/><rect class="cls-3" x="321" y="81" width="16" height="55"/><path class="cls-10" d="M1329,294h-18V237h18v57Zm-16-2h14V239h-14v53Z" transform="translate(-991 -157)"/><rect class="cls-10" x="321" y="108" width="16" height="1"/><rect class="cls-3" x="287" y="81" width="16" height="55"/><path class="cls-10" d="M1295,294h-18V237h18v57Zm-16-2h14V239h-14v53Z" transform="translate(-991 -157)"/><rect class="cls-10" x="287" y="108" width="16" height="1"/><rect class="cls-5" x="278" y="238" width="100" height="10"/><rect class="cls-6" x="278" y="248" width="100" height="20"/><rect class="cls-7" x="278" y="228" width="100" height="10"/><rect class="cls-8" x="278" y="268" width="100" height="10"/><path class="cls-23" d="M1356,305h-1v-6h1v6Zm-10,0h-1v-6h1v6Zm-10,0h-1v-6h1v6Zm-10,0h-1v-6h1v6Zm-10,0h-1v-6h1v6Zm-10,0h-1v-6h1v6Zm-10,0h-1v-6h1v6Zm-10,0h-1v-6h1v6Zm-10,0h-1v-6h1v6Z" transform="translate(-991 -157)"/><path class="cls-23" d="M1363,312h-1v-6h1v6Zm-10,0h-1v-6h1v6Zm-10,0h-1v-6h1v6Zm-10,0h-1v-6h1v6Zm-10,0h-1v-6h1v6Zm-10,0h-1v-6h1v6Zm-10,0h-1v-6h1v6Zm-10,0h-1v-6h1v6Zm-10,0h-1v-6h1v6Zm-10,0h-1v-6h1v6Z" transform="translate(-991 -157)"/><polygon class="cls-8" points="378 238 378 239 378 245.13 378 248 373.33 248 360.11 268 359.44 268 354.11 268 353.9 268 347.94 268 334.67 248 330 248 330 245.13 330 239 330 238 378 238"/><polygon class="cls-16" points="334.9 238 334.9 228 372.9 228 372.9 238 373.01 238 367.11 247 366.63 247.73 355.9 264.11 355.9 274.13 356 274.13 356 278 352 278 352 277 351.9 277 351.9 264.1 341.17 247.73 340.69 247 334.79 238 334.9 238"/><rect class="cls-7" x="365" y="228" width="5" height="10"/><rect class="cls-7" x="356" y="228" width="5" height="10"/><rect class="cls-7" x="347" y="228" width="5" height="10"/><rect class="cls-7" x="338" y="228" width="5" height="10"/><rect class="cls-7" x="373" y="228" width="5" height="10"/><rect class="cls-7" x="330" y="228" width="5" height="10"/><rect class="cls-3" x="144" y="15" width="35" height="40"/><path class="cls-22" d="M1230,157v66H1130v-6.32c11.82-8.4,20-31.8,20-59.35V157h80Z" transform="translate(-991 -157)"/><path class="cls-23" d="M1225,169h-1v-6h1v6Zm-10,0h-1v-6h1v6Zm-10,0h-1v-6h1v6Zm-10,0h-1v-6h1v6Zm-10,0h-1v-6h1v6Zm-10,0h-1v-6h1v6Zm-10,0h-1v-6h1v6Zm-10,0h-1v-6h1v6Z" transform="translate(-991 -157)"/><path class="cls-23" d="M1227,179h-1v-6h1v6Zm-10,0h-1v-6h1v6Zm-10,0h-1v-6h1v6Zm-10,0h-1v-6h1v6Zm-10,0h-1v-6h1v6Zm-10,0h-1v-6h1v6Zm-10,0h-1v-6h1v6Zm-10,0h-1v-6h1v6Z" transform="translate(-991 -157)"/><path class="cls-23" d="M1225,189h-1v-6h1v6Zm-10,0h-1v-6h1v6Zm-10,0h-1v-6h1v6Zm-10,0h-1v-6h1v6Zm-10,0h-1v-6h1v6Zm-10,0h-1v-6h1v6Zm-10,0h-1v-6h1v6Zm-10,0h-1v-6h1v6Z" transform="translate(-991 -157)"/><path class="cls-23" d="M1224,200h-1v-6h1v6Zm-10,0h-1v-6h1v6Zm-10,0h-1v-6h1v6Zm-10,0h-1v-6h1v6Zm-10,0h-1v-6h1v6Zm-10,0h-1v-6h1v6Zm-10,0h-1v-6h1v6Zm-10,0h-1v-6h1v6Z" transform="translate(-991 -157)"/><path class="cls-23" d="M1221,210h-1v-6h1v6Zm-10,0h-1v-6h1v6Zm-10,0h-1v-6h1v6Zm-10,0h-1v-6h1v6Zm-10,0h-1v-6h1v6Zm-10,0h-1v-6h1v6Zm-10,0h-1v-6h1v6Zm-10,0h-1v-6h1v6Z" transform="translate(-991 -157)"/><rect class="cls-24" x="139" y="66" width="100" height="162"/><g class="cls-25"><rect class="cls-22" x="139" y="151" width="11" height="6"/><rect class="cls-22" x="139" y="159" width="22" height="6"/><rect class="cls-22" x="153" y="151" width="21" height="6"/><rect class="cls-22" x="164" y="143" width="21" height="5"/><rect class="cls-22" x="139" y="143" width="22" height="5"/><rect class="cls-22" x="139" y="176" width="11" height="5"/><rect class="cls-22" x="139" y="168" width="22" height="5"/><rect class="cls-22" x="139" y="192" width="11" height="6"/><rect class="cls-22" x="139" y="200" width="22" height="6"/><rect class="cls-22" x="153" y="192" width="21" height="6"/><rect class="cls-22" x="139" y="184" width="22" height="5"/></g><rect class="cls-5" x="139" y="238" width="100" height="10"/><rect class="cls-6" x="139" y="248" width="100" height="20"/><rect class="cls-7" x="139" y="228" width="100" height="10"/><rect class="cls-8" x="139" y="268" width="100" height="10"/><rect class="cls-10" x="139" y="60" width="100" height="6"/><rect class="cls-10" x="186" y="26" width="35" height="29"/><path class="cls-10" d="M1177,184c0-7,7.84-12.17,17.5-12.17S1212,177,1212,184h-35Z" transform="translate(-991 -157)"/><rect class="cls-22" x="139" y="141" width="100" height="19"/><rect class="cls-3" x="215" y="175" width="16" height="36"/><path class="cls-26" d="M1223,369h-18V331h18v38Zm-16-2h14V333h-14v34Z" transform="translate(-991 -157)"/><rect class="cls-3" x="181" y="175" width="16" height="36"/><path class="cls-26" d="M1189,369h-18V331h18v38Zm-16-2h14V333h-14v34Z" transform="translate(-991 -157)"/><path class="cls-10" d="M1198,332h-2c0-7.87-14.61-13.2-31.9-13.2s-31.9,5.33-31.9,13.2h-2c0-8.86,14.89-15.17,33.9-15.17S1198,323.14,1198,332Z" transform="translate(-991 -157)"/><polygon class="cls-10" points="139 160 139 168.2 139 171.05 139 223 143 223 143 160 139 160"/><path class="cls-10" d="M1230,317v2h-0.14c-17.23,0-31.79,5.17-31.79,13h-2c0-8.81,14.84-15,33.78-15H1230Z" transform="translate(-991 -157)"/><rect class="cls-10" x="204" y="160" width="4" height="63"/><rect class="cls-10" x="172" y="204" width="2" height="19"/><rect class="cls-10" x="182" y="204" width="2" height="19"/><rect class="cls-10" x="192" y="204" width="2" height="19"/><rect class="cls-10" x="152" y="204" width="2" height="19"/><rect class="cls-10" x="162" y="204" width="2" height="19"/><rect class="cls-10" x="238" y="204" width="1" height="19"/><rect class="cls-10" x="218" y="204" width="2" height="19"/><rect class="cls-10" x="228" y="204" width="2" height="19"/><path class="cls-3" d="M1207,186c0-5-5.59-8.69-12.49-8.69S1182,181,1182,186h0v21h25V186h0Z" transform="translate(-991 -157)"/><rect class="cls-10" x="203" y="20" width="1" height="30"/><rect class="cls-10" x="189" y="35" width="28" height="1"/><rect class="cls-3" x="180" y="81" width="16" height="55"/><path class="cls-10" d="M1188,294h-18V237h18v57Zm-16-2h14V239h-14v53Z" transform="translate(-991 -157)"/><rect class="cls-10" x="180" y="108" width="16" height="1"/><rect class="cls-3" x="214" y="81" width="16" height="55"/><path class="cls-10" d="M1222,294h-18V237h18v57Zm-16-2h14V239h-14v53Z" transform="translate(-991 -157)"/><rect class="cls-10" x="214" y="108" width="16" height="1"/><g class="cls-25"><rect class="cls-22" x="139" y="77" width="11" height="6"/><rect class="cls-22" x="139" y="85" width="22" height="6"/><rect class="cls-22" x="153" y="77" width="21" height="6"/><rect class="cls-22" x="164" y="69" width="21" height="5"/><rect class="cls-22" x="139" y="69" width="22" height="5"/><rect class="cls-22" x="139" y="102" width="11" height="5"/><rect class="cls-22" x="139" y="94" width="22" height="5"/><rect class="cls-22" x="139" y="118" width="11" height="6"/><rect class="cls-22" x="139" y="126" width="22" height="6"/><rect class="cls-22" x="153" y="118" width="21" height="6"/><rect class="cls-22" x="139" y="110" width="22" height="5"/></g><path class="cls-23" d="M1226,306h-1v-6h1v6Zm-10,0h-1v-6h1v6Zm-10,0h-1v-6h1v6Zm-10,0h-1v-6h1v6Zm-10,0h-1v-6h1v6Zm-10,0h-1v-6h1v6Zm-10,0h-1v-6h1v6Zm-10,0h-1v-6h1v6Zm-10,0h-1v-6h1v6Zm-10,0h-1v-6h1v6Z" transform="translate(-991 -157)"/><path class="cls-23" d="M1222,313h-1v-6h1v6Zm-10,0h-1v-6h1v6Zm-10,0h-1v-6h1v6Zm-10,0h-1v-6h1v6Zm-10,0h-1v-6h1v6Zm-10,0h-1v-6h1v6Zm-10,0h-1v-6h1v6Zm-10,0h-1v-6h1v6Zm-10,0h-1v-6h1v6Zm-10,0h-1v-6h1v6Z" transform="translate(-991 -157)"/><rect class="cls-10" x="139" y="223" width="100" height="5"/><rect class="cls-10" x="140" y="202" width="99" height="2"/><rect class="cls-10" x="139" y="158" width="100" height="2"/><rect class="cls-5" y="238" width="100" height="10"/><rect class="cls-6" y="248" width="100" height="20"/><rect class="cls-7" y="228" width="100" height="10"/><path class="cls-22" d="M1054,298v19h-28v-2c3.36-2.39,6-9,6-16.86V298h22Z" transform="translate(-991 -157)"/><rect class="cls-10" x="35" y="158" width="65" height="2"/><rect class="cls-10" x="35" y="223" width="65" height="5"/><path class="cls-10" d="M1091,325.2V328c-4-5.65-16.48-9.25-30.79-9.25-17.41,0-32.12,5.33-32.12,13.2h-2c0-8.86,15-15.17,34.13-15.17C1074,316.83,1085.56,320.09,1091,325.2Z" transform="translate(-991 -157)"/><rect class="cls-10" x="35" y="160" width="4" height="63"/><rect class="cls-10" x="35" y="202" width="65" height="2"/><rect class="cls-10" x="68" y="204" width="2" height="19"/><rect class="cls-10" x="78" y="204" width="2" height="19"/><rect class="cls-10" x="88" y="204" width="2" height="19"/><rect class="cls-10" x="48" y="204" width="2" height="19"/><rect class="cls-10" x="58" y="204" width="2" height="19"/><polygon class="cls-18" points="98.84 129.19 98.81 129.13 70.98 82.24 71.87 81.71 99.73 128.66 98.84 129.19"/><path class="cls-19" d="M1069.75,252.38c-5.68.71-10.21,3.37-14.34,6.68l-0.13.1-0.9-1.53-0.1-.15-1-1.69-1-1.69-1-1.68-1-1.69-1-1.68-0.78-1.34-0.17-.31c4.21-3.4,8.83-6.12,14.64-6.8l6.95,11.75Zm-14.27-.3h-0.64l0.5,0.4-0.21.66,0.41-.33a0.14,0.14,0,0,1,.22,0c0.12,0.11.25,0.2,0.41,0.32-0.05-.2-0.09-0.36-0.14-0.52a0.16,0.16,0,0,1,.07-0.22l0.4-.26,0,0h-0.6l-0.21-.62h0Zm-1.07-1.88a0.15,0.15,0,0,1-.22,0c-0.13-.09-0.27-0.16-0.44-0.25,0.08,0.19.14,0.34,0.21,0.49a0.15,0.15,0,0,1,0,.22c-0.12.11-.23,0.24-0.37,0.39,0.19,0,.34,0,0.49-0.09a0.16,0.16,0,0,1,.21.12c0.06,0.15.12,0.29,0.2,0.47,0-.21.07-0.38,0.1-0.55a0.14,0.14,0,0,1,.14-0.15l0.53-.08-0.56-.32,0.13-.64h0C1054.67,250,1054.54,250.09,1054.42,250.21Zm7.15-3.63h0l0.58,0.23a0.14,0.14,0,0,1,.07.1c0,0.16,0,.32,0,0.52l0.46-.41,0.7,0.29c-0.13-.17-0.22-0.31-0.34-0.44a0.11,0.11,0,0,1,0-.19l0.38-.31-0.61,0a0.17,0.17,0,0,1-.19-0.08l-0.35-.46c0,0.18,0,.33,0,0.48a0.12,0.12,0,0,1-.14.13l-0.37,0a0.9,0.9,0,0,0-.16.05S1061.57,246.57,1061.57,246.58Zm-0.59-1c0-.12.08-0.15,0.21-0.14h0.55l-0.65-.36,0.13-.57-0.45.29a0.24,0.24,0,0,1-.18,0c-0.18-.09-0.34-0.18-0.54-0.26l0.32,0.54-0.52.39,0.61,0a0.14,0.14,0,0,1,.16.09c0.08,0.15.17,0.3,0.27,0.47A4.08,4.08,0,0,0,1061,245.57Zm1.46,7.29-0.29-.59,0.52-.39-0.58,0a0.15,0.15,0,0,1-.17-0.1c-0.06-.15-0.15-0.3-0.24-0.49,0,0.19-.09.35-0.12,0.52a0.11,0.11,0,0,1-.13.1l-0.58,0,0.6,0.34-0.13.62,0.51-.41Zm-8.24-6.54a0.17,0.17,0,0,1,0,.15c-0.09.16-.18,0.31-0.29,0.49l0.51-.22a0.12,0.12,0,0,1,.17,0l0.35,0.42a4.06,4.06,0,0,0,0-.49,0.17,0.17,0,0,1,.14-0.23,1.92,1.92,0,0,0,.42-0.19l-0.49-.13a0.12,0.12,0,0,1-.11-0.14c0-.17,0-0.34,0-0.55l-0.38.59-0.57-.2,0,0C1054,246,1054.09,246.18,1054.2,246.32Zm2.2-1.11,0.68,0.1c-0.15-.14-0.27-0.26-0.4-0.36a0.14,0.14,0,0,1,0-.21,2.36,2.36,0,0,0,.19-0.43c-0.15.07-.3,0.13-0.44,0.21a0.18,0.18,0,0,1-.25,0l-0.39-.35c0,0.21.08,0.37,0.12,0.54a0.11,0.11,0,0,1-.07.14,2.51,2.51,0,0,0-.46.27l0.53,0.07a0.13,0.13,0,0,1,.13.12c0,0.16.07,0.33,0.12,0.53Zm3.88,7.82a0.18,0.18,0,0,1-.16-0.24c0-.15,0-0.3,0-0.48l-0.42.5-0.63-.23c0.12,0.17.2,0.31,0.31,0.44a0.14,0.14,0,0,1,0,.21c-0.11.12-.2,0.25-0.32,0.41l0.53-.15a0.13,0.13,0,0,1,.18.07c0.09,0.14.19,0.28,0.31,0.45,0-.21,0-0.38,0-0.55a0.11,0.11,0,0,1,.11-0.14l0.55-.14A5.1,5.1,0,0,0,1060.28,253Zm-1.48-8.42,0.57-.31c-0.22,0-.4,0-0.59-0.05a0.16,0.16,0,0,1-.18-0.13,2.44,2.44,0,0,0-.2-0.46l-0.14.55-0.76,0,0.57,0.4-0.19.58,0.45-.27a0.16,0.16,0,0,1,.21,0c0.14,0.11.29,0.2,0.47,0.33Zm-4.43,4a0.14,0.14,0,0,1,0-.19c0.11-.13.22-0.27,0.35-0.43-0.19,0-.35.08-0.5,0.14A0.14,0.14,0,0,1,1054,248a1.9,1.9,0,0,0-.28-0.41c0,0.13,0,.26,0,0.39s0,0.25-.24.32l-0.33.11,0,0,0.57,0.22,0,0.63,0,0c0.1-.13.21-0.26,0.31-0.4a0.13,0.13,0,0,1,.19-0.06l0.47,0.18Zm8.34,2.21a0.18,0.18,0,0,1,.2.16c0,0.15.09,0.3,0.15,0.48,0.08-.17.15-0.3,0.2-0.44a0.14,0.14,0,0,1,.19-0.09L1064,251l-0.48-.37a0.1,0.1,0,0,1,0-.15c0.07-.14.14-0.28,0.22-0.45a4.59,4.59,0,0,0-.47.2,0.2,0.2,0,0,1-.27,0c-0.12-.11-0.26-0.21-0.43-0.33,0.06,0.18.09,0.32,0.15,0.46a0.14,0.14,0,0,1-.1.22c-0.14.06-.27,0.13-0.41,0.2v0Zm-5.23,3.37,0.31-.59,0.64,0.11c-0.14-.16-0.26-0.29-0.38-0.41a0.11,0.11,0,0,1,0-.16,3.1,3.1,0,0,0,.23-0.48l-0.43.21a0.15,0.15,0,0,1-.22,0c-0.1-.13-0.22-0.24-0.36-0.38,0,0.21,0,.39.07,0.56a0.12,0.12,0,0,1-.09.16l-0.49.25,0.64,0.11Zm5-6,0.4,0.4c0.07,0.07.09,0.12,0,.19a1.67,1.67,0,0,0-.25.39l0.49-.14a0.18,0.18,0,0,1,.22.06l0.41,0.41c0-.18,0-0.34-0.07-0.5s0-.12.12-0.14a3.39,3.39,0,0,0,.51-0.13l-0.57-.17a0.13,0.13,0,0,1-.12-0.12c0-.16,0-0.32-0.07-0.51l-0.37.46Z" transform="translate(-991 -157)"/><path class="cls-20" d="M1033.28,285.38l1,1.7c17.49-2.07,24.13-22.52,41.62-24.59l-1-1.7-0.19,0c-17.29,2.19-24,22.36-41.24,24.54Z" transform="translate(-991 -157)"/><path class="cls-20" d="M1031.29,282l1,1.7,0.17,0c17.31-2.18,24-22.37,41.28-24.55h0.18l-1-1.7C1055.42,259.49,1048.79,279.95,1031.29,282Z" transform="translate(-991 -157)"/><path class="cls-21" d="M1031.29,282c17.5-2.07,24.13-22.52,41.62-24.59l-1-1.7-0.17,0c-17.31,2.18-24,22.37-41.28,24.55h-0.18Z" transform="translate(-991 -157)"/><path class="cls-21" d="M1069.92,252.36l-0.17,0c-5.68.71-10.21,3.37-14.34,6.68l-0.13.1-0.12.11c-8.36,6.78-15.15,16.2-26.66,17.66l-0.19,0,1,1.7,0.19,0c17.29-2.19,24-22.36,41.24-24.54l0.19,0Z" transform="translate(-991 -157)"/><path class="cls-21" d="M1073.92,259.12h-0.18c-17.31,2.17-24,22.37-41.28,24.55l-0.17,0,1,1.67,0.19,0c17.29-2.19,24-22.36,41.24-24.54l0.19,0Z" transform="translate(-991 -157)"/><path class="cls-20" d="M1070.93,254.05l-0.19,0c-17.29,2.19-24,22.36-41.24,24.54l-0.19,0,1,1.67h0.18c17.31-2.17,24-22.37,41.28-24.55l0.17,0Z" transform="translate(-991 -157)"/><path class="cls-20" d="M1051.29,252.43l-1-1.69-0.09.08c-8.38,6.8-15.19,16.25-26.74,17.69h-0.14l1,1.7,0.2,0a27.21,27.21,0,0,0,13.15-5.78C1042.45,260.8,1046.62,256.2,1051.29,252.43Z" transform="translate(-991 -157)"/><path class="cls-21" d="M1054.28,257.49l-1-1.69c-8.46,6.83-15.29,16.4-27,17.78l1,1.7,0.22,0c10.45-1.33,17-9.23,24.39-15.75C1052.7,258.8,1053.48,258.13,1054.28,257.49Z" transform="translate(-991 -157)"/><path class="cls-20" d="M1026.31,273.58c11.67-1.38,18.51-10.95,27-17.78l-1-1.69-0.1.08c-8.37,6.79-15.18,16.23-26.71,17.67h-0.16Z" transform="translate(-991 -157)"/><path class="cls-21" d="M1023.32,268.51h0.14c11.55-1.44,18.36-10.89,26.74-17.69l0.09-.08-1-1.68-0.11.08c-8.37,6.79-15.18,16.23-26.71,17.67l-0.15,0Z" transform="translate(-991 -157)"/><path class="cls-20" d="M1054.28,257.49c-0.8.64-1.58,1.31-2.36,2-7.38,6.52-13.95,14.42-24.39,15.75l-0.22,0,1,1.67,0.19,0c11.51-1.45,18.3-10.87,26.66-17.66l0.13-.11-0.9-1.53Z" transform="translate(-991 -157)"/><path class="cls-21" d="M1025.31,271.88h0.16c11.53-1.44,18.34-10.88,26.71-17.67l0.1-.08-1-1.68c-4.67,3.77-8.84,8.37-13.61,12a27.21,27.21,0,0,1-13.15,5.78l-0.2,0Z" transform="translate(-991 -157)"/><path class="cls-20" d="M1022.33,266.84l0.15,0c11.53-1.44,18.34-10.88,26.71-17.67l0.11-.08-0.78-1.34-0.17-.31c-8.46,6.83-15.3,16.41-27,17.79Z" transform="translate(-991 -157)"/><path class="cls-21" d="M1060.89,246a4.08,4.08,0,0,0,.09-0.43c0-.12.08-0.15,0.21-0.14h0.55l-0.65-.36,0.13-.57-0.45.29a0.24,0.24,0,0,1-.18,0c-0.18-.09-0.34-0.18-0.54-0.26l0.32,0.54-0.52.39,0.61,0a0.14,0.14,0,0,1,.16.09C1060.69,245.67,1060.79,245.82,1060.89,246Z" transform="translate(-991 -157)"/><path class="cls-21" d="M1061.83,252.52l0.61,0.34-0.29-.59,0.52-.39-0.58,0a0.15,0.15,0,0,1-.17-0.1c-0.06-.15-0.15-0.3-0.24-0.49,0,0.19-.09.35-0.12,0.52a0.11,0.11,0,0,1-.13.1l-0.58,0,0.6,0.34-0.13.62Z" transform="translate(-991 -157)"/><path class="cls-21" d="M1053.87,245.91c0.11,0.13.23,0.27,0.33,0.41a0.17,0.17,0,0,1,0,.15c-0.09.16-.18,0.31-0.29,0.49l0.51-.22a0.12,0.12,0,0,1,.17,0l0.35,0.42a4.06,4.06,0,0,0,0-.49,0.17,0.17,0,0,1,.14-0.23,1.92,1.92,0,0,0,.42-0.19l-0.49-.13a0.12,0.12,0,0,1-.11-0.14c0-.17,0-0.34,0-0.55l-0.38.59-0.57-.2Z" transform="translate(-991 -157)"/><path class="cls-21" d="M1056.11,245.78l0.29-.58,0.68,0.1c-0.15-.14-0.27-0.26-0.4-0.36a0.14,0.14,0,0,1,0-.21,2.36,2.36,0,0,0,.19-0.43c-0.15.07-.3,0.13-0.44,0.21a0.18,0.18,0,0,1-.25,0l-0.39-.35c0,0.21.08,0.37,0.12,0.54a0.11,0.11,0,0,1-.07.14,2.51,2.51,0,0,0-.46.27l0.53,0.07a0.13,0.13,0,0,1,.13.12C1056,245.41,1056.06,245.58,1056.11,245.78Z" transform="translate(-991 -157)"/><path class="cls-21" d="M1061.56,246.58l0.58,0.23a0.14,0.14,0,0,1,.07.1c0,0.16,0,.32,0,0.52l0.46-.41,0.7,0.29c-0.13-.17-0.22-0.31-0.34-0.44a0.11,0.11,0,0,1,0-.19l0.38-.31-0.61,0a0.17,0.17,0,0,1-.19-0.08l-0.35-.46c0,0.18,0,.33,0,0.48a0.12,0.12,0,0,1-.14.13l-0.37,0a0.9,0.9,0,0,0-.16.05h0Z" transform="translate(-991 -157)"/><path class="cls-21" d="M1060.76,253.2a5.1,5.1,0,0,0-.48-0.18,0.18,0.18,0,0,1-.16-0.24c0-.15,0-0.3,0-0.48l-0.42.5-0.63-.23c0.12,0.17.2,0.31,0.31,0.44a0.14,0.14,0,0,1,0,.21c-0.11.12-.2,0.25-0.32,0.41l0.53-.15a0.13,0.13,0,0,1,.18.07c0.09,0.14.19,0.28,0.31,0.45,0-.21,0-0.38,0-0.55a0.11,0.11,0,0,1,.11-0.14Z" transform="translate(-991 -157)"/><path class="cls-21" d="M1059,245.21l-0.22-.6,0.57-.31c-0.22,0-.4,0-0.59-0.05a0.16,0.16,0,0,1-.18-0.13,2.44,2.44,0,0,0-.2-0.46l-0.14.55-0.76,0,0.57,0.4-0.19.58,0.45-.27a0.16,0.16,0,0,1,.21,0C1058.69,245,1058.84,245.09,1059,245.21Z" transform="translate(-991 -157)"/><path class="cls-21" d="M1054.64,249l-0.27-.46a0.14,0.14,0,0,1,0-.19c0.11-.13.22-0.27,0.35-0.43-0.19,0-.35.08-0.5,0.14A0.14,0.14,0,0,1,1054,248a1.9,1.9,0,0,0-.28-0.41c0,0.13,0,.26,0,0.39s0,0.25-.24.32l-0.33.11,0,0,0.57,0.22,0,0.63,0,0c0.1-.13.21-0.26,0.31-0.4a0.13,0.13,0,0,1,.19-0.06Z" transform="translate(-991 -157)"/><path class="cls-21" d="M1062.19,250.74l0.52,0.06a0.18,0.18,0,0,1,.2.16c0,0.15.09,0.3,0.15,0.48,0.08-.17.15-0.3,0.2-0.44a0.14,0.14,0,0,1,.19-0.09L1064,251l-0.48-.37a0.1,0.1,0,0,1,0-.15c0.07-.14.14-0.28,0.22-0.45a4.59,4.59,0,0,0-.47.2,0.2,0.2,0,0,1-.27,0c-0.12-.11-0.26-0.21-0.43-0.33,0.06,0.18.09,0.32,0.15,0.46a0.14,0.14,0,0,1-.1.22c-0.14.06-.27,0.13-0.41,0.2v0Z" transform="translate(-991 -157)"/><path class="cls-21" d="M1057.38,253.5l0.09,0.67,0.31-.59,0.64,0.11c-0.14-.16-0.26-0.29-0.38-0.41a0.11,0.11,0,0,1,0-.16,3.1,3.1,0,0,0,.23-0.48l-0.43.21a0.15,0.15,0,0,1-.22,0c-0.1-.13-0.22-0.24-0.36-0.38,0,0.21,0,.39.07,0.56a0.12,0.12,0,0,1-.09.16l-0.49.25Z" transform="translate(-991 -157)"/><path class="cls-21" d="M1054.8,249.87c-0.13.11-.26,0.22-0.38,0.34a0.15,0.15,0,0,1-.22,0c-0.13-.09-0.27-0.16-0.44-0.25,0.08,0.19.14,0.34,0.21,0.49a0.15,0.15,0,0,1,0,.22c-0.12.11-.23,0.24-0.37,0.39,0.19,0,.34,0,0.49-0.09a0.16,0.16,0,0,1,.21.12c0.06,0.15.12,0.29,0.2,0.47,0-.21.07-0.38,0.1-0.55a0.14,0.14,0,0,1,.14-0.15l0.53-.08-0.56-.32,0.13-.64h0Z" transform="translate(-991 -157)"/><path class="cls-21" d="M1063.22,248.33l-0.72-.2,0.4,0.4c0.07,0.07.09,0.12,0,.19a1.67,1.67,0,0,0-.25.39l0.49-.14a0.18,0.18,0,0,1,.22.06l0.41,0.41c0-.18,0-0.34-0.07-0.5s0-.12.12-0.14a3.39,3.39,0,0,0,.51-0.13l-0.57-.17a0.13,0.13,0,0,1-.12-0.12c0-.16,0-0.32-0.07-0.51Z" transform="translate(-991 -157)"/><path class="cls-21" d="M1055.69,251.47l-0.21.62h-0.64l0.5,0.4-0.21.66,0.41-.33a0.14,0.14,0,0,1,.22,0c0.12,0.11.25,0.2,0.41,0.32-0.05-.2-0.09-0.36-0.14-0.52a0.16,0.16,0,0,1,.07-0.22l0.4-.26,0,0h-0.6l-0.21-.62h0Z" transform="translate(-991 -157)"/><polygon class="cls-21" points="64.69 94.47 64.69 94.48 64.69 94.47 64.69 94.47"/><polygon class="cls-21" points="63.8 92.86 63.8 92.87 63.8 92.87 63.8 92.86"/><path class="cls-21" d="M1061.57,246.58s0,0,0,0h0Z" transform="translate(-991 -157)"/><rect class="cls-18" x="98" y="123" width="2" height="8"/><rect class="cls-22" x="63" y="141" width="37" height="17"/><path class="cls-23" d="M1088,306h-1v-6h1v6Zm-10,0h-1v-6h1v6Zm-10,0h-1v-6h1v6Zm-10,0h-1v-6h1v6Zm-10,0h-1v-6h1v6Zm-10,0h-1v-6h1v6Z" transform="translate(-991 -157)"/><path class="cls-23" d="M1084,313h-1v-6h1v6Zm-10,0h-1v-6h1v6Zm-10,0h-1v-6h1v6Zm-10,0h-1v-6h1v6Zm-10,0h-1v-6h1v6Zm-10,0h-1v-6h1v6Z" transform="translate(-991 -157)"/><rect class="cls-8" y="268" width="100" height="10"/></svg>