<?xml version="1.0" encoding="utf-8"?>
<!-- Generator: Adobe Illustrator 16.0.4, SVG Export Plug-In . SVG Version: 6.00 Build 0)  -->
<!DOCTYPE svg PUBLIC "-//W3C//DTD SVG 1.1//EN" "http://www.w3.org/Graphics/SVG/1.1/DTD/svg11.dtd">
<svg version="1.1" xmlns="http://www.w3.org/2000/svg" xmlns:xlink="http://www.w3.org/1999/xlink" x="0px" y="0px" width="820px"
	 height="900px" viewBox="0 0 820 900" enable-background="new 0 0 820 900" xml:space="preserve">
<g id="screens" display="none">
	<linearGradient id="SVGID_2_" gradientUnits="userSpaceOnUse" x1="395.4624" y1="38.4893" x2="395.4624" y2="862.6064">
		<stop  offset="0" style="stop-color:#7A89BE"/>
		<stop  offset="1" style="stop-color:#B192B8"/>
	</linearGradient>
	<path display="inline" fill="url(#SVGID_2_)" d="M746.496,744.659c0,64.871-53.076,117.947-117.947,117.947H162.377
		c-64.871,0-117.947-53.076-117.947-117.947V156.437c0-64.87,53.077-117.947,117.947-117.947h466.172
		c64.871,0,117.947,53.077,117.947,117.947V744.659z"/>
	<linearGradient id="SVGID_3_" gradientUnits="userSpaceOnUse" x1="395.0005" y1="236.5312" x2="395.0005" y2="121.5312">
		<stop  offset="0" style="stop-color:#FFFFFF"/>
		<stop  offset="1" style="stop-color:#FFFFFF;stop-opacity:0"/>
	</linearGradient>
	<path display="inline" opacity="0.2" fill="url(#SVGID_3_)" d="M682,214.139c0,12.691-10.383,22.393-23.076,22.393H130.597
		c-12.692,0-22.597-9.701-22.597-22.393v-69.177c0-12.692,9.905-23.431,22.597-23.431h528.327c12.693,0,23.076,10.738,23.076,23.431
		V214.139z"/>
	<path display="inline" opacity="0.2" fill="#F3F2F2" d="M684,593.563c0,12.691-11.078,22.968-23.771,22.968H131.667
		c-12.692,0-23.667-10.276-23.667-22.968V524.62c0-12.692,10.975-22.089,23.667-22.089h528.561c12.693,0,23.771,9.396,23.771,22.089
		V593.563z"/>
	
		<text transform="matrix(1 0 0 1 285.5381 158.1035)" display="inline" fill="#FFFFFF" font-family="'Lato-Regular'" font-size="68.9427">600 cal</text>
	
		<text transform="matrix(1 0 0 1 280.9717 748.377)" display="inline" fill="#FFFFFF" font-family="'Lato-Light'" font-size="68.9427">calories</text>
	<path display="inline" opacity="0.2" fill="#F3F2F2" d="M683,466.02c0,12.691-10.289,22.512-22.982,22.512H130.982
		c-12.693,0-22.982-9.82-22.982-22.512V396.98c0-12.691,10.29-23.449,22.982-23.449h529.035c12.693,0,22.982,10.758,22.982,23.449
		V466.02z"/>
	<rect x="137.721" y="415.509" display="inline" fill="none" width="318.896" height="41.27"/>
	
		<text transform="matrix(1 0 0 1 137.7212 456.1572)" display="inline" fill="#FFFFFF" font-family="'Lato-Regular'" font-size="55.1542">Granola</text>
	<path display="inline" opacity="0.2" fill="#F3F2F2" d="M683,341.166c0,12.691-10.443,22.365-23.137,22.365H131.138
		c-12.693,0-23.138-9.674-23.138-22.365v-69.178c0-12.692,10.444-23.457,23.138-23.457h528.726
		c12.693,0,23.137,10.765,23.137,23.457V341.166z"/>
	<rect x="357.798" y="415.509" display="inline" fill="none" width="293.616" height="45.915"/>
	
		<text transform="matrix(1 0 0 1 555.4482 456.8193)" display="inline" fill="#FFFFFF" font-family="'Lato-Black'" font-size="55.1542">120</text>
	
		<line display="inline" fill="none" stroke="#FFFFFF" stroke-width="4" stroke-linecap="round" stroke-miterlimit="10" x1="396" y1="530.531" x2="396" y2="587.531"/>
	
		<line display="inline" fill="none" stroke="#FFFFFF" stroke-width="4" stroke-linecap="round" stroke-miterlimit="10" x1="368" y1="559.531" x2="425" y2="559.531"/>
	<g display="inline">
		<circle fill="none" stroke="#FFFFFF" stroke-width="4" stroke-miterlimit="10" cx="382.107" cy="647.787" r="7.688"/>
		<circle fill="none" stroke="#FFFFFF" stroke-width="4" stroke-miterlimit="10" cx="412.047" cy="656.283" r="12.947"/>
		<circle fill="none" stroke="#FFFFFF" stroke-width="4" stroke-miterlimit="10" cx="382.916" cy="680.964" r="16.588"/>
	</g>
	<rect x="137.721" y="287.491" display="inline" fill="none" width="318.896" height="41.271"/>
	
		<text transform="matrix(1 0 0 1 137.7212 328.1396)" display="inline" fill="#FFFFFF" font-family="'Lato-Regular'" font-size="55.1542">Sandwhich</text>
	<rect x="357.798" y="287.491" display="inline" fill="none" width="293.616" height="45.915"/>
	
		<text transform="matrix(1 0 0 1 555.4482 328.8008)" display="inline" fill="#FFFFFF" font-family="'Lato-Black'" font-size="55.1542">480</text>
	<g display="inline">
		<circle opacity="0.4" fill="#FFFFFF" cx="304.401" cy="791.678" r="11.491"/>
		<circle opacity="0.4" fill="#FFFFFF" cx="341.17" cy="791.678" r="11.49"/>
		<circle opacity="0.4" fill="#FFFFFF" cx="377.94" cy="791.678" r="11.491"/>
		<circle fill="#FFFFFF" cx="414.71" cy="791.678" r="11.491"/>
		<circle opacity="0.4" fill="#FFFFFF" cx="451.479" cy="791.678" r="11.49"/>
		<circle opacity="0.4" fill="#FFFFFF" cx="488.249" cy="791.678" r="11.491"/>
	</g>
</g>
<g id="v2">
	<linearGradient id="SVGID_4_" gradientUnits="userSpaceOnUse" x1="394.4624" y1="38.4893" x2="394.4624" y2="862.6064">
		<stop  offset="0" style="stop-color:#596EA8"/>
		<stop  offset="0.2194" style="stop-color:#6276AD"/>
		<stop  offset="0.3675" style="stop-color:#6B7EB3"/>
		<stop  offset="0.558" style="stop-color:#8584B1"/>
		<stop  offset="0.8444" style="stop-color:#A78BAF"/>
		<stop  offset="1" style="stop-color:#B48EAE"/>
	</linearGradient>
	<path fill="url(#SVGID_4_)" d="M745.496,744.659c0,64.871-53.076,117.947-117.947,117.947H161.377
		c-64.871,0-117.947-53.076-117.947-117.947V156.437c0-64.87,53.077-117.947,117.947-117.947h466.172
		c64.871,0,117.947,53.077,117.947,117.947V744.659z"/>
	<linearGradient id="SVGID_5_" gradientUnits="userSpaceOnUse" x1="395.0005" y1="236.5312" x2="395.0005" y2="121.5312">
		<stop  offset="0" style="stop-color:#FFFFFF"/>
		<stop  offset="1" style="stop-color:#FFFFFF;stop-opacity:0"/>
	</linearGradient>
	<path opacity="0.2" fill="url(#SVGID_5_)" d="M682,214.139c0,12.691-10.383,22.393-23.076,22.393H130.597
		c-12.692,0-22.597-9.701-22.597-22.393v-69.177c0-12.692,9.905-23.431,22.597-23.431h528.327c12.693,0,23.076,10.738,23.076,23.431
		V214.139z"/>
	<path opacity="0.2" fill="#F3F2F2" d="M684,593.563c0,12.691-11.078,22.968-23.771,22.968H131.667
		c-12.692,0-23.667-10.276-23.667-22.968V524.62c0-12.692,10.975-22.089,23.667-22.089h528.561c12.693,0,23.771,9.396,23.771,22.089
		V593.563z"/>
	<g>
		<path fill="#FFFFFF" d="M307.944,127.838c1.976,0,3.849,0.326,5.619,0.982c1.769,0.654,3.32,1.607,4.653,2.86
			c1.333,1.253,2.39,2.792,3.171,4.619s1.172,3.913,1.172,6.257c0,2.275-0.414,4.39-1.241,6.343s-1.982,3.653-3.464,5.102
			s-3.27,2.585-5.36,3.413c-2.091,0.826-4.39,1.24-6.894,1.24c-2.482,0-4.729-0.396-6.739-1.189
			c-2.011-0.793-3.729-1.918-5.153-3.378c-1.425-1.459-2.522-3.228-3.292-5.309c-0.771-2.079-1.155-4.406-1.155-6.98
			c0-2.159,0.482-4.458,1.448-6.894c0.965-2.436,2.493-5.057,4.584-7.859l12.513-16.857c0.321-0.413,0.77-0.764,1.344-1.051
			c0.574-0.287,1.229-0.432,1.965-0.432h5.447l-17.132,21.684c1.172-0.805,2.47-1.432,3.895-1.879
			C304.75,128.061,306.29,127.838,307.944,127.838z M295.19,142.867c0,1.585,0.229,3.033,0.689,4.343
			c0.459,1.31,1.132,2.437,2.017,3.378c0.884,0.943,1.965,1.672,3.24,2.189s2.729,0.775,4.361,0.775
			c1.655,0,3.148-0.264,4.481-0.793c1.333-0.528,2.476-1.264,3.43-2.206c0.953-0.942,1.689-2.056,2.206-3.344
			c0.517-1.286,0.776-2.688,0.776-4.206c0-1.607-0.253-3.062-0.759-4.359c-0.505-1.299-1.218-2.402-2.137-3.311
			c-0.919-0.906-2.022-1.602-3.309-2.085c-1.287-0.482-2.701-0.724-4.24-0.724c-1.655,0-3.149,0.281-4.481,0.844
			c-1.333,0.564-2.465,1.322-3.396,2.275c-0.931,0.954-1.643,2.058-2.137,3.31C295.437,140.207,295.19,141.512,295.19,142.867z"/>
		<path fill="#FFFFFF" d="M363.442,133.422c0,4.32-0.465,8.061-1.396,11.221s-2.201,5.773-3.809,7.842
			c-1.609,2.068-3.511,3.607-5.705,4.619c-2.195,1.011-4.545,1.517-7.049,1.517c-2.528,0-4.878-0.506-7.049-1.517
			c-2.172-1.012-4.062-2.551-5.671-4.619s-2.873-4.682-3.792-7.842c-0.919-3.16-1.379-6.9-1.379-11.221s0.459-8.066,1.379-11.238
			c0.919-3.171,2.183-5.797,3.792-7.877c1.608-2.079,3.499-3.625,5.671-4.636c2.171-1.011,4.521-1.517,7.049-1.517
			c2.504,0,4.854,0.506,7.049,1.517c2.194,1.011,4.096,2.557,5.705,4.636c1.608,2.08,2.878,4.706,3.809,7.877
			C362.977,125.355,363.442,129.102,363.442,133.422z M357.065,133.422c0-3.77-0.316-6.935-0.948-9.497
			c-0.632-2.562-1.482-4.624-2.551-6.188c-1.069-1.563-2.304-2.683-3.706-3.361c-1.402-0.677-2.861-1.017-4.378-1.017
			s-2.977,0.34-4.378,1.017c-1.402,0.679-2.632,1.798-3.688,3.361c-1.057,1.563-1.902,3.625-2.534,6.188
			c-0.632,2.562-0.948,5.728-0.948,9.497s0.315,6.928,0.948,9.479c0.632,2.551,1.477,4.607,2.534,6.17
			c1.057,1.563,2.287,2.684,3.688,3.361c1.401,0.679,2.861,1.017,4.378,1.017s2.976-0.338,4.378-1.017
			c1.401-0.678,2.637-1.798,3.706-3.361c1.068-1.562,1.918-3.619,2.551-6.17C356.749,140.35,357.065,137.191,357.065,133.422z"/>
		<path fill="#FFFFFF" d="M403.429,133.422c0,4.32-0.466,8.061-1.396,11.221s-2.201,5.773-3.809,7.842
			c-1.609,2.068-3.511,3.607-5.705,4.619c-2.195,1.011-4.545,1.517-7.049,1.517c-2.528,0-4.878-0.506-7.049-1.517
			c-2.172-1.012-4.062-2.551-5.671-4.619s-2.873-4.682-3.792-7.842c-0.919-3.16-1.379-6.9-1.379-11.221s0.459-8.066,1.379-11.238
			c0.919-3.171,2.183-5.797,3.792-7.877c1.608-2.079,3.499-3.625,5.671-4.636c2.171-1.011,4.521-1.517,7.049-1.517
			c2.504,0,4.854,0.506,7.049,1.517c2.194,1.011,4.096,2.557,5.705,4.636c1.608,2.08,2.878,4.706,3.809,7.877
			C402.963,125.355,403.429,129.102,403.429,133.422z M397.051,133.422c0-3.77-0.316-6.935-0.948-9.497
			c-0.632-2.562-1.482-4.624-2.551-6.188c-1.069-1.563-2.304-2.683-3.706-3.361c-1.402-0.677-2.861-1.017-4.378-1.017
			s-2.977,0.34-4.378,1.017c-1.402,0.679-2.632,1.798-3.688,3.361c-1.057,1.563-1.902,3.625-2.534,6.188
			c-0.632,2.562-0.948,5.728-0.948,9.497s0.315,6.928,0.948,9.479c0.632,2.551,1.477,4.607,2.534,6.17
			c1.057,1.563,2.287,2.684,3.688,3.361c1.401,0.679,2.861,1.017,4.378,1.017s2.976-0.338,4.378-1.017
			c1.401-0.678,2.637-1.798,3.706-3.361c1.068-1.562,1.918-3.619,2.551-6.17C396.735,140.35,397.051,137.191,397.051,133.422z"/>
		<path fill="#FFFFFF" d="M447.654,129.389c-0.185,0.253-0.368,0.447-0.552,0.586c-0.184,0.138-0.448,0.207-0.793,0.207
			s-0.718-0.144-1.12-0.432c-0.402-0.287-0.913-0.604-1.534-0.947c-0.62-0.346-1.373-0.66-2.258-0.948
			c-0.885-0.287-1.971-0.431-3.257-0.431c-1.701,0-3.206,0.305-4.517,0.913c-1.31,0.609-2.407,1.488-3.292,2.638
			c-0.885,1.148-1.551,2.539-1.999,4.17c-0.448,1.633-0.672,3.459-0.672,5.481c0,2.114,0.241,3.993,0.724,5.636
			c0.482,1.644,1.16,3.022,2.034,4.137c0.873,1.115,1.936,1.965,3.188,2.551c1.252,0.586,2.659,0.879,4.223,0.879
			c1.493,0,2.723-0.178,3.688-0.533c0.965-0.356,1.77-0.753,2.413-1.189c0.643-0.437,1.172-0.833,1.585-1.189
			c0.414-0.356,0.828-0.535,1.241-0.535c0.528,0,0.919,0.196,1.172,0.586l1.724,2.241c-1.517,1.861-3.412,3.224-5.688,4.085
			s-4.677,1.293-7.204,1.293c-2.184,0-4.212-0.402-6.085-1.207c-1.873-0.804-3.498-1.971-4.877-3.498
			c-1.379-1.529-2.465-3.407-3.258-5.637c-0.793-2.229-1.189-4.768-1.189-7.618c0-2.597,0.362-4.998,1.086-7.204
			c0.724-2.207,1.78-4.107,3.171-5.705s3.108-2.844,5.154-3.74c2.045-0.896,4.389-1.345,7.032-1.345c2.436,0,4.596,0.396,6.48,1.189
			c1.884,0.793,3.55,1.913,4.998,3.36L447.654,129.389z"/>
		<path fill="#FFFFFF" d="M481.678,158.104h-2.724c-0.598,0-1.08-0.092-1.447-0.276c-0.368-0.184-0.609-0.574-0.725-1.172
			l-0.689-3.24c-0.919,0.827-1.815,1.568-2.688,2.224c-0.873,0.654-1.792,1.206-2.758,1.654c-0.965,0.448-1.994,0.787-3.085,1.018
			c-1.092,0.229-2.304,0.344-3.637,0.344c-1.356,0-2.626-0.19-3.81-0.57s-2.212-0.951-3.085-1.712s-1.568-1.724-2.085-2.889
			c-0.518-1.165-0.776-2.542-0.776-4.134c0-1.383,0.38-2.715,1.138-3.994c0.759-1.28,1.982-2.416,3.672-3.408
			c1.688-0.991,3.9-1.804,6.636-2.438c2.734-0.634,6.078-0.951,10.031-0.951v-2.74c0-2.729-0.581-4.792-1.741-6.191
			c-1.161-1.399-2.878-2.099-5.153-2.099c-1.494,0-2.753,0.189-3.774,0.568c-1.023,0.379-1.908,0.805-2.654,1.275
			c-0.747,0.471-1.391,0.896-1.931,1.275s-1.074,0.568-1.603,0.568c-0.414,0-0.776-0.108-1.086-0.327
			c-0.311-0.218-0.558-0.487-0.741-0.81l-1.104-1.965c1.931-1.861,4.01-3.252,6.239-4.172c2.229-0.918,4.699-1.379,7.411-1.379
			c1.953,0,3.688,0.322,5.205,0.966c1.518,0.644,2.793,1.54,3.827,2.688c1.034,1.149,1.814,2.539,2.344,4.172
			c0.528,1.631,0.793,3.424,0.793,5.377V158.104z M465.752,154.346c1.08,0,2.068-0.109,2.965-0.328
			c0.896-0.218,1.74-0.527,2.533-0.93s1.551-0.891,2.275-1.465c0.724-0.574,1.431-1.23,2.12-1.965v-7.205
			c-2.827,0-5.229,0.18-7.205,0.537c-1.977,0.359-3.585,0.827-4.826,1.404c-1.24,0.578-2.143,1.26-2.706,2.046
			s-0.844,1.664-0.844,2.635c0,0.925,0.148,1.723,0.447,2.393c0.299,0.671,0.701,1.22,1.207,1.647
			c0.505,0.428,1.103,0.74,1.792,0.936C464.2,154.248,464.947,154.346,465.752,154.346z"/>
		<path fill="#FFFFFF" d="M497.81,107.326v50.777h-6.136v-50.777H497.81z"/>
	</g>
	<g>
		<path fill="#FFFFFF" d="M309.135,718.663c-0.115,0.115-0.224,0.212-0.328,0.293c-0.103,0.08-0.247,0.12-0.431,0.12
			c-0.23,0-0.546-0.155-0.948-0.465c-0.402-0.311-0.937-0.649-1.603-1.018c-0.667-0.367-1.5-0.706-2.5-1.017
			c-1-0.311-2.212-0.466-3.637-0.466c-1.977,0-3.729,0.351-5.257,1.052s-2.815,1.706-3.861,3.017
			c-1.046,1.31-1.844,2.896-2.396,4.757c-0.552,1.861-0.827,3.953-0.827,6.273c0,2.413,0.281,4.551,0.844,6.412
			c0.563,1.861,1.362,3.43,2.396,4.705s2.286,2.247,3.757,2.913c1.47,0.667,3.103,0.999,4.895,0.999
			c1.654,0,3.039-0.194,4.154-0.586c1.114-0.39,2.034-0.815,2.757-1.275c0.724-0.459,1.298-0.884,1.724-1.275
			c0.425-0.391,0.764-0.586,1.017-0.586c0.298,0,0.528,0.115,0.689,0.345l0.896,1.104c-0.529,0.689-1.195,1.333-1.999,1.93
			c-0.805,0.599-1.712,1.115-2.724,1.552s-2.108,0.775-3.292,1.017s-2.419,0.362-3.706,0.362c-2.184,0-4.177-0.396-5.98-1.189
			c-1.805-0.793-3.356-1.941-4.654-3.447c-1.299-1.505-2.31-3.349-3.034-5.532c-0.724-2.184-1.085-4.665-1.085-7.446
			c0-2.619,0.345-5.01,1.034-7.17c0.689-2.16,1.695-4.021,3.017-5.584c1.321-1.562,2.941-2.775,4.86-3.637
			c1.918-0.862,4.119-1.293,6.601-1.293c2.229,0,4.211,0.356,5.946,1.068c1.735,0.713,3.246,1.678,4.533,2.896L309.135,718.663z"/>
		<path fill="#FFFFFF" d="M339.813,748.377c-0.689,0-1.115-0.321-1.275-0.965l-0.482-4.378c-0.943,0.919-1.879,1.746-2.81,2.481
			c-0.931,0.736-1.902,1.356-2.913,1.861c-1.011,0.506-2.103,0.892-3.274,1.155c-1.172,0.264-2.459,0.396-3.861,0.396
			c-1.172,0-2.31-0.173-3.413-0.518s-2.08-0.873-2.93-1.585c-0.851-0.713-1.534-1.626-2.051-2.741
			c-0.517-1.114-0.775-2.452-0.775-4.016c0-1.448,0.414-2.792,1.241-4.033c0.828-1.241,2.12-2.321,3.878-3.24
			c1.758-0.919,4.021-1.654,6.791-2.206c2.769-0.552,6.096-0.873,9.979-0.965v-3.586c0-3.171-0.684-5.612-2.051-7.325
			c-1.368-1.711-3.396-2.567-6.084-2.567c-1.654,0-3.062,0.229-4.223,0.689c-1.161,0.46-2.143,0.965-2.947,1.517
			c-0.805,0.552-1.459,1.058-1.965,1.517c-0.506,0.46-0.931,0.689-1.275,0.689c-0.46,0-0.805-0.207-1.034-0.62l-0.586-1
			c1.792-1.793,3.676-3.148,5.653-4.067c1.976-0.919,4.217-1.379,6.722-1.379c1.838,0,3.447,0.293,4.826,0.879
			s2.521,1.425,3.43,2.517c0.908,1.092,1.591,2.413,2.051,3.964c0.459,1.551,0.689,3.28,0.689,5.188v22.338H339.813z
			 M326.025,746.55c1.333,0,2.556-0.144,3.671-0.431c1.114-0.287,2.148-0.689,3.103-1.207c0.953-0.517,1.844-1.131,2.671-1.844
			c0.827-0.712,1.643-1.482,2.447-2.31v-8.928c-3.263,0.092-6.073,0.339-8.428,0.741c-2.356,0.402-4.297,0.947-5.826,1.637
			s-2.654,1.512-3.378,2.465c-0.724,0.954-1.086,2.04-1.086,3.258c0,1.149,0.189,2.143,0.569,2.981
			c0.379,0.839,0.879,1.528,1.5,2.068c0.62,0.54,1.344,0.937,2.171,1.189C324.267,746.424,325.129,746.55,326.025,746.55z"/>
		<path fill="#FFFFFF" d="M355.705,698.221v50.156h-3.275v-50.156H355.705z"/>
		<path fill="#FFFFFF" d="M380.902,713.526c2.459,0,4.659,0.42,6.602,1.258c1.941,0.84,3.579,2.029,4.912,3.568
			c1.333,1.54,2.349,3.396,3.051,5.567c0.701,2.171,1.051,4.602,1.051,7.29c0,2.689-0.351,5.114-1.051,7.273
			c-0.702,2.161-1.718,4.011-3.051,5.55c-1.333,1.54-2.971,2.724-4.912,3.551c-1.942,0.827-4.143,1.241-6.602,1.241
			c-2.459,0-4.66-0.414-6.601-1.241c-1.942-0.827-3.585-2.011-4.93-3.551c-1.344-1.539-2.367-3.389-3.068-5.55
			c-0.701-2.159-1.051-4.584-1.051-7.273c0-2.688,0.35-5.119,1.051-7.29c0.701-2.172,1.724-4.027,3.068-5.567
			c1.345-1.539,2.987-2.729,4.93-3.568C376.243,713.946,378.443,713.526,380.902,713.526z M380.902,746.239
			c2.045,0,3.832-0.35,5.36-1.051c1.528-0.701,2.804-1.706,3.826-3.017c1.022-1.31,1.787-2.89,2.292-4.739
			c0.505-1.85,0.758-3.924,0.758-6.223c0-2.274-0.253-4.343-0.758-6.204c-0.506-1.862-1.27-3.453-2.292-4.774
			s-2.298-2.339-3.826-3.051c-1.529-0.712-3.315-1.069-5.36-1.069s-3.832,0.357-5.36,1.069s-2.804,1.729-3.826,3.051
			c-1.023,1.321-1.792,2.912-2.31,4.774c-0.517,1.861-0.775,3.93-0.775,6.204c0,2.299,0.258,4.373,0.775,6.223
			s1.287,3.43,2.31,4.739c1.022,1.311,2.298,2.315,3.826,3.017S378.857,746.239,380.902,746.239z"/>
		<path fill="#FFFFFF" d="M405.135,748.377v-34.299h1.723c0.391,0,0.674,0.081,0.846,0.241c0.172,0.161,0.27,0.437,0.293,0.827
			l0.275,7.239c1.104-2.78,2.574-4.958,4.412-6.532s4.102-2.361,6.791-2.361c1.035,0,1.988,0.109,2.861,0.327
			c0.873,0.219,1.701,0.534,2.482,0.948l-0.449,2.275c-0.068,0.367-0.299,0.551-0.689,0.551c-0.137,0-0.332-0.046-0.586-0.138
			c-0.252-0.092-0.568-0.195-0.947-0.311c-0.379-0.114-0.846-0.218-1.396-0.31s-1.184-0.138-1.896-0.138
			c-2.596,0-4.729,0.805-6.395,2.412c-1.666,1.609-3.016,3.93-4.049,6.964v22.303H405.135z"/>
		<path fill="#FFFFFF" d="M438.192,702.254c0,0.414-0.087,0.799-0.259,1.155c-0.173,0.356-0.396,0.672-0.672,0.948
			c-0.276,0.275-0.599,0.494-0.966,0.654c-0.367,0.161-0.758,0.241-1.172,0.241c-0.413,0-0.805-0.08-1.172-0.241
			c-0.368-0.16-0.689-0.379-0.965-0.654c-0.276-0.276-0.495-0.592-0.655-0.948c-0.161-0.356-0.241-0.741-0.241-1.155
			c0-0.413,0.08-0.81,0.241-1.188c0.16-0.38,0.379-0.707,0.655-0.982c0.275-0.276,0.597-0.494,0.965-0.655
			c0.367-0.16,0.759-0.241,1.172-0.241c0.414,0,0.805,0.081,1.172,0.241c0.367,0.161,0.689,0.379,0.966,0.655
			c0.275,0.275,0.499,0.603,0.672,0.982C438.105,701.444,438.192,701.841,438.192,702.254z M436.744,714.078v34.299h-3.274v-34.299
			H436.744z"/>
		<path fill="#FFFFFF" d="M461.804,713.526c1.931,0,3.718,0.333,5.36,1c1.644,0.667,3.068,1.637,4.274,2.912
			c1.207,1.275,2.148,2.845,2.827,4.706c0.678,1.861,1.017,3.998,1.017,6.411c0,0.506-0.074,0.851-0.224,1.034
			c-0.149,0.185-0.385,0.276-0.706,0.276h-24.751v0.654c0,2.574,0.298,4.838,0.896,6.791c0.598,1.954,1.448,3.591,2.552,4.912
			c1.103,1.322,2.436,2.315,3.998,2.982c1.562,0.666,3.31,0.999,5.24,0.999c1.724,0,3.217-0.189,4.48-0.568
			c1.264-0.38,2.327-0.805,3.189-1.275c0.861-0.471,1.545-0.896,2.051-1.275c0.505-0.38,0.873-0.569,1.103-0.569
			c0.299,0,0.528,0.115,0.689,0.345l0.896,1.104c-0.552,0.689-1.281,1.333-2.188,1.93c-0.908,0.599-1.92,1.109-3.034,1.534
			c-1.114,0.426-2.31,0.765-3.585,1.018c-1.275,0.252-2.557,0.379-3.844,0.379c-2.344,0-4.48-0.408-6.411-1.224
			s-3.587-2.005-4.97-3.568c-1.382-1.562-2.451-3.476-3.205-5.739c-0.756-2.263-1.133-4.854-1.133-7.773
			c0-2.458,0.351-4.728,1.052-6.808c0.7-2.08,1.712-3.872,3.033-5.378c1.321-1.505,2.941-2.683,4.86-3.533
			C457.19,713.952,459.368,713.526,461.804,713.526z M461.854,715.974c-1.767,0-3.351,0.276-4.75,0.827
			c-1.399,0.552-2.61,1.345-3.631,2.379c-1.021,1.034-1.848,2.275-2.479,3.723c-0.631,1.448-1.05,3.068-1.256,4.86h22.578
			c0-1.838-0.252-3.486-0.757-4.946c-0.505-1.459-1.216-2.694-2.134-3.706c-0.918-1.011-2.02-1.786-3.305-2.326
			S463.414,715.974,461.854,715.974z"/>
		<path fill="#FFFFFF" d="M502.996,718.353c-0.161,0.322-0.414,0.482-0.759,0.482c-0.253,0-0.58-0.144-0.982-0.431
			s-0.931-0.608-1.585-0.966c-0.655-0.355-1.46-0.677-2.413-0.965c-0.954-0.287-2.12-0.431-3.499-0.431
			c-1.241,0-2.373,0.178-3.396,0.533s-1.896,0.831-2.62,1.427c-0.724,0.596-1.287,1.289-1.688,2.079
			c-0.402,0.791-0.604,1.622-0.604,2.493c0,1.077,0.275,1.972,0.827,2.682c0.552,0.711,1.275,1.317,2.172,1.821
			c0.896,0.505,1.913,0.94,3.051,1.307c1.138,0.367,2.304,0.734,3.499,1.102c1.194,0.368,2.361,0.776,3.499,1.224
			c1.137,0.448,2.154,1.006,3.051,1.672c0.896,0.667,1.62,1.482,2.171,2.448c0.552,0.965,0.827,2.137,0.827,3.516
			c0,1.494-0.27,2.885-0.81,4.171c-0.54,1.287-1.322,2.402-2.344,3.344c-1.023,0.942-2.281,1.689-3.775,2.241
			c-1.494,0.551-3.194,0.827-5.102,0.827c-2.413,0-4.493-0.386-6.239-1.155s-3.309-1.775-4.688-3.016l0.792-1.173
			c0.115-0.184,0.242-0.321,0.38-0.413s0.333-0.138,0.586-0.138c0.298,0,0.666,0.184,1.103,0.551
			c0.437,0.368,1.006,0.765,1.707,1.189c0.7,0.426,1.573,0.822,2.619,1.189c1.046,0.368,2.339,0.552,3.878,0.552
			c1.448,0,2.724-0.201,3.827-0.604c1.103-0.401,2.021-0.948,2.758-1.638c0.734-0.689,1.292-1.499,1.671-2.43
			c0.38-0.931,0.569-1.913,0.569-2.947c0-1.149-0.275-2.103-0.827-2.861c-0.552-0.758-1.275-1.401-2.172-1.931
			c-0.896-0.528-1.913-0.977-3.051-1.344s-2.31-0.735-3.516-1.104c-1.207-0.367-2.379-0.77-3.517-1.206s-2.154-0.988-3.051-1.655
			c-0.896-0.666-1.62-1.476-2.172-2.43c-0.551-0.953-0.827-2.143-0.827-3.568c0-1.218,0.264-2.39,0.793-3.516
			c0.528-1.126,1.281-2.114,2.258-2.965c0.977-0.85,2.166-1.527,3.567-2.033c1.402-0.506,2.977-0.759,4.723-0.759
			c2.091,0,3.947,0.304,5.567,0.908c1.62,0.606,3.108,1.533,4.464,2.78L502.996,718.353z"/>
	</g>
	<path opacity="0.2" fill="#F3F2F2" d="M683,466.02c0,12.691-10.289,22.512-22.982,22.512H130.982
		c-12.693,0-22.982-9.82-22.982-22.512V396.98c0-12.691,10.29-23.449,22.982-23.449h529.035c12.693,0,22.982,10.758,22.982,23.449
		V466.02z"/>
	<g>
		<path fill="#FFFFFF" d="M160.142,452.269c1.066,0,2.045-0.05,2.937-0.151c0.892-0.101,1.733-0.253,2.523-0.455
			s1.535-0.445,2.234-0.73c0.698-0.285,1.397-0.611,2.096-0.979v-8.714h-6.122c-0.35,0-0.63-0.102-0.841-0.304
			s-0.317-0.45-0.317-0.745v-3.033h12.134v15.168c-0.993,0.717-2.027,1.342-3.102,1.875c-1.076,0.533-2.225,0.979-3.447,1.338
			c-1.223,0.358-2.533,0.624-3.93,0.8c-1.397,0.174-2.914,0.262-4.55,0.262c-2.868,0-5.498-0.492-7.887-1.476
			c-2.39-0.983-4.449-2.362-6.177-4.137c-1.728-1.773-3.075-3.902-4.04-6.384s-1.448-5.212-1.448-8.19
			c0-3.016,0.473-5.764,1.42-8.246c0.946-2.481,2.298-4.609,4.054-6.384c1.755-1.774,3.879-3.147,6.37-4.122s5.281-1.462,8.37-1.462
			c1.562,0,3.015,0.114,4.357,0.345c1.342,0.23,2.587,0.561,3.737,0.992c1.148,0.433,2.21,0.957,3.185,1.572
			c0.974,0.616,1.884,1.311,2.73,2.082l-1.517,2.427c-0.313,0.497-0.717,0.745-1.213,0.745c-0.294,0-0.616-0.102-0.965-0.304
			c-0.46-0.257-0.975-0.569-1.544-0.938s-1.264-0.722-2.082-1.062c-0.818-0.34-1.783-0.63-2.896-0.869
			c-1.113-0.238-2.432-0.358-3.958-0.358c-2.225,0-4.238,0.363-6.039,1.089c-1.802,0.727-3.337,1.766-4.605,3.117
			c-1.269,1.351-2.243,2.987-2.923,4.908c-0.68,1.922-1.02,4.077-1.02,6.467c0,2.5,0.354,4.729,1.062,6.688
			c0.708,1.958,1.705,3.617,2.992,4.978c1.287,1.36,2.813,2.399,4.578,3.116C156.06,451.91,158.008,452.269,160.142,452.269z"/>
		<path fill="#FFFFFF" d="M182.23,456.157v-27.936h2.813c0.533,0,0.9,0.101,1.103,0.304c0.202,0.202,0.34,0.551,0.414,1.047
			l0.331,4.357c0.956-1.948,2.137-3.47,3.543-4.563s3.056-1.642,4.95-1.642c0.772,0,1.471,0.088,2.096,0.263
			s1.204,0.419,1.737,0.731l-0.634,3.667c-0.129,0.46-0.414,0.689-0.855,0.689c-0.257,0-0.653-0.087-1.186-0.263
			c-0.534-0.174-1.278-0.262-2.234-0.262c-1.71,0-3.14,0.497-4.288,1.49c-1.149,0.992-2.11,2.436-2.882,4.329v17.787H182.23z"/>
		<path fill="#FFFFFF" d="M223.927,456.157h-2.178c-0.479,0-0.865-0.073-1.159-0.221c-0.294-0.146-0.487-0.459-0.579-0.938
			l-0.551-2.592c-0.735,0.661-1.453,1.254-2.151,1.778c-0.699,0.523-1.434,0.965-2.207,1.323c-0.772,0.358-1.595,0.63-2.468,0.813
			c-0.874,0.184-1.844,0.276-2.91,0.276c-1.085,0-2.101-0.152-3.047-0.456c-0.947-0.305-1.77-0.762-2.468-1.37
			c-0.699-0.609-1.255-1.38-1.668-2.311c-0.414-0.932-0.621-2.034-0.621-3.308c0-1.105,0.303-2.172,0.91-3.195
			c0.606-1.023,1.585-1.933,2.937-2.727c1.351-0.793,3.12-1.443,5.309-1.951c2.188-0.506,4.862-0.76,8.025-0.76v-2.193
			c0-2.183-0.465-3.833-1.393-4.953c-0.929-1.119-2.303-1.679-4.123-1.679c-1.195,0-2.202,0.151-3.02,0.455
			c-0.818,0.304-1.526,0.644-2.124,1.021c-0.598,0.377-1.113,0.717-1.544,1.02c-0.432,0.305-0.859,0.455-1.282,0.455
			c-0.331,0-0.621-0.086-0.869-0.262c-0.248-0.174-0.446-0.391-0.593-0.648l-0.883-1.571c1.544-1.489,3.208-2.601,4.992-3.337
			c1.783-0.734,3.759-1.104,5.929-1.104c1.562,0,2.951,0.258,4.164,0.773c1.213,0.514,2.233,1.231,3.061,2.15
			c0.827,0.92,1.452,2.031,1.875,3.337s0.634,2.739,0.634,4.302V456.157z M211.187,453.151c0.864,0,1.654-0.087,2.372-0.262
			c0.717-0.175,1.393-0.423,2.027-0.745c0.634-0.321,1.241-0.712,1.82-1.172c0.579-0.459,1.145-0.983,1.696-1.572v-5.764
			c-2.262,0-4.183,0.145-5.764,0.431c-1.582,0.286-2.868,0.661-3.861,1.123s-1.714,1.008-2.165,1.637s-0.675,1.331-0.675,2.108
			c0,0.739,0.119,1.377,0.358,1.914c0.239,0.536,0.561,0.975,0.965,1.317c0.404,0.342,0.882,0.592,1.434,0.749
			C209.945,453.073,210.542,453.151,211.187,453.151z"/>
		<path fill="#FFFFFF" d="M231.372,456.157v-27.936h2.923c0.699,0,1.14,0.341,1.324,1.021l0.386,3.033
			c1.213-1.342,2.569-2.427,4.068-3.254c1.498-0.828,3.23-1.241,5.198-1.241c1.525,0,2.872,0.253,4.04,0.759
			c1.167,0.506,2.141,1.223,2.923,2.15c0.781,0.929,1.374,2.046,1.779,3.352c0.404,1.305,0.607,2.748,0.607,4.329v17.787h-4.909
			V438.37c0-2.114-0.483-3.755-1.448-4.923c-0.965-1.167-2.44-1.751-4.426-1.751c-1.453,0-2.809,0.35-4.068,1.048
			c-1.259,0.699-2.422,1.646-3.488,2.841v20.572H231.372z"/>
		<path fill="#FFFFFF" d="M273.344,427.78c2.041,0,3.883,0.341,5.529,1.021c1.645,0.68,3.042,1.646,4.191,2.896
			c1.149,1.251,2.031,2.763,2.647,4.536c0.616,1.775,0.924,3.756,0.924,5.943c0,2.206-0.308,4.191-0.924,5.957
			c-0.616,1.765-1.499,3.272-2.647,4.522s-2.546,2.211-4.191,2.882c-1.646,0.671-3.489,1.006-5.529,1.006
			c-2.041,0-3.884-0.335-5.529-1.006c-1.646-0.671-3.047-1.632-4.206-2.882s-2.05-2.758-2.675-4.522
			c-0.625-1.766-0.938-3.751-0.938-5.957c0-2.188,0.312-4.168,0.938-5.943c0.625-1.773,1.517-3.285,2.675-4.536
			c1.158-1.25,2.56-2.216,4.206-2.896C269.46,428.121,271.303,427.78,273.344,427.78z M273.344,452.71
			c2.757,0,4.816-0.924,6.177-2.771c1.36-1.848,2.041-4.426,2.041-7.735c0-3.327-0.68-5.92-2.041-7.777
			c-1.361-1.855-3.42-2.785-6.177-2.785c-1.397,0-2.611,0.24-3.64,0.718c-1.03,0.478-1.889,1.167-2.579,2.067
			c-0.689,0.902-1.205,2.01-1.544,3.324c-0.34,1.314-0.51,2.799-0.51,4.453s0.17,3.135,0.51,4.439
			c0.34,1.307,0.855,2.404,1.544,3.296s1.549,1.577,2.579,2.055C270.733,452.472,271.947,452.71,273.344,452.71z"/>
		<path fill="#FFFFFF" d="M298.163,415.536v40.621h-4.909v-40.621H298.163z"/>
		<path fill="#FFFFFF" d="M327.339,456.157h-2.178c-0.479,0-0.865-0.073-1.159-0.221c-0.294-0.146-0.487-0.459-0.579-0.938
			l-0.551-2.592c-0.735,0.661-1.453,1.254-2.151,1.778c-0.699,0.523-1.434,0.965-2.207,1.323c-0.772,0.358-1.595,0.63-2.468,0.813
			c-0.874,0.184-1.844,0.276-2.91,0.276c-1.085,0-2.101-0.152-3.047-0.456c-0.947-0.305-1.77-0.762-2.468-1.37
			c-0.699-0.609-1.255-1.38-1.668-2.311c-0.414-0.932-0.621-2.034-0.621-3.308c0-1.105,0.303-2.172,0.91-3.195
			c0.606-1.023,1.585-1.933,2.937-2.727c1.351-0.793,3.12-1.443,5.309-1.951c2.188-0.506,4.862-0.76,8.025-0.76v-2.193
			c0-2.183-0.465-3.833-1.393-4.953c-0.929-1.119-2.303-1.679-4.123-1.679c-1.195,0-2.202,0.151-3.02,0.455
			c-0.818,0.304-1.526,0.644-2.124,1.021c-0.598,0.377-1.113,0.717-1.544,1.02c-0.432,0.305-0.859,0.455-1.282,0.455
			c-0.331,0-0.621-0.086-0.869-0.262c-0.248-0.174-0.446-0.391-0.593-0.648l-0.883-1.571c1.544-1.489,3.208-2.601,4.992-3.337
			c1.783-0.734,3.759-1.104,5.929-1.104c1.562,0,2.951,0.258,4.164,0.773c1.213,0.514,2.233,1.231,3.061,2.15
			c0.827,0.92,1.452,2.031,1.875,3.337s0.634,2.739,0.634,4.302V456.157z M314.599,453.151c0.864,0,1.654-0.087,2.372-0.262
			c0.717-0.175,1.393-0.423,2.027-0.745c0.634-0.321,1.241-0.712,1.82-1.172c0.579-0.459,1.145-0.983,1.696-1.572v-5.764
			c-2.262,0-4.183,0.145-5.764,0.431c-1.582,0.286-2.868,0.661-3.861,1.123s-1.714,1.008-2.165,1.637s-0.675,1.331-0.675,2.108
			c0,0.739,0.119,1.377,0.358,1.914c0.239,0.536,0.561,0.975,0.965,1.317c0.404,0.342,0.882,0.592,1.434,0.749
			C313.358,453.073,313.955,453.151,314.599,453.151z"/>
	</g>
	<path opacity="0.2" fill="#F3F2F2" d="M683,341.166c0,12.691-10.443,22.365-23.137,22.365H131.138
		c-12.693,0-23.138-9.674-23.138-22.365v-69.178c0-12.692,10.444-23.457,23.138-23.457h528.726
		c12.693,0,23.137,10.765,23.137,23.457V341.166z"/>
	<g>
		<path fill="#FFFFFF" d="M562.397,450.643h7.722v-20.27c0-0.992,0.027-2.031,0.083-3.116l-4.551,3.778
			c-0.294,0.238-0.588,0.409-0.882,0.51c-0.295,0.102-0.579,0.152-0.855,0.152c-0.478,0-0.905-0.106-1.282-0.318
			c-0.377-0.211-0.657-0.436-0.841-0.676l-2.702-3.584l12.52-10.508h7.06v34.031h6.619v6.177h-22.89V450.643z"/>
		<path fill="#FFFFFF" d="M604.038,416.198c1.985,0,3.773,0.29,5.363,0.868c1.59,0.58,2.946,1.385,4.068,2.414
			c1.121,1.029,1.98,2.256,2.578,3.682c0.597,1.424,0.896,2.992,0.896,4.701c0,1.471-0.207,2.832-0.621,4.082
			c-0.413,1.25-0.979,2.439-1.695,3.57c-0.718,1.131-1.55,2.225-2.496,3.282c-0.947,1.058-1.954,2.128-3.02,3.212l-7.859,8.053
			c1.011-0.293,2.008-0.527,2.992-0.703c0.983-0.174,1.907-0.262,2.771-0.262h7.501c0.919,0,1.645,0.253,2.179,0.758
			c0.532,0.506,0.799,1.173,0.799,2v4.964h-28.238v-2.758c0-0.533,0.11-1.103,0.331-1.71c0.221-0.606,0.606-1.158,1.158-1.654
			l11.582-11.665c0.993-0.993,1.856-1.939,2.592-2.841c0.735-0.9,1.342-1.787,1.82-2.661c0.479-0.872,0.837-1.746,1.076-2.62
			c0.238-0.873,0.358-1.797,0.358-2.771c0-1.6-0.382-2.826-1.145-3.682c-0.764-0.854-1.927-1.281-3.488-1.281
			c-0.645,0-1.232,0.092-1.766,0.275s-1.011,0.432-1.434,0.744s-0.786,0.681-1.09,1.104c-0.303,0.423-0.547,0.883-0.73,1.379
			c-0.294,0.827-0.667,1.425-1.117,1.793c-0.45,0.367-1.062,0.551-1.834,0.551c-0.184,0-0.381-0.009-0.593-0.027
			c-0.211-0.018-0.427-0.046-0.647-0.083l-4.522-0.8c0.293-2.004,0.858-3.75,1.695-5.239s1.875-2.73,3.116-3.724
			c1.241-0.992,2.661-1.732,4.261-2.219C600.48,416.442,602.199,416.198,604.038,416.198z"/>
		<path fill="#FFFFFF" d="M650.312,436.716c0,3.512-0.377,6.554-1.131,9.128s-1.798,4.707-3.13,6.397
			c-1.333,1.692-2.914,2.951-4.743,3.778c-1.83,0.827-3.811,1.241-5.943,1.241s-4.104-0.414-5.915-1.241
			c-1.812-0.827-3.378-2.086-4.702-3.778c-1.323-1.69-2.357-3.823-3.103-6.397c-0.744-2.574-1.116-5.616-1.116-9.128
			s0.372-6.554,1.116-9.128c0.745-2.574,1.779-4.707,3.103-6.398c1.324-1.691,2.891-2.945,4.702-3.764
			c1.811-0.818,3.782-1.228,5.915-1.228s4.113,0.409,5.943,1.228c1.829,0.818,3.41,2.072,4.743,3.764
			c1.332,1.691,2.376,3.824,3.13,6.398S650.312,433.204,650.312,436.716z M641.486,436.716c0-2.776-0.175-5.052-0.523-6.825
			c-0.35-1.774-0.813-3.167-1.393-4.178c-0.579-1.012-1.237-1.705-1.973-2.082s-1.479-0.566-2.233-0.566s-1.494,0.189-2.22,0.566
			c-0.727,0.377-1.37,1.07-1.931,2.082c-0.561,1.011-1.011,2.403-1.352,4.178c-0.34,1.773-0.51,4.049-0.51,6.825
			c0,2.794,0.17,5.074,0.51,6.839c0.341,1.766,0.791,3.158,1.352,4.178c0.561,1.021,1.204,1.72,1.931,2.096
			c0.726,0.377,1.466,0.566,2.22,0.566s1.498-0.189,2.233-0.566c0.735-0.376,1.394-1.075,1.973-2.096
			c0.579-1.02,1.043-2.412,1.393-4.178C641.312,441.79,641.486,439.51,641.486,436.716z"/>
	</g>
	
		<line fill="none" stroke="#FFFFFF" stroke-width="4" stroke-linecap="round" stroke-miterlimit="10" x1="396" y1="530.531" x2="396" y2="587.531"/>
	
		<line fill="none" stroke="#FFFFFF" stroke-width="4" stroke-linecap="round" stroke-miterlimit="10" x1="368" y1="559.531" x2="425" y2="559.531"/>
	<g>
		<circle fill="none" stroke="#FFFFFF" stroke-width="4" stroke-miterlimit="10" cx="382.107" cy="647.787" r="7.688"/>
		<circle fill="none" stroke="#FFFFFF" stroke-width="4" stroke-miterlimit="10" cx="412.047" cy="656.283" r="12.947"/>
		<circle fill="none" stroke="#FFFFFF" stroke-width="4" stroke-miterlimit="10" cx="382.916" cy="680.964" r="16.588"/>
	</g>
	<g>
		<path fill="#FFFFFF" d="M162.761,294.799c-0.166,0.275-0.34,0.482-0.524,0.621c-0.184,0.137-0.423,0.207-0.717,0.207
			c-0.312,0-0.675-0.156-1.089-0.47c-0.414-0.312-0.938-0.657-1.572-1.034s-1.397-0.721-2.289-1.033
			c-0.892-0.312-1.972-0.47-3.241-0.47c-1.195,0-2.252,0.161-3.171,0.483c-0.92,0.321-1.687,0.758-2.303,1.31
			c-0.616,0.552-1.081,1.199-1.393,1.944c-0.312,0.744-0.469,1.549-0.469,2.412c0,1.104,0.271,2.019,0.813,2.744
			c0.542,0.727,1.259,1.348,2.151,1.861c0.892,0.516,1.903,0.961,3.033,1.338c1.131,0.377,2.289,0.768,3.475,1.172
			c1.186,0.404,2.344,0.859,3.475,1.365c1.13,0.506,2.142,1.145,3.033,1.916c0.892,0.773,1.609,1.72,2.151,2.841
			c0.542,1.122,0.813,2.501,0.813,4.137c0,1.729-0.294,3.351-0.883,4.867s-1.448,2.837-2.578,3.958
			c-1.131,1.121-2.519,2.004-4.164,2.646c-1.646,0.644-3.516,0.966-5.612,0.966c-2.556,0-4.886-0.464-6.991-1.393
			c-2.105-0.929-3.902-2.183-5.391-3.765l1.544-2.537c0.147-0.202,0.327-0.372,0.538-0.51c0.211-0.139,0.445-0.207,0.703-0.207
			c0.386,0,0.827,0.207,1.324,0.621c0.497,0.413,1.117,0.868,1.861,1.364c0.745,0.497,1.645,0.952,2.703,1.365
			c1.057,0.413,2.348,0.62,3.875,0.62c1.269,0,2.399-0.174,3.392-0.523s1.834-0.842,2.523-1.476s1.218-1.393,1.585-2.274
			c0.368-0.883,0.552-1.866,0.552-2.951c0-1.195-0.271-2.174-0.813-2.938c-0.542-0.762-1.255-1.401-2.137-1.916
			c-0.883-0.515-1.889-0.951-3.02-1.311c-1.13-0.358-2.289-0.726-3.475-1.103s-2.344-0.813-3.475-1.31
			c-1.131-0.497-2.137-1.141-3.02-1.932c-0.882-0.789-1.595-1.777-2.137-2.964c-0.542-1.186-0.813-2.651-0.813-4.398
			c0-1.397,0.271-2.749,0.813-4.054s1.328-2.463,2.358-3.475s2.303-1.82,3.819-2.428c1.517-0.605,3.259-0.909,5.226-0.909
			c2.206,0,4.219,0.349,6.04,1.048c1.82,0.699,3.41,1.709,4.771,3.033L162.761,294.799z"/>
		<path fill="#FFFFFF" d="M191.496,328.14h-2.178c-0.479,0-0.865-0.073-1.159-0.221s-0.487-0.46-0.579-0.938l-0.551-2.593
			c-0.735,0.662-1.453,1.256-2.151,1.779c-0.699,0.523-1.434,0.965-2.207,1.324c-0.772,0.357-1.595,0.629-2.468,0.812
			c-0.874,0.184-1.844,0.276-2.91,0.276c-1.085,0-2.101-0.153-3.047-0.456c-0.947-0.305-1.77-0.762-2.468-1.37
			c-0.699-0.608-1.255-1.38-1.668-2.312s-0.621-2.033-0.621-3.307c0-1.105,0.303-2.172,0.91-3.195
			c0.606-1.023,1.585-1.933,2.937-2.727c1.351-0.793,3.12-1.443,5.309-1.951c2.188-0.506,4.862-0.76,8.025-0.76v-2.193
			c0-2.183-0.465-3.833-1.393-4.953c-0.929-1.119-2.303-1.679-4.123-1.679c-1.195,0-2.202,0.151-3.02,0.455
			c-0.818,0.304-1.526,0.644-2.124,1.021c-0.598,0.377-1.113,0.717-1.544,1.02c-0.432,0.305-0.859,0.455-1.282,0.455
			c-0.331,0-0.621-0.086-0.869-0.262c-0.248-0.174-0.446-0.391-0.593-0.648l-0.883-1.571c1.544-1.489,3.208-2.601,4.992-3.337
			c1.783-0.734,3.759-1.104,5.929-1.104c1.562,0,2.951,0.258,4.164,0.773c1.213,0.514,2.233,1.231,3.061,2.15
			c0.827,0.92,1.452,2.031,1.875,3.337s0.634,2.739,0.634,4.302V328.14z M178.756,325.134c0.864,0,1.654-0.087,2.372-0.263
			c0.717-0.174,1.393-0.422,2.027-0.744c0.634-0.321,1.241-0.712,1.82-1.172c0.579-0.459,1.145-0.983,1.696-1.572v-5.764
			c-2.262,0-4.183,0.145-5.764,0.431c-1.582,0.286-2.868,0.661-3.861,1.123s-1.714,1.008-2.165,1.637s-0.675,1.331-0.675,2.108
			c0,0.739,0.119,1.377,0.358,1.914c0.239,0.536,0.561,0.975,0.965,1.316c0.404,0.343,0.882,0.593,1.434,0.75
			C177.515,325.055,178.112,325.134,178.756,325.134z"/>
		<path fill="#FFFFFF" d="M198.941,328.14v-27.936h2.923c0.699,0,1.14,0.341,1.324,1.021l0.386,3.033
			c1.213-1.342,2.569-2.427,4.068-3.254c1.498-0.828,3.23-1.241,5.198-1.241c1.525,0,2.872,0.253,4.04,0.759
			c1.167,0.506,2.141,1.223,2.923,2.15c0.781,0.929,1.374,2.046,1.779,3.352c0.404,1.305,0.607,2.748,0.607,4.329v17.787h-4.909
			v-17.787c0-2.114-0.483-3.755-1.448-4.923c-0.965-1.167-2.44-1.751-4.426-1.751c-1.453,0-2.809,0.35-4.068,1.048
			c-1.259,0.699-2.422,1.646-3.488,2.841v20.572H198.941z"/>
		<path fill="#FFFFFF" d="M249.269,328.14c-0.699,0-1.14-0.34-1.323-1.021l-0.441-3.392c-1.195,1.452-2.561,2.615-4.095,3.488
			c-1.535,0.874-3.295,1.31-5.281,1.31c-1.599,0-3.052-0.308-4.357-0.924c-1.306-0.615-2.418-1.521-3.337-2.716
			c-0.919-1.194-1.627-2.685-2.124-4.468c-0.496-1.783-0.745-3.833-0.745-6.149c0-2.06,0.276-3.976,0.828-5.75
			c0.551-1.774,1.346-3.313,2.385-4.619c1.039-1.306,2.303-2.33,3.792-3.075c1.489-0.744,3.18-1.117,5.074-1.117
			c1.709,0,3.171,0.29,4.385,0.869s2.298,1.393,3.254,2.441v-15.499h4.909v40.621H249.269z M239.755,324.555
			c1.599,0,3.001-0.367,4.206-1.104c1.204-0.734,2.312-1.773,3.323-3.115v-13.514c-0.901-1.213-1.889-2.063-2.964-2.551
			c-1.076-0.486-2.266-0.73-3.571-0.73c-2.611,0-4.615,0.928-6.012,2.785c-1.397,1.857-2.096,4.504-2.096,7.942
			c0,1.819,0.156,3.378,0.469,4.675c0.312,1.295,0.772,2.361,1.379,3.198c0.607,0.837,1.352,1.448,2.234,1.834
			S238.615,324.555,239.755,324.555z"/>
		<path fill="#FFFFFF" d="M256.797,300.204h3.861c0.404,0,0.735,0.101,0.993,0.304c0.257,0.202,0.432,0.441,0.524,0.717l5.35,17.98
			c0.147,0.662,0.285,1.301,0.414,1.916c0.128,0.616,0.239,1.236,0.331,1.861c0.147-0.625,0.312-1.245,0.497-1.861
			c0.184-0.615,0.376-1.254,0.579-1.916l5.901-18.091c0.092-0.276,0.253-0.505,0.483-0.689c0.229-0.184,0.519-0.276,0.869-0.276
			h2.124c0.367,0,0.671,0.093,0.91,0.276c0.239,0.185,0.404,0.413,0.497,0.689l5.764,18.091c0.202,0.644,0.381,1.277,0.538,1.902
			s0.308,1.241,0.455,1.848c0.092-0.606,0.211-1.24,0.358-1.902c0.147-0.662,0.304-1.277,0.469-1.848l5.46-17.98
			c0.092-0.294,0.266-0.538,0.524-0.73c0.257-0.193,0.561-0.29,0.91-0.29h3.695l-9.045,27.936h-3.888
			c-0.479,0-0.81-0.312-0.993-0.938l-6.177-18.946c-0.147-0.422-0.267-0.85-0.359-1.281c-0.092-0.432-0.184-0.859-0.275-1.283
			c-0.092,0.424-0.184,0.855-0.276,1.297c-0.092,0.441-0.212,0.873-0.358,1.296l-6.26,18.918c-0.203,0.625-0.579,0.938-1.131,0.938
			h-3.695L256.797,300.204z"/>
		<path fill="#FFFFFF" d="M302.685,328.14v-40.621h4.909v16.437c1.195-1.27,2.519-2.285,3.971-3.048
			c1.452-0.763,3.125-1.145,5.019-1.145c1.525,0,2.872,0.253,4.04,0.759c1.167,0.506,2.141,1.223,2.923,2.15
			c0.781,0.929,1.374,2.046,1.779,3.352c0.404,1.305,0.607,2.748,0.607,4.329v17.787h-4.909v-17.787
			c0-2.114-0.483-3.755-1.448-4.923c-0.965-1.167-2.44-1.751-4.426-1.751c-1.453,0-2.809,0.35-4.068,1.048
			c-1.259,0.699-2.422,1.646-3.488,2.841v20.572H302.685z"/>
		<path fill="#FFFFFF" d="M339.914,291.435c0,0.478-0.097,0.924-0.29,1.337c-0.193,0.414-0.451,0.782-0.772,1.104
			c-0.322,0.322-0.694,0.574-1.117,0.758c-0.423,0.185-0.874,0.276-1.352,0.276s-0.924-0.092-1.337-0.276
			c-0.414-0.184-0.782-0.436-1.103-0.758c-0.322-0.321-0.575-0.689-0.758-1.104c-0.184-0.413-0.276-0.859-0.276-1.337
			s0.092-0.933,0.276-1.365c0.184-0.432,0.437-0.809,0.758-1.13c0.321-0.322,0.689-0.575,1.103-0.759s0.859-0.276,1.337-0.276
			s0.928,0.093,1.352,0.276c0.422,0.184,0.795,0.437,1.117,0.759c0.321,0.321,0.579,0.698,0.772,1.13
			C339.817,290.502,339.914,290.957,339.914,291.435z M338.811,300.204v27.936h-4.909v-27.936H338.811z"/>
		<path fill="#FFFFFF" d="M366.525,305.168c-0.147,0.203-0.294,0.358-0.441,0.469s-0.358,0.166-0.634,0.166
			c-0.275,0-0.575-0.115-0.896-0.346c-0.322-0.229-0.731-0.482-1.227-0.758c-0.497-0.275-1.099-0.528-1.807-0.758
			c-0.708-0.23-1.577-0.346-2.606-0.346c-1.361,0-2.564,0.244-3.613,0.73c-1.048,0.488-1.926,1.191-2.633,2.11
			c-0.708,0.919-1.241,2.032-1.6,3.337c-0.358,1.306-0.538,2.768-0.538,4.385c0,1.691,0.193,3.194,0.579,4.509
			s0.928,2.417,1.627,3.31c0.699,0.892,1.549,1.571,2.551,2.041c1.002,0.469,2.128,0.703,3.378,0.703
			c1.195,0,2.179-0.143,2.951-0.428s1.416-0.602,1.93-0.951s0.938-0.666,1.269-0.952c0.331-0.284,0.662-0.427,0.993-0.427
			c0.422,0,0.735,0.156,0.938,0.469l1.379,1.792c-1.213,1.489-2.73,2.579-4.55,3.269c-1.82,0.689-3.742,1.033-5.764,1.033
			c-1.747,0-3.369-0.322-4.867-0.965c-1.499-0.644-2.799-1.576-3.902-2.799s-1.972-2.726-2.606-4.51
			c-0.634-1.782-0.952-3.814-0.952-6.094c0-2.078,0.29-3.999,0.869-5.764c0.579-1.766,1.425-3.286,2.537-4.564
			c1.112-1.277,2.486-2.275,4.123-2.992c1.636-0.717,3.511-1.075,5.625-1.075c1.949,0,3.677,0.317,5.185,0.952
			c1.507,0.634,2.84,1.529,3.999,2.688L366.525,305.168z"/>
		<path fill="#FFFFFF" d="M373.227,328.14v-40.621h4.909v16.437c1.195-1.27,2.519-2.285,3.971-3.048
			c1.452-0.763,3.125-1.145,5.019-1.145c1.525,0,2.872,0.253,4.04,0.759c1.167,0.506,2.141,1.223,2.923,2.15
			c0.781,0.929,1.374,2.046,1.779,3.352c0.404,1.305,0.607,2.748,0.607,4.329v17.787h-4.909v-17.787
			c0-2.114-0.483-3.755-1.448-4.923c-0.965-1.167-2.44-1.751-4.426-1.751c-1.453,0-2.809,0.35-4.068,1.048
			c-1.259,0.699-2.422,1.646-3.488,2.841v20.572H373.227z"/>
	</g>
	<g>
		<path fill="#FFFFFF" d="M582.363,313.193h4.137v4.798c0,0.423-0.143,0.79-0.428,1.103s-0.693,0.469-1.227,0.469h-2.482v9.238
			h-7.445v-9.238h-16.16c-0.534,0-1.017-0.165-1.448-0.496c-0.432-0.33-0.703-0.744-0.813-1.24l-0.883-4.22l18.587-24.985h8.163
			V313.193z M574.918,302.713c0-0.643,0.022-1.337,0.068-2.082c0.046-0.744,0.115-1.512,0.207-2.303l-10.617,14.865h10.342V302.713z
			"/>
		<path fill="#FFFFFF" d="M603.432,329.242c-2.134,0-4.082-0.285-5.847-0.854s-3.277-1.374-4.536-2.413
			c-1.26-1.039-2.234-2.293-2.924-3.764s-1.034-3.107-1.034-4.909c0-1.085,0.124-2.11,0.373-3.075
			c0.248-0.965,0.643-1.848,1.186-2.646c0.542-0.801,1.241-1.513,2.096-2.138s1.889-1.149,3.103-1.572
			c-1.839-0.827-3.204-1.976-4.096-3.446s-1.337-3.236-1.337-5.295c0-1.562,0.321-3.011,0.965-4.344s1.545-2.486,2.703-3.461
			s2.532-1.742,4.122-2.303s3.332-0.842,5.227-0.842c1.893,0,3.635,0.281,5.226,0.842c1.59,0.561,2.965,1.328,4.123,2.303
			s2.059,2.128,2.702,3.461s0.965,2.781,0.965,4.344c0,2.059-0.45,3.824-1.351,5.295c-0.901,1.471-2.262,2.619-4.082,3.446
			c1.195,0.423,2.221,0.947,3.075,1.572s1.554,1.337,2.096,2.138c0.542,0.799,0.942,1.682,1.199,2.646
			c0.258,0.965,0.387,1.99,0.387,3.075c0,1.802-0.345,3.438-1.034,4.909s-1.664,2.725-2.923,3.764
			c-1.26,1.039-2.771,1.844-4.537,2.413C607.513,328.957,605.563,329.242,603.432,329.242z M603.432,322.789
			c0.955,0,1.782-0.146,2.481-0.441c0.698-0.293,1.272-0.693,1.724-1.199c0.45-0.506,0.781-1.104,0.993-1.793
			c0.211-0.689,0.316-1.429,0.316-2.219c0-0.864-0.092-1.655-0.275-2.372c-0.184-0.718-0.487-1.328-0.91-1.834
			c-0.423-0.505-0.988-0.9-1.696-1.187c-0.708-0.284-1.585-0.427-2.633-0.427s-1.927,0.143-2.634,0.427
			c-0.708,0.286-1.273,0.682-1.696,1.187c-0.423,0.506-0.727,1.116-0.91,1.834c-0.184,0.717-0.275,1.508-0.275,2.372
			c0,0.79,0.105,1.529,0.317,2.219c0.211,0.689,0.542,1.287,0.992,1.793s1.021,0.906,1.71,1.199
			C601.625,322.643,602.457,322.789,603.432,322.789z M603.432,304.809c0.955,0,1.737-0.155,2.344-0.469
			c0.606-0.312,1.084-0.726,1.434-1.24s0.589-1.104,0.718-1.766c0.128-0.661,0.192-1.342,0.192-2.04c0-0.625-0.083-1.231-0.248-1.82
			c-0.165-0.588-0.437-1.107-0.813-1.558c-0.377-0.451-0.864-0.814-1.462-1.09s-1.319-0.414-2.164-0.414
			c-0.865,0-1.591,0.139-2.179,0.414c-0.589,0.275-1.071,0.639-1.448,1.09c-0.377,0.45-0.647,0.97-0.813,1.558
			c-0.165,0.589-0.248,1.195-0.248,1.82c0,0.698,0.064,1.379,0.193,2.04c0.128,0.662,0.367,1.251,0.717,1.766
			c0.349,0.515,0.827,0.928,1.434,1.24C601.694,304.653,602.475,304.809,603.432,304.809z"/>
		<path fill="#FFFFFF" d="M650.312,308.697c0,3.512-0.377,6.555-1.131,9.129s-1.798,4.706-3.13,6.397
			c-1.333,1.691-2.914,2.95-4.743,3.778c-1.83,0.826-3.811,1.24-5.943,1.24s-4.104-0.414-5.915-1.24
			c-1.812-0.828-3.378-2.087-4.702-3.778c-1.323-1.691-2.357-3.823-3.103-6.397c-0.744-2.574-1.116-5.617-1.116-9.129
			s0.372-6.554,1.116-9.128c0.745-2.573,1.779-4.706,3.103-6.397c1.324-1.691,2.891-2.946,4.702-3.765
			c1.811-0.817,3.782-1.228,5.915-1.228s4.113,0.41,5.943,1.228c1.829,0.818,3.41,2.073,4.743,3.765
			c1.332,1.691,2.376,3.824,3.13,6.397C649.935,302.144,650.312,305.186,650.312,308.697z M641.486,308.697
			c0-2.775-0.175-5.051-0.523-6.825c-0.35-1.774-0.813-3.167-1.393-4.178s-1.237-1.705-1.973-2.082
			c-0.735-0.376-1.479-0.565-2.233-0.565s-1.494,0.189-2.22,0.565c-0.727,0.377-1.37,1.071-1.931,2.082s-1.011,2.403-1.352,4.178
			c-0.34,1.774-0.51,4.05-0.51,6.825c0,2.795,0.17,5.074,0.51,6.84c0.341,1.765,0.791,3.157,1.352,4.178
			c0.561,1.02,1.204,1.719,1.931,2.096c0.726,0.377,1.466,0.565,2.22,0.565s1.498-0.188,2.233-0.565s1.394-1.076,1.973-2.096
			c0.579-1.021,1.043-2.413,1.393-4.178C641.312,313.771,641.486,311.492,641.486,308.697z"/>
	</g>
	<g>
		<circle opacity="0.4" fill="#FFFFFF" cx="304.401" cy="791.678" r="11.491"/>
		<circle opacity="0.4" fill="#FFFFFF" cx="341.17" cy="791.678" r="11.49"/>
		<circle opacity="0.4" fill="#FFFFFF" cx="377.94" cy="791.678" r="11.491"/>
		<circle fill="#FFFFFF" cx="414.71" cy="791.678" r="11.491"/>
		<circle opacity="0.4" fill="#FFFFFF" cx="451.479" cy="791.678" r="11.49"/>
		<circle opacity="0.4" fill="#FFFFFF" cx="488.249" cy="791.678" r="11.491"/>
	</g>
</g>
<g id="watch">
	<g>
		<path fill="none" stroke="#D3D7DC" stroke-miterlimit="10" d="M786.5,481.861v94.985c0,7.039-5.998,12.185-13.031,12.185H768.5
			v-117h4.969C780.502,472.031,786.5,474.823,786.5,481.861z"/>
		<path fill="#FFFFFF" stroke="#D3D7DC" stroke-miterlimit="10" d="M769.13,208.609v-56.469c0-76.471-62.56-139.031-139.02-139.031
			H156.04c-76.46,0-139.02,62.561-139.02,139.031V748.54c0,76.47,62.56,139.03,139.02,139.03h474.07
			c76.46,0,139.02-62.561,139.02-139.03V359.061h-0.01c-13.72-6.031-24.18-37.41-24.18-75.23
			C744.94,246.02,755.4,214.63,769.13,208.609z M741.17,741.54c0,64.229-52.55,116.78-116.78,116.78H162.83
			c-64.23,0-116.78-52.551-116.78-116.78V159.141c0-64.23,52.55-116.781,116.78-116.781h461.56
			c64.23,0,116.78,52.551,116.78,116.781V741.54z"/>
		<path fill="none" stroke="#D3D7DC" stroke-miterlimit="10" d="M769.131,209.318h12.86c12.233,0,22.243,10.01,22.243,22.244
			v105.958c0,12.233-10.01,22.243-22.243,22.243h-12.86"/>
		<g>
			<path fill="#D3D7DC" d="M804.234,344.537l-17.552,7.566v-1.393l17.552-7.389V344.537z M804.234,337.244l-17.552,6.502v-1.394
				l17.552-6.324V337.244z M804.234,329.951l-17.552,5.436v-1.393l17.552-5.258V329.951z M804.234,322.658l-17.552,4.371v-1.394
				l17.552-4.192V322.658z M804.234,315.366l-17.552,3.306v-1.395l17.552-3.127V315.366z M804.234,308.074l-17.552,2.238v-1.393
				l17.552-2.062V308.074z M804.234,300.781l-17.552,1.174v-1.394l17.552-0.996V300.781z M804.234,293.488l-17.552,0.107v-1.393
				l17.552,0.069V293.488z M804.234,286.195l-17.552-0.957v-1.394l17.552,1.136V286.195z M804.234,278.902l-17.552-2.023v-1.393
				l17.552,2.201V278.902z M804.234,271.61l-17.552-3.089v-1.394l17.552,3.267V271.61z M804.234,264.316l-17.552-4.153v-1.394
				l17.552,4.332V264.316z M804.234,257.024l-17.552-5.22v-1.393l17.552,5.397V257.024z M804.234,249.732l-17.552-6.286v-1.393
				l17.552,6.462V249.732z M804.234,242.439l-17.552-7.352v-1.393l17.552,7.527V242.439z M804.234,235.146l-17.552-8.416v-1.393
				l17.552,8.595V235.146z M804.234,227.854l-17.552-9.481v-1.394l17.552,9.66V227.854z"/>
		</g>
	</g>
</g>
</svg>
