<?xml version="1.0" encoding="utf-8"?>
<!-- Generator: Adobe Illustrator 16.0.4, SVG Export Plug-In . SVG Version: 6.00 Build 0)  -->
<!DOCTYPE svg PUBLIC "-//W3C//DTD SVG 1.1//EN" "http://www.w3.org/Graphics/SVG/1.1/DTD/svg11.dtd">
<svg version="1.1" xmlns="http://www.w3.org/2000/svg" xmlns:xlink="http://www.w3.org/1999/xlink" x="0px" y="0px" width="820px"
	 height="900px" viewBox="0 0 820 900" enable-background="new 0 0 820 900" xml:space="preserve">
<g id="screens" display="none">
	<linearGradient id="SVGID_2_" gradientUnits="userSpaceOnUse" x1="392.4629" y1="38.4893" x2="392.4629" y2="862.6064">
		<stop  offset="0" style="stop-color:#E4B141"/>
		<stop  offset="1" style="stop-color:#E9D45B"/>
	</linearGradient>
	<path display="inline" fill="url(#SVGID_2_)" d="M743.496,744.659c0,64.871-53.076,117.947-117.947,117.947H159.377
		c-64.871,0-117.947-53.076-117.947-117.947V156.437c0-64.871,53.076-117.947,117.947-117.947h466.172
		c64.871,0,117.947,53.077,117.947,117.947V744.659z"/>
	<path display="inline" opacity="0.2" fill="#F3F2F2" d="M676,595.247c0,12.713-10.306,23.02-23.018,23.02H123.018
		c-12.712,0-23.018-10.307-23.018-23.02V308.286c0-12.713,10.306-23.02,23.018-23.02h529.965c12.712,0,23.018,10.306,23.018,23.02
		V595.247z"/>
	
		<text transform="matrix(1 0 0 1 313.4219 174.3804)" display="inline" fill="#FFFFFF" font-family="'Lato-Regular'" font-size="69.0558">Start</text>
	
		<text transform="matrix(1 0 0 1 228.9863 761.0161)" display="inline" fill="#FFFFFF" font-family="'Lato-Light'" font-size="69.0558">stop watch</text>
	<g display="inline">
		<circle fill="none" stroke="#FFFFFF" stroke-width="4" stroke-miterlimit="10" cx="387.388" cy="676.543" r="26.353"/>
		
			<line fill="none" stroke="#FFFFFF" stroke-width="4" stroke-linecap="round" stroke-miterlimit="10" x1="416.758" y1="659.206" x2="407.742" y2="650.19"/>
		
			<line fill="none" stroke="#FFFFFF" stroke-width="4" stroke-linecap="round" stroke-miterlimit="10" x1="385.521" y1="678.389" x2="372.131" y2="691.78"/>
		
			<line fill="none" stroke="#FFFFFF" stroke-width="4" stroke-linecap="round" stroke-miterlimit="10" x1="412.25" y1="654.698" x2="407.441" y2="659.508"/>
		
			<circle fill="none" stroke="#FFFFFF" stroke-width="4" stroke-linecap="round" stroke-miterlimit="10" cx="387.325" cy="676.588" r="2.55"/>
		<path fill="none" stroke="#FFFFFF" stroke-width="4" stroke-linecap="round" stroke-miterlimit="10" d="M382.543,650.131
			c0-2.645,2.143-4.783,4.783-4.783s4.781,2.139,4.781,4.783"/>
	</g>
	<path display="inline" fill="none" stroke="#FFFFFF" stroke-width="4" stroke-miterlimit="10" d="M515,199.248
		c0,12.712-10.307,23.018-23.02,23.018H286.02c-12.713,0-23.02-10.306-23.02-23.018v-90.964c0-12.712,10.307-23.018,23.02-23.018
		H491.98c12.713,0,23.02,10.306,23.02,23.018V199.248z"/>
	<rect x="131.631" y="376.063" display="inline" fill="none" width="514.531" height="170.812"/>
	
		<text transform="matrix(1 0 0 1 138.707 518.5981)" display="inline" fill="#FFFFFF" font-family="'Lato-Light'" font-size="195.658">00:00</text>
	<g display="inline">
		<circle opacity="0.4" fill="#FFFFFF" cx="297.42" cy="805.54" r="11.509"/>
		<circle opacity="0.4" fill="#FFFFFF" cx="334.25" cy="805.54" r="11.51"/>
		<circle fill="#FFFFFF" cx="371.08" cy="805.54" r="11.51"/>
		<circle opacity="0.4" fill="#FFFFFF" cx="407.91" cy="805.54" r="11.508"/>
		<circle opacity="0.4" fill="#FFFFFF" cx="444.74" cy="805.54" r="11.51"/>
		<circle opacity="0.4" fill="#FFFFFF" cx="481.569" cy="805.54" r="11.509"/>
	</g>
</g>
<g id="v2">
	<linearGradient id="SVGID_3_" gradientUnits="userSpaceOnUse" x1="392.4629" y1="38.4893" x2="392.4629" y2="862.6064">
		<stop  offset="0" style="stop-color:#E28D12"/>
		<stop  offset="0.1757" style="stop-color:#E2941B"/>
		<stop  offset="0.4613" style="stop-color:#E4A933"/>
		<stop  offset="0.5" style="stop-color:#E4AC37"/>
		<stop  offset="0.6573" style="stop-color:#E4B53E"/>
		<stop  offset="0.9129" style="stop-color:#E5CD50"/>
		<stop  offset="1" style="stop-color:#E5D757"/>
	</linearGradient>
	<path fill="url(#SVGID_3_)" d="M743.496,744.659c0,64.871-53.076,117.947-117.947,117.947H159.377
		c-64.871,0-117.947-53.076-117.947-117.947V156.437c0-64.871,53.076-117.947,117.947-117.947h466.172
		c64.871,0,117.947,53.077,117.947,117.947V744.659z"/>
	<path opacity="0.2" fill="#F3F2F2" d="M676,595.247c0,12.713-10.306,23.02-23.018,23.02H123.018
		c-12.712,0-23.018-10.307-23.018-23.02V308.286c0-12.713,10.306-23.02,23.018-23.02h529.965c12.712,0,23.018,10.306,23.018,23.02
		V595.247z"/>
	<g>
		<path fill="#FFFFFF" d="M344.772,132.636c-0.207,0.345-0.427,0.604-0.656,0.777c-0.229,0.172-0.53,0.259-0.897,0.259
			c-0.392,0-0.846-0.195-1.363-0.587c-0.519-0.391-1.175-0.823-1.969-1.295c-0.794-0.471-1.75-0.903-2.865-1.294
			c-1.117-0.391-2.469-0.587-4.058-0.587c-1.497,0-2.819,0.202-3.971,0.604c-1.151,0.403-2.112,0.95-2.883,1.64
			c-0.771,0.69-1.353,1.502-1.743,2.434c-0.393,0.932-0.588,1.939-0.588,3.021c0,1.381,0.34,2.526,1.02,3.435
			c0.678,0.91,1.576,1.687,2.692,2.331s2.382,1.203,3.798,1.674c1.416,0.472,2.866,0.961,4.351,1.468
			c1.485,0.506,2.935,1.076,4.351,1.709c1.416,0.633,2.682,1.433,3.799,2.399c1.115,0.967,2.014,2.153,2.692,3.557
			c0.679,1.404,1.019,3.131,1.019,5.179c0,2.164-0.369,4.195-1.105,6.094c-0.736,1.899-1.812,3.551-3.228,4.955
			c-1.415,1.404-3.153,2.509-5.214,3.314c-2.061,0.806-4.402,1.208-7.026,1.208c-3.2,0-6.117-0.581-8.753-1.744
			c-2.636-1.162-4.885-2.733-6.75-4.713l1.934-3.177c0.184-0.253,0.408-0.466,0.674-0.639c0.264-0.172,0.558-0.259,0.88-0.259
			c0.483,0,1.036,0.259,1.657,0.777s1.398,1.087,2.331,1.709s2.06,1.191,3.384,1.709c1.323,0.518,2.939,0.777,4.851,0.777
			c1.589,0,3.004-0.219,4.247-0.656c1.243-0.437,2.296-1.053,3.159-1.847c0.863-0.794,1.524-1.744,1.985-2.849
			s0.69-2.336,0.69-3.694c0-1.496-0.34-2.722-1.019-3.677c-0.68-0.955-1.57-1.755-2.676-2.4c-1.105-0.644-2.365-1.191-3.781-1.64
			c-1.415-0.449-2.865-0.909-4.35-1.381c-1.484-0.472-2.936-1.019-4.351-1.64s-2.676-1.427-3.78-2.417
			c-1.105-0.989-1.998-2.227-2.676-3.712c-0.68-1.484-1.02-3.32-1.02-5.507c0-1.749,0.34-3.441,1.02-5.076
			c0.678-1.634,1.662-3.084,2.951-4.351c1.289-1.266,2.883-2.279,4.782-3.039c1.899-0.759,4.079-1.139,6.543-1.139
			c2.763,0,5.282,0.438,7.562,1.312c2.279,0.875,4.27,2.141,5.973,3.798L344.772,132.636z"/>
		<path fill="#FFFFFF" d="M365.662,174.933c-2.763,0-4.887-0.771-6.371-2.313c-1.484-1.542-2.227-3.764-2.227-6.664v-21.407h-4.213
			c-0.368,0-0.68-0.109-0.932-0.328c-0.254-0.218-0.381-0.558-0.381-1.019v-2.452l5.732-0.725l1.416-10.807
			c0.045-0.345,0.195-0.627,0.448-0.846s0.575-0.328,0.967-0.328h3.107v12.05h10.013v4.454H363.21v20.993
			c0,1.474,0.356,2.567,1.07,3.28c0.714,0.714,1.634,1.07,2.763,1.07c0.644,0,1.202-0.086,1.674-0.259s0.881-0.363,1.227-0.57
			c0.345-0.207,0.639-0.397,0.88-0.57c0.241-0.172,0.454-0.259,0.639-0.259c0.322,0,0.61,0.196,0.863,0.587l1.796,2.935
			c-1.06,0.99-2.337,1.767-3.833,2.331C368.791,174.651,367.25,174.933,365.662,174.933z"/>
		<path fill="#FFFFFF" d="M406.506,174.38h-2.727c-0.6,0-1.082-0.092-1.451-0.276c-0.367-0.184-0.609-0.575-0.725-1.174
			l-0.691-3.246c-0.92,0.829-1.818,1.571-2.692,2.227c-0.875,0.656-1.796,1.208-2.763,1.657c-0.967,0.449-1.996,0.789-3.09,1.019
			c-1.094,0.23-2.308,0.345-3.643,0.345c-1.358,0-2.63-0.191-3.815-0.571c-1.186-0.381-2.216-0.953-3.09-1.715
			c-0.875-0.762-1.571-1.727-2.089-2.894c-0.518-1.166-0.777-2.546-0.777-4.14c0-1.385,0.38-2.719,1.14-4.001
			c0.76-1.282,1.985-2.419,3.677-3.413c1.692-0.993,3.907-1.808,6.646-2.443c2.74-0.635,6.089-0.953,10.049-0.953v-2.745
			c0-2.733-0.582-4.8-1.744-6.202c-1.163-1.401-2.883-2.103-5.162-2.103c-1.496,0-2.757,0.19-3.781,0.57
			c-1.023,0.38-1.91,0.806-2.658,1.278s-1.393,0.897-1.934,1.277s-1.076,0.57-1.605,0.57c-0.414,0-0.777-0.109-1.088-0.328
			c-0.311-0.218-0.559-0.489-0.742-0.812l-1.105-1.968c1.934-1.865,4.018-3.257,6.25-4.178c2.232-0.92,4.707-1.381,7.424-1.381
			c1.956,0,3.694,0.323,5.213,0.967c1.52,0.645,2.797,1.542,3.834,2.693c1.035,1.151,1.816,2.544,2.348,4.178
			c0.529,1.634,0.793,3.43,0.793,5.386V174.38z M390.555,170.617c1.082,0,2.072-0.109,2.969-0.328
			c0.898-0.218,1.744-0.529,2.539-0.932c0.793-0.402,1.553-0.892,2.278-1.467c0.726-0.575,1.433-1.231,2.124-1.968v-7.216
			c-2.832,0-5.238,0.18-7.217,0.539c-1.98,0.359-3.592,0.828-4.834,1.406c-1.243,0.579-2.146,1.262-2.711,2.049
			c-0.564,0.788-0.846,1.667-0.846,2.639c0,0.926,0.149,1.725,0.449,2.396c0.299,0.671,0.701,1.221,1.209,1.65
			c0.506,0.428,1.104,0.741,1.795,0.938C389.001,170.519,389.748,170.617,390.555,170.617z"/>
		<path fill="#FFFFFF" d="M415.828,174.38v-34.977h3.521c0.668,0,1.128,0.126,1.382,0.379c0.253,0.254,0.425,0.691,0.518,1.312
			l0.414,5.455c1.197-2.439,2.676-4.344,4.437-5.714c1.762-1.369,3.827-2.054,6.198-2.054c0.967,0,1.841,0.109,2.624,0.328
			c0.782,0.219,1.507,0.523,2.175,0.915l-0.794,4.592c-0.161,0.576-0.518,0.863-1.07,0.863c-0.322,0-0.817-0.109-1.484-0.328
			c-0.668-0.218-1.601-0.328-2.797-0.328c-2.141,0-3.931,0.621-5.369,1.864s-2.642,3.05-3.608,5.421v22.271H415.828z"/>
		<path fill="#FFFFFF" d="M454.257,174.933c-2.762,0-4.886-0.771-6.37-2.313c-1.484-1.542-2.227-3.764-2.227-6.664v-21.407h-4.213
			c-0.368,0-0.679-0.109-0.932-0.328c-0.254-0.218-0.38-0.558-0.38-1.019v-2.452l5.731-0.725l1.415-10.807
			c0.046-0.345,0.195-0.627,0.449-0.846c0.253-0.219,0.575-0.328,0.967-0.328h3.107v12.05h10.013v4.454h-10.013v20.993
			c0,1.474,0.356,2.567,1.07,3.28c0.713,0.714,1.634,1.07,2.763,1.07c0.644,0,1.202-0.086,1.674-0.259s0.881-0.363,1.227-0.57
			c0.345-0.207,0.639-0.397,0.88-0.57c0.242-0.172,0.454-0.259,0.639-0.259c0.322,0,0.609,0.196,0.863,0.587l1.796,2.935
			c-1.06,0.99-2.337,1.767-3.833,2.331S455.846,174.933,454.257,174.933z"/>
	</g>
	<g>
		<path fill="#FFFFFF" d="M253.5,730.942c-0.161,0.322-0.414,0.482-0.76,0.482c-0.253,0-0.581-0.143-0.983-0.432
			c-0.403-0.287-0.933-0.609-1.589-0.967c-0.655-0.355-1.461-0.678-2.416-0.965c-0.956-0.289-2.124-0.432-3.505-0.432
			c-1.243,0-2.377,0.178-3.401,0.533c-1.023,0.355-1.898,0.832-2.623,1.43c-0.726,0.596-1.29,1.291-1.692,2.082
			c-0.403,0.793-0.604,1.625-0.604,2.498c0,1.078,0.276,1.975,0.828,2.686c0.553,0.711,1.278,1.32,2.176,1.824
			c0.898,0.506,1.916,0.941,3.056,1.309s2.308,0.736,3.505,1.104c1.196,0.369,2.365,0.777,3.504,1.227
			c1.14,0.447,2.158,1.006,3.057,1.674c0.896,0.668,1.622,1.484,2.175,2.451c0.552,0.967,0.829,2.141,0.829,3.521
			c0,1.498-0.271,2.891-0.812,4.178c-0.541,1.291-1.323,2.406-2.348,3.35c-1.023,0.945-2.285,1.691-3.78,2.244
			c-1.497,0.553-3.2,0.83-5.11,0.83c-2.417,0-4.5-0.387-6.25-1.158c-1.749-0.77-3.314-1.777-4.695-3.02l0.795-1.176
			c0.114-0.184,0.241-0.32,0.379-0.414c0.139-0.092,0.334-0.137,0.588-0.137c0.299,0,0.666,0.184,1.104,0.551
			c0.437,0.369,1.007,0.766,1.709,1.191c0.702,0.428,1.576,0.824,2.624,1.191c1.047,0.369,2.342,0.553,3.885,0.553
			c1.449,0,2.727-0.201,3.832-0.604s2.025-0.949,2.762-1.641s1.295-1.502,1.676-2.434c0.379-0.934,0.568-1.916,0.568-2.953
			c0-1.15-0.275-2.105-0.828-2.865s-1.277-1.404-2.176-1.934c-0.896-0.529-1.916-0.979-3.055-1.348
			c-1.14-0.367-2.313-0.736-3.521-1.104c-1.209-0.369-2.383-0.771-3.522-1.209s-2.157-0.99-3.056-1.658
			c-0.897-0.666-1.623-1.479-2.176-2.434c-0.552-0.955-0.828-2.146-0.828-3.574c0-1.219,0.264-2.393,0.794-3.521
			c0.529-1.127,1.283-2.117,2.262-2.969c0.978-0.852,2.169-1.531,3.573-2.037s2.98-0.76,4.73-0.76c2.095,0,3.953,0.305,5.576,0.91
			c1.623,0.607,3.113,1.535,4.472,2.785L253.5,730.942z"/>
		<path fill="#FFFFFF" d="M273.629,761.569c-2.324,0-4.131-0.645-5.42-1.934s-1.934-3.281-1.934-5.975v-23.479h-4.938
			c-0.254,0-0.461-0.068-0.621-0.207c-0.162-0.139-0.242-0.334-0.242-0.588v-1.277l5.869-0.414l0.82-12.291
			c0.023-0.207,0.108-0.393,0.256-0.553c0.148-0.16,0.348-0.242,0.599-0.242h1.536v13.121h10.808v2.451h-10.808v23.307
			c0,0.943,0.121,1.756,0.363,2.434c0.242,0.68,0.575,1.238,1.002,1.676c0.425,0.438,0.926,0.76,1.502,0.967
			c0.574,0.207,1.195,0.311,1.863,0.311c0.829,0,1.543-0.121,2.141-0.363c0.599-0.242,1.117-0.506,1.555-0.795
			c0.437-0.287,0.794-0.551,1.07-0.793c0.275-0.242,0.494-0.363,0.656-0.363c0.184,0,0.367,0.115,0.552,0.346l0.897,1.451
			c-0.875,0.967-1.984,1.742-3.332,2.33C276.479,761.274,275.08,761.569,273.629,761.569z"/>
		<path fill="#FFFFFF" d="M301.977,726.108c2.463,0,4.666,0.42,6.611,1.26c1.945,0.842,3.586,2.033,4.92,3.574
			c1.336,1.543,2.354,3.4,3.057,5.576c0.701,2.176,1.053,4.609,1.053,7.303s-0.352,5.121-1.053,7.285
			c-0.703,2.164-1.721,4.018-3.057,5.559c-1.334,1.543-2.975,2.729-4.92,3.557s-4.148,1.244-6.611,1.244s-4.668-0.416-6.612-1.244
			c-1.945-0.828-3.591-2.014-4.938-3.557c-1.347-1.541-2.371-3.395-3.073-5.559s-1.053-4.592-1.053-7.285s0.351-5.127,1.053-7.303
			s1.727-4.033,3.073-5.576c1.347-1.541,2.992-2.732,4.938-3.574C297.309,726.528,299.514,726.108,301.977,726.108z
			 M301.977,758.875c2.049,0,3.838-0.352,5.369-1.053c1.53-0.703,2.808-1.711,3.832-3.021c1.023-1.312,1.789-2.895,2.297-4.748
			c0.506-1.854,0.759-3.93,0.759-6.232c0-2.279-0.253-4.35-0.759-6.215c-0.508-1.865-1.273-3.459-2.297-4.783
			c-1.024-1.322-2.302-2.342-3.832-3.055c-1.531-0.713-3.32-1.07-5.369-1.07s-3.839,0.357-5.369,1.07
			c-1.531,0.713-2.809,1.732-3.832,3.055c-1.025,1.324-1.796,2.918-2.314,4.783c-0.518,1.865-0.776,3.936-0.776,6.215
			c0,2.303,0.259,4.379,0.776,6.232c0.519,1.854,1.289,3.436,2.314,4.748c1.023,1.311,2.301,2.318,3.832,3.021
			C298.138,758.524,299.928,758.875,301.977,758.875z"/>
		<path fill="#FFFFFF" d="M326.248,773.17v-46.51h1.795c0.3,0,0.541,0.062,0.726,0.189s0.288,0.352,0.312,0.674l0.311,5.316
			c1.52-2.07,3.297-3.717,5.334-4.938c2.037-1.219,4.321-1.83,6.854-1.83c4.235,0,7.527,1.463,9.875,4.385
			c2.348,2.924,3.521,7.309,3.521,13.156c0,2.51-0.328,4.852-0.983,7.025c-0.656,2.176-1.618,4.064-2.884,5.664
			s-2.825,2.859-4.678,3.779c-1.854,0.922-3.988,1.383-6.404,1.383c-2.349,0-4.375-0.428-6.078-1.279
			c-1.703-0.85-3.176-2.117-4.419-3.797v16.781H326.248z M340.646,728.733c-2.279,0-4.346,0.592-6.197,1.777
			c-1.854,1.186-3.494,2.838-4.921,4.955v18.023c1.312,1.98,2.768,3.373,4.368,4.178c1.6,0.807,3.424,1.209,5.473,1.209
			c2.025,0,3.797-0.369,5.316-1.105s2.791-1.777,3.816-3.125c1.023-1.346,1.795-2.957,2.312-4.834
			c0.518-1.875,0.777-3.941,0.777-6.197c0-5.109-0.938-8.867-2.814-11.273C346.9,729.936,344.191,728.733,340.646,728.733z"/>
		<path fill="#FFFFFF" d="M371.686,726.661h2.521c0.321,0,0.587,0.086,0.794,0.258c0.207,0.174,0.346,0.363,0.414,0.57l8.666,27.105
			c0.162,0.529,0.288,1.035,0.381,1.518c0.092,0.484,0.184,0.967,0.275,1.451c0.115-0.484,0.242-0.967,0.381-1.451
			c0.138-0.482,0.299-0.988,0.482-1.518l9.219-27.348c0.161-0.506,0.484-0.76,0.967-0.76h1.348c0.506,0,0.84,0.254,1,0.76
			l9.081,27.348c0.346,1.035,0.622,2.037,0.829,3.004c0.092-0.484,0.189-0.973,0.293-1.469c0.104-0.494,0.247-1.006,0.432-1.535
			l8.701-27.105c0.185-0.553,0.575-0.828,1.174-0.828h2.417l-11.497,34.355h-2.417c-0.369,0-0.634-0.242-0.795-0.725l-9.426-27.9
			c-0.115-0.344-0.219-0.689-0.311-1.035c-0.093-0.346-0.173-0.689-0.241-1.035c-0.069,0.346-0.145,0.689-0.225,1.035
			c-0.081,0.346-0.179,0.691-0.294,1.035l-9.529,27.9c-0.138,0.482-0.415,0.725-0.829,0.725h-2.312L371.686,726.661z"/>
		<path fill="#FFFFFF" d="M449.338,761.016c-0.69,0-1.117-0.322-1.277-0.967l-0.483-4.385c-0.944,0.92-1.882,1.748-2.814,2.484
			c-0.932,0.738-1.904,1.359-2.917,1.865c-1.014,0.506-2.106,0.893-3.28,1.156c-1.174,0.266-2.464,0.398-3.867,0.398
			c-1.174,0-2.313-0.174-3.418-0.52c-1.105-0.344-2.084-0.873-2.936-1.588c-0.852-0.713-1.536-1.627-2.054-2.744
			c-0.519-1.117-0.777-2.457-0.777-4.023c0-1.449,0.414-2.797,1.243-4.039c0.828-1.242,2.123-2.324,3.885-3.246
			c1.761-0.92,4.027-1.656,6.802-2.209c2.773-0.553,6.105-0.875,9.995-0.967v-3.592c0-3.176-0.685-5.621-2.054-7.336
			c-1.37-1.715-3.401-2.572-6.095-2.572c-1.657,0-3.067,0.23-4.229,0.689c-1.162,0.461-2.146,0.967-2.952,1.52
			s-1.462,1.059-1.968,1.52c-0.507,0.461-0.933,0.689-1.277,0.689c-0.461,0-0.807-0.207-1.036-0.621l-0.587-1
			c1.795-1.797,3.683-3.154,5.662-4.076c1.979-0.92,4.224-1.381,6.733-1.381c1.841,0,3.452,0.295,4.834,0.881
			c1.381,0.588,2.525,1.428,3.436,2.521c0.908,1.094,1.594,2.416,2.054,3.971c0.461,1.553,0.69,3.285,0.69,5.195v22.375H449.338z
			 M435.526,759.186c1.335,0,2.561-0.145,3.678-0.432c1.116-0.287,2.152-0.691,3.107-1.209s1.847-1.133,2.676-1.848
			c0.829-0.713,1.646-1.484,2.451-2.312v-8.943c-3.269,0.092-6.082,0.34-8.441,0.742c-2.36,0.404-4.305,0.949-5.835,1.641
			c-1.531,0.691-2.659,1.514-3.384,2.469c-0.726,0.955-1.088,2.043-1.088,3.264c0,1.15,0.189,2.146,0.569,2.986
			s0.881,1.531,1.502,2.07c0.622,0.541,1.347,0.939,2.176,1.191C433.766,759.059,434.629,759.186,435.526,759.186z"/>
		<path fill="#FFFFFF" d="M470.364,761.569c-2.325,0-4.132-0.645-5.421-1.934s-1.934-3.281-1.934-5.975v-23.479h-4.938
			c-0.253,0-0.46-0.068-0.621-0.207s-0.241-0.334-0.241-0.588v-1.277l5.869-0.414l0.82-12.291c0.022-0.207,0.107-0.393,0.256-0.553
			c0.147-0.16,0.347-0.242,0.598-0.242h1.537v13.121h10.808v2.451H466.29v23.307c0,0.943,0.121,1.756,0.362,2.434
			c0.242,0.68,0.575,1.238,1.002,1.676c0.426,0.438,0.926,0.76,1.502,0.967c0.575,0.207,1.196,0.311,1.864,0.311
			c0.829,0,1.542-0.121,2.141-0.363s1.116-0.506,1.554-0.795c0.438-0.287,0.794-0.551,1.07-0.793s0.495-0.363,0.656-0.363
			c0.184,0,0.368,0.115,0.553,0.346l0.897,1.451c-0.875,0.967-1.985,1.742-3.332,2.33
			C473.213,761.274,471.814,761.569,470.364,761.569z"/>
		<path fill="#FFFFFF" d="M508.24,731.252c-0.115,0.115-0.225,0.213-0.328,0.293c-0.104,0.082-0.247,0.121-0.432,0.121
			c-0.23,0-0.547-0.154-0.949-0.465c-0.403-0.312-0.938-0.65-1.605-1.02c-0.668-0.367-1.502-0.707-2.504-1.018
			c-1.001-0.312-2.215-0.467-3.643-0.467c-1.979,0-3.734,0.352-5.265,1.053c-1.531,0.703-2.82,1.709-3.867,3.021
			c-1.048,1.312-1.848,2.9-2.4,4.766c-0.552,1.863-0.828,3.959-0.828,6.283c0,2.416,0.281,4.559,0.846,6.422
			c0.563,1.865,1.364,3.436,2.399,4.713c1.036,1.277,2.29,2.25,3.764,2.918c1.473,0.668,3.107,1.002,4.903,1.002
			c1.657,0,3.044-0.195,4.16-0.588c1.116-0.391,2.037-0.816,2.763-1.277c0.725-0.461,1.3-0.885,1.727-1.277
			c0.425-0.391,0.765-0.588,1.019-0.588c0.299,0,0.528,0.117,0.69,0.346l0.897,1.105c-0.53,0.689-1.197,1.336-2.003,1.934
			c-0.806,0.6-1.715,1.117-2.728,1.553c-1.013,0.438-2.112,0.777-3.297,1.02c-1.187,0.242-2.423,0.363-3.712,0.363
			c-2.188,0-4.184-0.398-5.991-1.191c-1.807-0.795-3.36-1.945-4.661-3.453s-2.312-3.355-3.038-5.543
			c-0.725-2.186-1.088-4.672-1.088-7.457c0-2.625,0.346-5.018,1.036-7.182s1.697-4.027,3.021-5.594
			c1.323-1.564,2.946-2.779,4.868-3.643s4.126-1.295,6.612-1.295c2.232,0,4.218,0.357,5.956,1.07c1.737,0.713,3.251,1.68,4.54,2.9
			L508.24,731.252z"/>
		<path fill="#FFFFFF" d="M517.044,761.016v-50.238h3.28v21.752c1.588-1.955,3.4-3.516,5.438-4.678s4.321-1.744,6.854-1.744
			c1.888,0,3.551,0.299,4.989,0.898c1.438,0.598,2.63,1.461,3.574,2.59c0.943,1.127,1.657,2.484,2.141,4.074
			c0.483,1.588,0.725,3.383,0.725,5.385v21.961h-3.28v-21.961c0-3.223-0.736-5.748-2.209-7.578c-1.474-1.83-3.729-2.744-6.768-2.744
			c-2.257,0-4.351,0.58-6.284,1.742c-1.934,1.164-3.66,2.758-5.179,4.783v25.758H517.044z"/>
	</g>
	<g>
		<circle fill="none" stroke="#FFFFFF" stroke-width="4" stroke-miterlimit="10" cx="387.388" cy="676.543" r="26.353"/>
		
			<line fill="none" stroke="#FFFFFF" stroke-width="4" stroke-linecap="round" stroke-miterlimit="10" x1="416.758" y1="659.206" x2="407.742" y2="650.19"/>
		
			<line fill="none" stroke="#FFFFFF" stroke-width="4" stroke-linecap="round" stroke-miterlimit="10" x1="385.521" y1="678.389" x2="372.131" y2="691.78"/>
		
			<line fill="none" stroke="#FFFFFF" stroke-width="4" stroke-linecap="round" stroke-miterlimit="10" x1="412.25" y1="654.698" x2="407.441" y2="659.508"/>
		
			<circle fill="none" stroke="#FFFFFF" stroke-width="4" stroke-linecap="round" stroke-miterlimit="10" cx="387.325" cy="676.588" r="2.55"/>
		<path fill="none" stroke="#FFFFFF" stroke-width="4" stroke-linecap="round" stroke-miterlimit="10" d="M382.543,650.131
			c0-2.645,2.143-4.783,4.783-4.783s4.781,2.139,4.781,4.783"/>
	</g>
	<path fill="none" stroke="#FFFFFF" stroke-width="4" stroke-miterlimit="10" d="M515,199.248c0,12.712-10.307,23.018-23.02,23.018
		H286.02c-12.713,0-23.02-10.306-23.02-23.018v-90.964c0-12.712,10.307-23.018,23.02-23.018H491.98
		c12.713,0,23.02,10.306,23.02,23.018V199.248z"/>
	<g>
		<path fill="#FFFFFF" d="M245.047,449.335c0,12.13-1.306,22.632-3.914,31.501s-6.162,16.207-10.662,22.012
			s-9.768,10.125-15.8,12.961c-6.033,2.838-12.474,4.256-19.321,4.256s-13.271-1.418-19.271-4.256
			c-6.002-2.836-11.25-7.156-15.75-12.961s-8.039-13.143-10.615-22.012s-3.863-19.371-3.863-31.501
			c0-12.131,1.287-22.631,3.863-31.501c2.576-8.869,6.115-16.206,10.615-22.012c4.5-5.804,9.748-10.125,15.75-12.962
			c6-2.837,12.424-4.255,19.271-4.255s13.288,1.418,19.321,4.255c6.032,2.837,11.3,7.158,15.8,12.962
			c4.5,5.806,8.054,13.143,10.662,22.012C243.741,426.704,245.047,437.204,245.047,449.335z M235.264,449.335
			c0-11.217-1.076-20.804-3.229-28.762c-2.152-7.957-5.038-14.462-8.658-19.517c-3.619-5.054-7.859-8.756-12.717-11.104
			c-4.859-2.348-9.963-3.522-15.311-3.522s-10.436,1.174-15.261,3.522c-4.827,2.348-9.065,6.05-12.718,11.104
			c-3.653,5.055-6.555,11.561-8.707,19.517c-2.152,7.958-3.229,17.545-3.229,28.762c0,11.285,1.076,20.886,3.229,28.81
			s5.054,14.414,8.707,19.469c3.652,5.055,7.891,8.74,12.718,11.055c4.825,2.314,9.913,3.473,15.261,3.473
			s10.451-1.158,15.311-3.473c4.857-2.314,9.098-6,12.717-11.055c3.62-5.055,6.506-11.545,8.658-19.469
			S235.264,460.62,235.264,449.335z"/>
		<path fill="#FFFFFF" d="M358.524,449.335c0,12.13-1.306,22.632-3.913,31.501c-2.609,8.869-6.163,16.207-10.663,22.012
			s-9.768,10.125-15.8,12.961c-6.033,2.838-12.473,4.256-19.32,4.256s-13.272-1.418-19.272-4.256
			c-6.001-2.836-11.25-7.156-15.75-12.961s-8.039-13.143-10.614-22.012c-2.577-8.869-3.864-19.371-3.864-31.501
			c0-12.131,1.287-22.631,3.864-31.501c2.575-8.869,6.114-16.206,10.614-22.012c4.5-5.804,9.749-10.125,15.75-12.962
			c6-2.837,12.425-4.255,19.272-4.255s13.287,1.418,19.32,4.255c6.032,2.837,11.3,7.158,15.8,12.962
			c4.5,5.806,8.054,13.143,10.663,22.012C357.219,426.704,358.524,437.204,358.524,449.335z M348.742,449.335
			c0-11.217-1.076-20.804-3.229-28.762c-2.152-7.957-5.039-14.462-8.658-19.517c-3.619-5.054-7.859-8.756-12.717-11.104
			c-4.859-2.348-9.964-3.522-15.311-3.522c-5.349,0-10.436,1.174-15.262,3.522c-4.826,2.348-9.065,6.05-12.717,11.104
			c-3.654,5.055-6.555,11.561-8.707,19.517c-2.152,7.958-3.229,17.545-3.229,28.762c0,11.285,1.076,20.886,3.229,28.81
			s5.053,14.414,8.707,19.469c3.651,5.055,7.891,8.74,12.717,11.055s9.913,3.473,15.262,3.473c5.347,0,10.451-1.158,15.311-3.473
			c4.857-2.314,9.098-6,12.717-11.055s6.506-11.545,8.658-19.469S348.742,460.62,348.742,449.335z"/>
		<path fill="#FFFFFF" d="M379.849,433.095c0-1.238,0.228-2.412,0.685-3.522c0.455-1.108,1.092-2.07,1.908-2.886
			c0.814-0.815,1.761-1.468,2.837-1.957c1.075-0.489,2.265-0.734,3.57-0.734c1.238,0,2.412,0.245,3.522,0.734
			c1.107,0.489,2.069,1.142,2.885,1.957c0.815,0.816,1.469,1.777,1.957,2.886c0.489,1.11,0.734,2.284,0.734,3.522
			c0,1.305-0.245,2.495-0.734,3.571c-0.488,1.076-1.142,2.022-1.957,2.837c-0.815,0.816-1.777,1.452-2.885,1.908
			c-1.11,0.457-2.284,0.685-3.522,0.685c-2.544,0-4.681-0.863-6.407-2.592C380.713,437.775,379.849,435.639,379.849,433.095z
			 M379.849,511.065c0-1.238,0.228-2.412,0.685-3.521c0.455-1.109,1.092-2.07,1.908-2.887c0.814-0.814,1.761-1.467,2.837-1.957
			c1.075-0.488,2.265-0.732,3.57-0.732c1.238,0,2.412,0.244,3.522,0.732c1.107,0.49,2.069,1.143,2.885,1.957
			c0.815,0.816,1.469,1.777,1.957,2.887c0.489,1.109,0.734,2.283,0.734,3.521c0,1.305-0.245,2.494-0.734,3.57
			c-0.488,1.076-1.142,2.023-1.957,2.838c-0.815,0.816-1.777,1.449-2.885,1.906c-1.11,0.457-2.284,0.686-3.522,0.686
			c-2.544,0-4.681-0.865-6.407-2.592C380.713,515.745,379.849,513.608,379.849,511.065z"/>
		<path fill="#FFFFFF" d="M518.469,449.335c0,12.13-1.306,22.632-3.913,31.501c-2.609,8.869-6.163,16.207-10.663,22.012
			s-9.768,10.125-15.799,12.961c-6.033,2.838-12.474,4.256-19.321,4.256s-13.272-1.418-19.272-4.256
			c-6.001-2.836-11.25-7.156-15.75-12.961s-8.039-13.143-10.614-22.012c-2.577-8.869-3.864-19.371-3.864-31.501
			c0-12.131,1.287-22.631,3.864-31.501c2.575-8.869,6.114-16.206,10.614-22.012c4.5-5.804,9.749-10.125,15.75-12.962
			c6-2.837,12.425-4.255,19.272-4.255s13.288,1.418,19.321,4.255c6.031,2.837,11.299,7.158,15.799,12.962
			c4.5,5.806,8.054,13.143,10.663,22.012C517.163,426.704,518.469,437.204,518.469,449.335z M508.687,449.335
			c0-11.217-1.076-20.804-3.229-28.762c-2.152-7.957-5.038-14.462-8.658-19.517c-3.619-5.054-7.859-8.756-12.718-11.104
			c-4.859-2.348-9.963-3.522-15.31-3.522c-5.349,0-10.436,1.174-15.262,3.522c-4.827,2.348-9.065,6.05-12.717,11.104
			c-3.653,5.055-6.555,11.561-8.707,19.517c-2.152,7.958-3.229,17.545-3.229,28.762c0,11.285,1.076,20.886,3.229,28.81
			s5.054,14.414,8.707,19.469c3.651,5.055,7.89,8.74,12.717,11.055c4.826,2.314,9.913,3.473,15.262,3.473
			c5.347,0,10.45-1.158,15.31-3.473c4.858-2.314,9.099-6,12.718-11.055c3.62-5.055,6.506-11.545,8.658-19.469
			S508.687,460.62,508.687,449.335z"/>
		<path fill="#FFFFFF" d="M631.946,449.335c0,12.13-1.306,22.632-3.913,31.501c-2.609,8.869-6.163,16.207-10.663,22.012
			s-9.768,10.125-15.799,12.961c-6.033,2.838-12.474,4.256-19.321,4.256s-13.272-1.418-19.272-4.256
			c-6.001-2.836-11.25-7.156-15.75-12.961s-8.039-13.143-10.614-22.012c-2.577-8.869-3.864-19.371-3.864-31.501
			c0-12.131,1.287-22.631,3.864-31.501c2.575-8.869,6.114-16.206,10.614-22.012c4.5-5.804,9.749-10.125,15.75-12.962
			c6-2.837,12.425-4.255,19.272-4.255s13.288,1.418,19.321,4.255c6.031,2.837,11.299,7.158,15.799,12.962
			c4.5,5.806,8.054,13.143,10.663,22.012C630.641,426.704,631.946,437.204,631.946,449.335z M622.164,449.335
			c0-11.217-1.076-20.804-3.229-28.762c-2.152-7.957-5.038-14.462-8.658-19.517c-3.619-5.054-7.859-8.756-12.718-11.104
			c-4.859-2.348-9.963-3.522-15.31-3.522c-5.349,0-10.436,1.174-15.262,3.522c-4.827,2.348-9.065,6.05-12.717,11.104
			c-3.653,5.055-6.555,11.561-8.707,19.517c-2.152,7.958-3.229,17.545-3.229,28.762c0,11.285,1.076,20.886,3.229,28.81
			s5.054,14.414,8.707,19.469c3.651,5.055,7.89,8.74,12.717,11.055c4.826,2.314,9.913,3.473,15.262,3.473
			c5.347,0,10.45-1.158,15.31-3.473c4.858-2.314,9.099-6,12.718-11.055c3.62-5.055,6.506-11.545,8.658-19.469
			S622.164,460.62,622.164,449.335z"/>
	</g>
	<g>
		<circle opacity="0.4" fill="#FFFFFF" cx="297.42" cy="805.54" r="11.509"/>
		<circle opacity="0.4" fill="#FFFFFF" cx="334.25" cy="805.54" r="11.51"/>
		<circle fill="#FFFFFF" cx="371.08" cy="805.54" r="11.51"/>
		<circle opacity="0.4" fill="#FFFFFF" cx="407.91" cy="805.54" r="11.508"/>
		<circle opacity="0.4" fill="#FFFFFF" cx="444.74" cy="805.54" r="11.51"/>
		<circle opacity="0.4" fill="#FFFFFF" cx="481.569" cy="805.54" r="11.509"/>
	</g>
</g>
<g id="watch">
	<g>
		<path fill="none" stroke="#D3D7DC" stroke-miterlimit="10" d="M785.5,481.862v94.984c0,7.039-5.998,12.92-13.031,12.92H767.5v-117
			h4.969C779.502,472.766,785.5,474.823,785.5,481.862z"/>
		<path fill="#FFFFFF" stroke="#D3D7DC" stroke-miterlimit="10" d="M768.13,208.61v-56.47c0-76.47-62.56-139.03-139.02-139.03
			H155.04C78.58,13.11,16.02,75.67,16.02,152.14V748.54c0,76.471,62.561,139.031,139.021,139.031h474.07
			c76.46,0,139.02-62.561,139.02-139.031V359.06h-0.01c-13.72-6.03-24.18-37.41-24.18-75.23
			C743.94,246.02,754.4,214.63,768.13,208.61z M740.17,741.54c0,64.23-52.55,116.781-116.78,116.781H161.83
			c-64.23,0-116.78-52.551-116.78-116.781V159.14c0-64.23,52.55-116.78,116.78-116.78h461.56c64.23,0,116.78,52.55,116.78,116.78
			V741.54z"/>
		<path fill="none" stroke="#D3D7DC" stroke-miterlimit="10" d="M768.131,209.318h12.86c12.233,0,22.243,10.01,22.243,22.244
			v105.958c0,12.234-10.01,22.244-22.243,22.244h-12.86"/>
		<g>
			<path fill="#D3D7DC" d="M803.234,344.537l-17.552,7.567v-1.393l17.552-7.389V344.537z M803.234,337.244l-17.552,6.501v-1.393
				l17.552-6.324V337.244z M803.234,329.951l-17.552,5.436v-1.393l17.552-5.258V329.951z M803.234,322.659l-17.552,4.37v-1.393
				l17.552-4.192V322.659z M803.234,315.366l-17.552,3.305v-1.394l17.552-3.128V315.366z M803.234,308.074l-17.552,2.239v-1.393
				l17.552-2.062V308.074z M803.234,300.781l-17.552,1.174v-1.393l17.552-0.996V300.781z M803.234,293.488l-17.552,0.108v-1.393
				l17.552,0.069V293.488z M803.234,286.195l-17.552-0.957v-1.393l17.552,1.135V286.195z M803.234,278.902l-17.552-2.023v-1.393
				l17.552,2.201V278.902z M803.234,271.61l-17.552-3.089v-1.394l17.552,3.266V271.61z M803.234,264.317l-17.552-4.154v-1.393
				l17.552,4.332V264.317z M803.234,257.024l-17.552-5.219v-1.393l17.552,5.397V257.024z M803.234,249.732l-17.552-6.286v-1.393
				l17.552,6.462V249.732z M803.234,242.439l-17.552-7.351v-1.393l17.552,7.528V242.439z M803.234,235.146l-17.552-8.416v-1.393
				l17.552,8.594V235.146z M803.234,227.854l-17.552-9.482v-1.394l17.552,9.66V227.854z"/>
		</g>
	</g>
</g>
</svg>
