<?xml version="1.0" encoding="utf-8"?>
<!-- Generator: Adobe Illustrator 16.0.4, SVG Export Plug-In . SVG Version: 6.00 Build 0)  -->
<!DOCTYPE svg PUBLIC "-//W3C//DTD SVG 1.1//EN" "http://www.w3.org/Graphics/SVG/1.1/DTD/svg11.dtd">
<svg version="1.1" xmlns="http://www.w3.org/2000/svg" xmlns:xlink="http://www.w3.org/1999/xlink" x="0px" y="0px" width="820px"
	 height="900px" viewBox="0 0 820 900" enable-background="new 0 0 820 900" xml:space="preserve">
<g id="screens" display="none">
	<linearGradient id="SVGID_2_" gradientUnits="userSpaceOnUse" x1="393.4629" y1="38.7549" x2="393.4629" y2="862.8721">
		<stop  offset="0" style="stop-color:#698AC6"/>
		<stop  offset="1" style="stop-color:#72B2DE"/>
	</linearGradient>
	<path display="inline" fill="url(#SVGID_2_)" d="M744.496,744.925c0,64.871-53.076,117.947-117.947,117.947H160.377
		c-64.871,0-117.947-53.076-117.947-117.947V156.702c0-64.87,53.076-117.947,117.947-117.947h466.172
		c64.871,0,117.947,53.077,117.947,117.947V744.925z"/>
	<linearGradient id="SVGID_3_" gradientUnits="userSpaceOnUse" x1="393.5" y1="233.2656" x2="393.5" y2="120.2656">
		<stop  offset="0" style="stop-color:#FFFFFF"/>
		<stop  offset="1" style="stop-color:#FFFFFF;stop-opacity:0"/>
	</linearGradient>
	<path display="inline" opacity="0.2" fill="url(#SVGID_3_)" d="M680,210.331c0,12.67-9.588,22.935-22.256,22.935H130.12
		c-12.671,0-23.12-10.265-23.12-22.935v-68.819c0-12.67,10.449-21.246,23.12-21.246h527.624c12.668,0,22.256,8.576,22.256,21.246
		V210.331z"/>
	<path display="inline" opacity="0.2" fill="#F3F2F2" d="M680,589.991c0,12.67-9.588,24.274-22.256,24.274H130.12
		c-12.671,0-23.12-11.604-23.12-24.274v-68.819c0-12.672,10.449-22.906,23.12-22.906h527.624c12.668,0,22.256,10.234,22.256,22.906
		V589.991z"/>
	<g display="inline">
		<path fill="#FFFFFF" d="M359.244,113.267c0,0.872-0.275,1.589-0.826,2.151c-0.551,0.562-1.479,0.842-2.787,0.842h-15.484
			l-2.271,12.939c2.569-0.551,4.943-0.826,7.123-0.826c2.569,0,4.835,0.379,6.797,1.135c1.961,0.758,3.606,1.802,4.938,3.132
			c1.33,1.331,2.334,2.902,3.011,4.714c0.677,1.812,1.015,3.785,1.015,5.919c0,2.615-0.459,4.978-1.376,7.089
			c-0.918,2.11-2.174,3.917-3.769,5.42c-1.594,1.502-3.47,2.654-5.625,3.457c-2.157,0.803-4.486,1.205-6.986,1.205
			c-1.445,0-2.833-0.144-4.163-0.43c-1.331-0.287-2.569-0.672-3.716-1.153c-1.148-0.481-2.215-1.032-3.201-1.651
			s-1.857-1.273-2.615-1.962l1.859-2.615c0.412-0.597,0.963-0.895,1.65-0.895c0.436,0,0.947,0.179,1.531,0.533
			c0.586,0.356,1.291,0.752,2.117,1.188c0.826,0.437,1.795,0.831,2.907,1.187c1.112,0.356,2.438,0.533,3.975,0.533
			c1.72,0,3.269-0.274,4.646-0.825c1.376-0.551,2.551-1.336,3.527-2.356c0.975-1.021,1.725-2.242,2.254-3.666
			c0.527-1.422,0.791-3.016,0.791-4.782c0-1.536-0.224-2.925-0.672-4.163c-0.447-1.239-1.123-2.295-2.029-3.166
			c-0.906-0.872-2.036-1.549-3.39-2.031c-1.354-0.48-2.937-0.723-4.749-0.723c-1.238,0-2.523,0.104-3.854,0.311
			c-1.33,0.206-2.707,0.539-4.129,0.998l-3.854-1.136l3.991-23.056h23.365V113.267z"/>
		<path fill="#FFFFFF" d="M403.357,135.255c0,4.313-0.465,8.046-1.394,11.2c-0.93,3.154-2.197,5.764-3.803,7.828
			c-1.606,2.064-3.505,3.602-5.694,4.611c-2.191,1.01-4.537,1.514-7.037,1.514c-2.523,0-4.869-0.504-7.037-1.514
			s-4.055-2.547-5.66-4.611c-1.606-2.064-2.868-4.674-3.785-7.828c-0.918-3.154-1.377-6.887-1.377-11.2
			c0-4.312,0.459-8.052,1.377-11.218c0.917-3.166,2.179-5.786,3.785-7.863c1.605-2.075,3.492-3.618,5.66-4.627
			c2.168-1.01,4.514-1.515,7.037-1.515c2.5,0,4.846,0.505,7.037,1.515c2.189,1.009,4.088,2.552,5.694,4.627
			c1.605,2.077,2.873,4.697,3.803,7.863C402.893,127.203,403.357,130.942,403.357,135.255z M396.991,135.255
			c0-3.763-0.315-6.922-0.946-9.479c-0.631-2.559-1.479-4.617-2.547-6.178c-1.066-1.559-2.299-2.678-3.699-3.354
			c-1.398-0.677-2.855-1.015-4.369-1.015s-2.971,0.338-4.371,1.015c-1.398,0.677-2.627,1.796-3.682,3.354
			c-1.055,1.561-1.898,3.619-2.529,6.178c-0.631,2.558-0.945,5.717-0.945,9.479s0.314,6.917,0.945,9.463s1.475,4.6,2.529,6.159
			c1.055,1.561,2.283,2.679,3.682,3.355c1.4,0.677,2.857,1.015,4.371,1.015s2.971-0.338,4.369-1.015
			c1.4-0.677,2.633-1.795,3.699-3.355c1.067-1.56,1.916-3.613,2.547-6.159S396.991,139.018,396.991,135.255z"/>
		<path fill="#FFFFFF" d="M429.749,122.488c0,1.928-0.299,3.654-0.895,5.18c-0.597,1.525-1.394,2.81-2.392,3.854
			s-2.162,1.841-3.493,2.391c-1.33,0.551-2.718,0.826-4.163,0.826c-1.561,0-3-0.275-4.318-0.826
			c-1.319-0.55-2.473-1.347-3.459-2.391s-1.755-2.328-2.305-3.854c-0.551-1.525-0.826-3.252-0.826-5.18
			c0-1.973,0.275-3.727,0.826-5.265c0.55-1.536,1.318-2.833,2.305-3.888s2.14-1.858,3.459-2.409
			c1.318-0.551,2.758-0.825,4.318-0.825c1.536,0,2.977,0.274,4.318,0.825s2.5,1.354,3.476,2.409
			c0.975,1.055,1.743,2.352,2.306,3.888C429.468,118.762,429.749,120.516,429.749,122.488z M446.988,111.821
			c0.298-0.39,0.613-0.693,0.946-0.911c0.332-0.219,0.774-0.328,1.325-0.328h4.404l-36.027,48.312
			c-0.229,0.299-0.505,0.539-0.826,0.723s-0.7,0.275-1.136,0.275h-4.542L446.988,111.821z M424.966,122.488
			c0-1.514-0.161-2.799-0.481-3.854c-0.321-1.055-0.763-1.922-1.325-2.598c-0.562-0.677-1.216-1.164-1.961-1.463
			c-0.746-0.298-1.543-0.447-2.392-0.447s-1.646,0.149-2.392,0.447c-0.746,0.299-1.394,0.786-1.944,1.463
			c-0.551,0.676-0.98,1.543-1.29,2.598s-0.465,2.34-0.465,3.854c0,1.492,0.155,2.76,0.465,3.803c0.31,1.044,0.739,1.893,1.29,2.547
			c0.551,0.653,1.198,1.123,1.944,1.41c0.745,0.287,1.543,0.43,2.392,0.43s1.646-0.143,2.392-0.43
			c0.745-0.287,1.398-0.757,1.961-1.41c0.562-0.654,1.004-1.503,1.325-2.547C424.805,125.248,424.966,123.98,424.966,122.488z
			 M457.002,148.262c0,1.928-0.299,3.647-0.895,5.162c-0.597,1.514-1.394,2.793-2.392,3.836c-0.998,1.045-2.156,1.842-3.476,2.393
			c-1.319,0.55-2.701,0.825-4.146,0.825c-1.561,0-3-0.275-4.318-0.825c-1.319-0.551-2.473-1.348-3.458-2.393
			c-0.987-1.043-1.755-2.322-2.306-3.836c-0.551-1.515-0.826-3.234-0.826-5.162c0-1.973,0.275-3.733,0.826-5.281
			c0.551-1.549,1.318-2.851,2.306-3.906c0.985-1.055,2.139-1.857,3.458-2.408c1.318-0.551,2.758-0.826,4.318-0.826
			c1.537,0,2.971,0.275,4.302,0.826c1.33,0.551,2.488,1.354,3.475,2.408c0.986,1.056,1.755,2.357,2.306,3.906
			C456.727,144.528,457.002,146.289,457.002,148.262z M452.253,148.262c0-1.514-0.16-2.805-0.481-3.871s-0.763-1.932-1.325-2.598
			c-0.562-0.665-1.216-1.146-1.961-1.445c-0.746-0.298-1.543-0.447-2.392-0.447s-1.646,0.149-2.392,0.447
			c-0.745,0.299-1.394,0.78-1.944,1.445c-0.55,0.666-0.98,1.531-1.29,2.598s-0.465,2.357-0.465,3.871
			c0,1.492,0.155,2.753,0.465,3.785s0.74,1.875,1.29,2.529c0.551,0.654,1.199,1.124,1.944,1.41c0.745,0.287,1.543,0.431,2.392,0.431
			s1.646-0.144,2.392-0.431c0.745-0.286,1.399-0.756,1.961-1.41c0.562-0.654,1.004-1.497,1.325-2.529
			S452.253,149.754,452.253,148.262z"/>
	</g>
	<g display="inline">
		<path fill="#FFFFFF" d="M333.73,709.707c1.491,0,2.873,0.184,4.146,0.551s2.414,0.883,3.424,1.548h8.775v1.136
			c0,0.574-0.322,0.884-0.965,0.93l-5.195,0.378c0.643,0.872,1.136,1.853,1.479,2.942c0.345,1.09,0.517,2.254,0.517,3.492
			c0,1.652-0.299,3.148-0.895,4.491c-0.598,1.342-1.428,2.489-2.495,3.44c-1.067,0.952-2.346,1.692-3.837,2.22
			c-1.491,0.528-3.143,0.791-4.955,0.791c-1.973,0-3.762-0.298-5.367-0.895c-0.964,0.551-1.721,1.205-2.271,1.962
			s-0.826,1.491-0.826,2.202c0,0.986,0.344,1.743,1.032,2.271c0.688,0.528,1.601,0.912,2.735,1.153
			c1.137,0.241,2.432,0.396,3.889,0.465c1.457,0.068,2.937,0.144,4.439,0.224c1.502,0.08,2.981,0.224,4.438,0.43
			c1.456,0.206,2.753,0.567,3.888,1.084c1.137,0.517,2.049,1.238,2.736,2.168c0.688,0.929,1.032,2.162,1.032,3.699
			c0,1.422-0.356,2.787-1.066,4.095c-0.712,1.308-1.737,2.466-3.08,3.476c-1.342,1.009-2.965,1.817-4.869,2.426
			c-1.904,0.607-4.038,0.912-6.399,0.912c-2.409,0-4.52-0.247-6.332-0.74s-3.332-1.158-4.56-1.996
			c-1.228-0.837-2.15-1.807-2.771-2.907c-0.619-1.102-0.929-2.271-0.929-3.51c0-1.812,0.597-3.372,1.79-4.68
			c1.191-1.308,2.832-2.317,4.92-3.028c-1.146-0.39-2.059-0.952-2.735-1.687c-0.677-0.733-1.015-1.755-1.015-3.062
			c0-0.481,0.091-0.985,0.275-1.514c0.183-0.527,0.458-1.05,0.825-1.565c0.366-0.517,0.809-1.004,1.325-1.463
			c0.516-0.458,1.118-0.871,1.807-1.238c-1.629-0.94-2.896-2.19-3.803-3.751c-0.906-1.56-1.359-3.384-1.359-5.472
			c0-1.651,0.293-3.148,0.877-4.49c0.586-1.342,1.412-2.495,2.479-3.458c1.066-0.964,2.357-1.709,3.871-2.237
			C330.221,709.971,331.895,709.707,333.73,709.707z M346.428,746.836c0-1.079-0.281-1.944-0.843-2.599
			c-0.562-0.653-1.313-1.163-2.254-1.531c-0.94-0.366-2.024-0.624-3.251-0.773c-1.229-0.149-2.513-0.259-3.854-0.327
			c-1.343-0.069-2.69-0.138-4.044-0.206c-1.354-0.069-2.615-0.207-3.785-0.413c-0.871,0.344-1.68,0.739-2.426,1.187
			c-0.745,0.447-1.382,0.952-1.909,1.515c-0.528,0.562-0.94,1.181-1.239,1.857c-0.298,0.677-0.447,1.417-0.447,2.22
			c0,1.01,0.258,1.944,0.774,2.805s1.273,1.605,2.271,2.236c0.998,0.631,2.221,1.13,3.666,1.497
			c1.444,0.367,3.107,0.551,4.988,0.551c1.744,0,3.367-0.195,4.869-0.585c1.502-0.391,2.811-0.941,3.924-1.652
			c1.111-0.711,1.983-1.56,2.615-2.546C346.112,749.084,346.428,748.006,346.428,746.836z M333.73,729.39
			c1.468,0,2.775-0.212,3.923-0.637c1.147-0.424,2.11-1.015,2.891-1.771c0.78-0.758,1.37-1.663,1.772-2.719
			c0.4-1.055,0.602-2.225,0.602-3.51c0-1.284-0.206-2.461-0.619-3.527s-1.016-1.979-1.807-2.735s-1.755-1.342-2.891-1.755
			c-1.135-0.413-2.426-0.619-3.871-0.619s-2.741,0.206-3.889,0.619c-1.146,0.413-2.115,0.998-2.907,1.755s-1.394,1.669-1.807,2.735
			s-0.619,2.243-0.619,3.527c0,1.285,0.206,2.455,0.619,3.51c0.413,1.056,1.015,1.961,1.807,2.719
			c0.792,0.757,1.761,1.348,2.907,1.771C330.989,729.178,332.285,729.39,333.73,729.39z"/>
		<path fill="#FFFFFF" d="M370.205,709.741c2.454,0,4.65,0.419,6.59,1.256c1.938,0.838,3.572,2.025,4.902,3.562
			c1.33,1.537,2.346,3.39,3.046,5.558s1.05,4.594,1.05,7.277c0,2.685-0.35,5.104-1.05,7.261c-0.7,2.157-1.716,4.004-3.046,5.54
			c-1.33,1.537-2.965,2.719-4.902,3.545c-1.939,0.825-4.136,1.238-6.59,1.238c-2.455,0-4.651-0.413-6.59-1.238
			c-1.939-0.826-3.578-2.008-4.92-3.545c-1.343-1.536-2.363-3.383-3.063-5.54c-0.7-2.156-1.05-4.576-1.05-7.261
			c0-2.684,0.35-5.109,1.05-7.277s1.721-4.021,3.063-5.558c1.342-1.536,2.98-2.724,4.92-3.562
			C365.554,710.16,367.75,709.741,370.205,709.741z M370.205,742.396c2.041,0,3.824-0.35,5.351-1.049
			c1.525-0.7,2.798-1.704,3.819-3.012c1.021-1.307,1.783-2.884,2.289-4.73c0.504-1.847,0.756-3.917,0.756-6.212
			c0-2.271-0.252-4.335-0.756-6.193c-0.506-1.858-1.269-3.446-2.289-4.766c-1.021-1.319-2.294-2.334-3.819-3.046
			c-1.526-0.711-3.31-1.066-5.351-1.066c-2.043,0-3.826,0.355-5.352,1.066c-1.525,0.712-2.799,1.727-3.818,3.046
			c-1.021,1.319-1.79,2.907-2.307,4.766c-0.516,1.858-0.773,3.923-0.773,6.193c0,2.295,0.258,4.365,0.773,6.212
			c0.517,1.847,1.285,3.424,2.307,4.73c1.02,1.308,2.293,2.312,3.818,3.012C366.379,742.047,368.162,742.396,370.205,742.396z"/>
		<path fill="#FFFFFF" d="M416.244,744.53c-0.688,0-1.112-0.321-1.273-0.964l-0.481-4.37c-0.94,0.918-1.875,1.744-2.805,2.478
			c-0.929,0.734-1.898,1.354-2.907,1.858c-1.01,0.505-2.099,0.89-3.269,1.153c-1.171,0.263-2.455,0.396-3.854,0.396
			c-1.17,0-2.305-0.172-3.406-0.517c-1.102-0.344-2.076-0.871-2.926-1.583c-0.848-0.71-1.531-1.622-2.047-2.735
			c-0.516-1.112-0.773-2.448-0.773-4.009c0-1.445,0.412-2.787,1.238-4.026c0.826-1.238,2.116-2.316,3.871-3.234
			c1.755-0.917,4.014-1.651,6.778-2.202s6.085-0.871,9.962-0.963v-3.579c0-3.166-0.683-5.603-2.047-7.312
			c-1.365-1.708-3.39-2.563-6.074-2.563c-1.651,0-3.057,0.229-4.215,0.688s-2.14,0.964-2.941,1.514
			c-0.804,0.551-1.457,1.056-1.962,1.515s-0.929,0.688-1.273,0.688c-0.459,0-0.804-0.206-1.032-0.619l-0.585-0.998
			c1.79-1.789,3.67-3.143,5.644-4.061c1.973-0.917,4.209-1.376,6.71-1.376c1.835,0,3.44,0.293,4.817,0.878
			c1.376,0.585,2.518,1.422,3.424,2.512s1.588,2.408,2.047,3.957s0.688,3.274,0.688,5.179v22.298H416.244z M402.48,742.706
			c1.33,0,2.552-0.143,3.664-0.43c1.113-0.286,2.146-0.688,3.098-1.204c0.951-0.517,1.841-1.13,2.666-1.841
			c0.826-0.711,1.641-1.48,2.443-2.306v-8.912c-3.258,0.092-6.062,0.339-8.413,0.739c-2.352,0.402-4.29,0.946-5.815,1.635
			s-2.649,1.509-3.372,2.46c-0.723,0.952-1.084,2.036-1.084,3.252c0,1.147,0.189,2.14,0.567,2.977
			c0.379,0.838,0.878,1.526,1.497,2.064c0.62,0.539,1.343,0.936,2.168,1.188C400.726,742.581,401.586,742.706,402.48,742.706z"/>
		<path fill="#FFFFFF" d="M432.107,694.463v50.067h-3.269v-50.067H432.107z"/>
		<path fill="#FFFFFF" d="M463.076,714.559c-0.161,0.322-0.413,0.482-0.758,0.482c-0.252,0-0.579-0.144-0.98-0.431
			c-0.401-0.286-0.929-0.607-1.583-0.963c-0.653-0.355-1.457-0.677-2.408-0.964c-0.952-0.286-2.116-0.43-3.493-0.43
			c-1.238,0-2.368,0.177-3.389,0.532c-1.021,0.354-1.893,0.829-2.615,1.424s-1.285,1.287-1.687,2.076s-0.603,1.619-0.603,2.488
			c0,1.075,0.275,1.968,0.826,2.677s1.273,1.315,2.168,1.818s1.91,0.938,3.045,1.305c1.136,0.366,2.3,0.732,3.493,1.1
			c1.192,0.367,2.357,0.773,3.492,1.221c1.136,0.448,2.151,1.004,3.046,1.669c0.895,0.666,1.617,1.48,2.168,2.443
			c0.55,0.964,0.825,2.134,0.825,3.51c0,1.492-0.27,2.88-0.809,4.164c-0.539,1.285-1.319,2.397-2.34,3.338s-2.276,1.686-3.768,2.236
			s-3.189,0.826-5.093,0.826c-2.409,0-4.485-0.385-6.229-1.153c-1.743-0.768-3.304-1.771-4.68-3.011l0.791-1.17
			c0.115-0.184,0.241-0.321,0.379-0.413c0.138-0.091,0.332-0.138,0.585-0.138c0.298,0,0.665,0.185,1.102,0.551
			c0.436,0.367,1.003,0.763,1.703,1.188c0.699,0.425,1.571,0.82,2.615,1.187c1.043,0.368,2.334,0.551,3.871,0.551
			c1.445,0,2.718-0.2,3.819-0.602s2.019-0.946,2.753-1.635c0.733-0.688,1.29-1.497,1.669-2.426c0.378-0.93,0.567-1.91,0.567-2.942
			c0-1.146-0.275-2.099-0.825-2.856c-0.551-0.757-1.273-1.398-2.168-1.927c-0.895-0.527-1.91-0.975-3.046-1.342
			c-1.135-0.366-2.306-0.733-3.51-1.102c-1.204-0.366-2.374-0.768-3.51-1.204c-1.136-0.436-2.15-0.986-3.045-1.651
			s-1.617-1.474-2.168-2.426s-0.826-2.139-0.826-3.562c0-1.216,0.264-2.386,0.792-3.51c0.527-1.124,1.278-2.11,2.254-2.96
			c0.975-0.848,2.161-1.525,3.562-2.03c1.398-0.504,2.97-0.757,4.714-0.757c2.087,0,3.939,0.303,5.558,0.907
			c1.617,0.604,3.102,1.529,4.456,2.775L463.076,714.559z"/>
	</g>
	<path display="inline" opacity="0.2" fill="#F3F2F2" d="M680,462.675c0,12.668-9.588,23.591-22.256,23.591H130.12
		c-12.671,0-23.12-10.923-23.12-23.591v-68.822c0-12.669,10.449-22.587,23.12-22.587h527.624c12.668,0,22.256,9.918,22.256,22.587
		V462.675z"/>
	<g display="inline">
		<rect x="136.163" y="412.253" fill="none" width="511.673" height="41.197"/>
		<path fill="#FFFFFF" d="M144.063,449.086h8.479V422.19c0-0.808,0.027-1.624,0.082-2.45l-7.047,6.029
			c-0.184,0.146-0.367,0.252-0.551,0.316s-0.357,0.096-0.523,0.096c-0.275,0-0.523-0.059-0.743-0.179
			c-0.22-0.119-0.386-0.262-0.495-0.427l-1.542-2.119l11.728-10.158h3.991v35.787h7.763v3.743h-21.142V449.086z"/>
		<path fill="#FFFFFF" d="M184.64,412.941c1.67,0,3.229,0.247,4.68,0.742c1.45,0.496,2.702,1.217,3.758,2.161
			c1.056,0.946,1.886,2.097,2.491,3.455s0.908,2.899,0.908,4.624c0,1.469-0.221,2.827-0.66,4.074
			c-0.441,1.249-1.037,2.446-1.789,3.594c-0.754,1.146-1.621,2.257-2.602,3.33c-0.982,1.074-2.023,2.17-3.125,3.289l-10.378,10.627
			c0.733-0.202,1.478-0.362,2.229-0.482c0.752-0.119,1.477-0.179,2.175-0.179h13.214c0.531,0,0.953,0.156,1.266,0.468
			c0.312,0.312,0.469,0.716,0.469,1.211v2.974h-26.317v-1.679c0-0.35,0.069-0.707,0.206-1.074c0.139-0.367,0.363-0.706,0.675-1.019
			l12.636-12.69c1.046-1.064,2-2.088,2.863-3.069c0.861-0.981,1.601-1.968,2.215-2.96c0.615-0.99,1.088-1.995,1.418-3.014
			s0.496-2.105,0.496-3.262s-0.184-2.17-0.551-3.043c-0.367-0.871-0.871-1.592-1.514-2.16s-1.395-0.996-2.258-1.28
			s-1.789-0.427-2.78-0.427s-1.909,0.147-2.753,0.44c-0.844,0.294-1.592,0.702-2.243,1.226c-0.651,0.522-1.202,1.143-1.651,1.857
			c-0.45,0.717-0.768,1.506-0.95,2.367c-0.147,0.533-0.367,0.918-0.661,1.156c-0.293,0.239-0.679,0.358-1.156,0.358
			c-0.092,0-0.188-0.005-0.289-0.014c-0.101-0.009-0.215-0.022-0.344-0.042l-2.561-0.439c0.258-1.799,0.753-3.391,1.487-4.776
			c0.733-1.386,1.665-2.546,2.794-3.482s2.422-1.647,3.881-2.134S182.951,412.941,184.64,412.941z"/>
		<path fill="#FFFFFF" d="M230.309,433.119c0,3.45-0.372,6.438-1.115,8.96c-0.743,2.524-1.758,4.611-3.041,6.263
			c-1.285,1.652-2.805,2.882-4.557,3.689c-1.753,0.807-3.629,1.211-5.629,1.211c-2.02,0-3.896-0.404-5.631-1.211
			c-1.733-0.808-3.243-2.037-4.527-3.689c-1.285-1.651-2.295-3.738-3.028-6.263c-0.734-2.522-1.101-5.51-1.101-8.96
			s0.366-6.441,1.101-8.975c0.733-2.532,1.743-4.629,3.028-6.29c1.284-1.661,2.794-2.895,4.527-3.702
			c1.734-0.808,3.611-1.211,5.631-1.211c2,0,3.876,0.403,5.629,1.211c1.752,0.808,3.271,2.041,4.557,3.702
			c1.283,1.661,2.298,3.758,3.041,6.29C229.937,426.678,230.309,429.669,230.309,433.119z M225.216,433.119
			c0-3.01-0.253-5.537-0.757-7.584c-0.506-2.047-1.184-3.693-2.037-4.941s-1.84-2.143-2.959-2.684
			c-1.12-0.541-2.285-0.812-3.496-0.812c-1.212,0-2.377,0.271-3.496,0.812c-1.12,0.541-2.102,1.436-2.946,2.684
			s-1.519,2.895-2.022,4.941c-0.506,2.047-0.758,4.574-0.758,7.584s0.252,5.533,0.758,7.57c0.504,2.037,1.178,3.68,2.022,4.928
			s1.826,2.143,2.946,2.684c1.119,0.541,2.284,0.812,3.496,0.812c1.211,0,2.376-0.271,3.496-0.812
			c1.119-0.541,2.105-1.436,2.959-2.684s1.531-2.891,2.037-4.928C224.963,438.652,225.216,436.129,225.216,433.119z"/>
		<path fill="#FFFFFF" d="M262.24,433.119c0,3.45-0.371,6.438-1.115,8.96c-0.742,2.524-1.757,4.611-3.041,6.263
			c-1.285,1.652-2.804,2.882-4.557,3.689c-1.752,0.807-3.629,1.211-5.629,1.211c-2.02,0-3.896-0.404-5.63-1.211
			c-1.733-0.808-3.243-2.037-4.528-3.689c-1.285-1.651-2.294-3.738-3.027-6.263c-0.734-2.522-1.102-5.51-1.102-8.96
			s0.367-6.441,1.102-8.975c0.733-2.532,1.742-4.629,3.027-6.29s2.795-2.895,4.528-3.702c1.734-0.808,3.61-1.211,5.63-1.211
			c2,0,3.877,0.403,5.629,1.211c1.753,0.808,3.271,2.041,4.557,3.702c1.284,1.661,2.299,3.758,3.041,6.29
			C261.869,426.678,262.24,429.669,262.24,433.119z M257.148,433.119c0-3.01-0.253-5.537-0.758-7.584s-1.184-3.693-2.037-4.941
			s-1.84-2.143-2.959-2.684s-2.285-0.812-3.496-0.812s-2.377,0.271-3.496,0.812s-2.102,1.436-2.945,2.684
			c-0.845,1.248-1.52,2.895-2.023,4.941c-0.506,2.047-0.758,4.574-0.758,7.584s0.252,5.533,0.758,7.57
			c0.504,2.037,1.179,3.68,2.023,4.928c0.844,1.248,1.826,2.143,2.945,2.684s2.285,0.812,3.496,0.812s2.377-0.271,3.496-0.812
			s2.105-1.436,2.959-2.684s1.532-2.891,2.037-4.928S257.148,436.129,257.148,433.119z"/>
		<path fill="#FFFFFF" d="M294.502,429.54c-0.22,0.404-0.56,0.606-1.018,0.606c-0.275,0-0.588-0.102-0.937-0.303
			c-0.349-0.203-0.775-0.428-1.28-0.676c-0.504-0.247-1.105-0.477-1.803-0.688s-1.523-0.316-2.478-0.316
			c-0.825,0-1.569,0.105-2.229,0.316c-0.661,0.211-1.225,0.5-1.693,0.867c-0.468,0.367-0.826,0.794-1.073,1.279
			c-0.248,0.487-0.372,1.015-0.372,1.584c0,0.715,0.207,1.312,0.619,1.789c0.414,0.477,0.959,0.891,1.639,1.238
			c0.679,0.35,1.449,0.656,2.312,0.922c0.861,0.268,1.748,0.551,2.656,0.854s1.793,0.639,2.656,1.006
			c0.862,0.367,1.633,0.825,2.312,1.376c0.679,0.55,1.225,1.225,1.638,2.022c0.413,0.799,0.62,1.758,0.62,2.877
			c0,1.285-0.23,2.474-0.689,3.565s-1.138,2.037-2.037,2.835c-0.898,0.799-2,1.428-3.303,1.886
			c-1.303,0.459-2.808,0.688-4.515,0.688c-1.945,0-3.707-0.316-5.285-0.949c-1.579-0.634-2.918-1.445-4.02-2.437l1.156-1.872
			c0.147-0.238,0.321-0.422,0.522-0.551c0.203-0.128,0.469-0.192,0.799-0.192s0.679,0.128,1.047,0.386
			c0.366,0.257,0.812,0.541,1.334,0.854c0.523,0.312,1.156,0.596,1.9,0.853c0.742,0.257,1.674,0.386,2.794,0.386
			c0.954,0,1.789-0.124,2.505-0.371c0.716-0.248,1.312-0.583,1.789-1.006c0.477-0.422,0.83-0.908,1.061-1.459
			c0.229-0.551,0.344-1.137,0.344-1.762c0-0.771-0.207-1.408-0.619-1.913c-0.413-0.505-0.959-0.936-1.639-1.294
			c-0.679-0.357-1.454-0.67-2.326-0.936c-0.871-0.266-1.762-0.546-2.67-0.84c-0.908-0.293-1.799-0.629-2.67-1.005
			c-0.872-0.376-1.647-0.849-2.326-1.417c-0.68-0.569-1.225-1.271-1.639-2.106c-0.412-0.835-0.619-1.849-0.619-3.042
			c0-1.064,0.221-2.088,0.661-3.069s1.083-1.845,1.927-2.587c0.844-0.744,1.881-1.336,3.111-1.776
			c1.229-0.44,2.633-0.661,4.211-0.661c1.836,0,3.482,0.289,4.941,0.867s2.721,1.373,3.785,2.382L294.502,429.54z"/>
		<path fill="#FFFFFF" d="M310.881,453.27c-2.201,0-3.895-0.614-5.078-1.844c-1.184-1.23-1.775-3.001-1.775-5.313v-17.067h-3.359
			c-0.293,0-0.541-0.087-0.742-0.262c-0.203-0.174-0.303-0.445-0.303-0.812v-1.954l4.568-0.578l1.129-8.616
			c0.037-0.275,0.156-0.5,0.358-0.674c0.202-0.175,0.458-0.262,0.771-0.262h2.478v9.607h7.983v3.551h-7.983v16.736
			c0,1.176,0.284,2.047,0.854,2.615c0.569,0.57,1.303,0.854,2.202,0.854c0.514,0,0.959-0.068,1.336-0.206
			c0.375-0.138,0.701-0.289,0.977-0.454s0.51-0.316,0.702-0.454s0.362-0.206,0.509-0.206c0.257,0,0.486,0.156,0.688,0.467
			l1.432,2.34c-0.845,0.79-1.863,1.409-3.056,1.858C313.377,453.045,312.148,453.27,310.881,453.27z"/>
		<path fill="#FFFFFF" d="M334.004,424.502c1.67,0,3.211,0.281,4.625,0.84c1.413,0.561,2.633,1.367,3.661,2.423
			s1.831,2.358,2.409,3.909s0.867,3.316,0.867,5.299c0,0.771-0.083,1.285-0.248,1.542s-0.478,0.386-0.936,0.386h-18.555
			c0.037,1.762,0.275,3.294,0.716,4.597c0.44,1.304,1.046,2.391,1.817,3.263c0.771,0.871,1.688,1.523,2.752,1.954
			s2.258,0.646,3.579,0.646c1.229,0,2.289-0.142,3.18-0.427c0.89-0.284,1.655-0.592,2.298-0.922s1.18-0.638,1.611-0.922
			c0.431-0.285,0.803-0.428,1.115-0.428c0.402,0,0.715,0.156,0.936,0.469l1.376,1.789c-0.605,0.734-1.331,1.372-2.175,1.914
			c-0.844,0.541-1.748,0.986-2.711,1.334c-0.964,0.35-1.959,0.61-2.987,0.785c-1.028,0.174-2.046,0.262-3.056,0.262
			c-1.927,0-3.702-0.326-5.326-0.978c-1.625-0.651-3.028-1.606-4.212-2.862c-1.185-1.258-2.106-2.812-2.767-4.666
			c-0.661-1.854-0.991-3.982-0.991-6.387c0-1.945,0.298-3.762,0.895-5.451c0.597-1.688,1.454-3.152,2.574-4.391
			c1.119-1.238,2.486-2.211,4.102-2.918C330.168,424.855,331.985,424.502,334.004,424.502z M334.114,428.109
			c-2.367,0-4.23,0.684-5.589,2.051c-1.357,1.367-2.201,3.262-2.531,5.684h15.168c0-1.137-0.156-2.179-0.469-3.124
			c-0.312-0.944-0.771-1.762-1.376-2.45c-0.606-0.688-1.345-1.221-2.216-1.596C336.229,428.297,335.233,428.109,334.114,428.109z"/>
		<path fill="#FFFFFF" d="M351.814,462.271v-37.328h2.918c0.697,0,1.137,0.34,1.32,1.018l0.414,3.305
			c1.192-1.45,2.555-2.615,4.088-3.496c1.531-0.881,3.299-1.322,5.299-1.322c1.597,0,3.046,0.308,4.35,0.922
			c1.303,0.615,2.412,1.523,3.33,2.727c0.918,1.201,1.625,2.693,2.12,4.473c0.495,1.78,0.743,3.826,0.743,6.139
			c0,2.056-0.275,3.969-0.826,5.74c-0.55,1.771-1.34,3.303-2.367,4.597s-2.289,2.312-3.785,3.056s-3.18,1.115-5.051,1.115
			c-1.726,0-3.198-0.285-4.418-0.854c-1.221-0.568-2.299-1.377-3.235-2.423v12.333H351.814z M364.229,428.412
			c-1.597,0-2.997,0.367-4.198,1.101c-1.202,0.734-2.309,1.771-3.317,3.11v13.489c0.899,1.211,1.886,2.064,2.96,2.56
			c1.073,0.496,2.271,0.744,3.592,0.744c2.588,0,4.579-0.927,5.974-2.781c1.395-1.854,2.093-4.496,2.093-7.928
			c0-1.816-0.161-3.377-0.482-4.68s-0.784-2.371-1.391-3.207c-0.605-0.835-1.348-1.445-2.229-1.83
			C366.35,428.604,365.349,428.412,364.229,428.412z"/>
		<path fill="#FFFFFF" d="M398.171,429.54c-0.22,0.404-0.56,0.606-1.019,0.606c-0.275,0-0.588-0.102-0.936-0.303
			c-0.35-0.203-0.775-0.428-1.28-0.676c-0.505-0.247-1.106-0.477-1.804-0.688s-1.523-0.316-2.477-0.316
			c-0.826,0-1.569,0.105-2.23,0.316c-0.66,0.211-1.225,0.5-1.693,0.867c-0.467,0.367-0.825,0.794-1.072,1.279
			c-0.248,0.487-0.373,1.015-0.373,1.584c0,0.715,0.207,1.312,0.62,1.789s0.958,0.891,1.638,1.238
			c0.68,0.35,1.449,0.656,2.312,0.922c0.862,0.268,1.748,0.551,2.656,0.854s1.794,0.639,2.656,1.006
			c0.863,0.367,1.634,0.825,2.312,1.376c0.68,0.55,1.226,1.225,1.639,2.022c0.412,0.799,0.619,1.758,0.619,2.877
			c0,1.285-0.229,2.474-0.688,3.565s-1.138,2.037-2.037,2.835c-0.899,0.799-2.001,1.428-3.304,1.886
			c-1.303,0.459-2.807,0.688-4.514,0.688c-1.945,0-3.707-0.316-5.285-0.949c-1.579-0.634-2.918-1.445-4.02-2.437l1.156-1.872
			c0.146-0.238,0.32-0.422,0.522-0.551c0.202-0.128,0.468-0.192,0.798-0.192c0.331,0,0.68,0.128,1.047,0.386
			c0.367,0.257,0.812,0.541,1.335,0.854c0.522,0.312,1.156,0.596,1.899,0.853s1.675,0.386,2.795,0.386
			c0.953,0,1.789-0.124,2.504-0.371c0.717-0.248,1.312-0.583,1.789-1.006c0.478-0.422,0.831-0.908,1.061-1.459
			s0.344-1.137,0.344-1.762c0-0.771-0.206-1.408-0.619-1.913c-0.412-0.505-0.959-0.936-1.638-1.294
			c-0.679-0.357-1.454-0.67-2.326-0.936s-1.762-0.546-2.671-0.84c-0.908-0.293-1.799-0.629-2.67-1.005s-1.646-0.849-2.326-1.417
			c-0.679-0.569-1.225-1.271-1.638-2.106s-0.619-1.849-0.619-3.042c0-1.064,0.22-2.088,0.661-3.069
			c0.439-0.981,1.082-1.845,1.926-2.587c0.844-0.744,1.881-1.336,3.111-1.776c1.229-0.44,2.633-0.661,4.212-0.661
			c1.835,0,3.481,0.289,4.94,0.867s2.721,1.373,3.786,2.382L398.171,429.54z"/>
	</g>
	<path display="inline" opacity="0.2" fill="#F3F2F2" d="M680,336.502c0,12.67-9.588,22.764-22.256,22.764H130.12
		c-12.671,0-23.12-10.094-23.12-22.764v-68.82c0-12.67,10.449-22.416,23.12-22.416h527.624c12.668,0,22.256,9.746,22.256,22.416
		V336.502z"/>
	
		<line display="inline" fill="none" stroke="#FFFFFF" stroke-width="4" stroke-linecap="round" stroke-miterlimit="10" x1="394" y1="526.266" x2="394" y2="583.266"/>
	
		<line display="inline" fill="none" stroke="#FFFFFF" stroke-width="4" stroke-linecap="round" stroke-miterlimit="10" x1="366" y1="556.266" x2="422" y2="556.266"/>
	<g display="inline">
		<circle opacity="0.4" fill="#FFFFFF" cx="302.548" cy="790.049" r="11.47"/>
		<path opacity="0.4" fill="#FFFFFF" d="M350.723,790.049c0,6.336-5.139,11.47-11.471,11.47c-6.336,0-11.471-5.134-11.471-11.47
			c0-6.333,5.135-11.472,11.471-11.472C345.584,778.577,350.723,783.716,350.723,790.049z"/>
		<circle opacity="0.4" fill="#FFFFFF" cx="375.956" cy="790.049" r="11.47"/>
		<circle opacity="0.4" fill="#FFFFFF" cx="412.659" cy="790.049" r="11.47"/>
		<circle fill="#FFFFFF" cx="449.364" cy="790.049" r="11.47"/>
		<circle opacity="0.4" fill="#FFFFFF" cx="486.069" cy="790.049" r="11.47"/>
	</g>
	<g display="inline">
		<path fill="none" stroke="#FFFFFF" stroke-width="4" stroke-miterlimit="10" d="M416,678.656c0,8.679-6.271,16.609-14.951,16.609
			h-25.926c-8.678,0-16.123-7.931-16.123-16.609v-25.928c0-8.674,7.445-14.463,16.123-14.463h25.926
			c8.68,0,14.951,5.789,14.951,14.463V678.656z"/>
		<polyline fill="none" stroke="#FFFFFF" stroke-width="4" stroke-miterlimit="10" points="375.688,657.806 391.281,673.401 
			427.014,637.67 		"/>
	</g>
	<g display="inline">
		<rect x="135.733" y="283.788" fill="none" width="511.675" height="41.196"/>
		<path fill="#FFFFFF" d="M152.277,284.477c1.67,0,3.23,0.248,4.68,0.743c1.45,0.495,2.703,1.216,3.758,2.161
			c1.056,0.945,1.887,2.097,2.492,3.455c0.605,1.357,0.908,2.899,0.908,4.624c0,1.469-0.221,2.827-0.661,4.074
			c-0.44,1.249-1.036,2.446-1.789,3.593s-1.62,2.258-2.602,3.33c-0.981,1.074-2.023,2.171-3.124,3.29l-10.379,10.626
			c0.734-0.201,1.478-0.361,2.23-0.481c0.752-0.119,1.477-0.179,2.174-0.179h13.215c0.531,0,0.953,0.156,1.266,0.468
			s0.468,0.716,0.468,1.211v2.974h-26.317v-1.68c0-0.349,0.069-0.706,0.207-1.074c0.138-0.366,0.362-0.705,0.674-1.018
			l12.637-12.691c1.045-1.063,2-2.087,2.862-3.068c0.862-0.982,1.601-1.969,2.216-2.96s1.088-1.995,1.418-3.015
			c0.33-1.018,0.496-2.105,0.496-3.262s-0.184-2.17-0.551-3.042c-0.367-0.871-0.872-1.592-1.515-2.161
			c-0.643-0.568-1.395-0.995-2.257-1.279c-0.863-0.285-1.789-0.428-2.781-0.428c-0.99,0-1.908,0.148-2.752,0.441
			c-0.845,0.293-1.593,0.701-2.244,1.225s-1.201,1.143-1.651,1.858s-0.767,1.505-0.95,2.367c-0.146,0.532-0.367,0.918-0.66,1.156
			c-0.294,0.239-0.68,0.358-1.156,0.358c-0.092,0-0.188-0.005-0.289-0.014c-0.102-0.01-0.216-0.023-0.344-0.042l-2.561-0.44
			c0.257-1.799,0.752-3.391,1.486-4.775c0.734-1.387,1.666-2.547,2.795-3.482c1.128-0.937,2.422-1.647,3.881-2.134
			S150.59,284.477,152.277,284.477z"/>
		<path fill="#FFFFFF" d="M197.947,304.654c0,3.451-0.373,6.438-1.115,8.961c-0.744,2.523-1.758,4.611-3.042,6.262
			c-1.285,1.652-2.804,2.883-4.556,3.689c-1.754,0.807-3.63,1.211-5.63,1.211c-2.019,0-3.896-0.404-5.63-1.211
			s-3.244-2.037-4.528-3.689c-1.284-1.65-2.294-3.738-3.028-6.262s-1.101-5.51-1.101-8.961c0-3.449,0.366-6.441,1.101-8.975
			c0.734-2.531,1.744-4.629,3.028-6.289c1.284-1.661,2.794-2.895,4.528-3.703c1.734-0.807,3.611-1.211,5.63-1.211
			c2,0,3.876,0.404,5.63,1.211c1.752,0.809,3.271,2.042,4.556,3.703c1.284,1.66,2.298,3.758,3.042,6.289
			C197.574,298.213,197.947,301.205,197.947,304.654z M192.854,304.654c0-3.01-0.252-5.537-0.757-7.584
			c-0.505-2.046-1.184-3.693-2.037-4.941c-0.853-1.248-1.84-2.143-2.959-2.684c-1.12-0.541-2.285-0.812-3.496-0.812
			c-1.212,0-2.377,0.271-3.496,0.812c-1.12,0.541-2.102,1.436-2.946,2.684c-0.844,1.248-1.518,2.896-2.022,4.941
			c-0.505,2.047-0.757,4.574-0.757,7.584s0.252,5.533,0.757,7.57s1.179,3.68,2.022,4.928c0.845,1.248,1.826,2.143,2.946,2.684
			c1.119,0.542,2.284,0.812,3.496,0.812c1.211,0,2.376-0.271,3.496-0.812c1.119-0.541,2.106-1.436,2.959-2.684
			c0.854-1.248,1.532-2.891,2.037-4.928S192.854,307.664,192.854,304.654z"/>
		<path fill="#FFFFFF" d="M229.879,304.654c0,3.451-0.372,6.438-1.115,8.961s-1.758,4.611-3.041,6.262
			c-1.285,1.652-2.805,2.883-4.557,3.689c-1.753,0.807-3.629,1.211-5.629,1.211c-2.02,0-3.896-0.404-5.631-1.211
			c-1.733-0.807-3.243-2.037-4.527-3.689c-1.285-1.65-2.295-3.738-3.028-6.262c-0.734-2.523-1.101-5.51-1.101-8.961
			c0-3.449,0.366-6.441,1.101-8.975c0.733-2.531,1.743-4.629,3.028-6.289c1.284-1.661,2.794-2.895,4.527-3.703
			c1.734-0.807,3.611-1.211,5.631-1.211c2,0,3.876,0.404,5.629,1.211c1.752,0.809,3.271,2.042,4.557,3.703
			c1.283,1.66,2.298,3.758,3.041,6.289C229.507,298.213,229.879,301.205,229.879,304.654z M224.786,304.654
			c0-3.01-0.253-5.537-0.757-7.584c-0.506-2.046-1.184-3.693-2.037-4.941s-1.84-2.143-2.959-2.684
			c-1.12-0.541-2.285-0.812-3.496-0.812c-1.212,0-2.377,0.271-3.496,0.812c-1.12,0.541-2.102,1.436-2.946,2.684
			s-1.519,2.896-2.022,4.941c-0.506,2.047-0.758,4.574-0.758,7.584s0.252,5.533,0.758,7.57c0.504,2.037,1.178,3.68,2.022,4.928
			s1.826,2.143,2.946,2.684c1.119,0.542,2.284,0.812,3.496,0.812c1.211,0,2.376-0.271,3.496-0.812
			c1.119-0.541,2.105-1.436,2.959-2.684s1.531-2.891,2.037-4.928C224.533,310.188,224.786,307.664,224.786,304.654z"/>
		<path fill="#FFFFFF" d="M262.141,301.076c-0.221,0.404-0.561,0.605-1.019,0.605c-0.274,0-0.587-0.101-0.937-0.303
			c-0.348-0.202-0.775-0.427-1.279-0.675c-0.505-0.247-1.105-0.478-1.803-0.688c-0.698-0.211-1.523-0.316-2.479-0.316
			c-0.825,0-1.568,0.105-2.229,0.316c-0.662,0.211-1.226,0.5-1.693,0.867c-0.469,0.367-0.826,0.795-1.074,1.28
			c-0.248,0.487-0.371,1.015-0.371,1.583c0,0.716,0.206,1.312,0.619,1.789c0.413,0.478,0.959,0.891,1.638,1.239
			s1.45,0.656,2.312,0.922c0.862,0.267,1.748,0.551,2.657,0.854c0.908,0.303,1.793,0.638,2.656,1.005
			c0.861,0.367,1.633,0.826,2.312,1.377c0.678,0.55,1.225,1.225,1.637,2.022c0.414,0.798,0.62,1.758,0.62,2.877
			c0,1.284-0.229,2.474-0.688,3.565s-1.139,2.037-2.037,2.835c-0.899,0.798-2,1.427-3.303,1.886
			c-1.304,0.459-2.809,0.688-4.516,0.688c-1.945,0-3.707-0.316-5.285-0.949s-2.918-1.445-4.02-2.436l1.156-1.873
			c0.147-0.238,0.321-0.422,0.523-0.551c0.202-0.127,0.469-0.191,0.799-0.191s0.678,0.128,1.046,0.385
			c0.366,0.258,0.812,0.541,1.335,0.854s1.156,0.597,1.899,0.854s1.675,0.385,2.794,0.385c0.954,0,1.789-0.123,2.506-0.371
			c0.715-0.248,1.312-0.582,1.789-1.005c0.477-0.422,0.83-0.909,1.06-1.459c0.229-0.551,0.345-1.138,0.345-1.762
			c0-0.771-0.207-1.408-0.62-1.913s-0.959-0.936-1.638-1.294c-0.68-0.358-1.455-0.67-2.326-0.937
			c-0.872-0.266-1.762-0.545-2.67-0.84c-0.908-0.293-1.799-0.628-2.67-1.004c-0.873-0.376-1.648-0.85-2.326-1.418
			c-0.68-0.568-1.226-1.271-1.639-2.105c-0.413-0.836-0.619-1.85-0.619-3.043c0-1.063,0.221-2.087,0.66-3.068
			c0.441-0.982,1.083-1.845,1.928-2.588c0.844-0.743,1.881-1.336,3.11-1.775c1.229-0.441,2.634-0.661,4.212-0.661
			c1.835,0,3.482,0.289,4.941,0.867s2.721,1.372,3.785,2.382L262.141,301.076z"/>
		<path fill="#FFFFFF" d="M278.52,324.805c-2.202,0-3.895-0.614-5.079-1.844c-1.184-1.229-1.775-3-1.775-5.312V300.58h-3.358
			c-0.294,0-0.541-0.086-0.743-0.262c-0.202-0.174-0.303-0.444-0.303-0.812v-1.954l4.569-0.578l1.129-8.617
			c0.037-0.275,0.156-0.5,0.357-0.674c0.202-0.174,0.459-0.262,0.771-0.262h2.477v9.607h7.984v3.551h-7.984v16.737
			c0,1.175,0.285,2.047,0.854,2.615c0.569,0.569,1.303,0.854,2.203,0.854c0.514,0,0.959-0.069,1.335-0.206
			c0.376-0.139,0.702-0.289,0.978-0.455c0.275-0.164,0.509-0.316,0.701-0.453c0.193-0.139,0.362-0.207,0.51-0.207
			c0.256,0,0.486,0.156,0.688,0.468l1.432,2.34c-0.844,0.79-1.863,1.409-3.055,1.858C281.016,324.58,279.786,324.805,278.52,324.805
			z"/>
		<path fill="#FFFFFF" d="M311.084,324.365h-2.174c-0.478,0-0.863-0.074-1.156-0.221c-0.294-0.146-0.486-0.459-0.578-0.936
			l-0.551-2.588c-0.734,0.66-1.45,1.252-2.146,1.775c-0.698,0.523-1.432,0.963-2.203,1.321c-0.771,0.358-1.592,0.629-2.463,0.812
			c-0.873,0.184-1.841,0.275-2.904,0.275c-1.084,0-2.098-0.152-3.043-0.455c-0.945-0.304-1.766-0.76-2.463-1.367
			c-0.698-0.607-1.253-1.377-1.666-2.307c-0.412-0.93-0.619-2.03-0.619-3.301c0-1.105,0.303-2.168,0.908-3.19
			s1.583-1.929,2.932-2.722c1.35-0.791,3.115-1.44,5.299-1.947c2.185-0.506,4.854-0.76,8.012-0.76v-2.188
			c0-2.18-0.465-3.828-1.391-4.945c-0.927-1.117-2.299-1.676-4.115-1.676c-1.193,0-2.198,0.151-3.015,0.454
			c-0.817,0.303-1.523,0.643-2.12,1.019c-0.596,0.377-1.109,0.716-1.541,1.019s-0.857,0.454-1.28,0.454
			c-0.33,0-0.619-0.087-0.867-0.262c-0.247-0.174-0.444-0.389-0.592-0.646l-0.881-1.569c1.542-1.486,3.202-2.597,4.983-3.331
			c1.779-0.733,3.752-1.101,5.918-1.101c1.56,0,2.945,0.257,4.156,0.771c1.212,0.514,2.23,1.23,3.057,2.147
			c0.825,0.917,1.449,2.028,1.871,3.331s0.633,2.734,0.633,4.294V324.365z M298.367,321.364c0.861,0,1.65-0.087,2.367-0.262
			c0.715-0.175,1.39-0.422,2.023-0.743c0.633-0.32,1.238-0.711,1.816-1.17s1.143-0.981,1.693-1.569v-5.753
			c-2.258,0-4.176,0.143-5.754,0.43c-1.578,0.285-2.863,0.66-3.854,1.121c-0.991,0.461-1.712,1.006-2.161,1.633
			c-0.45,0.629-0.675,1.33-0.675,2.104c0,0.739,0.119,1.376,0.357,1.911s0.561,0.974,0.964,1.314
			c0.403,0.342,0.882,0.592,1.432,0.748C297.128,321.285,297.725,321.364,298.367,321.364z"/>
		<path fill="#FFFFFF" d="M325.068,287.725c0,0.478-0.096,0.922-0.289,1.336c-0.193,0.412-0.449,0.779-0.771,1.101
			s-0.693,0.573-1.115,0.757c-0.423,0.184-0.872,0.275-1.349,0.275c-0.478,0-0.922-0.092-1.336-0.275
			c-0.412-0.184-0.779-0.436-1.101-0.757s-0.573-0.688-0.757-1.101c-0.184-0.414-0.275-0.858-0.275-1.336
			c0-0.477,0.092-0.932,0.275-1.363c0.184-0.43,0.436-0.807,0.757-1.128s0.688-0.573,1.101-0.757
			c0.414-0.184,0.858-0.275,1.336-0.275c0.477,0,0.926,0.092,1.349,0.275c0.422,0.184,0.794,0.436,1.115,0.757
			s0.577,0.698,0.771,1.128C324.973,286.793,325.068,287.248,325.068,287.725z M323.967,296.479v27.887h-4.899v-27.887H323.967z"/>
		<path fill="#FFFFFF" d="M332.611,324.365v-27.887h2.808c0.532,0,0.899,0.102,1.101,0.303c0.202,0.202,0.34,0.551,0.413,1.047
			l0.331,4.35c0.953-1.945,2.133-3.465,3.537-4.557s3.051-1.638,4.941-1.638c0.771,0,1.468,0.087,2.092,0.261
			c0.623,0.176,1.201,0.418,1.734,0.73l-0.633,3.66c-0.129,0.459-0.413,0.689-0.854,0.689c-0.258,0-0.652-0.088-1.184-0.262
			c-0.533-0.175-1.276-0.262-2.23-0.262c-1.707,0-3.134,0.495-4.28,1.486c-1.147,0.991-2.106,2.432-2.877,4.322v17.756H332.611z"/>
		<path fill="#FFFFFF" d="M370.765,301.076c-0.22,0.404-0.56,0.605-1.019,0.605c-0.275,0-0.588-0.101-0.936-0.303
			c-0.35-0.202-0.775-0.427-1.28-0.675c-0.505-0.247-1.106-0.478-1.804-0.688s-1.523-0.316-2.477-0.316
			c-0.826,0-1.569,0.105-2.23,0.316c-0.66,0.211-1.225,0.5-1.693,0.867c-0.467,0.367-0.825,0.795-1.072,1.28
			c-0.248,0.487-0.373,1.015-0.373,1.583c0,0.716,0.207,1.312,0.62,1.789c0.413,0.478,0.958,0.891,1.638,1.239
			s1.449,0.656,2.312,0.922c0.862,0.267,1.748,0.551,2.656,0.854s1.794,0.638,2.656,1.005c0.863,0.367,1.634,0.826,2.312,1.377
			c0.68,0.55,1.226,1.225,1.639,2.022c0.412,0.798,0.619,1.758,0.619,2.877c0,1.284-0.23,2.474-0.688,3.565
			c-0.459,1.092-1.138,2.037-2.037,2.835s-2.001,1.427-3.304,1.886s-2.807,0.688-4.514,0.688c-1.945,0-3.707-0.316-5.285-0.949
			c-1.579-0.633-2.918-1.445-4.02-2.436l1.156-1.873c0.146-0.238,0.32-0.422,0.522-0.551c0.202-0.127,0.468-0.191,0.798-0.191
			c0.331,0,0.68,0.128,1.047,0.385c0.367,0.258,0.812,0.541,1.335,0.854s1.156,0.597,1.899,0.854s1.675,0.385,2.795,0.385
			c0.953,0,1.789-0.123,2.504-0.371c0.717-0.248,1.312-0.582,1.789-1.005c0.478-0.422,0.831-0.909,1.061-1.459
			c0.229-0.551,0.344-1.138,0.344-1.762c0-0.771-0.206-1.408-0.619-1.913c-0.412-0.505-0.959-0.936-1.638-1.294
			s-1.454-0.67-2.326-0.937c-0.872-0.266-1.762-0.545-2.671-0.84c-0.908-0.293-1.799-0.628-2.67-1.004s-1.646-0.85-2.326-1.418
			c-0.679-0.568-1.225-1.271-1.638-2.105c-0.413-0.836-0.619-1.85-0.619-3.043c0-1.063,0.22-2.087,0.661-3.068
			c0.439-0.982,1.082-1.845,1.926-2.588s1.881-1.336,3.111-1.775c1.229-0.441,2.633-0.661,4.212-0.661
			c1.835,0,3.481,0.289,4.94,0.867s2.721,1.372,3.785,2.382L370.765,301.076z"/>
	</g>
	<polyline display="inline" fill="none" stroke="#8CCEAF" stroke-width="4" stroke-linecap="round" stroke-miterlimit="10" points="
		586.738,304.527 602.33,320.123 638.066,284.389 	"/>
</g>
<g id="v2">
	<linearGradient id="SVGID_4_" gradientUnits="userSpaceOnUse" x1="393.4629" y1="38.7549" x2="393.4629" y2="862.8721">
		<stop  offset="0" style="stop-color:#3463C7"/>
		<stop  offset="0.4616" style="stop-color:#6485D3"/>
		<stop  offset="1" style="stop-color:#80C0E4"/>
	</linearGradient>
	<path fill="url(#SVGID_4_)" d="M744.496,744.925c0,64.871-53.076,117.947-117.947,117.947H160.377
		c-64.871,0-117.947-53.076-117.947-117.947V156.702c0-64.87,53.076-117.947,117.947-117.947h466.172
		c64.871,0,117.947,53.077,117.947,117.947V744.925z"/>
	<linearGradient id="SVGID_5_" gradientUnits="userSpaceOnUse" x1="393.5" y1="233.2656" x2="393.5" y2="120.2656">
		<stop  offset="0" style="stop-color:#FFFFFF"/>
		<stop  offset="1" style="stop-color:#FFFFFF;stop-opacity:0"/>
	</linearGradient>
	<path opacity="0.2" fill="url(#SVGID_5_)" d="M680,210.331c0,12.67-9.588,22.935-22.256,22.935H130.12
		c-12.671,0-23.12-10.265-23.12-22.935v-68.819c0-12.67,10.449-21.246,23.12-21.246h527.624c12.668,0,22.256,8.576,22.256,21.246
		V210.331z"/>
	<path opacity="0.2" fill="#F3F2F2" d="M680,589.991c0,12.67-9.588,24.274-22.256,24.274H130.12
		c-12.671,0-23.12-11.604-23.12-24.274v-68.819c0-12.672,10.449-22.906,23.12-22.906h527.624c12.668,0,22.256,10.234,22.256,22.906
		V589.991z"/>
	<g>
		<path fill="#FFFFFF" d="M359.244,113.267c0,0.872-0.275,1.589-0.826,2.151c-0.551,0.562-1.479,0.842-2.787,0.842h-15.484
			l-2.271,12.939c2.569-0.551,4.943-0.826,7.123-0.826c2.569,0,4.835,0.379,6.797,1.135c1.961,0.758,3.606,1.802,4.938,3.132
			c1.33,1.331,2.334,2.902,3.011,4.714c0.677,1.812,1.015,3.785,1.015,5.919c0,2.615-0.459,4.978-1.376,7.089
			c-0.918,2.11-2.174,3.917-3.769,5.42c-1.594,1.502-3.47,2.654-5.625,3.457c-2.157,0.803-4.486,1.205-6.986,1.205
			c-1.445,0-2.833-0.144-4.163-0.43c-1.331-0.287-2.569-0.672-3.716-1.153c-1.148-0.481-2.215-1.032-3.201-1.651
			s-1.857-1.273-2.615-1.962l1.859-2.615c0.412-0.597,0.963-0.895,1.65-0.895c0.436,0,0.947,0.179,1.531,0.533
			c0.586,0.356,1.291,0.752,2.117,1.188c0.826,0.437,1.795,0.831,2.907,1.187c1.112,0.356,2.438,0.533,3.975,0.533
			c1.72,0,3.269-0.274,4.646-0.825c1.376-0.551,2.551-1.336,3.527-2.356c0.975-1.021,1.725-2.242,2.254-3.666
			c0.527-1.422,0.791-3.016,0.791-4.782c0-1.536-0.224-2.925-0.672-4.163c-0.447-1.239-1.123-2.295-2.029-3.166
			c-0.906-0.872-2.036-1.549-3.39-2.031c-1.354-0.48-2.937-0.723-4.749-0.723c-1.238,0-2.523,0.104-3.854,0.311
			c-1.33,0.206-2.707,0.539-4.129,0.998l-3.854-1.136l3.991-23.056h23.365V113.267z"/>
		<path fill="#FFFFFF" d="M403.357,135.255c0,4.313-0.465,8.046-1.394,11.2c-0.93,3.154-2.197,5.764-3.803,7.828
			c-1.606,2.064-3.505,3.602-5.694,4.611c-2.191,1.01-4.537,1.514-7.037,1.514c-2.523,0-4.869-0.504-7.037-1.514
			s-4.055-2.547-5.66-4.611c-1.606-2.064-2.868-4.674-3.785-7.828c-0.918-3.154-1.377-6.887-1.377-11.2
			c0-4.312,0.459-8.052,1.377-11.218c0.917-3.166,2.179-5.786,3.785-7.863c1.605-2.075,3.492-3.618,5.66-4.627
			c2.168-1.01,4.514-1.515,7.037-1.515c2.5,0,4.846,0.505,7.037,1.515c2.189,1.009,4.088,2.552,5.694,4.627
			c1.605,2.077,2.873,4.697,3.803,7.863C402.893,127.203,403.357,130.942,403.357,135.255z M396.991,135.255
			c0-3.763-0.315-6.922-0.946-9.479c-0.631-2.559-1.479-4.617-2.547-6.178c-1.066-1.559-2.299-2.678-3.699-3.354
			c-1.398-0.677-2.855-1.015-4.369-1.015s-2.971,0.338-4.371,1.015c-1.398,0.677-2.627,1.796-3.682,3.354
			c-1.055,1.561-1.898,3.619-2.529,6.178c-0.631,2.558-0.945,5.717-0.945,9.479s0.314,6.917,0.945,9.463s1.475,4.6,2.529,6.159
			c1.055,1.561,2.283,2.679,3.682,3.355c1.4,0.677,2.857,1.015,4.371,1.015s2.971-0.338,4.369-1.015
			c1.4-0.677,2.633-1.795,3.699-3.355c1.067-1.56,1.916-3.613,2.547-6.159S396.991,139.018,396.991,135.255z"/>
		<path fill="#FFFFFF" d="M429.749,122.488c0,1.928-0.299,3.654-0.895,5.18c-0.597,1.525-1.394,2.81-2.392,3.854
			s-2.162,1.841-3.493,2.391c-1.33,0.551-2.718,0.826-4.163,0.826c-1.561,0-3-0.275-4.318-0.826
			c-1.319-0.55-2.473-1.347-3.459-2.391s-1.755-2.328-2.305-3.854c-0.551-1.525-0.826-3.252-0.826-5.18
			c0-1.973,0.275-3.727,0.826-5.265c0.55-1.536,1.318-2.833,2.305-3.888s2.14-1.858,3.459-2.409
			c1.318-0.551,2.758-0.825,4.318-0.825c1.536,0,2.977,0.274,4.318,0.825s2.5,1.354,3.476,2.409
			c0.975,1.055,1.743,2.352,2.306,3.888C429.468,118.762,429.749,120.516,429.749,122.488z M446.988,111.821
			c0.298-0.39,0.613-0.693,0.946-0.911c0.332-0.219,0.774-0.328,1.325-0.328h4.404l-36.027,48.312
			c-0.229,0.299-0.505,0.539-0.826,0.723s-0.7,0.275-1.136,0.275h-4.542L446.988,111.821z M424.966,122.488
			c0-1.514-0.161-2.799-0.481-3.854c-0.321-1.055-0.763-1.922-1.325-2.598c-0.562-0.677-1.216-1.164-1.961-1.463
			c-0.746-0.298-1.543-0.447-2.392-0.447s-1.646,0.149-2.392,0.447c-0.746,0.299-1.394,0.786-1.944,1.463
			c-0.551,0.676-0.98,1.543-1.29,2.598s-0.465,2.34-0.465,3.854c0,1.492,0.155,2.76,0.465,3.803c0.31,1.044,0.739,1.893,1.29,2.547
			c0.551,0.653,1.198,1.123,1.944,1.41c0.745,0.287,1.543,0.43,2.392,0.43s1.646-0.143,2.392-0.43
			c0.745-0.287,1.398-0.757,1.961-1.41c0.562-0.654,1.004-1.503,1.325-2.547C424.805,125.248,424.966,123.98,424.966,122.488z
			 M457.002,148.262c0,1.928-0.299,3.647-0.895,5.162c-0.597,1.514-1.394,2.793-2.392,3.836c-0.998,1.045-2.156,1.842-3.476,2.393
			c-1.319,0.55-2.701,0.825-4.146,0.825c-1.561,0-3-0.275-4.318-0.825c-1.319-0.551-2.473-1.348-3.458-2.393
			c-0.987-1.043-1.755-2.322-2.306-3.836c-0.551-1.515-0.826-3.234-0.826-5.162c0-1.973,0.275-3.733,0.826-5.281
			c0.551-1.549,1.318-2.851,2.306-3.906c0.985-1.055,2.139-1.857,3.458-2.408c1.318-0.551,2.758-0.826,4.318-0.826
			c1.537,0,2.971,0.275,4.302,0.826c1.33,0.551,2.488,1.354,3.475,2.408c0.986,1.056,1.755,2.357,2.306,3.906
			C456.727,144.528,457.002,146.289,457.002,148.262z M452.253,148.262c0-1.514-0.16-2.805-0.481-3.871s-0.763-1.932-1.325-2.598
			c-0.562-0.665-1.216-1.146-1.961-1.445c-0.746-0.298-1.543-0.447-2.392-0.447s-1.646,0.149-2.392,0.447
			c-0.745,0.299-1.394,0.78-1.944,1.445c-0.55,0.666-0.98,1.531-1.29,2.598s-0.465,2.357-0.465,3.871
			c0,1.492,0.155,2.753,0.465,3.785s0.74,1.875,1.29,2.529c0.551,0.654,1.199,1.124,1.944,1.41c0.745,0.287,1.543,0.431,2.392,0.431
			s1.646-0.144,2.392-0.431c0.745-0.286,1.399-0.756,1.961-1.41c0.562-0.654,1.004-1.497,1.325-2.529
			S452.253,149.754,452.253,148.262z"/>
	</g>
	<g>
		<path fill="#FFFFFF" d="M333.73,709.707c1.491,0,2.873,0.184,4.146,0.551s2.414,0.883,3.424,1.548h8.775v1.136
			c0,0.574-0.322,0.884-0.965,0.93l-5.195,0.378c0.643,0.872,1.136,1.853,1.479,2.942c0.345,1.09,0.517,2.254,0.517,3.492
			c0,1.652-0.299,3.148-0.895,4.491c-0.598,1.342-1.428,2.489-2.495,3.44c-1.067,0.952-2.346,1.692-3.837,2.22
			c-1.491,0.528-3.143,0.791-4.955,0.791c-1.973,0-3.762-0.298-5.367-0.895c-0.964,0.551-1.721,1.205-2.271,1.962
			s-0.826,1.491-0.826,2.202c0,0.986,0.344,1.743,1.032,2.271c0.688,0.528,1.601,0.912,2.735,1.153
			c1.137,0.241,2.432,0.396,3.889,0.465c1.457,0.068,2.937,0.144,4.439,0.224c1.502,0.08,2.981,0.224,4.438,0.43
			c1.456,0.206,2.753,0.567,3.888,1.084c1.137,0.517,2.049,1.238,2.736,2.168c0.688,0.929,1.032,2.162,1.032,3.699
			c0,1.422-0.356,2.787-1.066,4.095c-0.712,1.308-1.737,2.466-3.08,3.476c-1.342,1.009-2.965,1.817-4.869,2.426
			c-1.904,0.607-4.038,0.912-6.399,0.912c-2.409,0-4.52-0.247-6.332-0.74s-3.332-1.158-4.56-1.996
			c-1.228-0.837-2.15-1.807-2.771-2.907c-0.619-1.102-0.929-2.271-0.929-3.51c0-1.812,0.597-3.372,1.79-4.68
			c1.191-1.308,2.832-2.317,4.92-3.028c-1.146-0.39-2.059-0.952-2.735-1.687c-0.677-0.733-1.015-1.755-1.015-3.062
			c0-0.481,0.091-0.985,0.275-1.514c0.183-0.527,0.458-1.05,0.825-1.565c0.366-0.517,0.809-1.004,1.325-1.463
			c0.516-0.458,1.118-0.871,1.807-1.238c-1.629-0.94-2.896-2.19-3.803-3.751c-0.906-1.56-1.359-3.384-1.359-5.472
			c0-1.651,0.293-3.148,0.877-4.49c0.586-1.342,1.412-2.495,2.479-3.458c1.066-0.964,2.357-1.709,3.871-2.237
			C330.221,709.971,331.895,709.707,333.73,709.707z M346.428,746.836c0-1.079-0.281-1.944-0.843-2.599
			c-0.562-0.653-1.313-1.163-2.254-1.531c-0.94-0.366-2.024-0.624-3.251-0.773c-1.229-0.149-2.513-0.259-3.854-0.327
			c-1.343-0.069-2.69-0.138-4.044-0.206c-1.354-0.069-2.615-0.207-3.785-0.413c-0.871,0.344-1.68,0.739-2.426,1.187
			c-0.745,0.447-1.382,0.952-1.909,1.515c-0.528,0.562-0.94,1.181-1.239,1.857c-0.298,0.677-0.447,1.417-0.447,2.22
			c0,1.01,0.258,1.944,0.774,2.805s1.273,1.605,2.271,2.236c0.998,0.631,2.221,1.13,3.666,1.497
			c1.444,0.367,3.107,0.551,4.988,0.551c1.744,0,3.367-0.195,4.869-0.585c1.502-0.391,2.811-0.941,3.924-1.652
			c1.111-0.711,1.983-1.56,2.615-2.546C346.112,749.084,346.428,748.006,346.428,746.836z M333.73,729.39
			c1.468,0,2.775-0.212,3.923-0.637c1.147-0.424,2.11-1.015,2.891-1.771c0.78-0.758,1.37-1.663,1.772-2.719
			c0.4-1.055,0.602-2.225,0.602-3.51c0-1.284-0.206-2.461-0.619-3.527s-1.016-1.979-1.807-2.735s-1.755-1.342-2.891-1.755
			c-1.135-0.413-2.426-0.619-3.871-0.619s-2.741,0.206-3.889,0.619c-1.146,0.413-2.115,0.998-2.907,1.755s-1.394,1.669-1.807,2.735
			s-0.619,2.243-0.619,3.527c0,1.285,0.206,2.455,0.619,3.51c0.413,1.056,1.015,1.961,1.807,2.719
			c0.792,0.757,1.761,1.348,2.907,1.771C330.989,729.178,332.285,729.39,333.73,729.39z"/>
		<path fill="#FFFFFF" d="M370.205,709.741c2.454,0,4.65,0.419,6.59,1.256c1.938,0.838,3.572,2.025,4.902,3.562
			c1.33,1.537,2.346,3.39,3.046,5.558s1.05,4.594,1.05,7.277c0,2.685-0.35,5.104-1.05,7.261c-0.7,2.157-1.716,4.004-3.046,5.54
			c-1.33,1.537-2.965,2.719-4.902,3.545c-1.939,0.825-4.136,1.238-6.59,1.238c-2.455,0-4.651-0.413-6.59-1.238
			c-1.939-0.826-3.578-2.008-4.92-3.545c-1.343-1.536-2.363-3.383-3.063-5.54c-0.7-2.156-1.05-4.576-1.05-7.261
			c0-2.684,0.35-5.109,1.05-7.277s1.721-4.021,3.063-5.558c1.342-1.536,2.98-2.724,4.92-3.562
			C365.554,710.16,367.75,709.741,370.205,709.741z M370.205,742.396c2.041,0,3.824-0.35,5.351-1.049
			c1.525-0.7,2.798-1.704,3.819-3.012c1.021-1.307,1.783-2.884,2.289-4.73c0.504-1.847,0.756-3.917,0.756-6.212
			c0-2.271-0.252-4.335-0.756-6.193c-0.506-1.858-1.269-3.446-2.289-4.766c-1.021-1.319-2.294-2.334-3.819-3.046
			c-1.526-0.711-3.31-1.066-5.351-1.066c-2.043,0-3.826,0.355-5.352,1.066c-1.525,0.712-2.799,1.727-3.818,3.046
			c-1.021,1.319-1.79,2.907-2.307,4.766c-0.516,1.858-0.773,3.923-0.773,6.193c0,2.295,0.258,4.365,0.773,6.212
			c0.517,1.847,1.285,3.424,2.307,4.73c1.02,1.308,2.293,2.312,3.818,3.012C366.379,742.047,368.162,742.396,370.205,742.396z"/>
		<path fill="#FFFFFF" d="M416.244,744.53c-0.688,0-1.112-0.321-1.273-0.964l-0.481-4.37c-0.94,0.918-1.875,1.744-2.805,2.478
			c-0.929,0.734-1.898,1.354-2.907,1.858c-1.01,0.505-2.099,0.89-3.269,1.153c-1.171,0.263-2.455,0.396-3.854,0.396
			c-1.17,0-2.305-0.172-3.406-0.517c-1.102-0.344-2.076-0.871-2.926-1.583c-0.848-0.71-1.531-1.622-2.047-2.735
			c-0.516-1.112-0.773-2.448-0.773-4.009c0-1.445,0.412-2.787,1.238-4.026c0.826-1.238,2.116-2.316,3.871-3.234
			c1.755-0.917,4.014-1.651,6.778-2.202s6.085-0.871,9.962-0.963v-3.579c0-3.166-0.683-5.603-2.047-7.312
			c-1.365-1.708-3.39-2.563-6.074-2.563c-1.651,0-3.057,0.229-4.215,0.688s-2.14,0.964-2.941,1.514
			c-0.804,0.551-1.457,1.056-1.962,1.515s-0.929,0.688-1.273,0.688c-0.459,0-0.804-0.206-1.032-0.619l-0.585-0.998
			c1.79-1.789,3.67-3.143,5.644-4.061c1.973-0.917,4.209-1.376,6.71-1.376c1.835,0,3.44,0.293,4.817,0.878
			c1.376,0.585,2.518,1.422,3.424,2.512s1.588,2.408,2.047,3.957s0.688,3.274,0.688,5.179v22.298H416.244z M402.48,742.706
			c1.33,0,2.552-0.143,3.664-0.43c1.113-0.286,2.146-0.688,3.098-1.204c0.951-0.517,1.841-1.13,2.666-1.841
			c0.826-0.711,1.641-1.48,2.443-2.306v-8.912c-3.258,0.092-6.062,0.339-8.413,0.739c-2.352,0.402-4.29,0.946-5.815,1.635
			s-2.649,1.509-3.372,2.46c-0.723,0.952-1.084,2.036-1.084,3.252c0,1.147,0.189,2.14,0.567,2.977
			c0.379,0.838,0.878,1.526,1.497,2.064c0.62,0.539,1.343,0.936,2.168,1.188C400.726,742.581,401.586,742.706,402.48,742.706z"/>
		<path fill="#FFFFFF" d="M432.107,694.463v50.067h-3.269v-50.067H432.107z"/>
		<path fill="#FFFFFF" d="M463.076,714.559c-0.161,0.322-0.413,0.482-0.758,0.482c-0.252,0-0.579-0.144-0.98-0.431
			c-0.401-0.286-0.929-0.607-1.583-0.963c-0.653-0.355-1.457-0.677-2.408-0.964c-0.952-0.286-2.116-0.43-3.493-0.43
			c-1.238,0-2.368,0.177-3.389,0.532c-1.021,0.354-1.893,0.829-2.615,1.424s-1.285,1.287-1.687,2.076s-0.603,1.619-0.603,2.488
			c0,1.075,0.275,1.968,0.826,2.677s1.273,1.315,2.168,1.818s1.91,0.938,3.045,1.305c1.136,0.366,2.3,0.732,3.493,1.1
			c1.192,0.367,2.357,0.773,3.492,1.221c1.136,0.448,2.151,1.004,3.046,1.669c0.895,0.666,1.617,1.48,2.168,2.443
			c0.55,0.964,0.825,2.134,0.825,3.51c0,1.492-0.27,2.88-0.809,4.164c-0.539,1.285-1.319,2.397-2.34,3.338s-2.276,1.686-3.768,2.236
			s-3.189,0.826-5.093,0.826c-2.409,0-4.485-0.385-6.229-1.153c-1.743-0.768-3.304-1.771-4.68-3.011l0.791-1.17
			c0.115-0.184,0.241-0.321,0.379-0.413c0.138-0.091,0.332-0.138,0.585-0.138c0.298,0,0.665,0.185,1.102,0.551
			c0.436,0.367,1.003,0.763,1.703,1.188c0.699,0.425,1.571,0.82,2.615,1.187c1.043,0.368,2.334,0.551,3.871,0.551
			c1.445,0,2.718-0.2,3.819-0.602s2.019-0.946,2.753-1.635c0.733-0.688,1.29-1.497,1.669-2.426c0.378-0.93,0.567-1.91,0.567-2.942
			c0-1.146-0.275-2.099-0.825-2.856c-0.551-0.757-1.273-1.398-2.168-1.927c-0.895-0.527-1.91-0.975-3.046-1.342
			c-1.135-0.366-2.306-0.733-3.51-1.102c-1.204-0.366-2.374-0.768-3.51-1.204c-1.136-0.436-2.15-0.986-3.045-1.651
			s-1.617-1.474-2.168-2.426s-0.826-2.139-0.826-3.562c0-1.216,0.264-2.386,0.792-3.51c0.527-1.124,1.278-2.11,2.254-2.96
			c0.975-0.848,2.161-1.525,3.562-2.03c1.398-0.504,2.97-0.757,4.714-0.757c2.087,0,3.939,0.303,5.558,0.907
			c1.617,0.604,3.102,1.529,4.456,2.775L463.076,714.559z"/>
	</g>
	<path opacity="0.2" fill="#F3F2F2" d="M680,462.675c0,12.668-9.588,23.591-22.256,23.591H130.12
		c-12.671,0-23.12-10.923-23.12-23.591v-68.822c0-12.669,10.449-22.587,23.12-22.587h527.624c12.668,0,22.256,9.918,22.256,22.587
		V462.675z"/>
	<g>
		<rect x="136.163" y="412.253" fill="none" width="511.673" height="41.197"/>
		<path fill="#FFFFFF" d="M144.063,449.086h8.479V422.19c0-0.808,0.027-1.624,0.082-2.45l-7.047,6.029
			c-0.184,0.146-0.367,0.252-0.551,0.316s-0.357,0.096-0.523,0.096c-0.275,0-0.523-0.059-0.743-0.179
			c-0.22-0.119-0.386-0.262-0.495-0.427l-1.542-2.119l11.728-10.158h3.991v35.787h7.763v3.743h-21.142V449.086z"/>
		<path fill="#FFFFFF" d="M184.64,412.941c1.67,0,3.229,0.247,4.68,0.742c1.45,0.496,2.702,1.217,3.758,2.161
			c1.056,0.946,1.886,2.097,2.491,3.455s0.908,2.899,0.908,4.624c0,1.469-0.221,2.827-0.66,4.074
			c-0.441,1.249-1.037,2.446-1.789,3.594c-0.754,1.146-1.621,2.257-2.602,3.33c-0.982,1.074-2.023,2.17-3.125,3.289l-10.378,10.627
			c0.733-0.202,1.478-0.362,2.229-0.482c0.752-0.119,1.477-0.179,2.175-0.179h13.214c0.531,0,0.953,0.156,1.266,0.468
			c0.312,0.312,0.469,0.716,0.469,1.211v2.974h-26.317v-1.679c0-0.35,0.069-0.707,0.206-1.074c0.139-0.367,0.363-0.706,0.675-1.019
			l12.636-12.69c1.046-1.064,2-2.088,2.863-3.069c0.861-0.981,1.601-1.968,2.215-2.96c0.615-0.99,1.088-1.995,1.418-3.014
			s0.496-2.105,0.496-3.262s-0.184-2.17-0.551-3.043c-0.367-0.871-0.871-1.592-1.514-2.16s-1.395-0.996-2.258-1.28
			s-1.789-0.427-2.78-0.427s-1.909,0.147-2.753,0.44c-0.844,0.294-1.592,0.702-2.243,1.226c-0.651,0.522-1.202,1.143-1.651,1.857
			c-0.45,0.717-0.768,1.506-0.95,2.367c-0.147,0.533-0.367,0.918-0.661,1.156c-0.293,0.239-0.679,0.358-1.156,0.358
			c-0.092,0-0.188-0.005-0.289-0.014c-0.101-0.009-0.215-0.022-0.344-0.042l-2.561-0.439c0.258-1.799,0.753-3.391,1.487-4.776
			c0.733-1.386,1.665-2.546,2.794-3.482s2.422-1.647,3.881-2.134S182.951,412.941,184.64,412.941z"/>
		<path fill="#FFFFFF" d="M230.309,433.119c0,3.45-0.372,6.438-1.115,8.96c-0.743,2.524-1.758,4.611-3.041,6.263
			c-1.285,1.652-2.805,2.882-4.557,3.689c-1.753,0.807-3.629,1.211-5.629,1.211c-2.02,0-3.896-0.404-5.631-1.211
			c-1.733-0.808-3.243-2.037-4.527-3.689c-1.285-1.651-2.295-3.738-3.028-6.263c-0.734-2.522-1.101-5.51-1.101-8.96
			s0.366-6.441,1.101-8.975c0.733-2.532,1.743-4.629,3.028-6.29c1.284-1.661,2.794-2.895,4.527-3.702
			c1.734-0.808,3.611-1.211,5.631-1.211c2,0,3.876,0.403,5.629,1.211c1.752,0.808,3.271,2.041,4.557,3.702
			c1.283,1.661,2.298,3.758,3.041,6.29C229.937,426.678,230.309,429.669,230.309,433.119z M225.216,433.119
			c0-3.01-0.253-5.537-0.757-7.584c-0.506-2.047-1.184-3.693-2.037-4.941s-1.84-2.143-2.959-2.684
			c-1.12-0.541-2.285-0.812-3.496-0.812c-1.212,0-2.377,0.271-3.496,0.812c-1.12,0.541-2.102,1.436-2.946,2.684
			s-1.519,2.895-2.022,4.941c-0.506,2.047-0.758,4.574-0.758,7.584s0.252,5.533,0.758,7.57c0.504,2.037,1.178,3.68,2.022,4.928
			s1.826,2.143,2.946,2.684c1.119,0.541,2.284,0.812,3.496,0.812c1.211,0,2.376-0.271,3.496-0.812
			c1.119-0.541,2.105-1.436,2.959-2.684s1.531-2.891,2.037-4.928C224.963,438.652,225.216,436.129,225.216,433.119z"/>
		<path fill="#FFFFFF" d="M262.24,433.119c0,3.45-0.371,6.438-1.115,8.96c-0.742,2.524-1.757,4.611-3.041,6.263
			c-1.285,1.652-2.804,2.882-4.557,3.689c-1.752,0.807-3.629,1.211-5.629,1.211c-2.02,0-3.896-0.404-5.63-1.211
			c-1.733-0.808-3.243-2.037-4.528-3.689c-1.285-1.651-2.294-3.738-3.027-6.263c-0.734-2.522-1.102-5.51-1.102-8.96
			s0.367-6.441,1.102-8.975c0.733-2.532,1.742-4.629,3.027-6.29s2.795-2.895,4.528-3.702c1.734-0.808,3.61-1.211,5.63-1.211
			c2,0,3.877,0.403,5.629,1.211c1.753,0.808,3.271,2.041,4.557,3.702c1.284,1.661,2.299,3.758,3.041,6.29
			C261.869,426.678,262.24,429.669,262.24,433.119z M257.148,433.119c0-3.01-0.253-5.537-0.758-7.584s-1.184-3.693-2.037-4.941
			s-1.84-2.143-2.959-2.684s-2.285-0.812-3.496-0.812s-2.377,0.271-3.496,0.812s-2.102,1.436-2.945,2.684
			c-0.845,1.248-1.52,2.895-2.023,4.941c-0.506,2.047-0.758,4.574-0.758,7.584s0.252,5.533,0.758,7.57
			c0.504,2.037,1.179,3.68,2.023,4.928c0.844,1.248,1.826,2.143,2.945,2.684s2.285,0.812,3.496,0.812s2.377-0.271,3.496-0.812
			s2.105-1.436,2.959-2.684s1.532-2.891,2.037-4.928S257.148,436.129,257.148,433.119z"/>
		<path fill="#FFFFFF" d="M294.502,429.54c-0.22,0.404-0.56,0.606-1.018,0.606c-0.275,0-0.588-0.102-0.937-0.303
			c-0.349-0.203-0.775-0.428-1.28-0.676c-0.504-0.247-1.105-0.477-1.803-0.688s-1.523-0.316-2.478-0.316
			c-0.825,0-1.569,0.105-2.229,0.316c-0.661,0.211-1.225,0.5-1.693,0.867c-0.468,0.367-0.826,0.794-1.073,1.279
			c-0.248,0.487-0.372,1.015-0.372,1.584c0,0.715,0.207,1.312,0.619,1.789c0.414,0.477,0.959,0.891,1.639,1.238
			c0.679,0.35,1.449,0.656,2.312,0.922c0.861,0.268,1.748,0.551,2.656,0.854s1.793,0.639,2.656,1.006
			c0.862,0.367,1.633,0.825,2.312,1.376c0.679,0.55,1.225,1.225,1.638,2.022c0.413,0.799,0.62,1.758,0.62,2.877
			c0,1.285-0.23,2.474-0.689,3.565s-1.138,2.037-2.037,2.835c-0.898,0.799-2,1.428-3.303,1.886
			c-1.303,0.459-2.808,0.688-4.515,0.688c-1.945,0-3.707-0.316-5.285-0.949c-1.579-0.634-2.918-1.445-4.02-2.437l1.156-1.872
			c0.147-0.238,0.321-0.422,0.522-0.551c0.203-0.128,0.469-0.192,0.799-0.192s0.679,0.128,1.047,0.386
			c0.366,0.257,0.812,0.541,1.334,0.854c0.523,0.312,1.156,0.596,1.9,0.853c0.742,0.257,1.674,0.386,2.794,0.386
			c0.954,0,1.789-0.124,2.505-0.371c0.716-0.248,1.312-0.583,1.789-1.006c0.477-0.422,0.83-0.908,1.061-1.459
			c0.229-0.551,0.344-1.137,0.344-1.762c0-0.771-0.207-1.408-0.619-1.913c-0.413-0.505-0.959-0.936-1.639-1.294
			c-0.679-0.357-1.454-0.67-2.326-0.936c-0.871-0.266-1.762-0.546-2.67-0.84c-0.908-0.293-1.799-0.629-2.67-1.005
			c-0.872-0.376-1.647-0.849-2.326-1.417c-0.68-0.569-1.225-1.271-1.639-2.106c-0.412-0.835-0.619-1.849-0.619-3.042
			c0-1.064,0.221-2.088,0.661-3.069s1.083-1.845,1.927-2.587c0.844-0.744,1.881-1.336,3.111-1.776
			c1.229-0.44,2.633-0.661,4.211-0.661c1.836,0,3.482,0.289,4.941,0.867s2.721,1.373,3.785,2.382L294.502,429.54z"/>
		<path fill="#FFFFFF" d="M310.881,453.27c-2.201,0-3.895-0.614-5.078-1.844c-1.184-1.23-1.775-3.001-1.775-5.313v-17.067h-3.359
			c-0.293,0-0.541-0.087-0.742-0.262c-0.203-0.174-0.303-0.445-0.303-0.812v-1.954l4.568-0.578l1.129-8.616
			c0.037-0.275,0.156-0.5,0.358-0.674c0.202-0.175,0.458-0.262,0.771-0.262h2.478v9.607h7.983v3.551h-7.983v16.736
			c0,1.176,0.284,2.047,0.854,2.615c0.569,0.57,1.303,0.854,2.202,0.854c0.514,0,0.959-0.068,1.336-0.206
			c0.375-0.138,0.701-0.289,0.977-0.454s0.51-0.316,0.702-0.454s0.362-0.206,0.509-0.206c0.257,0,0.486,0.156,0.688,0.467
			l1.432,2.34c-0.845,0.79-1.863,1.409-3.056,1.858C313.377,453.045,312.148,453.27,310.881,453.27z"/>
		<path fill="#FFFFFF" d="M334.004,424.502c1.67,0,3.211,0.281,4.625,0.84c1.413,0.561,2.633,1.367,3.661,2.423
			s1.831,2.358,2.409,3.909s0.867,3.316,0.867,5.299c0,0.771-0.083,1.285-0.248,1.542s-0.478,0.386-0.936,0.386h-18.555
			c0.037,1.762,0.275,3.294,0.716,4.597c0.44,1.304,1.046,2.391,1.817,3.263c0.771,0.871,1.688,1.523,2.752,1.954
			s2.258,0.646,3.579,0.646c1.229,0,2.289-0.142,3.18-0.427c0.89-0.284,1.655-0.592,2.298-0.922s1.18-0.638,1.611-0.922
			c0.431-0.285,0.803-0.428,1.115-0.428c0.402,0,0.715,0.156,0.936,0.469l1.376,1.789c-0.605,0.734-1.331,1.372-2.175,1.914
			c-0.844,0.541-1.748,0.986-2.711,1.334c-0.964,0.35-1.959,0.61-2.987,0.785c-1.028,0.174-2.046,0.262-3.056,0.262
			c-1.927,0-3.702-0.326-5.326-0.978c-1.625-0.651-3.028-1.606-4.212-2.862c-1.185-1.258-2.106-2.812-2.767-4.666
			c-0.661-1.854-0.991-3.982-0.991-6.387c0-1.945,0.298-3.762,0.895-5.451c0.597-1.688,1.454-3.152,2.574-4.391
			c1.119-1.238,2.486-2.211,4.102-2.918C330.168,424.855,331.985,424.502,334.004,424.502z M334.114,428.109
			c-2.367,0-4.23,0.684-5.589,2.051c-1.357,1.367-2.201,3.262-2.531,5.684h15.168c0-1.137-0.156-2.179-0.469-3.124
			c-0.312-0.944-0.771-1.762-1.376-2.45c-0.606-0.688-1.345-1.221-2.216-1.596C336.229,428.297,335.233,428.109,334.114,428.109z"/>
		<path fill="#FFFFFF" d="M351.814,462.271v-37.328h2.918c0.697,0,1.137,0.34,1.32,1.018l0.414,3.305
			c1.192-1.45,2.555-2.615,4.088-3.496c1.531-0.881,3.299-1.322,5.299-1.322c1.597,0,3.046,0.308,4.35,0.922
			c1.303,0.615,2.412,1.523,3.33,2.727c0.918,1.201,1.625,2.693,2.12,4.473c0.495,1.78,0.743,3.826,0.743,6.139
			c0,2.056-0.275,3.969-0.826,5.74c-0.55,1.771-1.34,3.303-2.367,4.597s-2.289,2.312-3.785,3.056s-3.18,1.115-5.051,1.115
			c-1.726,0-3.198-0.285-4.418-0.854c-1.221-0.568-2.299-1.377-3.235-2.423v12.333H351.814z M364.229,428.412
			c-1.597,0-2.997,0.367-4.198,1.101c-1.202,0.734-2.309,1.771-3.317,3.11v13.489c0.899,1.211,1.886,2.064,2.96,2.56
			c1.073,0.496,2.271,0.744,3.592,0.744c2.588,0,4.579-0.927,5.974-2.781c1.395-1.854,2.093-4.496,2.093-7.928
			c0-1.816-0.161-3.377-0.482-4.68s-0.784-2.371-1.391-3.207c-0.605-0.835-1.348-1.445-2.229-1.83
			C366.35,428.604,365.349,428.412,364.229,428.412z"/>
		<path fill="#FFFFFF" d="M398.171,429.54c-0.22,0.404-0.56,0.606-1.019,0.606c-0.275,0-0.588-0.102-0.936-0.303
			c-0.35-0.203-0.775-0.428-1.28-0.676c-0.505-0.247-1.106-0.477-1.804-0.688s-1.523-0.316-2.477-0.316
			c-0.826,0-1.569,0.105-2.23,0.316c-0.66,0.211-1.225,0.5-1.693,0.867c-0.467,0.367-0.825,0.794-1.072,1.279
			c-0.248,0.487-0.373,1.015-0.373,1.584c0,0.715,0.207,1.312,0.62,1.789s0.958,0.891,1.638,1.238
			c0.68,0.35,1.449,0.656,2.312,0.922c0.862,0.268,1.748,0.551,2.656,0.854s1.794,0.639,2.656,1.006
			c0.863,0.367,1.634,0.825,2.312,1.376c0.68,0.55,1.226,1.225,1.639,2.022c0.412,0.799,0.619,1.758,0.619,2.877
			c0,1.285-0.229,2.474-0.688,3.565s-1.138,2.037-2.037,2.835c-0.899,0.799-2.001,1.428-3.304,1.886
			c-1.303,0.459-2.807,0.688-4.514,0.688c-1.945,0-3.707-0.316-5.285-0.949c-1.579-0.634-2.918-1.445-4.02-2.437l1.156-1.872
			c0.146-0.238,0.32-0.422,0.522-0.551c0.202-0.128,0.468-0.192,0.798-0.192c0.331,0,0.68,0.128,1.047,0.386
			c0.367,0.257,0.812,0.541,1.335,0.854c0.522,0.312,1.156,0.596,1.899,0.853s1.675,0.386,2.795,0.386
			c0.953,0,1.789-0.124,2.504-0.371c0.717-0.248,1.312-0.583,1.789-1.006c0.478-0.422,0.831-0.908,1.061-1.459
			s0.344-1.137,0.344-1.762c0-0.771-0.206-1.408-0.619-1.913c-0.412-0.505-0.959-0.936-1.638-1.294
			c-0.679-0.357-1.454-0.67-2.326-0.936s-1.762-0.546-2.671-0.84c-0.908-0.293-1.799-0.629-2.67-1.005s-1.646-0.849-2.326-1.417
			c-0.679-0.569-1.225-1.271-1.638-2.106s-0.619-1.849-0.619-3.042c0-1.064,0.22-2.088,0.661-3.069
			c0.439-0.981,1.082-1.845,1.926-2.587c0.844-0.744,1.881-1.336,3.111-1.776c1.229-0.44,2.633-0.661,4.212-0.661
			c1.835,0,3.481,0.289,4.94,0.867s2.721,1.373,3.786,2.382L398.171,429.54z"/>
	</g>
	<path opacity="0.2" fill="#F3F2F2" d="M680,336.502c0,12.67-9.588,22.764-22.256,22.764H130.12
		c-12.671,0-23.12-10.094-23.12-22.764v-68.82c0-12.67,10.449-22.416,23.12-22.416h527.624c12.668,0,22.256,9.746,22.256,22.416
		V336.502z"/>
	
		<line fill="none" stroke="#FFFFFF" stroke-width="4" stroke-linecap="round" stroke-miterlimit="10" x1="394" y1="526.266" x2="394" y2="583.266"/>
	
		<line fill="none" stroke="#FFFFFF" stroke-width="4" stroke-linecap="round" stroke-miterlimit="10" x1="366" y1="556.266" x2="422" y2="556.266"/>
	<g>
		<circle opacity="0.4" fill="#FFFFFF" cx="302.548" cy="790.049" r="11.47"/>
		<path opacity="0.4" fill="#FFFFFF" d="M350.723,790.049c0,6.336-5.139,11.47-11.471,11.47c-6.336,0-11.471-5.134-11.471-11.47
			c0-6.333,5.135-11.472,11.471-11.472C345.584,778.577,350.723,783.716,350.723,790.049z"/>
		<circle opacity="0.4" fill="#FFFFFF" cx="375.956" cy="790.049" r="11.47"/>
		<circle opacity="0.4" fill="#FFFFFF" cx="412.659" cy="790.049" r="11.47"/>
		<circle fill="#FFFFFF" cx="449.364" cy="790.049" r="11.47"/>
		<circle opacity="0.4" fill="#FFFFFF" cx="486.069" cy="790.049" r="11.47"/>
	</g>
	<g>
		<path fill="none" stroke="#FFFFFF" stroke-width="4" stroke-miterlimit="10" d="M416,678.656c0,8.679-6.271,16.609-14.951,16.609
			h-25.926c-8.678,0-16.123-7.931-16.123-16.609v-25.928c0-8.674,7.445-14.463,16.123-14.463h25.926
			c8.68,0,14.951,5.789,14.951,14.463V678.656z"/>
		<polyline fill="none" stroke="#FFFFFF" stroke-width="4" stroke-miterlimit="10" points="375.688,657.806 391.281,673.401 
			427.014,637.67 		"/>
	</g>
	<g>
		<rect x="135.733" y="283.788" fill="none" width="511.675" height="41.196"/>
		<path fill="#FFFFFF" d="M152.277,284.477c1.67,0,3.23,0.248,4.68,0.743c1.45,0.495,2.703,1.216,3.758,2.161
			c1.056,0.945,1.887,2.097,2.492,3.455c0.605,1.357,0.908,2.899,0.908,4.624c0,1.469-0.221,2.827-0.661,4.074
			c-0.44,1.249-1.036,2.446-1.789,3.593s-1.62,2.258-2.602,3.33c-0.981,1.074-2.023,2.171-3.124,3.29l-10.379,10.626
			c0.734-0.201,1.478-0.361,2.23-0.481c0.752-0.119,1.477-0.179,2.174-0.179h13.215c0.531,0,0.953,0.156,1.266,0.468
			s0.468,0.716,0.468,1.211v2.974h-26.317v-1.68c0-0.349,0.069-0.706,0.207-1.074c0.138-0.366,0.362-0.705,0.674-1.018
			l12.637-12.691c1.045-1.063,2-2.087,2.862-3.068c0.862-0.982,1.601-1.969,2.216-2.96s1.088-1.995,1.418-3.015
			c0.33-1.018,0.496-2.105,0.496-3.262s-0.184-2.17-0.551-3.042c-0.367-0.871-0.872-1.592-1.515-2.161
			c-0.643-0.568-1.395-0.995-2.257-1.279c-0.863-0.285-1.789-0.428-2.781-0.428c-0.99,0-1.908,0.148-2.752,0.441
			c-0.845,0.293-1.593,0.701-2.244,1.225s-1.201,1.143-1.651,1.858s-0.767,1.505-0.95,2.367c-0.146,0.532-0.367,0.918-0.66,1.156
			c-0.294,0.239-0.68,0.358-1.156,0.358c-0.092,0-0.188-0.005-0.289-0.014c-0.102-0.01-0.216-0.023-0.344-0.042l-2.561-0.44
			c0.257-1.799,0.752-3.391,1.486-4.775c0.734-1.387,1.666-2.547,2.795-3.482c1.128-0.937,2.422-1.647,3.881-2.134
			S150.59,284.477,152.277,284.477z"/>
		<path fill="#FFFFFF" d="M197.947,304.654c0,3.451-0.373,6.438-1.115,8.961c-0.744,2.523-1.758,4.611-3.042,6.262
			c-1.285,1.652-2.804,2.883-4.556,3.689c-1.754,0.807-3.63,1.211-5.63,1.211c-2.019,0-3.896-0.404-5.63-1.211
			s-3.244-2.037-4.528-3.689c-1.284-1.65-2.294-3.738-3.028-6.262s-1.101-5.51-1.101-8.961c0-3.449,0.366-6.441,1.101-8.975
			c0.734-2.531,1.744-4.629,3.028-6.289c1.284-1.661,2.794-2.895,4.528-3.703c1.734-0.807,3.611-1.211,5.63-1.211
			c2,0,3.876,0.404,5.63,1.211c1.752,0.809,3.271,2.042,4.556,3.703c1.284,1.66,2.298,3.758,3.042,6.289
			C197.574,298.213,197.947,301.205,197.947,304.654z M192.854,304.654c0-3.01-0.252-5.537-0.757-7.584
			c-0.505-2.046-1.184-3.693-2.037-4.941c-0.853-1.248-1.84-2.143-2.959-2.684c-1.12-0.541-2.285-0.812-3.496-0.812
			c-1.212,0-2.377,0.271-3.496,0.812c-1.12,0.541-2.102,1.436-2.946,2.684c-0.844,1.248-1.518,2.896-2.022,4.941
			c-0.505,2.047-0.757,4.574-0.757,7.584s0.252,5.533,0.757,7.57s1.179,3.68,2.022,4.928c0.845,1.248,1.826,2.143,2.946,2.684
			c1.119,0.542,2.284,0.812,3.496,0.812c1.211,0,2.376-0.271,3.496-0.812c1.119-0.541,2.106-1.436,2.959-2.684
			c0.854-1.248,1.532-2.891,2.037-4.928S192.854,307.664,192.854,304.654z"/>
		<path fill="#FFFFFF" d="M229.879,304.654c0,3.451-0.372,6.438-1.115,8.961s-1.758,4.611-3.041,6.262
			c-1.285,1.652-2.805,2.883-4.557,3.689c-1.753,0.807-3.629,1.211-5.629,1.211c-2.02,0-3.896-0.404-5.631-1.211
			c-1.733-0.807-3.243-2.037-4.527-3.689c-1.285-1.65-2.295-3.738-3.028-6.262c-0.734-2.523-1.101-5.51-1.101-8.961
			c0-3.449,0.366-6.441,1.101-8.975c0.733-2.531,1.743-4.629,3.028-6.289c1.284-1.661,2.794-2.895,4.527-3.703
			c1.734-0.807,3.611-1.211,5.631-1.211c2,0,3.876,0.404,5.629,1.211c1.752,0.809,3.271,2.042,4.557,3.703
			c1.283,1.66,2.298,3.758,3.041,6.289C229.507,298.213,229.879,301.205,229.879,304.654z M224.786,304.654
			c0-3.01-0.253-5.537-0.757-7.584c-0.506-2.046-1.184-3.693-2.037-4.941s-1.84-2.143-2.959-2.684
			c-1.12-0.541-2.285-0.812-3.496-0.812c-1.212,0-2.377,0.271-3.496,0.812c-1.12,0.541-2.102,1.436-2.946,2.684
			s-1.519,2.896-2.022,4.941c-0.506,2.047-0.758,4.574-0.758,7.584s0.252,5.533,0.758,7.57c0.504,2.037,1.178,3.68,2.022,4.928
			s1.826,2.143,2.946,2.684c1.119,0.542,2.284,0.812,3.496,0.812c1.211,0,2.376-0.271,3.496-0.812
			c1.119-0.541,2.105-1.436,2.959-2.684s1.531-2.891,2.037-4.928C224.533,310.188,224.786,307.664,224.786,304.654z"/>
		<path fill="#FFFFFF" d="M262.141,301.076c-0.221,0.404-0.561,0.605-1.019,0.605c-0.274,0-0.587-0.101-0.937-0.303
			c-0.348-0.202-0.775-0.427-1.279-0.675c-0.505-0.247-1.105-0.478-1.803-0.688c-0.698-0.211-1.523-0.316-2.479-0.316
			c-0.825,0-1.568,0.105-2.229,0.316c-0.662,0.211-1.226,0.5-1.693,0.867c-0.469,0.367-0.826,0.795-1.074,1.28
			c-0.248,0.487-0.371,1.015-0.371,1.583c0,0.716,0.206,1.312,0.619,1.789c0.413,0.478,0.959,0.891,1.638,1.239
			s1.45,0.656,2.312,0.922c0.862,0.267,1.748,0.551,2.657,0.854c0.908,0.303,1.793,0.638,2.656,1.005
			c0.861,0.367,1.633,0.826,2.312,1.377c0.678,0.55,1.225,1.225,1.637,2.022c0.414,0.798,0.62,1.758,0.62,2.877
			c0,1.284-0.229,2.474-0.688,3.565s-1.139,2.037-2.037,2.835c-0.899,0.798-2,1.427-3.303,1.886
			c-1.304,0.459-2.809,0.688-4.516,0.688c-1.945,0-3.707-0.316-5.285-0.949s-2.918-1.445-4.02-2.436l1.156-1.873
			c0.147-0.238,0.321-0.422,0.523-0.551c0.202-0.127,0.469-0.191,0.799-0.191s0.678,0.128,1.046,0.385
			c0.366,0.258,0.812,0.541,1.335,0.854s1.156,0.597,1.899,0.854s1.675,0.385,2.794,0.385c0.954,0,1.789-0.123,2.506-0.371
			c0.715-0.248,1.312-0.582,1.789-1.005c0.477-0.422,0.83-0.909,1.06-1.459c0.229-0.551,0.345-1.138,0.345-1.762
			c0-0.771-0.207-1.408-0.62-1.913s-0.959-0.936-1.638-1.294c-0.68-0.358-1.455-0.67-2.326-0.937
			c-0.872-0.266-1.762-0.545-2.67-0.84c-0.908-0.293-1.799-0.628-2.67-1.004c-0.873-0.376-1.648-0.85-2.326-1.418
			c-0.68-0.568-1.226-1.271-1.639-2.105c-0.413-0.836-0.619-1.85-0.619-3.043c0-1.063,0.221-2.087,0.66-3.068
			c0.441-0.982,1.083-1.845,1.928-2.588c0.844-0.743,1.881-1.336,3.11-1.775c1.229-0.441,2.634-0.661,4.212-0.661
			c1.835,0,3.482,0.289,4.941,0.867s2.721,1.372,3.785,2.382L262.141,301.076z"/>
		<path fill="#FFFFFF" d="M278.52,324.805c-2.202,0-3.895-0.614-5.079-1.844c-1.184-1.229-1.775-3-1.775-5.312V300.58h-3.358
			c-0.294,0-0.541-0.086-0.743-0.262c-0.202-0.174-0.303-0.444-0.303-0.812v-1.954l4.569-0.578l1.129-8.617
			c0.037-0.275,0.156-0.5,0.357-0.674c0.202-0.174,0.459-0.262,0.771-0.262h2.477v9.607h7.984v3.551h-7.984v16.737
			c0,1.175,0.285,2.047,0.854,2.615c0.569,0.569,1.303,0.854,2.203,0.854c0.514,0,0.959-0.069,1.335-0.206
			c0.376-0.139,0.702-0.289,0.978-0.455c0.275-0.164,0.509-0.316,0.701-0.453c0.193-0.139,0.362-0.207,0.51-0.207
			c0.256,0,0.486,0.156,0.688,0.468l1.432,2.34c-0.844,0.79-1.863,1.409-3.055,1.858C281.016,324.58,279.786,324.805,278.52,324.805
			z"/>
		<path fill="#FFFFFF" d="M311.084,324.365h-2.174c-0.478,0-0.863-0.074-1.156-0.221c-0.294-0.146-0.486-0.459-0.578-0.936
			l-0.551-2.588c-0.734,0.66-1.45,1.252-2.146,1.775c-0.698,0.523-1.432,0.963-2.203,1.321c-0.771,0.358-1.592,0.629-2.463,0.812
			c-0.873,0.184-1.841,0.275-2.904,0.275c-1.084,0-2.098-0.152-3.043-0.455c-0.945-0.304-1.766-0.76-2.463-1.367
			c-0.698-0.607-1.253-1.377-1.666-2.307c-0.412-0.93-0.619-2.03-0.619-3.301c0-1.105,0.303-2.168,0.908-3.19
			s1.583-1.929,2.932-2.722c1.35-0.791,3.115-1.44,5.299-1.947c2.185-0.506,4.854-0.76,8.012-0.76v-2.188
			c0-2.18-0.465-3.828-1.391-4.945c-0.927-1.117-2.299-1.676-4.115-1.676c-1.193,0-2.198,0.151-3.015,0.454
			c-0.817,0.303-1.523,0.643-2.12,1.019c-0.596,0.377-1.109,0.716-1.541,1.019s-0.857,0.454-1.28,0.454
			c-0.33,0-0.619-0.087-0.867-0.262c-0.247-0.174-0.444-0.389-0.592-0.646l-0.881-1.569c1.542-1.486,3.202-2.597,4.983-3.331
			c1.779-0.733,3.752-1.101,5.918-1.101c1.56,0,2.945,0.257,4.156,0.771c1.212,0.514,2.23,1.23,3.057,2.147
			c0.825,0.917,1.449,2.028,1.871,3.331s0.633,2.734,0.633,4.294V324.365z M298.367,321.364c0.861,0,1.65-0.087,2.367-0.262
			c0.715-0.175,1.39-0.422,2.023-0.743c0.633-0.32,1.238-0.711,1.816-1.17s1.143-0.981,1.693-1.569v-5.753
			c-2.258,0-4.176,0.143-5.754,0.43c-1.578,0.285-2.863,0.66-3.854,1.121c-0.991,0.461-1.712,1.006-2.161,1.633
			c-0.45,0.629-0.675,1.33-0.675,2.104c0,0.739,0.119,1.376,0.357,1.911s0.561,0.974,0.964,1.314
			c0.403,0.342,0.882,0.592,1.432,0.748C297.128,321.285,297.725,321.364,298.367,321.364z"/>
		<path fill="#FFFFFF" d="M325.068,287.725c0,0.478-0.096,0.922-0.289,1.336c-0.193,0.412-0.449,0.779-0.771,1.101
			s-0.693,0.573-1.115,0.757c-0.423,0.184-0.872,0.275-1.349,0.275c-0.478,0-0.922-0.092-1.336-0.275
			c-0.412-0.184-0.779-0.436-1.101-0.757s-0.573-0.688-0.757-1.101c-0.184-0.414-0.275-0.858-0.275-1.336
			c0-0.477,0.092-0.932,0.275-1.363c0.184-0.43,0.436-0.807,0.757-1.128s0.688-0.573,1.101-0.757
			c0.414-0.184,0.858-0.275,1.336-0.275c0.477,0,0.926,0.092,1.349,0.275c0.422,0.184,0.794,0.436,1.115,0.757
			s0.577,0.698,0.771,1.128C324.973,286.793,325.068,287.248,325.068,287.725z M323.967,296.479v27.887h-4.899v-27.887H323.967z"/>
		<path fill="#FFFFFF" d="M332.611,324.365v-27.887h2.808c0.532,0,0.899,0.102,1.101,0.303c0.202,0.202,0.34,0.551,0.413,1.047
			l0.331,4.35c0.953-1.945,2.133-3.465,3.537-4.557s3.051-1.638,4.941-1.638c0.771,0,1.468,0.087,2.092,0.261
			c0.623,0.176,1.201,0.418,1.734,0.73l-0.633,3.66c-0.129,0.459-0.413,0.689-0.854,0.689c-0.258,0-0.652-0.088-1.184-0.262
			c-0.533-0.175-1.276-0.262-2.23-0.262c-1.707,0-3.134,0.495-4.28,1.486c-1.147,0.991-2.106,2.432-2.877,4.322v17.756H332.611z"/>
		<path fill="#FFFFFF" d="M370.765,301.076c-0.22,0.404-0.56,0.605-1.019,0.605c-0.275,0-0.588-0.101-0.936-0.303
			c-0.35-0.202-0.775-0.427-1.28-0.675c-0.505-0.247-1.106-0.478-1.804-0.688s-1.523-0.316-2.477-0.316
			c-0.826,0-1.569,0.105-2.23,0.316c-0.66,0.211-1.225,0.5-1.693,0.867c-0.467,0.367-0.825,0.795-1.072,1.28
			c-0.248,0.487-0.373,1.015-0.373,1.583c0,0.716,0.207,1.312,0.62,1.789c0.413,0.478,0.958,0.891,1.638,1.239
			s1.449,0.656,2.312,0.922c0.862,0.267,1.748,0.551,2.656,0.854s1.794,0.638,2.656,1.005c0.863,0.367,1.634,0.826,2.312,1.377
			c0.68,0.55,1.226,1.225,1.639,2.022c0.412,0.798,0.619,1.758,0.619,2.877c0,1.284-0.23,2.474-0.688,3.565
			c-0.459,1.092-1.138,2.037-2.037,2.835s-2.001,1.427-3.304,1.886s-2.807,0.688-4.514,0.688c-1.945,0-3.707-0.316-5.285-0.949
			c-1.579-0.633-2.918-1.445-4.02-2.436l1.156-1.873c0.146-0.238,0.32-0.422,0.522-0.551c0.202-0.127,0.468-0.191,0.798-0.191
			c0.331,0,0.68,0.128,1.047,0.385c0.367,0.258,0.812,0.541,1.335,0.854s1.156,0.597,1.899,0.854s1.675,0.385,2.795,0.385
			c0.953,0,1.789-0.123,2.504-0.371c0.717-0.248,1.312-0.582,1.789-1.005c0.478-0.422,0.831-0.909,1.061-1.459
			c0.229-0.551,0.344-1.138,0.344-1.762c0-0.771-0.206-1.408-0.619-1.913c-0.412-0.505-0.959-0.936-1.638-1.294
			s-1.454-0.67-2.326-0.937c-0.872-0.266-1.762-0.545-2.671-0.84c-0.908-0.293-1.799-0.628-2.67-1.004s-1.646-0.85-2.326-1.418
			c-0.679-0.568-1.225-1.271-1.638-2.105c-0.413-0.836-0.619-1.85-0.619-3.043c0-1.063,0.22-2.087,0.661-3.068
			c0.439-0.982,1.082-1.845,1.926-2.588s1.881-1.336,3.111-1.775c1.229-0.441,2.633-0.661,4.212-0.661
			c1.835,0,3.481,0.289,4.94,0.867s2.721,1.372,3.785,2.382L370.765,301.076z"/>
	</g>
	<polyline fill="none" stroke="#8CCEAF" stroke-width="4" stroke-linecap="round" stroke-miterlimit="10" points="586.738,304.527 
		602.33,320.123 638.066,284.389 	"/>
</g>
<g id="watch">
	<g>
		<path fill="none" stroke="#D3D7DC" stroke-miterlimit="10" d="M786.5,481.861v94.985c0,7.039-5.998,12.919-13.031,12.919H768.5
			v-117h4.969C780.502,472.766,786.5,474.823,786.5,481.861z"/>
		<path fill="#FFFFFF" stroke="#D3D7DC" stroke-miterlimit="10" d="M769.13,208.609v-56.469c0-76.471-62.56-139.031-139.02-139.031
			H156.04C79.58,13.109,17.02,75.67,17.02,152.141V748.54c0,76.47,62.561,139.03,139.021,139.03h474.07
			c76.46,0,139.02-62.561,139.02-139.03V359.061h-0.01c-13.72-6.031-24.18-37.41-24.18-75.23
			C744.94,246.02,755.4,214.63,769.13,208.609z M741.17,741.54c0,64.229-52.55,116.78-116.78,116.78H162.83
			c-64.23,0-116.78-52.551-116.78-116.78V159.141c0-64.23,52.55-116.781,116.78-116.781h461.56
			c64.23,0,116.78,52.551,116.78,116.781V741.54z"/>
		<path fill="none" stroke="#D3D7DC" stroke-miterlimit="10" d="M769.131,209.318h12.86c12.233,0,22.243,10.01,22.243,22.244
			v105.958c0,12.233-10.01,22.243-22.243,22.243h-12.86"/>
		<g>
			<path fill="#D3D7DC" d="M804.234,344.537l-17.552,7.566v-1.393l17.552-7.389V344.537z M804.234,337.244l-17.552,6.502v-1.394
				l17.552-6.324V337.244z M804.234,329.951l-17.552,5.436v-1.393l17.552-5.258V329.951z M804.234,322.658l-17.552,4.371v-1.394
				l17.552-4.192V322.658z M804.234,315.366l-17.552,3.306v-1.395l17.552-3.127V315.366z M804.234,308.074l-17.552,2.238v-1.393
				l17.552-2.062V308.074z M804.234,300.781l-17.552,1.174v-1.394l17.552-0.996V300.781z M804.234,293.488l-17.552,0.107v-1.393
				l17.552,0.069V293.488z M804.234,286.195l-17.552-0.957v-1.394l17.552,1.136V286.195z M804.234,278.902l-17.552-2.023v-1.393
				l17.552,2.201V278.902z M804.234,271.61l-17.552-3.089v-1.394l17.552,3.267V271.61z M804.234,264.316l-17.552-4.153v-1.394
				l17.552,4.332V264.316z M804.234,257.024l-17.552-5.22v-1.393l17.552,5.397V257.024z M804.234,249.732l-17.552-6.286v-1.393
				l17.552,6.462V249.732z M804.234,242.439l-17.552-7.352v-1.393l17.552,7.527V242.439z M804.234,235.146l-17.552-8.416v-1.393
				l17.552,8.595V235.146z M804.234,227.854l-17.552-9.481v-1.394l17.552,9.66V227.854z"/>
		</g>
	</g>
</g>
</svg>
