<?xml version="1.0" encoding="utf-8"?>
<!-- Generator: Adobe Illustrator 16.0.4, SVG Export Plug-In . SVG Version: 6.00 Build 0)  -->
<!DOCTYPE svg PUBLIC "-//W3C//DTD SVG 1.1//EN" "http://www.w3.org/Graphics/SVG/1.1/DTD/svg11.dtd">
<svg version="1.1" xmlns="http://www.w3.org/2000/svg" xmlns:xlink="http://www.w3.org/1999/xlink" x="0px" y="0px" width="820px"
	 height="900px" viewBox="0 0 820 900" enable-background="new 0 0 820 900" xml:space="preserve">
<g id="screens" display="none">
	<path display="inline" fill="#231F20" d="M748.496,746.659c0,64.871-53.076,117.947-117.947,117.947H164.377
		c-64.871,0-117.947-53.076-117.947-117.947V158.437c0-64.87,53.076-117.947,117.947-117.947h466.172
		c64.871,0,117.947,53.077,117.947,117.947V746.659z"/>
	<path display="inline" opacity="0.2" fill="#F3F2F2" d="M685,602.549c0,12.693-10.289,22.982-22.982,22.982H132.982
		c-12.693,0-22.982-10.289-22.982-22.982V316.514c0-12.693,10.289-22.982,22.982-22.982h529.035
		c12.693,0,22.982,10.289,22.982,22.982V602.549z"/>
	<g display="inline">
		<defs>
			<path id="SVGID_1_" d="M644.736,567.531H149V402.374c5-0.23,8.78-3.173,10.376-7.274l53.446,23.763
				c-0.518,1.299-0.742,2.724-0.742,4.206c0,6.355,5.181,11.491,11.523,11.491c4.952,0,9.197-3.137,10.807-7.538l0.708,0.265
				l57.104,18.042c-0.519,1.298-0.793,2.699-0.793,4.17c0,6.355,5.15,11.492,11.492,11.492c4.838,0,8.987-2.986,10.677-7.229
				l0.815,0.322l48.264,21.442l0.93,0.47c-0.598,1.391-0.93,2.919-0.93,4.528c0,6.354,5.146,11.49,11.49,11.49
				c4.262,0,7.998-2.321,9.975-5.779l1.516,0.759l48.275,27.913l0.057,0.011c-1.48,1.93-2.367,4.354-2.367,6.974
				c0,6.355,5.148,11.491,11.49,11.491c6.344,0,11.492-5.136,11.492-11.491c0-1.147-0.172-2.264-0.482-3.309l0.045,0.212
				l53.297-15.264h0.012c-0.012,0-0.012,0.049-0.012,0.178c0,6.354,5.148,11.39,11.49,11.39c6.346,0,11.492-4.984,11.492-11.339
				c0-0.128,0-0.229-0.014-0.229h0.014l45.25,15.264l0.047-0.076c-0.32,1.031-0.482,2.085-0.482,3.224
				c0,6.354,5.146,11.466,11.49,11.466c3.771,0,7.125-1.825,9.219-4.633l41.021,23.332c-0.541,1.322-0.828,2.783-0.828,4.288
				C636.164,561.74,639.807,566.531,644.736,567.531z"/>
		</defs>
		<clipPath id="SVGID_2_">
			<use xlink:href="#SVGID_1_"  overflow="visible"/>
		</clipPath>
		<g clip-path="url(#SVGID_2_)">
			<rect x="149" y="370.531" fill="#FFFFFF" width="1" height="220"/>
			<path fill="#FFFFFF" d="M639,590.531h-2v-220h2V590.531z M632,590.531h-2v-220h2V590.531z M626,590.531h-3v-220h3V590.531z
				 M620,590.531h-4v-220h4V590.531z M613,590.531h-4v-220h4V590.531z M606,590.531h-4v-220h4V590.531z M599,590.531h-4v-220h4
				V590.531z M592,590.531h-3v-220h3V590.531z M585,590.531h-3v-220h3V590.531z M578,590.531h-3v-220h3V590.531z M571,590.531h-3
				v-220h3V590.531z M565,590.531h-2v-220h2V590.531z M558,590.531h-2v-220h2V590.531z M551,590.531h-3v-220h3V590.531z
				 M543,590.531h-2v-220h2V590.531z M536,590.531h-2v-220h2V590.531z M529,590.531h-2v-220h2V590.531z M522,590.531h-2v-220h2
				V590.531z M515,590.531h-1v-220h1V590.531z M508,590.531h-1v-220h1V590.531z M501,590.531h-1v-220h1V590.531z M494,590.531h-1
				v-220h1V590.531z M488,590.531h-2v-220h2V590.531z M481,590.531h-2v-220h2V590.531z M474,590.531h-2v-220h2V590.531z
				 M467,590.531h-2v-220h2V590.531z M460,590.531h-2v-220h2V590.531z M455,590.531h-4v-220h4V590.531z M447,590.531h-4v-220h4
				V590.531z M440,590.531h-3v-220h3V590.531z M433,590.531h-3v-220h3V590.531z M426,590.531h-3v-220h3V590.531z M419,590.531h-3
				v-220h3V590.531z M413,590.531h-4v-220h4V590.531z M406,590.531h-2v-220h2V590.531z M399,590.531h-2v-220h2V590.531z
				 M392,590.531h-2v-220h2V590.531z M385,590.531h-2v-220h2V590.531z M378,590.531h-2v-220h2V590.531z M371,590.531h-2v-220h2
				V590.531z M364,590.531h-1v-220h1V590.531z M357,590.531h-1v-220h1V590.531z M350,590.531h-1v-220h1V590.531z M342,590.531h-1
				v-220h1V590.531z M336,590.531h-2v-220h2V590.531z M329,590.531h-2v-220h2V590.531z M322,590.531h-2v-220h2V590.531z
				 M315,590.531h-2v-220h2V590.531z M308,590.531h-2v-220h2V590.531z M301,590.531h-2v-220h2V590.531z M296,590.531h-4v-220h4
				V590.531z M289,590.531h-3v-220h3V590.531z M282,590.531h-3v-220h3V590.531z M275,590.531h-3v-220h3V590.531z M268,590.531h-3
				v-220h3V590.531z M262,590.531h-4v-220h4V590.531z M255,590.531h-4v-220h4V590.531z M248,590.531h-3v-220h3V590.531z
				 M240,590.531h-2v-220h2V590.531z M233,590.531h-2v-220h2V590.531z M226,590.531h-2v-220h2V590.531z M219,590.531h-2v-220h2
				V590.531z M212,590.531h-1v-220h1V590.531z M205,590.531h-1v-220h1V590.531z M198,590.531h-1v-220h1V590.531z M191,590.531h-1
				v-220h1V590.531z M185,590.531h-2v-220h2V590.531z M178,590.531h-2v-220h2V590.531z M171,590.531h-2v-220h2V590.531z
				 M164,590.531h-2v-220h2V590.531z M157,590.531h-2v-220h2V590.531z"/>
			<rect x="643" y="370.531" fill="#FFFFFF" width="1" height="220"/>
		</g>
	</g>
	<linearGradient id="SVGID_3_" gradientUnits="userSpaceOnUse" x1="398.5" y1="267.5312" x2="398.5" y2="78.5312">
		<stop  offset="0" style="stop-color:#FFFFFF"/>
		<stop  offset="1" style="stop-color:#FFFFFF;stop-opacity:0"/>
	</linearGradient>
	<path display="inline" opacity="0.2" fill="url(#SVGID_3_)" d="M686,78.531v170.234c0,11.018-10.145,18.766-22.842,18.766h-528.59
		c-12.699,0-23.568-7.748-23.568-18.766V78.531H686z"/>
	
		<text transform="matrix(1 0 0 1 325.5566 770.4648)" display="inline" fill="#FFFFFF" font-family="'Lato-Light'" font-size="68.9465">stats</text>
	
		<text transform="matrix(1 0 0 1 259.918 180.2266)" display="inline" fill="#FFFFFF" font-family="'Lato-Regular'" font-size="68.9465">Calories</text>
	<g display="inline">
		<circle opacity="0.4" fill="#FFFFFF" cx="306.119" cy="814.918" r="11.491"/>
		<circle opacity="0.4" fill="#FFFFFF" cx="342.891" cy="814.918" r="11.492"/>
		<circle opacity="0.4" fill="#FFFFFF" cx="379.661" cy="814.918" r="11.491"/>
		<circle opacity="0.4" fill="#FFFFFF" cx="416.433" cy="814.918" r="11.491"/>
		<path opacity="0.4" fill="#FFFFFF" d="M464.695,814.918c0,6.348-5.143,11.49-11.492,11.49c-6.346,0-11.49-5.143-11.49-11.49
			c0-6.345,5.145-11.49,11.49-11.49C459.553,803.428,464.695,808.573,464.695,814.918z"/>
		<circle fill="#FFFFFF" cx="489.978" cy="814.918" r="11.491"/>
	</g>
	<g display="inline">
		
			<polyline fill="none" stroke="#FFFFFF" stroke-width="4" stroke-linecap="round" stroke-linejoin="round" stroke-miterlimit="10" points="
			426,707.531 369,707.531 369,649.531 		"/>
		
			<circle fill="none" stroke="#FFFFFF" stroke-width="4" stroke-linecap="round" stroke-linejoin="round" stroke-miterlimit="10" cx="388.024" cy="678.078" r="2.769"/>
		
			<circle fill="none" stroke="#FFFFFF" stroke-width="4" stroke-linecap="round" stroke-linejoin="round" stroke-miterlimit="10" cx="403.944" cy="687.768" r="2.769"/>
		
			<circle fill="none" stroke="#FFFFFF" stroke-width="4" stroke-linecap="round" stroke-linejoin="round" stroke-miterlimit="10" cx="423.327" cy="658.004" r="2.771"/>
		
			<line fill="none" stroke="#FFFFFF" stroke-width="4" stroke-linecap="round" stroke-linejoin="round" stroke-miterlimit="10" x1="373.027" y1="702.076" x2="386.439" y2="680.346"/>
		
			<line fill="none" stroke="#FFFFFF" stroke-width="4" stroke-linecap="round" stroke-linejoin="round" stroke-miterlimit="10" x1="390.793" y1="679.002" x2="402.213" y2="685.61"/>
		
			<line fill="none" stroke="#FFFFFF" stroke-width="4" stroke-linecap="round" stroke-linejoin="round" stroke-miterlimit="10" x1="406.713" y1="685.61" x2="421.477" y2="660.771"/>
	</g>
	<path display="inline" fill="#8CCEAF" stroke="#FFFFFF" stroke-width="4" stroke-linecap="round" stroke-miterlimit="10" d="
		M635.014,557.518c0,6.347,5.148,11.49,11.492,11.49c6.348,0,11.492-5.144,11.492-11.49c0-6.346-5.145-11.492-11.492-11.492
		C640.162,546.025,635.014,551.172,635.014,557.518z"/>
	
		<circle display="inline" fill="#8CCEAF" stroke="#FFFFFF" stroke-width="4" stroke-linecap="round" stroke-miterlimit="10" cx="585.604" cy="523.045" r="11.49"/>
	<path display="inline" fill="#8CCEAF" stroke="#FFFFFF" stroke-width="4" stroke-linecap="round" stroke-miterlimit="10" d="
		M506.316,504.658c0,6.347,5.145,11.491,11.488,11.491c6.35,0,11.492-5.145,11.492-11.491c0-6.344-5.143-11.49-11.492-11.49
		C511.461,493.168,506.316,498.314,506.316,504.658z"/>
	
		<circle display="inline" fill="#8CCEAF" stroke="#FFFFFF" stroke-width="4" stroke-linecap="round" stroke-miterlimit="10" cx="441.965" cy="523.045" r="11.49"/>
	
		<circle display="inline" fill="#8CCEAF" stroke="#FFFFFF" stroke-width="4" stroke-linecap="round" stroke-miterlimit="10" cx="373.019" cy="481.677" r="11.491"/>
	
		<circle display="inline" fill="#8CCEAF" stroke="#FFFFFF" stroke-width="4" stroke-linecap="round" stroke-miterlimit="10" cx="301.773" cy="450.65" r="11.49"/>
	
		<circle display="inline" fill="#8CCEAF" stroke="#FFFFFF" stroke-width="4" stroke-linecap="round" stroke-miterlimit="10" cx="222.486" cy="424.222" r="11.491"/>
	<path display="inline" fill="#8CCEAF" stroke="#FFFFFF" stroke-width="4" stroke-linecap="round" stroke-miterlimit="10" d="
		M136.302,392.047c0,6.345,5.147,11.49,11.491,11.49c6.348,0,11.492-5.146,11.492-11.49c0-6.346-5.145-11.492-11.492-11.492
		C141.449,380.555,136.302,385.701,136.302,392.047z"/>
	
		<line display="inline" fill="none" stroke="#FFFFFF" stroke-width="4" stroke-linecap="round" stroke-miterlimit="10" x1="158.48" y1="396.252" x2="211.799" y2="420.018"/>
	
		<line display="inline" fill="none" stroke="#FFFFFF" stroke-width="4" stroke-linecap="round" stroke-miterlimit="10" x1="233.977" y1="428.434" x2="291.074" y2="446.481"/>
	
		<line display="inline" fill="none" stroke="#FFFFFF" stroke-width="4" stroke-linecap="round" stroke-miterlimit="10" x1="313.264" y1="455.247" x2="361.527" y2="476.695"/>
	
		<line display="inline" fill="none" stroke="#FFFFFF" stroke-width="4" stroke-linecap="round" stroke-miterlimit="10" x1="384.51" y1="488.188" x2="432.787" y2="516.149"/>
	
		<line display="inline" fill="none" stroke="#FFFFFF" stroke-width="4" stroke-linecap="round" stroke-miterlimit="10" x1="453.02" y1="519.934" x2="506.316" y2="504.658"/>
	
		<line display="inline" fill="none" stroke="#FFFFFF" stroke-width="4" stroke-linecap="round" stroke-miterlimit="10" x1="529.297" y1="504.658" x2="574.551" y2="519.934"/>
	
		<line display="inline" fill="none" stroke="#FFFFFF" stroke-width="4" stroke-linecap="round" stroke-miterlimit="10" x1="594.807" y1="529.903" x2="635.84" y2="553.258"/>
</g>
<g id="v2">
	<linearGradient id="SVGID_4_" gradientUnits="userSpaceOnUse" x1="393.4629" y1="40.4893" x2="393.4629" y2="864.6064">
		<stop  offset="0" style="stop-color:#009D91"/>
		<stop  offset="0.5" style="stop-color:#3AAA84"/>
		<stop  offset="1" style="stop-color:#A6E188"/>
	</linearGradient>
	<path fill="url(#SVGID_4_)" d="M744.496,746.659c0,64.871-53.076,117.947-117.947,117.947H160.377
		c-64.871,0-117.947-53.076-117.947-117.947V158.437c0-64.87,53.076-117.947,117.947-117.947h466.172
		c64.871,0,117.947,53.077,117.947,117.947V746.659z"/>
	<path opacity="0.2" fill="#F3F2F2" d="M685,602.549c0,12.693-10.289,22.982-22.982,22.982H132.982
		c-12.693,0-22.982-10.289-22.982-22.982V316.514c0-12.693,10.289-22.982,22.982-22.982h529.035
		c12.693,0,22.982,10.289,22.982,22.982V602.549z"/>
	<g>
		<defs>
			<path id="SVGID_14_" d="M644.736,567.531H149V402.374c5-0.23,8.78-3.173,10.376-7.274l53.446,23.763
				c-0.518,1.299-0.742,2.724-0.742,4.206c0,6.355,5.181,11.491,11.523,11.491c4.952,0,9.197-3.137,10.807-7.538l0.708,0.265
				l57.104,18.042c-0.519,1.298-0.793,2.699-0.793,4.17c0,6.355,5.15,11.492,11.492,11.492c4.838,0,8.987-2.986,10.677-7.229
				l0.815,0.322l48.264,21.442l0.93,0.47c-0.598,1.391-0.93,2.919-0.93,4.528c0,6.354,5.146,11.49,11.49,11.49
				c4.262,0,7.998-2.321,9.975-5.779l1.516,0.759l48.275,27.913l0.057,0.011c-1.48,1.93-2.367,4.354-2.367,6.974
				c0,6.355,5.148,11.491,11.49,11.491c6.344,0,11.492-5.136,11.492-11.491c0-1.147-0.172-2.264-0.482-3.309l0.045,0.212
				l53.297-15.264h0.012c-0.012,0-0.012,0.049-0.012,0.178c0,6.354,5.148,11.39,11.49,11.39c6.346,0,11.492-4.984,11.492-11.339
				c0-0.128,0-0.229-0.014-0.229h0.014l45.25,15.264l0.047-0.076c-0.32,1.031-0.482,2.085-0.482,3.224
				c0,6.354,5.146,11.466,11.49,11.466c3.771,0,7.125-1.825,9.219-4.633l41.021,23.332c-0.541,1.322-0.828,2.783-0.828,4.288
				C636.164,561.74,639.807,566.531,644.736,567.531z"/>
		</defs>
		<clipPath id="SVGID_5_">
			<use xlink:href="#SVGID_14_"  overflow="visible"/>
		</clipPath>
		<g clip-path="url(#SVGID_5_)">
			<rect x="149" y="370.531" fill="#FFFFFF" width="1" height="220"/>
			<path fill="#FFFFFF" d="M639,590.531h-2v-220h2V590.531z M632,590.531h-2v-220h2V590.531z M626,590.531h-3v-220h3V590.531z
				 M620,590.531h-4v-220h4V590.531z M613,590.531h-4v-220h4V590.531z M606,590.531h-4v-220h4V590.531z M599,590.531h-4v-220h4
				V590.531z M592,590.531h-3v-220h3V590.531z M585,590.531h-3v-220h3V590.531z M578,590.531h-3v-220h3V590.531z M571,590.531h-3
				v-220h3V590.531z M565,590.531h-2v-220h2V590.531z M558,590.531h-2v-220h2V590.531z M551,590.531h-3v-220h3V590.531z
				 M543,590.531h-2v-220h2V590.531z M536,590.531h-2v-220h2V590.531z M529,590.531h-2v-220h2V590.531z M522,590.531h-2v-220h2
				V590.531z M515,590.531h-1v-220h1V590.531z M508,590.531h-1v-220h1V590.531z M501,590.531h-1v-220h1V590.531z M494,590.531h-1
				v-220h1V590.531z M488,590.531h-2v-220h2V590.531z M481,590.531h-2v-220h2V590.531z M474,590.531h-2v-220h2V590.531z
				 M467,590.531h-2v-220h2V590.531z M460,590.531h-2v-220h2V590.531z M455,590.531h-4v-220h4V590.531z M447,590.531h-4v-220h4
				V590.531z M440,590.531h-3v-220h3V590.531z M433,590.531h-3v-220h3V590.531z M426,590.531h-3v-220h3V590.531z M419,590.531h-3
				v-220h3V590.531z M413,590.531h-4v-220h4V590.531z M406,590.531h-2v-220h2V590.531z M399,590.531h-2v-220h2V590.531z
				 M392,590.531h-2v-220h2V590.531z M385,590.531h-2v-220h2V590.531z M378,590.531h-2v-220h2V590.531z M371,590.531h-2v-220h2
				V590.531z M364,590.531h-1v-220h1V590.531z M357,590.531h-1v-220h1V590.531z M350,590.531h-1v-220h1V590.531z M342,590.531h-1
				v-220h1V590.531z M336,590.531h-2v-220h2V590.531z M329,590.531h-2v-220h2V590.531z M322,590.531h-2v-220h2V590.531z
				 M315,590.531h-2v-220h2V590.531z M308,590.531h-2v-220h2V590.531z M301,590.531h-2v-220h2V590.531z M296,590.531h-4v-220h4
				V590.531z M289,590.531h-3v-220h3V590.531z M282,590.531h-3v-220h3V590.531z M275,590.531h-3v-220h3V590.531z M268,590.531h-3
				v-220h3V590.531z M262,590.531h-4v-220h4V590.531z M255,590.531h-4v-220h4V590.531z M248,590.531h-3v-220h3V590.531z
				 M240,590.531h-2v-220h2V590.531z M233,590.531h-2v-220h2V590.531z M226,590.531h-2v-220h2V590.531z M219,590.531h-2v-220h2
				V590.531z M212,590.531h-1v-220h1V590.531z M205,590.531h-1v-220h1V590.531z M198,590.531h-1v-220h1V590.531z M191,590.531h-1
				v-220h1V590.531z M185,590.531h-2v-220h2V590.531z M178,590.531h-2v-220h2V590.531z M171,590.531h-2v-220h2V590.531z
				 M164,590.531h-2v-220h2V590.531z M157,590.531h-2v-220h2V590.531z"/>
			<rect x="643" y="370.531" fill="#FFFFFF" width="1" height="220"/>
		</g>
	</g>
	<linearGradient id="SVGID_6_" gradientUnits="userSpaceOnUse" x1="398.5" y1="267.5312" x2="398.5" y2="78.5312">
		<stop  offset="0" style="stop-color:#FFFFFF"/>
		<stop  offset="1" style="stop-color:#FFFFFF;stop-opacity:0"/>
	</linearGradient>
	<path opacity="0.2" fill="url(#SVGID_6_)" d="M686,78.531v170.234c0,11.018-10.145,18.766-22.842,18.766h-528.59
		c-12.699,0-23.568-7.748-23.568-18.766V78.531H686z"/>
	<g>
		<path fill="#FFFFFF" d="M350.033,740.438c-0.162,0.322-0.414,0.482-0.759,0.482c-0.253,0-0.581-0.143-0.983-0.431
			c-0.402-0.287-0.93-0.608-1.585-0.965s-1.46-0.678-2.413-0.966c-0.954-0.287-2.12-0.431-3.499-0.431
			c-1.241,0-2.374,0.178-3.396,0.533c-1.023,0.355-1.896,0.831-2.62,1.427s-1.288,1.289-1.689,2.08
			c-0.402,0.791-0.603,1.622-0.603,2.493c0,1.077,0.275,1.971,0.826,2.682c0.553,0.71,1.276,1.317,2.172,1.821
			c0.896,0.504,1.914,0.94,3.051,1.307c1.139,0.367,2.305,0.734,3.5,1.102c1.194,0.368,2.361,0.776,3.498,1.224
			c1.139,0.448,2.155,1.006,3.052,1.673c0.896,0.666,1.62,1.481,2.171,2.447c0.553,0.965,0.828,2.138,0.828,3.517
			c0,1.494-0.271,2.884-0.811,4.171s-1.321,2.401-2.344,3.344c-1.023,0.942-2.281,1.689-3.775,2.241
			c-1.494,0.551-3.194,0.827-5.102,0.827c-2.413,0-4.493-0.386-6.24-1.155c-1.746-0.77-3.309-1.775-4.688-3.017l0.793-1.172
			c0.114-0.184,0.241-0.321,0.379-0.413s0.333-0.139,0.586-0.139c0.299,0,0.666,0.185,1.104,0.552
			c0.436,0.368,1.005,0.765,1.706,1.189c0.7,0.426,1.574,0.822,2.62,1.189c1.045,0.368,2.338,0.552,3.878,0.552
			c1.448,0,2.724-0.201,3.827-0.604c1.103-0.401,2.021-0.948,2.758-1.638c0.734-0.689,1.293-1.499,1.672-2.43
			c0.379-0.932,0.568-1.914,0.568-2.948c0-1.148-0.275-2.103-0.827-2.861c-0.552-0.758-1.275-1.401-2.172-1.93
			c-0.896-0.529-1.913-0.977-3.051-1.345c-1.138-0.367-2.31-0.735-3.517-1.104c-1.206-0.367-2.379-0.77-3.516-1.206
			c-1.139-0.437-2.154-0.988-3.051-1.655c-0.896-0.666-1.621-1.477-2.172-2.43c-0.552-0.954-0.828-2.144-0.828-3.568
			c0-1.218,0.264-2.39,0.793-3.517c0.529-1.125,1.281-2.114,2.258-2.965c0.977-0.85,2.166-1.527,3.568-2.033
			s2.977-0.759,4.723-0.759c2.092,0,3.947,0.304,5.568,0.909c1.619,0.605,3.107,1.532,4.463,2.779L350.033,740.438z"/>
		<path fill="#FFFFFF" d="M370.13,771.017c-2.321,0-4.126-0.644-5.412-1.931c-1.288-1.287-1.931-3.275-1.931-5.964v-23.441h-4.93
			c-0.253,0-0.46-0.069-0.621-0.207c-0.16-0.138-0.24-0.333-0.24-0.586v-1.275l5.859-0.414l0.819-12.272
			c0.022-0.207,0.108-0.391,0.255-0.552c0.148-0.16,0.348-0.241,0.598-0.241h1.535v13.1h10.79v2.448h-10.79v23.269
			c0,0.943,0.12,1.753,0.361,2.431c0.242,0.679,0.574,1.235,1,1.672c0.426,0.438,0.925,0.759,1.5,0.966
			c0.574,0.206,1.194,0.31,1.861,0.31c0.827,0,1.539-0.12,2.137-0.361s1.115-0.506,1.552-0.793s0.793-0.552,1.069-0.793
			c0.275-0.241,0.493-0.362,0.654-0.362c0.184,0,0.367,0.115,0.552,0.345l0.896,1.448c-0.873,0.965-1.981,1.741-3.326,2.327
			C372.975,770.724,371.578,771.017,370.13,771.017z"/>
		<path fill="#FFFFFF" d="M407.258,770.465c-0.689,0-1.115-0.321-1.277-0.965l-0.482-4.379c-0.941,0.92-1.878,1.747-2.809,2.482
			c-0.932,0.735-1.902,1.356-2.913,1.861c-1.012,0.506-2.103,0.892-3.274,1.155c-1.173,0.264-2.46,0.396-3.861,0.396
			c-1.172,0-2.311-0.173-3.413-0.518c-1.104-0.345-2.081-0.873-2.931-1.586c-0.85-0.712-1.533-1.625-2.051-2.74
			c-0.518-1.114-0.775-2.453-0.775-4.016c0-1.448,0.414-2.793,1.24-4.034c0.828-1.24,2.121-2.32,3.879-3.24
			c1.758-0.919,4.021-1.654,6.791-2.206s6.096-0.873,9.98-0.966v-3.585c0-3.171-0.684-5.613-2.052-7.325s-3.396-2.568-6.085-2.568
			c-1.654,0-3.062,0.229-4.223,0.689s-2.143,0.965-2.947,1.517s-1.459,1.058-1.965,1.517c-0.506,0.46-0.931,0.689-1.275,0.689
			c-0.46,0-0.805-0.206-1.034-0.62l-0.587-1c1.793-1.792,3.678-3.148,5.654-4.067s4.217-1.379,6.723-1.379
			c1.838,0,3.447,0.293,4.826,0.879s2.521,1.425,3.43,2.517s1.592,2.413,2.051,3.964c0.459,1.552,0.689,3.281,0.689,5.188v22.339
			H407.258z M393.468,768.638c1.333,0,2.556-0.144,3.671-0.431s2.148-0.689,3.104-1.207c0.953-0.517,1.844-1.132,2.671-1.844
			s1.644-1.482,2.448-2.31v-8.929c-3.264,0.092-6.074,0.339-8.43,0.741s-4.297,0.947-5.826,1.637
			c-1.527,0.689-2.654,1.512-3.377,2.465c-0.725,0.954-1.086,2.04-1.086,3.258c0,1.149,0.189,2.144,0.568,2.982
			s0.879,1.528,1.5,2.068c0.62,0.54,1.344,0.937,2.172,1.189C391.709,768.512,392.571,768.638,393.468,768.638z"/>
		<path fill="#FFFFFF" d="M428.251,771.017c-2.321,0-4.125-0.644-5.412-1.931s-1.931-3.275-1.931-5.964v-23.441h-4.93
			c-0.253,0-0.46-0.069-0.62-0.207c-0.161-0.138-0.241-0.333-0.241-0.586v-1.275l5.86-0.414l0.818-12.272
			c0.022-0.207,0.107-0.391,0.256-0.552c0.147-0.16,0.347-0.241,0.597-0.241h1.535v13.1h10.79v2.448h-10.79v23.269
			c0,0.943,0.12,1.753,0.361,2.431c0.241,0.679,0.574,1.235,1,1.672c0.425,0.438,0.925,0.759,1.5,0.966
			c0.574,0.206,1.194,0.31,1.861,0.31c0.827,0,1.539-0.12,2.138-0.361c0.597-0.241,1.114-0.506,1.551-0.793s0.793-0.552,1.068-0.793
			c0.276-0.241,0.494-0.362,0.655-0.362c0.184,0,0.367,0.115,0.552,0.345l0.896,1.448c-0.874,0.965-1.982,1.741-3.327,2.327
			S429.699,771.017,428.251,771.017z"/>
		<path fill="#FFFFFF" d="M462.379,740.438c-0.16,0.322-0.413,0.482-0.758,0.482c-0.253,0-0.581-0.143-0.982-0.431
			c-0.402-0.287-0.931-0.608-1.586-0.965s-1.46-0.678-2.413-0.966c-0.954-0.287-2.12-0.431-3.499-0.431
			c-1.241,0-2.373,0.178-3.396,0.533c-1.023,0.355-1.896,0.831-2.62,1.427s-1.287,1.289-1.689,2.08s-0.604,1.622-0.604,2.493
			c0,1.077,0.276,1.971,0.828,2.682c0.551,0.71,1.275,1.317,2.172,1.821c0.896,0.504,1.913,0.94,3.051,1.307
			c1.138,0.367,2.304,0.734,3.499,1.102c1.194,0.368,2.361,0.776,3.499,1.224c1.138,0.448,2.154,1.006,3.051,1.673
			c0.896,0.666,1.62,1.481,2.172,2.447c0.552,0.965,0.827,2.138,0.827,3.517c0,1.494-0.271,2.884-0.811,4.171
			s-1.321,2.401-2.344,3.344s-2.281,1.689-3.774,2.241c-1.495,0.551-3.195,0.827-5.103,0.827c-2.413,0-4.493-0.386-6.239-1.155
			c-1.747-0.77-3.31-1.775-4.688-3.017l0.793-1.172c0.114-0.184,0.241-0.321,0.379-0.413s0.333-0.139,0.586-0.139
			c0.299,0,0.666,0.185,1.104,0.552c0.436,0.368,1.005,0.765,1.706,1.189c0.701,0.426,1.574,0.822,2.62,1.189
			c1.046,0.368,2.338,0.552,3.878,0.552c1.448,0,2.724-0.201,3.827-0.604c1.103-0.401,2.021-0.948,2.758-1.638
			c0.735-0.689,1.292-1.499,1.672-2.43c0.379-0.932,0.568-1.914,0.568-2.948c0-1.148-0.275-2.103-0.827-2.861
			c-0.552-0.758-1.275-1.401-2.172-1.93c-0.896-0.529-1.913-0.977-3.051-1.345c-1.138-0.367-2.31-0.735-3.517-1.104
			c-1.206-0.367-2.378-0.77-3.516-1.206s-2.155-0.988-3.051-1.655c-0.896-0.666-1.621-1.477-2.172-2.43
			c-0.552-0.954-0.828-2.144-0.828-3.568c0-1.218,0.265-2.39,0.793-3.517c0.528-1.125,1.281-2.114,2.258-2.965
			c0.977-0.85,2.166-1.527,3.568-2.033c1.401-0.506,2.977-0.759,4.723-0.759c2.091,0,3.947,0.304,5.567,0.909
			s3.108,1.532,4.465,2.779L462.379,740.438z"/>
	</g>
	<g>
		<path fill="#FFFFFF" d="M300.734,170.021c0.367,0,0.7,0.15,0.999,0.449l2.62,2.861c-2.022,2.344-4.477,4.171-7.359,5.48
			c-2.885,1.311-6.361,1.965-10.429,1.965c-3.562,0-6.792-0.614-9.687-1.844c-2.896-1.229-5.367-2.953-7.412-5.172
			c-2.046-2.217-3.632-4.877-4.758-7.98c-1.126-3.102-1.689-6.516-1.689-10.238s0.604-7.136,1.811-10.238s2.9-5.769,5.084-7.998
			c2.184-2.229,4.798-3.959,7.844-5.188c3.045-1.229,6.406-1.845,10.083-1.845c3.631,0,6.763,0.563,9.394,1.688
			c2.632,1.127,4.97,2.655,7.016,4.586l-2.172,3.068c-0.161,0.229-0.345,0.419-0.551,0.568c-0.207,0.149-0.506,0.225-0.896,0.225
			c-0.299,0-0.615-0.109-0.949-0.328c-0.332-0.219-0.729-0.488-1.188-0.811c-0.46-0.321-1-0.666-1.62-1.033
			c-0.621-0.368-1.356-0.713-2.207-1.035c-0.85-0.321-1.838-0.592-2.965-0.81c-1.125-0.218-2.424-0.327-3.895-0.327
			c-2.644,0-5.062,0.453-7.257,1.361s-4.085,2.201-5.671,3.878c-1.586,1.679-2.821,3.724-3.706,6.136
			c-0.885,2.414-1.327,5.115-1.327,8.102c0,3.08,0.442,5.826,1.327,8.239s2.091,4.453,3.62,6.119c1.527,1.667,3.338,2.937,5.43,3.81
			c2.091,0.873,4.344,1.31,6.756,1.31c1.471,0,2.793-0.086,3.965-0.259c1.172-0.172,2.258-0.441,3.258-0.81s1.931-0.833,2.793-1.396
			c0.861-0.563,1.729-1.235,2.602-2.017C299.986,170.194,300.365,170.021,300.734,170.021z"/>
		<path fill="#FFFFFF" d="M337.826,180.227h-2.723c-0.598,0-1.08-0.092-1.448-0.276c-0.368-0.184-0.608-0.574-0.724-1.172
			l-0.689-3.241c-0.92,0.828-1.816,1.569-2.689,2.225c-0.873,0.654-1.792,1.206-2.758,1.654c-0.965,0.448-1.994,0.787-3.085,1.018
			c-1.092,0.229-2.304,0.344-3.638,0.344c-1.355,0-2.625-0.19-3.809-0.57s-2.213-0.951-3.086-1.713
			c-0.873-0.76-1.568-1.724-2.085-2.889c-0.517-1.164-0.776-2.542-0.776-4.133c0-1.383,0.38-2.715,1.139-3.995
			c0.758-1.28,1.982-2.416,3.671-3.407c1.689-0.992,3.901-1.805,6.636-2.439c2.735-0.634,6.079-0.951,10.032-0.951v-2.74
			c0-2.729-0.581-4.793-1.741-6.191c-1.16-1.4-2.879-2.1-5.153-2.1c-1.494,0-2.753,0.189-3.774,0.568
			c-1.023,0.379-1.908,0.805-2.655,1.275c-0.747,0.472-1.391,0.896-1.931,1.275c-0.54,0.38-1.074,0.569-1.603,0.569
			c-0.413,0-0.776-0.108-1.086-0.327s-0.558-0.488-0.741-0.811l-1.104-1.965c1.931-1.861,4.011-3.252,6.24-4.172
			c2.229-0.918,4.699-1.379,7.412-1.379c1.953,0,3.688,0.322,5.205,0.966c1.517,0.644,2.792,1.54,3.826,2.688
			c1.034,1.15,1.815,2.54,2.344,4.172c0.529,1.632,0.793,3.424,0.793,5.377V180.227z M321.9,176.469c1.08,0,2.068-0.109,2.965-0.328
			c0.896-0.218,1.74-0.527,2.533-0.93s1.551-0.891,2.275-1.466c0.725-0.574,1.431-1.229,2.12-1.965v-7.205
			c-2.827,0-5.229,0.179-7.205,0.538c-1.977,0.358-3.585,0.826-4.826,1.404s-2.144,1.26-2.706,2.045
			c-0.563,0.787-0.845,1.664-0.845,2.635c0,0.926,0.149,1.723,0.448,2.393c0.299,0.672,0.701,1.221,1.207,1.648
			c0.505,0.428,1.103,0.74,1.792,0.936C320.349,176.371,321.096,176.469,321.9,176.469z"/>
		<path fill="#FFFFFF" d="M353.959,129.447v50.779h-6.136v-50.779H353.959z"/>
		<path fill="#FFFFFF" d="M378.918,144.753c2.551,0,4.854,0.426,6.912,1.276c2.057,0.85,3.803,2.057,5.239,3.619
			s2.539,3.453,3.31,5.671c0.77,2.218,1.154,4.694,1.154,7.429c0,2.758-0.385,5.24-1.154,7.446c-0.771,2.206-1.873,4.091-3.31,5.653
			c-1.437,1.563-3.183,2.764-5.239,3.603c-2.058,0.839-4.361,1.259-6.912,1.259s-4.855-0.42-6.912-1.259s-3.81-2.039-5.258-3.603
			c-1.447-1.562-2.562-3.447-3.344-5.653s-1.172-4.688-1.172-7.446c0-2.734,0.391-5.211,1.172-7.429s1.896-4.108,3.344-5.671
			c1.448-1.562,3.201-2.77,5.258-3.619C374.062,145.179,376.367,144.753,378.918,144.753z M378.918,175.917
			c3.447,0,6.021-1.155,7.722-3.465c1.7-2.31,2.551-5.532,2.551-9.669c0-4.16-0.851-7.4-2.551-9.723
			c-1.701-2.32-4.274-3.48-7.722-3.48c-1.747,0-3.264,0.299-4.551,0.896c-1.287,0.599-2.361,1.46-3.223,2.585
			c-0.862,1.127-1.506,2.512-1.932,4.154c-0.425,1.644-0.637,3.5-0.637,5.568s0.212,3.918,0.637,5.55
			c0.426,1.632,1.069,3.005,1.932,4.119c0.861,1.115,1.936,1.972,3.223,2.568C375.654,175.619,377.171,175.917,378.918,175.917z"/>
		<path fill="#FFFFFF" d="M403.118,180.227v-34.922h3.517c0.666,0,1.125,0.127,1.379,0.379c0.252,0.254,0.425,0.689,0.517,1.311
			l0.414,5.446c1.194-2.436,2.671-4.337,4.43-5.705c1.758-1.367,3.82-2.052,6.188-2.052c0.966,0,1.839,0.109,2.62,0.328
			s1.505,0.523,2.172,0.914l-0.793,4.584c-0.161,0.575-0.517,0.862-1.068,0.862c-0.322,0-0.816-0.108-1.482-0.327
			c-0.667-0.219-1.598-0.328-2.792-0.328c-2.138,0-3.925,0.621-5.361,1.861c-1.437,1.241-2.637,3.046-3.603,5.412v22.236H403.118z"
			/>
		<path fill="#FFFFFF" d="M439.107,134.342c0,0.598-0.12,1.155-0.361,1.672c-0.241,0.518-0.563,0.978-0.966,1.379
			c-0.402,0.402-0.867,0.719-1.396,0.949c-0.529,0.229-1.092,0.344-1.689,0.344s-1.155-0.114-1.672-0.344
			c-0.518-0.23-0.978-0.547-1.379-0.949c-0.402-0.401-0.719-0.861-0.948-1.379c-0.229-0.517-0.345-1.074-0.345-1.672
			s0.115-1.166,0.345-1.706s0.546-1.011,0.948-1.413c0.401-0.402,0.861-0.719,1.379-0.948c0.517-0.229,1.074-0.345,1.672-0.345
			s1.16,0.115,1.689,0.345c0.528,0.229,0.993,0.546,1.396,0.948s0.725,0.873,0.966,1.413S439.107,133.744,439.107,134.342z
			 M437.729,145.305v34.922h-6.136v-34.922H437.729z"/>
		<path fill="#FFFFFF" d="M462.377,144.753c2.092,0,4.021,0.351,5.792,1.052c1.77,0.701,3.298,1.713,4.585,3.033
			c1.287,1.322,2.292,2.953,3.017,4.896c0.724,1.942,1.086,4.153,1.086,6.636c0,0.966-0.104,1.609-0.311,1.931
			c-0.207,0.322-0.598,0.483-1.172,0.483h-23.235c0.046,2.205,0.345,4.125,0.896,5.756c0.552,1.633,1.31,2.994,2.275,4.086
			c0.965,1.092,2.114,1.908,3.447,2.447c1.332,0.541,2.827,0.811,4.481,0.811c1.539,0,2.866-0.178,3.981-0.535
			c1.114-0.355,2.074-0.74,2.879-1.154c0.804-0.414,1.477-0.799,2.017-1.154c0.54-0.357,1.005-0.535,1.396-0.535
			c0.505,0,0.896,0.195,1.172,0.586l1.724,2.241c-0.759,0.919-1.667,1.718-2.724,2.396c-1.058,0.678-2.189,1.236-3.396,1.672
			c-1.207,0.438-2.453,0.765-3.74,0.982c-1.287,0.219-2.563,0.328-3.827,0.328c-2.413,0-4.636-0.408-6.67-1.225
			c-2.034-0.814-3.792-2.01-5.274-3.584s-2.638-3.522-3.465-5.844s-1.241-4.986-1.241-7.998c0-2.436,0.373-4.711,1.121-6.826
			c0.746-2.113,1.82-3.947,3.223-5.498c1.401-1.551,3.114-2.77,5.137-3.654S459.849,144.753,462.377,144.753z M462.516,149.27
			c-2.965,0-5.298,0.855-6.998,2.568c-1.701,1.712-2.758,4.084-3.172,7.118h18.995c0-1.425-0.196-2.729-0.587-3.913
			c-0.391-1.184-0.965-2.206-1.724-3.068c-0.758-0.861-1.684-1.527-2.774-1.999C465.164,149.505,463.917,149.27,462.516,149.27z"/>
		<path fill="#FFFFFF" d="M504.675,151.062c-0.275,0.506-0.701,0.759-1.275,0.759c-0.345,0-0.735-0.127-1.172-0.379
			c-0.437-0.253-0.972-0.535-1.604-0.846c-0.632-0.31-1.385-0.597-2.258-0.861c-0.873-0.264-1.907-0.396-3.103-0.396
			c-1.034,0-1.965,0.133-2.792,0.396c-0.827,0.265-1.534,0.627-2.12,1.086c-0.586,0.46-1.034,0.994-1.345,1.604
			s-0.465,1.27-0.465,1.982c0,0.896,0.258,1.643,0.775,2.24c0.517,0.598,1.2,1.115,2.051,1.551c0.851,0.438,1.815,0.822,2.896,1.155
			s2.189,0.689,3.327,1.069c1.138,0.379,2.246,0.799,3.326,1.258c1.08,0.46,2.046,1.034,2.896,1.724
			c0.85,0.689,1.534,1.534,2.051,2.534c0.518,0.999,0.775,2.2,0.775,3.602c0,1.609-0.287,3.098-0.861,4.465
			c-0.575,1.367-1.426,2.551-2.551,3.551c-1.127,1-2.506,1.787-4.137,2.361c-1.633,0.574-3.517,0.861-5.654,0.861
			c-2.437,0-4.643-0.396-6.618-1.189c-1.978-0.793-3.654-1.81-5.033-3.051l1.447-2.344c0.184-0.299,0.402-0.528,0.655-0.689
			c0.253-0.16,0.586-0.241,1-0.241c0.413,0,0.85,0.161,1.31,0.482c0.46,0.322,1.017,0.679,1.672,1.069s1.448,0.746,2.379,1.068
			s2.097,0.482,3.499,0.482c1.194,0,2.24-0.155,3.137-0.465c0.896-0.311,1.644-0.73,2.241-1.259s1.039-1.138,1.327-1.827
			c0.287-0.689,0.431-1.425,0.431-2.207c0-0.965-0.259-1.763-0.775-2.396c-0.518-0.632-1.201-1.172-2.051-1.62
			c-0.851-0.448-1.822-0.838-2.913-1.172c-1.092-0.333-2.207-0.684-3.345-1.052c-1.137-0.367-2.252-0.786-3.344-1.258
			s-2.062-1.063-2.913-1.775s-1.533-1.591-2.051-2.638c-0.517-1.045-0.775-2.314-0.775-3.809c0-1.333,0.275-2.614,0.827-3.844
			s1.355-2.311,2.413-3.24c1.057-0.932,2.355-1.673,3.896-2.225c1.539-0.551,3.298-0.827,5.274-0.827
			c2.298,0,4.36,0.362,6.188,1.086s3.407,1.718,4.74,2.981L504.675,151.062z"/>
	</g>
	<g>
		<circle opacity="0.4" fill="#FFFFFF" cx="306.119" cy="814.918" r="11.491"/>
		<circle opacity="0.4" fill="#FFFFFF" cx="342.891" cy="814.918" r="11.492"/>
		<circle opacity="0.4" fill="#FFFFFF" cx="379.661" cy="814.918" r="11.491"/>
		<circle opacity="0.4" fill="#FFFFFF" cx="416.433" cy="814.918" r="11.491"/>
		<path opacity="0.4" fill="#FFFFFF" d="M464.695,814.918c0,6.348-5.143,11.49-11.492,11.49c-6.346,0-11.49-5.143-11.49-11.49
			c0-6.345,5.145-11.49,11.49-11.49C459.553,803.428,464.695,808.573,464.695,814.918z"/>
		<circle fill="#FFFFFF" cx="489.978" cy="814.918" r="11.491"/>
	</g>
	<g>
		
			<polyline fill="none" stroke="#FFFFFF" stroke-width="4" stroke-linecap="round" stroke-linejoin="round" stroke-miterlimit="10" points="
			426,707.531 369,707.531 369,649.531 		"/>
		
			<circle fill="none" stroke="#FFFFFF" stroke-width="4" stroke-linecap="round" stroke-linejoin="round" stroke-miterlimit="10" cx="388.024" cy="678.078" r="2.769"/>
		
			<circle fill="none" stroke="#FFFFFF" stroke-width="4" stroke-linecap="round" stroke-linejoin="round" stroke-miterlimit="10" cx="403.944" cy="687.768" r="2.769"/>
		
			<circle fill="none" stroke="#FFFFFF" stroke-width="4" stroke-linecap="round" stroke-linejoin="round" stroke-miterlimit="10" cx="423.327" cy="658.004" r="2.771"/>
		
			<line fill="none" stroke="#FFFFFF" stroke-width="4" stroke-linecap="round" stroke-linejoin="round" stroke-miterlimit="10" x1="373.027" y1="702.076" x2="386.439" y2="680.346"/>
		
			<line fill="none" stroke="#FFFFFF" stroke-width="4" stroke-linecap="round" stroke-linejoin="round" stroke-miterlimit="10" x1="390.793" y1="679.002" x2="402.213" y2="685.61"/>
		
			<line fill="none" stroke="#FFFFFF" stroke-width="4" stroke-linecap="round" stroke-linejoin="round" stroke-miterlimit="10" x1="406.713" y1="685.61" x2="421.477" y2="660.771"/>
	</g>
	<path fill="#8CCEAF" stroke="#FFFFFF" stroke-width="4" stroke-linecap="round" stroke-miterlimit="10" d="M635.014,557.518
		c0,6.347,5.148,11.49,11.492,11.49c6.348,0,11.492-5.144,11.492-11.49c0-6.346-5.145-11.492-11.492-11.492
		C640.162,546.025,635.014,551.172,635.014,557.518z"/>
	
		<circle fill="#8CCEAF" stroke="#FFFFFF" stroke-width="4" stroke-linecap="round" stroke-miterlimit="10" cx="585.604" cy="523.045" r="11.49"/>
	<path fill="#8CCEAF" stroke="#FFFFFF" stroke-width="4" stroke-linecap="round" stroke-miterlimit="10" d="M506.316,504.658
		c0,6.347,5.145,11.491,11.488,11.491c6.35,0,11.492-5.145,11.492-11.491c0-6.344-5.143-11.49-11.492-11.49
		C511.461,493.168,506.316,498.314,506.316,504.658z"/>
	
		<circle fill="#8CCEAF" stroke="#FFFFFF" stroke-width="4" stroke-linecap="round" stroke-miterlimit="10" cx="441.965" cy="523.045" r="11.49"/>
	
		<circle fill="#8CCEAF" stroke="#FFFFFF" stroke-width="4" stroke-linecap="round" stroke-miterlimit="10" cx="373.019" cy="481.677" r="11.491"/>
	
		<circle fill="#8CCEAF" stroke="#FFFFFF" stroke-width="4" stroke-linecap="round" stroke-miterlimit="10" cx="301.773" cy="450.65" r="11.49"/>
	
		<circle fill="#8CCEAF" stroke="#FFFFFF" stroke-width="4" stroke-linecap="round" stroke-miterlimit="10" cx="222.486" cy="424.222" r="11.491"/>
	<path fill="#8CCEAF" stroke="#FFFFFF" stroke-width="4" stroke-linecap="round" stroke-miterlimit="10" d="M136.302,392.047
		c0,6.345,5.147,11.49,11.491,11.49c6.348,0,11.492-5.146,11.492-11.49c0-6.346-5.145-11.492-11.492-11.492
		C141.449,380.555,136.302,385.701,136.302,392.047z"/>
	
		<line fill="none" stroke="#FFFFFF" stroke-width="4" stroke-linecap="round" stroke-miterlimit="10" x1="158.48" y1="396.252" x2="211.799" y2="420.018"/>
	
		<line fill="none" stroke="#FFFFFF" stroke-width="4" stroke-linecap="round" stroke-miterlimit="10" x1="233.977" y1="428.434" x2="291.074" y2="446.481"/>
	
		<line fill="none" stroke="#FFFFFF" stroke-width="4" stroke-linecap="round" stroke-miterlimit="10" x1="313.264" y1="455.247" x2="361.527" y2="476.695"/>
	
		<line fill="none" stroke="#FFFFFF" stroke-width="4" stroke-linecap="round" stroke-miterlimit="10" x1="384.51" y1="488.188" x2="432.787" y2="516.149"/>
	
		<line fill="none" stroke="#FFFFFF" stroke-width="4" stroke-linecap="round" stroke-miterlimit="10" x1="453.02" y1="519.934" x2="506.316" y2="504.658"/>
	
		<line fill="none" stroke="#FFFFFF" stroke-width="4" stroke-linecap="round" stroke-miterlimit="10" x1="529.297" y1="504.658" x2="574.551" y2="519.934"/>
	
		<line fill="none" stroke="#FFFFFF" stroke-width="4" stroke-linecap="round" stroke-miterlimit="10" x1="594.807" y1="529.903" x2="635.84" y2="553.258"/>
</g>
<g id="watch">
	<g>
		<path fill="none" stroke="#D3D7DC" stroke-miterlimit="10" d="M786.5,481.861v94.985c0,7.039-5.998,12.185-13.031,12.185H768.5
			v-117h4.969C780.502,472.031,786.5,474.823,786.5,481.861z"/>
		<path fill="#FFFFFF" stroke="#D3D7DC" stroke-miterlimit="10" d="M769.13,208.609v-56.469c0-76.471-62.56-139.031-139.02-139.031
			H156.04C79.58,13.109,17.02,75.67,17.02,152.141V748.54c0,76.47,62.561,139.03,139.021,139.03h474.07
			c76.46,0,139.02-62.561,139.02-139.03V359.061h-0.01c-13.72-6.031-24.18-37.41-24.18-75.23
			C744.94,246.02,755.4,214.63,769.13,208.609z M741.17,741.54c0,64.229-52.55,116.78-116.78,116.78H162.83
			c-64.23,0-116.78-52.551-116.78-116.78V159.141c0-64.23,52.55-116.781,116.78-116.781h461.56
			c64.23,0,116.78,52.551,116.78,116.781V741.54z"/>
		<path fill="none" stroke="#D3D7DC" stroke-miterlimit="10" d="M769.131,209.318h12.86c12.233,0,22.243,10.01,22.243,22.244
			v105.958c0,12.233-10.01,22.243-22.243,22.243h-12.86"/>
		<g>
			<path fill="#D3D7DC" d="M804.234,344.537l-17.552,7.566v-1.393l17.552-7.389V344.537z M804.234,337.244l-17.552,6.502v-1.394
				l17.552-6.324V337.244z M804.234,329.951l-17.552,5.436v-1.393l17.552-5.258V329.951z M804.234,322.658l-17.552,4.371v-1.394
				l17.552-4.192V322.658z M804.234,315.366l-17.552,3.306v-1.395l17.552-3.127V315.366z M804.234,308.074l-17.552,2.238v-1.393
				l17.552-2.062V308.074z M804.234,300.781l-17.552,1.174v-1.394l17.552-0.996V300.781z M804.234,293.488l-17.552,0.107v-1.393
				l17.552,0.069V293.488z M804.234,286.195l-17.552-0.957v-1.394l17.552,1.136V286.195z M804.234,278.902l-17.552-2.023v-1.393
				l17.552,2.201V278.902z M804.234,271.61l-17.552-3.089v-1.394l17.552,3.267V271.61z M804.234,264.316l-17.552-4.153v-1.394
				l17.552,4.332V264.316z M804.234,257.024l-17.552-5.22v-1.393l17.552,5.397V257.024z M804.234,249.732l-17.552-6.286v-1.393
				l17.552,6.462V249.732z M804.234,242.439l-17.552-7.352v-1.393l17.552,7.527V242.439z M804.234,235.146l-17.552-8.416v-1.393
				l17.552,8.595V235.146z M804.234,227.854l-17.552-9.481v-1.394l17.552,9.66V227.854z"/>
		</g>
	</g>
</g>
</svg>
