<?xml version="1.0" encoding="utf-8"?>
<!-- Generator: Adobe Illustrator 16.0.4, SVG Export Plug-In . SVG Version: 6.00 Build 0)  -->
<!DOCTYPE svg PUBLIC "-//W3C//DTD SVG 1.1//EN" "http://www.w3.org/Graphics/SVG/1.1/DTD/svg11.dtd">
<svg version="1.1" xmlns="http://www.w3.org/2000/svg" xmlns:xlink="http://www.w3.org/1999/xlink" x="0px" y="0px" width="820px"
	 height="900px" viewBox="0 0 820 900" enable-background="new 0 0 820 900" xml:space="preserve">
<g id="screens" display="none">
	<linearGradient id="SVGID_2_" gradientUnits="userSpaceOnUse" x1="393.4629" y1="37.4893" x2="393.4629" y2="861.6069">
		<stop  offset="0" style="stop-color:#2097A6"/>
		<stop  offset="1" style="stop-color:#73C6A4"/>
	</linearGradient>
	<path display="inline" fill="url(#SVGID_2_)" d="M744.496,743.659c0,64.871-53.076,117.947-117.947,117.947H160.377
		c-64.871,0-117.947-53.076-117.947-117.947V155.437c0-64.871,53.076-117.947,117.947-117.947h466.172
		c64.871,0,117.947,53.077,117.947,117.947V743.659z"/>
	<linearGradient id="SVGID_3_" gradientUnits="userSpaceOnUse" x1="395" y1="228" x2="395" y2="37">
		<stop  offset="0" style="stop-color:#FFFFFF"/>
		<stop  offset="1" style="stop-color:#FFFFFF;stop-opacity:0"/>
	</linearGradient>
	<path display="inline" opacity="0.2" fill="url(#SVGID_3_)" d="M683,37v169.779C683,217.806,672.338,228,659.631,228H130.652
		C117.944,228,107,217.806,107,206.779V37H683z"/>
	<path display="inline" opacity="0.2" fill="#F3F2F2" d="M680,563.356C680,576.06,669.787,586,657.391,586H128.6
		c-12.396,0-22.6-9.94-22.6-22.644V276.057C106,263.354,116.204,253,128.6,253h528.791C669.787,253,680,263.354,680,276.057V563.356
		z"/>
	<g display="inline">
		<path fill="#FFFFFF" d="M339.273,698.816c-0.16,0.323-0.414,0.483-0.758,0.483c-0.254,0-0.582-0.144-0.984-0.432
			c-0.402-0.287-0.932-0.608-1.586-0.966c-0.656-0.356-1.461-0.678-2.416-0.966c-0.954-0.287-2.121-0.431-3.501-0.431
			c-1.242,0-2.375,0.178-3.398,0.533s-1.897,0.832-2.622,1.428c-0.725,0.597-1.288,1.29-1.689,2.081
			c-0.403,0.792-0.604,1.623-0.604,2.495c0,1.078,0.276,1.973,0.828,2.684s1.276,1.318,2.173,1.823
			c0.897,0.505,1.915,0.94,3.054,1.308s2.306,0.735,3.501,1.103c1.196,0.368,2.363,0.776,3.502,1.225s2.156,1.007,3.053,1.673
			c0.897,0.668,1.622,1.483,2.174,2.45c0.553,0.966,0.828,2.139,0.828,3.519c0,1.495-0.271,2.887-0.811,4.174
			c-0.541,1.289-1.322,2.404-2.346,3.347c-1.023,0.943-2.283,1.69-3.777,2.242c-1.496,0.553-3.197,0.828-5.106,0.828
			c-2.415,0-4.497-0.385-6.244-1.155c-1.748-0.771-3.312-1.777-4.692-3.019l0.794-1.173c0.114-0.185,0.241-0.322,0.38-0.414
			c0.138-0.092,0.333-0.139,0.586-0.139c0.299,0,0.667,0.185,1.104,0.553c0.438,0.368,1.006,0.765,1.709,1.189
			c0.701,0.426,1.574,0.823,2.621,1.19c1.047,0.368,2.34,0.552,3.881,0.552c1.449,0,2.727-0.201,3.83-0.604s2.023-0.948,2.76-1.639
			c0.736-0.689,1.293-1.501,1.673-2.432c0.38-0.932,0.569-1.915,0.569-2.95c0-1.149-0.275-2.104-0.828-2.863
			c-0.552-0.759-1.276-1.402-2.174-1.932c-0.896-0.529-1.914-0.978-3.053-1.346c-1.139-0.367-2.311-0.735-3.519-1.104
			s-2.38-0.771-3.519-1.208c-1.139-0.437-2.156-0.988-3.054-1.656c-0.897-0.666-1.621-1.478-2.173-2.432
			c-0.553-0.954-0.828-2.145-0.828-3.57c0-1.219,0.264-2.393,0.793-3.52c0.529-1.126,1.282-2.115,2.26-2.967
			c0.978-0.851,2.168-1.529,3.57-2.035s2.979-0.759,4.727-0.759c2.093,0,3.95,0.303,5.572,0.909
			c1.621,0.606,3.109,1.533,4.467,2.782L339.273,698.816z"/>
		<path fill="#FFFFFF" d="M359.387,729.417c-2.324,0-4.129-0.644-5.417-1.932s-1.932-3.277-1.932-5.969v-23.459h-4.934
			c-0.253,0-0.46-0.068-0.62-0.207c-0.162-0.138-0.242-0.333-0.242-0.586v-1.276l5.865-0.414l0.818-12.282
			c0.023-0.207,0.108-0.391,0.256-0.552c0.148-0.16,0.348-0.241,0.598-0.241h1.536v13.109h10.798v2.449h-10.798v23.287
			c0,0.943,0.12,1.754,0.362,2.432c0.241,0.679,0.574,1.237,1,1.674s0.926,0.759,1.501,0.966s1.196,0.311,1.862,0.311
			c0.828,0,1.541-0.121,2.14-0.362c0.598-0.241,1.115-0.506,1.552-0.794c0.438-0.287,0.794-0.552,1.07-0.793
			c0.275-0.241,0.494-0.362,0.655-0.362c0.184,0,0.368,0.115,0.552,0.345l0.896,1.449c-0.873,0.966-1.982,1.742-3.328,2.328
			C362.232,729.124,360.835,729.417,359.387,729.417z"/>
		<path fill="#FFFFFF" d="M387.57,693.987c1.932,0,3.721,0.333,5.365,1c1.645,0.668,3.07,1.639,4.277,2.915s2.15,2.847,2.829,4.709
			c0.678,1.863,1.018,4.002,1.018,6.417c0,0.506-0.075,0.852-0.224,1.035c-0.149,0.185-0.386,0.276-0.707,0.276h-24.771v0.655
			c0,2.576,0.298,4.842,0.897,6.796c0.598,1.955,1.448,3.594,2.553,4.916c1.104,1.323,2.438,2.317,4.002,2.984
			c1.562,0.667,3.311,1,5.243,1c1.726,0,3.22-0.189,4.485-0.568c1.264-0.38,2.328-0.806,3.19-1.277
			c0.862-0.471,1.547-0.896,2.053-1.276c0.506-0.379,0.874-0.569,1.104-0.569c0.298,0,0.528,0.116,0.689,0.346l0.897,1.104
			c-0.553,0.69-1.283,1.334-2.19,1.932c-0.91,0.599-1.922,1.11-3.037,1.536s-2.311,0.765-3.588,1.018
			c-1.275,0.253-2.559,0.379-3.846,0.379c-2.346,0-4.485-0.408-6.417-1.225c-1.933-0.816-3.59-2.006-4.974-3.57
			c-1.383-1.563-2.453-3.479-3.208-5.744c-0.756-2.265-1.134-4.858-1.134-7.779c0-2.461,0.352-4.731,1.053-6.813
			c0.701-2.081,1.713-3.875,3.036-5.382c1.322-1.506,2.944-2.686,4.864-3.536S385.133,693.987,387.57,693.987z M387.621,696.437
			c-1.768,0-3.354,0.276-4.754,0.828s-2.611,1.345-3.634,2.38s-1.849,2.277-2.479,3.727c-0.633,1.448-1.051,3.07-1.258,4.864h22.597
			c0-1.84-0.253-3.49-0.758-4.951c-0.506-1.46-1.218-2.696-2.136-3.708s-2.021-1.788-3.307-2.329
			C390.605,696.707,389.183,696.437,387.621,696.437z"/>
		<path fill="#FFFFFF" d="M409.891,741.009v-46.47h1.794c0.299,0,0.54,0.063,0.725,0.189c0.184,0.127,0.287,0.352,0.311,0.673
			l0.311,5.312c1.518-2.069,3.294-3.714,5.33-4.933c2.035-1.219,4.317-1.829,6.848-1.829c4.231,0,7.521,1.461,9.866,4.382
			c2.347,2.921,3.52,7.303,3.52,13.144c0,2.508-0.328,4.848-0.983,7.021c-0.655,2.174-1.616,4.06-2.881,5.658
			s-2.823,2.858-4.675,3.777c-1.852,0.92-3.984,1.38-6.399,1.38c-2.346,0-4.37-0.426-6.071-1.276
			c-1.702-0.851-3.174-2.115-4.416-3.795v16.767H409.891z M424.276,696.609c-2.276,0-4.341,0.592-6.192,1.776
			s-3.49,2.835-4.916,4.95v18.009c1.311,1.979,2.766,3.369,4.364,4.174c1.598,0.806,3.421,1.208,5.468,1.208
			c2.023,0,3.795-0.368,5.312-1.104c1.519-0.735,2.789-1.776,3.812-3.122s1.794-2.955,2.312-4.83
			c0.518-1.874,0.776-3.938,0.776-6.192c0-5.105-0.938-8.86-2.812-11.264C430.526,697.811,427.818,696.609,424.276,696.609z"/>
		<path fill="#FFFFFF" d="M465.709,698.816c-0.161,0.323-0.414,0.483-0.759,0.483c-0.254,0-0.581-0.144-0.983-0.432
			c-0.402-0.287-0.932-0.608-1.587-0.966c-0.655-0.356-1.461-0.678-2.415-0.966c-0.955-0.287-2.122-0.431-3.502-0.431
			c-1.241,0-2.375,0.178-3.397,0.533c-1.023,0.355-1.897,0.832-2.622,1.428c-0.725,0.597-1.288,1.29-1.69,2.081
			c-0.402,0.792-0.604,1.623-0.604,2.495c0,1.078,0.275,1.973,0.828,2.684c0.552,0.711,1.276,1.318,2.173,1.823
			c0.897,0.505,1.915,0.94,3.053,1.308c1.139,0.367,2.306,0.735,3.502,1.103c1.195,0.368,2.363,0.776,3.502,1.225
			s2.156,1.007,3.053,1.673c0.897,0.668,1.622,1.483,2.174,2.45c0.552,0.966,0.828,2.139,0.828,3.519
			c0,1.495-0.271,2.887-0.812,4.174c-0.54,1.289-1.322,2.404-2.346,3.347c-1.023,0.943-2.282,1.69-3.777,2.242
			c-1.495,0.553-3.197,0.828-5.105,0.828c-2.415,0-4.497-0.385-6.244-1.155c-1.749-0.771-3.312-1.777-4.692-3.019l0.794-1.173
			c0.114-0.185,0.241-0.322,0.379-0.414s0.333-0.139,0.587-0.139c0.299,0,0.667,0.185,1.104,0.553s1.006,0.765,1.708,1.189
			c0.701,0.426,1.575,0.823,2.622,1.19c1.046,0.368,2.34,0.552,3.881,0.552c1.449,0,2.726-0.201,3.829-0.604
			c1.104-0.402,2.023-0.948,2.76-1.639c0.736-0.689,1.294-1.501,1.674-2.432c0.379-0.932,0.569-1.915,0.569-2.95
			c0-1.149-0.276-2.104-0.828-2.863s-1.276-1.402-2.174-1.932c-0.896-0.529-1.914-0.978-3.053-1.346
			c-1.139-0.367-2.312-0.735-3.52-1.104c-1.207-0.368-2.38-0.771-3.519-1.208c-1.139-0.437-2.156-0.988-3.053-1.656
			c-0.897-0.666-1.622-1.478-2.174-2.432s-0.828-2.145-0.828-3.57c0-1.219,0.265-2.393,0.794-3.52
			c0.528-1.126,1.281-2.115,2.26-2.967c0.977-0.851,2.167-1.529,3.57-2.035c1.402-0.506,2.979-0.759,4.727-0.759
			c2.093,0,3.95,0.303,5.571,0.909s3.11,1.533,4.468,2.782L465.709,698.816z"/>
	</g>
	<g display="inline">
		<rect x="135.781" y="344.238" fill="none" width="514.098" height="170.667"/>
		<path fill="#FFFFFF" d="M284.141,403.958c5.928,0,11.402,0.978,16.421,2.932c5.017,1.955,9.335,4.709,12.951,8.26
			c3.616,3.552,6.452,7.854,8.504,12.902c2.053,5.051,3.079,10.704,3.079,16.959c0,6.256-1.124,12.023-3.372,17.301
			s-5.376,9.841-9.384,13.685c-4.008,3.846-8.814,6.842-14.418,8.992c-5.604,2.15-11.763,3.226-18.474,3.226
			c-6.451,0-12.35-1.043-17.692-3.127c-5.344-2.085-9.921-5.083-13.732-8.993c-3.812-3.91-6.762-8.683-8.847-14.319
			c-2.087-5.636-3.128-12.006-3.128-19.11c0-5.408,1.369-11.517,4.105-18.328c2.736-6.809,7.232-14.45,13.488-22.921l37.73-50.828
			c1.107-1.498,2.77-2.248,4.985-2.248h8.21l-41.248,53.858c-2.021,2.672-3.878,5.18-5.572,7.526
			c-1.695,2.346-3.225,4.66-4.594,6.94c3.844-3.974,8.406-7.087,13.685-9.335S277.885,403.958,284.141,403.958z M245.139,444.914
			c0,5.149,0.798,9.906,2.396,14.271c1.596,4.366,3.86,8.13,6.794,11.29c2.932,3.161,6.515,5.62,10.752,7.38
			c4.234,1.759,8.992,2.639,14.271,2.639c5.604,0,10.654-0.88,15.15-2.639c4.497-1.76,8.323-4.187,11.485-7.282
			c3.16-3.095,5.587-6.776,7.282-11.046c1.694-4.267,2.542-8.909,2.542-13.929c0-5.278-0.832-10.051-2.493-14.32
			c-1.661-4.267-4.008-7.884-7.038-10.85c-3.029-2.964-6.631-5.245-10.801-6.842c-4.171-1.596-8.797-2.395-13.88-2.395
			c-5.735,0-10.866,0.994-15.396,2.981c-4.529,1.989-8.357,4.562-11.484,7.722c-3.129,3.161-5.508,6.761-7.136,10.801
			C245.953,436.737,245.139,440.808,245.139,444.914z"/>
		<path fill="#FFFFFF" d="M366.342,479.516h31.768V367.219c0-2.216,0.098-4.563,0.294-7.042l-30.497,27.096
			c-0.652,0.588-1.434,0.881-2.346,0.881c-1.109,0-1.955-0.391-2.541-1.175l-2.836-3.913l39.979-35.312h7.233v131.762H437.6v7.136
			h-71.258V479.516z"/>
		<path fill="#FFFFFF" d="M506.215,488.215c-6.647,0-12.725-0.879-18.23-2.639c-5.507-1.76-10.231-4.301-14.173-7.624
			c-3.943-3.323-7.022-7.331-9.237-12.023c-2.216-4.691-3.323-9.97-3.323-15.835c0-5.083,0.733-9.611,2.199-13.586
			c1.467-3.974,3.534-7.429,6.207-10.361c2.671-2.933,5.848-5.376,9.53-7.331c3.681-1.955,7.737-3.421,12.169-4.398
			c-4.041-1.173-7.624-2.769-10.752-4.79c-3.128-2.019-5.751-4.431-7.868-7.233c-2.118-2.801-3.731-5.914-4.839-9.335
			c-1.108-3.421-1.661-7.086-1.661-10.996c0-4.888,0.929-9.481,2.785-13.782c1.857-4.301,4.512-8.047,7.967-11.241
			c3.453-3.192,7.64-5.701,12.561-7.526c4.919-1.824,10.474-2.737,16.666-2.737c6.124,0,11.646,0.913,16.567,2.737
			c4.92,1.825,9.123,4.334,12.609,7.526c3.485,3.194,6.158,6.94,8.016,11.241c1.856,4.301,2.785,8.895,2.785,13.782
			c0,3.91-0.554,7.575-1.661,10.996c-1.109,3.421-2.737,6.534-4.888,9.335c-2.15,2.803-4.789,5.214-7.917,7.233
			c-3.128,2.021-6.713,3.616-10.753,4.79c4.431,0.977,8.487,2.443,12.17,4.398c3.681,1.955,6.857,4.398,9.53,7.331
			c2.671,2.932,4.756,6.387,6.256,10.361c1.498,3.976,2.248,8.504,2.248,13.586c0,5.865-1.108,11.144-3.323,15.835
			c-2.216,4.692-5.295,8.7-9.237,12.023c-3.943,3.323-8.667,5.864-14.173,7.624C518.937,487.336,512.861,488.215,506.215,488.215z
			 M506.215,480.786c5.277,0,10.083-0.732,14.417-2.199c4.333-1.466,8.064-3.551,11.192-6.256c3.128-2.703,5.538-5.945,7.233-9.726
			c1.693-3.778,2.541-7.981,2.541-12.609c0-6.061-1.109-11.109-3.323-15.151c-2.217-4.04-5.051-7.265-8.504-9.677
			c-3.455-2.41-7.267-4.121-11.437-5.132c-4.171-1.009-8.211-1.515-12.12-1.515c-3.91,0-7.951,0.506-12.121,1.515
			c-4.171,1.011-7.983,2.722-11.437,5.132c-3.454,2.412-6.289,5.637-8.504,9.677c-2.216,4.042-3.323,9.09-3.323,15.151
			c0,4.627,0.847,8.831,2.542,12.609c1.693,3.78,4.088,7.022,7.184,9.726c3.095,2.705,6.826,4.79,11.192,6.256
			C496.113,480.054,500.937,480.786,506.215,480.786z M506.215,410.996c5.277,0,9.855-0.797,13.732-2.395
			c3.877-1.596,7.087-3.747,9.629-6.452c2.541-2.703,4.413-5.782,5.62-9.237c1.205-3.453,1.809-7.038,1.809-10.752
			c0-3.974-0.685-7.673-2.053-11.094c-1.369-3.421-3.373-6.402-6.012-8.944c-2.64-2.542-5.865-4.528-9.677-5.962
			c-3.812-1.433-8.162-2.15-13.049-2.15c-4.888,0-9.254,0.718-13.099,2.15c-3.846,1.434-7.087,3.421-9.726,5.962
			c-2.64,2.542-4.643,5.522-6.012,8.944c-1.368,3.421-2.053,7.12-2.053,11.094c0,3.714,0.603,7.299,1.809,10.752
			c1.205,3.455,3.079,6.534,5.62,9.237c2.542,2.705,5.751,4.855,9.628,6.452C496.26,410.198,500.87,410.996,506.215,410.996z"/>
	</g>
	<g display="inline">
		<path fill="#FFFFFF" d="M330.887,92.205v5.623h-15.973v43.813h-6.692V97.828H292.18v-5.623H330.887z"/>
		<path fill="#FFFFFF" d="M343.859,106.142c2.553,0,4.857,0.426,6.916,1.276c2.059,0.851,3.807,2.059,5.244,3.622
			c1.438,1.564,2.541,3.456,3.312,5.675c0.77,2.22,1.155,4.698,1.155,7.435c0,2.76-0.386,5.244-1.155,7.452
			c-0.771,2.208-1.875,4.094-3.312,5.658c-1.438,1.564-3.186,2.766-5.244,3.605s-4.363,1.259-6.916,1.259s-4.859-0.42-6.918-1.259
			s-3.812-2.041-5.26-3.605c-1.449-1.564-2.565-3.45-3.348-5.658c-0.781-2.208-1.172-4.692-1.172-7.452
			c0-2.737,0.391-5.215,1.172-7.435c0.782-2.219,1.898-4.111,3.348-5.675c1.448-1.563,3.201-2.771,5.26-3.622
			C339,106.568,341.307,106.142,343.859,106.142z M343.859,137.329c3.449,0,6.025-1.156,7.728-3.467
			c1.702-2.312,2.553-5.537,2.553-9.677c0-4.162-0.851-7.405-2.553-9.729c-1.702-2.323-4.278-3.484-7.728-3.484
			c-1.748,0-3.267,0.299-4.555,0.897c-1.287,0.599-2.363,1.461-3.225,2.587c-0.863,1.127-1.508,2.513-1.933,4.157
			c-0.426,1.645-0.638,3.501-0.638,5.571c0,2.07,0.212,3.922,0.638,5.555c0.425,1.633,1.069,3.007,1.933,4.123
			c0.861,1.116,1.938,1.972,3.225,2.57C340.593,137.03,342.111,137.329,343.859,137.329z"/>
		<path fill="#FFFFFF" d="M392.674,141.641c-0.873,0-1.426-0.425-1.655-1.276l-0.552-4.244c-1.496,1.817-3.203,3.272-5.123,4.364
			c-1.921,1.093-4.123,1.639-6.607,1.639c-2,0-3.817-0.385-5.45-1.156c-1.634-0.77-3.024-1.903-4.175-3.398
			c-1.15-1.495-2.035-3.358-2.656-5.589c-0.621-2.23-0.932-4.795-0.932-7.693c0-2.575,0.346-4.973,1.035-7.193
			c0.69-2.219,1.686-4.145,2.984-5.778c1.299-1.633,2.881-2.916,4.744-3.847c1.862-0.932,3.979-1.397,6.348-1.397
			c2.139,0,3.967,0.362,5.484,1.087c1.519,0.725,2.875,1.742,4.071,3.053V90.825h6.142v50.816H392.674z M380.772,137.156
			c2.001,0,3.755-0.46,5.261-1.38c1.506-0.919,2.893-2.219,4.157-3.898v-16.904c-1.127-1.518-2.363-2.582-3.708-3.191
			c-1.346-0.609-2.836-0.915-4.469-0.915c-3.266,0-5.772,1.162-7.52,3.484c-1.748,2.323-2.623,5.635-2.623,9.936
			c0,2.277,0.195,4.226,0.587,5.848s0.966,2.956,1.726,4.002c0.758,1.047,1.689,1.811,2.794,2.294S379.346,137.156,380.772,137.156z
			"/>
		<path fill="#FFFFFF" d="M432.313,141.641h-2.726c-0.599,0-1.081-0.092-1.449-0.276s-0.609-0.575-0.725-1.173l-0.689-3.243
			c-0.92,0.828-1.817,1.57-2.691,2.225c-0.874,0.656-1.794,1.208-2.76,1.656c-0.966,0.448-1.995,0.788-3.088,1.018
			c-1.092,0.229-2.306,0.345-3.639,0.345c-1.357,0-2.628-0.19-3.812-0.571s-2.214-0.952-3.088-1.713s-1.569-1.726-2.087-2.891
			c-0.518-1.165-0.776-2.544-0.776-4.136c0-1.384,0.38-2.717,1.139-3.998c0.759-1.281,1.983-2.418,3.674-3.41
			c1.69-0.993,3.904-1.806,6.642-2.441c2.736-0.634,6.083-0.952,10.039-0.952v-2.743c0-2.731-0.581-4.796-1.742-6.196
			c-1.162-1.401-2.881-2.101-5.158-2.101c-1.495,0-2.754,0.19-3.777,0.569s-1.909,0.806-2.656,1.276
			c-0.748,0.472-1.392,0.897-1.932,1.277c-0.541,0.379-1.076,0.569-1.604,0.569c-0.414,0-0.776-0.109-1.087-0.328
			c-0.311-0.218-0.558-0.488-0.741-0.811l-1.104-1.966c1.932-1.863,4.014-3.254,6.244-4.174s4.703-1.38,7.417-1.38
			c1.955,0,3.691,0.323,5.21,0.966c1.518,0.644,2.794,1.541,3.829,2.691s1.816,2.542,2.346,4.174
			c0.529,1.633,0.794,3.427,0.794,5.382V141.641z M416.375,137.881c1.081,0,2.069-0.109,2.967-0.328
			c0.896-0.219,1.742-0.529,2.535-0.932c0.794-0.402,1.553-0.891,2.277-1.466c0.725-0.575,1.432-1.23,2.122-1.966v-7.21
			c-2.829,0-5.232,0.18-7.211,0.538c-1.978,0.359-3.588,0.828-4.829,1.405c-1.242,0.579-2.146,1.261-2.709,2.047
			c-0.563,0.787-0.845,1.666-0.845,2.637c0,0.925,0.149,1.724,0.448,2.394c0.299,0.671,0.701,1.221,1.208,1.648
			c0.505,0.428,1.104,0.741,1.794,0.937C414.822,137.783,415.569,137.881,416.375,137.881z"/>
		<path fill="#FFFFFF" d="M450.77,151.956c-0.207,0.46-0.466,0.828-0.776,1.104s-0.788,0.414-1.432,0.414h-4.554l6.382-13.869
			l-14.42-32.912h5.312c0.528,0,0.942,0.133,1.242,0.397c0.298,0.265,0.518,0.558,0.655,0.879l9.349,22.01
			c0.207,0.506,0.385,1.012,0.535,1.518c0.149,0.506,0.281,1.023,0.396,1.552c0.161-0.529,0.322-1.046,0.483-1.552
			c0.16-0.506,0.345-1.023,0.552-1.552l9.073-21.976c0.138-0.368,0.373-0.672,0.707-0.914c0.333-0.242,0.695-0.362,1.087-0.362
			h4.898L450.77,151.956z"/>
	</g>
	<g display="inline">
		<path fill="none" stroke="#FFFFFF" stroke-width="4" stroke-linecap="round" stroke-linejoin="round" stroke-miterlimit="10" d="
			M390,667.707c0,5.685-4.609,10.293-10.294,10.293h-0.412c-5.685,0-10.294-4.608-10.294-10.293v-20.414
			c0-5.685,4.609-10.293,10.294-10.293h0.412c5.685,0,10.294,4.608,10.294,10.293V667.707z"/>
		<path fill="none" stroke="#FFFFFF" stroke-width="4" stroke-linecap="round" stroke-linejoin="round" stroke-miterlimit="10" d="
			M418,653.706c0,5.686-4.609,10.294-10.295,10.294h-0.41c-5.686,0-10.295-4.608-10.295-10.294v-20.412
			c0-5.686,4.609-10.294,10.295-10.294h0.41c5.686,0,10.295,4.608,10.295,10.294V653.706z"/>
	</g>
	<g display="inline">
		<circle opacity="0.4" fill="#FFFFFF" cx="302.33" cy="773.35" r="11.5"/>
		<circle fill="#FFFFFF" cx="339.129" cy="773.35" r="11.5"/>
		<circle opacity="0.4" fill="#FFFFFF" cx="375.927" cy="773.35" r="11.499"/>
		<circle opacity="0.4" fill="#FFFFFF" cx="412.726" cy="773.35" r="11.499"/>
		<circle opacity="0.4" fill="#FFFFFF" cx="449.524" cy="773.35" r="11.499"/>
		<path opacity="0.4" fill="#FFFFFF" d="M497.822,773.35c0,6.354-5.146,11.5-11.5,11.5c-6.352,0-11.498-5.146-11.498-11.5
			c0-6.349,5.146-11.499,11.498-11.499C492.676,761.851,497.822,767.001,497.822,773.35z"/>
	</g>
</g>
<g id="v2">
	<linearGradient id="SVGID_4_" gradientUnits="userSpaceOnUse" x1="393.4629" y1="37.4893" x2="393.4629" y2="861.6069">
		<stop  offset="0" style="stop-color:#007DAF"/>
		<stop  offset="0.16" style="stop-color:#0486AE"/>
		<stop  offset="0.4202" style="stop-color:#109EAB"/>
		<stop  offset="0.5" style="stop-color:#14A7AA"/>
		<stop  offset="0.5697" style="stop-color:#1DAAAA"/>
		<stop  offset="0.6833" style="stop-color:#35B2A9"/>
		<stop  offset="0.8267" style="stop-color:#5DC0A7"/>
		<stop  offset="0.9929" style="stop-color:#94D2A5"/>
		<stop  offset="1" style="stop-color:#96D3A5"/>
	</linearGradient>
	<path fill="url(#SVGID_4_)" d="M744.496,743.659c0,64.871-53.076,117.947-117.947,117.947H160.377
		c-64.871,0-117.947-53.076-117.947-117.947V155.437c0-64.871,53.076-117.947,117.947-117.947h466.172
		c64.871,0,117.947,53.077,117.947,117.947V743.659z"/>
	<linearGradient id="SVGID_5_" gradientUnits="userSpaceOnUse" x1="395" y1="228" x2="395" y2="37">
		<stop  offset="0" style="stop-color:#FFFFFF"/>
		<stop  offset="1" style="stop-color:#FFFFFF;stop-opacity:0"/>
	</linearGradient>
	<path opacity="0.2" fill="url(#SVGID_5_)" d="M683,37v169.779C683,217.806,672.338,228,659.631,228H130.652
		C117.944,228,107,217.806,107,206.779V37H683z"/>
	<path opacity="0.2" fill="#F3F2F2" d="M680,563.356C680,576.06,669.787,586,657.391,586H128.6c-12.396,0-22.6-9.94-22.6-22.644
		V276.057C106,263.354,116.204,253,128.6,253h528.791C669.787,253,680,263.354,680,276.057V563.356z"/>
	<g>
		<path fill="#FFFFFF" d="M339.273,698.816c-0.16,0.323-0.414,0.483-0.758,0.483c-0.254,0-0.582-0.144-0.984-0.432
			c-0.402-0.287-0.932-0.608-1.586-0.966c-0.656-0.356-1.461-0.678-2.416-0.966c-0.954-0.287-2.121-0.431-3.501-0.431
			c-1.242,0-2.375,0.178-3.398,0.533s-1.897,0.832-2.622,1.428c-0.725,0.597-1.288,1.29-1.689,2.081
			c-0.403,0.792-0.604,1.623-0.604,2.495c0,1.078,0.276,1.973,0.828,2.684s1.276,1.318,2.173,1.823
			c0.897,0.505,1.915,0.94,3.054,1.308s2.306,0.735,3.501,1.103c1.196,0.368,2.363,0.776,3.502,1.225s2.156,1.007,3.053,1.673
			c0.897,0.668,1.622,1.483,2.174,2.45c0.553,0.966,0.828,2.139,0.828,3.519c0,1.495-0.271,2.887-0.811,4.174
			c-0.541,1.289-1.322,2.404-2.346,3.347c-1.023,0.943-2.283,1.69-3.777,2.242c-1.496,0.553-3.197,0.828-5.106,0.828
			c-2.415,0-4.497-0.385-6.244-1.155c-1.748-0.771-3.312-1.777-4.692-3.019l0.794-1.173c0.114-0.185,0.241-0.322,0.38-0.414
			c0.138-0.092,0.333-0.139,0.586-0.139c0.299,0,0.667,0.185,1.104,0.553c0.438,0.368,1.006,0.765,1.709,1.189
			c0.701,0.426,1.574,0.823,2.621,1.19c1.047,0.368,2.34,0.552,3.881,0.552c1.449,0,2.727-0.201,3.83-0.604s2.023-0.948,2.76-1.639
			c0.736-0.689,1.293-1.501,1.673-2.432c0.38-0.932,0.569-1.915,0.569-2.95c0-1.149-0.275-2.104-0.828-2.863
			c-0.552-0.759-1.276-1.402-2.174-1.932c-0.896-0.529-1.914-0.978-3.053-1.346c-1.139-0.367-2.311-0.735-3.519-1.104
			s-2.38-0.771-3.519-1.208c-1.139-0.437-2.156-0.988-3.054-1.656c-0.897-0.666-1.621-1.478-2.173-2.432
			c-0.553-0.954-0.828-2.145-0.828-3.57c0-1.219,0.264-2.393,0.793-3.52c0.529-1.126,1.282-2.115,2.26-2.967
			c0.978-0.851,2.168-1.529,3.57-2.035s2.979-0.759,4.727-0.759c2.093,0,3.95,0.303,5.572,0.909
			c1.621,0.606,3.109,1.533,4.467,2.782L339.273,698.816z"/>
		<path fill="#FFFFFF" d="M359.387,729.417c-2.324,0-4.129-0.644-5.417-1.932s-1.932-3.277-1.932-5.969v-23.459h-4.934
			c-0.253,0-0.46-0.068-0.62-0.207c-0.162-0.138-0.242-0.333-0.242-0.586v-1.276l5.865-0.414l0.818-12.282
			c0.023-0.207,0.108-0.391,0.256-0.552c0.148-0.16,0.348-0.241,0.598-0.241h1.536v13.109h10.798v2.449h-10.798v23.287
			c0,0.943,0.12,1.754,0.362,2.432c0.241,0.679,0.574,1.237,1,1.674s0.926,0.759,1.501,0.966s1.196,0.311,1.862,0.311
			c0.828,0,1.541-0.121,2.14-0.362c0.598-0.241,1.115-0.506,1.552-0.794c0.438-0.287,0.794-0.552,1.07-0.793
			c0.275-0.241,0.494-0.362,0.655-0.362c0.184,0,0.368,0.115,0.552,0.345l0.896,1.449c-0.873,0.966-1.982,1.742-3.328,2.328
			C362.232,729.124,360.835,729.417,359.387,729.417z"/>
		<path fill="#FFFFFF" d="M387.57,693.987c1.932,0,3.721,0.333,5.365,1c1.645,0.668,3.07,1.639,4.277,2.915s2.15,2.847,2.829,4.709
			c0.678,1.863,1.018,4.002,1.018,6.417c0,0.506-0.075,0.852-0.224,1.035c-0.149,0.185-0.386,0.276-0.707,0.276h-24.771v0.655
			c0,2.576,0.298,4.842,0.897,6.796c0.598,1.955,1.448,3.594,2.553,4.916c1.104,1.323,2.438,2.317,4.002,2.984
			c1.562,0.667,3.311,1,5.243,1c1.726,0,3.22-0.189,4.485-0.568c1.264-0.38,2.328-0.806,3.19-1.277
			c0.862-0.471,1.547-0.896,2.053-1.276c0.506-0.379,0.874-0.569,1.104-0.569c0.298,0,0.528,0.116,0.689,0.346l0.897,1.104
			c-0.553,0.69-1.283,1.334-2.19,1.932c-0.91,0.599-1.922,1.11-3.037,1.536s-2.311,0.765-3.588,1.018
			c-1.275,0.253-2.559,0.379-3.846,0.379c-2.346,0-4.485-0.408-6.417-1.225c-1.933-0.816-3.59-2.006-4.974-3.57
			c-1.383-1.563-2.453-3.479-3.208-5.744c-0.756-2.265-1.134-4.858-1.134-7.779c0-2.461,0.352-4.731,1.053-6.813
			c0.701-2.081,1.713-3.875,3.036-5.382c1.322-1.506,2.944-2.686,4.864-3.536S385.133,693.987,387.57,693.987z M387.621,696.437
			c-1.768,0-3.354,0.276-4.754,0.828s-2.611,1.345-3.634,2.38s-1.849,2.277-2.479,3.727c-0.633,1.448-1.051,3.07-1.258,4.864h22.597
			c0-1.84-0.253-3.49-0.758-4.951c-0.506-1.46-1.218-2.696-2.136-3.708s-2.021-1.788-3.307-2.329
			C390.605,696.707,389.183,696.437,387.621,696.437z"/>
		<path fill="#FFFFFF" d="M409.891,741.009v-46.47h1.794c0.299,0,0.54,0.063,0.725,0.189c0.184,0.127,0.287,0.352,0.311,0.673
			l0.311,5.312c1.518-2.069,3.294-3.714,5.33-4.933c2.035-1.219,4.317-1.829,6.848-1.829c4.231,0,7.521,1.461,9.866,4.382
			c2.347,2.921,3.52,7.303,3.52,13.144c0,2.508-0.328,4.848-0.983,7.021c-0.655,2.174-1.616,4.06-2.881,5.658
			s-2.823,2.858-4.675,3.777c-1.852,0.92-3.984,1.38-6.399,1.38c-2.346,0-4.37-0.426-6.071-1.276
			c-1.702-0.851-3.174-2.115-4.416-3.795v16.767H409.891z M424.276,696.609c-2.276,0-4.341,0.592-6.192,1.776
			s-3.49,2.835-4.916,4.95v18.009c1.311,1.979,2.766,3.369,4.364,4.174c1.598,0.806,3.421,1.208,5.468,1.208
			c2.023,0,3.795-0.368,5.312-1.104c1.519-0.735,2.789-1.776,3.812-3.122s1.794-2.955,2.312-4.83
			c0.518-1.874,0.776-3.938,0.776-6.192c0-5.105-0.938-8.86-2.812-11.264C430.526,697.811,427.818,696.609,424.276,696.609z"/>
		<path fill="#FFFFFF" d="M465.709,698.816c-0.161,0.323-0.414,0.483-0.759,0.483c-0.254,0-0.581-0.144-0.983-0.432
			c-0.402-0.287-0.932-0.608-1.587-0.966c-0.655-0.356-1.461-0.678-2.415-0.966c-0.955-0.287-2.122-0.431-3.502-0.431
			c-1.241,0-2.375,0.178-3.397,0.533c-1.023,0.355-1.897,0.832-2.622,1.428c-0.725,0.597-1.288,1.29-1.69,2.081
			c-0.402,0.792-0.604,1.623-0.604,2.495c0,1.078,0.275,1.973,0.828,2.684c0.552,0.711,1.276,1.318,2.173,1.823
			c0.897,0.505,1.915,0.94,3.053,1.308c1.139,0.367,2.306,0.735,3.502,1.103c1.195,0.368,2.363,0.776,3.502,1.225
			s2.156,1.007,3.053,1.673c0.897,0.668,1.622,1.483,2.174,2.45c0.552,0.966,0.828,2.139,0.828,3.519
			c0,1.495-0.271,2.887-0.812,4.174c-0.54,1.289-1.322,2.404-2.346,3.347c-1.023,0.943-2.282,1.69-3.777,2.242
			c-1.495,0.553-3.197,0.828-5.105,0.828c-2.415,0-4.497-0.385-6.244-1.155c-1.749-0.771-3.312-1.777-4.692-3.019l0.794-1.173
			c0.114-0.185,0.241-0.322,0.379-0.414s0.333-0.139,0.587-0.139c0.299,0,0.667,0.185,1.104,0.553s1.006,0.765,1.708,1.189
			c0.701,0.426,1.575,0.823,2.622,1.19c1.046,0.368,2.34,0.552,3.881,0.552c1.449,0,2.726-0.201,3.829-0.604
			c1.104-0.402,2.023-0.948,2.76-1.639c0.736-0.689,1.294-1.501,1.674-2.432c0.379-0.932,0.569-1.915,0.569-2.95
			c0-1.149-0.276-2.104-0.828-2.863s-1.276-1.402-2.174-1.932c-0.896-0.529-1.914-0.978-3.053-1.346
			c-1.139-0.367-2.312-0.735-3.52-1.104c-1.207-0.368-2.38-0.771-3.519-1.208c-1.139-0.437-2.156-0.988-3.053-1.656
			c-0.897-0.666-1.622-1.478-2.174-2.432s-0.828-2.145-0.828-3.57c0-1.219,0.265-2.393,0.794-3.52
			c0.528-1.126,1.281-2.115,2.26-2.967c0.977-0.851,2.167-1.529,3.57-2.035c1.402-0.506,2.979-0.759,4.727-0.759
			c2.093,0,3.95,0.303,5.571,0.909s3.11,1.533,4.468,2.782L465.709,698.816z"/>
	</g>
	<g>
		<rect x="135.781" y="344.238" fill="none" width="514.098" height="170.667"/>
		<path fill="#FFFFFF" d="M284.141,403.958c5.928,0,11.402,0.978,16.421,2.932c5.017,1.955,9.335,4.709,12.951,8.26
			c3.616,3.552,6.452,7.854,8.504,12.902c2.053,5.051,3.079,10.704,3.079,16.959c0,6.256-1.124,12.023-3.372,17.301
			s-5.376,9.841-9.384,13.685c-4.008,3.846-8.814,6.842-14.418,8.992c-5.604,2.15-11.763,3.226-18.474,3.226
			c-6.451,0-12.35-1.043-17.692-3.127c-5.344-2.085-9.921-5.083-13.732-8.993c-3.812-3.91-6.762-8.683-8.847-14.319
			c-2.087-5.636-3.128-12.006-3.128-19.11c0-5.408,1.369-11.517,4.105-18.328c2.736-6.809,7.232-14.45,13.488-22.921l37.73-50.828
			c1.107-1.498,2.77-2.248,4.985-2.248h8.21l-41.248,53.858c-2.021,2.672-3.878,5.18-5.572,7.526
			c-1.695,2.346-3.225,4.66-4.594,6.94c3.844-3.974,8.406-7.087,13.685-9.335S277.885,403.958,284.141,403.958z M245.139,444.914
			c0,5.149,0.798,9.906,2.396,14.271c1.596,4.366,3.86,8.13,6.794,11.29c2.932,3.161,6.515,5.62,10.752,7.38
			c4.234,1.759,8.992,2.639,14.271,2.639c5.604,0,10.654-0.88,15.15-2.639c4.497-1.76,8.323-4.187,11.485-7.282
			c3.16-3.095,5.587-6.776,7.282-11.046c1.694-4.267,2.542-8.909,2.542-13.929c0-5.278-0.832-10.051-2.493-14.32
			c-1.661-4.267-4.008-7.884-7.038-10.85c-3.029-2.964-6.631-5.245-10.801-6.842c-4.171-1.596-8.797-2.395-13.88-2.395
			c-5.735,0-10.866,0.994-15.396,2.981c-4.529,1.989-8.357,4.562-11.484,7.722c-3.129,3.161-5.508,6.761-7.136,10.801
			C245.953,436.737,245.139,440.808,245.139,444.914z"/>
		<path fill="#FFFFFF" d="M366.342,479.516h31.768V367.219c0-2.216,0.098-4.563,0.294-7.042l-30.497,27.096
			c-0.652,0.588-1.434,0.881-2.346,0.881c-1.109,0-1.955-0.391-2.541-1.175l-2.836-3.913l39.979-35.312h7.233v131.762H437.6v7.136
			h-71.258V479.516z"/>
		<path fill="#FFFFFF" d="M506.215,488.215c-6.647,0-12.725-0.879-18.23-2.639c-5.507-1.76-10.231-4.301-14.173-7.624
			c-3.943-3.323-7.022-7.331-9.237-12.023c-2.216-4.691-3.323-9.97-3.323-15.835c0-5.083,0.733-9.611,2.199-13.586
			c1.467-3.974,3.534-7.429,6.207-10.361c2.671-2.933,5.848-5.376,9.53-7.331c3.681-1.955,7.737-3.421,12.169-4.398
			c-4.041-1.173-7.624-2.769-10.752-4.79c-3.128-2.019-5.751-4.431-7.868-7.233c-2.118-2.801-3.731-5.914-4.839-9.335
			c-1.108-3.421-1.661-7.086-1.661-10.996c0-4.888,0.929-9.481,2.785-13.782c1.857-4.301,4.512-8.047,7.967-11.241
			c3.453-3.192,7.64-5.701,12.561-7.526c4.919-1.824,10.474-2.737,16.666-2.737c6.124,0,11.646,0.913,16.567,2.737
			c4.92,1.825,9.123,4.334,12.609,7.526c3.485,3.194,6.158,6.94,8.016,11.241c1.856,4.301,2.785,8.895,2.785,13.782
			c0,3.91-0.554,7.575-1.661,10.996c-1.109,3.421-2.737,6.534-4.888,9.335c-2.15,2.803-4.789,5.214-7.917,7.233
			c-3.128,2.021-6.713,3.616-10.753,4.79c4.431,0.977,8.487,2.443,12.17,4.398c3.681,1.955,6.857,4.398,9.53,7.331
			c2.671,2.932,4.756,6.387,6.256,10.361c1.498,3.976,2.248,8.504,2.248,13.586c0,5.865-1.108,11.144-3.323,15.835
			c-2.216,4.692-5.295,8.7-9.237,12.023c-3.943,3.323-8.667,5.864-14.173,7.624C518.937,487.336,512.861,488.215,506.215,488.215z
			 M506.215,480.786c5.277,0,10.083-0.732,14.417-2.199c4.333-1.466,8.064-3.551,11.192-6.256c3.128-2.703,5.538-5.945,7.233-9.726
			c1.693-3.778,2.541-7.981,2.541-12.609c0-6.061-1.109-11.109-3.323-15.151c-2.217-4.04-5.051-7.265-8.504-9.677
			c-3.455-2.41-7.267-4.121-11.437-5.132c-4.171-1.009-8.211-1.515-12.12-1.515c-3.91,0-7.951,0.506-12.121,1.515
			c-4.171,1.011-7.983,2.722-11.437,5.132c-3.454,2.412-6.289,5.637-8.504,9.677c-2.216,4.042-3.323,9.09-3.323,15.151
			c0,4.627,0.847,8.831,2.542,12.609c1.693,3.78,4.088,7.022,7.184,9.726c3.095,2.705,6.826,4.79,11.192,6.256
			C496.113,480.054,500.937,480.786,506.215,480.786z M506.215,410.996c5.277,0,9.855-0.797,13.732-2.395
			c3.877-1.596,7.087-3.747,9.629-6.452c2.541-2.703,4.413-5.782,5.62-9.237c1.205-3.453,1.809-7.038,1.809-10.752
			c0-3.974-0.685-7.673-2.053-11.094c-1.369-3.421-3.373-6.402-6.012-8.944c-2.64-2.542-5.865-4.528-9.677-5.962
			c-3.812-1.433-8.162-2.15-13.049-2.15c-4.888,0-9.254,0.718-13.099,2.15c-3.846,1.434-7.087,3.421-9.726,5.962
			c-2.64,2.542-4.643,5.522-6.012,8.944c-1.368,3.421-2.053,7.12-2.053,11.094c0,3.714,0.603,7.299,1.809,10.752
			c1.205,3.455,3.079,6.534,5.62,9.237c2.542,2.705,5.751,4.855,9.628,6.452C496.26,410.198,500.87,410.996,506.215,410.996z"/>
	</g>
	<g>
		<path fill="#FFFFFF" d="M330.887,92.205v5.623h-15.973v43.813h-6.692V97.828H292.18v-5.623H330.887z"/>
		<path fill="#FFFFFF" d="M343.859,106.142c2.553,0,4.857,0.426,6.916,1.276c2.059,0.851,3.807,2.059,5.244,3.622
			c1.438,1.564,2.541,3.456,3.312,5.675c0.77,2.22,1.155,4.698,1.155,7.435c0,2.76-0.386,5.244-1.155,7.452
			c-0.771,2.208-1.875,4.094-3.312,5.658c-1.438,1.564-3.186,2.766-5.244,3.605s-4.363,1.259-6.916,1.259s-4.859-0.42-6.918-1.259
			s-3.812-2.041-5.26-3.605c-1.449-1.564-2.565-3.45-3.348-5.658c-0.781-2.208-1.172-4.692-1.172-7.452
			c0-2.737,0.391-5.215,1.172-7.435c0.782-2.219,1.898-4.111,3.348-5.675c1.448-1.563,3.201-2.771,5.26-3.622
			C339,106.568,341.307,106.142,343.859,106.142z M343.859,137.329c3.449,0,6.025-1.156,7.728-3.467
			c1.702-2.312,2.553-5.537,2.553-9.677c0-4.162-0.851-7.405-2.553-9.729c-1.702-2.323-4.278-3.484-7.728-3.484
			c-1.748,0-3.267,0.299-4.555,0.897c-1.287,0.599-2.363,1.461-3.225,2.587c-0.863,1.127-1.508,2.513-1.933,4.157
			c-0.426,1.645-0.638,3.501-0.638,5.571c0,2.07,0.212,3.922,0.638,5.555c0.425,1.633,1.069,3.007,1.933,4.123
			c0.861,1.116,1.938,1.972,3.225,2.57C340.593,137.03,342.111,137.329,343.859,137.329z"/>
		<path fill="#FFFFFF" d="M392.674,141.641c-0.873,0-1.426-0.425-1.655-1.276l-0.552-4.244c-1.496,1.817-3.203,3.272-5.123,4.364
			c-1.921,1.093-4.123,1.639-6.607,1.639c-2,0-3.817-0.385-5.45-1.156c-1.634-0.77-3.024-1.903-4.175-3.398
			c-1.15-1.495-2.035-3.358-2.656-5.589c-0.621-2.23-0.932-4.795-0.932-7.693c0-2.575,0.346-4.973,1.035-7.193
			c0.69-2.219,1.686-4.145,2.984-5.778c1.299-1.633,2.881-2.916,4.744-3.847c1.862-0.932,3.979-1.397,6.348-1.397
			c2.139,0,3.967,0.362,5.484,1.087c1.519,0.725,2.875,1.742,4.071,3.053V90.825h6.142v50.816H392.674z M380.772,137.156
			c2.001,0,3.755-0.46,5.261-1.38c1.506-0.919,2.893-2.219,4.157-3.898v-16.904c-1.127-1.518-2.363-2.582-3.708-3.191
			c-1.346-0.609-2.836-0.915-4.469-0.915c-3.266,0-5.772,1.162-7.52,3.484c-1.748,2.323-2.623,5.635-2.623,9.936
			c0,2.277,0.195,4.226,0.587,5.848s0.966,2.956,1.726,4.002c0.758,1.047,1.689,1.811,2.794,2.294S379.346,137.156,380.772,137.156z
			"/>
		<path fill="#FFFFFF" d="M432.313,141.641h-2.726c-0.599,0-1.081-0.092-1.449-0.276s-0.609-0.575-0.725-1.173l-0.689-3.243
			c-0.92,0.828-1.817,1.57-2.691,2.225c-0.874,0.656-1.794,1.208-2.76,1.656c-0.966,0.448-1.995,0.788-3.088,1.018
			c-1.092,0.229-2.306,0.345-3.639,0.345c-1.357,0-2.628-0.19-3.812-0.571s-2.214-0.952-3.088-1.713s-1.569-1.726-2.087-2.891
			c-0.518-1.165-0.776-2.544-0.776-4.136c0-1.384,0.38-2.717,1.139-3.998c0.759-1.281,1.983-2.418,3.674-3.41
			c1.69-0.993,3.904-1.806,6.642-2.441c2.736-0.634,6.083-0.952,10.039-0.952v-2.743c0-2.731-0.581-4.796-1.742-6.196
			c-1.162-1.401-2.881-2.101-5.158-2.101c-1.495,0-2.754,0.19-3.777,0.569s-1.909,0.806-2.656,1.276
			c-0.748,0.472-1.392,0.897-1.932,1.277c-0.541,0.379-1.076,0.569-1.604,0.569c-0.414,0-0.776-0.109-1.087-0.328
			c-0.311-0.218-0.558-0.488-0.741-0.811l-1.104-1.966c1.932-1.863,4.014-3.254,6.244-4.174s4.703-1.38,7.417-1.38
			c1.955,0,3.691,0.323,5.21,0.966c1.518,0.644,2.794,1.541,3.829,2.691s1.816,2.542,2.346,4.174
			c0.529,1.633,0.794,3.427,0.794,5.382V141.641z M416.375,137.881c1.081,0,2.069-0.109,2.967-0.328
			c0.896-0.219,1.742-0.529,2.535-0.932c0.794-0.402,1.553-0.891,2.277-1.466c0.725-0.575,1.432-1.23,2.122-1.966v-7.21
			c-2.829,0-5.232,0.18-7.211,0.538c-1.978,0.359-3.588,0.828-4.829,1.405c-1.242,0.579-2.146,1.261-2.709,2.047
			c-0.563,0.787-0.845,1.666-0.845,2.637c0,0.925,0.149,1.724,0.448,2.394c0.299,0.671,0.701,1.221,1.208,1.648
			c0.505,0.428,1.104,0.741,1.794,0.937C414.822,137.783,415.569,137.881,416.375,137.881z"/>
		<path fill="#FFFFFF" d="M450.77,151.956c-0.207,0.46-0.466,0.828-0.776,1.104s-0.788,0.414-1.432,0.414h-4.554l6.382-13.869
			l-14.42-32.912h5.312c0.528,0,0.942,0.133,1.242,0.397c0.298,0.265,0.518,0.558,0.655,0.879l9.349,22.01
			c0.207,0.506,0.385,1.012,0.535,1.518c0.149,0.506,0.281,1.023,0.396,1.552c0.161-0.529,0.322-1.046,0.483-1.552
			c0.16-0.506,0.345-1.023,0.552-1.552l9.073-21.976c0.138-0.368,0.373-0.672,0.707-0.914c0.333-0.242,0.695-0.362,1.087-0.362
			h4.898L450.77,151.956z"/>
	</g>
	<g>
		<path fill="none" stroke="#FFFFFF" stroke-width="4" stroke-linecap="round" stroke-linejoin="round" stroke-miterlimit="10" d="
			M390,667.707c0,5.685-4.609,10.293-10.294,10.293h-0.412c-5.685,0-10.294-4.608-10.294-10.293v-20.414
			c0-5.685,4.609-10.293,10.294-10.293h0.412c5.685,0,10.294,4.608,10.294,10.293V667.707z"/>
		<path fill="none" stroke="#FFFFFF" stroke-width="4" stroke-linecap="round" stroke-linejoin="round" stroke-miterlimit="10" d="
			M418,653.706c0,5.686-4.609,10.294-10.295,10.294h-0.41c-5.686,0-10.295-4.608-10.295-10.294v-20.412
			c0-5.686,4.609-10.294,10.295-10.294h0.41c5.686,0,10.295,4.608,10.295,10.294V653.706z"/>
	</g>
	<g>
		<circle opacity="0.4" fill="#FFFFFF" cx="302.33" cy="773.35" r="11.5"/>
		<circle fill="#FFFFFF" cx="339.129" cy="773.35" r="11.5"/>
		<circle opacity="0.4" fill="#FFFFFF" cx="375.927" cy="773.35" r="11.499"/>
		<circle opacity="0.4" fill="#FFFFFF" cx="412.726" cy="773.35" r="11.499"/>
		<circle opacity="0.4" fill="#FFFFFF" cx="449.524" cy="773.35" r="11.499"/>
		<path opacity="0.4" fill="#FFFFFF" d="M497.822,773.35c0,6.354-5.146,11.5-11.5,11.5c-6.352,0-11.498-5.146-11.498-11.5
			c0-6.349,5.146-11.499,11.498-11.499C492.676,761.851,497.822,767.001,497.822,773.35z"/>
	</g>
</g>
<g id="watch">
	<g>
		<path fill="none" stroke="#D3D7DC" stroke-miterlimit="10" d="M786.5,480.861v94.985c0,7.039-5.998,12.653-13.031,12.653H768.5
			v-117h4.969C780.502,471.5,786.5,473.823,786.5,480.861z"/>
		<path fill="#FFFFFF" stroke="#D3D7DC" stroke-miterlimit="10" d="M769.13,207.61v-56.47c0-76.47-62.56-139.03-139.02-139.03
			H156.04C79.58,12.11,17.02,74.67,17.02,151.14v596.4c0,76.47,62.561,139.03,139.021,139.03h474.07
			c76.46,0,139.02-62.561,139.02-139.03V358.06h-0.01c-13.72-6.03-24.18-37.41-24.18-75.23
			C744.94,245.02,755.4,213.63,769.13,207.61z M741.17,740.54c0,64.229-52.55,116.78-116.78,116.78H162.83
			c-64.23,0-116.78-52.551-116.78-116.78v-582.4c0-64.23,52.55-116.78,116.78-116.78h461.56c64.23,0,116.78,52.55,116.78,116.78
			V740.54z"/>
		<path fill="none" stroke="#D3D7DC" stroke-miterlimit="10" d="M769.131,208.318h12.86c12.233,0,22.243,10.01,22.243,22.244
			v105.958c0,12.234-10.01,22.244-22.243,22.244h-12.86"/>
		<g>
			<path fill="#D3D7DC" d="M804.234,343.537l-17.552,7.567v-1.393l17.552-7.389V343.537z M804.234,336.244l-17.552,6.501v-1.393
				l17.552-6.324V336.244z M804.234,328.951l-17.552,5.436v-1.393l17.552-5.258V328.951z M804.234,321.659l-17.552,4.37v-1.393
				l17.552-4.192V321.659z M804.234,314.366l-17.552,3.305v-1.394l17.552-3.128V314.366z M804.234,307.074l-17.552,2.239v-1.393
				l17.552-2.062V307.074z M804.234,299.781l-17.552,1.174v-1.393l17.552-0.996V299.781z M804.234,292.488l-17.552,0.108v-1.393
				l17.552,0.069V292.488z M804.234,285.195l-17.552-0.957v-1.393l17.552,1.135V285.195z M804.234,277.902l-17.552-2.023v-1.393
				l17.552,2.201V277.902z M804.234,270.61l-17.552-3.089v-1.394l17.552,3.266V270.61z M804.234,263.317l-17.552-4.154v-1.393
				l17.552,4.332V263.317z M804.234,256.024l-17.552-5.219v-1.393l17.552,5.397V256.024z M804.234,248.732l-17.552-6.286v-1.393
				l17.552,6.462V248.732z M804.234,241.439l-17.552-7.351v-1.393l17.552,7.528V241.439z M804.234,234.146l-17.552-8.416v-1.393
				l17.552,8.594V234.146z M804.234,226.854l-17.552-9.482v-1.394l17.552,9.66V226.854z"/>
		</g>
	</g>
</g>
</svg>
