<?xml version="1.0" encoding="utf-8"?>
<!-- Generator: Adobe Illustrator 16.0.4, SVG Export Plug-In . SVG Version: 6.00 Build 0)  -->
<!DOCTYPE svg PUBLIC "-//W3C//DTD SVG 1.1//EN" "http://www.w3.org/Graphics/SVG/1.1/DTD/svg11.dtd">
<svg version="1.1" xmlns="http://www.w3.org/2000/svg" xmlns:xlink="http://www.w3.org/1999/xlink" x="0px" y="0px" width="820px"
	 height="900px" viewBox="0 0 820 900" enable-background="new 0 0 820 900" xml:space="preserve">
<g id="screens" display="none">
	<linearGradient id="SVGID_2_" gradientUnits="userSpaceOnUse" x1="404.4624" y1="37.6748" x2="404.4624" y2="861.7935">
		<stop  offset="0" style="stop-color:#D27E74"/>
		<stop  offset="1" style="stop-color:#EE9E6C"/>
	</linearGradient>
	<path display="inline" fill="url(#SVGID_2_)" d="M755.496,743.846c0,64.87-53.076,117.947-117.947,117.947H171.377
		c-64.871,0-117.947-53.077-117.947-117.947V155.623c0-64.871,53.077-117.948,117.947-117.948h466.172
		c64.871,0,117.947,53.077,117.947,117.948V743.846z"/>
	<polyline display="inline" opacity="0.2" fill="#F3F2F2" points="698,452 651.217,452 628.871,580.701 608.877,308.492 
		577.125,490.824 558.309,414.065 539.375,451 488.393,451 518.383,451 472.281,451 449.932,579.721 429.943,307.519 
		398.189,489.855 379.372,413.081 360.438,450 309.455,450 318.452,450 272.351,450 250.005,578.74 230.013,306.547 
		198.259,488.887 179.442,412.597 160.508,450 110,450 	"/>
	
		<polyline display="inline" fill="none" stroke="#F3F2F2" stroke-width="5" stroke-linecap="round" stroke-linejoin="round" stroke-miterlimit="10" points="
		698,451.5 651.217,451.5 628.871,580.454 608.877,308.367 577.125,490.76 558.309,413.784 539.375,450.5 488.393,450.5 
		518.383,450.5 472.281,450.5 449.932,579.472 429.943,307.394 398.189,489.791 379.372,412.799 360.438,449.5 309.455,449.5 
		318.452,449.5 272.351,449.5 250.005,578.491 230.013,306.421 198.259,488.826 179.442,412.315 160.508,449.5 110,449.5 	"/>
	
		<text transform="matrix(1 0 0 1 267.8564 708.2432)" display="inline" fill="#FFFFFF" font-family="'Lato-Light'" font-size="57.8073">heart rate</text>
	
		<path display="inline" fill="none" stroke="#FFFFFF" stroke-width="4" stroke-linecap="round" stroke-linejoin="round" stroke-miterlimit="10" d="
		M414.361,632h0.006l-12.913,21h-0.006c-2.341,6-6.586,6.752-11.421,6.752c-4.846,0-9.096-2.433-11.438-6.304l-0.006,0.087
		l-0.216-0.353c-0.037-0.063-0.074,0.12-0.11,0.054L366.199,632h0.005c-1.06-1-1.666-4.342-1.666-6.684
		c0-7.365,5.995-13.471,13.361-13.471c5.605,0,10.41,3.415,12.393,8.322c1.977-4.907,6.786-8.409,12.392-8.409
		c7.362,0,13.356,6.198,13.356,13.563C416.039,627.671,415.426,631,414.361,632z"/>
	
		<text transform="matrix(1 0 0 1 295.541 217.1646)" display="inline" fill="#FFFFFF" font-family="'Lato-Regular'" font-size="57.8073">65 bpm</text>
	<g display="inline">
		<circle fill="#FFFFFF" cx="324.775" cy="744.737" r="9.635"/>
		<circle opacity="0.4" fill="#FFFFFF" cx="355.604" cy="744.737" r="9.635"/>
		<circle opacity="0.4" fill="#FFFFFF" cx="386.436" cy="744.737" r="9.634"/>
		<circle opacity="0.4" fill="#FFFFFF" cx="417.265" cy="744.737" r="9.634"/>
		<circle opacity="0.4" fill="#FFFFFF" cx="448.096" cy="744.737" r="9.635"/>
		<circle opacity="0.4" fill="#FFFFFF" cx="478.927" cy="744.737" r="9.634"/>
	</g>
</g>
<g id="v2">
	<linearGradient id="SVGID_3_" gradientUnits="userSpaceOnUse" x1="404.4624" y1="37.6748" x2="404.4624" y2="861.7935">
		<stop  offset="0" style="stop-color:#B33761"/>
		<stop  offset="0.5" style="stop-color:#C8716E"/>
		<stop  offset="0.633" style="stop-color:#CE7A6D"/>
		<stop  offset="0.8491" style="stop-color:#E09269"/>
		<stop  offset="1" style="stop-color:#EFA766"/>
	</linearGradient>
	<path fill="url(#SVGID_3_)" d="M755.496,743.846c0,64.87-53.076,117.947-117.947,117.947H171.377
		c-64.871,0-117.947-53.077-117.947-117.947V155.623c0-64.871,53.077-117.948,117.947-117.948h466.172
		c64.871,0,117.947,53.077,117.947,117.948V743.846z"/>
	<polyline opacity="0.2" fill="#F3F2F2" points="698,452 651.217,452 628.871,580.701 608.877,308.492 577.125,490.824 
		558.309,414.065 539.375,451 488.393,451 518.383,451 472.281,451 449.932,579.721 429.943,307.519 398.189,489.855 
		379.372,413.081 360.438,450 309.455,450 318.452,450 272.351,450 250.005,578.74 230.013,306.547 198.259,488.887 
		179.442,412.597 160.508,450 110,450 	"/>
	
		<polyline fill="none" stroke="#F3F2F2" stroke-width="5" stroke-linecap="round" stroke-linejoin="round" stroke-miterlimit="10" points="
		698,451.5 651.217,451.5 628.871,580.454 608.877,308.367 577.125,490.76 558.309,413.784 539.375,450.5 488.393,450.5 
		518.383,450.5 472.281,450.5 449.932,579.472 429.943,307.394 398.189,489.791 379.372,412.799 360.438,449.5 309.455,449.5 
		318.452,449.5 272.351,449.5 250.005,578.491 230.013,306.421 198.259,488.826 179.442,412.315 160.508,449.5 110,449.5 	"/>
	<g>
		<path fill="#FFFFFF" d="M273.262,708.243v-42.055h2.746v18.209c1.33-1.638,2.847-2.943,4.552-3.916
			c1.706-0.973,3.618-1.46,5.737-1.46c1.58,0,2.972,0.251,4.177,0.752c1.204,0.501,2.201,1.224,2.992,2.167
			c0.79,0.944,1.387,2.081,1.792,3.411c0.404,1.329,0.607,2.832,0.607,4.509v18.383h-2.746V689.86c0-2.697-0.617-4.812-1.85-6.345
			c-1.233-1.531-3.122-2.298-5.665-2.298c-1.889,0-3.642,0.487-5.261,1.46c-1.619,0.974-3.063,2.308-4.335,4.003v21.562H273.262z"/>
		<path fill="#FFFFFF" d="M315.374,679.021c1.618,0,3.116,0.279,4.494,0.838c1.377,0.56,2.573,1.373,3.584,2.442
			c1.012,1.069,1.802,2.385,2.37,3.945c0.568,1.562,0.853,3.354,0.853,5.377c0,0.424-0.063,0.713-0.188,0.866
			c-0.125,0.155-0.322,0.231-0.592,0.231h-20.753v0.55c0,2.158,0.25,4.056,0.751,5.693c0.5,1.639,1.214,3.011,2.139,4.119
			s2.042,1.941,3.353,2.5c1.31,0.56,2.774,0.838,4.393,0.838c1.445,0,2.698-0.158,3.758-0.477c1.059-0.318,1.951-0.674,2.673-1.069
			c0.723-0.395,1.296-0.752,1.72-1.069c0.424-0.318,0.732-0.478,0.925-0.478c0.25,0,0.443,0.097,0.578,0.289l0.751,0.926
			c-0.462,0.577-1.074,1.117-1.835,1.618s-1.609,0.93-2.543,1.286s-1.937,0.641-3.006,0.853s-2.144,0.318-3.223,0.318
			c-1.965,0-3.757-0.343-5.376-1.026s-3.008-1.681-4.167-2.991s-2.055-2.915-2.688-4.812s-0.949-4.07-0.949-6.518
			c0-2.062,0.293-3.965,0.882-5.709c0.587-1.743,1.435-3.247,2.543-4.509c1.108-1.262,2.466-2.25,4.075-2.963
			S313.331,679.021,315.374,679.021z M315.416,681.074c-1.481,0-2.809,0.23-3.982,0.693c-1.174,0.462-2.189,1.127-3.045,1.994
			c-0.856,0.867-1.549,1.907-2.078,3.122c-0.529,1.214-0.88,2.572-1.053,4.075h18.932c0-1.542-0.212-2.924-0.635-4.147
			s-1.02-2.26-1.789-3.107s-1.693-1.498-2.771-1.951C317.917,681.301,316.724,681.074,315.416,681.074z"/>
		<path fill="#FFFFFF" d="M352.427,708.243c-0.578,0-0.935-0.27-1.069-0.81l-0.405-3.671c-0.79,0.771-1.575,1.465-2.355,2.081
			c-0.78,0.617-1.595,1.138-2.442,1.562c-0.848,0.424-1.763,0.747-2.746,0.968c-0.982,0.222-2.062,0.333-3.237,0.333
			c-0.983,0-1.937-0.145-2.862-0.434c-0.925-0.289-1.744-0.732-2.457-1.33c-0.713-0.597-1.286-1.363-1.72-2.298
			s-0.65-2.057-0.65-3.367c0-1.214,0.347-2.341,1.041-3.382c0.694-1.04,1.777-1.946,3.251-2.717s3.372-1.388,5.694-1.85
			c2.322-0.463,5.111-0.732,8.367-0.81v-3.006c0-2.659-0.573-4.706-1.72-6.143c-1.146-1.435-2.847-2.153-5.101-2.153
			c-1.388,0-2.568,0.193-3.541,0.578c-0.973,0.386-1.797,0.81-2.471,1.272c-0.675,0.462-1.224,0.887-1.647,1.271
			c-0.424,0.386-0.78,0.578-1.069,0.578c-0.386,0-0.675-0.174-0.867-0.521l-0.491-0.838c1.503-1.503,3.083-2.64,4.74-3.411
			c1.657-0.771,3.536-1.156,5.636-1.156c1.542,0,2.891,0.246,4.047,0.737c1.156,0.491,2.114,1.195,2.876,2.11
			c0.761,0.915,1.334,2.023,1.72,3.324c0.385,1.3,0.578,2.75,0.578,4.35v18.729H352.427z M340.865,706.711
			c1.118,0,2.144-0.12,3.079-0.361c0.934-0.24,1.801-0.578,2.601-1.012c0.799-0.433,1.546-0.948,2.24-1.546
			c0.693-0.597,1.377-1.243,2.052-1.937v-7.486c-2.736,0.077-5.092,0.285-7.067,0.622s-3.604,0.795-4.885,1.372
			c-1.281,0.578-2.226,1.268-2.833,2.067s-0.91,1.71-0.91,2.731c0,0.964,0.159,1.797,0.477,2.5c0.318,0.703,0.737,1.281,1.257,1.734
			c0.521,0.453,1.127,0.785,1.821,0.997C339.391,706.605,340.114,706.711,340.865,706.711z"/>
		<path fill="#FFFFFF" d="M362.196,708.243v-28.759h1.445c0.328,0,0.564,0.067,0.708,0.202s0.226,0.366,0.246,0.693l0.231,6.07
			c0.925-2.332,2.158-4.157,3.7-5.478c1.542-1.319,3.439-1.98,5.694-1.98c0.867,0,1.666,0.092,2.399,0.275
			c0.732,0.183,1.426,0.447,2.081,0.795l-0.376,1.907c-0.058,0.309-0.25,0.463-0.578,0.463c-0.116,0-0.279-0.039-0.491-0.116
			c-0.212-0.076-0.477-0.163-0.795-0.26s-0.708-0.183-1.17-0.261c-0.462-0.076-0.993-0.115-1.59-0.115
			c-2.178,0-3.965,0.675-5.362,2.023s-2.529,3.295-3.396,5.839v18.7H362.196z"/>
		<path fill="#FFFFFF" d="M392.978,708.706c-1.946,0-3.459-0.54-4.538-1.619c-1.08-1.079-1.619-2.746-1.619-5v-19.654h-4.133
			c-0.212,0-0.386-0.059-0.521-0.174s-0.202-0.279-0.202-0.491v-1.069l4.914-0.347l0.687-10.29c0.019-0.174,0.09-0.327,0.214-0.463
			c0.124-0.134,0.291-0.202,0.5-0.202h1.287v10.983h9.047v2.053h-9.047v19.51c0,0.79,0.102,1.47,0.304,2.037
			c0.202,0.569,0.481,1.036,0.838,1.402c0.356,0.366,0.775,0.636,1.257,0.81c0.481,0.173,1.002,0.26,1.561,0.26
			c0.694,0,1.291-0.102,1.792-0.304c0.501-0.202,0.935-0.424,1.301-0.665c0.366-0.24,0.665-0.462,0.896-0.664
			c0.231-0.202,0.414-0.304,0.549-0.304c0.154,0,0.308,0.097,0.462,0.289l0.751,1.214c-0.732,0.81-1.662,1.46-2.79,1.951
			C395.362,708.46,394.191,708.706,392.978,708.706z"/>
		<path fill="#FFFFFF" d="M416.909,708.243v-28.759h1.445c0.327,0,0.563,0.067,0.708,0.202s0.226,0.366,0.245,0.693l0.231,6.07
			c0.925-2.332,2.158-4.157,3.7-5.478c1.541-1.319,3.439-1.98,5.693-1.98c0.867,0,1.667,0.092,2.399,0.275
			c0.731,0.183,1.426,0.447,2.081,0.795l-0.376,1.907c-0.058,0.309-0.251,0.463-0.578,0.463c-0.115,0-0.279-0.039-0.491-0.116
			c-0.212-0.076-0.477-0.163-0.795-0.26s-0.708-0.183-1.171-0.261c-0.462-0.076-0.992-0.115-1.589-0.115
			c-2.178,0-3.965,0.675-5.362,2.023s-2.529,3.295-3.396,5.839v18.7H416.909z"/>
		<path fill="#FFFFFF" d="M456.767,708.243c-0.578,0-0.935-0.27-1.069-0.81l-0.404-3.671c-0.791,0.771-1.575,1.465-2.356,2.081
			c-0.78,0.617-1.595,1.138-2.442,1.562s-1.763,0.747-2.745,0.968c-0.983,0.222-2.062,0.333-3.237,0.333
			c-0.983,0-1.937-0.145-2.861-0.434s-1.744-0.732-2.457-1.33c-0.713-0.597-1.286-1.363-1.72-2.298s-0.65-2.057-0.65-3.367
			c0-1.214,0.347-2.341,1.04-3.382c0.694-1.04,1.778-1.946,3.252-2.717c1.475-0.771,3.372-1.388,5.694-1.85
			c2.321-0.463,5.11-0.732,8.367-0.81v-3.006c0-2.659-0.573-4.706-1.72-6.143c-1.146-1.435-2.847-2.153-5.102-2.153
			c-1.387,0-2.567,0.193-3.54,0.578c-0.974,0.386-1.798,0.81-2.472,1.272c-0.675,0.462-1.224,0.887-1.647,1.271
			c-0.424,0.386-0.78,0.578-1.069,0.578c-0.386,0-0.675-0.174-0.867-0.521l-0.491-0.838c1.503-1.503,3.083-2.64,4.74-3.411
			c1.657-0.771,3.535-1.156,5.636-1.156c1.542,0,2.891,0.246,4.047,0.737s2.114,1.195,2.876,2.11
			c0.761,0.915,1.334,2.023,1.72,3.324c0.385,1.3,0.578,2.75,0.578,4.35v18.729H456.767z M445.205,706.711
			c1.117,0,2.144-0.12,3.078-0.361c0.935-0.24,1.802-0.578,2.602-1.012c0.8-0.433,1.546-0.948,2.24-1.546
			c0.693-0.597,1.377-1.243,2.052-1.937v-7.486c-2.736,0.077-5.092,0.285-7.066,0.622c-1.976,0.337-3.604,0.795-4.885,1.372
			c-1.282,0.578-2.226,1.268-2.833,2.067c-0.606,0.8-0.91,1.71-0.91,2.731c0,0.964,0.159,1.797,0.477,2.5
			c0.318,0.703,0.737,1.281,1.258,1.734c0.52,0.453,1.127,0.785,1.82,0.997C443.731,706.605,444.454,706.711,445.205,706.711z"/>
		<path fill="#FFFFFF" d="M474.369,708.706c-1.947,0-3.459-0.54-4.538-1.619s-1.619-2.746-1.619-5v-19.654h-4.133
			c-0.212,0-0.386-0.059-0.521-0.174s-0.202-0.279-0.202-0.491v-1.069l4.914-0.347l0.687-10.29c0.019-0.174,0.09-0.327,0.214-0.463
			c0.123-0.134,0.291-0.202,0.501-0.202h1.286v10.983h9.047v2.053h-9.047v19.51c0,0.79,0.102,1.47,0.304,2.037
			c0.202,0.569,0.481,1.036,0.838,1.402s0.775,0.636,1.258,0.81c0.481,0.173,1.001,0.26,1.561,0.26c0.693,0,1.291-0.102,1.792-0.304
			s0.935-0.424,1.301-0.665c0.366-0.24,0.665-0.462,0.896-0.664c0.231-0.202,0.415-0.304,0.55-0.304
			c0.153,0,0.308,0.097,0.462,0.289l0.752,1.214c-0.732,0.81-1.662,1.46-2.789,1.951
			C476.753,708.46,475.583,708.706,474.369,708.706z"/>
		<path fill="#FFFFFF" d="M497.982,679.021c1.618,0,3.116,0.279,4.494,0.838c1.378,0.56,2.572,1.373,3.584,2.442
			s1.802,2.385,2.37,3.945c0.568,1.562,0.853,3.354,0.853,5.377c0,0.424-0.062,0.713-0.188,0.866
			c-0.125,0.155-0.322,0.231-0.592,0.231H487.75v0.55c0,2.158,0.251,4.056,0.752,5.693c0.501,1.639,1.214,3.011,2.139,4.119
			s2.042,1.941,3.353,2.5c1.311,0.56,2.775,0.838,4.394,0.838c1.445,0,2.697-0.158,3.758-0.477c1.06-0.318,1.951-0.674,2.674-1.069
			c0.722-0.395,1.295-0.752,1.72-1.069c0.423-0.318,0.731-0.478,0.925-0.478c0.25,0,0.442,0.097,0.578,0.289l0.751,0.926
			c-0.462,0.577-1.074,1.117-1.835,1.618c-0.762,0.501-1.609,0.93-2.544,1.286s-1.937,0.641-3.006,0.853s-2.144,0.318-3.223,0.318
			c-1.966,0-3.758-0.343-5.376-1.026c-1.619-0.684-3.008-1.681-4.167-2.991s-2.055-2.915-2.688-4.812
			c-0.634-1.897-0.949-4.07-0.949-6.518c0-2.062,0.293-3.965,0.881-5.709c0.588-1.743,1.436-3.247,2.544-4.509
			c1.107-1.262,2.466-2.25,4.075-2.963C494.113,679.378,495.939,679.021,497.982,679.021z M498.024,681.074
			c-1.481,0-2.81,0.23-3.982,0.693c-1.174,0.462-2.188,1.127-3.045,1.994s-1.549,1.907-2.078,3.122
			c-0.529,1.214-0.88,2.572-1.053,4.075h18.932c0-1.542-0.212-2.924-0.635-4.147c-0.424-1.224-1.02-2.26-1.79-3.107
			c-0.77-0.848-1.692-1.498-2.771-1.951C500.525,681.301,499.333,681.074,498.024,681.074z"/>
	</g>
	<path fill="none" stroke="#FFFFFF" stroke-width="4" stroke-linecap="round" stroke-linejoin="round" stroke-miterlimit="10" d="
		M414.361,632h0.006l-12.913,21h-0.006c-2.341,6-6.586,6.752-11.421,6.752c-4.846,0-9.096-2.433-11.438-6.304l-0.006,0.087
		l-0.216-0.353c-0.037-0.063-0.074,0.12-0.11,0.054L366.199,632h0.005c-1.06-1-1.666-4.342-1.666-6.684
		c0-7.365,5.995-13.471,13.361-13.471c5.605,0,10.41,3.415,12.393,8.322c1.977-4.907,6.786-8.409,12.392-8.409
		c7.362,0,13.356,6.198,13.356,13.563C416.039,627.671,415.426,631,414.361,632z"/>
	<g>
		<path fill="#FFFFFF" d="M314.329,191.787c1.657,0,3.227,0.274,4.711,0.824s2.784,1.349,3.902,2.399
			c1.117,1.051,2.003,2.341,2.659,3.873c0.655,1.532,0.983,3.281,0.983,5.246c0,1.908-0.347,3.681-1.041,5.318
			c-0.694,1.638-1.662,3.064-2.905,4.278s-2.741,2.167-4.495,2.861s-3.681,1.041-5.781,1.041c-2.081,0-3.965-0.333-5.65-0.997
			c-1.687-0.665-3.126-1.609-4.321-2.833s-2.115-2.707-2.76-4.451c-0.646-1.744-0.968-3.695-0.968-5.853
			c0-1.811,0.405-3.738,1.214-5.781c0.81-2.042,2.091-4.239,3.844-6.59l10.492-14.134c0.27-0.347,0.645-0.64,1.127-0.881
			c0.481-0.241,1.031-0.361,1.647-0.361h4.567l-14.365,18.18c0.983-0.674,2.071-1.199,3.266-1.575
			C311.65,191.975,312.941,191.787,314.329,191.787z M303.634,204.389c0,1.33,0.192,2.543,0.578,3.642
			c0.385,1.099,0.949,2.043,1.691,2.833s1.647,1.402,2.717,1.835c1.069,0.434,2.288,0.65,3.656,0.65c1.387,0,2.64-0.221,3.757-0.665
			c1.117-0.443,2.076-1.06,2.876-1.85c0.799-0.79,1.416-1.724,1.85-2.804c0.434-1.079,0.65-2.254,0.65-3.526
			c0-1.349-0.212-2.567-0.636-3.656c-0.424-1.088-1.021-2.014-1.792-2.775c-0.771-0.761-1.696-1.344-2.775-1.749
			c-1.079-0.405-2.264-0.607-3.555-0.607c-1.387,0-2.64,0.236-3.757,0.708c-1.118,0.472-2.066,1.108-2.847,1.908
			c-0.78,0.8-1.378,1.725-1.792,2.774C303.841,202.159,303.634,203.252,303.634,204.389z"/>
		<path fill="#FFFFFF" d="M357.336,178c0,0.732-0.231,1.334-0.693,1.807s-1.243,0.708-2.341,0.708h-13.007l-1.908,10.868
			c2.158-0.462,4.152-0.693,5.983-0.693c2.158,0,4.061,0.318,5.708,0.954s3.03,1.513,4.147,2.63c1.117,1.118,1.96,2.438,2.529,3.959
			c0.568,1.522,0.853,3.18,0.853,4.972c0,2.197-0.386,4.182-1.156,5.954c-0.771,1.773-1.826,3.291-3.165,4.552
			c-1.339,1.262-2.915,2.23-4.726,2.905c-1.812,0.674-3.768,1.012-5.867,1.012c-1.214,0-2.38-0.121-3.498-0.361
			c-1.118-0.241-2.158-0.563-3.122-0.968c-0.964-0.405-1.86-0.867-2.688-1.387c-0.829-0.521-1.561-1.069-2.197-1.647l1.561-2.197
			c0.347-0.501,0.809-0.751,1.387-0.751c0.366,0,0.795,0.149,1.286,0.448c0.491,0.299,1.084,0.631,1.778,0.998
			c0.693,0.366,1.507,0.698,2.442,0.997s2.047,0.448,3.338,0.448c1.445,0,2.746-0.231,3.902-0.693s2.143-1.123,2.962-1.98
			c0.819-0.857,1.45-1.883,1.893-3.078s0.665-2.534,0.665-4.018c0-1.291-0.188-2.457-0.563-3.498
			c-0.376-1.041-0.944-1.927-1.706-2.659c-0.761-0.732-1.71-1.301-2.847-1.705c-1.137-0.405-2.466-0.607-3.988-0.607
			c-1.041,0-2.12,0.087-3.237,0.26c-1.118,0.173-2.274,0.453-3.469,0.838l-3.237-0.954l3.353-19.365h19.625V178z"/>
		<path fill="#FFFFFF" d="M378.146,217.165v-42.575h5.173v17.516c1.214-1.406,2.606-2.539,4.177-3.396
			c1.57-0.857,3.367-1.286,5.391-1.286c1.695,0,3.227,0.318,4.596,0.954c1.368,0.636,2.534,1.585,3.497,2.847
			c0.963,1.262,1.706,2.823,2.226,4.682c0.521,1.86,0.781,4.003,0.781,6.431c0,2.158-0.289,4.167-0.867,6.026
			c-0.578,1.86-1.412,3.469-2.5,4.827c-1.089,1.358-2.418,2.428-3.988,3.208c-1.571,0.781-3.338,1.171-5.304,1.171
			c-1.889,0-3.493-0.366-4.812-1.099c-1.32-0.732-2.471-1.753-3.454-3.063l-0.26,2.659c-0.154,0.732-0.598,1.098-1.33,1.098H378.146
			z M391.21,191.527c-1.677,0-3.146,0.386-4.408,1.156c-1.262,0.771-2.423,1.86-3.483,3.266v14.163
			c0.925,1.272,1.951,2.168,3.079,2.688c1.127,0.52,2.384,0.78,3.772,0.78c2.736,0,4.836-0.973,6.301-2.919
			c1.464-1.946,2.197-4.721,2.197-8.324c0-1.908-0.169-3.545-0.506-4.914c-0.337-1.368-0.824-2.49-1.459-3.367
			c-0.636-0.876-1.417-1.518-2.341-1.922C393.436,191.729,392.385,191.527,391.21,191.527z"/>
		<path fill="#FFFFFF" d="M410.285,227.079v-39.193h3.064c0.731,0,1.194,0.356,1.387,1.069l0.434,3.468
			c1.253-1.522,2.684-2.746,4.292-3.67c1.609-0.925,3.464-1.388,5.564-1.388c1.676,0,3.198,0.323,4.566,0.968
			c1.368,0.646,2.534,1.6,3.498,2.862c0.963,1.262,1.705,2.828,2.226,4.697c0.52,1.869,0.78,4.018,0.78,6.445
			c0,2.158-0.289,4.167-0.867,6.026c-0.578,1.86-1.407,3.469-2.486,4.827s-2.403,2.428-3.974,3.208
			c-1.571,0.781-3.339,1.171-5.304,1.171c-1.812,0-3.358-0.299-4.64-0.896c-1.281-0.597-2.413-1.445-3.396-2.543v12.949H410.285z
			 M423.321,191.527c-1.677,0-3.146,0.386-4.408,1.156c-1.263,0.771-2.424,1.86-3.482,3.266v14.163
			c0.943,1.272,1.979,2.168,3.106,2.688c1.128,0.52,2.385,0.78,3.772,0.78c2.717,0,4.808-0.973,6.271-2.919
			c1.465-1.946,2.197-4.721,2.197-8.324c0-1.908-0.169-3.545-0.506-4.914c-0.338-1.368-0.824-2.49-1.46-3.367
			c-0.636-0.876-1.416-1.518-2.341-1.922C425.547,191.729,424.496,191.527,423.321,191.527z"/>
		<path fill="#FFFFFF" d="M442.194,217.165v-29.279h3.064c0.731,0,1.194,0.356,1.387,1.069l0.376,3.006
			c1.079-1.33,2.288-2.418,3.627-3.266c1.34-0.848,2.896-1.271,4.668-1.271c1.984,0,3.589,0.549,4.812,1.647
			c1.224,1.098,2.105,2.582,2.646,4.451c0.404-1.06,0.938-1.975,1.604-2.746c0.665-0.771,1.411-1.406,2.24-1.908
			c0.828-0.5,1.71-0.867,2.645-1.098s1.884-0.347,2.847-0.347c1.542,0,2.915,0.246,4.119,0.737s2.226,1.209,3.063,2.153
			c0.839,0.944,1.479,2.105,1.923,3.483c0.442,1.378,0.664,2.953,0.664,4.726v18.643h-5.145v-18.643
			c0-2.292-0.501-4.032-1.503-5.217s-2.457-1.778-4.364-1.778c-0.849,0-1.652,0.149-2.414,0.448
			c-0.761,0.299-1.431,0.737-2.009,1.315s-1.036,1.306-1.372,2.182c-0.338,0.877-0.506,1.894-0.506,3.049v18.643h-5.146v-18.643
			c0-2.351-0.473-4.104-1.416-5.26c-0.944-1.156-2.322-1.734-4.133-1.734c-1.272,0-2.453,0.342-3.541,1.026
			c-1.089,0.684-2.086,1.614-2.991,2.789v21.822H442.194z"/>
	</g>
	<g>
		<circle fill="#FFFFFF" cx="324.775" cy="744.737" r="9.635"/>
		<circle opacity="0.4" fill="#FFFFFF" cx="355.604" cy="744.737" r="9.635"/>
		<circle opacity="0.4" fill="#FFFFFF" cx="386.436" cy="744.737" r="9.634"/>
		<circle opacity="0.4" fill="#FFFFFF" cx="417.265" cy="744.737" r="9.634"/>
		<circle opacity="0.4" fill="#FFFFFF" cx="448.096" cy="744.737" r="9.635"/>
		<circle opacity="0.4" fill="#FFFFFF" cx="478.927" cy="744.737" r="9.634"/>
	</g>
</g>
<g id="watch">
	<g>
		<path fill="none" stroke="#D3D7DC" stroke-miterlimit="10" d="M797.5,480.861v94.985c0,7.039-5.998,12.653-13.031,12.653H779.5
			v-117h4.969C791.502,471.5,797.5,473.823,797.5,480.861z"/>
		<path fill="#FFFFFF" stroke="#D3D7DC" stroke-miterlimit="10" d="M780.13,207.61v-56.47c0-76.47-62.56-139.03-139.02-139.03
			H167.04c-76.46,0-139.02,62.56-139.02,139.03v596.4c0,76.47,62.56,139.03,139.02,139.03h474.07
			c76.46,0,139.02-62.561,139.02-139.03V358.06h-0.01c-13.72-6.03-24.18-37.41-24.18-75.23
			C755.94,245.02,766.4,213.63,780.13,207.61z M752.17,740.54c0,64.229-52.55,116.78-116.78,116.78H173.83
			c-64.23,0-116.78-52.551-116.78-116.78v-582.4c0-64.23,52.55-116.78,116.78-116.78h461.56c64.23,0,116.78,52.55,116.78,116.78
			V740.54z"/>
		<path fill="none" stroke="#D3D7DC" stroke-miterlimit="10" d="M780.131,208.318h12.86c12.233,0,22.243,10.01,22.243,22.244
			v105.958c0,12.234-10.01,22.244-22.243,22.244h-12.86"/>
		<g>
			<path fill="#D3D7DC" d="M815.234,343.537l-17.552,7.567v-1.393l17.552-7.389V343.537z M815.234,336.244l-17.552,6.501v-1.393
				l17.552-6.324V336.244z M815.234,328.951l-17.552,5.436v-1.393l17.552-5.258V328.951z M815.234,321.659l-17.552,4.37v-1.393
				l17.552-4.192V321.659z M815.234,314.366l-17.552,3.305v-1.394l17.552-3.128V314.366z M815.234,307.074l-17.552,2.239v-1.393
				l17.552-2.062V307.074z M815.234,299.781l-17.552,1.174v-1.393l17.552-0.996V299.781z M815.234,292.488l-17.552,0.108v-1.393
				l17.552,0.069V292.488z M815.234,285.195l-17.552-0.957v-1.393l17.552,1.135V285.195z M815.234,277.902l-17.552-2.023v-1.393
				l17.552,2.201V277.902z M815.234,270.61l-17.552-3.089v-1.394l17.552,3.266V270.61z M815.234,263.317l-17.552-4.154v-1.393
				l17.552,4.332V263.317z M815.234,256.024l-17.552-5.219v-1.393l17.552,5.397V256.024z M815.234,248.732l-17.552-6.286v-1.393
				l17.552,6.462V248.732z M815.234,241.439l-17.552-7.351v-1.393l17.552,7.528V241.439z M815.234,234.146l-17.552-8.416v-1.393
				l17.552,8.594V234.146z M815.234,226.854l-17.552-9.482v-1.394l17.552,9.66V226.854z"/>
		</g>
	</g>
</g>
</svg>
