<?xml version="1.0" encoding="utf-8"?>
<!-- Generator: Adobe Illustrator 16.0.4, SVG Export Plug-In . SVG Version: 6.00 Build 0)  -->
<!DOCTYPE svg PUBLIC "-//W3C//DTD SVG 1.1//EN" "http://www.w3.org/Graphics/SVG/1.1/DTD/svg11.dtd">
<svg version="1.1" xmlns="http://www.w3.org/2000/svg" xmlns:xlink="http://www.w3.org/1999/xlink" x="0px" y="0px" width="820px"
	 height="900px" viewBox="0 0 820 900" enable-background="new 0 0 820 900" xml:space="preserve">
<g id="screens" display="none">
	<linearGradient id="SVGID_2_" gradientUnits="userSpaceOnUse" x1="395.4624" y1="38.4893" x2="395.4624" y2="862.6064">
		<stop  offset="0" style="stop-color:#7A89BE"/>
		<stop  offset="1" style="stop-color:#B192B8"/>
	</linearGradient>
	<path display="inline" fill="url(#SVGID_2_)" d="M746.496,744.659c0,64.871-53.076,117.947-117.947,117.947H162.377
		c-64.871,0-117.947-53.076-117.947-117.947V156.437c0-64.87,53.077-117.947,117.947-117.947h466.172
		c64.871,0,117.947,53.077,117.947,117.947V744.659z"/>
	<linearGradient id="SVGID_3_" gradientUnits="userSpaceOnUse" x1="395.0005" y1="236.5312" x2="395.0005" y2="121.5312">
		<stop  offset="0" style="stop-color:#FFFFFF"/>
		<stop  offset="1" style="stop-color:#FFFFFF;stop-opacity:0"/>
	</linearGradient>
	<path display="inline" opacity="0.2" fill="url(#SVGID_3_)" d="M682,214.139c0,12.691-10.383,22.393-23.076,22.393H130.597
		c-12.692,0-22.597-9.701-22.597-22.393v-69.177c0-12.692,9.905-23.431,22.597-23.431h528.327c12.693,0,23.076,10.738,23.076,23.431
		V214.139z"/>
	<path display="inline" opacity="0.2" fill="#F3F2F2" d="M684,593.563c0,12.691-11.078,22.968-23.771,22.968H131.667
		c-12.692,0-23.667-10.276-23.667-22.968V524.62c0-12.692,10.975-22.089,23.667-22.089h528.561c12.693,0,23.771,9.396,23.771,22.089
		V593.563z"/>
	
		<text transform="matrix(1 0 0 1 285.5381 158.1035)" display="inline" fill="#FFFFFF" font-family="'Lato-Regular'" font-size="68.9427">600 cal</text>
	
		<text transform="matrix(1 0 0 1 280.9717 748.377)" display="inline" fill="#FFFFFF" font-family="'Lato-Light'" font-size="68.9427">calories</text>
	<path display="inline" opacity="0.2" fill="#F3F2F2" d="M683,466.02c0,12.691-10.289,22.512-22.982,22.512H130.982
		c-12.693,0-22.982-9.82-22.982-22.512V396.98c0-12.691,10.29-23.449,22.982-23.449h529.035c12.693,0,22.982,10.758,22.982,23.449
		V466.02z"/>
	<rect x="137.721" y="415.509" display="inline" fill="none" width="318.896" height="41.27"/>
	
		<text transform="matrix(1 0 0 1 137.7212 456.1572)" display="inline" fill="#FFFFFF" font-family="'Lato-Regular'" font-size="55.1542">Granola</text>
	<path display="inline" opacity="0.2" fill="#F3F2F2" d="M683,341.166c0,12.691-10.443,22.365-23.137,22.365H131.138
		c-12.693,0-23.138-9.674-23.138-22.365v-69.178c0-12.692,10.444-23.457,23.138-23.457h528.726
		c12.693,0,23.137,10.765,23.137,23.457V341.166z"/>
	<rect x="357.798" y="415.509" display="inline" fill="none" width="293.616" height="45.915"/>
	
		<text transform="matrix(1 0 0 1 555.4482 456.8193)" display="inline" fill="#FFFFFF" font-family="'Lato-Black'" font-size="55.1542">120</text>
	
		<line display="inline" fill="none" stroke="#FFFFFF" stroke-width="4" stroke-linecap="round" stroke-miterlimit="10" x1="396" y1="530.531" x2="396" y2="587.531"/>
	
		<line display="inline" fill="none" stroke="#FFFFFF" stroke-width="4" stroke-linecap="round" stroke-miterlimit="10" x1="368" y1="559.531" x2="425" y2="559.531"/>
	<g display="inline">
		<circle fill="none" stroke="#FFFFFF" stroke-width="4" stroke-miterlimit="10" cx="382.107" cy="647.787" r="7.688"/>
		<circle fill="none" stroke="#FFFFFF" stroke-width="4" stroke-miterlimit="10" cx="412.047" cy="656.283" r="12.947"/>
		<circle fill="none" stroke="#FFFFFF" stroke-width="4" stroke-miterlimit="10" cx="382.916" cy="680.964" r="16.588"/>
	</g>
	<rect x="137.721" y="287.491" display="inline" fill="none" width="318.896" height="41.271"/>
	
		<text transform="matrix(1 0 0 1 137.7212 328.1396)" display="inline" fill="#FFFFFF" font-family="'Lato-Regular'" font-size="55.1542">Sandwhich</text>
	<rect x="357.798" y="287.491" display="inline" fill="none" width="293.616" height="45.915"/>
	
		<text transform="matrix(1 0 0 1 555.4482 328.8008)" display="inline" fill="#FFFFFF" font-family="'Lato-Black'" font-size="55.1542">480</text>
	<g display="inline">
		<circle opacity="0.4" fill="#FFFFFF" cx="304.401" cy="791.678" r="11.491"/>
		<circle opacity="0.4" fill="#FFFFFF" cx="341.17" cy="791.678" r="11.49"/>
		<circle opacity="0.4" fill="#FFFFFF" cx="377.94" cy="791.678" r="11.491"/>
		<circle fill="#FFFFFF" cx="414.71" cy="791.678" r="11.491"/>
		<circle opacity="0.4" fill="#FFFFFF" cx="451.479" cy="791.678" r="11.49"/>
		<circle opacity="0.4" fill="#FFFFFF" cx="488.249" cy="791.678" r="11.491"/>
	</g>
</g>
<g id="v2">
	<linearGradient id="SVGID_4_" gradientUnits="userSpaceOnUse" x1="394.4624" y1="38.4893" x2="394.4624" y2="862.6064">
		<stop  offset="0" style="stop-color:#596EA8"/>
		<stop  offset="0.2194" style="stop-color:#6276AD"/>
		<stop  offset="0.3675" style="stop-color:#6B7EB3"/>
		<stop  offset="0.558" style="stop-color:#8584B1"/>
		<stop  offset="0.8444" style="stop-color:#A78BAF"/>
		<stop  offset="1" style="stop-color:#B48EAE"/>
	</linearGradient>
	<path fill="url(#SVGID_4_)" d="M745.496,744.659c0,64.871-53.076,117.947-117.947,117.947H161.377
		c-64.871,0-117.947-53.076-117.947-117.947V156.437c0-64.87,53.077-117.947,117.947-117.947h466.172
		c64.871,0,117.947,53.077,117.947,117.947V744.659z"/>
	<linearGradient id="SVGID_5_" gradientUnits="userSpaceOnUse" x1="395.0005" y1="236.5312" x2="395.0005" y2="121.5312">
		<stop  offset="0" style="stop-color:#FFFFFF"/>
		<stop  offset="1" style="stop-color:#FFFFFF;stop-opacity:0"/>
	</linearGradient>
	<path opacity="0.2" fill="url(#SVGID_5_)" d="M682,214.139c0,12.691-10.383,22.393-23.076,22.393H130.597
		c-12.692,0-22.597-9.701-22.597-22.393v-69.177c0-12.692,9.905-23.431,22.597-23.431h528.327c12.693,0,23.076,10.738,23.076,23.431
		V214.139z"/>
	<path opacity="0.2" fill="#F3F2F2" d="M684,593.563c0,12.691-11.078,22.968-23.771,22.968H131.667
		c-12.692,0-23.667-10.276-23.667-22.968V524.62c0-12.692,10.975-22.089,23.667-22.089h528.561c12.693,0,23.771,9.396,23.771,22.089
		V593.563z"/>
	<text transform="matrix(1 0 0 1 285.5381 158.1035)" fill="#FFFFFF" font-family="'Lato-Regular'" font-size="68.9427">600 cal</text>
	<text transform="matrix(1 0 0 1 280.9717 748.377)" fill="#FFFFFF" font-family="'Lato-Light'" font-size="68.9427">calories</text>
	<path opacity="0.2" fill="#F3F2F2" d="M683,466.02c0,12.691-10.289,22.512-22.982,22.512H130.982
		c-12.693,0-22.982-9.82-22.982-22.512V396.98c0-12.691,10.29-23.449,22.982-23.449h529.035c12.693,0,22.982,10.758,22.982,23.449
		V466.02z"/>
	<rect x="137.721" y="415.509" fill="none" width="318.896" height="41.27"/>
	<text transform="matrix(1 0 0 1 137.7212 456.1572)" fill="#FFFFFF" font-family="'Lato-Regular'" font-size="55.1542">Granola</text>
	<path opacity="0.2" fill="#F3F2F2" d="M683,341.166c0,12.691-10.443,22.365-23.137,22.365H131.138
		c-12.693,0-23.138-9.674-23.138-22.365v-69.178c0-12.692,10.444-23.457,23.138-23.457h528.726
		c12.693,0,23.137,10.765,23.137,23.457V341.166z"/>
	<rect x="357.798" y="415.509" fill="none" width="293.616" height="45.915"/>
	<text transform="matrix(1 0 0 1 555.4482 456.8193)" fill="#FFFFFF" font-family="'Lato-Black'" font-size="55.1542">120</text>
	
		<line fill="none" stroke="#FFFFFF" stroke-width="4" stroke-linecap="round" stroke-miterlimit="10" x1="396" y1="530.531" x2="396" y2="587.531"/>
	
		<line fill="none" stroke="#FFFFFF" stroke-width="4" stroke-linecap="round" stroke-miterlimit="10" x1="368" y1="559.531" x2="425" y2="559.531"/>
	<g>
		<circle fill="none" stroke="#FFFFFF" stroke-width="4" stroke-miterlimit="10" cx="382.107" cy="647.787" r="7.688"/>
		<circle fill="none" stroke="#FFFFFF" stroke-width="4" stroke-miterlimit="10" cx="412.047" cy="656.283" r="12.947"/>
		<circle fill="none" stroke="#FFFFFF" stroke-width="4" stroke-miterlimit="10" cx="382.916" cy="680.964" r="16.588"/>
	</g>
	<rect x="137.721" y="287.491" fill="none" width="318.896" height="41.271"/>
	<text transform="matrix(1 0 0 1 137.7212 328.1396)" fill="#FFFFFF" font-family="'Lato-Regular'" font-size="55.1542">Sandwhich</text>
	<rect x="357.798" y="287.491" fill="none" width="293.616" height="45.915"/>
	<text transform="matrix(1 0 0 1 555.4482 328.8008)" fill="#FFFFFF" font-family="'Lato-Black'" font-size="55.1542">480</text>
	<g>
		<circle opacity="0.4" fill="#FFFFFF" cx="304.401" cy="791.678" r="11.491"/>
		<circle opacity="0.4" fill="#FFFFFF" cx="341.17" cy="791.678" r="11.49"/>
		<circle opacity="0.4" fill="#FFFFFF" cx="377.94" cy="791.678" r="11.491"/>
		<circle fill="#FFFFFF" cx="414.71" cy="791.678" r="11.491"/>
		<circle opacity="0.4" fill="#FFFFFF" cx="451.479" cy="791.678" r="11.49"/>
		<circle opacity="0.4" fill="#FFFFFF" cx="488.249" cy="791.678" r="11.491"/>
	</g>
</g>
<g id="watch">
	<g>
		<path fill="none" stroke="#D3D7DC" stroke-miterlimit="10" d="M786.5,481.861v94.985c0,7.039-5.998,12.185-13.031,12.185H768.5
			v-117h4.969C780.502,472.031,786.5,474.823,786.5,481.861z"/>
		<path fill="#FFFFFF" stroke="#D3D7DC" stroke-miterlimit="10" d="M769.13,208.609v-56.469c0-76.471-62.56-139.031-139.02-139.031
			H156.04c-76.46,0-139.02,62.561-139.02,139.031V748.54c0,76.47,62.56,139.03,139.02,139.03h474.07
			c76.46,0,139.02-62.561,139.02-139.03V359.061h-0.01c-13.72-6.031-24.18-37.41-24.18-75.23
			C744.94,246.02,755.4,214.63,769.13,208.609z M741.17,741.54c0,64.229-52.55,116.78-116.78,116.78H162.83
			c-64.23,0-116.78-52.551-116.78-116.78V159.141c0-64.23,52.55-116.781,116.78-116.781h461.56
			c64.23,0,116.78,52.551,116.78,116.781V741.54z"/>
		<path fill="none" stroke="#D3D7DC" stroke-miterlimit="10" d="M769.131,209.318h12.86c12.233,0,22.243,10.01,22.243,22.244
			v105.958c0,12.233-10.01,22.243-22.243,22.243h-12.86"/>
		<g>
			<path fill="#D3D7DC" d="M804.234,344.537l-17.552,7.566v-1.393l17.552-7.389V344.537z M804.234,337.244l-17.552,6.502v-1.394
				l17.552-6.324V337.244z M804.234,329.951l-17.552,5.436v-1.393l17.552-5.258V329.951z M804.234,322.658l-17.552,4.371v-1.394
				l17.552-4.192V322.658z M804.234,315.366l-17.552,3.306v-1.395l17.552-3.127V315.366z M804.234,308.074l-17.552,2.238v-1.393
				l17.552-2.062V308.074z M804.234,300.781l-17.552,1.174v-1.394l17.552-0.996V300.781z M804.234,293.488l-17.552,0.107v-1.393
				l17.552,0.069V293.488z M804.234,286.195l-17.552-0.957v-1.394l17.552,1.136V286.195z M804.234,278.902l-17.552-2.023v-1.393
				l17.552,2.201V278.902z M804.234,271.61l-17.552-3.089v-1.394l17.552,3.267V271.61z M804.234,264.316l-17.552-4.153v-1.394
				l17.552,4.332V264.316z M804.234,257.024l-17.552-5.22v-1.393l17.552,5.397V257.024z M804.234,249.732l-17.552-6.286v-1.393
				l17.552,6.462V249.732z M804.234,242.439l-17.552-7.352v-1.393l17.552,7.527V242.439z M804.234,235.146l-17.552-8.416v-1.393
				l17.552,8.595V235.146z M804.234,227.854l-17.552-9.481v-1.394l17.552,9.66V227.854z"/>
		</g>
	</g>
</g>
</svg>
