<?xml version="1.0" encoding="utf-8"?>
<!-- Generator: Adobe Illustrator 16.0.4, SVG Export Plug-In . SVG Version: 6.00 Build 0)  -->
<!DOCTYPE svg PUBLIC "-//W3C//DTD SVG 1.1//EN" "http://www.w3.org/Graphics/SVG/1.1/DTD/svg11.dtd">
<svg version="1.1" xmlns="http://www.w3.org/2000/svg" xmlns:xlink="http://www.w3.org/1999/xlink" x="0px" y="0px" width="820px"
	 height="900px" viewBox="0 0 820 900" enable-background="new 0 0 820 900" xml:space="preserve">
<g id="screens" display="none">
	<path display="inline" fill="#231F20" d="M748.496,746.659c0,64.871-53.076,117.947-117.947,117.947H164.377
		c-64.871,0-117.947-53.076-117.947-117.947V158.437c0-64.87,53.076-117.947,117.947-117.947h466.172
		c64.871,0,117.947,53.077,117.947,117.947V746.659z"/>
	<path display="inline" opacity="0.2" fill="#F3F2F2" d="M685,602.549c0,12.693-10.289,22.982-22.982,22.982H132.982
		c-12.693,0-22.982-10.289-22.982-22.982V316.514c0-12.693,10.289-22.982,22.982-22.982h529.035
		c12.693,0,22.982,10.289,22.982,22.982V602.549z"/>
	<g display="inline">
		<defs>
			<path id="SVGID_1_" d="M644.736,567.531H149V402.374c5-0.23,8.78-3.173,10.376-7.274l53.446,23.763
				c-0.518,1.299-0.742,2.724-0.742,4.206c0,6.355,5.181,11.491,11.523,11.491c4.952,0,9.197-3.137,10.807-7.538l0.708,0.265
				l57.104,18.042c-0.519,1.298-0.793,2.699-0.793,4.17c0,6.355,5.15,11.492,11.492,11.492c4.838,0,8.987-2.986,10.677-7.229
				l0.815,0.322l48.264,21.442l0.93,0.47c-0.598,1.391-0.93,2.919-0.93,4.528c0,6.354,5.146,11.49,11.49,11.49
				c4.262,0,7.998-2.321,9.975-5.779l1.516,0.759l48.275,27.913l0.057,0.011c-1.48,1.93-2.367,4.354-2.367,6.974
				c0,6.355,5.148,11.491,11.49,11.491c6.344,0,11.492-5.136,11.492-11.491c0-1.147-0.172-2.264-0.482-3.309l0.045,0.212
				l53.297-15.264h0.012c-0.012,0-0.012,0.049-0.012,0.178c0,6.354,5.148,11.39,11.49,11.39c6.346,0,11.492-4.984,11.492-11.339
				c0-0.128,0-0.229-0.014-0.229h0.014l45.25,15.264l0.047-0.076c-0.32,1.031-0.482,2.085-0.482,3.224
				c0,6.354,5.146,11.466,11.49,11.466c3.771,0,7.125-1.825,9.219-4.633l41.021,23.332c-0.541,1.322-0.828,2.783-0.828,4.288
				C636.164,561.74,639.807,566.531,644.736,567.531z"/>
		</defs>
		<clipPath id="SVGID_2_">
			<use xlink:href="#SVGID_1_"  overflow="visible"/>
		</clipPath>
		<g clip-path="url(#SVGID_2_)">
			<rect x="149" y="370.531" fill="#FFFFFF" width="1" height="220"/>
			<path fill="#FFFFFF" d="M639,590.531h-2v-220h2V590.531z M632,590.531h-2v-220h2V590.531z M626,590.531h-3v-220h3V590.531z
				 M620,590.531h-4v-220h4V590.531z M613,590.531h-4v-220h4V590.531z M606,590.531h-4v-220h4V590.531z M599,590.531h-4v-220h4
				V590.531z M592,590.531h-3v-220h3V590.531z M585,590.531h-3v-220h3V590.531z M578,590.531h-3v-220h3V590.531z M571,590.531h-3
				v-220h3V590.531z M565,590.531h-2v-220h2V590.531z M558,590.531h-2v-220h2V590.531z M551,590.531h-3v-220h3V590.531z
				 M543,590.531h-2v-220h2V590.531z M536,590.531h-2v-220h2V590.531z M529,590.531h-2v-220h2V590.531z M522,590.531h-2v-220h2
				V590.531z M515,590.531h-1v-220h1V590.531z M508,590.531h-1v-220h1V590.531z M501,590.531h-1v-220h1V590.531z M494,590.531h-1
				v-220h1V590.531z M488,590.531h-2v-220h2V590.531z M481,590.531h-2v-220h2V590.531z M474,590.531h-2v-220h2V590.531z
				 M467,590.531h-2v-220h2V590.531z M460,590.531h-2v-220h2V590.531z M455,590.531h-4v-220h4V590.531z M447,590.531h-4v-220h4
				V590.531z M440,590.531h-3v-220h3V590.531z M433,590.531h-3v-220h3V590.531z M426,590.531h-3v-220h3V590.531z M419,590.531h-3
				v-220h3V590.531z M413,590.531h-4v-220h4V590.531z M406,590.531h-2v-220h2V590.531z M399,590.531h-2v-220h2V590.531z
				 M392,590.531h-2v-220h2V590.531z M385,590.531h-2v-220h2V590.531z M378,590.531h-2v-220h2V590.531z M371,590.531h-2v-220h2
				V590.531z M364,590.531h-1v-220h1V590.531z M357,590.531h-1v-220h1V590.531z M350,590.531h-1v-220h1V590.531z M342,590.531h-1
				v-220h1V590.531z M336,590.531h-2v-220h2V590.531z M329,590.531h-2v-220h2V590.531z M322,590.531h-2v-220h2V590.531z
				 M315,590.531h-2v-220h2V590.531z M308,590.531h-2v-220h2V590.531z M301,590.531h-2v-220h2V590.531z M296,590.531h-4v-220h4
				V590.531z M289,590.531h-3v-220h3V590.531z M282,590.531h-3v-220h3V590.531z M275,590.531h-3v-220h3V590.531z M268,590.531h-3
				v-220h3V590.531z M262,590.531h-4v-220h4V590.531z M255,590.531h-4v-220h4V590.531z M248,590.531h-3v-220h3V590.531z
				 M240,590.531h-2v-220h2V590.531z M233,590.531h-2v-220h2V590.531z M226,590.531h-2v-220h2V590.531z M219,590.531h-2v-220h2
				V590.531z M212,590.531h-1v-220h1V590.531z M205,590.531h-1v-220h1V590.531z M198,590.531h-1v-220h1V590.531z M191,590.531h-1
				v-220h1V590.531z M185,590.531h-2v-220h2V590.531z M178,590.531h-2v-220h2V590.531z M171,590.531h-2v-220h2V590.531z
				 M164,590.531h-2v-220h2V590.531z M157,590.531h-2v-220h2V590.531z"/>
			<rect x="643" y="370.531" fill="#FFFFFF" width="1" height="220"/>
		</g>
	</g>
	<linearGradient id="SVGID_3_" gradientUnits="userSpaceOnUse" x1="398.5" y1="267.5312" x2="398.5" y2="78.5312">
		<stop  offset="0" style="stop-color:#FFFFFF"/>
		<stop  offset="1" style="stop-color:#FFFFFF;stop-opacity:0"/>
	</linearGradient>
	<path display="inline" opacity="0.2" fill="url(#SVGID_3_)" d="M686,78.531v170.234c0,11.018-10.145,18.766-22.842,18.766h-528.59
		c-12.699,0-23.568-7.748-23.568-18.766V78.531H686z"/>
	
		<text transform="matrix(1 0 0 1 325.5566 770.4648)" display="inline" fill="#FFFFFF" font-family="'Lato-Light'" font-size="68.9465">stats</text>
	
		<text transform="matrix(1 0 0 1 259.918 180.2266)" display="inline" fill="#FFFFFF" font-family="'Lato-Regular'" font-size="68.9465">Calories</text>
	<g display="inline">
		<circle opacity="0.4" fill="#FFFFFF" cx="306.119" cy="814.918" r="11.491"/>
		<circle opacity="0.4" fill="#FFFFFF" cx="342.891" cy="814.918" r="11.492"/>
		<circle opacity="0.4" fill="#FFFFFF" cx="379.661" cy="814.918" r="11.491"/>
		<circle opacity="0.4" fill="#FFFFFF" cx="416.433" cy="814.918" r="11.491"/>
		<path opacity="0.4" fill="#FFFFFF" d="M464.695,814.918c0,6.348-5.143,11.49-11.492,11.49c-6.346,0-11.49-5.143-11.49-11.49
			c0-6.345,5.145-11.49,11.49-11.49C459.553,803.428,464.695,808.573,464.695,814.918z"/>
		<circle fill="#FFFFFF" cx="489.978" cy="814.918" r="11.491"/>
	</g>
	<g display="inline">
		
			<polyline fill="none" stroke="#FFFFFF" stroke-width="4" stroke-linecap="round" stroke-linejoin="round" stroke-miterlimit="10" points="
			426,707.531 369,707.531 369,649.531 		"/>
		
			<circle fill="none" stroke="#FFFFFF" stroke-width="4" stroke-linecap="round" stroke-linejoin="round" stroke-miterlimit="10" cx="388.024" cy="678.078" r="2.769"/>
		
			<circle fill="none" stroke="#FFFFFF" stroke-width="4" stroke-linecap="round" stroke-linejoin="round" stroke-miterlimit="10" cx="403.944" cy="687.768" r="2.769"/>
		
			<circle fill="none" stroke="#FFFFFF" stroke-width="4" stroke-linecap="round" stroke-linejoin="round" stroke-miterlimit="10" cx="423.327" cy="658.004" r="2.771"/>
		
			<line fill="none" stroke="#FFFFFF" stroke-width="4" stroke-linecap="round" stroke-linejoin="round" stroke-miterlimit="10" x1="373.027" y1="702.076" x2="386.439" y2="680.346"/>
		
			<line fill="none" stroke="#FFFFFF" stroke-width="4" stroke-linecap="round" stroke-linejoin="round" stroke-miterlimit="10" x1="390.793" y1="679.002" x2="402.213" y2="685.61"/>
		
			<line fill="none" stroke="#FFFFFF" stroke-width="4" stroke-linecap="round" stroke-linejoin="round" stroke-miterlimit="10" x1="406.713" y1="685.61" x2="421.477" y2="660.771"/>
	</g>
	<path display="inline" fill="#8CCEAF" stroke="#FFFFFF" stroke-width="4" stroke-linecap="round" stroke-miterlimit="10" d="
		M635.014,557.518c0,6.347,5.148,11.49,11.492,11.49c6.348,0,11.492-5.144,11.492-11.49c0-6.346-5.145-11.492-11.492-11.492
		C640.162,546.025,635.014,551.172,635.014,557.518z"/>
	
		<circle display="inline" fill="#8CCEAF" stroke="#FFFFFF" stroke-width="4" stroke-linecap="round" stroke-miterlimit="10" cx="585.604" cy="523.045" r="11.49"/>
	<path display="inline" fill="#8CCEAF" stroke="#FFFFFF" stroke-width="4" stroke-linecap="round" stroke-miterlimit="10" d="
		M506.316,504.658c0,6.347,5.145,11.491,11.488,11.491c6.35,0,11.492-5.145,11.492-11.491c0-6.344-5.143-11.49-11.492-11.49
		C511.461,493.168,506.316,498.314,506.316,504.658z"/>
	
		<circle display="inline" fill="#8CCEAF" stroke="#FFFFFF" stroke-width="4" stroke-linecap="round" stroke-miterlimit="10" cx="441.965" cy="523.045" r="11.49"/>
	
		<circle display="inline" fill="#8CCEAF" stroke="#FFFFFF" stroke-width="4" stroke-linecap="round" stroke-miterlimit="10" cx="373.019" cy="481.677" r="11.491"/>
	
		<circle display="inline" fill="#8CCEAF" stroke="#FFFFFF" stroke-width="4" stroke-linecap="round" stroke-miterlimit="10" cx="301.773" cy="450.65" r="11.49"/>
	
		<circle display="inline" fill="#8CCEAF" stroke="#FFFFFF" stroke-width="4" stroke-linecap="round" stroke-miterlimit="10" cx="222.486" cy="424.222" r="11.491"/>
	<path display="inline" fill="#8CCEAF" stroke="#FFFFFF" stroke-width="4" stroke-linecap="round" stroke-miterlimit="10" d="
		M136.302,392.047c0,6.345,5.147,11.49,11.491,11.49c6.348,0,11.492-5.146,11.492-11.49c0-6.346-5.145-11.492-11.492-11.492
		C141.449,380.555,136.302,385.701,136.302,392.047z"/>
	
		<line display="inline" fill="none" stroke="#FFFFFF" stroke-width="4" stroke-linecap="round" stroke-miterlimit="10" x1="158.48" y1="396.252" x2="211.799" y2="420.018"/>
	
		<line display="inline" fill="none" stroke="#FFFFFF" stroke-width="4" stroke-linecap="round" stroke-miterlimit="10" x1="233.977" y1="428.434" x2="291.074" y2="446.481"/>
	
		<line display="inline" fill="none" stroke="#FFFFFF" stroke-width="4" stroke-linecap="round" stroke-miterlimit="10" x1="313.264" y1="455.247" x2="361.527" y2="476.695"/>
	
		<line display="inline" fill="none" stroke="#FFFFFF" stroke-width="4" stroke-linecap="round" stroke-miterlimit="10" x1="384.51" y1="488.188" x2="432.787" y2="516.149"/>
	
		<line display="inline" fill="none" stroke="#FFFFFF" stroke-width="4" stroke-linecap="round" stroke-miterlimit="10" x1="453.02" y1="519.934" x2="506.316" y2="504.658"/>
	
		<line display="inline" fill="none" stroke="#FFFFFF" stroke-width="4" stroke-linecap="round" stroke-miterlimit="10" x1="529.297" y1="504.658" x2="574.551" y2="519.934"/>
	
		<line display="inline" fill="none" stroke="#FFFFFF" stroke-width="4" stroke-linecap="round" stroke-miterlimit="10" x1="594.807" y1="529.903" x2="635.84" y2="553.258"/>
</g>
<g id="v2">
	<linearGradient id="SVGID_4_" gradientUnits="userSpaceOnUse" x1="393.4629" y1="40.4893" x2="393.4629" y2="864.6064">
		<stop  offset="0" style="stop-color:#009D91"/>
		<stop  offset="0.5" style="stop-color:#3AAA84"/>
		<stop  offset="1" style="stop-color:#A6E188"/>
	</linearGradient>
	<path fill="url(#SVGID_4_)" d="M744.496,746.659c0,64.871-53.076,117.947-117.947,117.947H160.377
		c-64.871,0-117.947-53.076-117.947-117.947V158.437c0-64.87,53.076-117.947,117.947-117.947h466.172
		c64.871,0,117.947,53.077,117.947,117.947V746.659z"/>
	<path opacity="0.2" fill="#F3F2F2" d="M685,602.549c0,12.693-10.289,22.982-22.982,22.982H132.982
		c-12.693,0-22.982-10.289-22.982-22.982V316.514c0-12.693,10.289-22.982,22.982-22.982h529.035
		c12.693,0,22.982,10.289,22.982,22.982V602.549z"/>
	<g>
		<defs>
			<path id="SVGID_14_" d="M644.736,567.531H149V402.374c5-0.23,8.78-3.173,10.376-7.274l53.446,23.763
				c-0.518,1.299-0.742,2.724-0.742,4.206c0,6.355,5.181,11.491,11.523,11.491c4.952,0,9.197-3.137,10.807-7.538l0.708,0.265
				l57.104,18.042c-0.519,1.298-0.793,2.699-0.793,4.17c0,6.355,5.15,11.492,11.492,11.492c4.838,0,8.987-2.986,10.677-7.229
				l0.815,0.322l48.264,21.442l0.93,0.47c-0.598,1.391-0.93,2.919-0.93,4.528c0,6.354,5.146,11.49,11.49,11.49
				c4.262,0,7.998-2.321,9.975-5.779l1.516,0.759l48.275,27.913l0.057,0.011c-1.48,1.93-2.367,4.354-2.367,6.974
				c0,6.355,5.148,11.491,11.49,11.491c6.344,0,11.492-5.136,11.492-11.491c0-1.147-0.172-2.264-0.482-3.309l0.045,0.212
				l53.297-15.264h0.012c-0.012,0-0.012,0.049-0.012,0.178c0,6.354,5.148,11.39,11.49,11.39c6.346,0,11.492-4.984,11.492-11.339
				c0-0.128,0-0.229-0.014-0.229h0.014l45.25,15.264l0.047-0.076c-0.32,1.031-0.482,2.085-0.482,3.224
				c0,6.354,5.146,11.466,11.49,11.466c3.771,0,7.125-1.825,9.219-4.633l41.021,23.332c-0.541,1.322-0.828,2.783-0.828,4.288
				C636.164,561.74,639.807,566.531,644.736,567.531z"/>
		</defs>
		<clipPath id="SVGID_5_">
			<use xlink:href="#SVGID_14_"  overflow="visible"/>
		</clipPath>
		<g clip-path="url(#SVGID_5_)">
			<rect x="149" y="370.531" fill="#FFFFFF" width="1" height="220"/>
			<path fill="#FFFFFF" d="M639,590.531h-2v-220h2V590.531z M632,590.531h-2v-220h2V590.531z M626,590.531h-3v-220h3V590.531z
				 M620,590.531h-4v-220h4V590.531z M613,590.531h-4v-220h4V590.531z M606,590.531h-4v-220h4V590.531z M599,590.531h-4v-220h4
				V590.531z M592,590.531h-3v-220h3V590.531z M585,590.531h-3v-220h3V590.531z M578,590.531h-3v-220h3V590.531z M571,590.531h-3
				v-220h3V590.531z M565,590.531h-2v-220h2V590.531z M558,590.531h-2v-220h2V590.531z M551,590.531h-3v-220h3V590.531z
				 M543,590.531h-2v-220h2V590.531z M536,590.531h-2v-220h2V590.531z M529,590.531h-2v-220h2V590.531z M522,590.531h-2v-220h2
				V590.531z M515,590.531h-1v-220h1V590.531z M508,590.531h-1v-220h1V590.531z M501,590.531h-1v-220h1V590.531z M494,590.531h-1
				v-220h1V590.531z M488,590.531h-2v-220h2V590.531z M481,590.531h-2v-220h2V590.531z M474,590.531h-2v-220h2V590.531z
				 M467,590.531h-2v-220h2V590.531z M460,590.531h-2v-220h2V590.531z M455,590.531h-4v-220h4V590.531z M447,590.531h-4v-220h4
				V590.531z M440,590.531h-3v-220h3V590.531z M433,590.531h-3v-220h3V590.531z M426,590.531h-3v-220h3V590.531z M419,590.531h-3
				v-220h3V590.531z M413,590.531h-4v-220h4V590.531z M406,590.531h-2v-220h2V590.531z M399,590.531h-2v-220h2V590.531z
				 M392,590.531h-2v-220h2V590.531z M385,590.531h-2v-220h2V590.531z M378,590.531h-2v-220h2V590.531z M371,590.531h-2v-220h2
				V590.531z M364,590.531h-1v-220h1V590.531z M357,590.531h-1v-220h1V590.531z M350,590.531h-1v-220h1V590.531z M342,590.531h-1
				v-220h1V590.531z M336,590.531h-2v-220h2V590.531z M329,590.531h-2v-220h2V590.531z M322,590.531h-2v-220h2V590.531z
				 M315,590.531h-2v-220h2V590.531z M308,590.531h-2v-220h2V590.531z M301,590.531h-2v-220h2V590.531z M296,590.531h-4v-220h4
				V590.531z M289,590.531h-3v-220h3V590.531z M282,590.531h-3v-220h3V590.531z M275,590.531h-3v-220h3V590.531z M268,590.531h-3
				v-220h3V590.531z M262,590.531h-4v-220h4V590.531z M255,590.531h-4v-220h4V590.531z M248,590.531h-3v-220h3V590.531z
				 M240,590.531h-2v-220h2V590.531z M233,590.531h-2v-220h2V590.531z M226,590.531h-2v-220h2V590.531z M219,590.531h-2v-220h2
				V590.531z M212,590.531h-1v-220h1V590.531z M205,590.531h-1v-220h1V590.531z M198,590.531h-1v-220h1V590.531z M191,590.531h-1
				v-220h1V590.531z M185,590.531h-2v-220h2V590.531z M178,590.531h-2v-220h2V590.531z M171,590.531h-2v-220h2V590.531z
				 M164,590.531h-2v-220h2V590.531z M157,590.531h-2v-220h2V590.531z"/>
			<rect x="643" y="370.531" fill="#FFFFFF" width="1" height="220"/>
		</g>
	</g>
	<linearGradient id="SVGID_6_" gradientUnits="userSpaceOnUse" x1="398.5" y1="267.5312" x2="398.5" y2="78.5312">
		<stop  offset="0" style="stop-color:#FFFFFF"/>
		<stop  offset="1" style="stop-color:#FFFFFF;stop-opacity:0"/>
	</linearGradient>
	<path opacity="0.2" fill="url(#SVGID_6_)" d="M686,78.531v170.234c0,11.018-10.145,18.766-22.842,18.766h-528.59
		c-12.699,0-23.568-7.748-23.568-18.766V78.531H686z"/>
	<text transform="matrix(1 0 0 1 325.5566 770.4648)" fill="#FFFFFF" font-family="'Lato-Light'" font-size="68.9465">stats</text>
	<text transform="matrix(1 0 0 1 259.918 180.2266)" fill="#FFFFFF" font-family="'Lato-Regular'" font-size="68.9465">Calories</text>
	<g>
		<circle opacity="0.4" fill="#FFFFFF" cx="306.119" cy="814.918" r="11.491"/>
		<circle opacity="0.4" fill="#FFFFFF" cx="342.891" cy="814.918" r="11.492"/>
		<circle opacity="0.4" fill="#FFFFFF" cx="379.661" cy="814.918" r="11.491"/>
		<circle opacity="0.4" fill="#FFFFFF" cx="416.433" cy="814.918" r="11.491"/>
		<path opacity="0.4" fill="#FFFFFF" d="M464.695,814.918c0,6.348-5.143,11.49-11.492,11.49c-6.346,0-11.49-5.143-11.49-11.49
			c0-6.345,5.145-11.49,11.49-11.49C459.553,803.428,464.695,808.573,464.695,814.918z"/>
		<circle fill="#FFFFFF" cx="489.978" cy="814.918" r="11.491"/>
	</g>
	<g>
		
			<polyline fill="none" stroke="#FFFFFF" stroke-width="4" stroke-linecap="round" stroke-linejoin="round" stroke-miterlimit="10" points="
			426,707.531 369,707.531 369,649.531 		"/>
		
			<circle fill="none" stroke="#FFFFFF" stroke-width="4" stroke-linecap="round" stroke-linejoin="round" stroke-miterlimit="10" cx="388.024" cy="678.078" r="2.769"/>
		
			<circle fill="none" stroke="#FFFFFF" stroke-width="4" stroke-linecap="round" stroke-linejoin="round" stroke-miterlimit="10" cx="403.944" cy="687.768" r="2.769"/>
		
			<circle fill="none" stroke="#FFFFFF" stroke-width="4" stroke-linecap="round" stroke-linejoin="round" stroke-miterlimit="10" cx="423.327" cy="658.004" r="2.771"/>
		
			<line fill="none" stroke="#FFFFFF" stroke-width="4" stroke-linecap="round" stroke-linejoin="round" stroke-miterlimit="10" x1="373.027" y1="702.076" x2="386.439" y2="680.346"/>
		
			<line fill="none" stroke="#FFFFFF" stroke-width="4" stroke-linecap="round" stroke-linejoin="round" stroke-miterlimit="10" x1="390.793" y1="679.002" x2="402.213" y2="685.61"/>
		
			<line fill="none" stroke="#FFFFFF" stroke-width="4" stroke-linecap="round" stroke-linejoin="round" stroke-miterlimit="10" x1="406.713" y1="685.61" x2="421.477" y2="660.771"/>
	</g>
	<path fill="#8CCEAF" stroke="#FFFFFF" stroke-width="4" stroke-linecap="round" stroke-miterlimit="10" d="M635.014,557.518
		c0,6.347,5.148,11.49,11.492,11.49c6.348,0,11.492-5.144,11.492-11.49c0-6.346-5.145-11.492-11.492-11.492
		C640.162,546.025,635.014,551.172,635.014,557.518z"/>
	
		<circle fill="#8CCEAF" stroke="#FFFFFF" stroke-width="4" stroke-linecap="round" stroke-miterlimit="10" cx="585.604" cy="523.045" r="11.49"/>
	<path fill="#8CCEAF" stroke="#FFFFFF" stroke-width="4" stroke-linecap="round" stroke-miterlimit="10" d="M506.316,504.658
		c0,6.347,5.145,11.491,11.488,11.491c6.35,0,11.492-5.145,11.492-11.491c0-6.344-5.143-11.49-11.492-11.49
		C511.461,493.168,506.316,498.314,506.316,504.658z"/>
	
		<circle fill="#8CCEAF" stroke="#FFFFFF" stroke-width="4" stroke-linecap="round" stroke-miterlimit="10" cx="441.965" cy="523.045" r="11.49"/>
	
		<circle fill="#8CCEAF" stroke="#FFFFFF" stroke-width="4" stroke-linecap="round" stroke-miterlimit="10" cx="373.019" cy="481.677" r="11.491"/>
	
		<circle fill="#8CCEAF" stroke="#FFFFFF" stroke-width="4" stroke-linecap="round" stroke-miterlimit="10" cx="301.773" cy="450.65" r="11.49"/>
	
		<circle fill="#8CCEAF" stroke="#FFFFFF" stroke-width="4" stroke-linecap="round" stroke-miterlimit="10" cx="222.486" cy="424.222" r="11.491"/>
	<path fill="#8CCEAF" stroke="#FFFFFF" stroke-width="4" stroke-linecap="round" stroke-miterlimit="10" d="M136.302,392.047
		c0,6.345,5.147,11.49,11.491,11.49c6.348,0,11.492-5.146,11.492-11.49c0-6.346-5.145-11.492-11.492-11.492
		C141.449,380.555,136.302,385.701,136.302,392.047z"/>
	
		<line fill="none" stroke="#FFFFFF" stroke-width="4" stroke-linecap="round" stroke-miterlimit="10" x1="158.48" y1="396.252" x2="211.799" y2="420.018"/>
	
		<line fill="none" stroke="#FFFFFF" stroke-width="4" stroke-linecap="round" stroke-miterlimit="10" x1="233.977" y1="428.434" x2="291.074" y2="446.481"/>
	
		<line fill="none" stroke="#FFFFFF" stroke-width="4" stroke-linecap="round" stroke-miterlimit="10" x1="313.264" y1="455.247" x2="361.527" y2="476.695"/>
	
		<line fill="none" stroke="#FFFFFF" stroke-width="4" stroke-linecap="round" stroke-miterlimit="10" x1="384.51" y1="488.188" x2="432.787" y2="516.149"/>
	
		<line fill="none" stroke="#FFFFFF" stroke-width="4" stroke-linecap="round" stroke-miterlimit="10" x1="453.02" y1="519.934" x2="506.316" y2="504.658"/>
	
		<line fill="none" stroke="#FFFFFF" stroke-width="4" stroke-linecap="round" stroke-miterlimit="10" x1="529.297" y1="504.658" x2="574.551" y2="519.934"/>
	
		<line fill="none" stroke="#FFFFFF" stroke-width="4" stroke-linecap="round" stroke-miterlimit="10" x1="594.807" y1="529.903" x2="635.84" y2="553.258"/>
</g>
<g id="watch">
	<g>
		<path fill="none" stroke="#D3D7DC" stroke-miterlimit="10" d="M786.5,481.861v94.985c0,7.039-5.998,12.185-13.031,12.185H768.5
			v-117h4.969C780.502,472.031,786.5,474.823,786.5,481.861z"/>
		<path fill="#FFFFFF" stroke="#D3D7DC" stroke-miterlimit="10" d="M769.13,208.609v-56.469c0-76.471-62.56-139.031-139.02-139.031
			H156.04C79.58,13.109,17.02,75.67,17.02,152.141V748.54c0,76.47,62.561,139.03,139.021,139.03h474.07
			c76.46,0,139.02-62.561,139.02-139.03V359.061h-0.01c-13.72-6.031-24.18-37.41-24.18-75.23
			C744.94,246.02,755.4,214.63,769.13,208.609z M741.17,741.54c0,64.229-52.55,116.78-116.78,116.78H162.83
			c-64.23,0-116.78-52.551-116.78-116.78V159.141c0-64.23,52.55-116.781,116.78-116.781h461.56
			c64.23,0,116.78,52.551,116.78,116.781V741.54z"/>
		<path fill="none" stroke="#D3D7DC" stroke-miterlimit="10" d="M769.131,209.318h12.86c12.233,0,22.243,10.01,22.243,22.244
			v105.958c0,12.233-10.01,22.243-22.243,22.243h-12.86"/>
		<g>
			<path fill="#D3D7DC" d="M804.234,344.537l-17.552,7.566v-1.393l17.552-7.389V344.537z M804.234,337.244l-17.552,6.502v-1.394
				l17.552-6.324V337.244z M804.234,329.951l-17.552,5.436v-1.393l17.552-5.258V329.951z M804.234,322.658l-17.552,4.371v-1.394
				l17.552-4.192V322.658z M804.234,315.366l-17.552,3.306v-1.395l17.552-3.127V315.366z M804.234,308.074l-17.552,2.238v-1.393
				l17.552-2.062V308.074z M804.234,300.781l-17.552,1.174v-1.394l17.552-0.996V300.781z M804.234,293.488l-17.552,0.107v-1.393
				l17.552,0.069V293.488z M804.234,286.195l-17.552-0.957v-1.394l17.552,1.136V286.195z M804.234,278.902l-17.552-2.023v-1.393
				l17.552,2.201V278.902z M804.234,271.61l-17.552-3.089v-1.394l17.552,3.267V271.61z M804.234,264.316l-17.552-4.153v-1.394
				l17.552,4.332V264.316z M804.234,257.024l-17.552-5.22v-1.393l17.552,5.397V257.024z M804.234,249.732l-17.552-6.286v-1.393
				l17.552,6.462V249.732z M804.234,242.439l-17.552-7.352v-1.393l17.552,7.527V242.439z M804.234,235.146l-17.552-8.416v-1.393
				l17.552,8.595V235.146z M804.234,227.854l-17.552-9.481v-1.394l17.552,9.66V227.854z"/>
		</g>
	</g>
</g>
</svg>
