<?xml version="1.0" encoding="utf-8"?>
<!-- Generator: Adobe Illustrator 16.0.4, SVG Export Plug-In . SVG Version: 6.00 Build 0)  -->
<!DOCTYPE svg PUBLIC "-//W3C//DTD SVG 1.1//EN" "http://www.w3.org/Graphics/SVG/1.1/DTD/svg11.dtd">
<svg version="1.1" xmlns="http://www.w3.org/2000/svg" xmlns:xlink="http://www.w3.org/1999/xlink" x="0px" y="0px" width="820px"
	 height="900px" viewBox="0 0 820 900" enable-background="new 0 0 820 900" xml:space="preserve">
<g id="screens" display="none">
	<linearGradient id="SVGID_2_" gradientUnits="userSpaceOnUse" x1="393.4629" y1="37.4893" x2="393.4629" y2="861.6069">
		<stop  offset="0" style="stop-color:#2097A6"/>
		<stop  offset="1" style="stop-color:#73C6A4"/>
	</linearGradient>
	<path display="inline" fill="url(#SVGID_2_)" d="M744.496,743.659c0,64.871-53.076,117.947-117.947,117.947H160.377
		c-64.871,0-117.947-53.076-117.947-117.947V155.437c0-64.871,53.076-117.947,117.947-117.947h466.172
		c64.871,0,117.947,53.077,117.947,117.947V743.659z"/>
	<linearGradient id="SVGID_3_" gradientUnits="userSpaceOnUse" x1="395" y1="228" x2="395" y2="37">
		<stop  offset="0" style="stop-color:#FFFFFF"/>
		<stop  offset="1" style="stop-color:#FFFFFF;stop-opacity:0"/>
	</linearGradient>
	<path display="inline" opacity="0.2" fill="url(#SVGID_3_)" d="M683,37v169.779C683,217.806,672.338,228,659.631,228H130.652
		C117.944,228,107,217.806,107,206.779V37H683z"/>
	<path display="inline" opacity="0.2" fill="#F3F2F2" d="M680,563.356C680,576.06,669.787,586,657.391,586H128.6
		c-12.396,0-22.6-9.94-22.6-22.644V276.057C106,263.354,116.204,253,128.6,253h528.791C669.787,253,680,263.354,680,276.057V563.356
		z"/>
	
		<text transform="matrix(1 0 0 1 314.7793 728.8652)" display="inline" fill="#FFFFFF" font-family="'Lato-Light'" font-size="68.9974">steps</text>
	<rect x="135.781" y="344.238" display="inline" fill="none" width="514.098" height="170.667"/>
	
		<text transform="matrix(1 0 0 1 222.7559 486.6514)" display="inline" fill="#FFFFFF" font-family="'Lato-Light'" font-size="195.4927">618</text>
	
		<text transform="matrix(1 0 0 1 287.0391 141.6411)" display="inline" fill="#FFFFFF" font-family="'Lato-Regular'" font-size="68.9974">Today</text>
	<g display="inline">
		<path fill="none" stroke="#FFFFFF" stroke-width="4" stroke-linecap="round" stroke-linejoin="round" stroke-miterlimit="10" d="
			M390,667.707c0,5.685-4.609,10.293-10.294,10.293h-0.412c-5.685,0-10.294-4.608-10.294-10.293v-20.414
			c0-5.685,4.609-10.293,10.294-10.293h0.412c5.685,0,10.294,4.608,10.294,10.293V667.707z"/>
		<path fill="none" stroke="#FFFFFF" stroke-width="4" stroke-linecap="round" stroke-linejoin="round" stroke-miterlimit="10" d="
			M418,653.706c0,5.686-4.609,10.294-10.295,10.294h-0.41c-5.686,0-10.295-4.608-10.295-10.294v-20.412
			c0-5.686,4.609-10.294,10.295-10.294h0.41c5.686,0,10.295,4.608,10.295,10.294V653.706z"/>
	</g>
	<g display="inline">
		<circle opacity="0.4" fill="#FFFFFF" cx="302.33" cy="773.35" r="11.5"/>
		<circle fill="#FFFFFF" cx="339.129" cy="773.35" r="11.5"/>
		<circle opacity="0.4" fill="#FFFFFF" cx="375.927" cy="773.35" r="11.499"/>
		<circle opacity="0.4" fill="#FFFFFF" cx="412.726" cy="773.35" r="11.499"/>
		<circle opacity="0.4" fill="#FFFFFF" cx="449.524" cy="773.35" r="11.499"/>
		<path opacity="0.4" fill="#FFFFFF" d="M497.822,773.35c0,6.354-5.146,11.5-11.5,11.5c-6.352,0-11.498-5.146-11.498-11.5
			c0-6.349,5.146-11.499,11.498-11.499C492.676,761.851,497.822,767.001,497.822,773.35z"/>
	</g>
</g>
<g id="v2">
	<linearGradient id="SVGID_4_" gradientUnits="userSpaceOnUse" x1="393.4629" y1="37.4893" x2="393.4629" y2="861.6069">
		<stop  offset="0" style="stop-color:#007DAF"/>
		<stop  offset="0.16" style="stop-color:#0486AE"/>
		<stop  offset="0.4202" style="stop-color:#109EAB"/>
		<stop  offset="0.5" style="stop-color:#14A7AA"/>
		<stop  offset="0.5697" style="stop-color:#1DAAAA"/>
		<stop  offset="0.6833" style="stop-color:#35B2A9"/>
		<stop  offset="0.8267" style="stop-color:#5DC0A7"/>
		<stop  offset="0.9929" style="stop-color:#94D2A5"/>
		<stop  offset="1" style="stop-color:#96D3A5"/>
	</linearGradient>
	<path fill="url(#SVGID_4_)" d="M744.496,743.659c0,64.871-53.076,117.947-117.947,117.947H160.377
		c-64.871,0-117.947-53.076-117.947-117.947V155.437c0-64.871,53.076-117.947,117.947-117.947h466.172
		c64.871,0,117.947,53.077,117.947,117.947V743.659z"/>
	<linearGradient id="SVGID_5_" gradientUnits="userSpaceOnUse" x1="395" y1="228" x2="395" y2="37">
		<stop  offset="0" style="stop-color:#FFFFFF"/>
		<stop  offset="1" style="stop-color:#FFFFFF;stop-opacity:0"/>
	</linearGradient>
	<path opacity="0.2" fill="url(#SVGID_5_)" d="M683,37v169.779C683,217.806,672.338,228,659.631,228H130.652
		C117.944,228,107,217.806,107,206.779V37H683z"/>
	<path opacity="0.2" fill="#F3F2F2" d="M680,563.356C680,576.06,669.787,586,657.391,586H128.6c-12.396,0-22.6-9.94-22.6-22.644
		V276.057C106,263.354,116.204,253,128.6,253h528.791C669.787,253,680,263.354,680,276.057V563.356z"/>
	<text transform="matrix(1 0 0 1 314.7793 728.8652)" fill="#FFFFFF" font-family="'Lato-Light'" font-size="68.9974">steps</text>
	<rect x="135.781" y="344.238" fill="none" width="514.098" height="170.667"/>
	<text transform="matrix(1 0 0 1 222.7559 486.6514)" fill="#FFFFFF" font-family="'Lato-Light'" font-size="195.4927">618</text>
	<text transform="matrix(1 0 0 1 287.0391 141.6411)" fill="#FFFFFF" font-family="'Lato-Regular'" font-size="68.9974">Today</text>
	<g>
		<path fill="none" stroke="#FFFFFF" stroke-width="4" stroke-linecap="round" stroke-linejoin="round" stroke-miterlimit="10" d="
			M390,667.707c0,5.685-4.609,10.293-10.294,10.293h-0.412c-5.685,0-10.294-4.608-10.294-10.293v-20.414
			c0-5.685,4.609-10.293,10.294-10.293h0.412c5.685,0,10.294,4.608,10.294,10.293V667.707z"/>
		<path fill="none" stroke="#FFFFFF" stroke-width="4" stroke-linecap="round" stroke-linejoin="round" stroke-miterlimit="10" d="
			M418,653.706c0,5.686-4.609,10.294-10.295,10.294h-0.41c-5.686,0-10.295-4.608-10.295-10.294v-20.412
			c0-5.686,4.609-10.294,10.295-10.294h0.41c5.686,0,10.295,4.608,10.295,10.294V653.706z"/>
	</g>
	<g>
		<circle opacity="0.4" fill="#FFFFFF" cx="302.33" cy="773.35" r="11.5"/>
		<circle fill="#FFFFFF" cx="339.129" cy="773.35" r="11.5"/>
		<circle opacity="0.4" fill="#FFFFFF" cx="375.927" cy="773.35" r="11.499"/>
		<circle opacity="0.4" fill="#FFFFFF" cx="412.726" cy="773.35" r="11.499"/>
		<circle opacity="0.4" fill="#FFFFFF" cx="449.524" cy="773.35" r="11.499"/>
		<path opacity="0.4" fill="#FFFFFF" d="M497.822,773.35c0,6.354-5.146,11.5-11.5,11.5c-6.352,0-11.498-5.146-11.498-11.5
			c0-6.349,5.146-11.499,11.498-11.499C492.676,761.851,497.822,767.001,497.822,773.35z"/>
	</g>
</g>
<g id="watch">
	<g>
		<path fill="none" stroke="#D3D7DC" stroke-miterlimit="10" d="M786.5,480.861v94.985c0,7.039-5.998,12.653-13.031,12.653H768.5
			v-117h4.969C780.502,471.5,786.5,473.823,786.5,480.861z"/>
		<path fill="#FFFFFF" stroke="#D3D7DC" stroke-miterlimit="10" d="M769.13,207.61v-56.47c0-76.47-62.56-139.03-139.02-139.03
			H156.04C79.58,12.11,17.02,74.67,17.02,151.14v596.4c0,76.47,62.561,139.03,139.021,139.03h474.07
			c76.46,0,139.02-62.561,139.02-139.03V358.06h-0.01c-13.72-6.03-24.18-37.41-24.18-75.23
			C744.94,245.02,755.4,213.63,769.13,207.61z M741.17,740.54c0,64.229-52.55,116.78-116.78,116.78H162.83
			c-64.23,0-116.78-52.551-116.78-116.78v-582.4c0-64.23,52.55-116.78,116.78-116.78h461.56c64.23,0,116.78,52.55,116.78,116.78
			V740.54z"/>
		<path fill="none" stroke="#D3D7DC" stroke-miterlimit="10" d="M769.131,208.318h12.86c12.233,0,22.243,10.01,22.243,22.244
			v105.958c0,12.234-10.01,22.244-22.243,22.244h-12.86"/>
		<g>
			<path fill="#D3D7DC" d="M804.234,343.537l-17.552,7.567v-1.393l17.552-7.389V343.537z M804.234,336.244l-17.552,6.501v-1.393
				l17.552-6.324V336.244z M804.234,328.951l-17.552,5.436v-1.393l17.552-5.258V328.951z M804.234,321.659l-17.552,4.37v-1.393
				l17.552-4.192V321.659z M804.234,314.366l-17.552,3.305v-1.394l17.552-3.128V314.366z M804.234,307.074l-17.552,2.239v-1.393
				l17.552-2.062V307.074z M804.234,299.781l-17.552,1.174v-1.393l17.552-0.996V299.781z M804.234,292.488l-17.552,0.108v-1.393
				l17.552,0.069V292.488z M804.234,285.195l-17.552-0.957v-1.393l17.552,1.135V285.195z M804.234,277.902l-17.552-2.023v-1.393
				l17.552,2.201V277.902z M804.234,270.61l-17.552-3.089v-1.394l17.552,3.266V270.61z M804.234,263.317l-17.552-4.154v-1.393
				l17.552,4.332V263.317z M804.234,256.024l-17.552-5.219v-1.393l17.552,5.397V256.024z M804.234,248.732l-17.552-6.286v-1.393
				l17.552,6.462V248.732z M804.234,241.439l-17.552-7.351v-1.393l17.552,7.528V241.439z M804.234,234.146l-17.552-8.416v-1.393
				l17.552,8.594V234.146z M804.234,226.854l-17.552-9.482v-1.394l17.552,9.66V226.854z"/>
		</g>
	</g>
</g>
</svg>
