<?xml version="1.0" encoding="utf-8"?>
<!-- Generator: Adobe Illustrator 16.0.4, SVG Export Plug-In . SVG Version: 6.00 Build 0)  -->
<!DOCTYPE svg PUBLIC "-//W3C//DTD SVG 1.1//EN" "http://www.w3.org/Graphics/SVG/1.1/DTD/svg11.dtd">
<svg version="1.1" xmlns="http://www.w3.org/2000/svg" xmlns:xlink="http://www.w3.org/1999/xlink" x="0px" y="0px" width="820px"
	 height="900px" viewBox="0 0 820 900" enable-background="new 0 0 820 900" xml:space="preserve">
<g id="screens" display="none">
	<linearGradient id="SVGID_2_" gradientUnits="userSpaceOnUse" x1="404.4624" y1="37.6748" x2="404.4624" y2="861.7935">
		<stop  offset="0" style="stop-color:#D27E74"/>
		<stop  offset="1" style="stop-color:#EE9E6C"/>
	</linearGradient>
	<path display="inline" fill="url(#SVGID_2_)" d="M755.496,743.846c0,64.87-53.076,117.947-117.947,117.947H171.377
		c-64.871,0-117.947-53.077-117.947-117.947V155.623c0-64.871,53.077-117.948,117.947-117.948h466.172
		c64.871,0,117.947,53.077,117.947,117.948V743.846z"/>
	<polyline display="inline" opacity="0.2" fill="#F3F2F2" points="698,452 651.217,452 628.871,580.701 608.877,308.492 
		577.125,490.824 558.309,414.065 539.375,451 488.393,451 518.383,451 472.281,451 449.932,579.721 429.943,307.519 
		398.189,489.855 379.372,413.081 360.438,450 309.455,450 318.452,450 272.351,450 250.005,578.74 230.013,306.547 
		198.259,488.887 179.442,412.597 160.508,450 110,450 	"/>
	
		<polyline display="inline" fill="none" stroke="#F3F2F2" stroke-width="5" stroke-linecap="round" stroke-linejoin="round" stroke-miterlimit="10" points="
		698,451.5 651.217,451.5 628.871,580.454 608.877,308.367 577.125,490.76 558.309,413.784 539.375,450.5 488.393,450.5 
		518.383,450.5 472.281,450.5 449.932,579.472 429.943,307.394 398.189,489.791 379.372,412.799 360.438,449.5 309.455,449.5 
		318.452,449.5 272.351,449.5 250.005,578.491 230.013,306.421 198.259,488.826 179.442,412.315 160.508,449.5 110,449.5 	"/>
	
		<text transform="matrix(1 0 0 1 267.8564 708.2432)" display="inline" fill="#FFFFFF" font-family="'Lato-Light'" font-size="57.8073">heart rate</text>
	
		<path display="inline" fill="none" stroke="#FFFFFF" stroke-width="4" stroke-linecap="round" stroke-linejoin="round" stroke-miterlimit="10" d="
		M414.361,632h0.006l-12.913,21h-0.006c-2.341,6-6.586,6.752-11.421,6.752c-4.846,0-9.096-2.433-11.438-6.304l-0.006,0.087
		l-0.216-0.353c-0.037-0.063-0.074,0.12-0.11,0.054L366.199,632h0.005c-1.06-1-1.666-4.342-1.666-6.684
		c0-7.365,5.995-13.471,13.361-13.471c5.605,0,10.41,3.415,12.393,8.322c1.977-4.907,6.786-8.409,12.392-8.409
		c7.362,0,13.356,6.198,13.356,13.563C416.039,627.671,415.426,631,414.361,632z"/>
	
		<text transform="matrix(1 0 0 1 295.541 217.1646)" display="inline" fill="#FFFFFF" font-family="'Lato-Regular'" font-size="57.8073">65 bpm</text>
	<g display="inline">
		<circle fill="#FFFFFF" cx="324.775" cy="744.737" r="9.635"/>
		<circle opacity="0.4" fill="#FFFFFF" cx="355.604" cy="744.737" r="9.635"/>
		<circle opacity="0.4" fill="#FFFFFF" cx="386.436" cy="744.737" r="9.634"/>
		<circle opacity="0.4" fill="#FFFFFF" cx="417.265" cy="744.737" r="9.634"/>
		<circle opacity="0.4" fill="#FFFFFF" cx="448.096" cy="744.737" r="9.635"/>
		<circle opacity="0.4" fill="#FFFFFF" cx="478.927" cy="744.737" r="9.634"/>
	</g>
</g>
<g id="v2">
	<linearGradient id="SVGID_3_" gradientUnits="userSpaceOnUse" x1="404.4624" y1="37.6748" x2="404.4624" y2="861.7935">
		<stop  offset="0" style="stop-color:#B33761"/>
		<stop  offset="0.5" style="stop-color:#C8716E"/>
		<stop  offset="0.633" style="stop-color:#CE7A6D"/>
		<stop  offset="0.8491" style="stop-color:#E09269"/>
		<stop  offset="1" style="stop-color:#EFA766"/>
	</linearGradient>
	<path fill="url(#SVGID_3_)" d="M755.496,743.846c0,64.87-53.076,117.947-117.947,117.947H171.377
		c-64.871,0-117.947-53.077-117.947-117.947V155.623c0-64.871,53.077-117.948,117.947-117.948h466.172
		c64.871,0,117.947,53.077,117.947,117.948V743.846z"/>
	<polyline opacity="0.2" fill="#F3F2F2" points="698,452 651.217,452 628.871,580.701 608.877,308.492 577.125,490.824 
		558.309,414.065 539.375,451 488.393,451 518.383,451 472.281,451 449.932,579.721 429.943,307.519 398.189,489.855 
		379.372,413.081 360.438,450 309.455,450 318.452,450 272.351,450 250.005,578.74 230.013,306.547 198.259,488.887 
		179.442,412.597 160.508,450 110,450 	"/>
	
		<polyline fill="none" stroke="#F3F2F2" stroke-width="5" stroke-linecap="round" stroke-linejoin="round" stroke-miterlimit="10" points="
		698,451.5 651.217,451.5 628.871,580.454 608.877,308.367 577.125,490.76 558.309,413.784 539.375,450.5 488.393,450.5 
		518.383,450.5 472.281,450.5 449.932,579.472 429.943,307.394 398.189,489.791 379.372,412.799 360.438,449.5 309.455,449.5 
		318.452,449.5 272.351,449.5 250.005,578.491 230.013,306.421 198.259,488.826 179.442,412.315 160.508,449.5 110,449.5 	"/>
	<text transform="matrix(1 0 0 1 267.8564 708.2432)" fill="#FFFFFF" font-family="'Lato-Light'" font-size="57.8073">heart rate</text>
	<path fill="none" stroke="#FFFFFF" stroke-width="4" stroke-linecap="round" stroke-linejoin="round" stroke-miterlimit="10" d="
		M414.361,632h0.006l-12.913,21h-0.006c-2.341,6-6.586,6.752-11.421,6.752c-4.846,0-9.096-2.433-11.438-6.304l-0.006,0.087
		l-0.216-0.353c-0.037-0.063-0.074,0.12-0.11,0.054L366.199,632h0.005c-1.06-1-1.666-4.342-1.666-6.684
		c0-7.365,5.995-13.471,13.361-13.471c5.605,0,10.41,3.415,12.393,8.322c1.977-4.907,6.786-8.409,12.392-8.409
		c7.362,0,13.356,6.198,13.356,13.563C416.039,627.671,415.426,631,414.361,632z"/>
	<text transform="matrix(1 0 0 1 295.541 217.1646)" fill="#FFFFFF" font-family="'Lato-Regular'" font-size="57.8073">65 bpm</text>
	<g>
		<circle fill="#FFFFFF" cx="324.775" cy="744.737" r="9.635"/>
		<circle opacity="0.4" fill="#FFFFFF" cx="355.604" cy="744.737" r="9.635"/>
		<circle opacity="0.4" fill="#FFFFFF" cx="386.436" cy="744.737" r="9.634"/>
		<circle opacity="0.4" fill="#FFFFFF" cx="417.265" cy="744.737" r="9.634"/>
		<circle opacity="0.4" fill="#FFFFFF" cx="448.096" cy="744.737" r="9.635"/>
		<circle opacity="0.4" fill="#FFFFFF" cx="478.927" cy="744.737" r="9.634"/>
	</g>
</g>
<g id="watch">
	<g>
		<path fill="none" stroke="#D3D7DC" stroke-miterlimit="10" d="M797.5,480.861v94.985c0,7.039-5.998,12.653-13.031,12.653H779.5
			v-117h4.969C791.502,471.5,797.5,473.823,797.5,480.861z"/>
		<path fill="#FFFFFF" stroke="#D3D7DC" stroke-miterlimit="10" d="M780.13,207.61v-56.47c0-76.47-62.56-139.03-139.02-139.03
			H167.04c-76.46,0-139.02,62.56-139.02,139.03v596.4c0,76.47,62.56,139.03,139.02,139.03h474.07
			c76.46,0,139.02-62.561,139.02-139.03V358.06h-0.01c-13.72-6.03-24.18-37.41-24.18-75.23
			C755.94,245.02,766.4,213.63,780.13,207.61z M752.17,740.54c0,64.229-52.55,116.78-116.78,116.78H173.83
			c-64.23,0-116.78-52.551-116.78-116.78v-582.4c0-64.23,52.55-116.78,116.78-116.78h461.56c64.23,0,116.78,52.55,116.78,116.78
			V740.54z"/>
		<path fill="none" stroke="#D3D7DC" stroke-miterlimit="10" d="M780.131,208.318h12.86c12.233,0,22.243,10.01,22.243,22.244
			v105.958c0,12.234-10.01,22.244-22.243,22.244h-12.86"/>
		<g>
			<path fill="#D3D7DC" d="M815.234,343.537l-17.552,7.567v-1.393l17.552-7.389V343.537z M815.234,336.244l-17.552,6.501v-1.393
				l17.552-6.324V336.244z M815.234,328.951l-17.552,5.436v-1.393l17.552-5.258V328.951z M815.234,321.659l-17.552,4.37v-1.393
				l17.552-4.192V321.659z M815.234,314.366l-17.552,3.305v-1.394l17.552-3.128V314.366z M815.234,307.074l-17.552,2.239v-1.393
				l17.552-2.062V307.074z M815.234,299.781l-17.552,1.174v-1.393l17.552-0.996V299.781z M815.234,292.488l-17.552,0.108v-1.393
				l17.552,0.069V292.488z M815.234,285.195l-17.552-0.957v-1.393l17.552,1.135V285.195z M815.234,277.902l-17.552-2.023v-1.393
				l17.552,2.201V277.902z M815.234,270.61l-17.552-3.089v-1.394l17.552,3.266V270.61z M815.234,263.317l-17.552-4.154v-1.393
				l17.552,4.332V263.317z M815.234,256.024l-17.552-5.219v-1.393l17.552,5.397V256.024z M815.234,248.732l-17.552-6.286v-1.393
				l17.552,6.462V248.732z M815.234,241.439l-17.552-7.351v-1.393l17.552,7.528V241.439z M815.234,234.146l-17.552-8.416v-1.393
				l17.552,8.594V234.146z M815.234,226.854l-17.552-9.482v-1.394l17.552,9.66V226.854z"/>
		</g>
	</g>
</g>
</svg>
