<?xml version="1.0" encoding="utf-8"?>
<!-- Generator: Adobe Illustrator 16.0.4, SVG Export Plug-In . SVG Version: 6.00 Build 0)  -->
<!DOCTYPE svg PUBLIC "-//W3C//DTD SVG 1.1//EN" "http://www.w3.org/Graphics/SVG/1.1/DTD/svg11.dtd">
<svg version="1.1" id="Layer_1" xmlns="http://www.w3.org/2000/svg" xmlns:xlink="http://www.w3.org/1999/xlink" x="0px" y="0px"
	 width="60px" height="60px" viewBox="0 0 60 60" enable-background="new 0 0 60 60" xml:space="preserve">
<path fill="#FFFFFF" d="M30.032,2.433C14.625,2.433,2.13,14.927,2.13,30.334c0,15.411,12.494,27.901,27.901,27.901
	c15.412,0,27.902-12.49,27.902-27.901C57.934,14.927,45.443,2.433,30.032,2.433z M43.754,42.73
	c-1.678,1.854-4.545,1.998-6.404,0.321c-1.855-1.682-1.998-4.549-0.32-6.404c1.572-1.734,2.438-3.982,2.438-6.325
	c0-5.202-4.232-9.434-9.435-9.434c-5.199,0-9.43,4.231-9.43,9.434c0,2.373,0.884,4.644,2.49,6.386
	c1.696,1.844,1.576,4.711-0.265,6.407c-0.873,0.802-1.972,1.198-3.071,1.198c-1.224,0-2.44-0.491-3.336-1.463
	c-3.151-3.423-4.885-7.873-4.885-12.528c0-10.2,8.296-18.501,18.498-18.501c10.201,0,18.501,8.301,18.501,18.501
	C48.533,34.917,46.838,39.326,43.754,42.73z"/>
</svg>
