<?xml version="1.0" encoding="utf-8"?>
<!-- Generator: Adobe Illustrator 16.0.4, SVG Export Plug-In . SVG Version: 6.00 Build 0)  -->
<!DOCTYPE svg PUBLIC "-//W3C//DTD SVG 1.1//EN" "http://www.w3.org/Graphics/SVG/1.1/DTD/svg11.dtd">
<svg version="1.1" id="Layer_1" xmlns="http://www.w3.org/2000/svg" xmlns:xlink="http://www.w3.org/1999/xlink" x="0px" y="0px"
	 width="180px" height="180px" viewBox="0 0 180 180" enable-background="new 0 0 180 180" xml:space="preserve">
<circle fill="#CEAE0F" cx="89.822" cy="90.109" r="88"/>
<circle fill="none" cx="89.822" cy="90.109" r="88"/>
<g>
	<g>
		<g>
			<g>
				<defs>
					<circle id="SVGID_1_" cx="89.822" cy="90.109" r="88"/>
				</defs>
				<clipPath id="SVGID_2_">
					<use xlink:href="#SVGID_1_"  overflow="visible"/>
				</clipPath>
				<g clip-path="url(#SVGID_2_)">
					<g opacity="0.12">
						<path d="M200.709,48.625H58.658c-5.604,0-10.146,4.543-10.146,10.146V200.82c0,5.604,4.543,10.146,10.146,10.146h142.051
							c5.604,0,10.146-4.543,10.146-10.146V58.772C210.855,53.169,206.312,48.625,200.709,48.625z M200.709,200.822H58.658V79.065
							h142.051V200.822z"/>
						<path d="M68.805,63.845c0,2.805-2.269,5.073-5.073,5.073s-5.073-2.268-5.073-5.073c0-2.804,2.269-5.073,5.073-5.073
							S68.805,61.041,68.805,63.845z"/>
						<path d="M84.024,63.845c0,2.805-2.269,5.073-5.073,5.073c-2.804,0-5.072-2.268-5.072-5.073c0-2.804,2.268-5.073,5.072-5.073
							C81.755,58.772,84.024,61.041,84.024,63.845z"/>
						<path d="M99.244,63.845c0,2.805-2.27,5.073-5.073,5.073c-2.803,0-5.074-2.268-5.074-5.073c0-2.804,2.271-5.073,5.074-5.073
							C96.977,58.772,99.244,61.041,99.244,63.845z"/>
						<rect x="58.658" y="79.065" width="142.051" height="121.757"/>
						<path d="M72.104,118.695c0-0.252,0.097-0.479,0.291-0.67l11.436-11.438L72.396,95.154c-0.194-0.193-0.291-0.416-0.291-0.668
							s0.097-0.479,0.291-0.67l1.454-1.455c0.194-0.193,0.418-0.291,0.669-0.291c0.253,0,0.477,0.098,0.671,0.291l13.56,13.561
							c0.193,0.193,0.291,0.416,0.291,0.668s-0.098,0.477-0.291,0.67L75.19,120.82c-0.194,0.193-0.418,0.291-0.671,0.291
							c-0.251,0-0.475-0.098-0.669-0.291l-1.454-1.457C72.201,119.171,72.104,118.947,72.104,118.695z M90.35,122.42v-1.861
							c0-0.271,0.086-0.496,0.261-0.67c0.175-0.176,0.396-0.263,0.668-0.263h27.935c0.271,0,0.495,0.087,0.671,0.263
							c0.174,0.174,0.262,0.397,0.262,0.67v1.861c0,0.271-0.088,0.494-0.262,0.668c-0.176,0.176-0.398,0.262-0.671,0.262H91.279
							c-0.271,0-0.494-0.086-0.67-0.262C90.436,122.914,90.35,122.691,90.35,122.42z"/>
					</g>
					<g>
						<g>
							<g>
								<path fill="#EAE8E4" d="M202.709,46.625H60.658c-5.604,0-10.146,4.543-10.146,10.146V198.82
									c0,5.604,4.543,10.146,10.146,10.146h142.051c5.604,0,10.146-4.543,10.146-10.146V56.772
									C212.855,51.169,208.312,46.625,202.709,46.625z M202.709,198.822H60.658V77.065h142.051V198.822z"/>
								<path fill="#D3D3D3" d="M70.805,61.845c0,2.805-2.269,5.073-5.073,5.073s-5.073-2.268-5.073-5.073
									c0-2.804,2.269-5.073,5.073-5.073S70.805,59.041,70.805,61.845z"/>
								<path fill="#D3D3D3" d="M86.024,61.845c0,2.805-2.269,5.073-5.073,5.073c-2.804,0-5.072-2.268-5.072-5.073
									c0-2.804,2.268-5.073,5.072-5.073C83.755,56.772,86.024,59.041,86.024,61.845z"/>
								<path fill="#D3D3D3" d="M101.244,61.845c0,2.805-2.27,5.073-5.073,5.073c-2.803,0-5.073-2.268-5.073-5.073
									c0-2.804,2.271-5.073,5.073-5.073C98.977,56.772,101.244,59.041,101.244,61.845z"/>
								<rect x="60.658" y="77.065" fill="#D3D3D3" width="142.051" height="121.757"/>
							</g>
							<g>
								<path fill="#D67525" d="M74.104,116.695c0-0.252,0.097-0.479,0.291-0.67l11.436-11.438L74.396,93.154
									c-0.194-0.193-0.291-0.416-0.291-0.668s0.097-0.479,0.291-0.67l1.454-1.458c0.194-0.193,0.418-0.291,0.669-0.291
									c0.253,0,0.477,0.097,0.671,0.291l13.56,13.561c0.193,0.193,0.291,0.416,0.291,0.668s-0.098,0.479-0.291,0.67L77.19,118.82
									c-0.194,0.193-0.418,0.291-0.671,0.291c-0.251,0-0.475-0.098-0.669-0.291l-1.454-1.457
									C74.201,117.171,74.104,116.947,74.104,116.695z M92.35,120.42v-1.861c0-0.271,0.086-0.496,0.262-0.67
									c0.177-0.176,0.396-0.263,0.669-0.263h27.936c0.271,0,0.495,0.087,0.671,0.263c0.176,0.174,0.264,0.397,0.264,0.67v1.861
									c0,0.271-0.088,0.494-0.264,0.668c-0.176,0.176-0.396,0.262-0.671,0.262H93.279c-0.271,0-0.494-0.086-0.67-0.262
									C92.436,120.914,92.35,120.691,92.35,120.42z"/>
							</g>
						</g>
					</g>
				</g>
			</g>
		</g>
	</g>
</g>
</svg>
