<?xml version="1.0" encoding="utf-8"?>
<!-- Generator: Adobe Illustrator 16.0.4, SVG Export Plug-In . SVG Version: 6.00 Build 0)  -->
<!DOCTYPE svg PUBLIC "-//W3C//DTD SVG 1.1//EN" "http://www.w3.org/Graphics/SVG/1.1/DTD/svg11.dtd">
<svg version="1.1" id="Layer_1" xmlns="http://www.w3.org/2000/svg" xmlns:xlink="http://www.w3.org/1999/xlink" x="0px" y="0px"
	 width="180px" height="180px" viewBox="0 0 180 180" enable-background="new 0 0 180 180" xml:space="preserve">
<circle fill="#D3D3D3" cx="89.822" cy="90.109" r="88"/>
<path opacity="0.7" fill="#FFFFFF" enable-background="new    " d="M63.188,55.222c-1.037,0-2.024,0.283-2.932,0.644
	c-2.037-2.297-5.002-3.713-8.313-3.713c-1.788,0-3.472,0.452-4.968,1.202c-2.559-2.581-6.104-4.327-10.025-4.327
	c-7.797,0-14.118,6.476-14.118,13.972h17.991h10.245h4.186h7.809h8.059C71.121,59.252,67.568,55.222,63.188,55.222z"/>
<path opacity="0.7" fill="#FFFFFF" enable-background="new    " d="M146.34,39.469c-0.604,0-1.179,0.165-1.707,0.375
	c-1.188-1.338-2.914-2.163-4.844-2.163c-1.041,0-2.021,0.264-2.895,0.7c-1.49-1.503-3.556-2.521-5.838-2.521
	c-4.543,0-8.226,3.772-8.226,8.139h10.479h5.969h2.438h4.549h4.694C150.962,41.817,148.893,39.469,146.34,39.469z"/>
<g>
	<g>
		<defs>
			<circle id="SVGID_1_" cx="89.822" cy="90.109" r="88"/>
		</defs>
		<clipPath id="SVGID_2_">
			<use xlink:href="#SVGID_1_"  overflow="visible"/>
		</clipPath>
		<g clip-path="url(#SVGID_2_)">
			<line fill="none" stroke="#808080" stroke-miterlimit="10" x1="96.5" y1="74" x2="96.5" y2="35"/>
			<polygon fill="#70633A" points="30.986,180 96.859,65.903 162.732,180 			"/>
			<polygon fill="#96814D" points="2.833,180 46.15,104.973 89.467,180 			"/>
			<polygon fill="#847345" points="90.166,180 133.482,104.973 176.801,180 			"/>
			<polygon fill="#FFFFFF" points="46.15,104.04 35.78,122 35.782,122 39.106,127.759 42.432,122 42.825,122 46.15,127.759 
				49.475,122 49.868,122 53.193,127.759 56.518,122 56.519,122 			"/>
			<polygon fill="#FFFFFF" points="133.426,104.164 123,122.186 123,122.216 126.383,127.867 129.766,122 130.158,122 
				133.482,127.759 136.809,122 137.201,122 140.525,127.759 143.852,122 143.854,122 			"/>
			<polygon fill="#FFFFFF" points="96.859,64.44 83.256,88 83.259,88 87.62,95.555 91.98,88 92.497,88 96.859,95.555 101.223,88 
				101.736,88 106.1,95.555 110.46,88 110.463,88 			"/>
			<polygon fill="#D67525" points="96,35.989 111.262,39.661 96,43.333 			"/>
			<polygon fill="#D67525" points="96,31.764 111.262,35.435 96,39.106 			"/>
		</g>
	</g>
</g>
</svg>
