<?xml version="1.0" encoding="utf-8"?>
<!-- Generator: Adobe Illustrator 16.0.4, SVG Export Plug-In . SVG Version: 6.00 Build 0)  -->
<!DOCTYPE svg PUBLIC "-//W3C//DTD SVG 1.1//EN" "http://www.w3.org/Graphics/SVG/1.1/DTD/svg11.dtd">
<svg version="1.1" id="Layer_1" xmlns="http://www.w3.org/2000/svg" xmlns:xlink="http://www.w3.org/1999/xlink" x="0px" y="0px"
	 width="180px" height="180px" viewBox="0 0 180 180" enable-background="new 0 0 180 180" xml:space="preserve">
<circle fill="#CEAE0F" cx="89.822" cy="90.109" r="88"/>
<circle fill="none" cx="89.822" cy="90.109" r="88"/>
<circle fill="none" cx="89.822" cy="90.109" r="88"/>
<circle fill="none" cx="89.822" cy="90.109" r="88"/>
<g>
	<path fill="#FFFFFF" d="M40.721,143.996c0,3.252,2.637,5.891,5.89,5.891h82.448c3.252,0,5.893-2.639,5.893-5.891V61.537
		c0-3.253-2.641-5.89-5.893-5.89H46.611c-3.253,0-5.89,2.637-5.89,5.89V143.996z"/>
	<g opacity="0.1">
		<path d="M129.059,141.052H46.611c-3.253,0-5.89-2.638-5.89-5.89v2.943c0,3.252,2.637,5.891,5.89,5.891h82.448
			c3.252,0,5.893-2.639,5.893-5.891v-2.943C134.949,138.414,132.311,141.052,129.059,141.052z"/>
		<path d="M129.059,146.939H46.611c-3.253,0-5.89-2.638-5.89-5.89v2.944c0,3.252,2.637,5.89,5.89,5.89h82.448
			c3.252,0,5.893-2.638,5.893-5.89v-2.944C134.949,144.305,132.311,146.939,129.059,146.939z"/>
	</g>
	<path fill="#394750" d="M40.721,111.602h23.557c3.252,0,5.89,2.64,5.89,5.892v23.562L40.721,111.602z"/>
	<path opacity="0.1" enable-background="new    " d="M46.616,141.052c-3.252,0-5.889-2.638-5.889-5.89v-23.561l29.446,29.448
		L46.616,141.052L46.616,141.052z"/>
	<polygon opacity="0.1" enable-background="new    " points="70.173,117.486 93.73,141.045 70.173,141.045 	"/>
</g>
<g>
	<g>
		<g>
			<defs>
				<circle id="SVGID_1_" cx="90" cy="89" r="88"/>
			</defs>
			<clipPath id="SVGID_2_">
				<use xlink:href="#SVGID_1_"  overflow="visible"/>
			</clipPath>
			<g clip-path="url(#SVGID_2_)">
				<polygon fill="#EAEAEA" points="88.013,102.341 114.785,91.371 93.592,73.952 				"/>
				<path fill="#EACA44" d="M162.068,33.844l2.488-3.027c0,0,4.985-5.969,4.438-11.572c-0.745-7.617-7.524-13.186-15.142-12.442
					c-5.559,0.544-10.494,6.594-10.494,6.594l-2.487,3.029L162.068,33.844z"/>
				<polygon fill="#D3D3D3" points="162.068,33.844 140.873,16.425 93.592,73.952 96.619,76.438 114.785,91.371 				"/>
				
					<rect x="150.746" y="9.903" transform="matrix(-0.635 0.7725 -0.7725 -0.635 267.9257 -79.3393)" fill="#434854" width="3.918" height="27.437"/>
				<polygon fill="#434854" points="90.16,91.423 88.013,102.341 98.311,98.121 				"/>
				
					<rect x="117.591" y="6.967" transform="matrix(0.7725 0.635 -0.635 0.7725 56.9475 -66.6557)" opacity="0.15" enable-background="new    " width="7.84" height="78.383"/>
				
					<rect x="132.724" y="19.414" transform="matrix(0.7726 0.6349 -0.6349 0.7726 68.2904 -73.4322)" opacity="0.2" fill="#FFFFFF" enable-background="new    " width="7.839" height="78.383"/>
				<polygon opacity="0.6" fill="#FFFFFF" enable-background="new    " points="98.311,98.121 88.013,102.341 114.785,91.371 
					108.73,86.392 95.982,96.207 				"/>
				<polygon opacity="0.1" enable-background="new    " points="90.16,91.423 92.486,93.332 99.648,78.928 93.592,73.952 
					88.013,102.341 				"/>
				<path opacity="0.15" enable-background="new    " d="M153.857,6.802c-5.561,0.544-10.496,6.594-10.496,6.594l0,0l6.058,4.979
					l9.177-11.166C157.082,6.827,155.498,6.641,153.857,6.802z"/>
				<path opacity="0.3" fill="#FFFFFF" enable-background="new    " d="M164.557,30.816c0,0,4.986-5.969,4.439-11.572
					c-0.164-1.643-0.648-3.161-1.318-4.569l-9.177,11.165L164.557,30.816L164.557,30.816z"/>
			</g>
		</g>
	</g>
</g>
</svg>
