<?xml version="1.0" encoding="utf-8"?>
<!-- Generator: Adobe Illustrator 16.0.4, SVG Export Plug-In . SVG Version: 6.00 Build 0)  -->
<!DOCTYPE svg PUBLIC "-//W3C//DTD SVG 1.1//EN" "http://www.w3.org/Graphics/SVG/1.1/DTD/svg11.dtd">
<svg version="1.1" id="Layer_1" xmlns="http://www.w3.org/2000/svg" xmlns:xlink="http://www.w3.org/1999/xlink" x="0px" y="0px"
	 width="180px" height="180px" viewBox="0 0 180 180" enable-background="new 0 0 180 180" xml:space="preserve">
<circle fill="#CEAE0F" cx="89.822" cy="90.109" r="88"/>
<circle fill="none" cx="89.822" cy="90.109" r="88"/>
<circle fill="none" cx="89.822" cy="90.109" r="88"/>
<circle fill="none" cx="89.822" cy="90.109" r="88"/>
<g>
	<g>
		<defs>
			<circle id="SVGID_1_" cx="89.822" cy="90.109" r="88"/>
		</defs>
		<clipPath id="SVGID_2_">
			<use xlink:href="#SVGID_1_"  overflow="visible"/>
		</clipPath>
		<g clip-path="url(#SVGID_2_)">
			<g>
				<path fill="#E6E6E6" d="M143.436,150.982v-4.479h-35.789v4.475c0.18,22.365-8.946,22.371-8.946,22.371
					c0,2.473,2,4.474,4.475,4.474h44.734c2.472,0,4.473-2.001,4.473-4.474C152.381,173.35,143.254,173.35,143.436,150.982z"/>
				<path fill="#434854" d="M197.116,128.614v-0.003V43.614c0-4.941-4.005-8.947-8.948-8.947H62.911
					c-4.94,0-8.947,4.005-8.947,8.947v84.997v0.004L197.116,128.614L197.116,128.614z"/>
				<rect x="62.911" y="43.614" opacity="0.1" fill="#FFFFFF" enable-background="new    " width="125.257" height="76.049"/>
				<path fill="#E6E6E6" d="M53.964,128.614v8.952c0,4.94,4.006,8.947,8.947,8.947h125.257c4.943,0,8.948-4.007,8.948-8.947v-8.952
					H53.964z"/>
				<path opacity="0.1" enable-background="new    " d="M103.174,177.823h44.734c2.472,0,4.473-2.001,4.473-4.474H98.699
					C98.699,175.822,100.699,177.823,103.174,177.823z"/>
				<path opacity="0.1" enable-background="new    " d="M130.016,137.562c0-2.474-2.002-4.475-4.476-4.475
					c-2.472,0-4.474,2.001-4.474,4.475s2.002,4.475,4.474,4.475C128.014,142.036,130.016,140.035,130.016,137.562z"/>
				<rect x="107.646" y="146.505" opacity="0.1" enable-background="new    " width="35.789" height="4.474"/>
			</g>
			<rect x="63" y="44" fill="#EAE8E4" width="125" height="76"/>
			<rect x="71.058" y="50.655" fill="#FFFFFF" width="108.522" height="8.681"/>
			<rect x="71.058" y="64.544" fill="#FFFFFF" width="108.522" height="44.276"/>
			<rect x="71.058" y="113.003" fill="#FFFFFF" width="75.531" height="5.633"/>
			<rect x="150.932" y="113.003" fill="#FFFFFF" width="28.648" height="5.633"/>
			<path opacity="0.1" fill="#FFFFFF" enable-background="new    " d="M188.17,34.667h-58.154l35.787,93.947h31.315v-0.003V43.614
				C197.118,38.672,193.111,34.667,188.17,34.667z"/>
			<g>
				<path fill="#EACA44" d="M137.318,86.681l-4.271-3.201l0.755-5.284l-5.281,0.755l-3.205-4.27l-3.199,4.27l-5.284-0.754
					l0.755,5.283l-4.27,3.202l4.27,3.202l-0.755,5.284l5.284-0.757l3.201,4.271l3.203-4.271l5.283,0.755l-0.757-5.282
					L137.318,86.681z M125.318,94.184c-4.143,0-7.5-3.357-7.5-7.5s3.357-7.5,7.5-7.5c4.142,0,7.5,3.357,7.5,7.5
					C132.818,90.825,129.46,94.184,125.318,94.184z"/>
				<circle fill="#EACA44" cx="125.318" cy="86.683" r="6"/>
				<path opacity="0.1" enable-background="new    " d="M125.318,90.433c-2.42,0-4.565-1.151-5.938-2.931
					c0.401,2.925,2.903,5.182,5.938,5.182c3.033,0,5.537-2.257,5.938-5.182C129.885,89.281,127.739,90.433,125.318,90.433z"/>
			</g>
		</g>
	</g>
</g>
</svg>
