<?xml version="1.0" encoding="utf-8"?>
<!-- Generator: Adobe Illustrator 16.0.4, SVG Export Plug-In . SVG Version: 6.00 Build 0)  -->
<!DOCTYPE svg PUBLIC "-//W3C//DTD SVG 1.1//EN" "http://www.w3.org/Graphics/SVG/1.1/DTD/svg11.dtd">
<svg version="1.1" id="Layer_1" xmlns="http://www.w3.org/2000/svg" xmlns:xlink="http://www.w3.org/1999/xlink" x="0px" y="0px"
	 width="100px" height="100px" viewBox="0 0 100 100" enable-background="new 0 0 100 100" xml:space="preserve">
<g>
	<g opacity="0.12">
		<path d="M85.13,9.461H9.409C6.421,9.461,4,11.883,4,14.87v75.722C4,93.58,6.421,96,9.409,96H85.13c2.988,0,5.408-2.42,5.408-5.408
			V14.87C90.538,11.883,88.118,9.461,85.13,9.461z M85.13,90.592H9.409V25.688H85.13V90.592z"/>
		<circle cx="12.114" cy="17.575" r="2.703"/>
		<circle cx="20.226" cy="17.575" r="2.703"/>
		<circle cx="28.338" cy="17.575" r="2.703"/>
		<rect x="9.409" y="25.688" width="75.721" height="64.904"/>
		<path d="M20.226,60.844H41.86c1.495,0,2.704-1.209,2.704-2.703V36.506c0-1.495-1.21-2.703-2.704-2.703H20.226
			c-1.495,0-2.704,1.21-2.704,2.703v21.634C17.521,59.634,18.731,60.844,20.226,60.844z"/>
		<path d="M52.678,39.21h21.635c1.494,0,2.704-1.209,2.704-2.704c0-1.493-1.21-2.703-2.704-2.703H52.678
			c-1.493,0-2.703,1.21-2.703,2.703C49.975,38,51.185,39.21,52.678,39.21z"/>
		<path d="M74.312,44.617H52.678c-1.493,0-2.703,1.209-2.703,2.703c0,1.493,1.21,2.704,2.703,2.704h21.635
			c1.494,0,2.704-1.21,2.704-2.704C77.017,45.826,75.807,44.617,74.312,44.617z"/>
		<path d="M74.312,55.436H52.678c-1.493,0-2.703,1.208-2.703,2.702c0,1.492,1.21,2.703,2.703,2.703h21.635
			c1.494,0,2.704-1.211,2.704-2.703C77.017,56.644,75.807,55.436,74.312,55.436z"/>
		<path d="M74.312,66.252H20.226c-1.495,0-2.704,1.209-2.704,2.703c0,1.492,1.21,2.702,2.704,2.702h54.086
			c1.494,0,2.704-1.21,2.704-2.702C77.017,67.461,75.807,66.252,74.312,66.252z"/>
		<path d="M74.312,77.069H20.226c-1.495,0-2.704,1.209-2.704,2.703c0,1.492,1.21,2.702,2.704,2.702h54.086
			c1.494,0,2.704-1.21,2.704-2.702C77.017,78.278,75.807,77.069,74.312,77.069z"/>
	</g>
	<g>
		<g>
			<path fill="#434854" d="M88.592,6H12.87c-2.987,0-5.409,2.421-5.409,5.409V87.13c0,2.988,2.421,5.408,5.409,5.408h75.722
				c2.988,0,5.408-2.42,5.408-5.408V11.409C94,8.421,91.58,6,88.592,6z M88.592,87.13H12.87V22.226h75.722V87.13z"/>
			<circle fill="#EF4D4D" cx="15.575" cy="14.114" r="2.704"/>
			<circle fill="#EACA44" cx="23.688" cy="14.114" r="2.704"/>
			<circle fill="#84BF56" cx="31.8" cy="14.114" r="2.704"/>
			<rect x="12.87" y="22.226" fill="#EAEAEA" width="75.722" height="64.904"/>
			<g opacity="0.1">
				<path d="M23.688,57.382h21.635c1.495,0,2.703-1.208,2.703-2.702V33.045c0-1.495-1.21-2.704-2.703-2.704H23.688
					c-1.495,0-2.704,1.21-2.704,2.704V54.68C20.982,56.172,22.192,57.382,23.688,57.382z"/>
				<path d="M56.14,35.749h21.635c1.494,0,2.704-1.209,2.704-2.704c0-1.493-1.21-2.704-2.704-2.704H56.14
					c-1.494,0-2.704,1.21-2.704,2.704C53.436,34.539,54.646,35.749,56.14,35.749z"/>
				<path d="M77.774,41.155H56.14c-1.494,0-2.704,1.209-2.704,2.704c0,1.493,1.21,2.704,2.704,2.704h21.635
					c1.494,0,2.704-1.21,2.704-2.704C80.479,42.365,79.269,41.155,77.774,41.155z"/>
				<path d="M77.774,51.974H56.14c-1.494,0-2.704,1.208-2.704,2.702c0,1.493,1.21,2.703,2.704,2.703h21.635
					c1.494,0,2.704-1.21,2.704-2.703C80.479,53.182,79.269,51.974,77.774,51.974z"/>
				<path d="M77.774,62.791H23.688c-1.495,0-2.704,1.208-2.704,2.702c0,1.493,1.21,2.703,2.704,2.703h54.087
					c1.494,0,2.704-1.21,2.704-2.703C80.479,63.999,79.269,62.791,77.774,62.791z"/>
				<path d="M77.774,73.608H23.688c-1.495,0-2.704,1.208-2.704,2.702c0,1.493,1.21,2.703,2.704,2.703h54.087
					c1.494,0,2.704-1.21,2.704-2.703C80.479,74.816,79.269,73.608,77.774,73.608z"/>
			</g>
		</g>
	</g>
</g>
</svg>
