<?xml version="1.0" encoding="utf-8"?>
<!-- Generator: Adobe Illustrator 16.0.4, SVG Export Plug-In . SVG Version: 6.00 Build 0)  -->
<!DOCTYPE svg PUBLIC "-//W3C//DTD SVG 1.1//EN" "http://www.w3.org/Graphics/SVG/1.1/DTD/svg11.dtd">
<svg version="1.1" id="Layer_1" xmlns="http://www.w3.org/2000/svg" xmlns:xlink="http://www.w3.org/1999/xlink" x="0px" y="0px"
	 width="100px" height="100px" viewBox="0 0 100 100" enable-background="new 0 0 100 100" xml:space="preserve">
<g>
	<g opacity="0.12">
		<path d="M71.607,90.592c0,2.988-2.42,5.408-5.408,5.408H28.338c-2.987,0-5.409-2.42-5.409-5.408V14.87
			c0-2.987,2.421-5.409,5.409-5.409h37.861c2.988,0,5.408,2.421,5.408,5.409V90.592z"/>
		<rect x="28.338" y="20.279" opacity="0.1" enable-background="new    " width="37.861" height="59.497"/>
		<circle opacity="0.1" enable-background="new    " cx="47.27" cy="87.887" r="5.409"/>
		<path opacity="0.1" enable-background="new    " d="M66.199,9.463h-32.45l37.86,62.201V14.872
			C71.607,11.886,69.188,9.463,66.199,9.463z"/>
	</g>
	<g>
		<g>
			<path fill="#434854" d="M75.07,87.13c0,2.988-2.422,5.408-5.409,5.408H31.8c-2.987,0-5.409-2.42-5.409-5.408V11.409
				C26.391,8.421,28.812,6,31.8,6h37.861c2.987,0,5.409,2.421,5.409,5.409V87.13L75.07,87.13z"/>
			<rect x="31.8" y="16.817" opacity="0.1" fill="#FFFFFF" enable-background="new    " width="37.861" height="59.496"/>
			<circle opacity="0.1" fill="#FFFFFF" enable-background="new    " cx="50.73" cy="84.425" r="5.409"/>
			<path opacity="0.1" fill="#FFFFFF" enable-background="new    " d="M69.661,6.001H37.21l37.86,62.202V11.41
				C75.07,8.425,72.648,6.001,69.661,6.001z"/>
		</g>
	</g>
</g>
</svg>
