<?xml version="1.0" encoding="utf-8"?>
<!-- Generator: Adobe Illustrator 16.0.4, SVG Export Plug-In . SVG Version: 6.00 Build 0)  -->
<!DOCTYPE svg PUBLIC "-//W3C//DTD SVG 1.1//EN" "http://www.w3.org/Graphics/SVG/1.1/DTD/svg11.dtd">
<svg version="1.1" id="Layer_1" xmlns="http://www.w3.org/2000/svg" xmlns:xlink="http://www.w3.org/1999/xlink" x="0px" y="0px"
	 width="180px" height="180px" viewBox="0 0 180 180" enable-background="new 0 0 180 180" xml:space="preserve">
<circle fill="#CEAE0F" cx="89.822" cy="90.109" r="88"/>
<circle fill="none" cx="89.822" cy="90.109" r="88"/>
<g>
	<g>
		<g>
			<g>
				<g>
					<defs>
						<circle id="SVGID_1_" cx="89.822" cy="90.109" r="88"/>
					</defs>
					<clipPath id="SVGID_2_">
						<use xlink:href="#SVGID_1_"  overflow="visible"/>
					</clipPath>
					<g clip-path="url(#SVGID_2_)">
						<g>
							<g opacity="0.12">
								<rect x="61.485" y="45.983" width="121.632" height="146.625"/>
								<rect x="101.475" y="57.646" width="43.32" height="39.989"/>
								<rect x="74.815" y="110.964" width="94.972" height="1.666"/>
								<path d="M169.787,172.613H74.815v-1.666h94.972V172.613z M169.787,160.949H74.815v-1.666h94.972V160.949z M169.787,149.286
									H74.815v-1.666h94.972V149.286z M169.787,135.957H74.815v-1.666h94.972V135.957z M169.787,124.293H74.815v-1.666h94.972
									V124.293z"/>
								<path d="M122.07,184.949"/>
								<path d="M127.049,83.227v-5.528h-11.061v5.528c-5.495,0-12.162,3.349-12.162,8.845c0,1.834,1.486,3.316,3.316,3.316h28.75
									c1.834,0,3.313-1.482,3.313-3.316C139.21,86.576,132.542,83.227,127.049,83.227z"/>
								<path d="M125.941,61.113h-8.847c-2.442,0-4.424,1.981-4.424,4.423v5.529c0,6.105,3.961,11.056,8.849,11.056
									c4.885,0,8.848-4.951,8.848-11.056v-5.529C130.365,63.094,128.384,61.113,125.941,61.113z"/>
								<path d="M123.729,60.007h-4.422c-4.423,0-7.738,3.318-7.738,7.741c0,2.886,0.74,4.222,3.313,5.135v-4.029
									c4.196,0,8.03-1.485,11.063-3.927c0.822,1.354,2.205,1.714,2.205,1.714v6.242c2.572-0.913,3.313-2.25,3.313-5.135
									C131.471,63.325,128.152,60.007,123.729,60.007z"/>
								<ellipse cx="130.363" cy="72.723" rx="1.104" ry="2.764"/>
								<ellipse cx="112.675" cy="72.723" rx="1.104" ry="2.764"/>
								<path opacity="0.1" enable-background="new    " d="M127.049,81.171v-1.483c-1.517,1.52-3.438,2.433-5.527,2.433
									c-2.094,0-4.016-0.913-5.526-2.433v1.483c1.583,1.298,3.481,2.056,5.526,2.056
									C123.562,83.227,125.464,82.469,127.049,81.171z"/>
								<path d="M127.049,83.227c0,2.442-2.477,4.423-5.527,4.423c-3.054,0-5.526-1.981-5.526-4.423
									c-5.497,0-12.163,3.349-12.163,8.845c0,1.834,1.482,3.316,3.314,3.316h28.748c1.834,0,3.315-1.482,3.315-3.316
									C139.21,86.576,132.542,83.227,127.049,83.227z"/>
							</g>
							<g>
								<g>
									<rect x="64.818" y="42.65" fill="#EAE8E4" width="121.631" height="146.625"/>
									<rect x="80.14" y="61.646" fill="#FFFFFF" width="43.32" height="39.988"/>
									<g>
										<path fill="#EDD87E" d="M107.331,87.169v-5.528h-11.06v5.528c-5.498,0-12.166,3.349-12.166,8.847
											c0,1.832,1.487,3.316,3.315,3.316h28.75c1.834,0,3.317-1.484,3.317-3.316C119.492,90.518,112.824,87.169,107.331,87.169z"
											/>
										<path fill="#EDD87E" d="M106.225,65.056h-8.848c-2.441,0-4.421,1.981-4.421,4.424v5.529c0,6.106,3.96,11.056,8.845,11.056
											s8.848-4.95,8.848-11.056V69.48C110.646,67.037,108.665,65.056,106.225,65.056z"/>
										<path fill="#434854" d="M104.012,63.948h-4.424c-4.423,0-7.738,3.318-7.738,7.741c0,2.886,0.74,4.223,3.314,5.135v-4.029
											c4.195,0,8.029-1.485,11.062-3.927c0.819,1.353,2.205,1.714,2.205,1.714v6.242c2.569-0.913,3.313-2.25,3.313-5.135
											C111.752,67.267,108.434,63.948,104.012,63.948z"/>
										<ellipse fill="#EDD87E" cx="110.645" cy="76.665" rx="1.106" ry="2.764"/>
										<path fill="#EDD87E" d="M92.957,73.901c0.607,0,1.104,1.237,1.104,2.764s-0.494,2.765-1.104,2.765
											c-0.611,0-1.105-1.238-1.105-2.765C91.85,75.139,92.346,73.901,92.957,73.901z"/>
										<path opacity="0.1" enable-background="new    " d="M107.331,85.113V83.63c-1.517,1.52-3.437,2.433-5.528,2.433
											c-2.091,0-4.016-0.913-5.529-2.433v1.483c1.584,1.297,3.484,2.056,5.529,2.056
											C103.846,87.169,105.746,86.41,107.331,85.113z"/>
										<path fill="#CEAE0F" d="M107.331,87.169c0,2.442-2.478,4.422-5.528,4.422c-3.053,0-5.529-1.98-5.529-4.422
											c-5.496,0-12.163,3.349-12.163,8.847c0,1.832,1.485,3.316,3.317,3.316h28.748c1.834,0,3.316-1.484,3.316-3.316
											C119.492,90.518,112.824,87.169,107.331,87.169z"/>
									</g>
									<path fill="#FFFFFF" d="M123.46,156.91H80.14v-3.725h43.32V156.91z M123.46,149.465H80.14v-3.722h43.32V149.465z
										 M123.46,142.02H80.14v-3.722h43.32V142.02z M123.46,134.575H80.14v-3.724h43.32V134.575z M123.46,127.131H80.14v-3.723
										h43.32V127.131z M123.46,119.686H80.14v-3.723h43.32V119.686z"/>
									<path fill="#FFFFFF" d="M177.822,156.91h-43.32v-3.725h43.32V156.91L177.822,156.91z M177.822,149.465h-43.32v-3.722h43.32
										V149.465L177.822,149.465z M177.822,142.02h-43.32v-3.722h43.32V142.02L177.822,142.02z M177.822,134.575h-43.32v-3.724
										h43.32V134.575L177.822,134.575z M177.822,127.131h-43.32v-3.723h43.32V127.131L177.822,127.131z M177.822,119.686h-43.32
										v-3.723h43.32V119.686L177.822,119.686z"/>
									<path fill="#FFFFFF" d="M177.822,102.115h-43.32v-3.725h43.32V102.115L177.822,102.115z M177.822,94.67h-43.32v-3.722
										h43.32V94.67L177.822,94.67z M177.822,87.225h-43.32v-3.722h43.32V87.225L177.822,87.225z M177.822,79.78h-43.32v-3.724
										h43.32V79.78L177.822,79.78z M177.822,72.336h-43.32v-3.723h43.32V72.336L177.822,72.336z M177.822,64.891h-43.32v-3.723
										h43.32V64.891L177.822,64.891z"/>
								</g>
							</g>
						</g>
					</g>
				</g>
			</g>
		</g>
	</g>
</g>
</svg>
