<?xml version="1.0" encoding="utf-8"?>
<!-- Generator: Adobe Illustrator 16.0.4, SVG Export Plug-In . SVG Version: 6.00 Build 0)  -->
<!DOCTYPE svg PUBLIC "-//W3C//DTD SVG 1.1//EN" "http://www.w3.org/Graphics/SVG/1.1/DTD/svg11.dtd">
<svg version="1.1" id="Layer_1" xmlns="http://www.w3.org/2000/svg" xmlns:xlink="http://www.w3.org/1999/xlink" x="0px" y="0px"
	 width="100px" height="100px" viewBox="0 0 100 100" enable-background="new 0 0 100 100" xml:space="preserve">
<g>
	<g opacity="0.12">
		<path d="M47.27,9.461c-16.431,0-29.749,13.318-29.749,29.749c0,10.817,8.114,21.634,16.226,32.451c5.409,0,21.636,0,27.044,0
			c8.113-10.817,16.226-21.634,16.226-32.451C77.017,22.779,63.698,9.461,47.27,9.461z"/>
		<path opacity="0.4" enable-background="new    " d="M47.27,14.87c-1.495,0-2.704,1.21-2.704,2.704s1.208,2.705,2.704,2.705
			c10.455,0,18.93,8.474,18.93,18.931c0,1.495,1.211,2.704,2.705,2.704s2.704-1.21,2.704-2.704
			C71.608,25.767,60.713,14.87,47.27,14.87z"/>
		<path opacity="0.2" enable-background="new    " d="M60.788,44.617c-0.004-2.984-2.424-5.404-5.409-5.404
			c-1.622,0-3.062,0.729-4.053,1.859c-0.993-1.133-2.433-1.863-4.057-1.863c-1.627,0-3.065,0.732-4.059,1.868
			c-0.99-1.132-2.43-1.863-4.053-1.863c-2.984,0-5.407,2.42-5.409,5.404l0,0v0.001v0.002l0,0c0.002,2.986,2.425,5.403,5.409,5.403
			c0.99,0,1.907-0.286,2.704-0.751v22.387h2.704V44.617c0-1.495,1.21-2.704,2.703-2.704c1.488,0,2.692,1.201,2.702,2.688
			c0,0.009-0.002,0.014-0.002,0.021h0.005v27.039h2.704V49.276c0.798,0.466,1.712,0.751,2.702,0.751
			C58.367,50.027,60.788,47.606,60.788,44.617L60.788,44.617L60.788,44.617z M39.156,47.317c-1.495,0-2.702-1.21-2.704-2.702
			c0.001-1.492,1.21-2.702,2.704-2.702c1.493,0,2.702,1.21,2.703,2.702C41.859,46.107,40.65,47.317,39.156,47.317z M55.383,47.317
			c-1.491,0-2.703-1.21-2.703-2.703c0-0.005-0.003-0.009-0.003-0.015c0.013-1.486,1.215-2.686,2.702-2.686
			c1.494,0,2.704,1.21,2.704,2.704h0.006C58.082,46.11,56.875,47.317,55.383,47.317z"/>
		<path d="M60.791,77.069c0,1.491-1.21,2.703-2.704,2.703H36.452c-1.495,0-2.704-1.21-2.704-2.703l0,0
			c0-1.494,1.21-2.704,2.704-2.704h21.635C59.581,74.365,60.791,75.575,60.791,77.069L60.791,77.069z"/>
		<path d="M60.791,82.479c0,1.494-1.21,2.704-2.704,2.704H36.452c-1.495,0-2.704-1.21-2.704-2.704l0,0
			c0-1.491,1.21-2.703,2.704-2.703h21.635C59.581,79.774,60.791,80.984,60.791,82.479L60.791,82.479z"/>
		<path d="M60.791,87.887c0,1.491-1.21,2.703-2.704,2.703H36.452c-1.495,0-2.704-1.21-2.704-2.703l0,0
			c0-1.494,1.21-2.704,2.704-2.704h21.635C59.581,85.183,60.791,86.393,60.791,87.887L60.791,87.887z"/>
		<path d="M36.452,79.774h21.635c1.494,0,2.704-1.211,2.704-2.705H33.749C33.749,78.563,34.957,79.774,36.452,79.774z"/>
		<path d="M36.452,85.183h21.635c1.494,0,2.704-1.21,2.704-2.704H33.749C33.749,83.973,34.957,85.183,36.452,85.183z"/>
		<path d="M36.452,90.592h21.635c1.494,0,2.704-1.211,2.704-2.705H33.749C33.749,89.381,34.957,90.592,36.452,90.592z"/>
		<path opacity="0.1" enable-background="new    " d="M47.27,66.252c-9.211,0-17.562-3.572-23.833-9.37
			c2.928,4.926,6.615,9.848,10.311,14.779c6.718,0,20.323,0,27.044,0c3.694-4.932,7.381-9.854,10.311-14.779
			C64.831,62.68,56.481,66.252,47.27,66.252z"/>
		<path d="M39.654,90.592C40.772,93.731,43.744,96,47.27,96c3.525,0,6.497-2.269,7.616-5.408H39.654z"/>
	</g>
	<g>
		<g>
			<path fill="#EACF60" d="M50.73,6C34.3,6,20.982,19.318,20.982,35.749c0,10.817,8.114,21.633,16.226,32.451
				c5.409,0,21.635,0,27.044,0c8.112-10.817,16.226-21.633,16.226-32.451C80.479,19.318,67.16,6,50.73,6z"/>
			<path opacity="0.4" fill="#FFFFFF" enable-background="new    " d="M50.73,11.409c-1.495,0-2.703,1.21-2.703,2.704
				c0,1.493,1.208,2.705,2.703,2.705c10.456,0,18.931,8.474,18.931,18.931c0,1.495,1.21,2.704,2.704,2.704s2.705-1.21,2.705-2.704
				C75.07,22.305,64.175,11.409,50.73,11.409z"/>
			<path opacity="0.2" enable-background="new    " d="M64.249,41.155c-0.003-2.984-2.424-5.403-5.408-5.403
				c-1.623,0-3.062,0.729-4.054,1.859c-0.993-1.132-2.434-1.862-4.057-1.862c-1.626,0-3.065,0.732-4.059,1.868
				c-0.99-1.132-2.43-1.863-4.053-1.863c-2.984,0-5.407,2.419-5.409,5.404l0,0v0.001v0.002l0,0c0.002,2.985,2.425,5.403,5.409,5.403
				c0.99,0,1.908-0.286,2.704-0.751v22.386h2.704V41.155c0-1.495,1.21-2.703,2.704-2.703c1.489,0,2.692,1.201,2.702,2.688
				c0,0.008-0.003,0.014-0.003,0.021h0.007v27.039h2.704V45.814c0.798,0.466,1.71,0.751,2.704,0.751
				C61.829,46.566,64.249,44.145,64.249,41.155L64.249,41.155L64.249,41.155z M42.617,43.855c-1.495,0-2.702-1.21-2.704-2.702
				c0.002-1.492,1.21-2.702,2.704-2.702s2.702,1.21,2.704,2.702C45.321,42.646,44.112,43.855,42.617,43.855z M58.844,43.855
				c-1.49,0-2.702-1.21-2.702-2.704c0-0.005-0.004-0.008-0.004-0.014c0.014-1.486,1.216-2.686,2.703-2.686
				c1.494,0,2.704,1.21,2.704,2.703h0.005C61.543,42.649,60.336,43.855,58.844,43.855z"/>
			<path fill="#E6E6E6" d="M64.253,73.608c0,1.49-1.211,2.702-2.705,2.702H39.914c-1.495,0-2.704-1.21-2.704-2.702l0,0
				c0-1.494,1.21-2.704,2.704-2.704h21.634C63.042,70.904,64.253,72.114,64.253,73.608L64.253,73.608z"/>
			<path fill="#E6E6E6" d="M64.253,79.017c0,1.494-1.211,2.704-2.705,2.704H39.914c-1.495,0-2.704-1.21-2.704-2.704l0,0
				c0-1.49,1.21-2.702,2.704-2.702h21.634C63.042,76.312,64.253,77.522,64.253,79.017L64.253,79.017z"/>
			<path fill="#E6E6E6" d="M64.253,84.426c0,1.49-1.211,2.702-2.705,2.702H39.914c-1.495,0-2.704-1.21-2.704-2.702l0,0
				c0-1.494,1.21-2.705,2.704-2.705h21.634C63.042,81.721,64.253,82.932,64.253,84.426L64.253,84.426z"/>
			<g opacity="0.1">
				<path d="M39.914,76.312h21.634c1.494,0,2.705-1.21,2.705-2.704H37.21C37.21,75.103,38.418,76.312,39.914,76.312z"/>
				<path d="M39.914,81.721h21.634c1.494,0,2.705-1.21,2.705-2.704H37.21C37.21,80.511,38.418,81.721,39.914,81.721z"/>
				<path d="M39.914,87.13h21.634c1.494,0,2.705-1.21,2.705-2.704H37.21C37.21,85.92,38.418,87.13,39.914,87.13z"/>
			</g>
			<path opacity="0.1" enable-background="new    " d="M50.73,62.791c-9.21,0-17.562-3.573-23.832-9.371
				c2.928,4.926,6.614,9.848,10.31,14.779c6.719,0,20.324,0,27.044,0c3.694-4.932,7.381-9.854,10.31-14.779
				C68.292,59.218,59.942,62.791,50.73,62.791z"/>
			<path fill="#E6E6E6" d="M43.116,87.13c1.118,3.141,4.089,5.408,7.615,5.408c3.526,0,6.498-2.268,7.616-5.408H43.116z"/>
		</g>
	</g>
</g>
</svg>
