<?xml version="1.0" encoding="utf-8"?>
<!-- Generator: Adobe Illustrator 16.0.4, SVG Export Plug-In . SVG Version: 6.00 Build 0)  -->
<!DOCTYPE svg PUBLIC "-//W3C//DTD SVG 1.1//EN" "http://www.w3.org/Graphics/SVG/1.1/DTD/svg11.dtd">
<svg version="1.1" id="Layer_1" xmlns="http://www.w3.org/2000/svg" xmlns:xlink="http://www.w3.org/1999/xlink" x="0px" y="0px"
	 width="180px" height="180px" viewBox="0 0 180 180" enable-background="new 0 0 180 180" xml:space="preserve">
<circle fill="#FFFFFF" cx="89.822" cy="90.109" r="88"/>
<circle fill="none" cx="89.822" cy="90.109" r="88"/>
<circle fill="none" cx="89.822" cy="90.109" r="88"/>
<g>
	<g>
		<g>
			<g>
				<g>
					<defs>
						<circle id="SVGID_1_" cx="89.822" cy="90.109" r="88"/>
					</defs>
					<clipPath id="SVGID_2_">
						<use xlink:href="#SVGID_1_"  overflow="visible"/>
					</clipPath>
					<g clip-path="url(#SVGID_2_)">
						<path fill="#434854" d="M162.705,85.281c3.551,2.823,8.5,3.938,14.877,3.938c-3.896-1.687-6.396-4.797-6.396-9.594
							c0,0,0-12.792,0-25.583c0-12.792-3.195-28.781-22.386-22.386c-28.78-11.192-41.571,9.594-41.571,22.386s0,25.583,0,25.583
							c0,4.797-2.498,7.907-6.396,9.594c6.377,0,11.326-1.115,14.877-3.938c-1.315,3.279-3.556,5.641-5.283,7.135
							c6.396,0,13.892-3.247,15.989-12.791V54.042h25.583v25.583c2.101,9.544,9.594,12.791,15.987,12.791
							C166.259,90.922,164.021,88.56,162.705,85.281z"/>
						<path fill="#EDD87E" d="M155.197,95.615v-15.99h-31.979v15.99c-15.896,0-35.177,9.688-35.177,25.582
							c0,5.301,4.294,9.594,9.594,9.594h83.146c5.3,0,9.594-4.293,9.594-9.594C190.374,105.303,171.093,95.615,155.197,95.615z"/>
						<path fill="#EDD87E" d="M151.999,31.657h-25.583c-7.064,0-12.792,5.728-12.792,12.792v15.989
							c0,17.66,11.455,31.978,25.583,31.978c14.129,0,25.584-14.318,25.584-31.978V44.449
							C164.791,37.384,159.062,31.657,151.999,31.657z"/>
						<path opacity="0.1" enable-background="new    " d="M155.197,89.669v-4.291c-4.383,4.397-9.938,7.038-15.99,7.038
							c-6.055,0-11.607-2.641-15.989-7.038v4.291c4.578,3.751,10.075,5.946,15.989,5.946
							C145.122,95.615,150.619,93.42,155.197,89.669z"/>
						<path fill="#434854" d="M148.801,31.645c-0.3-0.116-1.23-0.825-2.148-1.137c-26.17-8.473-39.401,11.114-39.401,26.114
							c2.067,0.381,4.194,0.606,6.377,0.606c11.233,0,21.224-5.29,27.66-13.491c-0.003,2.683-1.177,6.193-5.271,10.293
							c9.594-3.198,12.789-6.396,15.364-12.695c4.578,6.967,11.576,12.183,19.787,14.519
							C171.165,41.419,167.311,25.474,148.801,31.645z"/>
						<path fill="#CEAE0F" d="M155.197,95.615c0,7.064-7.158,12.791-15.99,12.791c-8.831,0-15.989-5.727-15.989-12.791
							c-15.896,0-35.177,9.688-35.177,25.582c0,5.301,4.294,9.594,9.594,9.594h83.146c5.3,0,9.594-4.293,9.594-9.594
							C190.374,105.303,171.093,95.615,155.197,95.615z"/>
						<g opacity="0.15">
							<path d="M139.207,108.406v22.385h3.197v-22.645C141.372,108.316,140.305,108.406,139.207,108.406z"/>
							<circle cx="132.812" cy="114.802" r="3.198"/>
							<circle cx="132.812" cy="124.396" r="3.198"/>
						</g>
						<path fill="#434854" d="M148.801,31.645c-0.3-0.116-1.23-0.825-2.148-1.137c-26.17-8.473-39.401,11.114-39.401,26.114
							c2.067,0.381,4.194,0.606,6.377,0.606c11.233,0,21.224-5.29,27.66-13.491c-0.003,2.683-1.177,6.193-5.271,10.293
							c9.594-3.198,12.789-6.396,15.364-12.695c4.578,6.967,11.576,12.183,19.787,14.519
							C171.165,41.419,167.311,25.474,148.801,31.645z"/>
					</g>
				</g>
			</g>
		</g>
	</g>
	<g>
		<g>
			<g>
				<g>
					<defs>
						<circle id="SVGID_3_" cx="89.822" cy="90.109" r="88"/>
					</defs>
					<clipPath id="SVGID_4_">
						<use xlink:href="#SVGID_3_"  overflow="visible"/>
					</clipPath>
					<g clip-path="url(#SVGID_4_)">
						<g>
							<g opacity="0.12">
								<rect x="-15.416" y="65.878" width="121.63" height="146.625"/>
							</g>
							<g>
								<rect x="-17.416" y="63.878" fill="#EAE8E4" width="121.63" height="146.625"/>
							</g>
						</g>
						<rect x="70.605" y="76.875" fill="#FFFFFF" width="19.545" height="18.042"/>
						<path fill="#FFFFFF" d="M59.264,95.008H-7.582v-3.723h66.846V95.008L59.264,95.008z M59.264,87.564H-7.582v-3.723h66.846
							V87.564L59.264,87.564z M59.264,80.12H-7.582v-3.723h66.846V80.12L59.264,80.12z"/>
						<g>
							<path fill="#CEAE0F" d="M75.741,85.991c0-0.179,0.062-0.331,0.188-0.456l0.91-0.911c0.125-0.125,0.277-0.188,0.456-0.188
								c0.178,0,0.33,0.062,0.455,0.188l1.969,1.976l4.393-4.4c0.125-0.125,0.277-0.188,0.455-0.188
								c0.179,0,0.331,0.063,0.456,0.188l0.91,0.911c0.125,0.125,0.188,0.277,0.188,0.455c0,0.179-0.062,0.331-0.188,0.456
								l-4.848,4.848l-0.911,0.911c-0.125,0.125-0.276,0.188-0.455,0.188c-0.179,0-0.331-0.062-0.455-0.188l-0.911-0.911
								l-2.424-2.424C75.804,86.321,75.741,86.17,75.741,85.991z"/>
						</g>
						<rect x="70.605" y="105.396" fill="#FFFFFF" width="19.545" height="18.039"/>
						<path fill="#FFFFFF" d="M59.264,123.527H-7.582v-3.723h66.846V123.527L59.264,123.527z M59.264,116.084H-7.582v-3.723h66.846
							V116.084L59.264,116.084z M59.264,108.639H-7.582v-3.722h66.846V108.639L59.264,108.639z"/>
						<g>
							<path fill="#CEAE0F" d="M75.741,114.512c0-0.18,0.062-0.332,0.188-0.457l0.91-0.91c0.125-0.125,0.277-0.188,0.456-0.188
								c0.178,0,0.33,0.062,0.455,0.188l1.969,1.979l4.393-4.397c0.125-0.125,0.277-0.188,0.455-0.188
								c0.179,0,0.331,0.062,0.456,0.188l0.91,0.907c0.125,0.125,0.188,0.277,0.188,0.455c0,0.183-0.062,0.332-0.188,0.457
								l-4.848,4.851l-0.911,0.907c-0.125,0.125-0.276,0.188-0.455,0.188c-0.179,0-0.331-0.062-0.455-0.188l-0.911-0.907
								l-2.424-2.427C75.804,114.842,75.741,114.689,75.741,114.512z"/>
						</g>
						<rect x="70.605" y="134.364" fill="#FFFFFF" width="19.545" height="18.04"/>
						<path fill="#FFFFFF" d="M59.264,152.497H-7.582v-3.724h66.846V152.497L59.264,152.497z M59.264,145.055H-7.582v-3.724h66.846
							V145.055L59.264,145.055z M59.264,137.607H-7.582v-3.726h66.846V137.607L59.264,137.607z"/>
						<g>
							<path fill="#CEAE0F" d="M75.741,143.48c0-0.183,0.062-0.332,0.188-0.457l0.91-0.909c0.125-0.125,0.277-0.188,0.456-0.188
								c0.178,0,0.33,0.062,0.455,0.188l1.969,1.976l4.393-4.398c0.125-0.125,0.277-0.188,0.455-0.188
								c0.179,0,0.331,0.062,0.456,0.188l0.91,0.91c0.125,0.125,0.188,0.276,0.188,0.455c0,0.18-0.062,0.33-0.188,0.455l-4.848,4.85
								l-0.911,0.91c-0.125,0.125-0.276,0.188-0.455,0.188c-0.179,0-0.331-0.062-0.455-0.188l-0.911-0.91l-2.424-2.426
								C75.804,143.811,75.741,143.659,75.741,143.48z"/>
						</g>
						<rect x="70.605" y="162.884" fill="#FFFFFF" width="19.545" height="18.041"/>
						<path fill="#FFFFFF" d="M59.264,181.018H-7.582v-3.724h66.846V181.018L59.264,181.018z M59.264,173.573H-7.582v-3.724h66.846
							V173.573L59.264,173.573z M59.264,166.128H-7.582v-3.724h66.846V166.128L59.264,166.128z"/>
						<g>
							<path fill="#CEAE0F" d="M75.741,172c0-0.18,0.062-0.331,0.188-0.456l0.91-0.91c0.125-0.125,0.277-0.188,0.456-0.188
								c0.178,0,0.33,0.062,0.455,0.188l1.969,1.976l4.393-4.396c0.125-0.125,0.277-0.188,0.455-0.188
								c0.179,0,0.331,0.062,0.456,0.188l0.91,0.91c0.125,0.125,0.188,0.274,0.188,0.455c0,0.18-0.062,0.331-0.188,0.456
								l-4.848,4.849l-0.911,0.91c-0.125,0.125-0.276,0.188-0.455,0.188c-0.179,0-0.331-0.062-0.455-0.188l-0.911-0.91l-2.424-2.425
								C75.804,172.33,75.741,172.18,75.741,172z"/>
						</g>
					</g>
				</g>
			</g>
		</g>
	</g>
</g>
</svg>
