<?xml version="1.0" encoding="utf-8"?>
<!-- Generator: Adobe Illustrator 16.0.4, SVG Export Plug-In . SVG Version: 6.00 Build 0)  -->
<!DOCTYPE svg PUBLIC "-//W3C//DTD SVG 1.1//EN" "http://www.w3.org/Graphics/SVG/1.1/DTD/svg11.dtd">
<svg version="1.1" id="Layer_1" xmlns="http://www.w3.org/2000/svg" xmlns:xlink="http://www.w3.org/1999/xlink" x="0px" y="0px"
	 width="180px" height="180px" viewBox="0 0 180 180" enable-background="new 0 0 180 180" xml:space="preserve">
<circle fill="#FFFFFF" cx="89.822" cy="90.109" r="88"/>
<circle fill="none" cx="89.822" cy="90.109" r="88"/>
<g>
	<g>
		<defs>
			<circle id="SVGID_1_" cx="89.822" cy="90.109" r="88"/>
		</defs>
		<clipPath id="SVGID_2_">
			<use xlink:href="#SVGID_1_"  overflow="visible"/>
		</clipPath>
		<g clip-path="url(#SVGID_2_)">
			<path fill="#D3D3D3" d="M85.953,92.109c-0.737,0.353-1.549,0.565-2.42,0.565c-3.117,0-5.646-2.53-5.646-5.647
				c0-3.117,2.529-5.646,5.646-5.646c3.118,0,5.646,2.529,5.646,5.646c0,0.871-0.213,1.684-0.565,2.418l42.008,42.008
				c-0.007-1.206-0.327-2.79-0.976-4.899l-21.646-71.523c-1.116-3.706-4.411-7.529-7.526-7.529H72.299L44.007,75.794v28.174
				c0,3.117,3.999,6.294,7.528,7.528l71.523,21.646c2.121,0.646,3.703,0.959,4.891,0.963L85.953,92.109z"/>
			<polygon opacity="0.1" enable-background="new    " points="79.445,47.502 72.299,47.502 44.007,75.794 44.007,82.94 			"/>
			<path fill="#469FCC" d="M76.784,37.694l-5.323-5.323c-1.471-1.474-3.853-1.478-5.323-0.003l-2.662,2.662L43.724,15.278
				c-2.206-2.206-5.783-2.202-7.983,0L11.782,39.235c-2.206,2.202-2.206,5.779,0,7.984L31.533,66.97l-2.661,2.662
				c-1.471,1.471-1.471,3.853,0.003,5.323l5.323,5.324c1.47,1.47,3.853,1.47,5.323,0l37.262-37.262
				C78.258,41.544,78.254,39.166,76.784,37.694z"/>
			
				<rect x="43.281" y="26.66" transform="matrix(0.7075 0.7068 -0.7068 0.7075 48.1919 -17.9303)" opacity="0.1" enable-background="new    " width="4.947" height="45.176"/>
		</g>
	</g>
</g>
</svg>
