<?xml version="1.0" encoding="utf-8"?>
<!-- Generator: Adobe Illustrator 16.0.4, SVG Export Plug-In . SVG Version: 6.00 Build 0)  -->
<!DOCTYPE svg PUBLIC "-//W3C//DTD SVG 1.1//EN" "http://www.w3.org/Graphics/SVG/1.1/DTD/svg11.dtd">
<svg version="1.1" id="Layer_1" xmlns="http://www.w3.org/2000/svg" xmlns:xlink="http://www.w3.org/1999/xlink" x="0px" y="0px"
	 width="180px" height="180px" viewBox="0 0 180 180" enable-background="new 0 0 180 180" xml:space="preserve">
<circle fill="#CEAE0F" cx="89.822" cy="90.109" r="88"/>
<circle fill="none" cx="89.822" cy="90.109" r="88"/>
<rect x="-7" y="40" fill="none" width="242" height="140"/>
<circle fill="none" cx="89.822" cy="90.109" r="88"/>
<circle fill="none" cx="89.822" cy="90.109" r="88"/>
<g>
	<g>
		<g>
			<g>
				<g>
					<g>
						<defs>
							<circle id="SVGID_1_" cx="89.822" cy="90.109" r="88"/>
						</defs>
						<clipPath id="SVGID_2_">
							<use xlink:href="#SVGID_1_"  overflow="visible"/>
						</clipPath>
						<g clip-path="url(#SVGID_2_)">
							<g opacity="0.12">
								<rect x="4.618" y="44.241" width="108.149" height="135.187"/>
								<path d="M117.273,182.434H1.614V39.735h115.659V182.434L117.273,182.434z M9.125,174.923h100.641V47.246H9.125V174.923z"/>
								<rect x="8.814" y="46.993" width="100.883" height="8.071"/>
								<rect x="8.814" y="59.906" width="100.883" height="41.16"/>
								<rect x="8.814" y="105.909" width="70.215" height="7.264"/>
								<rect x="83.064" y="105.909" width="26.633" height="49.231"/>
								<rect x="8.814" y="117.208" width="70.215" height="37.933"/>
								<rect x="8.814" y="159.176" width="100.883" height="16.141"/>
								<path d="M47.149,89.768h24.212c0.447,0,0.807-0.361,0.807-0.807V72.012c0-0.446-0.36-0.807-0.807-0.807H47.149
									c-0.446,0-0.807,0.361-0.807,0.807V88.96C46.342,89.407,46.703,89.768,47.149,89.768z M47.957,88.154v-1.258L56,79.582
									l4.299,4.299c0.165,0.166,0.392,0.25,0.627,0.235c0.233-0.018,0.449-0.134,0.588-0.32l1.892-2.522l7.146,6.433v0.448
									L47.957,88.154L47.957,88.154z M70.555,72.819v12.715l-6.724-6.052c-0.167-0.151-0.391-0.226-0.619-0.203
									c-0.225,0.021-0.431,0.138-0.566,0.32l-1.864,2.484l-4.185-4.186c-0.304-0.304-0.793-0.317-1.113-0.026l-7.528,6.844V72.819
									H70.555z"/>
								<path d="M66.923,79.276c1.558,0,2.825-1.267,2.825-2.825c0-1.558-1.267-2.825-2.825-2.825c-1.558,0-2.825,1.267-2.825,2.825
									C64.098,78.009,65.365,79.276,66.923,79.276z M66.923,75.241c0.667,0,1.21,0.543,1.21,1.21s-0.543,1.21-1.21,1.21
									s-1.211-0.543-1.211-1.21S66.255,75.241,66.923,75.241z"/>
								<path d="M33.429,145.455h24.212c0.446,0,0.807-0.359,0.807-0.807V127.7c0-0.446-0.361-0.808-0.807-0.808H33.429
									c-0.445,0-0.807,0.358-0.807,0.808v16.948C32.623,145.096,32.984,145.455,33.429,145.455z M34.236,143.841v-1.258
									l8.044-7.313l4.299,4.299c0.166,0.166,0.392,0.25,0.627,0.234c0.233-0.018,0.449-0.134,0.588-0.32l1.892-2.521l7.147,6.433
									v0.447L34.236,143.841L34.236,143.841z M56.834,128.507v12.716l-6.724-6.052c-0.168-0.151-0.392-0.228-0.619-0.203
									c-0.225,0.021-0.431,0.138-0.566,0.319l-1.864,2.482l-4.185-4.187c-0.304-0.306-0.793-0.315-1.113-0.024l-7.528,6.844
									v-11.896L56.834,128.507L56.834,128.507z"/>
								<path d="M53.203,134.964c1.558,0,2.825-1.269,2.825-2.825c0-1.556-1.267-2.824-2.825-2.824c-1.558,0-2.825,1.27-2.825,2.824
									C50.378,133.695,51.645,134.964,53.203,134.964z M53.203,130.928c0.667,0,1.21,0.543,1.21,1.211s-0.543,1.211-1.21,1.211
									s-1.21-0.543-1.21-1.211S52.535,130.928,53.203,130.928z"/>
								<rect x="6.232" y="42.627" width="108.15" height="135.188"/>
								<path d="M118.889,180.818H3.228V38.121h115.661V180.818L118.889,180.818z M10.739,173.309h100.64V45.632H10.739V173.309z"/>
								<rect x="10.428" y="45.379" width="100.883" height="8.071"/>
								<rect x="10.428" y="58.292" width="100.883" height="41.16"/>
								<rect x="10.428" y="104.295" width="70.215" height="7.264"/>
								<rect x="84.678" y="104.295" width="26.633" height="49.23"/>
								<rect x="10.428" y="115.594" width="70.215" height="37.934"/>
								<rect x="10.428" y="157.562" width="100.883" height="16.142"/>
								<path d="M73.783,78.872l-4.594-3.445L70,69.74l-5.684,0.812l-3.447-4.594l-3.446,4.594l-5.686-0.812l0.812,5.685
									l-4.594,3.446l4.594,3.446l-0.812,5.686l5.686-0.813l3.446,4.595l3.446-4.595l5.686,0.812l-0.812-5.684L73.783,78.872z
									 M60.87,86.943c-4.457,0-8.071-3.613-8.071-8.07s3.614-8.071,8.071-8.071s8.071,3.613,8.071,8.071
									S65.326,86.943,60.87,86.943z"/>
								<circle cx="60.87" cy="78.873" r="6.457"/>
								<path opacity="0.1" enable-background="new    " d="M60.87,82.908c-2.604,0-4.913-1.239-6.39-3.154
									c0.431,3.148,3.125,5.576,6.39,5.576c3.266,0,5.958-2.428,6.39-5.576C65.783,81.668,63.474,82.908,60.87,82.908z"/>
								<path d="M55.22,134.561l-3.447-2.584l0.609-4.266l-4.263,0.609l-2.585-3.445l-2.583,3.445l-4.264-0.607l0.609,4.264
									l-3.446,2.584l3.445,2.584l-0.609,4.266l4.263-0.608l2.585,3.446l2.584-3.446l4.264,0.608l-0.609-4.266L55.22,134.561z
									 M45.536,140.611c-3.343,0-6.053-2.709-6.053-6.053c0-3.345,2.71-6.055,6.053-6.055c3.343,0,6.053,2.71,6.053,6.055
									C51.588,137.902,48.878,140.611,45.536,140.611z"/>
								<circle cx="45.536" cy="134.56" r="4.842"/>
								<path opacity="0.1" enable-background="new    " d="M45.536,137.587c-1.953,0-3.685-0.929-4.792-2.366
									c0.323,2.361,2.343,4.182,4.792,4.182c2.449,0,4.469-1.817,4.792-4.182C49.22,136.658,47.488,137.587,45.536,137.587z"/>
							</g>
							<g>
								<g>
									<g opacity="0.12">
										<rect x="3.003" y="42.627" width="108.149" height="135.188"/>
										<path d="M115.66,180.818H0V38.121h115.66V180.818L115.66,180.818z M7.51,173.309H108.15V45.632H7.51V173.309z"/>
										<rect x="7.2" y="45.379" width="100.883" height="8.071"/>
										<rect x="7.2" y="58.292" width="100.883" height="41.16"/>
										<rect x="7.2" y="104.295" width="70.215" height="7.264"/>
										<rect x="81.45" y="104.295" width="26.633" height="49.23"/>
										<rect x="7.2" y="115.594" width="70.215" height="37.934"/>
										<rect x="7.2" y="157.562" width="100.883" height="16.142"/>
										<path d="M45.536,88.154h24.212c0.446,0,0.807-0.361,0.807-0.807V70.398c0-0.446-0.361-0.807-0.807-0.807H45.536
											c-0.447,0-0.807,0.361-0.807,0.807v16.949C44.729,87.792,45.089,88.154,45.536,88.154z M46.342,86.54v-1.258l8.044-7.314
											l4.299,4.298c0.166,0.166,0.392,0.25,0.627,0.235c0.233-0.018,0.449-0.134,0.588-0.32l1.892-2.522l7.147,6.433v0.448
											H46.342L46.342,86.54z M68.94,71.205V83.92l-6.724-6.051c-0.168-0.152-0.392-0.226-0.619-0.204
											c-0.225,0.021-0.431,0.138-0.566,0.32l-1.864,2.484l-4.185-4.185c-0.304-0.304-0.793-0.317-1.114-0.027l-7.528,6.844
											V71.205H68.94z"/>
										<path d="M65.309,77.662c1.558,0,2.825-1.267,2.825-2.825s-1.267-2.825-2.825-2.825s-2.825,1.267-2.825,2.825
											S63.751,77.662,65.309,77.662z M65.309,73.626c0.667,0,1.21,0.543,1.21,1.21s-0.543,1.21-1.21,1.21s-1.21-0.543-1.21-1.21
											S64.641,73.626,65.309,73.626z"/>
										<path d="M31.815,143.841h24.212c0.446,0,0.807-0.36,0.807-0.807v-16.948c0-0.445-0.361-0.809-0.807-0.809H31.815
											c-0.445,0-0.807,0.361-0.807,0.809v16.948C31.008,143.48,31.37,143.841,31.815,143.841z M32.623,142.229v-1.26
											l8.043-7.312l4.299,4.299c0.166,0.165,0.392,0.25,0.627,0.233c0.233-0.02,0.449-0.135,0.588-0.319l1.892-2.521
											l7.146,6.434v0.447H32.623V142.229z M55.22,126.893v12.717l-6.724-6.053c-0.168-0.15-0.392-0.227-0.619-0.203
											c-0.225,0.021-0.431,0.141-0.566,0.319l-1.864,2.483l-4.185-4.187c-0.304-0.306-0.793-0.315-1.114-0.024l-7.528,6.844
											v-11.896H55.22z"/>
										<path d="M51.588,133.35c1.558,0,2.825-1.268,2.825-2.824c0-1.558-1.267-2.822-2.825-2.822
											c-1.558,0-2.825,1.267-2.825,2.822C48.763,132.082,50.031,133.35,51.588,133.35z M51.588,129.314
											c0.667,0,1.21,0.543,1.21,1.209c0,0.668-0.543,1.211-1.21,1.211s-1.21-0.543-1.21-1.211
											C50.378,129.857,50.921,129.314,51.588,129.314z"/>
									</g>
									<g>
										<g>
											<rect x="4.618" y="41.013" fill="#EAE8E4" width="108.149" height="135.187"/>
											<path fill="#EAE8E4" d="M117.273,179.205H1.614V36.507h115.659V179.205L117.273,179.205z M9.125,171.693h100.641V44.018
												H9.125V171.693z"/>
											<rect x="8.814" y="43.765" fill="#FFFFFF" width="100.883" height="8.07"/>
											<rect x="8.814" y="56.678" fill="#FFFFFF" width="100.883" height="41.161"/>
											<rect x="8.814" y="102.682" fill="#FFFFFF" width="70.215" height="7.264"/>
											<rect x="83.064" y="102.682" fill="#FFFFFF" width="26.633" height="49.23"/>
											<rect x="8.814" y="113.979" fill="#FFFFFF" width="70.215" height="37.936"/>
											<rect x="8.814" y="155.947" fill="#FFFFFF" width="100.883" height="16.142"/>
											<g>
												<path fill="#EACA44" d="M72.168,77.257l-4.594-3.445l0.812-5.686l-5.684,0.812l-3.447-4.594l-3.445,4.594l-5.686-0.812
													l0.812,5.685l-4.594,3.446l4.594,3.446l-0.812,5.686l5.686-0.813l3.446,4.595l3.446-4.595l5.686,0.812l-0.813-5.684
													L72.168,77.257z M59.255,85.329c-4.457,0-8.07-3.613-8.07-8.071s3.614-8.071,8.07-8.071
													c4.457,0,8.071,3.613,8.071,8.071S63.712,85.329,59.255,85.329z"/>
												<circle fill="#EACA44" cx="59.255" cy="77.258" r="6.457"/>
												<path opacity="0.1" enable-background="new    " d="M59.255,81.293c-2.604,0-4.913-1.24-6.389-3.154
													c0.431,3.148,3.124,5.576,6.389,5.576c3.266,0,5.958-2.428,6.39-5.576C64.169,80.054,61.86,81.293,59.255,81.293z"/>
											</g>
											<g>
												<path fill="#EACA44" d="M53.606,132.945l-3.447-2.584l0.609-4.266l-4.263,0.608l-2.585-3.446l-2.583,3.446l-4.264-0.606
													l0.609,4.264l-3.446,2.584l3.446,2.585l-0.609,4.263l4.263-0.607l2.585,3.445l2.584-3.445l4.263,0.607l-0.609-4.263
													L53.606,132.945z M43.921,138.998c-3.343,0-6.053-2.709-6.053-6.053s2.71-6.053,6.053-6.053
													c3.343,0,6.053,2.709,6.053,6.053S47.264,138.998,43.921,138.998z"/>
												<circle fill="#EACA44" cx="43.921" cy="132.946" r="4.842"/>
												<path opacity="0.1" enable-background="new    " d="M43.921,135.973c-1.953,0-3.685-0.929-4.792-2.365
													c0.323,2.36,2.343,4.183,4.792,4.183c2.449,0,4.469-1.817,4.792-4.183C47.606,135.044,45.875,135.973,43.921,135.973z"
													/>
											</g>
										</g>
									</g>
								</g>
							</g>
						</g>
					</g>
				</g>
			</g>
		</g>
	</g>
</g>
</svg>
