<?xml version="1.0" encoding="utf-8"?>
<!-- Generator: Adobe Illustrator 16.0.4, SVG Export Plug-In . SVG Version: 6.00 Build 0)  -->
<!DOCTYPE svg PUBLIC "-//W3C//DTD SVG 1.1//EN" "http://www.w3.org/Graphics/SVG/1.1/DTD/svg11.dtd">
<svg version="1.1" id="Layer_1" xmlns="http://www.w3.org/2000/svg" xmlns:xlink="http://www.w3.org/1999/xlink" x="0px" y="0px"
	 width="100px" height="100px" viewBox="0 0 100 100" enable-background="new 0 0 100 100" xml:space="preserve">
<g>
	<g opacity="0.12">
		<path d="M90.538,90.592c0,2.988-2.417,5.408-5.408,5.408H9.409C6.425,96,4,93.58,4,90.592V14.87c0-2.987,2.425-5.409,5.409-5.409
			H85.13c2.991,0,5.408,2.421,5.408,5.409V90.592z"/>
		<path d="M85.13,87.887c0,1.493-1.21,2.703-2.704,2.703H12.114c-1.495,0-2.704-1.21-2.704-2.703V17.575
			c0-1.495,1.21-2.703,2.704-2.703h70.312c1.494,0,2.704,1.21,2.704,2.703V87.887z"/>
		<path opacity="0.15" enable-background="new    " d="M82.426,90.592H12.114c-1.495,0-2.704-1.211-2.704-2.705v2.705
			c0,1.494,1.21,2.704,2.704,2.704h70.312c1.494,0,2.704-1.21,2.704-2.704v-2.705C85.13,89.381,83.92,90.592,82.426,90.592z"/>
		<path d="M9.409,52.73L4,77.068c0,1.494,1.21,2.703,2.704,2.703h81.13c1.492,0,2.703-1.209,2.703-2.703L85.13,52.73H9.409z"/>
		<path opacity="0.1" enable-background="new    " d="M87.834,79.773H6.704c-1.045,0-1.923-0.611-2.376-1.478L4,79.773
			c0,1.494,1.21,2.705,2.704,2.705h81.13c1.492,0,2.703-1.211,2.703-2.705l-0.326-1.478C89.764,79.162,88.881,79.773,87.834,79.773z
			"/>
		<path d="M79.721,47.322c-1.494,0-2.703,1.21-2.703,2.703v5.411c0,1.491,1.209,2.701,2.703,2.701s2.705-1.21,2.705-2.701v-5.411
			C82.426,48.532,81.215,47.322,79.721,47.322z"/>
		<path d="M14.817,47.322c-1.495,0-2.704,1.21-2.704,2.703v5.411c0,1.491,1.21,2.701,2.704,2.701c1.494,0,2.704-1.21,2.704-2.701
			v-5.411C17.521,48.532,16.312,47.322,14.817,47.322z"/>
		<path d="M41.86,60.844V36.505c0-0.167-0.064-0.312-0.095-0.473c-0.027-0.15-0.01-0.301-0.069-0.452
			c-0.005-0.02-0.025-0.035-0.03-0.055c-0.081-0.201-0.211-0.367-0.333-0.543c-0.08-0.114-0.138-0.246-0.232-0.347
			c-0.126-0.129-0.285-0.214-0.438-0.318c-0.137-0.095-0.253-0.207-0.407-0.273c-0.137-0.061-0.292-0.074-0.438-0.111
			c-0.195-0.051-0.385-0.112-0.591-0.118c-0.021,0-0.042-0.014-0.069-0.014c-0.17,0-0.312,0.066-0.474,0.096
			c-0.149,0.027-0.301,0.015-0.451,0.069l-7.954,2.912c-1.405,0.509-1.981,2.371-1.47,3.773c0.507,1.405,2.382,1.572,3.787,1.061
			l3.856-1.343v20.474c-1.495,0-2.704,1.21-2.704,2.704s1.21,2.704,2.704,2.704h5.408c1.495,0,2.704-1.21,2.704-2.704
			S43.355,60.844,41.86,60.844z"/>
		<path d="M68.904,36.505c0-1.496-1.211-2.704-2.705-2.704H52.68c-1.492,0-2.704,1.21-2.704,2.704s1.209,2.704,2.704,2.704h9.365
			L50.269,62.318c-0.682,1.334-0.147,2.961,1.184,3.644c1.33,0.677,2.958,0.146,3.636-1.185l13.505-26.505
			c0.233-0.457,0.28-0.943,0.243-1.421C68.854,36.731,68.904,36.625,68.904,36.505z"/>
		<path d="M79.721,58.141c-1.494,0-2.703-1.211-2.703-2.705v2.705c0,1.493,1.209,2.703,2.703,2.703s2.705-1.21,2.705-2.703v-2.705
			C82.426,56.93,81.215,58.141,79.721,58.141z"/>
		<path d="M14.817,58.141c-1.495,0-2.704-1.211-2.704-2.705v2.705c0,1.493,1.21,2.703,2.704,2.703c1.494,0,2.704-1.21,2.704-2.703
			v-2.705C17.521,56.93,16.312,58.141,14.817,58.141z"/>
	</g>
	<g>
		<g>
			<path fill="#EF4D4D" d="M94,87.13c0,2.988-2.417,5.408-5.408,5.408H12.87c-2.984,0-5.409-2.42-5.409-5.408V11.409
				C7.461,8.421,9.886,6,12.87,6h75.722C91.583,6,94,8.421,94,11.409V87.13z"/>
			<path fill="#EAEAEA" d="M88.592,84.426c0,1.492-1.211,2.702-2.705,2.702H15.575c-1.495,0-2.703-1.21-2.703-2.702V14.114
				c0-1.495,1.21-2.704,2.703-2.704h70.312c1.494,0,2.705,1.21,2.705,2.704V84.426L88.592,84.426z"/>
			<path opacity="0.15" enable-background="new    " d="M85.887,87.13H15.575c-1.495,0-2.703-1.21-2.703-2.704v2.704
				c0,1.494,1.21,2.704,2.703,2.704h70.312c1.494,0,2.705-1.21,2.705-2.704v-2.704C88.592,85.92,87.381,87.13,85.887,87.13z"/>
			<path fill="#FFFFFF" d="M12.87,49.269L7.461,73.607c0,1.492,1.21,2.703,2.704,2.703h81.131c1.492,0,2.702-1.211,2.702-2.703
				l-5.406-24.338H12.87z"/>
			<path opacity="0.1" enable-background="new    " d="M91.296,76.312H10.165c-1.045,0-1.923-0.612-2.376-1.479l-0.327,1.479
				c0,1.494,1.21,2.703,2.704,2.703h81.131c1.492,0,2.702-1.209,2.702-2.703l-0.326-1.479C93.225,75.7,92.342,76.312,91.296,76.312z
				"/>
			<g>
				<path fill="#3AAD73" d="M83.184,43.86c-1.494,0-2.705,1.21-2.705,2.704v5.411c0,1.491,1.211,2.701,2.705,2.701
					c1.493,0,2.703-1.21,2.703-2.701v-5.411C85.887,45.071,84.677,43.86,83.184,43.86z"/>
				<path fill="#3AAD73" d="M18.279,43.86c-1.495,0-2.704,1.21-2.704,2.704v5.411c0,1.491,1.21,2.701,2.704,2.701
					c1.494,0,2.704-1.21,2.704-2.701v-5.411C20.982,45.071,19.774,43.86,18.279,43.86z"/>
			</g>
			<g>
				<path fill="#434854" d="M45.322,57.382V33.043c0-0.167-0.064-0.312-0.096-0.473c-0.027-0.15-0.01-0.301-0.069-0.452
					c-0.005-0.02-0.025-0.035-0.03-0.055c-0.081-0.201-0.211-0.367-0.333-0.543c-0.08-0.114-0.138-0.246-0.231-0.347
					c-0.127-0.129-0.286-0.214-0.438-0.318c-0.137-0.095-0.252-0.207-0.406-0.273c-0.137-0.061-0.292-0.075-0.439-0.111
					c-0.195-0.051-0.385-0.112-0.591-0.118c-0.021,0-0.042-0.014-0.069-0.014c-0.17,0-0.312,0.066-0.474,0.095
					c-0.149,0.027-0.301,0.016-0.45,0.069l-7.954,2.913c-1.406,0.509-1.982,2.371-1.47,3.773c0.507,1.405,2.381,1.572,3.787,1.061
					l3.856-1.343v20.474c-1.495,0-2.704,1.211-2.704,2.705s1.21,2.704,2.704,2.704h5.409c1.495,0,2.703-1.21,2.703-2.704
					S46.817,57.382,45.322,57.382z"/>
				<path fill="#434854" d="M72.365,33.043c0-1.496-1.211-2.704-2.704-2.704H56.141c-1.492,0-2.701,1.21-2.701,2.704
					c0,1.493,1.209,2.703,2.701,2.703h9.366L53.729,58.857c-0.682,1.334-0.146,2.961,1.186,3.643
					c1.33,0.676,2.958,0.146,3.636-1.186L72.055,34.81c0.233-0.458,0.28-0.943,0.243-1.421
					C72.314,33.27,72.365,33.164,72.365,33.043z"/>
			</g>
			<g opacity="0.2">
				<path d="M83.184,54.678c-1.494,0-2.705-1.21-2.705-2.703v2.703c0,1.494,1.211,2.704,2.705,2.704c1.493,0,2.703-1.21,2.703-2.704
					v-2.703C85.887,53.468,84.677,54.678,83.184,54.678z"/>
				<path d="M18.279,54.678c-1.495,0-2.704-1.21-2.704-2.703v2.703c0,1.494,1.21,2.704,2.704,2.704c1.494,0,2.704-1.21,2.704-2.704
					v-2.703C20.982,53.468,19.774,54.678,18.279,54.678z"/>
			</g>
		</g>
	</g>
</g>
</svg>
