<?xml version="1.0" encoding="utf-8"?>
<!-- Generator: Adobe Illustrator 16.0.4, SVG Export Plug-In . SVG Version: 6.00 Build 0)  -->
<!DOCTYPE svg PUBLIC "-//W3C//DTD SVG 1.1//EN" "http://www.w3.org/Graphics/SVG/1.1/DTD/svg11.dtd">
<svg version="1.1" id="Layer_1" xmlns="http://www.w3.org/2000/svg" xmlns:xlink="http://www.w3.org/1999/xlink" x="0px" y="0px"
	 width="100px" height="100px" viewBox="0 0 100 100" enable-background="new 0 0 100 100" xml:space="preserve">
<g>
	<g opacity="0.12">
		<path d="M85.131,74.366L85.131,74.366V28.393c0-2.988-2.421-5.409-5.408-5.409H14.817c-2.987,0-5.409,2.421-5.409,5.409v45.974
			l0,0L85.131,74.366L85.131,74.366z"/>
		<rect x="14.817" y="28.393" opacity="0.1" enable-background="new    " width="64.906" height="40.564"/>
		<path d="M4,74.366v5.407c0,1.496,1.21,2.705,2.704,2.705h81.132c1.493,0,2.703-1.209,2.703-2.705v-5.407H4z"/>
		<path opacity="0.1" enable-background="new    " d="M44.566,77.07h5.409c1.496,0,2.705-1.209,2.705-2.704H41.861
			C41.861,75.861,43.071,77.07,44.566,77.07z"/>
		<path opacity="0.1" enable-background="new    " d="M79.723,22.982H47.27l24.339,51.384H85.13v-0.002V28.393
			C85.131,25.403,82.71,22.982,79.723,22.982z"/>
	</g>
	<g>
		<g>
			<path fill="#434854" d="M88.593,70.904L88.593,70.904V24.931c0-2.987-2.421-5.409-5.409-5.409H18.279
				c-2.988,0-5.409,2.421-5.409,5.409v45.974l0,0L88.593,70.904L88.593,70.904z"/>
			<rect x="18.279" y="24.931" opacity="0.1" fill="#FFFFFF" enable-background="new    " width="64.905" height="40.565"/>
			<path fill="#E6E6E6" d="M7.461,70.904v5.408c0,1.496,1.21,2.705,2.704,2.705h81.132c1.492,0,2.703-1.209,2.703-2.705v-5.408
				H7.461z"/>
			<path opacity="0.1" enable-background="new    " d="M48.028,73.607h5.408c1.496,0,2.705-1.209,2.705-2.703H45.322
				C45.322,72.4,46.533,73.607,48.028,73.607z"/>
			<path opacity="0.1" fill="#FFFFFF" enable-background="new    " d="M83.184,19.521H50.73l24.34,51.383h13.521v-0.002V24.931
				C88.593,21.941,86.172,19.521,83.184,19.521z"/>
		</g>
	</g>
</g>
</svg>
