<?xml version="1.0" encoding="utf-8"?>
<!-- Generator: Adobe Illustrator 16.0.4, SVG Export Plug-In . SVG Version: 6.00 Build 0)  -->
<!DOCTYPE svg PUBLIC "-//W3C//DTD SVG 1.1//EN" "http://www.w3.org/Graphics/SVG/1.1/DTD/svg11.dtd">
<svg version="1.1" id="Layer_1" xmlns="http://www.w3.org/2000/svg" xmlns:xlink="http://www.w3.org/1999/xlink" x="0px" y="0px"
	 width="260px" height="140px" viewBox="0 0 260 140" enable-background="new 0 0 260 140" xml:space="preserve">
<g>
	<g>
		<path fill="#929497" d="M132.359,39.849h3.293l1.647,6.419c0.211,0.759,0.399,1.496,0.56,2.206
			c0.162,0.711,0.35,1.446,0.561,2.207h0.085c0.196-0.761,0.38-1.496,0.548-2.207c0.17-0.71,0.353-1.446,0.551-2.206l1.625-6.419
			h3.168l-4.14,13.77h-3.737L132.359,39.849z"/>
		<path fill="#929497" d="M144.292,48.38c0-0.873,0.14-1.651,0.421-2.335c0.282-0.683,0.658-1.257,1.131-1.721
			c0.471-0.464,1.018-0.819,1.635-1.066c0.619-0.245,1.263-0.369,1.922-0.369c0.662,0,1.3,0.124,1.912,0.369
			c0.61,0.247,1.154,0.603,1.625,1.066c0.472,0.464,0.85,1.039,1.131,1.721c0.281,0.684,0.423,1.462,0.423,2.335
			c0,0.872-0.142,1.649-0.423,2.332c-0.281,0.685-0.659,1.257-1.131,1.722c-0.471,0.466-1.015,0.82-1.625,1.066
			c-0.612,0.247-1.25,0.371-1.912,0.371c-0.659,0-1.303-0.124-1.922-0.371c-0.617-0.246-1.164-0.601-1.635-1.066
			c-0.473-0.464-0.849-1.037-1.131-1.722C144.432,50.029,144.292,49.252,144.292,48.38z M147.479,48.38
			c0,0.915,0.16,1.64,0.478,2.176c0.315,0.534,0.797,0.802,1.444,0.802c0.634,0,1.111-0.268,1.436-0.802
			c0.326-0.536,0.484-1.261,0.484-2.176c0-0.917-0.158-1.641-0.484-2.175c-0.322-0.536-0.802-0.803-1.436-0.803
			c-0.647,0-1.129,0.268-1.444,0.803C147.639,46.739,147.479,47.463,147.479,48.38z"/>
		<path fill="#929497" d="M156.727,45.57h-1.435V43.27l1.604-0.128l0.359-2.785h2.576v2.785h2.513v2.43h-2.513v4.203
			c0,0.592,0.123,1.018,0.369,1.278c0.246,0.262,0.572,0.392,0.982,0.392c0.168,0,0.342-0.022,0.517-0.063
			c0.177-0.043,0.336-0.092,0.477-0.147l0.485,2.259c-0.281,0.085-0.612,0.17-0.992,0.253c-0.381,0.085-0.824,0.128-1.332,0.128
			c-0.646,0-1.199-0.1-1.656-0.296c-0.459-0.196-0.832-0.471-1.119-0.823c-0.289-0.353-0.5-0.778-0.634-1.278
			c-0.135-0.5-0.202-1.053-0.202-1.657V45.57L156.727,45.57z"/>
		<path fill="#929497" d="M165.716,41.602c-0.522,0-0.952-0.152-1.288-0.455c-0.337-0.302-0.508-0.692-0.508-1.171
			s0.171-0.866,0.508-1.16c0.336-0.297,0.766-0.444,1.288-0.444c0.534,0,0.97,0.146,1.3,0.444c0.332,0.294,0.495,0.682,0.495,1.16
			s-0.163,0.869-0.495,1.171C166.686,41.449,166.25,41.602,165.716,41.602z M164.175,43.141h3.104v10.478h-3.104V43.141z"/>
		<path fill="#929497" d="M169.717,43.141h2.535l0.209,1.331h0.084c0.452-0.423,0.945-0.792,1.48-1.108
			c0.533-0.316,1.16-0.476,1.878-0.476c1.14,0,1.969,0.374,2.481,1.12c0.516,0.746,0.771,1.78,0.771,3.105v6.505h-3.104v-6.104
			c0-0.762-0.102-1.28-0.306-1.562s-0.531-0.422-0.981-0.422c-0.396,0-0.732,0.087-1.015,0.264c-0.281,0.176-0.59,0.425-0.929,0.75
			v7.075h-3.104L169.717,43.141L169.717,43.141z"/>
		<path fill="#929497" d="M180.791,55.41c0-0.843,0.5-1.547,1.5-2.11v-0.084c-0.281-0.183-0.516-0.416-0.696-0.697
			c-0.183-0.279-0.274-0.639-0.274-1.075c0-0.381,0.111-0.743,0.339-1.089c0.226-0.346,0.507-0.638,0.844-0.875v-0.085
			c-0.367-0.254-0.694-0.614-0.981-1.088c-0.289-0.471-0.433-1.018-0.433-1.637c0-0.634,0.118-1.187,0.356-1.658
			c0.242-0.472,0.562-0.866,0.964-1.183c0.399-0.316,0.862-0.552,1.382-0.708c0.521-0.155,1.062-0.232,1.626-0.232
			c0.622,0,1.162,0.085,1.627,0.253h3.822v2.261h-1.668c0.099,0.155,0.178,0.352,0.241,0.592c0.064,0.239,0.099,0.499,0.099,0.782
			c0,0.604-0.106,1.13-0.319,1.571c-0.211,0.444-0.504,0.812-0.876,1.1c-0.373,0.289-0.811,0.503-1.311,0.645
			c-0.5,0.141-1.037,0.21-1.615,0.21c-0.407,0-0.83-0.07-1.267-0.21c-0.142,0.113-0.239,0.224-0.295,0.337
			c-0.058,0.112-0.086,0.262-0.086,0.444c0,0.267,0.115,0.464,0.349,0.591c0.233,0.126,0.646,0.191,1.235,0.191h1.689
			c1.293,0,2.285,0.207,2.967,0.622c0.684,0.415,1.025,1.095,1.025,2.037c0,0.549-0.139,1.054-0.413,1.51
			c-0.274,0.457-0.664,0.852-1.171,1.183c-0.508,0.33-1.12,0.591-1.838,0.782c-0.717,0.19-1.528,0.284-2.43,0.284
			c-0.619,0-1.191-0.052-1.722-0.158c-0.526-0.104-0.992-0.263-1.394-0.476c-0.399-0.211-0.715-0.486-0.939-0.823
			C180.904,56.277,180.791,55.875,180.791,55.41z M183.346,54.925c0,0.396,0.213,0.694,0.635,0.898s0.986,0.306,1.69,0.306
			c0.703,0,1.282-0.123,1.731-0.369c0.447-0.248,0.674-0.553,0.674-0.92c0-0.323-0.135-0.54-0.411-0.652
			c-0.274-0.113-0.673-0.17-1.192-0.17h-1.076c-0.366,0-0.662-0.011-0.888-0.032c-0.226-0.021-0.423-0.053-0.592-0.094
			C183.539,54.229,183.346,54.574,183.346,54.925z M185.416,48.42c0.408,0,0.749-0.142,1.023-0.43
			c0.275-0.29,0.412-0.73,0.412-1.321c0-0.549-0.137-0.969-0.412-1.257c-0.274-0.288-0.615-0.434-1.023-0.434
			c-0.407,0-0.75,0.142-1.023,0.423c-0.274,0.281-0.412,0.704-0.412,1.268c0,0.591,0.138,1.031,0.412,1.321
			C184.666,48.278,185.009,48.42,185.416,48.42z"/>
		<path fill="#929497" d="M134.133,59.724h3.105v13.769h-3.105V59.724z"/>
		<path fill="#929497" d="M139.938,63.018h2.532l0.212,1.33h0.082c0.452-0.422,0.944-0.792,1.48-1.108
			c0.533-0.315,1.16-0.476,1.878-0.476c1.142,0,1.969,0.373,2.483,1.12c0.512,0.746,0.77,1.78,0.77,3.104v6.504h-3.104v-6.104
			c0-0.761-0.103-1.279-0.309-1.562c-0.203-0.282-0.529-0.423-0.98-0.423c-0.395,0-0.731,0.087-1.014,0.263
			c-0.281,0.177-0.591,0.427-0.93,0.751v7.074h-3.104V63.018H139.938z"/>
		<path fill="#929497" d="M157.596,61.096c-0.395-0.142-0.752-0.213-1.078-0.213c-0.379,0-0.673,0.117-0.885,0.351
			c-0.213,0.232-0.318,0.615-0.318,1.15v0.634h1.881v2.429h-1.881v8.047h-3.104v-8.047h-1.395v-2.302l1.395-0.104v-0.57
			c0-0.55,0.066-1.07,0.199-1.562c0.135-0.496,0.355-0.923,0.666-1.289c0.31-0.367,0.711-0.655,1.203-0.867
			c0.494-0.211,1.092-0.316,1.796-0.316c0.436,0,0.834,0.042,1.192,0.126c0.358,0.085,0.659,0.171,0.896,0.254L157.596,61.096z"/>
		<path fill="#929497" d="M157.977,68.255c0-0.872,0.141-1.649,0.422-2.333s0.658-1.256,1.129-1.723
			c0.474-0.465,1.019-0.819,1.639-1.065c0.618-0.246,1.258-0.37,1.921-0.37c0.661,0,1.299,0.124,1.912,0.37
			c0.61,0.246,1.153,0.602,1.625,1.065c0.471,0.467,0.849,1.039,1.13,1.723c0.282,0.684,0.424,1.461,0.424,2.333
			s-0.142,1.65-0.424,2.333c-0.281,0.685-0.659,1.256-1.13,1.722c-0.472,0.465-1.015,0.82-1.625,1.065
			c-0.613,0.247-1.251,0.371-1.912,0.371c-0.663,0-1.303-0.124-1.921-0.371c-0.62-0.245-1.165-0.602-1.639-1.065
			c-0.471-0.466-0.848-1.037-1.129-1.722C158.116,69.905,157.977,69.127,157.977,68.255z M161.165,68.255
			c0,0.915,0.156,1.64,0.476,2.175c0.315,0.535,0.799,0.804,1.445,0.804c0.633,0,1.111-0.269,1.436-0.804
			c0.326-0.535,0.485-1.26,0.485-2.175s-0.161-1.64-0.485-2.175c-0.323-0.535-0.803-0.803-1.436-0.803
			c-0.646,0-1.13,0.268-1.445,0.803C161.321,66.615,161.165,67.34,161.165,68.255z"/>
		<path fill="#929497" d="M170.049,63.018h2.533l0.211,1.838h0.085c0.382-0.719,0.837-1.245,1.373-1.586
			c0.534-0.337,1.069-0.506,1.604-0.506c0.295,0,0.539,0.02,0.729,0.055c0.188,0.034,0.36,0.089,0.517,0.158l-0.507,2.682
			c-0.196-0.058-0.382-0.099-0.549-0.127c-0.17-0.027-0.367-0.041-0.593-0.041c-0.395,0-0.805,0.139-1.233,0.421
			c-0.43,0.283-0.786,0.781-1.067,1.5v6.082h-3.104L170.049,63.018L170.049,63.018z"/>
		<path fill="#929497" d="M178.295,63.018h2.535l0.211,1.353h0.086c0.438-0.438,0.9-0.813,1.393-1.131
			c0.494-0.315,1.084-0.476,1.774-0.476c0.746,0,1.349,0.151,1.808,0.455c0.455,0.302,0.818,0.735,1.086,1.297
			c0.465-0.477,0.953-0.889,1.469-1.232c0.513-0.346,1.121-0.52,1.826-0.52c1.125,0,1.953,0.377,2.48,1.13s0.793,1.785,0.793,3.096
			v6.504h-3.105v-6.104c0-0.761-0.103-1.279-0.305-1.562c-0.205-0.282-0.531-0.423-0.982-0.423c-0.521,0-1.119,0.338-1.795,1.014
			v7.074h-3.104v-6.104c0-0.761-0.103-1.279-0.307-1.562c-0.203-0.282-0.531-0.423-0.982-0.423c-0.534,0-1.125,0.338-1.772,1.014
			v7.074h-3.105V63.018H178.295z"/>
		<path fill="#929497" d="M195.616,70.578c0-1.1,0.465-1.959,1.395-2.576c0.931-0.619,2.429-1.034,4.498-1.246
			c-0.028-0.465-0.169-0.834-0.421-1.108c-0.257-0.275-0.663-0.412-1.227-0.412c-0.451,0-0.9,0.085-1.352,0.255
			c-0.451,0.168-0.93,0.399-1.437,0.695l-1.099-2.049c0.676-0.406,1.383-0.737,2.121-0.992c0.74-0.253,1.525-0.381,2.355-0.381
			c1.351,0,2.383,0.386,3.095,1.151c0.709,0.768,1.065,1.96,1.065,3.58v5.997h-2.534l-0.231-1.078h-0.063
			c-0.451,0.396-0.927,0.716-1.427,0.961c-0.5,0.247-1.045,0.371-1.637,0.371c-0.479,0-0.908-0.082-1.287-0.244
			c-0.381-0.162-0.703-0.388-0.973-0.676c-0.268-0.288-0.473-0.623-0.623-1.002C195.689,71.443,195.616,71.028,195.616,70.578z
			 M198.574,70.345c0,0.338,0.107,0.589,0.326,0.751c0.22,0.16,0.51,0.242,0.877,0.242c0.365,0,0.676-0.078,0.93-0.231
			c0.253-0.155,0.52-0.373,0.802-0.655v-1.836c-1.112,0.153-1.88,0.38-2.302,0.677C198.784,69.584,198.574,69.938,198.574,70.345z"
			/>
		<path fill="#929497" d="M207.298,65.445h-1.435v-2.302l1.604-0.127l0.358-2.788h2.575v2.788h2.514v2.429H210.4v4.203
			c0,0.591,0.123,1.018,0.369,1.278s0.574,0.391,0.982,0.391c0.168,0,0.342-0.022,0.518-0.063c0.176-0.042,0.336-0.092,0.476-0.147
			l0.483,2.26c-0.278,0.085-0.608,0.17-0.99,0.253c-0.381,0.085-0.823,0.128-1.329,0.128c-0.648,0-1.201-0.099-1.659-0.296
			c-0.457-0.198-0.829-0.473-1.12-0.824c-0.288-0.353-0.5-0.777-0.633-1.277s-0.2-1.054-0.2-1.658L207.298,65.445L207.298,65.445z"
			/>
		<path fill="#939598" d="M216.287,61.478c-0.521,0-0.952-0.152-1.289-0.456c-0.338-0.302-0.508-0.692-0.508-1.173
			c0-0.477,0.17-0.866,0.508-1.159c0.337-0.297,0.768-0.445,1.289-0.445c0.533,0,0.968,0.147,1.297,0.445
			c0.331,0.293,0.499,0.683,0.499,1.159c0,0.479-0.168,0.871-0.499,1.173C217.255,61.324,216.82,61.478,216.287,61.478z
			 M214.744,63.018h3.104v10.476h-3.104V63.018z"/>
		<path fill="#929497" d="M219.664,68.255c0-0.872,0.141-1.649,0.423-2.333s0.658-1.256,1.129-1.723
			c0.474-0.465,1.017-0.819,1.638-1.065c0.619-0.246,1.261-0.37,1.924-0.37c0.66,0,1.298,0.124,1.91,0.37s1.154,0.602,1.627,1.065
			c0.471,0.467,0.847,1.039,1.129,1.723c0.279,0.684,0.423,1.461,0.423,2.333s-0.144,1.65-0.423,2.333
			c-0.282,0.685-0.658,1.256-1.129,1.722c-0.473,0.465-1.015,0.82-1.627,1.065c-0.612,0.247-1.25,0.371-1.91,0.371
			c-0.663,0-1.305-0.124-1.924-0.371c-0.621-0.245-1.164-0.602-1.638-1.065c-0.471-0.466-0.847-1.037-1.129-1.722
			C219.805,69.905,219.664,69.127,219.664,68.255z M222.854,68.255c0,0.915,0.158,1.64,0.477,2.175
			c0.314,0.535,0.798,0.804,1.447,0.804c0.633,0,1.109-0.269,1.435-0.804c0.323-0.535,0.486-1.26,0.486-2.175
			s-0.163-1.64-0.486-2.175s-0.802-0.803-1.435-0.803c-0.649,0-1.133,0.268-1.447,0.803
			C223.012,66.615,222.854,67.34,222.854,68.255z"/>
		<path fill="#929497" d="M231.736,63.018h2.535l0.211,1.33h0.082c0.453-0.422,0.942-0.792,1.479-1.108
			c0.533-0.315,1.16-0.476,1.879-0.476c1.142,0,1.968,0.373,2.479,1.12c0.515,0.746,0.772,1.78,0.772,3.104v6.504h-3.104v-6.104
			c0-0.761-0.104-1.279-0.309-1.562c-0.203-0.282-0.531-0.423-0.979-0.423c-0.396,0-0.73,0.087-1.013,0.263
			c-0.283,0.177-0.593,0.427-0.93,0.751v7.074h-3.105V63.018H231.736z"/>
		<path fill="#929497" d="M134.133,79.6h5.027c0.742,0,1.445,0.072,2.102,0.223c0.654,0.146,1.225,0.394,1.709,0.737
			c0.486,0.347,0.869,0.803,1.15,1.372c0.281,0.57,0.422,1.271,0.422,2.102c0,0.804-0.143,1.5-0.432,2.093
			c-0.288,0.591-0.68,1.076-1.172,1.457c-0.494,0.379-1.063,0.662-1.711,0.845s-1.338,0.274-2.068,0.274h-1.922v4.665h-3.105V79.6z
			 M138.97,86.23c1.689,0,2.534-0.732,2.534-2.198c0-0.716-0.217-1.225-0.645-1.519c-0.433-0.296-1.06-0.443-1.891-0.443h-1.73v4.16
			H138.97z"/>
		<path fill="#929497" d="M146.234,82.894h2.533l0.211,1.839h0.086c0.377-0.72,0.838-1.247,1.371-1.583
			c0.537-0.341,1.069-0.509,1.604-0.509c0.296,0,0.539,0.018,0.729,0.055c0.189,0.032,0.361,0.087,0.519,0.156l-0.507,2.682
			c-0.199-0.057-0.379-0.098-0.551-0.125c-0.168-0.029-0.365-0.042-0.59-0.042c-0.396,0-0.808,0.141-1.236,0.422
			c-0.43,0.282-0.784,0.781-1.066,1.499v6.08h-3.104V82.894z"/>
		<path fill="#929497" d="M153.721,88.131c0-0.874,0.141-1.648,0.422-2.334c0.281-0.682,0.658-1.257,1.131-1.721
			c0.472-0.465,1.019-0.82,1.637-1.066c0.62-0.245,1.26-0.369,1.922-0.369s1.299,0.124,1.911,0.369
			c0.612,0.246,1.153,0.603,1.627,1.066c0.47,0.464,0.848,1.039,1.129,1.721c0.282,0.686,0.422,1.46,0.422,2.334
			c0,0.873-0.14,1.648-0.422,2.333c-0.281,0.683-0.659,1.256-1.129,1.72c-0.474,0.467-1.015,0.82-1.627,1.068
			c-0.612,0.245-1.249,0.368-1.911,0.368s-1.302-0.123-1.922-0.368c-0.618-0.248-1.165-0.604-1.637-1.068
			c-0.473-0.464-0.85-1.038-1.131-1.72C153.861,89.779,153.721,89.004,153.721,88.131z M156.909,88.131
			c0,0.913,0.157,1.639,0.476,2.176c0.317,0.533,0.799,0.8,1.446,0.8c0.632,0,1.112-0.267,1.437-0.8
			c0.324-0.537,0.485-1.263,0.485-2.176c0-0.915-0.161-1.641-0.485-2.175c-0.324-0.535-0.805-0.802-1.437-0.802
			c-0.647,0-1.129,0.267-1.446,0.802C157.066,86.49,156.909,87.216,156.909,88.131z"/>
		<path fill="#929497" d="M165.711,82.894h3.104v10.411c0,0.575-0.058,1.118-0.178,1.624c-0.121,0.509-0.324,0.95-0.613,1.331
			c-0.287,0.38-0.672,0.682-1.149,0.907c-0.479,0.226-1.077,0.339-1.795,0.339c-0.437,0-0.8-0.028-1.089-0.083
			c-0.288-0.058-0.536-0.128-0.749-0.212l0.55-2.282c0.141,0.043,0.271,0.078,0.4,0.105c0.125,0.03,0.268,0.043,0.42,0.043
			c0.41,0,0.695-0.135,0.857-0.401c0.161-0.267,0.242-0.697,0.242-1.288V82.894L165.711,82.894z M167.273,81.352
			c-0.521,0-0.949-0.149-1.287-0.453s-0.508-0.692-0.508-1.173c0-0.479,0.17-0.864,0.508-1.16c0.338-0.298,0.766-0.444,1.287-0.444
			s0.951,0.146,1.289,0.444c0.336,0.296,0.506,0.683,0.506,1.16c0,0.479-0.17,0.869-0.506,1.173
			C168.225,81.201,167.795,81.352,167.273,81.352z"/>
		<path fill="#929497" d="M170.664,88.131c0-0.845,0.141-1.606,0.421-2.292c0.281-0.683,0.651-1.26,1.11-1.729
			c0.457-0.474,0.98-0.836,1.572-1.09c0.59-0.253,1.204-0.379,1.838-0.379c0.744,0,1.397,0.126,1.951,0.379
			c0.559,0.254,1.021,0.605,1.395,1.058c0.372,0.451,0.652,0.981,0.834,1.595s0.273,1.277,0.273,1.995
			c0,0.282-0.014,0.538-0.043,0.771c-0.026,0.233-0.055,0.413-0.084,0.537h-6.271c0.141,0.805,0.453,1.385,0.94,1.743
			c0.484,0.358,1.08,0.538,1.783,0.538c0.745,0,1.499-0.232,2.26-0.696l1.033,1.878c-0.535,0.367-1.129,0.654-1.783,0.868
			c-0.654,0.209-1.299,0.315-1.932,0.315c-0.748,0-1.443-0.123-2.093-0.368c-0.646-0.248-1.21-0.606-1.688-1.078
			c-0.479-0.471-0.852-1.045-1.119-1.723C170.796,89.777,170.664,89.004,170.664,88.131z M177.42,87.054
			c0-0.604-0.134-1.098-0.398-1.478c-0.269-0.381-0.72-0.57-1.354-0.57c-0.492,0-0.927,0.165-1.299,0.495
			c-0.373,0.333-0.615,0.85-0.729,1.553H177.42L177.42,87.054z"/>
		<path fill="#929497" d="M181.35,88.131c0-0.874,0.148-1.648,0.443-2.334c0.296-0.682,0.693-1.257,1.193-1.721
			c0.5-0.465,1.08-0.82,1.742-1.066c0.662-0.245,1.352-0.369,2.07-0.369c0.646,0,1.231,0.109,1.751,0.327
			c0.522,0.218,0.959,0.511,1.312,0.876l-1.414,1.922c-0.494-0.407-0.98-0.61-1.459-0.61c-0.76,0-1.357,0.267-1.795,0.802
			c-0.438,0.534-0.654,1.26-0.654,2.175c0,0.913,0.222,1.639,0.664,2.176c0.441,0.533,1.004,0.8,1.68,0.8
			c0.381,0,0.725-0.076,1.035-0.23c0.311-0.153,0.592-0.331,0.846-0.527l1.245,1.965c-0.506,0.448-1.069,0.778-1.69,0.992
			c-0.618,0.209-1.217,0.315-1.793,0.315c-0.733,0-1.411-0.123-2.039-0.368c-0.629-0.248-1.172-0.603-1.637-1.068
			c-0.465-0.464-0.83-1.037-1.099-1.72C181.482,89.779,181.35,89.004,181.35,88.131z"/>
		<path fill="#929497" d="M192.281,85.321h-1.437v-2.303l1.605-0.126l0.358-2.787h2.576v2.787h2.514v2.429h-2.514v4.2
			c0,0.593,0.123,1.02,0.37,1.278c0.245,0.261,0.572,0.391,0.981,0.391c0.168,0,0.34-0.021,0.518-0.062
			c0.175-0.043,0.336-0.094,0.477-0.146l0.484,2.259c-0.281,0.085-0.613,0.169-0.992,0.254c-0.381,0.084-0.824,0.126-1.33,0.126
			c-0.647,0-1.199-0.102-1.658-0.295c-0.459-0.197-0.83-0.472-1.118-0.824c-0.289-0.351-0.499-0.777-0.634-1.277
			s-0.202-1.053-0.202-1.656L192.281,85.321L192.281,85.321z"/>
	</g>
	<g>
		<polygon fill="#FFFFFF" points="67.411,80.136 67.411,110.199 55.572,105.403 55.572,76.28 		"/>
		<polygon fill="#D71920" points="67.411,110.199 73.332,112.597 73.332,82.062 67.411,80.136 		"/>
		<polygon fill="#D71920" points="43.734,100.735 55.572,105.403 55.572,76.28 43.734,72.426 		"/>
		<polygon fill="#D71920" points="25.976,93.439 31.894,95.812 31.894,68.56 25.976,66.641 		"/>
		<polygon fill="#FFFFFF" points="43.734,72.426 43.734,100.624 31.894,95.812 31.894,68.568 		"/>
		<polygon fill="#0067AC" points="25.976,66.641 73.332,82.062 73.332,51.525 25.976,39.844 		"/>
		<polygon fill="#8B0304" points="79.251,110.199 73.332,112.597 73.332,82.062 79.251,80.136 		"/>
		<polygon fill="#8B0304" points="102.928,100.735 91.09,105.403 91.09,76.28 102.928,72.426 		"/>
		<polygon fill="#8B0304" points="120.688,93.439 114.769,95.812 114.769,68.56 120.688,66.641 		"/>
		<polygon fill="#004071" points="120.688,66.641 73.332,82.062 73.332,51.525 120.688,39.844 		"/>
		<polygon fill="#FFFFFF" points="120.688,39.844 73.332,30.712 25.976,39.844 73.332,51.525 		"/>
		<polygon fill="#FFFFFF" points="63.294,61.603 61.53,54.964 59.767,60.613 54.056,59.004 58.676,64.105 57.001,69.467 
			61.386,67.097 66.15,72.35 64.33,65.506 68.717,63.131 		"/>
		<polygon fill="#FFFFFF" points="39.542,54.917 37.853,48.562 36.166,53.965 30.696,52.428 35.122,57.307 33.521,62.431 
			37.709,60.162 42.274,65.204 40.53,58.641 44.717,56.372 		"/>
		<polygon fill="#B1B3B6" points="86.895,60.613 85.132,54.964 83.367,61.603 77.946,63.131 82.332,65.506 80.511,72.353 
			85.276,67.097 89.661,69.467 87.985,64.105 92.605,59.004 		"/>
		<polygon fill="#B1B3B6" points="115.963,52.428 110.499,53.965 108.808,48.562 107.122,54.917 101.943,56.372 106.133,58.641 
			104.389,65.204 108.952,60.162 113.142,62.431 111.542,57.307 		"/>
		<path fill="#B1B3B6" d="M84.213,29.796V19.57l-21.54,4.153v6.028L23.016,37.4v58.03l50.316,20.36l50.314-20.36V37.4L84.213,29.796
			z M120.688,93.439l-5.919,2.371V68.568l-11.84,3.856v28.311l-11.838,4.668V76.28l-11.839,3.854v30.063l-5.919,2.396L25.977,93.438
			V39.843l36.697-7.076v11.622l21.54-4.782v-6.798l36.475,7.034L120.688,93.439L120.688,93.439z"/>
		<polygon fill="#004071" points="84.213,36.464 84.213,39.607 91.62,37.961 		"/>
		<polygon fill="#004071" points="55.266,42.652 62.673,41.069 62.673,44.391 		"/>
	</g>
</g>
</svg>
