<?xml version="1.0" encoding="utf-8"?>
<!-- Generator: Adobe Illustrator 16.0.4, SVG Export Plug-In . SVG Version: 6.00 Build 0)  -->
<!DOCTYPE svg PUBLIC "-//W3C//DTD SVG 1.1//EN" "http://www.w3.org/Graphics/SVG/1.1/DTD/svg11.dtd">
<svg version="1.1" xmlns="http://www.w3.org/2000/svg" xmlns:xlink="http://www.w3.org/1999/xlink" x="0px" y="0px" width="550px"
	 height="1000px" viewBox="0 0 550 1000" enable-background="new 0 0 550 1000" xml:space="preserve">
<g id="raster_map" display="none">
</g>
<g id="screens">
	<g>
		<rect x="55" y="96.609" fill="#0067AC" width="440" height="782"/>
		<g>
			<g>
				<path fill="#FFFFFF" d="M149.198,347.388c-0.345,0.413-0.887,0.791-1.622,1.133c-0.735,0.343-1.634,0.514-2.691,0.514
					c-1.286,0-2.276-0.49-2.973-1.469s-0.887-2.248-0.568-3.804l0.45-2.268c0.334-1.659,0.986-2.937,1.957-3.834
					c0.971-0.897,2.131-1.346,3.478-1.346c1.177,0,2.066,0.335,2.666,1.006s0.861,1.55,0.781,2.637h-0.977
					c0.029-0.844-0.154-1.517-0.548-2.021c-0.393-0.504-1.091-0.756-2.093-0.756c-0.974,0-1.868,0.403-2.684,1.21
					c-0.815,0.807-1.345,1.835-1.588,3.086l-0.459,2.285c-0.283,1.404-0.177,2.491,0.318,3.261c0.495,0.77,1.299,1.155,2.408,1.155
					c0.708,0,1.358-0.115,1.953-0.344c0.594-0.229,1.019-0.48,1.273-0.751l0.646-3.227h-3.031l0.169-0.866h4.009L149.198,347.388z"
					/>
				<path fill="#FFFFFF" d="M154.998,349.027c-1.104,0-1.951-0.417-2.543-1.252c-0.592-0.835-0.78-1.915-0.564-3.24l0.076-0.467
					c0.221-1.393,0.744-2.502,1.571-3.329s1.752-1.24,2.776-1.24c1.031,0,1.794,0.354,2.289,1.062s0.646,1.662,0.454,2.862
					l-0.136,0.866h-6.013l-0.034,0.246c-0.175,1.093-0.062,1.972,0.34,2.637c0.402,0.666,1.041,0.998,1.919,0.998
					c0.505,0,0.972-0.082,1.401-0.247c0.43-0.164,0.845-0.419,1.24-0.764l0.306,0.696c-0.379,0.362-0.817,0.648-1.312,0.858
					C156.273,348.922,155.683,349.027,154.998,349.027z M156.179,340.365c-0.674,0-1.295,0.288-1.864,0.862
					c-0.568,0.575-0.978,1.309-1.227,2.204h4.993l0.042-0.254c0.136-0.85,0.038-1.53-0.297-2.042
					C157.491,340.621,156.943,340.365,156.179,340.365z"/>
				<path fill="#FFFFFF" d="M163.72,337.317l-0.476,2.352h1.783l-0.161,0.832h-1.783l-1.198,5.987c-0.136,0.657-0.136,1.097,0,1.32
					c0.137,0.224,0.369,0.335,0.696,0.335c0.124,0,0.25-0.007,0.374-0.021s0.271-0.038,0.441-0.072l-0.017,0.764
					c-0.153,0.062-0.333,0.114-0.539,0.153c-0.207,0.04-0.412,0.06-0.616,0.06c-0.555,0-0.959-0.201-1.214-0.603
					c-0.255-0.402-0.292-1.047-0.11-1.936l1.197-5.987h-1.393l0.161-0.832h1.393l0.476-2.352H163.72z"/>
				<path fill="#FFFFFF" d="M174.878,346.522c0.067-0.453-0.03-0.833-0.293-1.142c-0.264-0.309-0.814-0.568-1.652-0.777
					c-1.002-0.243-1.713-0.555-2.135-0.934c-0.423-0.379-0.573-0.934-0.455-1.664c0.119-0.742,0.486-1.345,1.1-1.809
					c0.614-0.464,1.389-0.696,2.323-0.696c0.945,0,1.667,0.256,2.165,0.769s0.685,1.17,0.561,1.974h-0.985
					c0.085-0.532-0.035-0.978-0.36-1.337c-0.325-0.359-0.832-0.539-1.516-0.539c-0.663,0-1.196,0.16-1.602,0.48
					c-0.404,0.319-0.638,0.695-0.7,1.125c-0.073,0.441,0.01,0.795,0.251,1.062c0.24,0.266,0.797,0.506,1.668,0.722
					c1.002,0.25,1.719,0.579,2.148,0.989s0.586,0.986,0.467,1.728c-0.13,0.81-0.513,1.438-1.146,1.885
					c-0.634,0.447-1.444,0.671-2.429,0.671c-1.015,0-1.783-0.266-2.311-0.798c-0.526-0.532-0.727-1.18-0.603-1.944h0.977
					c-0.068,0.679,0.102,1.163,0.51,1.452c0.407,0.289,0.929,0.433,1.562,0.433c0.662,0,1.219-0.16,1.668-0.48
					C174.542,347.37,174.805,346.98,174.878,346.522z"/>
				<path fill="#FFFFFF" d="M181.306,337.317l-0.476,2.352h1.784l-0.162,0.832h-1.783l-1.197,5.987c-0.136,0.657-0.136,1.097,0,1.32
					c0.136,0.224,0.369,0.335,0.696,0.335c0.124,0,0.25-0.007,0.374-0.021s0.271-0.038,0.441-0.072l-0.017,0.764
					c-0.153,0.062-0.333,0.114-0.54,0.153c-0.206,0.04-0.411,0.06-0.615,0.06c-0.556,0-0.96-0.201-1.215-0.603
					c-0.254-0.402-0.292-1.047-0.11-1.936l1.198-5.987h-1.394l0.162-0.832h1.393l0.476-2.352H181.306z"/>
				<path fill="#FFFFFF" d="M188.227,348.857c0.013-0.436,0.021-0.731,0.03-0.887c0.008-0.156,0.034-0.335,0.08-0.539l-0.025-0.009
					c-0.396,0.464-0.88,0.848-1.452,1.151s-1.188,0.454-1.851,0.454c-0.799,0-1.39-0.236-1.775-0.709
					c-0.385-0.473-0.496-1.108-0.331-1.906c0.182-0.923,0.647-1.621,1.397-2.093c0.749-0.473,1.728-0.709,2.934-0.709h1.859
					l0.229-1.138c0.141-0.713,0.062-1.243-0.237-1.588c-0.301-0.345-0.812-0.518-1.537-0.518c-0.624,0-1.19,0.178-1.703,0.535
					c-0.512,0.356-0.819,0.792-0.921,1.308l-0.977-0.008c0.152-0.776,0.581-1.419,1.282-1.932s1.545-0.769,2.53-0.769
					c0.905,0,1.605,0.258,2.098,0.773c0.492,0.515,0.642,1.254,0.45,2.216l-0.9,4.518c-0.073,0.345-0.123,0.663-0.148,0.951
					s-0.026,0.589-0.004,0.9H188.227z M185.306,348.135c0.634,0,1.25-0.17,1.847-0.509c0.598-0.34,1.066-0.776,1.405-1.308
					l0.383-1.928h-1.886c-0.803,0-1.507,0.197-2.11,0.59c-0.603,0.394-0.96,0.882-1.074,1.465c-0.113,0.538-0.046,0.954,0.2,1.249
					C184.316,347.988,184.729,348.135,185.306,348.135z"/>
				<path fill="#FFFFFF" d="M197.229,340.543l-0.714-0.051c-0.561,0-1.068,0.186-1.524,0.556s-0.836,0.884-1.142,1.542l-1.248,6.267
					h-0.985l1.834-9.188h0.866l-0.178,1.46l0.025,0.009c0.339-0.527,0.738-0.931,1.197-1.214c0.458-0.283,0.979-0.425,1.562-0.425
					c0.113,0,0.228,0.01,0.344,0.03s0.208,0.041,0.275,0.063L197.229,340.543z"/>
				<path fill="#FFFFFF" d="M201.186,337.317l-0.476,2.352h1.783l-0.161,0.832h-1.783l-1.197,5.987c-0.136,0.657-0.136,1.097,0,1.32
					c0.136,0.224,0.368,0.335,0.696,0.335c0.124,0,0.249-0.007,0.373-0.021s0.272-0.038,0.441-0.072l-0.017,0.764
					c-0.152,0.062-0.333,0.114-0.539,0.153c-0.206,0.04-0.412,0.06-0.616,0.06c-0.555,0-0.959-0.201-1.214-0.603
					c-0.255-0.402-0.292-1.047-0.11-1.936l1.197-5.987h-1.393l0.161-0.832h1.393l0.476-2.352H201.186z"/>
				<path fill="#FFFFFF" d="M206.119,349.027c-1.104,0-1.951-0.417-2.543-1.252c-0.592-0.835-0.78-1.915-0.565-3.24l0.077-0.467
					c0.221-1.393,0.743-2.502,1.57-3.329s1.753-1.24,2.777-1.24c1.031,0,1.793,0.354,2.288,1.062s0.646,1.662,0.455,2.862
					l-0.137,0.866h-6.012l-0.034,0.246c-0.175,1.093-0.062,1.972,0.34,2.637c0.402,0.666,1.041,0.998,1.919,0.998
					c0.505,0,0.972-0.082,1.401-0.247c0.43-0.164,0.844-0.419,1.24-0.764l0.306,0.696c-0.379,0.362-0.817,0.648-1.312,0.858
					C207.395,348.922,206.804,349.027,206.119,349.027z M207.3,340.365c-0.675,0-1.295,0.288-1.864,0.862
					c-0.569,0.575-0.978,1.309-1.227,2.204h4.993l0.042-0.254c0.136-0.85,0.037-1.53-0.297-2.042
					C208.612,340.621,208.063,340.365,207.3,340.365z"/>
				<path fill="#FFFFFF" d="M211.698,344.169c0.317-1.596,0.805-2.774,1.465-3.532c0.66-0.759,1.524-1.138,2.595-1.138
					c0.572,0,1.069,0.127,1.494,0.382c0.425,0.254,0.747,0.617,0.968,1.087l0.025-0.009l1.07-5.35h0.977l-2.649,13.247h-0.866
					l0.161-1.172l-0.025-0.017c-0.345,0.441-0.747,0.78-1.206,1.015c-0.458,0.235-0.973,0.353-1.545,0.353
					c-0.98,0-1.709-0.439-2.187-1.316c-0.479-0.878-0.582-2.001-0.311-3.371L211.698,344.169z M212.658,344.348
					c-0.243,1.194-0.208,2.127,0.105,2.798c0.314,0.671,0.901,1.006,1.763,1.006c0.555,0,1.049-0.156,1.481-0.467
					c0.434-0.311,0.816-0.744,1.15-1.299l0.866-4.322c-0.136-0.504-0.382-0.91-0.738-1.218c-0.356-0.309-0.861-0.463-1.512-0.463
					c-0.781,0-1.432,0.338-1.953,1.015s-0.896,1.601-1.129,2.772L212.658,344.348z"/>
				<path fill="#FFFFFF" d="M232.02,344.645c-0.301,1.495-0.776,2.6-1.427,3.316c-0.65,0.716-1.503,1.074-2.556,1.074
					c-0.578,0-1.086-0.144-1.524-0.429c-0.439-0.286-0.777-0.678-1.015-1.176l-0.391,1.426h-0.85l2.649-13.247h0.985l-1.07,5.316
					l0.025,0.008c0.352-0.458,0.754-0.812,1.21-1.062c0.456-0.249,0.973-0.374,1.55-0.374c0.985,0,1.712,0.464,2.183,1.393
					c0.471,0.929,0.557,2.12,0.264,3.575L232.02,344.645z M231.06,344.467c0.25-1.257,0.223-2.251-0.08-2.985
					c-0.304-0.733-0.883-1.1-1.737-1.1c-0.6,0-1.12,0.186-1.562,0.556c-0.441,0.371-0.823,0.851-1.146,1.439l-0.832,4.161
					c0.131,0.504,0.388,0.899,0.773,1.185c0.385,0.286,0.899,0.429,1.545,0.429c0.776,0,1.415-0.307,1.919-0.921
					c0.505-0.614,0.866-1.477,1.087-2.586L231.06,344.467z"/>
				<path fill="#FFFFFF" d="M236.214,346.369l0.085,1.087h0.026l4.118-7.787h1.104l-5.834,10.657
					c-0.352,0.634-0.742,1.167-1.176,1.597c-0.433,0.43-0.994,0.645-1.686,0.645c-0.102,0-0.232-0.013-0.391-0.038
					s-0.276-0.052-0.356-0.081l0.288-0.849c0.068,0.011,0.17,0.024,0.306,0.038c0.137,0.014,0.234,0.021,0.298,0.021
					c0.391,0,0.727-0.134,1.011-0.403c0.283-0.269,0.591-0.695,0.925-1.278l0.696-1.249l-1.485-9.061h1.095L236.214,346.369z"/>
				<path fill="#FFFFFF" d="M253.054,344.688c-0.301,1.495-0.772,2.593-1.418,3.295s-1.498,1.053-2.557,1.053
					c-0.582,0-1.092-0.118-1.528-0.353s-0.776-0.57-1.019-1.006l-0.943,4.713h-0.984l2.539-12.721h0.832l-0.136,1.257l0.017,0.017
					c0.356-0.464,0.768-0.821,1.231-1.07c0.464-0.249,0.985-0.374,1.562-0.374c0.985,0,1.711,0.47,2.179,1.41
					c0.467,0.939,0.553,2.14,0.259,3.601L253.054,344.688z M252.103,344.509c0.25-1.251,0.217-2.251-0.098-3.002
					c-0.314-0.75-0.899-1.125-1.754-1.125c-0.577,0-1.081,0.171-1.511,0.514s-0.804,0.794-1.121,1.354l-0.892,4.424
					c0.141,0.476,0.4,0.845,0.776,1.108c0.377,0.263,0.883,0.395,1.517,0.395c0.781,0,1.43-0.306,1.944-0.917
					s0.883-1.469,1.104-2.573L252.103,344.509z"/>
				<path fill="#FFFFFF" d="M260.034,340.543l-0.714-0.051c-0.561,0-1.068,0.186-1.524,0.556s-0.836,0.884-1.142,1.542l-1.248,6.267
					h-0.985l1.834-9.188h0.866l-0.178,1.46l0.025,0.009c0.339-0.527,0.738-0.931,1.197-1.214c0.458-0.283,0.979-0.425,1.562-0.425
					c0.113,0,0.228,0.01,0.344,0.03s0.208,0.041,0.275,0.063L260.034,340.543z"/>
				<path fill="#FFFFFF" d="M260.212,344.127c0.227-1.432,0.742-2.562,1.546-3.388s1.795-1.24,2.972-1.24
					c1.121,0,1.966,0.43,2.531,1.291c0.565,0.86,0.738,1.973,0.518,3.337l-0.042,0.28c-0.233,1.438-0.749,2.568-1.55,3.388
					c-0.801,0.821-1.788,1.231-2.96,1.231c-1.126,0-1.974-0.428-2.543-1.282s-0.739-1.967-0.514-3.337L260.212,344.127z
					 M261.155,344.407c-0.183,1.126-0.089,2.035,0.28,2.726c0.368,0.691,1.01,1.036,1.927,1.036c0.85,0,1.583-0.36,2.2-1.079
					c0.616-0.719,1.014-1.613,1.188-2.684l0.042-0.28c0.176-1.109,0.078-2.014-0.293-2.713s-1.006-1.049-1.906-1.049
					c-0.86,0-1.601,0.364-2.221,1.091c-0.619,0.727-1.011,1.618-1.176,2.67L261.155,344.407z"/>
				<path fill="#FFFFFF" d="M271.778,346.556l0.102,1.079l0.025,0.008l0.476-1.087l3.405-6.887h1.02l-4.713,9.188h-0.781
					l-1.784-9.188h1.02L271.778,346.556z"/>
				<path fill="#FFFFFF" d="M277.935,348.857h-0.977l1.834-9.188h0.977L277.935,348.857z M280.296,337.037h-0.977l0.288-1.427h0.977
					L280.296,337.037z"/>
				<path fill="#FFFFFF" d="M281.179,344.169c0.317-1.596,0.805-2.774,1.465-3.532c0.66-0.759,1.524-1.138,2.594-1.138
					c0.573,0,1.07,0.127,1.495,0.382c0.425,0.254,0.747,0.617,0.968,1.087l0.025-0.009l1.07-5.35h0.977l-2.649,13.247h-0.866
					l0.161-1.172l-0.025-0.017c-0.345,0.441-0.747,0.78-1.206,1.015c-0.458,0.235-0.973,0.353-1.545,0.353
					c-0.98,0-1.709-0.439-2.187-1.316c-0.479-0.878-0.582-2.001-0.311-3.371L281.179,344.169z M282.139,344.348
					c-0.243,1.194-0.209,2.127,0.105,2.798s0.901,1.006,1.763,1.006c0.555,0,1.048-0.156,1.481-0.467
					c0.433-0.311,0.816-0.744,1.15-1.299l0.866-4.322c-0.136-0.504-0.382-0.91-0.738-1.218c-0.357-0.309-0.861-0.463-1.512-0.463
					c-0.781,0-1.432,0.338-1.953,1.015s-0.896,1.601-1.13,2.772L282.139,344.348z"/>
				<path fill="#FFFFFF" d="M290.816,348.857h-0.977l1.835-9.188h0.977L290.816,348.857z M293.178,337.037h-0.977l0.289-1.427h0.977
					L293.178,337.037z"/>
				<path fill="#FFFFFF" d="M295.972,341.333l0.025,0.008c0.391-0.572,0.853-1.022,1.384-1.35c0.532-0.328,1.109-0.493,1.732-0.493
					c0.866,0,1.491,0.294,1.877,0.883s0.453,1.515,0.204,2.777l-1.139,5.698h-0.984l1.138-5.681
					c0.221-1.121,0.204-1.867-0.051-2.238s-0.739-0.556-1.452-0.556c-0.595,0-1.15,0.207-1.669,0.62
					c-0.518,0.413-0.95,0.926-1.295,1.537l-1.257,6.318H293.5l1.835-9.188h0.892L295.972,341.333z"/>
				<path fill="#FFFFFF" d="M303.173,344.169c0.317-1.596,0.807-2.774,1.469-3.532c0.662-0.759,1.532-1.138,2.607-1.138
					c0.589,0,1.097,0.135,1.523,0.403c0.428,0.269,0.749,0.647,0.964,1.134h0.025l0.383-1.367h0.832l-1.809,9.069
					c-0.26,1.285-0.747,2.245-1.461,2.878c-0.713,0.634-1.639,0.951-2.776,0.951c-0.396,0-0.819-0.054-1.266-0.161
					s-0.829-0.255-1.146-0.441l0.425-0.858c0.301,0.181,0.625,0.318,0.977,0.412c0.352,0.094,0.742,0.14,1.172,0.14
					c0.793,0,1.457-0.257,1.995-0.772c0.539-0.515,0.9-1.231,1.087-2.148l0.195-0.985l-0.025-0.008
					c-0.345,0.419-0.742,0.739-1.188,0.959s-0.948,0.332-1.503,0.332c-0.98,0-1.711-0.44-2.195-1.321
					c-0.484-0.88-0.59-2.003-0.318-3.367L303.173,344.169z M304.124,344.348c-0.243,1.188-0.204,2.12,0.118,2.793
					c0.323,0.674,0.914,1.011,1.775,1.011c0.555,0,1.049-0.16,1.481-0.48c0.434-0.32,0.816-0.76,1.15-1.32l0.85-4.254
					c-0.124-0.51-0.363-0.923-0.718-1.24c-0.354-0.317-0.858-0.476-1.516-0.476c-0.781,0-1.437,0.339-1.966,1.019
					c-0.529,0.679-0.909,1.602-1.143,2.768L304.124,344.348z"/>
				<path fill="#FFFFFF" d="M318.67,346.369l0.085,1.087h0.025l4.119-7.787h1.104l-5.834,10.657
					c-0.352,0.634-0.743,1.167-1.176,1.597c-0.434,0.43-0.994,0.645-1.686,0.645c-0.103,0-0.233-0.013-0.391-0.038
					c-0.158-0.025-0.277-0.052-0.356-0.081l0.288-0.849c0.068,0.011,0.17,0.024,0.306,0.038s0.234,0.021,0.298,0.021
					c0.391,0,0.727-0.134,1.01-0.403c0.284-0.269,0.592-0.695,0.926-1.278l0.696-1.249l-1.486-9.061h1.096L318.67,346.369z"/>
				<path fill="#FFFFFF" d="M323.986,344.127c0.226-1.432,0.742-2.562,1.545-3.388c0.804-0.827,1.796-1.24,2.973-1.24
					c1.121,0,1.965,0.43,2.53,1.291c0.565,0.86,0.739,1.973,0.519,3.337l-0.043,0.28c-0.232,1.438-0.749,2.568-1.55,3.388
					c-0.801,0.821-1.787,1.231-2.959,1.231c-1.126,0-1.975-0.428-2.544-1.282c-0.568-0.854-0.739-1.967-0.514-3.337L323.986,344.127
					z M324.929,344.407c-0.182,1.126-0.089,2.035,0.28,2.726c0.368,0.691,1.011,1.036,1.928,1.036c0.849,0,1.583-0.36,2.199-1.079
					s1.014-1.613,1.188-2.684l0.043-0.28c0.175-1.109,0.078-2.014-0.293-2.713s-1.007-1.049-1.906-1.049
					c-0.861,0-1.601,0.364-2.221,1.091c-0.62,0.727-1.012,1.618-1.177,2.67L324.929,344.407z"/>
				<path fill="#FFFFFF" d="M338.396,348.857l0.195-1.367l-0.025-0.008c-0.361,0.509-0.795,0.895-1.299,1.155
					c-0.505,0.26-1.079,0.391-1.725,0.391c-0.865,0-1.499-0.326-1.901-0.977c-0.403-0.651-0.462-1.67-0.179-3.057l1.062-5.324h0.985
					l-1.062,5.341c-0.25,1.217-0.25,2.045,0,2.484c0.249,0.438,0.713,0.658,1.393,0.658c0.679,0,1.267-0.177,1.762-0.531
					s0.899-0.839,1.21-1.457l1.3-6.496h0.984l-1.834,9.188H338.396z"/>
				<path fill="#FFFFFF" d="M347.44,340.543l-0.713-0.051c-0.561,0-1.068,0.186-1.524,0.556s-0.837,0.884-1.143,1.542l-1.248,6.267
					h-0.985l1.835-9.188h0.865l-0.178,1.46l0.025,0.009c0.34-0.527,0.738-0.931,1.197-1.214s0.98-0.425,1.562-0.425
					c0.114,0,0.228,0.01,0.344,0.03s0.208,0.041,0.276,0.063L347.44,340.543z"/>
				<path fill="#FFFFFF" d="M356.85,348.857c0.012-0.436,0.021-0.731,0.029-0.887c0.009-0.156,0.035-0.335,0.081-0.539l-0.025-0.009
					c-0.396,0.464-0.88,0.848-1.452,1.151s-1.189,0.454-1.852,0.454c-0.798,0-1.389-0.236-1.774-0.709s-0.496-1.108-0.331-1.906
					c0.182-0.923,0.646-1.621,1.396-2.093c0.75-0.473,1.729-0.709,2.934-0.709h1.86l0.229-1.138
					c0.141-0.713,0.062-1.243-0.238-1.588s-0.812-0.518-1.537-0.518c-0.623,0-1.19,0.178-1.702,0.535
					c-0.513,0.356-0.819,0.792-0.922,1.308l-0.977-0.008c0.153-0.776,0.581-1.419,1.282-1.932c0.702-0.513,1.546-0.769,2.531-0.769
					c0.905,0,1.604,0.258,2.097,0.773c0.493,0.515,0.643,1.254,0.45,2.216l-0.899,4.518c-0.073,0.345-0.124,0.663-0.149,0.951
					s-0.026,0.589-0.004,0.9H356.85z M353.929,348.135c0.633,0,1.25-0.17,1.847-0.509c0.597-0.34,1.065-0.776,1.405-1.308
					l0.382-1.928h-1.885c-0.804,0-1.508,0.197-2.11,0.59s-0.96,0.882-1.074,1.465c-0.114,0.538-0.047,0.954,0.199,1.249
					C352.939,347.988,353.351,348.135,353.929,348.135z"/>
				<path fill="#FFFFFF" d="M360.798,344.169c0.318-1.596,0.806-2.774,1.465-3.532c0.66-0.759,1.524-1.138,2.595-1.138
					c0.572,0,1.07,0.127,1.494,0.382c0.425,0.254,0.748,0.617,0.969,1.087l0.025-0.009l1.069-5.35h0.977l-2.649,13.247h-0.866
					l0.162-1.172l-0.026-0.017c-0.345,0.441-0.747,0.78-1.205,1.015c-0.459,0.235-0.974,0.353-1.546,0.353
					c-0.979,0-1.708-0.439-2.187-1.316c-0.479-0.878-0.582-2.001-0.31-3.371L360.798,344.169z M361.758,344.348
					c-0.243,1.194-0.208,2.127,0.106,2.798c0.313,0.671,0.9,1.006,1.762,1.006c0.556,0,1.049-0.156,1.481-0.467
					c0.434-0.311,0.816-0.744,1.151-1.299l0.866-4.322c-0.137-0.504-0.383-0.91-0.739-1.218c-0.356-0.309-0.861-0.463-1.512-0.463
					c-0.781,0-1.432,0.338-1.953,1.015s-0.896,1.601-1.129,2.772L361.758,344.348z"/>
				<path fill="#FFFFFF" d="M369.901,344.169c0.317-1.596,0.805-2.774,1.465-3.532c0.66-0.759,1.524-1.138,2.595-1.138
					c0.572,0,1.069,0.127,1.494,0.382c0.425,0.254,0.747,0.617,0.968,1.087l0.025-0.009l1.07-5.35h0.977l-2.649,13.247h-0.866
					l0.161-1.172l-0.025-0.017c-0.345,0.441-0.747,0.78-1.206,1.015c-0.458,0.235-0.973,0.353-1.545,0.353
					c-0.98,0-1.709-0.439-2.187-1.316c-0.479-0.878-0.582-2.001-0.311-3.371L369.901,344.169z M370.861,344.348
					c-0.243,1.194-0.208,2.127,0.105,2.798c0.314,0.671,0.901,1.006,1.763,1.006c0.555,0,1.049-0.156,1.481-0.467
					c0.434-0.311,0.816-0.744,1.15-1.299l0.866-4.322c-0.136-0.504-0.382-0.91-0.738-1.218c-0.356-0.309-0.861-0.463-1.512-0.463
					c-0.781,0-1.432,0.338-1.953,1.015s-0.896,1.601-1.13,2.772L370.861,344.348z"/>
				<path fill="#FFFFFF" d="M384.058,340.543l-0.714-0.051c-0.561,0-1.068,0.186-1.524,0.556s-0.836,0.884-1.142,1.542l-1.248,6.267
					h-0.985l1.834-9.188h0.866l-0.178,1.46l0.025,0.009c0.339-0.527,0.738-0.931,1.197-1.214c0.458-0.283,0.979-0.425,1.562-0.425
					c0.113,0,0.228,0.01,0.344,0.03s0.208,0.041,0.275,0.063L384.058,340.543z"/>
				<path fill="#FFFFFF" d="M387.293,349.027c-1.104,0-1.951-0.417-2.544-1.252c-0.592-0.835-0.78-1.915-0.564-3.24l0.076-0.467
					c0.222-1.393,0.744-2.502,1.571-3.329s1.753-1.24,2.777-1.24c1.03,0,1.793,0.354,2.288,1.062s0.646,1.662,0.454,2.862
					l-0.136,0.866h-6.012l-0.034,0.246c-0.175,1.093-0.062,1.972,0.34,2.637c0.402,0.666,1.041,0.998,1.919,0.998
					c0.504,0,0.972-0.082,1.401-0.247c0.43-0.164,0.844-0.419,1.239-0.764l0.306,0.696c-0.379,0.362-0.816,0.648-1.312,0.858
					C388.568,348.922,387.978,349.027,387.293,349.027z M388.473,340.365c-0.674,0-1.295,0.288-1.863,0.862
					c-0.569,0.575-0.978,1.309-1.228,2.204h4.993l0.043-0.254c0.136-0.85,0.037-1.53-0.298-2.042
					C389.786,340.621,389.237,340.365,388.473,340.365z"/>
				<path fill="#FFFFFF" d="M397.925,346.522c0.067-0.453-0.03-0.833-0.293-1.142c-0.264-0.309-0.814-0.568-1.652-0.777
					c-1.002-0.243-1.713-0.555-2.136-0.934c-0.422-0.379-0.572-0.934-0.454-1.664c0.119-0.742,0.486-1.345,1.1-1.809
					c0.614-0.464,1.389-0.696,2.323-0.696c0.945,0,1.667,0.256,2.165,0.769s0.685,1.17,0.561,1.974h-0.985
					c0.085-0.532-0.035-0.978-0.36-1.337c-0.325-0.359-0.832-0.539-1.517-0.539c-0.662,0-1.195,0.16-1.601,0.48
					c-0.404,0.319-0.638,0.695-0.7,1.125c-0.073,0.441,0.01,0.795,0.25,1.062c0.241,0.266,0.798,0.506,1.669,0.722
					c1.002,0.25,1.719,0.579,2.148,0.989s0.586,0.986,0.467,1.728c-0.13,0.81-0.513,1.438-1.146,1.885
					c-0.634,0.447-1.444,0.671-2.429,0.671c-1.015,0-1.784-0.266-2.311-0.798c-0.526-0.532-0.727-1.18-0.603-1.944h0.977
					c-0.068,0.679,0.102,1.163,0.51,1.452c0.407,0.289,0.929,0.433,1.562,0.433c0.662,0,1.219-0.16,1.668-0.48
					C397.589,347.37,397.852,346.98,397.925,346.522z"/>
				<path fill="#FFFFFF" d="M406.264,346.522c0.067-0.453-0.03-0.833-0.293-1.142c-0.264-0.309-0.814-0.568-1.651-0.777
					c-1.003-0.243-1.714-0.555-2.136-0.934c-0.423-0.379-0.573-0.934-0.455-1.664c0.119-0.742,0.486-1.345,1.1-1.809
					c0.614-0.464,1.389-0.696,2.323-0.696c0.945,0,1.668,0.256,2.165,0.769c0.498,0.513,0.685,1.17,0.561,1.974h-0.985
					c0.085-0.532-0.035-0.978-0.36-1.337c-0.325-0.359-0.832-0.539-1.516-0.539c-0.663,0-1.196,0.16-1.602,0.48
					c-0.404,0.319-0.638,0.695-0.7,1.125c-0.073,0.441,0.011,0.795,0.251,1.062s0.797,0.506,1.668,0.722
					c1.002,0.25,1.719,0.579,2.148,0.989s0.586,0.986,0.468,1.728c-0.131,0.81-0.514,1.438-1.146,1.885
					c-0.634,0.447-1.444,0.671-2.429,0.671c-1.015,0-1.783-0.266-2.311-0.798c-0.526-0.532-0.727-1.18-0.603-1.944h0.977
					c-0.067,0.679,0.102,1.163,0.51,1.452c0.407,0.289,0.929,0.433,1.562,0.433c0.662,0,1.219-0.16,1.669-0.48
					C405.928,347.37,406.19,346.98,406.264,346.522z"/>
				<path fill="#FFFFFF" d="M160.595,368.485v1.656h0.025l0.73-1.656l3.048-6.208h0.841l0.569,6.208l0.076,1.707l0.025,0.009
					l0.696-1.715l2.777-6.208h1.019l-4.322,9.188h-0.832l-0.62-6.284l-0.067-1.613l-0.026-0.008l-0.704,1.622l-3.108,6.284h-0.841
					l-0.646-9.188h1.02L160.595,368.485z"/>
				<path fill="#FFFFFF" d="M172.967,363.866l0.025,0.008c0.396-0.543,0.861-0.974,1.393-1.291c0.532-0.317,1.104-0.476,1.716-0.476
					c0.861,0,1.482,0.297,1.868,0.892c0.386,0.594,0.453,1.525,0.204,2.794l-1.139,5.672h-0.984l1.138-5.681
					c0.216-1.092,0.195-1.831-0.06-2.216s-0.735-0.578-1.443-0.578c-0.572,0-1.117,0.197-1.635,0.59s-0.955,0.884-1.312,1.473
					l-1.282,6.412h-0.984l2.649-13.248h0.984L172.967,363.866z"/>
				<path fill="#FFFFFF" d="M182.987,371.636c-1.104,0-1.951-0.417-2.543-1.252c-0.592-0.835-0.78-1.915-0.564-3.24l0.076-0.467
					c0.221-1.393,0.744-2.502,1.57-3.329c0.827-0.827,1.753-1.24,2.777-1.24c1.031,0,1.793,0.354,2.288,1.062
					c0.495,0.708,0.646,1.661,0.455,2.861l-0.136,0.866h-6.013l-0.034,0.247c-0.175,1.092-0.062,1.971,0.34,2.637
					c0.402,0.665,1.041,0.998,1.919,0.998c0.505,0,0.972-0.082,1.401-0.246c0.43-0.165,0.844-0.419,1.24-0.764l0.306,0.696
					c-0.379,0.362-0.817,0.648-1.312,0.857C184.263,371.531,183.672,371.636,182.987,371.636z M184.168,362.974
					c-0.675,0-1.295,0.287-1.864,0.862c-0.568,0.574-0.978,1.309-1.227,2.204h4.993l0.042-0.255c0.136-0.849,0.037-1.53-0.297-2.042
					C185.48,363.23,184.932,362.974,184.168,362.974z"/>
				<path fill="#FFFFFF" d="M193.619,363.152l-0.713-0.051c-0.561,0-1.068,0.186-1.524,0.557c-0.456,0.371-0.837,0.884-1.143,1.541
					l-1.248,6.267h-0.985l1.835-9.188h0.865l-0.178,1.46l0.025,0.008c0.34-0.526,0.738-0.931,1.197-1.214s0.98-0.424,1.562-0.424
					c0.114,0,0.228,0.01,0.344,0.03c0.116,0.02,0.208,0.041,0.276,0.063L193.619,363.152z"/>
				<path fill="#FFFFFF" d="M196.854,371.636c-1.104,0-1.951-0.417-2.543-1.252c-0.592-0.835-0.78-1.915-0.564-3.24l0.076-0.467
					c0.221-1.393,0.744-2.502,1.57-3.329c0.827-0.827,1.753-1.24,2.777-1.24c1.031,0,1.793,0.354,2.288,1.062
					c0.495,0.708,0.646,1.661,0.455,2.861l-0.136,0.866h-6.013l-0.034,0.247c-0.175,1.092-0.062,1.971,0.34,2.637
					c0.402,0.665,1.041,0.998,1.919,0.998c0.505,0,0.972-0.082,1.401-0.246c0.43-0.165,0.844-0.419,1.24-0.764l0.306,0.696
					c-0.379,0.362-0.817,0.648-1.312,0.857C198.13,371.531,197.539,371.636,196.854,371.636z M198.035,362.974
					c-0.675,0-1.295,0.287-1.864,0.862c-0.568,0.574-0.978,1.309-1.227,2.204h4.993l0.042-0.255c0.136-0.849,0.037-1.53-0.297-2.042
					C199.348,363.23,198.799,362.974,198.035,362.974z"/>
				<path fill="#FFFFFF" d="M208.837,368.978l0.085,1.087h0.025l4.118-7.787h1.104l-5.834,10.657
					c-0.352,0.634-0.743,1.166-1.177,1.596c-0.433,0.43-0.994,0.646-1.686,0.646c-0.102,0-0.232-0.013-0.391-0.038
					c-0.158-0.026-0.276-0.052-0.356-0.081l0.289-0.849c0.067,0.012,0.17,0.024,0.306,0.039c0.136,0.014,0.234,0.021,0.297,0.021
					c0.391,0,0.727-0.135,1.011-0.403c0.283-0.269,0.591-0.695,0.926-1.278l0.696-1.249l-1.486-9.061h1.096L208.837,368.978z"/>
				<path fill="#FFFFFF" d="M214.152,366.736c0.226-1.432,0.742-2.562,1.546-3.388c0.803-0.827,1.795-1.24,2.972-1.24
					c1.121,0,1.965,0.43,2.531,1.291c0.565,0.861,0.738,1.973,0.518,3.337l-0.042,0.28c-0.233,1.438-0.749,2.567-1.55,3.388
					s-1.788,1.231-2.96,1.231c-1.126,0-1.975-0.428-2.543-1.282c-0.569-0.855-0.74-1.967-0.514-3.337L214.152,366.736z
					 M215.095,367.016c-0.182,1.126-0.088,2.035,0.28,2.726c0.369,0.691,1.011,1.036,1.928,1.036c0.85,0,1.583-0.359,2.199-1.078
					c0.617-0.719,1.015-1.614,1.189-2.684l0.042-0.28c0.175-1.109,0.078-2.014-0.293-2.713c-0.371-0.699-1.006-1.048-1.906-1.048
					c-0.861,0-1.601,0.364-2.221,1.091c-0.62,0.728-1.011,1.618-1.176,2.671L215.095,367.016z"/>
				<path fill="#FFFFFF" d="M228.563,371.466l0.195-1.367l-0.025-0.008c-0.362,0.509-0.795,0.895-1.3,1.155
					c-0.504,0.26-1.078,0.391-1.724,0.391c-0.866,0-1.5-0.326-1.902-0.977s-0.462-1.67-0.178-3.057l1.061-5.324h0.985l-1.062,5.341
					c-0.249,1.217-0.249,2.045,0,2.484c0.25,0.438,0.714,0.658,1.393,0.658c0.68,0,1.268-0.177,1.763-0.531
					c0.495-0.354,0.899-0.839,1.21-1.456l1.299-6.496h0.985l-1.834,9.188H228.563z"/>
				<path fill="#FFFFFF" d="M241.42,371.466c0.012-0.436,0.021-0.731,0.029-0.887c0.009-0.156,0.035-0.335,0.081-0.54l-0.025-0.008
					c-0.396,0.464-0.88,0.848-1.452,1.15s-1.188,0.455-1.852,0.455c-0.798,0-1.389-0.237-1.774-0.709
					c-0.386-0.473-0.496-1.108-0.331-1.907c0.182-0.922,0.646-1.621,1.396-2.093s1.729-0.709,2.935-0.709h1.859l0.229-1.138
					c0.141-0.713,0.062-1.243-0.238-1.588c-0.301-0.345-0.812-0.518-1.537-0.518c-0.623,0-1.19,0.178-1.702,0.535
					c-0.513,0.357-0.819,0.793-0.922,1.308l-0.977-0.009c0.153-0.776,0.581-1.419,1.282-1.932c0.702-0.513,1.546-0.769,2.531-0.769
					c0.905,0,1.604,0.258,2.097,0.772c0.493,0.515,0.643,1.254,0.45,2.216l-0.899,4.518c-0.073,0.345-0.123,0.662-0.149,0.951
					c-0.025,0.289-0.026,0.589-0.004,0.9H241.42z M238.499,370.744c0.633,0,1.25-0.17,1.847-0.51
					c0.597-0.339,1.065-0.776,1.405-1.308l0.382-1.928h-1.885c-0.804,0-1.508,0.197-2.11,0.59s-0.96,0.882-1.074,1.465
					c-0.113,0.538-0.047,0.954,0.199,1.248C237.51,370.597,237.921,370.744,238.499,370.744z"/>
				<path fill="#FFFFFF" d="M250.421,363.152l-0.713-0.051c-0.561,0-1.068,0.186-1.524,0.557c-0.456,0.371-0.837,0.884-1.143,1.541
					l-1.248,6.267h-0.985l1.835-9.188h0.866l-0.179,1.46l0.025,0.008c0.34-0.526,0.739-0.931,1.197-1.214
					c0.459-0.283,0.98-0.424,1.562-0.424c0.114,0,0.228,0.01,0.344,0.03c0.117,0.02,0.208,0.041,0.276,0.063L250.421,363.152z"/>
				<path fill="#FFFFFF" d="M253.656,371.636c-1.104,0-1.951-0.417-2.543-1.252c-0.592-0.835-0.78-1.915-0.564-3.24l0.076-0.467
					c0.221-1.393,0.744-2.502,1.571-3.329s1.752-1.24,2.776-1.24c1.031,0,1.794,0.354,2.289,1.062
					c0.495,0.708,0.646,1.661,0.454,2.861l-0.136,0.866h-6.013l-0.034,0.247c-0.175,1.092-0.062,1.971,0.34,2.637
					c0.402,0.665,1.041,0.998,1.919,0.998c0.505,0,0.972-0.082,1.401-0.246c0.43-0.165,0.845-0.419,1.24-0.764l0.306,0.696
					c-0.379,0.362-0.817,0.648-1.312,0.857C254.932,371.531,254.341,371.636,253.656,371.636z M254.837,362.974
					c-0.674,0-1.295,0.287-1.864,0.862c-0.568,0.574-0.978,1.309-1.227,2.204h4.993l0.042-0.255c0.136-0.849,0.038-1.53-0.297-2.042
					C256.149,363.23,255.602,362.974,254.837,362.974z"/>
				<path fill="#FFFFFF" d="M268.313,363.152l-0.713-0.051c-0.561,0-1.068,0.186-1.524,0.557c-0.456,0.371-0.837,0.884-1.143,1.541
					l-1.248,6.267H262.7l1.834-9.188h0.866l-0.178,1.46l0.025,0.008c0.34-0.526,0.738-0.931,1.197-1.214s0.979-0.424,1.562-0.424
					c0.113,0,0.228,0.01,0.344,0.03c0.116,0.02,0.208,0.041,0.276,0.063L268.313,363.152z"/>
				<path fill="#FFFFFF" d="M271.549,371.636c-1.104,0-1.951-0.417-2.543-1.252c-0.592-0.835-0.78-1.915-0.565-3.24l0.077-0.467
					c0.221-1.393,0.743-2.502,1.57-3.329s1.753-1.24,2.777-1.24c1.031,0,1.793,0.354,2.288,1.062
					c0.495,0.708,0.646,1.661,0.455,2.861l-0.137,0.866h-6.012l-0.034,0.247c-0.175,1.092-0.062,1.971,0.34,2.637
					c0.402,0.665,1.041,0.998,1.919,0.998c0.505,0,0.972-0.082,1.401-0.246c0.43-0.165,0.844-0.419,1.24-0.764l0.306,0.696
					c-0.379,0.362-0.817,0.648-1.312,0.857C272.824,371.531,272.233,371.636,271.549,371.636z M272.729,362.974
					c-0.675,0-1.295,0.287-1.864,0.862c-0.569,0.574-0.978,1.309-1.227,2.204h4.993l0.042-0.255c0.136-0.849,0.037-1.53-0.297-2.042
					C274.042,363.23,273.493,362.974,272.729,362.974z"/>
				<path fill="#FFFFFF" d="M277.137,366.778c0.317-1.597,0.807-2.774,1.469-3.533s1.532-1.138,2.607-1.138
					c0.589,0,1.097,0.134,1.524,0.403c0.427,0.269,0.748,0.646,0.964,1.134h0.025l0.382-1.367h0.832l-1.809,9.069
					c-0.26,1.286-0.747,2.245-1.461,2.879c-0.713,0.634-1.639,0.951-2.776,0.951c-0.396,0-0.818-0.054-1.266-0.162
					c-0.446-0.107-0.829-0.254-1.146-0.441l0.425-0.857c0.301,0.181,0.625,0.318,0.977,0.412s0.742,0.14,1.172,0.14
					c0.793,0,1.457-0.258,1.995-0.773c0.539-0.515,0.9-1.231,1.088-2.148l0.195-0.985l-0.026-0.008
					c-0.345,0.419-0.742,0.739-1.188,0.959s-0.947,0.331-1.503,0.331c-0.98,0-1.711-0.44-2.195-1.32
					c-0.484-0.88-0.59-2.003-0.318-3.367L277.137,366.778z M278.088,366.957c-0.243,1.189-0.204,2.12,0.118,2.794
					c0.323,0.674,0.914,1.01,1.775,1.01c0.556,0,1.049-0.16,1.481-0.479c0.434-0.32,0.816-0.76,1.15-1.321l0.85-4.254
					c-0.124-0.509-0.363-0.922-0.718-1.24c-0.354-0.317-0.858-0.476-1.516-0.476c-0.781,0-1.437,0.34-1.966,1.019
					c-0.529,0.68-0.909,1.602-1.143,2.769L278.088,366.957z"/>
				<path fill="#FFFFFF" d="M286.767,371.466h-0.977l1.834-9.188h0.977L286.767,371.466z M289.127,359.645h-0.977l0.289-1.427h0.977
					L289.127,359.645z"/>
				<path fill="#FFFFFF" d="M295.062,369.13c0.068-0.453-0.029-0.833-0.293-1.142c-0.263-0.309-0.814-0.567-1.651-0.777
					c-1.002-0.243-1.714-0.555-2.136-0.934c-0.422-0.379-0.573-0.934-0.454-1.665c0.119-0.742,0.485-1.345,1.1-1.809
					c0.614-0.464,1.389-0.696,2.322-0.696c0.946,0,1.668,0.256,2.166,0.769c0.497,0.512,0.684,1.17,0.561,1.974h-0.985
					c0.085-0.532-0.036-0.978-0.361-1.337c-0.325-0.36-0.831-0.539-1.516-0.539c-0.662,0-1.195,0.16-1.601,0.479
					s-0.638,0.695-0.7,1.125c-0.073,0.441,0.01,0.795,0.25,1.061c0.24,0.267,0.798,0.507,1.669,0.722
					c1.002,0.249,1.719,0.579,2.148,0.989s0.586,0.986,0.467,1.728c-0.131,0.81-0.513,1.438-1.146,1.885
					c-0.634,0.447-1.443,0.671-2.429,0.671c-1.014,0-1.783-0.266-2.31-0.798s-0.727-1.18-0.603-1.945h0.977
					c-0.068,0.68,0.102,1.164,0.509,1.452c0.408,0.289,0.93,0.433,1.562,0.433c0.663,0,1.219-0.16,1.669-0.479
					C294.728,369.979,294.99,369.589,295.062,369.13z"/>
				<path fill="#FFFFFF" d="M301.491,359.925l-0.476,2.353h1.783l-0.161,0.832h-1.783l-1.197,5.987c-0.136,0.657-0.136,1.097,0,1.32
					s0.368,0.335,0.696,0.335c0.124,0,0.249-0.007,0.373-0.021c0.124-0.014,0.272-0.039,0.441-0.072l-0.017,0.764
					c-0.152,0.062-0.333,0.113-0.539,0.153s-0.412,0.06-0.616,0.06c-0.555,0-0.959-0.201-1.214-0.603
					c-0.255-0.402-0.292-1.047-0.11-1.936l1.197-5.987h-1.393l0.161-0.832h1.393l0.476-2.353H301.491z"/>
				<path fill="#FFFFFF" d="M306.425,371.636c-1.104,0-1.951-0.417-2.543-1.252c-0.592-0.835-0.78-1.915-0.565-3.24l0.077-0.467
					c0.221-1.393,0.743-2.502,1.57-3.329s1.753-1.24,2.777-1.24c1.031,0,1.793,0.354,2.288,1.062
					c0.495,0.708,0.646,1.661,0.455,2.861l-0.137,0.866h-6.012l-0.034,0.247c-0.175,1.092-0.062,1.971,0.34,2.637
					c0.402,0.665,1.041,0.998,1.919,0.998c0.505,0,0.972-0.082,1.401-0.246c0.43-0.165,0.844-0.419,1.24-0.764l0.306,0.696
					c-0.379,0.362-0.817,0.648-1.312,0.857C307.7,371.531,307.109,371.636,306.425,371.636z M307.605,362.974
					c-0.675,0-1.295,0.287-1.864,0.862c-0.569,0.574-0.978,1.309-1.227,2.204h4.993l0.042-0.255c0.136-0.849,0.037-1.53-0.297-2.042
					C308.918,363.23,308.369,362.974,307.605,362.974z"/>
				<path fill="#FFFFFF" d="M317.057,363.152l-0.713-0.051c-0.561,0-1.068,0.186-1.524,0.557c-0.456,0.371-0.837,0.884-1.143,1.541
					l-1.248,6.267h-0.985l1.834-9.188h0.866l-0.178,1.46l0.025,0.008c0.34-0.526,0.738-0.931,1.197-1.214s0.979-0.424,1.562-0.424
					c0.114,0,0.228,0.01,0.344,0.03c0.116,0.02,0.208,0.041,0.276,0.063L317.057,363.152z"/>
				<path fill="#FFFFFF" d="M320.292,371.636c-1.104,0-1.951-0.417-2.543-1.252c-0.592-0.835-0.78-1.915-0.565-3.24l0.077-0.467
					c0.221-1.393,0.743-2.502,1.57-3.329s1.753-1.24,2.777-1.24c1.031,0,1.793,0.354,2.288,1.062
					c0.495,0.708,0.646,1.661,0.455,2.861l-0.137,0.866h-6.012l-0.034,0.247c-0.175,1.092-0.062,1.971,0.34,2.637
					c0.402,0.665,1.041,0.998,1.919,0.998c0.505,0,0.972-0.082,1.401-0.246c0.43-0.165,0.844-0.419,1.24-0.764l0.306,0.696
					c-0.379,0.362-0.817,0.648-1.312,0.857C321.567,371.531,320.977,371.636,320.292,371.636z M321.473,362.974
					c-0.675,0-1.295,0.287-1.864,0.862c-0.569,0.574-0.978,1.309-1.227,2.204h4.993l0.042-0.255c0.136-0.849,0.037-1.53-0.297-2.042
					C322.785,363.23,322.236,362.974,321.473,362.974z"/>
				<path fill="#FFFFFF" d="M325.871,366.778c0.317-1.597,0.805-2.774,1.465-3.533s1.524-1.138,2.595-1.138
					c0.572,0,1.069,0.127,1.494,0.382c0.425,0.255,0.747,0.617,0.968,1.087l0.025-0.008l1.07-5.35h0.977l-2.649,13.248h-0.866
					l0.161-1.172l-0.025-0.017c-0.345,0.441-0.747,0.78-1.206,1.015c-0.458,0.235-0.973,0.353-1.545,0.353
					c-0.98,0-1.709-0.438-2.187-1.316c-0.479-0.877-0.582-2.001-0.311-3.371L325.871,366.778z M326.831,366.957
					c-0.243,1.194-0.208,2.127,0.105,2.798c0.314,0.67,0.901,1.006,1.763,1.006c0.555,0,1.049-0.156,1.481-0.467
					c0.434-0.311,0.816-0.744,1.15-1.299l0.866-4.322c-0.136-0.504-0.382-0.91-0.738-1.219s-0.861-0.463-1.512-0.463
					c-0.781,0-1.432,0.338-1.953,1.015c-0.521,0.676-0.896,1.601-1.129,2.772L326.831,366.957z"/>
				<path fill="#FFFFFF" d="M342.142,359.925l-0.476,2.353h1.783l-0.161,0.832h-1.783l-1.197,5.987c-0.136,0.657-0.136,1.097,0,1.32
					s0.368,0.335,0.696,0.335c0.124,0,0.249-0.007,0.373-0.021c0.124-0.014,0.272-0.039,0.442-0.072l-0.018,0.764
					c-0.152,0.062-0.333,0.113-0.539,0.153s-0.412,0.06-0.615,0.06c-0.556,0-0.96-0.201-1.215-0.603
					c-0.255-0.402-0.292-1.047-0.11-1.936l1.197-5.987h-1.393l0.161-0.832h1.393l0.476-2.353H342.142z"/>
				<path fill="#FFFFFF" d="M343.857,366.736c0.226-1.432,0.742-2.562,1.545-3.388c0.804-0.827,1.795-1.24,2.973-1.24
					c1.12,0,1.965,0.43,2.53,1.291c0.565,0.861,0.738,1.973,0.518,3.337l-0.042,0.28c-0.232,1.438-0.749,2.567-1.55,3.388
					s-1.788,1.231-2.96,1.231c-1.126,0-1.974-0.428-2.543-1.282c-0.568-0.855-0.739-1.967-0.514-3.337L343.857,366.736z
					 M344.8,367.016c-0.182,1.126-0.089,2.035,0.28,2.726c0.368,0.691,1.01,1.036,1.928,1.036c0.849,0,1.582-0.359,2.199-1.078
					c0.616-0.719,1.014-1.614,1.188-2.684l0.043-0.28c0.175-1.109,0.078-2.014-0.293-2.713c-0.371-0.699-1.007-1.048-1.907-1.048
					c-0.86,0-1.601,0.364-2.22,1.091c-0.62,0.728-1.012,1.618-1.177,2.671L344.8,367.016z"/>
				<path fill="#FFFFFF" d="M359.575,369.165l0.103,1.079l0.025,0.008l0.476-1.087l3.405-6.887h1.019l-4.713,9.188h-0.781
					l-1.783-9.188h1.019L359.575,369.165z"/>
				<path fill="#FFFFFF" d="M364.874,366.736c0.227-1.432,0.742-2.562,1.546-3.388c0.803-0.827,1.795-1.24,2.972-1.24
					c1.121,0,1.966,0.43,2.531,1.291c0.565,0.861,0.738,1.973,0.518,3.337l-0.042,0.28c-0.233,1.438-0.749,2.567-1.55,3.388
					s-1.788,1.231-2.96,1.231c-1.126,0-1.975-0.428-2.543-1.282c-0.569-0.855-0.74-1.967-0.514-3.337L364.874,366.736z
					 M365.816,367.016c-0.182,1.126-0.088,2.035,0.28,2.726c0.369,0.691,1.011,1.036,1.928,1.036c0.85,0,1.583-0.359,2.2-1.078
					c0.616-0.719,1.014-1.614,1.188-2.684l0.042-0.28c0.176-1.109,0.078-2.014-0.293-2.713c-0.371-0.699-1.006-1.048-1.906-1.048
					c-0.861,0-1.601,0.364-2.221,1.091c-0.619,0.728-1.011,1.618-1.176,2.671L365.816,367.016z"/>
				<path fill="#FFFFFF" d="M377.314,359.925l-0.476,2.353h1.784l-0.162,0.832h-1.783l-1.197,5.987c-0.136,0.657-0.136,1.097,0,1.32
					s0.369,0.335,0.696,0.335c0.124,0,0.25-0.007,0.374-0.021c0.124-0.014,0.271-0.039,0.441-0.072l-0.017,0.764
					c-0.153,0.062-0.333,0.113-0.54,0.153c-0.206,0.04-0.411,0.06-0.615,0.06c-0.556,0-0.96-0.201-1.215-0.603
					c-0.254-0.402-0.292-1.047-0.11-1.936l1.198-5.987H374.3l0.162-0.832h1.393l0.476-2.353H377.314z"/>
				<path fill="#FFFFFF" d="M382.249,371.636c-1.104,0-1.952-0.417-2.544-1.252c-0.592-0.835-0.78-1.915-0.564-3.24l0.076-0.467
					c0.221-1.393,0.744-2.502,1.571-3.329s1.753-1.24,2.776-1.24c1.031,0,1.794,0.354,2.289,1.062
					c0.495,0.708,0.646,1.661,0.454,2.861l-0.136,0.866h-6.013l-0.033,0.247c-0.175,1.092-0.063,1.971,0.339,2.637
					c0.403,0.665,1.042,0.998,1.92,0.998c0.504,0,0.971-0.082,1.4-0.246c0.43-0.165,0.845-0.419,1.24-0.764l0.306,0.696
					c-0.379,0.362-0.816,0.648-1.312,0.857C383.524,371.531,382.933,371.636,382.249,371.636z M383.429,362.974
					c-0.674,0-1.295,0.287-1.863,0.862c-0.569,0.574-0.978,1.309-1.228,2.204h4.993l0.043-0.255c0.136-0.849,0.037-1.53-0.298-2.042
					C384.742,363.23,384.193,362.974,383.429,362.974z"/>
				<path fill="#FFFFFF" d="M388.456,371.466h-1.112l0.271-1.342h1.112L388.456,371.466z"/>
			</g>
		</g>
		<path fill="#333333" d="M79.619,118.371l-8.953-15.507c-0.486-0.843-1.281-0.843-1.767,0l-8.954,15.507
			c-0.485,0.842-0.088,1.531,0.884,1.531h17.908C79.708,119.901,80.104,119.213,79.619,118.371z M71.019,117.441h-2.471v-2.39h2.471
			V117.441z M71.019,113.537h-2.471v-5.66h2.471V113.537z"/>
		<rect x="55" y="820.225" width="440" height="58.667"/>
		<g opacity="0.4">
			<g>
				<defs>
					<rect id="SVGID_9_" x="132.614" y="841.003" width="40.327" height="20.777"/>
				</defs>
				<clipPath id="SVGID_2_">
					<use xlink:href="#SVGID_9_"  overflow="visible"/>
				</clipPath>
				<path clip-path="url(#SVGID_2_)" fill="#FFFFFF" d="M164.388,847.114h-27.347l5.349-6.11h-3.364l-6.411,7.334l6.411,7.333h3.364
					l-5.349-6.11h27.347c2.787,0,6.111,0.848,6.111,4.888s-3.324,4.89-6.111,4.89h-14.055v2.443h14.055
					c5.357,0,8.554-2.742,8.554-7.333S169.745,847.114,164.388,847.114"/>
			</g>
		</g>
		<g opacity="0.4">
			<g>
				<defs>
					<rect id="SVGID_11_" x="253" y="839.208" width="44" height="22.572"/>
				</defs>
				<clipPath id="SVGID_4_">
					<use xlink:href="#SVGID_11_"  overflow="visible"/>
				</clipPath>
				<path clip-path="url(#SVGID_4_)" fill-rule="evenodd" clip-rule="evenodd" fill="#FFFFFF" d="M274.972,839.208L253,847.007
					v14.773h44v-14.738L274.972,839.208z M274.972,841.761l19.584,6.885v10.691h-39.11V848.68L274.972,841.761z"/>
			</g>
		</g>
		<g opacity="0.4">
			<g>
				<defs>
					<rect id="SVGID_13_" x="377.666" y="840.392" width="41.556" height="21.389"/>
				</defs>
				<clipPath id="SVGID_6_">
					<use xlink:href="#SVGID_13_"  overflow="visible"/>
				</clipPath>
				<path clip-path="url(#SVGID_6_)" fill-rule="evenodd" clip-rule="evenodd" fill="#FFFFFF" d="M377.669,861.169h34.219v-14.628
					v-0.037h-34.219V861.169z M380.113,848.95h29.331v9.776h-29.331V848.95z M387.445,840.394v2.443h29.331v12.222h2.443v-14.628
					v-0.037H387.445z"/>
				<path clip-path="url(#SVGID_6_)" fill-rule="evenodd" clip-rule="evenodd" fill="#FFFFFF" d="M377.666,861.781h34.223v-14.667
					h-34.223V861.781z M409.444,859.337h-29.333v-9.777h29.333V859.337z"/>
				<polygon clip-path="url(#SVGID_6_)" fill-rule="evenodd" clip-rule="evenodd" fill="#FFFFFF" points="387.444,841.003 
					387.444,843.449 416.778,843.449 416.778,856.893 419.222,856.893 419.222,843.449 419.222,841.003 				"/>
			</g>
		</g>
		<g>
			<rect x="92.392" y="535.292" opacity="0.2" fill="#60C9F8" width="300.632" height="55.294"/>
			<rect x="393" y="534.609" fill="#004071" width="57" height="56"/>
			<g>
				<path fill="#FFFFFF" d="M436.864,573.012l-5.92-5.92c-0.521-0.521-1.464-0.473-2.41,0.021l-2.582-2.581
					c3.364-4.397,3.047-10.708-0.976-14.731c-4.378-4.377-11.478-4.377-15.858,0c-4.378,4.38-4.378,11.48,0,15.859
					c4.023,4.021,10.336,4.339,14.731,0.973l2.582,2.582c-0.492,0.945-0.542,1.889-0.022,2.409l5.92,5.923
					c0.748,0.747,2.372,0.336,3.622-0.917C437.202,575.38,437.613,573.76,436.864,573.012z M410.786,563.995
					c-3.458-3.462-3.458-9.068,0-12.526c3.46-3.459,9.062-3.456,12.524,0c3.457,3.458,3.457,9.062,0,12.526
					C419.849,567.451,414.243,567.451,410.786,563.995z"/>
			</g>
		</g>
		<g>
			<g>
				<path fill="#FFFFFF" d="M117.789,313.381l0.611,2.1h0.081l0.611-2.1l8.927-24.66h2.629l-11.046,29.674h-2.323l-11.046-29.674
					h2.649L117.789,313.381z"/>
				<path fill="#FFFFFF" d="M132.32,307.043c0-3.315,0.876-5.996,2.629-8.041c1.753-2.044,4.123-3.067,7.112-3.067
					c3.003,0,5.381,1.022,7.134,3.067c1.752,2.045,2.629,4.725,2.629,8.041v0.672c0,3.329-0.873,6.009-2.619,8.04
					s-4.113,3.047-7.103,3.047c-3.017,0-5.4-1.016-7.153-3.047s-2.629-4.711-2.629-8.04V307.043z M134.766,307.716
					c0,2.609,0.635,4.766,1.905,6.471s3.081,2.558,5.432,2.558c2.323,0,4.12-0.853,5.391-2.558s1.905-3.862,1.905-6.471v-0.672
					c0-2.555-0.642-4.698-1.926-6.43s-3.088-2.599-5.411-2.599c-2.337,0-4.137,0.866-5.4,2.599s-1.896,3.875-1.896,6.43V307.716z"/>
				<path fill="#FFFFFF" d="M160.445,290.698v5.645h4.626v1.998h-4.626v14.368c0,1.467,0.241,2.497,0.724,3.087
					c0.481,0.591,1.138,0.887,1.966,0.887c0.354,0,0.673-0.017,0.958-0.051c0.285-0.034,0.652-0.092,1.101-0.173l0.347,1.834
					c-0.367,0.149-0.802,0.271-1.305,0.367c-0.502,0.095-1.012,0.143-1.528,0.143c-1.521,0-2.687-0.472-3.495-1.417
					s-1.213-2.503-1.213-4.677v-14.368h-3.627v-1.998h3.627v-5.645H160.445z"/>
				<path fill="#FFFFFF" d="M172.897,290.025h-2.426v-3.424h2.426V290.025z M172.897,318.395h-2.426v-22.052h2.426V318.395z"/>
				<path fill="#FFFFFF" d="M181.865,296.343l0.203,4.076l0.062,0.021c0.706-1.399,1.664-2.5,2.873-3.302
					c1.21-0.801,2.63-1.202,4.26-1.202c2.378,0,4.178,0.693,5.401,2.079c1.223,1.386,1.834,3.621,1.834,6.705v13.675h-2.445v-13.634
					c0-2.514-0.449-4.26-1.346-5.238c-0.896-0.979-2.241-1.467-4.035-1.467c-1.657,0-3.033,0.475-4.127,1.426
					s-1.912,2.161-2.456,3.628v15.285h-2.445v-22.052H181.865z"/>
				<path fill="#FFFFFF" d="M201.919,307.553c0-3.587,0.737-6.42,2.212-8.499c1.474-2.079,3.576-3.118,6.308-3.118
					c1.59,0,2.941,0.333,4.056,0.999c1.114,0.666,2.038,1.617,2.771,2.853l0.062-0.02l0.285-3.424h2.059v21.767
					c0,2.894-0.774,5.146-2.324,6.756c-1.549,1.61-3.756,2.415-6.623,2.415c-1.128,0-2.283-0.129-3.465-0.387
					c-1.182-0.258-2.249-0.631-3.199-1.121l0.631-1.957c0.965,0.462,1.923,0.812,2.874,1.049s1.99,0.357,3.118,0.357
					c2.188,0,3.825-0.622,4.912-1.865s1.63-2.993,1.63-5.248v-2.69l-0.061-0.02c-0.734,1.1-1.658,1.943-2.772,2.527
					c-1.113,0.584-2.445,0.876-3.994,0.876c-2.704,0-4.793-0.965-6.267-2.894c-1.475-1.929-2.212-4.572-2.212-7.928V307.553z
					 M204.365,307.981c0,2.704,0.533,4.833,1.6,6.389s2.693,2.333,4.881,2.333c1.604,0,2.921-0.357,3.954-1.07
					c1.032-0.713,1.841-1.709,2.425-2.986v-10.231c-0.543-1.305-1.314-2.357-2.312-3.159c-0.999-0.802-2.341-1.202-4.025-1.202
					c-2.188,0-3.821,0.869-4.901,2.608s-1.62,4.036-1.62,6.889V307.981z"/>
				<path fill="#FFFFFF" d="M239.929,318.395h-2.445v-29.674h2.445V318.395z"/>
				<path fill="#FFFFFF" d="M249.793,296.343l0.204,4.076l0.061,0.021c0.707-1.399,1.664-2.5,2.874-3.302
					c1.209-0.801,2.629-1.202,4.259-1.202c2.378,0,4.179,0.693,5.401,2.079s1.834,3.621,1.834,6.705v13.675h-2.445v-13.634
					c0-2.514-0.448-4.26-1.346-5.238c-0.896-0.979-2.241-1.467-4.035-1.467c-1.657,0-3.033,0.475-4.127,1.426
					s-1.912,2.161-2.456,3.628v15.285h-2.445v-22.052H249.793z"/>
				<path fill="#FFFFFF" d="M272.578,318.395v-20.054h-3.648v-1.998h3.648v-3.22c0-2.255,0.547-3.978,1.641-5.167
					s2.652-1.783,4.678-1.783c0.448,0,0.899,0.034,1.354,0.102s0.928,0.163,1.417,0.286l-0.306,2.018
					c-0.34-0.082-0.676-0.146-1.009-0.194c-0.333-0.047-0.737-0.071-1.213-0.071c-1.358,0-2.385,0.411-3.077,1.233
					c-0.693,0.822-1.04,2.015-1.04,3.577v3.22h5.259v1.998h-5.259v20.054H272.578z"/>
				<path fill="#FFFFFF" d="M283.155,307.043c0-3.315,0.877-5.996,2.629-8.041c1.753-2.044,4.124-3.067,7.113-3.067
					c3.003,0,5.381,1.022,7.133,3.067c1.753,2.045,2.629,4.725,2.629,8.041v0.672c0,3.329-0.872,6.009-2.618,8.04
					s-4.113,3.047-7.103,3.047c-3.017,0-5.401-1.016-7.154-3.047c-1.752-2.031-2.629-4.711-2.629-8.04V307.043z M285.602,307.716
					c0,2.609,0.635,4.766,1.905,6.471s3.081,2.558,5.432,2.558c2.323,0,4.12-0.853,5.391-2.558s1.905-3.862,1.905-6.471v-0.672
					c0-2.555-0.642-4.698-1.926-6.43s-3.088-2.599-5.411-2.599c-2.337,0-4.138,0.866-5.401,2.599
					c-1.263,1.732-1.895,3.875-1.895,6.43V307.716z"/>
				<path fill="#FFFFFF" d="M317.904,298.443l-1.814-0.123c-1.562,0-2.829,0.425-3.801,1.274c-0.971,0.849-1.668,2.042-2.089,3.577
					v15.224h-2.445v-22.052h2.14l0.306,3.669v0.102l0.062,0.021c0.625-1.332,1.46-2.364,2.507-3.098
					c1.046-0.734,2.323-1.101,3.831-1.101c0.312,0,0.615,0.023,0.907,0.071c0.292,0.047,0.533,0.099,0.724,0.153L317.904,298.443z"
					/>
				<path fill="#FFFFFF" d="M324.079,296.343l0.184,3.873l0.062,0.021c0.706-1.345,1.661-2.398,2.863-3.159s2.633-1.141,4.29-1.141
					c1.726,0,3.139,0.394,4.239,1.182c1.101,0.788,1.875,2.024,2.323,3.709h0.062c0.679-1.481,1.644-2.667,2.894-3.556
					c1.25-0.89,2.751-1.335,4.504-1.335c2.323,0,4.101,0.73,5.33,2.191c1.229,1.46,1.844,3.767,1.844,6.919v13.349h-2.445v-13.349
					c0-2.622-0.448-4.443-1.345-5.462c-0.897-1.019-2.215-1.528-3.954-1.528c-1.943,0.027-3.472,0.696-4.586,2.007
					s-1.739,2.789-1.875,4.433v13.899h-2.445v-13.573c0-2.486-0.455-4.236-1.365-5.248c-0.911-1.012-2.229-1.518-3.954-1.518
					c-1.739,0-3.129,0.482-4.168,1.447s-1.783,2.201-2.231,3.709v15.183h-2.466v-22.052H324.079z"/>
				<path fill="#FFFFFF" d="M372.911,318.395c-0.163-0.761-0.278-1.399-0.347-1.916c-0.068-0.517-0.102-1.04-0.102-1.569
					l-0.062-0.021c-0.802,1.141-1.868,2.079-3.199,2.812c-1.332,0.734-2.86,1.101-4.586,1.101c-2.188,0-3.865-0.557-5.034-1.671
					c-1.168-1.114-1.753-2.649-1.753-4.606c0-2.079,0.866-3.719,2.599-4.922c1.732-1.202,4.12-1.804,7.164-1.804h4.871v-2.731
					c0-1.603-0.5-2.846-1.498-3.729c-0.999-0.883-2.422-1.325-4.27-1.325c-1.739,0-3.159,0.425-4.26,1.274s-1.651,1.898-1.651,3.148
					l-2.425-0.02c0-1.739,0.784-3.254,2.354-4.545c1.569-1.291,3.598-1.936,6.084-1.936s4.456,0.608,5.91,1.824
					c1.454,1.216,2.181,3,2.181,5.35v10.842c0,0.788,0.041,1.542,0.122,2.262c0.082,0.72,0.231,1.447,0.449,2.181H372.911z
					 M364.901,316.663c1.794,0,3.353-0.404,4.678-1.212c1.324-0.809,2.286-1.865,2.884-3.169v-4.606h-4.912
					c-2.255,0-4.035,0.465-5.34,1.396c-1.304,0.931-1.956,2.109-1.956,3.536c0,1.209,0.404,2.188,1.213,2.935
					C362.275,316.289,363.421,316.663,364.901,316.663z"/>
				<path fill="#FFFFFF" d="M384.915,290.698v5.645h4.626v1.998h-4.626v14.368c0,1.467,0.241,2.497,0.724,3.087
					c0.482,0.591,1.138,0.887,1.967,0.887c0.354,0,0.672-0.017,0.958-0.051c0.285-0.034,0.651-0.092,1.101-0.173l0.346,1.834
					c-0.366,0.149-0.801,0.271-1.304,0.367s-1.013,0.143-1.528,0.143c-1.522,0-2.688-0.472-3.496-1.417
					c-0.808-0.944-1.212-2.503-1.212-4.677v-14.368h-3.628v-1.998h3.628v-5.645H384.915z"/>
				<path fill="#FFFFFF" d="M397.367,290.025h-2.425v-3.424h2.425V290.025z M397.367,318.395h-2.425v-22.052h2.425V318.395z"/>
				<path fill="#FFFFFF" d="M402.748,307.043c0-3.315,0.876-5.996,2.629-8.041c1.753-2.044,4.124-3.067,7.113-3.067
					c3.002,0,5.38,1.022,7.133,3.067c1.753,2.045,2.629,4.725,2.629,8.041v0.672c0,3.329-0.873,6.009-2.619,8.04
					s-4.113,3.047-7.103,3.047c-3.016,0-5.4-1.016-7.153-3.047s-2.629-4.711-2.629-8.04V307.043z M405.193,307.716
					c0,2.609,0.636,4.766,1.906,6.471c1.27,1.705,3.08,2.558,5.431,2.558c2.323,0,4.12-0.853,5.391-2.558s1.906-3.862,1.906-6.471
					v-0.672c0-2.555-0.643-4.698-1.927-6.43c-1.283-1.732-3.087-2.599-5.41-2.599c-2.338,0-4.138,0.866-5.401,2.599
					s-1.896,3.875-1.896,6.43V307.716z"/>
				<path fill="#FFFFFF" d="M429.568,296.343l0.204,4.076l0.062,0.021c0.706-1.399,1.664-2.5,2.873-3.302
					c1.209-0.801,2.629-1.202,4.26-1.202c2.378,0,4.178,0.693,5.4,2.079s1.835,3.621,1.835,6.705v13.675h-2.446v-13.634
					c0-2.514-0.448-4.26-1.345-5.238c-0.896-0.979-2.242-1.467-4.035-1.467c-1.658,0-3.033,0.475-4.127,1.426
					s-1.913,2.161-2.456,3.628v15.285h-2.446v-22.052H429.568z"/>
			</g>
		</g>
		<g>
			<g>
				<path fill="#60C9F8" d="M221.058,265.307l0.234,1.015h0.034l0.222-0.992l3.699-12.498h3.595l-5.776,16.99h-3.501l-5.776-16.99
					h3.605L221.058,265.307z"/>
				<path fill="#60C9F8" d="M242.195,262.355h-7.036v4.854h8.226v2.614h-11.634v-16.99h11.611v2.625h-8.203v4.271h7.036V262.355z"/>
				<path fill="#60C9F8" d="M250.076,263.032v6.792h-3.406v-16.99h6.674c1.96,0,3.437,0.42,4.428,1.26
					c0.992,0.84,1.488,2.073,1.488,3.699c0,0.95-0.246,1.728-0.741,2.334c-0.494,0.607-1.219,1.097-2.176,1.471v0.035
					c1.003,0.311,1.713,0.803,2.129,1.477c0.416,0.673,0.625,1.534,0.625,2.584v1.249c0,0.475,0.062,0.957,0.187,1.447
					c0.124,0.49,0.346,0.859,0.665,1.108v0.327h-3.489c-0.319-0.257-0.524-0.675-0.618-1.254s-0.141-1.13-0.141-1.651v-1.202
					c0-0.871-0.211-1.536-0.636-1.995c-0.424-0.459-1.063-0.688-1.919-0.688H250.076z M250.076,260.406h2.94
					c0.973,0,1.689-0.199,2.153-0.595c0.463-0.397,0.694-1,0.694-1.809c0-0.801-0.218-1.425-0.653-1.873
					c-0.436-0.447-1.116-0.671-2.043-0.671h-3.092V260.406z"/>
				<path fill="#60C9F8" d="M267.935,252.833l4.354,12.58h0.033l4.377-12.58h4.457v16.99h-3.407v-5.064l0.338-7.62l-0.034-0.011
					l-4.598,12.696h-2.287l-4.574-12.649l-0.035,0.012l0.339,7.573v5.064h-3.408v-16.99H267.935z"/>
				<path fill="#60C9F8" d="M299.293,262.857c0,2.108-0.649,3.837-1.948,5.187c-1.3,1.35-3.022,2.024-5.169,2.024
					c-2.132,0-3.842-0.674-5.129-2.024c-1.288-1.35-1.932-3.079-1.932-5.187v-3.058c0-2.1,0.643-3.827,1.926-5.181
					c1.283-1.354,2.991-2.03,5.123-2.03c2.146,0,3.872,0.677,5.175,2.03c1.303,1.354,1.954,3.081,1.954,5.181V262.857z
					 M295.887,259.776c0-1.33-0.328-2.417-0.981-3.261c-0.652-0.844-1.567-1.266-2.741-1.266c-1.176,0-2.077,0.42-2.708,1.26
					c-0.63,0.84-0.944,1.929-0.944,3.267v3.081c0,1.354,0.316,2.452,0.951,3.296c0.634,0.844,1.537,1.266,2.713,1.266
					c1.182,0,2.096-0.422,2.742-1.266c0.646-0.844,0.969-1.943,0.969-3.296V259.776z"/>
				<path fill="#60C9F8" d="M316.977,269.823h-3.396l-6.896-11.669l-0.034,0.012v11.657h-3.408v-16.99h3.408l6.896,11.657
					l0.035-0.012v-11.646h3.396V269.823z"/>
				<path fill="#60C9F8" d="M334.076,255.458h-5.367v14.365h-3.407v-14.365h-5.345v-2.625h14.119V255.458z"/>
			</g>
		</g>
		<g>
			<defs>
				<rect id="SVGID_15_" x="77" y="103.609" width="314" height="94"/>
			</defs>
			<clipPath id="SVGID_8_">
				<use xlink:href="#SVGID_15_"  overflow="visible"/>
			</clipPath>
			<g clip-path="url(#SVGID_8_)">
				<polygon fill="#FFFFFF" points="259.209,115.038 259.209,184.543 231.837,173.455 231.837,106.125 				"/>
				<polygon fill="#D71920" points="259.209,184.543 272.897,190.084 272.897,119.492 259.209,115.038 				"/>
				<polygon fill="#D71920" points="204.471,162.662 231.837,173.455 231.837,106.125 204.471,97.213 				"/>
				<polygon fill="#D71920" points="163.415,145.795 177.095,151.28 177.095,88.276 163.415,83.839 				"/>
				<polygon fill="#FFFFFF" points="204.471,97.213 204.471,162.405 177.095,151.28 177.095,88.296 				"/>
				<polygon fill="#0067AC" points="163.415,83.839 272.897,119.492 272.897,48.894 163.415,21.89 				"/>
				<polygon fill="#8B0304" points="286.581,184.543 272.897,190.084 272.897,119.492 286.581,115.038 				"/>
				<polygon fill="#8B0304" points="341.32,162.662 313.953,173.455 313.953,106.125 341.32,97.213 				"/>
				<polygon fill="#8B0304" points="382.379,145.795 368.694,151.28 368.694,88.276 382.379,83.839 				"/>
				<polygon fill="#004071" points="382.379,83.839 272.897,119.492 272.897,48.894 382.379,21.89 				"/>
				<polygon fill="#FFFFFF" points="382.379,21.89 272.897,0.777 163.415,21.89 272.897,48.894 				"/>
				<polygon fill="#FFFFFF" points="249.69,72.194 245.614,56.844 241.535,69.906 228.332,66.185 239.014,77.978 235.142,90.372 
					245.279,84.893 256.292,97.037 252.086,81.215 262.227,75.725 				"/>
				<polygon fill="#FFFFFF" points="194.778,56.736 190.874,42.047 186.973,54.536 174.326,50.982 184.559,62.26 180.857,74.105 
					190.54,68.862 201.094,80.519 197.062,65.345 206.741,60.1 				"/>
				<polygon fill="#B1B3B6" points="304.253,69.906 300.179,56.844 296.097,72.194 283.564,75.725 293.704,81.215 289.495,97.044 
					300.511,84.893 310.647,90.372 306.773,77.978 317.456,66.185 				"/>
				<polygon fill="#B1B3B6" points="371.455,50.982 358.824,54.536 354.914,42.047 351.015,56.736 339.044,60.1 348.729,65.345 
					344.697,80.519 355.245,68.862 364.933,74.105 361.235,62.26 				"/>
				<path fill="#B1B3B6" d="M298.053-1.342v-23.641l-49.799,9.604v13.937L156.57,16.239V150.4l116.327,47.071L389.22,150.4V16.239
					L298.053-1.342z M382.379,145.795l-13.685,5.485V88.296l-27.374,8.917v65.449l-27.367,10.793v-67.331l-27.372,8.913v69.505
					l-13.684,5.542l-109.482-44.29V21.89l84.839-16.359V32.4l49.799-11.058V5.629l84.326,16.261V145.795z"/>
				<polygon fill="#004071" points="298.053,14.075 298.053,21.342 315.178,17.537 				"/>
				<polygon fill="#004071" points="231.131,28.381 248.254,24.721 248.254,32.4 				"/>
			</g>
		</g>
		<g>
			<rect x="55" y="96.224" width="440" height="30.556"/>
			<polygon fill="#FFFFFF" points="452.222,118.224 451,118.224 451,108.264 448.556,108.296 448.556,107.193 452.222,106.775 			
				"/>
			<path fill="#FFFFFF" d="M464.444,118.224h-7.332v-1.207l3.742-4.104c0.661-0.74,1.128-1.328,1.365-1.762
				c0.236-0.436,0.363-0.88,0.363-1.334c0-0.564-0.158-1.041-0.488-1.425c-0.327-0.385-0.761-0.577-1.304-0.577
				c-0.78,0-1.354-0.017-1.726,0.384c-0.369,0.402-0.553,1.47-0.553,1.47h-1.466l-0.015,0.171c-0.025-0.973,0.296-1.682,0.969-2.344
				c0.672-0.662,1.604-0.938,2.792-0.938c1.015,0,1.822,0.323,2.426,0.914c0.603,0.592,0.903,1.361,0.903,2.275
				c0,0.616-0.182,1.238-0.546,1.856s-0.875,1.285-1.534,1.994l-2.971,3.296l0.016,0.106h5.357V118.224z"/>
			<path fill="#FFFFFF" d="M468.001,111.274h-1.527v-1.583h1.527V111.274z M468.001,118.071h-1.527v-1.583h1.527V118.071z"/>
			<path fill="#FFFFFF" d="M471.778,112.113h1.802c0.676,0,1.156-0.367,1.439-0.706c0.28-0.339,0.423-0.91,0.423-1.516
				c0-0.646-0.161-1.188-0.482-1.523c-0.32-0.335-0.793-0.528-1.421-0.528c-0.594,0-1.071,0.131-1.43,0.48
				c-0.36,0.347-0.539,1.349-0.539,1.349h-1.467l-0.016-0.015c-0.024-0.854,0.284-1.563,0.928-2.161
				c0.643-0.597,1.485-0.888,2.523-0.888c1.047,0,1.879,0.28,2.499,0.835c0.621,0.557,0.931,1.353,0.931,2.38
				c0,0.466-0.14,0.932-0.422,1.394c-0.282,0.464-0.704,0.817-1.27,1.06c0.678,0.224,1.158,0.571,1.441,1.048
				c0.28,0.477,0.421,1.008,0.421,1.598c0,1.029-0.337,1.839-1.012,2.43c-0.676,0.589-1.538,0.883-2.589,0.883
				c-1.029,0-1.881-0.278-2.554-0.834c-0.677-0.555-1.001-1.578-0.976-2.529l0.024-0.314h1.46c0,1.223,0.182,1.332,0.546,1.682
				c0.363,0.35,0.865,0.659,1.499,0.659c0.647,0,1.154-0.107,1.523-0.458c0.365-0.351,0.549-0.835,0.549-1.521
				c0-0.696-0.162-0.983-0.489-1.314c-0.324-0.329-0.839-0.269-1.542-0.269h-1.802V112.113z"/>
			<path fill="#FFFFFF" d="M486.444,113.765c0,1.444-0.416,2.55-1.057,3.318c-0.639,0.768-1.562,1.151-2.675,1.151
				c-1.111,0-1.988-0.386-2.635-1.156c-0.647-0.771-0.967-1.875-0.967-3.313v-2.676c0-1.438,0.295-2.544,0.938-3.317
				c0.645-0.774,1.507-1.16,2.614-1.16c1.109,0,2.079,0.386,2.724,1.16c0.645,0.772,1.058,1.878,1.058,3.317V113.765z
				 M485.223,110.76c0-0.976-0.428-1.711-0.784-2.206c-0.353-0.493-0.992-0.74-1.664-0.74s-1.372,0.248-1.725,0.74
				c-0.352,0.494-0.716,1.229-0.716,2.206v3.31c0,0.976,0.304,1.713,0.66,2.213c0.357,0.499,0.935,0.748,1.606,0.748
				c0.674,0,1.467-0.248,1.816-0.745c0.349-0.495,0.806-1.234,0.806-2.216V110.76z"/>
			<path fill="#FFFFFF" d="M408.368,120.255h3.585v-8.783l-3.585,3.97V120.255z M412.824,120.255h3.614V106.38l-3.614,4.084V120.255
				z M417.338,105.4v14.883l3.563-0.028v-18.774L417.338,105.4z M407.441,120.255v-3.806l-3.51,3.806H407.441z"/>
			<path fill="#FFFFFF" d="M383.633,109.557l2.364,2.748c1.828-1.419,4.158-2.271,6.699-2.271c2.538,0,4.872,0.852,6.698,2.271
				l2.36-2.743c-2.47-1.921-5.626-3.072-9.059-3.072C389.259,106.49,386.105,107.641,383.633,109.557 M380.713,106.164l2.363,2.745
				c2.621-2.035,5.971-3.26,9.62-3.26c3.645,0,6.996,1.225,9.619,3.26l2.365-2.745C397.724,100.763,387.669,100.763,380.713,106.164
				 M389.614,116.506h-0.002l3.084,3.584l3.084-3.584c-0.832-0.702-1.91-1.129-3.084-1.129
				C391.52,115.377,390.442,115.802,389.614,116.506 M386.563,112.964l2.49,2.893h0.004c0.981-0.828,2.249-1.331,3.639-1.331
				c1.387,0,2.657,0.506,3.638,1.334l2.494-2.896c-1.676-1.299-3.807-2.078-6.132-2.078S388.235,111.665,386.563,112.964"/>
			<polygon fill-rule="evenodd" clip-rule="evenodd" fill="#FFFFFF" points="442.444,120.667 442.444,103.557 438.778,103.557 
				438.778,102.335 432.666,102.335 432.666,103.557 429,103.557 429,120.667 			"/>
		</g>
	</g>
</g>
<g id="devices">
	<g>
		<path fill="none" stroke="#D3D6DB" stroke-miterlimit="10" d="M30.162,356.212c0,0.223,0.183,0.421,0.404,0.44l3.933,0.337
			c0.223,0.02,0.405-0.148,0.405-0.372v-152.27c0-0.224-0.183-0.39-0.405-0.371l-3.933,0.336c-0.222,0.02-0.404,0.218-0.404,0.441
			V356.212z"/>
		<polygon fill="none" stroke="#D3D6DB" stroke-miterlimit="10" points="515.42,203.129 520.162,202.723 520.162,140.813 
			515.42,140.407 		"/>
		<path fill="none" stroke="#D3D6DB" stroke-miterlimit="10" d="M482.674,31.466C438.156,21.887,358.269,18.702,275.5,18.702
			c-106.149,0-170.535,7.023-204.778,12.764c-25.298,4.241-35.817,20.369-35.817,34.47l-0.678,434.256l1.761,434.075
			c0,19.174,15.869,30.807,35.827,34.84c19.958,4.031,73.75,12.578,203.756,12.578c137.795,0,178.561-8.072,203.617-12.578
			c25.057-4.508,36.775-19.73,36.775-38.902V69.013C515.963,50.725,504.271,36.115,482.674,31.466 M511.898,930.339
			c0,19.002-9.717,30.08-34.543,34.545c-24.832,4.469-65.23,12.463-201.785,12.463c-128.836,0-182.143-8.467-201.922-12.463
			s-34.545-15.543-34.545-34.545V69.826c0-13.974,8.391-29.936,33.461-34.139c33.936-5.69,97.744-12.65,202.936-12.65
			c82.023,0,161.193,3.157,205.307,12.65c21.404,4.605,31.092,20.096,31.092,34.139V930.339z"/>
		<path fill="#FFFFFF" stroke="#D3D6DB" stroke-miterlimit="10" d="M480.803,35.69c-44.109-9.496-123.273-12.652-205.301-12.652
			c-105.192,0-169,6.958-202.938,12.652c-25.068,4.205-33.457,20.159-33.457,34.134v860.519c0,19.002,14.759,30.545,34.545,34.545
			c19.776,3.998,73.078,12.455,201.919,12.455c136.554,0,176.948-7.988,201.782-12.455c24.834-4.471,34.545-15.543,34.545-34.545
			V69.824C511.898,55.781,502.215,40.296,480.803,35.69z M494.777,877.216H55.414V96.392h439.363V877.216z"/>
		<path fill="none" stroke="#D3D6DB" stroke-miterlimit="10" d="M120.184,67.081c0,3.573-2.896,6.469-6.47,6.469
			c-3.571,0-6.468-2.896-6.468-6.469c0-3.572,2.896-6.469,6.468-6.469C117.287,60.612,120.184,63.509,120.184,67.081"/>
		<path fill="none" stroke="#D3D6DB" stroke-miterlimit="10" d="M118.455,67.081c0,2.618-2.122,4.742-4.741,4.742
			c-2.618,0-4.741-2.124-4.741-4.742c0-2.618,2.123-4.742,4.741-4.742C116.333,62.339,118.455,64.463,118.455,67.081"/>
		<circle fill="none" stroke="#D3D6DB" stroke-miterlimit="10" cx="113.714" cy="67.081" r="4.741"/>
		<path fill="none" stroke="#D3D6DB" stroke-miterlimit="10" d="M115.107,67.081c0,0.77-0.625,1.395-1.394,1.395
			c-0.771,0-1.394-0.625-1.394-1.395c0-0.77,0.623-1.394,1.394-1.394C114.482,65.687,115.107,66.311,115.107,67.081"/>
		<path fill="none" stroke="#D3D6DB" stroke-miterlimit="10" d="M432.646,65.659c0,2.862-2.319,5.181-5.181,5.181
			c-2.862,0-5.181-2.319-5.181-5.181c0-2.863,2.318-5.183,5.181-5.183C430.327,60.477,432.646,62.796,432.646,65.659"/>
		<path fill="none" stroke="#D3D6DB" stroke-miterlimit="10" d="M447.5,65.659c0,1.86-1.51,3.369-3.371,3.369
			s-3.369-1.509-3.369-3.369c0-1.862,1.508-3.371,3.369-3.371S447.5,63.797,447.5,65.659"/>
		<path fill="none" stroke="#D3D6DB" stroke-miterlimit="10" d="M286.744,65.659c0,6.396-5.185,11.582-11.582,11.582
			c-6.396,0-11.582-5.185-11.582-11.582c0-6.397,5.186-11.583,11.582-11.583C281.56,54.077,286.744,59.262,286.744,65.659"/>
		<circle fill="none" stroke="#D3D6DB" stroke-miterlimit="10" cx="275.162" cy="65.659" r="11.582"/>
		<path fill="none" stroke="#D3D6DB" stroke-miterlimit="10" d="M267.516,65.735c0,0.66-0.533,1.194-1.193,1.194
			c-0.658,0-1.193-0.535-1.193-1.194c0-0.658,0.535-1.195,1.193-1.195C266.982,64.54,267.516,65.077,267.516,65.735"/>
		<path fill="none" stroke="#D3D6DB" stroke-miterlimit="10" d="M268.075,68.91c0,0.659-0.534,1.194-1.194,1.194
			s-1.193-0.536-1.193-1.194c0-0.659,0.533-1.193,1.193-1.193S268.075,68.251,268.075,68.91"/>
		<path fill="none" stroke="#D3D6DB" stroke-miterlimit="10" d="M271.175,68.554c0,0.659-0.534,1.194-1.194,1.194
			s-1.193-0.535-1.193-1.194c0-0.659,0.533-1.193,1.193-1.193S271.175,67.896,271.175,68.554"/>
		<path fill="none" stroke="#D3D6DB" stroke-miterlimit="10" d="M273.282,70.561c0,0.659-0.534,1.194-1.194,1.194
			c-0.658,0-1.192-0.535-1.192-1.194c0-0.66,0.534-1.194,1.192-1.194C272.748,69.367,273.282,69.901,273.282,70.561"/>
		<path fill="none" stroke="#D3D6DB" stroke-miterlimit="10" d="M269.98,71.868c0,0.66-0.535,1.194-1.193,1.194
			c-0.66,0-1.194-0.534-1.194-1.194c0-0.659,0.534-1.193,1.194-1.193C269.445,70.675,269.98,71.209,269.98,71.868"/>
		<path fill="none" stroke="#D3D6DB" stroke-miterlimit="10" d="M273.029,73.863c0,0.659-0.533,1.194-1.193,1.194
			s-1.195-0.536-1.195-1.194c0-0.659,0.535-1.194,1.195-1.194S273.029,73.204,273.029,73.863"/>
		<path fill="none" stroke="#D3D6DB" stroke-miterlimit="10" d="M274.959,68.122c0,0.66-0.534,1.194-1.194,1.194
			c-0.659,0-1.192-0.535-1.192-1.194c0-0.658,0.533-1.193,1.192-1.193C274.425,66.929,274.959,67.464,274.959,68.122"/>
		<path fill="none" stroke="#D3D6DB" stroke-miterlimit="10" d="M278.107,68.275c0,0.66-0.533,1.194-1.192,1.194
			s-1.192-0.535-1.192-1.194c0-0.659,0.533-1.194,1.192-1.194S278.107,67.616,278.107,68.275"/>
		<path fill="none" stroke="#D3D6DB" stroke-miterlimit="10" d="M281.511,68.554c0,0.659-0.532,1.194-1.192,1.194
			c-0.658,0-1.193-0.535-1.193-1.194c0-0.659,0.535-1.193,1.193-1.193C280.979,67.361,281.511,67.896,281.511,68.554"/>
		<path fill="none" stroke="#D3D6DB" stroke-miterlimit="10" d="M279.303,70.942c0,0.659-0.535,1.194-1.195,1.194
			c-0.659,0-1.192-0.535-1.192-1.194c0-0.659,0.533-1.193,1.192-1.193C278.768,69.749,279.303,70.283,279.303,70.942"/>
		<path fill="none" stroke="#D3D6DB" stroke-miterlimit="10" d="M282.707,71.868c0,0.66-0.535,1.194-1.196,1.194
			c-0.658,0-1.192-0.534-1.192-1.194c0-0.659,0.534-1.193,1.192-1.193C282.172,70.675,282.707,71.209,282.707,71.868"/>
		<path fill="none" stroke="#D3D6DB" stroke-miterlimit="10" d="M279.734,73.863c0,0.659-0.533,1.194-1.195,1.194
			c-0.658,0-1.193-0.536-1.193-1.194c0-0.659,0.535-1.194,1.193-1.194C279.201,72.669,279.734,73.204,279.734,73.863"/>
		<path fill="none" stroke="#D3D6DB" stroke-miterlimit="10" d="M276.152,71.476c0,0.659-0.535,1.194-1.193,1.194
			s-1.194-0.536-1.194-1.194c0-0.659,0.536-1.195,1.194-1.195S276.152,70.816,276.152,71.476"/>
		<path fill="none" stroke="#D3D6DB" stroke-miterlimit="10" d="M276.356,74.549c0,0.659-0.535,1.194-1.194,1.194
			c-0.66,0-1.193-0.535-1.193-1.194s0.533-1.194,1.193-1.194C275.821,73.355,276.356,73.89,276.356,74.549"/>
		<path fill="none" stroke="#D3D6DB" stroke-miterlimit="10" d="M284.764,69.088c0,0.659-0.533,1.193-1.194,1.193
			c-0.658,0-1.193-0.534-1.193-1.193c0-0.659,0.535-1.194,1.193-1.194C284.23,67.894,284.764,68.429,284.764,69.088"/>
		<path fill="none" stroke="#D3D6DB" stroke-miterlimit="10" d="M268.075,62.179c0,0.66-0.534,1.194-1.194,1.194
			s-1.193-0.535-1.193-1.194c0-0.658,0.533-1.194,1.193-1.194S268.075,61.521,268.075,62.179"/>
		<path fill="none" stroke="#D3D6DB" stroke-miterlimit="10" d="M270.463,59.334c0,0.659-0.535,1.194-1.193,1.194
			c-0.66,0-1.194-0.536-1.194-1.194s0.534-1.194,1.194-1.194C269.928,58.14,270.463,58.675,270.463,59.334"/>
		<path fill="none" stroke="#D3D6DB" stroke-miterlimit="10" d="M273.41,57.455c0,0.659-0.535,1.194-1.193,1.194
			c-0.661,0-1.195-0.536-1.195-1.194c0-0.66,0.534-1.194,1.195-1.194C272.875,56.26,273.41,56.795,273.41,57.455"/>
		<path fill="none" stroke="#D3D6DB" stroke-miterlimit="10" d="M276.559,56.769c0,0.659-0.533,1.194-1.193,1.194
			c-0.658,0-1.193-0.535-1.193-1.194c0-0.66,0.535-1.194,1.193-1.194C276.025,55.574,276.559,56.109,276.559,56.769"/>
		<path fill="none" stroke="#D3D6DB" stroke-miterlimit="10" d="M279.938,57.455c0,0.659-0.534,1.194-1.194,1.194
			c-0.659,0-1.192-0.536-1.192-1.194c0-0.66,0.533-1.194,1.192-1.194C279.403,56.26,279.938,56.795,279.938,57.455"/>
		<path fill="none" stroke="#D3D6DB" stroke-miterlimit="10" d="M282.808,59.334c0,0.659-0.533,1.194-1.194,1.194
			c-0.658,0-1.193-0.536-1.193-1.194s0.535-1.194,1.193-1.194C282.274,58.14,282.808,58.675,282.808,59.334"/>
		<path fill="none" stroke="#D3D6DB" stroke-miterlimit="10" d="M284.764,62.179c0,0.66-0.533,1.194-1.194,1.194
			c-0.658,0-1.193-0.535-1.193-1.194c0-0.658,0.535-1.194,1.193-1.194C284.23,60.985,284.764,61.521,284.764,62.179"/>
		<path fill="none" stroke="#D3D6DB" stroke-miterlimit="10" d="M281.613,62.585c0,0.659-0.533,1.194-1.193,1.194
			c-0.658,0-1.194-0.535-1.194-1.194c0-0.659,0.536-1.194,1.194-1.194C281.08,61.391,281.613,61.926,281.613,62.585"/>
		<path fill="none" stroke="#D3D6DB" stroke-miterlimit="10" d="M278.107,62.991c0,0.66-0.533,1.194-1.192,1.194
			s-1.192-0.534-1.192-1.194c0-0.659,0.533-1.193,1.192-1.193S278.107,62.333,278.107,62.991"/>
		<path fill="none" stroke="#D3D6DB" stroke-miterlimit="10" d="M274.959,62.991c0,0.66-0.534,1.194-1.194,1.194
			c-0.659,0-1.192-0.534-1.192-1.194c0-0.659,0.533-1.193,1.192-1.193C274.425,61.798,274.959,62.333,274.959,62.991"/>
		<path fill="none" stroke="#D3D6DB" stroke-miterlimit="10" d="M271.428,62.712c0,0.659-0.533,1.194-1.193,1.194
			c-0.659,0-1.193-0.535-1.193-1.194s0.534-1.193,1.193-1.193C270.895,61.519,271.428,62.053,271.428,62.712"/>
		<path fill="none" stroke="#D3D6DB" stroke-miterlimit="10" d="M273.562,60.325c0,0.659-0.534,1.194-1.194,1.194
			c-0.658,0-1.192-0.535-1.192-1.194s0.534-1.194,1.192-1.194C273.027,59.131,273.562,59.666,273.562,60.325"/>
		<path fill="none" stroke="#D3D6DB" stroke-miterlimit="10" d="M276.559,59.665c0,0.659-0.533,1.193-1.193,1.193
			c-0.658,0-1.193-0.534-1.193-1.193c0-0.66,0.535-1.194,1.193-1.194C276.025,58.47,276.559,59.005,276.559,59.665"/>
		<path fill="none" stroke="#D3D6DB" stroke-miterlimit="10" d="M279.303,60.527c0,0.66-0.535,1.194-1.195,1.194
			c-0.659,0-1.192-0.535-1.192-1.194c0-0.659,0.533-1.193,1.192-1.193C278.768,59.334,279.303,59.869,279.303,60.527"/>
		<path fill="none" stroke="#D3D6DB" stroke-miterlimit="10" d="M270.463,65.735c0,0.66-0.535,1.194-1.193,1.194
			c-0.66,0-1.194-0.535-1.194-1.194c0-0.658,0.534-1.195,1.194-1.195C269.928,64.54,270.463,65.077,270.463,65.735"/>
		<path fill="none" stroke="#D3D6DB" stroke-miterlimit="10" d="M273.41,65.735c0,0.66-0.535,1.194-1.193,1.194
			c-0.661,0-1.195-0.535-1.195-1.194c0-0.658,0.534-1.195,1.195-1.195C272.875,64.54,273.41,65.077,273.41,65.735"/>
		<path fill="none" stroke="#D3D6DB" stroke-miterlimit="10" d="M276.356,65.735c0,0.66-0.535,1.194-1.194,1.194
			c-0.66,0-1.193-0.535-1.193-1.194c0-0.658,0.533-1.195,1.193-1.195C275.821,64.54,276.356,65.077,276.356,65.735"/>
		<path fill="none" stroke="#D3D6DB" stroke-miterlimit="10" d="M279.303,65.735c0,0.66-0.535,1.194-1.195,1.194
			c-0.659,0-1.192-0.535-1.192-1.194c0-0.658,0.533-1.195,1.192-1.195C278.768,64.54,279.303,65.077,279.303,65.735"/>
		<path fill="none" stroke="#D3D6DB" stroke-miterlimit="10" d="M282.248,65.735c0,0.66-0.532,1.194-1.193,1.194
			c-0.658,0-1.193-0.535-1.193-1.194c0-0.658,0.535-1.195,1.193-1.195C281.716,64.54,282.248,65.077,282.248,65.735"/>
		<path fill="none" stroke="#D3D6DB" stroke-miterlimit="10" d="M285.196,65.735c0,0.66-0.534,1.194-1.194,1.194
			c-0.659,0-1.194-0.535-1.194-1.194c0-0.658,0.535-1.195,1.194-1.195C284.662,64.54,285.196,65.077,285.196,65.735"/>
	</g>
</g>
</svg>
