<?xml version="1.0" encoding="utf-8"?>
<!-- Generator: Adobe Illustrator 16.0.4, SVG Export Plug-In . SVG Version: 6.00 Build 0)  -->
<!DOCTYPE svg PUBLIC "-//W3C//DTD SVG 1.1//EN" "http://www.w3.org/Graphics/SVG/1.1/DTD/svg11.dtd">
<svg version="1.1" xmlns="http://www.w3.org/2000/svg" xmlns:xlink="http://www.w3.org/1999/xlink" x="0px" y="0px" width="550px"
	 height="1000px" viewBox="0 0 550 1000" enable-background="new 0 0 550 1000" xml:space="preserve">
<g id="raster_map" display="none">
</g>
<g id="screens">
	<rect x="56" y="98.184" fill="#FFFFFF" width="440" height="782"/>
	<path fill="#333333" d="M80.619,119.789l-8.953-15.507c-0.486-0.842-1.281-0.842-1.767,0l-8.954,15.507
		c-0.485,0.843-0.088,1.531,0.884,1.531h17.908C80.708,121.32,81.104,120.632,80.619,119.789z M72.019,118.86h-2.471v-2.391h2.471
		V118.86z M72.019,114.956h-2.471v-5.66h2.471V114.956z"/>
	<rect x="56" y="128.184" fill="#00244C" width="440" height="59"/>
	<g>
		<path fill="#FFFFFF" d="M466.154,153.087c-0.092-0.071-0.197-0.12-0.319-0.149c-0.12-0.027-0.25-0.042-0.387-0.042
			c-0.138,0-0.269,0.015-0.392,0.042c-0.123,0.029-0.23,0.078-0.322,0.149c-0.092,0.069-0.163,0.163-0.216,0.278
			c-0.052,0.115-0.078,0.26-0.078,0.435c0,0.17,0.026,0.312,0.078,0.43c0.053,0.117,0.124,0.213,0.216,0.283
			s0.199,0.121,0.322,0.152c0.123,0.029,0.254,0.045,0.392,0.045c0.137,0,0.267-0.016,0.387-0.045
			c0.122-0.031,0.228-0.082,0.319-0.152c0.09-0.07,0.164-0.166,0.219-0.283c0.054-0.117,0.081-0.26,0.081-0.43
			c0-0.175-0.027-0.319-0.081-0.435C466.318,153.25,466.244,153.156,466.154,153.087z"/>
		<rect x="464.519" y="155.553" fill="#FFFFFF" width="1.852" height="6.783"/>
		<path fill="#FFFFFF" d="M465.443,148.625c-5.005,0-9.076,4.073-9.076,9.078s4.071,9.078,9.076,9.078
			c5.006,0,9.078-4.073,9.078-9.078S470.449,148.625,465.443,148.625z M465.443,165.47c-4.282,0-7.766-3.483-7.766-7.767
			s3.483-7.767,7.766-7.767c4.283,0,7.767,3.483,7.767,7.767S469.727,165.47,465.443,165.47z"/>
	</g>
	<g>
		<path fill="#FFFFFF" d="M130.047,163.231l0.28,0.962h0.038l0.28-0.962l4.091-11.303h1.206l-5.062,13.601h-1.065l-5.062-13.601
			h1.214L130.047,163.231z"/>
		<path fill="#FFFFFF" d="M147.17,152.882h-4.614v12.647h-1.121v-12.647h-4.614v-0.953h10.35V152.882z"/>
		<path fill="#FFFFFF" d="M161.929,162.194c0-0.76-0.271-1.368-0.813-1.826c-0.542-0.457-1.513-0.87-2.914-1.237
			c-1.52-0.38-2.654-0.862-3.404-1.448c-0.751-0.585-1.125-1.395-1.125-2.429c0-1.058,0.421-1.91,1.265-2.555
			c0.845-0.645,1.951-0.967,3.32-0.967c1.427,0,2.566,0.387,3.419,1.158c0.854,0.772,1.28,1.743,1.28,2.914h-1.112
			c0-0.928-0.317-1.68-0.952-2.256c-0.636-0.576-1.514-0.863-2.635-0.863c-1.107,0-1.965,0.24-2.567,0.719
			c-0.604,0.48-0.907,1.087-0.907,1.821c0,0.697,0.277,1.271,0.832,1.719c0.554,0.449,1.537,0.851,2.952,1.205
			c1.487,0.381,2.606,0.882,3.357,1.504c0.751,0.623,1.126,1.464,1.126,2.522c0,1.108-0.438,1.978-1.312,2.606
			c-0.875,0.629-2.013,0.943-3.414,0.943c-1.389,0-2.585-0.337-3.587-1.014c-1.004-0.676-1.505-1.692-1.505-3.05h1.112
			c0,1.083,0.39,1.875,1.167,2.372c0.779,0.499,1.716,0.748,2.812,0.748c1.096,0,1.971-0.233,2.624-0.701
			C161.602,163.614,161.929,162.985,161.929,162.194z"/>
		<path fill="#FFFFFF" d="M166.954,152.835v2.587h2.12v0.916h-2.12v6.585c0,0.673,0.11,1.144,0.332,1.416
			c0.221,0.27,0.521,0.405,0.901,0.405c0.161,0,0.308-0.007,0.438-0.023c0.131-0.016,0.299-0.042,0.504-0.079l0.16,0.841
			c-0.168,0.068-0.369,0.125-0.598,0.168c-0.231,0.044-0.465,0.065-0.702,0.065c-0.697,0-1.231-0.216-1.602-0.648
			c-0.37-0.434-0.555-1.148-0.555-2.145v-6.585h-1.663v-0.916h1.663v-2.587H166.954z"/>
		<path fill="#FFFFFF" d="M177.809,165.529c-0.074-0.349-0.128-0.642-0.159-0.878s-0.046-0.477-0.046-0.72l-0.029-0.009
			c-0.366,0.522-0.855,0.952-1.466,1.289c-0.611,0.336-1.311,0.504-2.103,0.504c-1.002,0-1.771-0.255-2.306-0.766
			c-0.537-0.511-0.804-1.215-0.804-2.111c0-0.953,0.396-1.705,1.19-2.255c0.794-0.553,1.889-0.827,3.283-0.827h2.233v-1.252
			c0-0.734-0.229-1.305-0.688-1.71c-0.457-0.404-1.109-0.606-1.957-0.606c-0.797,0-1.447,0.195-1.951,0.584
			c-0.505,0.389-0.758,0.869-0.758,1.442l-1.11-0.009c0-0.797,0.358-1.491,1.078-2.083c0.719-0.592,1.649-0.888,2.789-0.888
			s2.041,0.278,2.709,0.836c0.665,0.558,0.998,1.375,0.998,2.452v4.97c0,0.361,0.019,0.706,0.057,1.036
			c0.037,0.331,0.105,0.664,0.205,1H177.809z M174.137,164.735c0.822,0,1.537-0.186,2.145-0.557c0.607-0.37,1.047-0.854,1.322-1.452
			v-2.11h-2.252c-1.034,0-1.85,0.214-2.447,0.64c-0.599,0.427-0.897,0.967-0.897,1.62c0,0.555,0.186,1.003,0.557,1.346
			C172.934,164.564,173.458,164.735,174.137,164.735z"/>
		<path fill="#FFFFFF" d="M183.31,152.835v2.587h2.121v0.916h-2.121v6.585c0,0.673,0.11,1.144,0.332,1.416
			c0.221,0.27,0.521,0.405,0.901,0.405c0.162,0,0.309-0.007,0.439-0.023c0.131-0.016,0.299-0.042,0.505-0.079l0.158,0.841
			c-0.169,0.068-0.367,0.125-0.599,0.168c-0.229,0.044-0.463,0.065-0.699,0.065c-0.698,0-1.232-0.216-1.603-0.648
			c-0.371-0.434-0.557-1.148-0.557-2.145v-6.585h-1.662v-0.916h1.662v-2.587H183.31z"/>
		<path fill="#FFFFFF" d="M191.661,165.716c-1.346,0-2.434-0.456-3.265-1.369c-0.831-0.911-1.247-2.103-1.247-3.572v-0.514
			c0-1.476,0.412-2.682,1.237-3.619s1.839-1.406,3.041-1.406c1.264,0,2.243,0.385,2.938,1.153c0.694,0.77,1.042,1.824,1.042,3.162
			v0.953h-7.137v0.271c0,1.158,0.308,2.114,0.924,2.868c0.617,0.754,1.438,1.13,2.467,1.13c0.616,0,1.156-0.089,1.621-0.266
			c0.463-0.179,0.904-0.46,1.321-0.846l0.476,0.766c-0.379,0.399-0.844,0.714-1.391,0.943
			C193.14,165.601,192.464,165.716,191.661,165.716z M191.428,156.188c-0.841,0-1.54,0.312-2.098,0.938
			c-0.557,0.625-0.898,1.438-1.022,2.434h5.987v-0.28c0-0.897-0.251-1.637-0.756-2.219S192.33,156.188,191.428,156.188z"/>
		<path fill="#FFFFFF" d="M210.241,158.943h-6.549v5.643h7.501v0.943h-8.612v-13.601h8.565v0.953h-7.454v5.109h6.549V158.943z"/>
		<path fill="#FFFFFF" d="M214.546,165.529h-1.11v-14.572h1.11V165.529z"/>
		<path fill="#FFFFFF" d="M221.533,165.716c-1.345,0-2.433-0.456-3.265-1.369c-0.831-0.911-1.246-2.103-1.246-3.572v-0.514
			c0-1.476,0.412-2.682,1.237-3.619c0.824-0.938,1.839-1.406,3.041-1.406c1.264,0,2.242,0.385,2.938,1.153
			c0.693,0.77,1.042,1.824,1.042,3.162v0.953h-7.137v0.271c0,1.158,0.308,2.114,0.924,2.868s1.438,1.13,2.466,1.13
			c0.616,0,1.156-0.089,1.621-0.266c0.464-0.179,0.904-0.46,1.322-0.846l0.476,0.766c-0.38,0.399-0.844,0.714-1.391,0.943
			C223.013,165.601,222.337,165.716,221.533,165.716z M221.301,156.188c-0.841,0-1.541,0.312-2.098,0.938
			c-0.557,0.625-0.898,1.438-1.022,2.434h5.986v-0.28c0-0.897-0.251-1.637-0.755-2.219
			C222.907,156.479,222.202,156.188,221.301,156.188z"/>
		<path fill="#FFFFFF" d="M231.239,164.772c0.76,0,1.408-0.205,1.947-0.616c0.538-0.411,0.826-0.993,0.863-1.747h1.075
			c-0.032,0.972-0.421,1.766-1.168,2.382c-0.747,0.617-1.652,0.925-2.718,0.925c-1.401,0-2.471-0.462-3.209-1.388
			c-0.738-0.924-1.106-2.143-1.106-3.656v-0.393c0-1.5,0.368-2.717,1.106-3.647s1.805-1.396,3.199-1.396
			c1.121,0,2.043,0.324,2.765,0.972c0.723,0.647,1.099,1.522,1.131,2.625h-1.075c-0.03-0.81-0.311-1.453-0.84-1.929
			c-0.529-0.478-1.189-0.715-1.98-0.715c-1.108,0-1.916,0.383-2.424,1.148c-0.508,0.767-0.761,1.747-0.761,2.942v0.393
			c0,1.221,0.253,2.21,0.761,2.965C229.313,164.395,230.124,164.772,231.239,164.772z"/>
		<path fill="#FFFFFF" d="M239.02,152.835v2.587h2.121v0.916h-2.121v6.585c0,0.673,0.11,1.144,0.332,1.416
			c0.221,0.27,0.521,0.405,0.901,0.405c0.162,0,0.309-0.007,0.439-0.023c0.131-0.016,0.299-0.042,0.505-0.079l0.157,0.841
			c-0.168,0.068-0.366,0.125-0.598,0.168c-0.229,0.044-0.463,0.065-0.699,0.065c-0.698,0-1.232-0.216-1.603-0.648
			c-0.371-0.434-0.557-1.148-0.557-2.145v-6.585h-1.662v-0.916h1.662v-2.587H239.02z"/>
		<path fill="#FFFFFF" d="M244.728,152.526h-1.112v-1.569h1.112V152.526z M244.728,165.529h-1.112v-10.107h1.112V165.529z"/>
		<path fill="#FFFFFF" d="M247.194,160.326c0-1.52,0.4-2.747,1.204-3.685c0.803-0.938,1.89-1.406,3.261-1.406
			c1.375,0,2.466,0.469,3.27,1.406c0.803,0.938,1.204,2.165,1.204,3.685v0.309c0,1.525-0.4,2.755-1.2,3.686
			c-0.801,0.931-1.886,1.396-3.255,1.396c-1.383,0-2.477-0.465-3.279-1.396c-0.804-0.931-1.204-2.16-1.204-3.686V160.326z
			 M248.314,160.635c0,1.195,0.291,2.184,0.873,2.965c0.583,0.782,1.412,1.173,2.49,1.173c1.064,0,1.888-0.391,2.47-1.173
			c0.582-0.781,0.874-1.77,0.874-2.965v-0.309c0-1.171-0.294-2.152-0.883-2.947c-0.589-0.793-1.415-1.19-2.479-1.19
			c-1.072,0-1.897,0.397-2.477,1.19c-0.579,0.795-0.868,1.776-0.868,2.947V160.635z"/>
		<path fill="#FFFFFF" d="M259.486,155.422l0.094,1.868l0.027,0.01c0.324-0.642,0.763-1.146,1.317-1.514
			c0.554-0.367,1.204-0.551,1.952-0.551c1.09,0,1.915,0.317,2.476,0.953c0.561,0.635,0.841,1.659,0.841,3.073v6.268h-1.121v-6.249
			c0-1.152-0.205-1.952-0.616-2.401c-0.411-0.448-1.027-0.672-1.85-0.672c-0.761,0-1.391,0.218-1.892,0.653
			c-0.501,0.437-0.877,0.99-1.126,1.663v7.006h-1.121v-10.107H259.486z"/>
	</g>
	<g>
		<rect x="56" y="97.643" width="440" height="30.557"/>
		<polygon fill="#FFFFFF" points="453.222,119.643 452,119.643 452,109.684 449.556,109.715 449.556,108.612 453.222,108.194 		"/>
		<path fill="#FFFFFF" d="M465.444,119.643h-7.332v-1.207l3.742-4.104c0.661-0.74,1.128-1.328,1.365-1.763
			c0.236-0.436,0.363-0.879,0.363-1.334c0-0.563-0.158-1.04-0.488-1.425c-0.327-0.385-0.761-0.577-1.304-0.577
			c-0.78,0-1.354-0.017-1.726,0.385c-0.369,0.401-0.553,1.47-0.553,1.47h-1.466l-0.015,0.172c-0.025-0.974,0.296-1.683,0.969-2.344
			c0.672-0.663,1.604-0.938,2.792-0.938c1.015,0,1.822,0.322,2.426,0.913c0.603,0.593,0.903,1.361,0.903,2.276
			c0,0.615-0.182,1.238-0.546,1.856s-0.875,1.284-1.534,1.993l-2.971,3.297l0.016,0.106h5.357V119.643z"/>
		<path fill="#FFFFFF" d="M469.001,112.693h-1.527v-1.583h1.527V112.693z M469.001,119.49h-1.527v-1.583h1.527V119.49z"/>
		<path fill="#FFFFFF" d="M472.778,113.532h1.802c0.676,0,1.156-0.367,1.439-0.706c0.28-0.339,0.423-0.909,0.423-1.516
			c0-0.646-0.161-1.188-0.482-1.523c-0.32-0.335-0.793-0.528-1.421-0.528c-0.594,0-1.071,0.131-1.43,0.48
			c-0.36,0.348-0.539,1.349-0.539,1.349h-1.467l-0.016-0.016c-0.024-0.854,0.284-1.562,0.928-2.161
			c0.643-0.597,1.485-0.887,2.523-0.887c1.047,0,1.879,0.28,2.499,0.835c0.621,0.558,0.931,1.354,0.931,2.381
			c0,0.466-0.14,0.932-0.422,1.394c-0.282,0.463-0.704,0.816-1.27,1.06c0.678,0.224,1.158,0.571,1.441,1.049
			c0.28,0.477,0.421,1.008,0.421,1.598c0,1.029-0.337,1.84-1.012,2.43c-0.676,0.59-1.538,0.883-2.589,0.883
			c-1.029,0-1.881-0.277-2.554-0.833c-0.677-0.556-1.001-1.578-0.976-2.529l0.024-0.314h1.46c0,1.223,0.182,1.332,0.546,1.682
			c0.363,0.35,0.865,0.659,1.499,0.659c0.647,0,1.154-0.108,1.523-0.458c0.365-0.351,0.549-0.836,0.549-1.521
			c0-0.696-0.162-0.983-0.489-1.314c-0.324-0.329-0.839-0.27-1.542-0.27h-1.802V113.532z"/>
		<path fill="#FFFFFF" d="M487.444,115.184c0,1.444-0.416,2.55-1.057,3.317c-0.639,0.768-1.562,1.151-2.675,1.151
			c-1.111,0-1.988-0.385-2.635-1.155c-0.647-0.771-0.967-1.875-0.967-3.313v-2.676c0-1.438,0.295-2.544,0.938-3.317
			c0.645-0.773,1.507-1.159,2.614-1.159c1.109,0,2.079,0.386,2.724,1.159s1.058,1.879,1.058,3.317V115.184z M486.223,112.179
			c0-0.976-0.428-1.711-0.784-2.205c-0.353-0.492-0.992-0.74-1.664-0.74s-1.372,0.248-1.725,0.74
			c-0.352,0.494-0.716,1.229-0.716,2.205v3.311c0,0.976,0.304,1.714,0.66,2.213c0.357,0.499,0.935,0.748,1.606,0.748
			c0.674,0,1.467-0.248,1.816-0.744c0.349-0.495,0.806-1.234,0.806-2.217V112.179z"/>
		<path fill="#FFFFFF" d="M409.368,121.674h3.585v-8.783l-3.585,3.97V121.674z M413.824,121.674h3.614v-13.875l-3.614,4.084V121.674
			z M418.338,106.819v14.883l3.563-0.028V102.9L418.338,106.819z M408.441,121.674v-3.806l-3.51,3.806H408.441z"/>
		<path fill="#FFFFFF" d="M384.633,110.976l2.364,2.748c1.828-1.419,4.158-2.271,6.699-2.271c2.538,0,4.872,0.852,6.698,2.271
			l2.36-2.742c-2.47-1.921-5.626-3.073-9.059-3.073C390.259,107.908,387.105,109.061,384.633,110.976 M381.713,107.583l2.363,2.745
			c2.621-2.035,5.971-3.26,9.62-3.26c3.645,0,6.996,1.225,9.619,3.26l2.365-2.745C398.724,102.182,388.669,102.182,381.713,107.583
			 M390.614,117.926h-0.002l3.084,3.583l3.084-3.583c-0.832-0.702-1.91-1.13-3.084-1.13
			C392.52,116.796,391.442,117.221,390.614,117.926 M387.563,114.383l2.49,2.894h0.004c0.981-0.828,2.249-1.331,3.639-1.331
			c1.387,0,2.657,0.506,3.638,1.334l2.494-2.896c-1.676-1.299-3.807-2.078-6.132-2.078S389.235,113.084,387.563,114.383"/>
		<polygon fill-rule="evenodd" clip-rule="evenodd" fill="#FFFFFF" points="443.444,122.087 443.444,104.976 439.778,104.976 
			439.778,103.755 433.666,103.755 433.666,104.976 430,104.976 430,122.087 		"/>
	</g>
	<rect x="56" y="821.645" width="440" height="58.667"/>
	<g opacity="0.4">
		<g>
			<defs>
				<rect id="SVGID_67_" x="133.614" y="842.423" width="40.327" height="20.778"/>
			</defs>
			<clipPath id="SVGID_2_">
				<use xlink:href="#SVGID_67_"  overflow="visible"/>
			</clipPath>
			<path clip-path="url(#SVGID_2_)" fill="#FFFFFF" d="M165.388,848.533h-27.347l5.349-6.11h-3.364l-6.411,7.334l6.411,7.333h3.364
				l-5.349-6.111h27.347c2.787,0,6.111,0.848,6.111,4.889c0,4.04-3.324,4.889-6.111,4.889h-14.055v2.445h14.055
				c5.357,0,8.554-2.743,8.554-7.334S170.745,848.533,165.388,848.533"/>
		</g>
	</g>
	<g opacity="0.4">
		<g>
			<defs>
				<rect id="SVGID_69_" x="254" y="840.627" width="44" height="22.574"/>
			</defs>
			<clipPath id="SVGID_4_">
				<use xlink:href="#SVGID_69_"  overflow="visible"/>
			</clipPath>
			<path clip-path="url(#SVGID_4_)" fill-rule="evenodd" clip-rule="evenodd" fill="#FFFFFF" d="M275.972,840.628L254,848.427
				v14.774h44v-14.739L275.972,840.628z M275.972,843.181l19.584,6.885v10.69h-39.11V850.1L275.972,843.181z"/>
		</g>
	</g>
	<g opacity="0.4">
		<g>
			<defs>
				<rect id="SVGID_71_" x="378.666" y="841.812" width="41.556" height="21.39"/>
			</defs>
			<clipPath id="SVGID_6_">
				<use xlink:href="#SVGID_71_"  overflow="visible"/>
			</clipPath>
			<path clip-path="url(#SVGID_6_)" fill-rule="evenodd" clip-rule="evenodd" fill="#FFFFFF" d="M378.669,862.589h34.219v-14.628
				v-0.037h-34.219V862.589z M381.113,850.369h29.331v9.776h-29.331V850.369z M388.445,841.813v2.443h29.331v12.222h2.443V841.85
				v-0.036H388.445z"/>
			<path clip-path="url(#SVGID_6_)" fill-rule="evenodd" clip-rule="evenodd" fill="#FFFFFF" d="M378.666,863.201h34.223v-14.668
				h-34.223V863.201z M410.444,860.756h-29.333v-9.777h29.333V860.756z"/>
			<polygon clip-path="url(#SVGID_6_)" fill-rule="evenodd" clip-rule="evenodd" fill="#FFFFFF" points="388.444,842.423 
				388.444,844.867 417.778,844.867 417.778,858.312 420.222,858.312 420.222,844.867 420.222,842.423 			"/>
		</g>
	</g>
	<line fill="none" stroke="#E6E6E6" stroke-miterlimit="10" x1="56" y1="246.684" x2="496" y2="246.684"/>
	<g>
		<g>
			<polygon fill="#B1B3B5" points="90.392,144.491 72.203,147.999 72.203,168.977 90.392,176.336 108.581,168.977 108.581,147.999 
							"/>
			<g>
				<g>
					<polygon fill="#FFFFFF" points="73.273,168.257 90.392,175.181 90.392,164.144 73.273,158.568 					"/>
					<polygon fill="#D71921" points="88.252,174.314 90.392,175.181 90.392,164.144 88.252,163.447 					"/>
					<polygon fill="#D71921" points="79.693,170.894 83.972,172.581 83.972,162.053 79.693,160.66 					"/>
					<polygon fill="#D71921" points="73.273,168.257 75.413,169.114 75.413,159.262 73.273,158.568 					"/>
					<polygon fill="#0067AB" points="73.273,158.568 90.392,164.144 90.392,153.105 73.273,148.883 					"/>
					<polygon fill="#FFFFFF" points="86.764,156.749 86.127,154.348 85.488,156.391 83.424,155.809 85.095,157.652 84.488,159.59 
						86.074,158.734 87.796,160.633 87.138,158.158 88.724,157.299 					"/>
					<polygon fill="#FFFFFF" points="78.178,154.331 77.566,152.034 76.957,153.987 74.98,153.431 76.579,155.194 76.001,157.048 
						77.514,156.228 79.165,158.05 78.535,155.677 80.048,154.856 					"/>
				</g>
				<g>
					<polygon fill="#B1B3B5" points="107.511,168.257 90.392,175.181 90.392,164.144 107.511,158.568 					"/>
					<polygon fill="#8A0304" points="92.532,174.314 90.392,175.181 90.392,164.144 92.532,163.447 					"/>
					<polygon fill="#8A0304" points="101.091,170.894 96.812,172.581 96.812,162.053 101.091,160.66 					"/>
					<polygon fill="#8A0304" points="107.511,168.257 105.371,169.114 105.371,159.262 107.511,158.568 					"/>
					<polygon fill="#004071" points="107.511,158.568 90.392,164.144 90.392,153.105 107.511,148.883 					"/>
					<polygon fill="#B1B3B5" points="95.295,156.391 94.657,154.348 94.02,156.749 92.06,157.299 93.646,158.158 92.988,160.634 
						94.709,158.734 96.296,159.59 95.689,157.652 97.358,155.809 					"/>
					<polygon fill="#B1B3B5" points="105.803,153.431 103.828,153.987 103.217,152.034 102.606,154.331 100.734,154.856 
						102.249,155.677 101.619,158.05 103.269,156.228 104.783,157.048 104.204,155.194 					"/>
				</g>
				<g>
					<polygon fill="#FFFFFF" points="107.511,148.883 90.392,145.582 73.273,148.883 90.392,153.105 					"/>
					<line fill="#0067AB" x1="94.325" y1="147.66" x2="97.003" y2="148.202"/>
					<g>
						<polygon fill="#B1B3B5" points="94.325,141.554 86.539,143.055 86.539,150.525 94.325,148.797 						"/>
						<polygon fill="#004071" points="94.325,147.66 94.325,148.797 97.003,148.202 						"/>
						<polygon fill="#004071" points="83.861,149.897 86.539,149.325 86.539,150.525 						"/>
					</g>
				</g>
			</g>
		</g>
	</g>
	<g>
		<path fill="#0067AC" d="M86.211,276.498l0.17,0.739h0.025l0.161-0.723l2.691-9.095h2.616l-4.204,12.364h-2.547L80.92,267.42h2.624
			L86.211,276.498z"/>
		<path fill="#0067AC" d="M102.625,269.331h-3.906v10.453h-2.479v-10.453h-3.889v-1.911h10.274V269.331z"/>
		<path fill="#0067AC" d="M115.092,276.558c0-0.486-0.164-0.87-0.493-1.15c-0.328-0.28-0.923-0.551-1.783-0.812
			c-1.5-0.431-2.619-0.932-3.358-1.503s-1.108-1.373-1.108-2.403s0.427-1.862,1.278-2.496c0.852-0.635,1.96-0.951,3.324-0.951
			c1.387,0,2.504,0.356,3.351,1.069c0.847,0.714,1.27,1.625,1.27,2.734h-2.479c0-0.583-0.188-1.048-0.561-1.396
			c-0.374-0.349-0.911-0.522-1.614-0.522c-0.679,0-1.197,0.146-1.554,0.438s-0.535,0.669-0.535,1.134
			c0,0.431,0.189,0.775,0.569,1.036s1.053,0.543,2.021,0.849c1.387,0.391,2.426,0.89,3.116,1.495s1.036,1.427,1.036,2.463
			c0,1.08-0.41,1.921-1.231,2.521s-1.931,0.9-3.329,0.9c-1.376,0-2.559-0.343-3.55-1.027c-0.99-0.686-1.485-1.679-1.485-2.98h2.479
			c0,0.753,0.221,1.296,0.662,1.63s1.072,0.501,1.894,0.501c0.69,0,1.21-0.137,1.559-0.412
			C114.917,277.399,115.092,277.027,115.092,276.558z"/>
		<path fill="#0067AC" d="M122.114,268.346v2.251h1.579v1.74h-1.579v4.671c0,0.367,0.069,0.626,0.208,0.772
			c0.139,0.147,0.327,0.221,0.564,0.221c0.142,0,0.264-0.008,0.365-0.021c0.102-0.013,0.219-0.038,0.349-0.071l0.203,1.766
			c-0.221,0.085-0.46,0.153-0.717,0.204c-0.258,0.051-0.531,0.076-0.82,0.076c-0.859,0-1.513-0.229-1.957-0.692
			c-0.444-0.462-0.667-1.21-0.667-2.246v-4.679h-1.239v-1.74h1.239v-2.251H122.114z"/>
		<path fill="#0067AC" d="M130.394,279.784c-0.074-0.17-0.139-0.348-0.195-0.535c-0.057-0.187-0.102-0.379-0.136-0.577
			c-0.289,0.391-0.637,0.702-1.045,0.935c-0.407,0.231-0.889,0.348-1.443,0.348c-0.917,0-1.636-0.245-2.157-0.734
			c-0.521-0.489-0.781-1.165-0.781-2.025c0-0.917,0.34-1.619,1.02-2.105c0.68-0.487,1.698-0.73,3.057-0.73h1.266v-0.73
			c0-0.453-0.114-0.798-0.344-1.036c-0.229-0.237-0.576-0.356-1.04-0.356c-0.419,0-0.737,0.094-0.956,0.284
			c-0.218,0.19-0.326,0.46-0.326,0.812h-2.472c0-0.821,0.355-1.511,1.065-2.068c0.711-0.557,1.66-0.836,2.85-0.836
			c1.121,0,2.02,0.272,2.696,0.819s1.015,1.346,1.015,2.398v3.796c0,0.441,0.032,0.849,0.098,1.219s0.168,0.746,0.31,1.125H130.394z
			 M128.245,278.129c0.38,0,0.721-0.079,1.023-0.238c0.303-0.158,0.539-0.362,0.709-0.611v-1.52h-1.266
			c-0.543,0-0.946,0.128-1.21,0.386c-0.263,0.259-0.395,0.579-0.395,0.964c0,0.312,0.101,0.56,0.302,0.743
			S127.889,278.129,128.245,278.129z"/>
		<path fill="#0067AC" d="M137.298,268.346v2.251h1.579v1.74h-1.579v4.671c0,0.367,0.069,0.626,0.208,0.772
			c0.138,0.147,0.327,0.221,0.564,0.221c0.142,0,0.264-0.008,0.365-0.021c0.102-0.013,0.218-0.038,0.348-0.071l0.204,1.766
			c-0.221,0.085-0.46,0.153-0.718,0.204c-0.257,0.051-0.53,0.076-0.819,0.076c-0.86,0-1.513-0.229-1.957-0.692
			c-0.444-0.462-0.667-1.21-0.667-2.246v-4.679h-1.239v-1.74h1.239v-2.251H137.298z"/>
		<path fill="#0067AC" d="M144.252,279.954c-1.353,0-2.418-0.416-3.196-1.248c-0.779-0.832-1.168-1.917-1.168-3.253v-0.339
			c0-1.393,0.369-2.523,1.108-3.393c0.738-0.87,1.751-1.301,3.035-1.295c1.269,0,2.238,0.367,2.909,1.104s1.006,1.752,1.006,3.049
			v1.35h-5.554c0.074,0.646,0.289,1.161,0.646,1.546s0.85,0.577,1.478,0.577c0.561,0,1.018-0.053,1.371-0.161
			c0.354-0.107,0.749-0.28,1.185-0.518l0.544,1.639c-0.368,0.277-0.838,0.504-1.41,0.68
			C145.634,279.867,144.982,279.954,144.252,279.954z M144.031,272.337c-0.47,0-0.836,0.174-1.1,0.522
			c-0.263,0.348-0.435,0.825-0.514,1.431h3.1v-0.221c0-0.537-0.12-0.96-0.36-1.27C144.916,272.491,144.541,272.337,144.031,272.337z
			"/>
		<path fill="#0067AC" d="M161.524,274.35h-5.12v3.532h5.986v1.902h-8.466V267.42h8.449v1.911h-5.97v3.108h5.12V274.35z"/>
		<path fill="#0067AC" d="M166.314,279.784h-2.479v-13.247h2.479V279.784z"/>
		<path fill="#0067AC" d="M172.42,279.954c-1.353,0-2.419-0.416-3.197-1.248s-1.168-1.917-1.168-3.253v-0.339
			c0-1.393,0.37-2.523,1.108-3.393c0.739-0.87,1.751-1.301,3.036-1.295c1.268,0,2.237,0.367,2.908,1.104s1.007,1.752,1.007,3.049
			v1.35h-5.554c0.073,0.646,0.288,1.161,0.645,1.546c0.357,0.385,0.85,0.577,1.478,0.577c0.561,0,1.018-0.053,1.372-0.161
			c0.354-0.107,0.749-0.28,1.185-0.518l0.543,1.639c-0.367,0.277-0.838,0.504-1.409,0.68S173.15,279.954,172.42,279.954z
			 M172.199,272.337c-0.47,0-0.837,0.174-1.1,0.522c-0.264,0.348-0.435,0.825-0.514,1.431h3.1v-0.221c0-0.537-0.121-0.96-0.361-1.27
			C173.084,272.491,172.709,272.337,172.199,272.337z"/>
		<path fill="#0067AC" d="M181.336,278.052c0.459,0,0.83-0.127,1.112-0.382c0.283-0.255,0.425-0.597,0.425-1.027h2.327
			c0,0.968-0.363,1.762-1.092,2.382c-0.728,0.62-1.634,0.93-2.721,0.93c-1.404,0-2.465-0.425-3.181-1.273
			c-0.716-0.85-1.074-1.968-1.074-3.354v-0.255c0-1.382,0.358-2.501,1.074-3.358s1.771-1.286,3.163-1.286
			c1.161,0,2.089,0.319,2.785,0.959s1.045,1.509,1.045,2.607h-2.327c0-0.481-0.136-0.877-0.407-1.189
			c-0.271-0.312-0.651-0.467-1.138-0.467c-0.663,0-1.114,0.246-1.354,0.739c-0.24,0.492-0.361,1.157-0.361,1.995v0.255
			c0,0.855,0.119,1.522,0.356,2.004C180.207,277.812,180.663,278.052,181.336,278.052z"/>
		<path fill="#0067AC" d="M189.514,268.346v2.251h1.58v1.74h-1.58v4.671c0,0.367,0.07,0.626,0.208,0.772
			c0.139,0.147,0.327,0.221,0.565,0.221c0.142,0,0.263-0.008,0.364-0.021c0.103-0.013,0.219-0.038,0.349-0.071l0.204,1.766
			c-0.221,0.085-0.461,0.153-0.718,0.204c-0.258,0.051-0.531,0.076-0.819,0.076c-0.86,0-1.514-0.229-1.958-0.692
			c-0.443-0.462-0.666-1.21-0.666-2.246v-4.679h-1.24v-1.74h1.24v-2.251H189.514z"/>
		<path fill="#0067AC" d="M195.008,268.396h-2.479v-1.859h2.479V268.396z M195.008,279.784h-2.479v-9.188h2.479V279.784z"/>
		<path fill="#0067AC" d="M196.664,275.105c0-1.398,0.376-2.528,1.13-3.389c0.753-0.859,1.816-1.29,3.192-1.29
			c1.387,0,2.458,0.431,3.214,1.29c0.756,0.86,1.134,1.99,1.134,3.389v0.179c0,1.409-0.376,2.539-1.129,3.392
			c-0.754,0.854-1.82,1.278-3.202,1.278c-1.387,0-2.456-0.425-3.209-1.278c-0.754-0.853-1.13-1.982-1.13-3.392V275.105z
			 M199.135,275.284c0,0.854,0.145,1.529,0.434,2.024c0.289,0.496,0.767,0.743,1.435,0.743c0.651,0,1.123-0.248,1.414-0.747
			c0.292-0.498,0.438-1.172,0.438-2.021v-0.179c0-0.832-0.146-1.502-0.441-2.009c-0.295-0.506-0.771-0.76-1.427-0.76
			c-0.651,0-1.122,0.255-1.414,0.765c-0.291,0.51-0.438,1.178-0.438,2.004V275.284z"/>
		<path fill="#0067AC" d="M209.13,270.597l0.11,1.273l0.025,0.009c0.3-0.465,0.67-0.823,1.108-1.074
			c0.439-0.252,0.938-0.378,1.499-0.378c0.945,0,1.675,0.284,2.187,0.854c0.512,0.568,0.769,1.49,0.769,2.764v5.74h-2.488v-5.731
			c0-0.629-0.121-1.069-0.365-1.32c-0.243-0.252-0.622-0.378-1.138-0.378c-0.34,0-0.635,0.066-0.888,0.199
			c-0.252,0.133-0.469,0.321-0.649,0.564v6.666h-2.479v-9.188H209.13z"/>
	</g>
	<g>
		<path fill="#808080" d="M87.132,292.135h0.917v7.972c0,1.034-0.298,1.846-0.894,2.434c-0.597,0.589-1.381,0.883-2.354,0.883
			c-1.064,0-1.896-0.268-2.495-0.802c-0.6-0.535-0.898-1.343-0.898-2.423h0.918c0,0.82,0.208,1.434,0.626,1.842
			c0.418,0.407,1.034,0.611,1.85,0.611c0.688,0,1.248-0.227,1.682-0.681c0.433-0.453,0.649-1.074,0.649-1.864V292.135z"/>
		<path fill="#808080" d="M95.883,303.263c-0.062-0.285-0.104-0.524-0.13-0.719c-0.025-0.193-0.038-0.39-0.038-0.588l-0.023-0.008
			c-0.3,0.428-0.7,0.779-1.199,1.055c-0.5,0.275-1.073,0.413-1.72,0.413c-0.82,0-1.45-0.209-1.888-0.627
			c-0.438-0.418-0.657-0.994-0.657-1.728c0-0.779,0.325-1.396,0.974-1.845c0.65-0.452,1.546-0.678,2.687-0.678h1.827v-1.023
			c0-0.602-0.188-1.067-0.562-1.398c-0.375-0.332-0.908-0.497-1.602-0.497c-0.652,0-1.185,0.159-1.598,0.478
			c-0.412,0.318-0.619,0.712-0.619,1.181l-0.909-0.008c0-0.651,0.295-1.22,0.883-1.704c0.589-0.484,1.349-0.726,2.281-0.726
			s1.671,0.229,2.217,0.684c0.545,0.456,0.817,1.125,0.817,2.006v4.066c0,0.296,0.016,0.578,0.046,0.849
			c0.03,0.27,0.087,0.542,0.168,0.817H95.883z M92.879,302.613c0.673,0,1.257-0.151,1.755-0.455
			c0.496-0.303,0.856-0.699,1.081-1.188v-1.728h-1.842c-0.846,0-1.514,0.175-2.003,0.524c-0.489,0.349-0.733,0.791-0.733,1.325
			c0,0.454,0.151,0.82,0.455,1.101C91.895,302.473,92.324,302.613,92.879,302.613z"/>
		<path fill="#808080" d="M99.896,294.993l0.076,1.528l0.022,0.008c0.266-0.524,0.625-0.938,1.078-1.238
			c0.453-0.3,0.985-0.45,1.598-0.45c0.892,0,1.566,0.26,2.024,0.779c0.459,0.52,0.688,1.357,0.688,2.515v5.128h-0.917v-5.113
			c0-0.942-0.168-1.597-0.505-1.964c-0.336-0.367-0.841-0.55-1.513-0.55c-0.622,0-1.139,0.178-1.549,0.534
			c-0.41,0.357-0.717,0.811-0.92,1.36v5.732h-0.917v-8.27H99.896z"/>
		<path fill="#808080" d="M113.193,301.94h-0.022c-0.26,0.474-0.609,0.838-1.048,1.093c-0.438,0.255-0.968,0.383-1.589,0.383
			c-0.892,0-1.58-0.288-2.063-0.864c-0.484-0.575-0.727-1.498-0.727-2.767v-4.792h0.917v4.808c0,1.029,0.168,1.758,0.505,2.186
			c0.336,0.428,0.828,0.642,1.475,0.642c0.708,0,1.265-0.152,1.671-0.458c0.404-0.306,0.688-0.736,0.852-1.292v-5.885h0.917v8.27
			h-0.811L113.193,301.94z"/>
		<path fill="#808080" d="M121.723,303.263c-0.062-0.285-0.104-0.524-0.13-0.719c-0.025-0.193-0.038-0.39-0.038-0.588l-0.023-0.008
			c-0.3,0.428-0.7,0.779-1.199,1.055c-0.5,0.275-1.073,0.413-1.72,0.413c-0.82,0-1.45-0.209-1.888-0.627
			c-0.438-0.418-0.657-0.994-0.657-1.728c0-0.779,0.325-1.396,0.974-1.845c0.65-0.452,1.546-0.678,2.687-0.678h1.827v-1.023
			c0-0.602-0.188-1.067-0.562-1.398c-0.375-0.332-0.908-0.497-1.602-0.497c-0.652,0-1.185,0.159-1.598,0.478
			c-0.412,0.318-0.619,0.712-0.619,1.181l-0.909-0.008c0-0.651,0.295-1.22,0.883-1.704c0.589-0.484,1.349-0.726,2.281-0.726
			s1.671,0.229,2.217,0.684c0.545,0.456,0.817,1.125,0.817,2.006v4.066c0,0.296,0.016,0.578,0.046,0.849
			c0.03,0.27,0.087,0.542,0.168,0.817H121.723z M118.719,302.613c0.673,0,1.257-0.151,1.755-0.455
			c0.496-0.303,0.856-0.699,1.081-1.188v-1.728h-1.842c-0.846,0-1.514,0.175-2.003,0.524c-0.489,0.349-0.733,0.791-0.733,1.325
			c0,0.454,0.151,0.82,0.455,1.101C117.734,302.473,118.164,302.613,118.719,302.613z"/>
		<path fill="#808080" d="M128.708,295.78l-0.68-0.046c-0.586,0-1.062,0.16-1.426,0.478c-0.365,0.319-0.625,0.766-0.783,1.342v5.709
			h-0.917v-8.27h0.802l0.115,1.376v0.038l0.022,0.008c0.234-0.499,0.548-0.887,0.94-1.162c0.393-0.274,0.871-0.412,1.437-0.412
			c0.117,0,0.23,0.009,0.34,0.026c0.109,0.019,0.2,0.037,0.271,0.058L128.708,295.78z"/>
		<path fill="#808080" d="M132.713,301.023l0.306,1.017h0.022l2.507-7.047h1.024l-3.592,9.592c-0.22,0.575-0.496,1.057-0.829,1.44
			c-0.334,0.385-0.835,0.577-1.502,0.577c-0.107,0-0.236-0.012-0.387-0.034c-0.15-0.023-0.263-0.047-0.34-0.073l0.107-0.764
			c0.062,0.01,0.159,0.021,0.294,0.034c0.135,0.014,0.233,0.02,0.295,0.02c0.412,0,0.723-0.117,0.928-0.348
			c0.207-0.232,0.42-0.621,0.639-1.166l0.436-1.116l-3.194-8.162h1.017L132.713,301.023z"/>
		<path fill="#808080" d="M147.279,299.679h1.743v0.771h-1.743v2.812h-0.909v-2.812h-5.22v-0.52l5.128-7.796h1.001V299.679z
			 M142.235,299.679h4.135v-6.397l-0.022-0.008l-0.413,0.879L142.235,299.679z"/>
		<path fill="#808080" d="M151.827,292.876v2.117h1.734v0.749h-1.734v5.389c0,0.55,0.09,0.936,0.271,1.158
			c0.182,0.221,0.428,0.332,0.738,0.332c0.133,0,0.252-0.006,0.359-0.02c0.106-0.013,0.244-0.034,0.412-0.064l0.13,0.688
			c-0.137,0.056-0.3,0.102-0.488,0.138c-0.188,0.035-0.38,0.054-0.573,0.054c-0.571,0-1.009-0.178-1.312-0.531
			c-0.303-0.354-0.454-0.939-0.454-1.754v-5.389h-1.36v-0.749h1.36v-2.117H151.827z"/>
		<path fill="#808080" d="M156.39,296.461l0.023,0.008c0.274-0.505,0.64-0.902,1.096-1.192c0.456-0.291,0.985-0.436,1.587-0.436
			c0.886,0,1.559,0.262,2.018,0.787c0.458,0.524,0.688,1.368,0.688,2.529v5.105h-0.917v-5.113c0-0.922-0.168-1.571-0.505-1.948
			c-0.336-0.377-0.841-0.565-1.513-0.565c-0.602,0-1.11,0.17-1.525,0.512c-0.415,0.341-0.732,0.779-0.951,1.314v5.801h-0.917V291.34
			h0.917V296.461z"/>
		<path fill="#808080" d="M165.049,302.896c0,0.479-0.094,0.938-0.282,1.376c-0.189,0.438-0.451,0.817-0.788,1.139l-0.542-0.397
			c0.244-0.341,0.423-0.675,0.535-1.001c0.111-0.326,0.168-0.693,0.168-1.101v-1.085h0.909V302.896z"/>
		<path fill="#808080" d="M177.735,303.263h-6.908v-0.703l3.646-4.135c0.688-0.774,1.166-1.411,1.437-1.91
			c0.27-0.5,0.405-0.989,0.405-1.468c0-0.703-0.193-1.261-0.577-1.674c-0.385-0.413-0.938-0.619-1.662-0.619
			c-0.861,0-1.508,0.231-1.938,0.691c-0.431,0.462-0.646,1.092-0.646,1.892h-0.909c0-0.968,0.309-1.771,0.925-2.407
			s1.473-0.955,2.568-0.955c0.973,0,1.743,0.271,2.312,0.813c0.567,0.543,0.853,1.285,0.853,2.229c0,0.621-0.188,1.239-0.565,1.853
			c-0.378,0.615-0.918,1.318-1.621,2.113l-3.103,3.509h5.785V303.263z"/>
		<path fill="#808080" d="M186.219,298.944c0,1.473-0.293,2.587-0.879,3.345c-0.586,0.756-1.432,1.134-2.537,1.134
			c-1.101,0-1.949-0.379-2.545-1.139c-0.596-0.759-0.895-1.872-0.895-3.34v-2.483c0-1.463,0.296-2.576,0.887-3.34
			c0.591-0.765,1.437-1.146,2.537-1.146s1.947,0.382,2.542,1.146c0.593,0.764,0.89,1.877,0.89,3.34V298.944z M185.302,296.308
			c0-1.167-0.209-2.051-0.627-2.651c-0.417-0.602-1.047-0.902-1.888-0.902c-0.84,0-1.469,0.301-1.884,0.902
			c-0.415,0.601-0.623,1.484-0.623,2.651v2.774c0,1.156,0.21,2.041,0.632,2.652c0.419,0.611,1.05,0.917,1.891,0.917
			c0.836,0,1.461-0.305,1.876-0.913c0.415-0.609,0.623-1.494,0.623-2.656V296.308z"/>
		<path fill="#808080" d="M192.311,303.263h-0.917v-10.127l-2.652,0.313v-0.634l3.569-0.711V303.263z"/>
		<path fill="#808080" d="M202.46,299.679h1.742v0.771h-1.742v2.812h-0.91v-2.812h-5.22v-0.52l5.129-7.796h1.001V299.679z
			 M197.416,299.679h4.134v-6.397l-0.022-0.008l-0.413,0.879L197.416,299.679z"/>
	</g>
	<line fill="none" stroke="#E6E6E6" stroke-miterlimit="10" x1="56" y1="321.684" x2="496" y2="321.684"/>
	<g>
		<path fill="#0067AC" d="M90.108,356.307h-8.441v-1.622l4-4.289c0.589-0.673,1.002-1.233,1.24-1.681
			c0.237-0.448,0.356-0.869,0.356-1.266c0-0.532-0.138-0.961-0.412-1.286c-0.274-0.326-0.675-0.488-1.201-0.488
			c-0.584,0-1.021,0.19-1.312,0.573c-0.291,0.382-0.438,0.901-0.438,1.558h-2.479c0-1.161,0.377-2.124,1.13-2.892
			s1.786-1.15,3.1-1.15c1.297,0,2.303,0.325,3.019,0.977s1.074,1.54,1.074,2.666c0,0.759-0.199,1.446-0.599,2.064
			c-0.399,0.617-1.083,1.445-2.051,2.487l-2.242,2.446h5.257V356.307z"/>
		<path fill="#0067AC" d="M99.976,351.491c0,1.671-0.367,2.921-1.104,3.749c-0.736,0.829-1.758,1.244-3.065,1.244
			c-1.313,0-2.342-0.415-3.083-1.244c-0.741-0.828-1.112-2.078-1.112-3.749v-2.726c0-1.665,0.368-2.914,1.104-3.749
			c0.735-0.836,1.76-1.253,3.073-1.253c1.308,0,2.333,0.417,3.074,1.253c0.741,0.835,1.112,2.084,1.112,3.749V351.491z
			 M97.505,348.511c0-1.002-0.145-1.725-0.434-2.17c-0.288-0.444-0.716-0.666-1.282-0.666c-0.571,0-0.999,0.222-1.282,0.666
			c-0.282,0.445-0.424,1.168-0.424,2.17v3.219c0,1.013,0.143,1.741,0.429,2.187c0.286,0.444,0.717,0.666,1.295,0.666
			c0.566,0,0.991-0.221,1.273-0.662c0.283-0.441,0.425-1.172,0.425-2.19V348.511z"/>
		<path fill="#0067AC" d="M107.33,356.307h-2.472v-9.749h-2.496v-1.579l4.968-1.036V356.307z"/>
		<path fill="#0067AC" d="M118.87,351.703h1.401v1.92h-1.401v2.684h-2.471v-2.684h-5.045l-0.11-1.486l5.13-8.194h2.496V351.703z
			 M113.555,351.703h2.845v-4.5l-0.025-0.009l-0.221,0.391L113.555,351.703z"/>
		<path fill="#0067AC" d="M128.704,351.822v4.484h-2.479v-12.364h4.925c1.449,0,2.575,0.356,3.376,1.069
			c0.801,0.714,1.201,1.673,1.201,2.879s-0.4,2.163-1.201,2.87c-0.801,0.708-1.927,1.062-3.376,1.062H128.704z M128.704,349.912
			h2.445c0.707,0,1.235-0.187,1.584-0.557c0.348-0.37,0.522-0.854,0.522-1.447c0-0.605-0.175-1.101-0.522-1.482
			c-0.349-0.382-0.877-0.573-1.584-0.573h-2.445V349.912z"/>
		<path fill="#0067AC" d="M142.282,349.309l-1.011-0.025c-0.373,0-0.678,0.072-0.913,0.217c-0.234,0.145-0.414,0.353-0.539,0.624
			v6.183h-2.471v-9.188h2.301l0.11,1.308l0.018,0.009c0.215-0.47,0.488-0.835,0.819-1.096s0.726-0.391,1.185-0.391
			c0.136,0,0.271,0.009,0.407,0.029c0.137,0.021,0.255,0.045,0.357,0.072L142.282,349.309z"/>
		<path fill="#0067AC" d="M146.273,344.919h-2.479v-1.86h2.479V344.919z M146.273,356.307h-2.479v-9.188h2.479V356.307z"/>
		<path fill="#0067AC" d="M150.612,347.118l0.103,1.172l0.025,0.009c0.289-0.437,0.651-0.771,1.087-1.003
			c0.436-0.231,0.948-0.348,1.537-0.348c0.601,0,1.105,0.127,1.516,0.382s0.727,0.651,0.947,1.189
			c0.288-0.504,0.655-0.892,1.1-1.164c0.443-0.271,0.978-0.407,1.601-0.407c0.928,0,1.649,0.306,2.161,0.917
			s0.769,1.571,0.769,2.879v5.562h-2.479v-5.571c0-0.707-0.11-1.194-0.331-1.46c-0.222-0.267-0.561-0.399-1.02-0.399
			c-0.362,0-0.669,0.076-0.921,0.229c-0.253,0.152-0.455,0.371-0.607,0.653c0,0.108,0.002,0.2,0.009,0.276
			c0.006,0.076,0.008,0.154,0.008,0.233v6.038h-2.471v-5.571c0-0.69-0.112-1.173-0.336-1.447c-0.223-0.275-0.564-0.412-1.022-0.412
			c-0.346,0-0.64,0.063-0.884,0.19c-0.243,0.128-0.45,0.308-0.62,0.54v6.7h-2.471v-9.188H150.612z"/>
		<path fill="#0067AC" d="M168.751,356.307c-0.073-0.17-0.138-0.349-0.195-0.535c-0.057-0.188-0.102-0.38-0.136-0.578
			c-0.288,0.391-0.637,0.703-1.044,0.935c-0.408,0.231-0.89,0.348-1.444,0.348c-0.917,0-1.636-0.245-2.156-0.734
			s-0.781-1.165-0.781-2.025c0-0.917,0.34-1.619,1.019-2.105c0.68-0.486,1.698-0.73,3.058-0.73h1.265v-0.73
			c0-0.452-0.114-0.798-0.344-1.036c-0.229-0.237-0.575-0.356-1.04-0.356c-0.419,0-0.737,0.095-0.955,0.284
			c-0.219,0.19-0.327,0.461-0.327,0.812h-2.472c0-0.821,0.355-1.511,1.066-2.068c0.711-0.557,1.66-0.836,2.849-0.836
			c1.121,0,2.02,0.272,2.696,0.819s1.015,1.346,1.015,2.399v3.796c0,0.441,0.032,0.848,0.098,1.218s0.168,0.746,0.311,1.126H168.751
			z M166.603,354.65c0.38,0,0.721-0.079,1.023-0.238c0.304-0.158,0.539-0.362,0.709-0.611v-1.52h-1.265
			c-0.544,0-0.947,0.128-1.21,0.386c-0.264,0.259-0.396,0.579-0.396,0.964c0,0.312,0.101,0.56,0.302,0.743
			S166.246,354.65,166.603,354.65z"/>
		<path fill="#0067AC" d="M177.634,349.309l-1.011-0.025c-0.373,0-0.678,0.072-0.913,0.217c-0.234,0.145-0.414,0.353-0.539,0.624
			v6.183H172.7v-9.188h2.301l0.11,1.308l0.018,0.009c0.215-0.47,0.488-0.835,0.819-1.096s0.726-0.391,1.185-0.391
			c0.136,0,0.271,0.009,0.407,0.029c0.137,0.021,0.255,0.045,0.357,0.072L177.634,349.309z"/>
		<path fill="#0067AC" d="M182.482,352.451l0.11,0.561h0.025l1.775-5.894h2.666l-3.728,10.563c-0.232,0.656-0.573,1.21-1.023,1.66
			s-1.134,0.676-2.051,0.676c-0.21,0-0.401-0.018-0.577-0.052c-0.176-0.033-0.394-0.082-0.654-0.144l0.289-1.81
			c0.073,0.012,0.152,0.023,0.237,0.034s0.161,0.018,0.229,0.018c0.431,0,0.745-0.081,0.942-0.242
			c0.198-0.162,0.368-0.432,0.51-0.812l0.289-0.713l-3.261-9.18h2.666L182.482,352.451z"/>
	</g>
	<g>
		<path fill="#808080" d="M87.132,368.656h0.917v7.972c0,1.034-0.298,1.847-0.894,2.434c-0.597,0.59-1.381,0.884-2.354,0.884
			c-1.064,0-1.896-0.268-2.495-0.803c-0.6-0.535-0.898-1.343-0.898-2.423h0.918c0,0.82,0.208,1.435,0.626,1.842
			s1.034,0.611,1.85,0.611c0.688,0,1.248-0.227,1.682-0.68c0.433-0.454,0.649-1.075,0.649-1.865V368.656z"/>
		<path fill="#808080" d="M95.883,379.784c-0.062-0.285-0.104-0.524-0.13-0.718c-0.025-0.194-0.038-0.391-0.038-0.589l-0.023-0.008
			c-0.3,0.428-0.7,0.779-1.199,1.055c-0.5,0.275-1.073,0.413-1.72,0.413c-0.82,0-1.45-0.209-1.888-0.627
			c-0.438-0.418-0.657-0.993-0.657-1.728c0-0.779,0.325-1.395,0.974-1.845c0.65-0.452,1.546-0.677,2.687-0.677h1.827v-1.024
			c0-0.602-0.188-1.067-0.562-1.398c-0.375-0.331-0.908-0.497-1.602-0.497c-0.652,0-1.185,0.159-1.598,0.479
			c-0.412,0.317-0.619,0.711-0.619,1.18l-0.909-0.007c0-0.652,0.295-1.221,0.883-1.705c0.589-0.483,1.349-0.726,2.281-0.726
			s1.671,0.229,2.217,0.684c0.545,0.457,0.817,1.125,0.817,2.007v4.065c0,0.296,0.016,0.578,0.046,0.849
			c0.03,0.27,0.087,0.543,0.168,0.817H95.883z M92.879,379.135c0.673,0,1.257-0.151,1.755-0.455
			c0.496-0.303,0.856-0.699,1.081-1.188v-1.727h-1.842c-0.846,0-1.514,0.174-2.003,0.523c-0.489,0.349-0.733,0.791-0.733,1.326
			c0,0.453,0.151,0.82,0.455,1.101C91.895,378.995,92.324,379.135,92.879,379.135z"/>
		<path fill="#808080" d="M99.896,371.515l0.076,1.529l0.022,0.007c0.266-0.524,0.625-0.938,1.078-1.237
			c0.453-0.301,0.985-0.451,1.598-0.451c0.892,0,1.566,0.26,2.024,0.779c0.459,0.52,0.688,1.358,0.688,2.515v5.128h-0.917v-5.112
			c0-0.943-0.168-1.598-0.505-1.965c-0.336-0.366-0.841-0.55-1.513-0.55c-0.622,0-1.139,0.178-1.549,0.535
			c-0.41,0.356-0.717,0.81-0.92,1.36v5.731h-0.917v-8.27H99.896z"/>
		<path fill="#808080" d="M113.193,378.462h-0.022c-0.26,0.475-0.609,0.839-1.048,1.093c-0.438,0.255-0.968,0.383-1.589,0.383
			c-0.892,0-1.58-0.288-2.063-0.864c-0.484-0.575-0.727-1.497-0.727-2.767v-4.792h0.917v4.808c0,1.029,0.168,1.758,0.505,2.186
			c0.336,0.429,0.828,0.643,1.475,0.643c0.708,0,1.265-0.153,1.671-0.459c0.404-0.306,0.688-0.736,0.852-1.291v-5.886h0.917v8.27
			h-0.811L113.193,378.462z"/>
		<path fill="#808080" d="M121.723,379.784c-0.062-0.285-0.104-0.524-0.13-0.718c-0.025-0.194-0.038-0.391-0.038-0.589l-0.023-0.008
			c-0.3,0.428-0.7,0.779-1.199,1.055c-0.5,0.275-1.073,0.413-1.72,0.413c-0.82,0-1.45-0.209-1.888-0.627
			c-0.438-0.418-0.657-0.993-0.657-1.728c0-0.779,0.325-1.395,0.974-1.845c0.65-0.452,1.546-0.677,2.687-0.677h1.827v-1.024
			c0-0.602-0.188-1.067-0.562-1.398c-0.375-0.331-0.908-0.497-1.602-0.497c-0.652,0-1.185,0.159-1.598,0.479
			c-0.412,0.317-0.619,0.711-0.619,1.18l-0.909-0.007c0-0.652,0.295-1.221,0.883-1.705c0.589-0.483,1.349-0.726,2.281-0.726
			s1.671,0.229,2.217,0.684c0.545,0.457,0.817,1.125,0.817,2.007v4.065c0,0.296,0.016,0.578,0.046,0.849
			c0.03,0.27,0.087,0.543,0.168,0.817H121.723z M118.719,379.135c0.673,0,1.257-0.151,1.755-0.455
			c0.496-0.303,0.856-0.699,1.081-1.188v-1.727h-1.842c-0.846,0-1.514,0.174-2.003,0.523c-0.489,0.349-0.733,0.791-0.733,1.326
			c0,0.453,0.151,0.82,0.455,1.101C117.734,378.995,118.164,379.135,118.719,379.135z"/>
		<path fill="#808080" d="M128.708,372.303l-0.68-0.046c-0.586,0-1.062,0.159-1.426,0.477c-0.365,0.319-0.625,0.767-0.783,1.342
			v5.709h-0.917v-8.27h0.802l0.115,1.376v0.038l0.022,0.008c0.234-0.499,0.548-0.887,0.94-1.161
			c0.393-0.275,0.871-0.413,1.437-0.413c0.117,0,0.23,0.009,0.34,0.026c0.109,0.019,0.2,0.037,0.271,0.058L128.708,372.303z"/>
		<path fill="#808080" d="M132.713,377.545l0.306,1.017h0.022l2.507-7.047h1.024l-3.592,9.592c-0.22,0.576-0.496,1.057-0.829,1.44
			c-0.334,0.386-0.835,0.577-1.502,0.577c-0.107,0-0.236-0.012-0.387-0.034c-0.15-0.023-0.263-0.047-0.34-0.072l0.107-0.765
			c0.062,0.011,0.159,0.022,0.294,0.034c0.135,0.014,0.233,0.02,0.295,0.02c0.412,0,0.723-0.116,0.928-0.348
			c0.207-0.232,0.42-0.62,0.639-1.166l0.436-1.115l-3.194-8.163h1.017L132.713,377.545z"/>
		<path fill="#808080" d="M147.279,376.2h1.743v0.771h-1.743v2.812h-0.909v-2.812h-5.22v-0.52l5.128-7.796h1.001V376.2z
			 M142.235,376.2h4.135v-6.397l-0.022-0.007l-0.413,0.879L142.235,376.2z"/>
		<path fill="#808080" d="M151.827,369.398v2.116h1.734v0.749h-1.734v5.389c0,0.55,0.09,0.936,0.271,1.158
			c0.182,0.221,0.428,0.332,0.738,0.332c0.133,0,0.252-0.006,0.359-0.02c0.106-0.012,0.244-0.034,0.412-0.064l0.13,0.688
			c-0.137,0.057-0.3,0.102-0.488,0.138s-0.38,0.054-0.573,0.054c-0.571,0-1.009-0.178-1.312-0.531
			c-0.303-0.354-0.454-0.938-0.454-1.754v-5.389h-1.36v-0.749h1.36v-2.116H151.827z"/>
		<path fill="#808080" d="M156.39,372.982l0.023,0.008c0.274-0.505,0.64-0.902,1.096-1.192s0.985-0.436,1.587-0.436
			c0.886,0,1.559,0.263,2.018,0.787c0.458,0.524,0.688,1.368,0.688,2.529v5.105h-0.917v-5.112c0-0.923-0.168-1.572-0.505-1.949
			c-0.336-0.377-0.841-0.565-1.513-0.565c-0.602,0-1.11,0.171-1.525,0.512c-0.415,0.342-0.732,0.779-0.951,1.314v5.801h-0.917
			v-11.922h0.917V372.982z"/>
		<path fill="#808080" d="M165.049,379.418c0,0.479-0.094,0.938-0.282,1.375c-0.189,0.438-0.451,0.818-0.788,1.139l-0.542-0.397
			c0.244-0.341,0.423-0.675,0.535-1.001c0.111-0.326,0.168-0.692,0.168-1.101v-1.085h0.909V379.418z"/>
		<path fill="#808080" d="M177.735,379.784h-6.908v-0.703l3.646-4.135c0.688-0.774,1.166-1.411,1.437-1.91
			c0.27-0.499,0.405-0.988,0.405-1.468c0-0.703-0.193-1.261-0.577-1.674c-0.385-0.412-0.938-0.619-1.662-0.619
			c-0.861,0-1.508,0.231-1.938,0.691c-0.431,0.462-0.646,1.092-0.646,1.893h-0.909c0-0.969,0.309-1.771,0.925-2.408
			c0.616-0.637,1.473-0.955,2.568-0.955c0.973,0,1.743,0.271,2.312,0.813c0.567,0.544,0.853,1.286,0.853,2.229
			c0,0.621-0.188,1.239-0.565,1.853c-0.378,0.615-0.918,1.319-1.621,2.114l-3.103,3.508h5.785V379.784z"/>
		<path fill="#808080" d="M186.219,375.467c0,1.472-0.293,2.586-0.879,3.344c-0.586,0.756-1.432,1.135-2.537,1.135
			c-1.101,0-1.949-0.38-2.545-1.139c-0.596-0.76-0.895-1.873-0.895-3.34v-2.484c0-1.462,0.296-2.575,0.887-3.34
			s1.437-1.146,2.537-1.146s1.947,0.382,2.542,1.146c0.593,0.765,0.89,1.878,0.89,3.34V375.467z M185.302,372.83
			c0-1.167-0.209-2.051-0.627-2.652c-0.417-0.602-1.047-0.902-1.888-0.902c-0.84,0-1.469,0.301-1.884,0.902
			s-0.623,1.485-0.623,2.652v2.773c0,1.157,0.21,2.041,0.632,2.652c0.419,0.611,1.05,0.917,1.891,0.917
			c0.836,0,1.461-0.305,1.876-0.913c0.415-0.609,0.623-1.494,0.623-2.656V372.83z"/>
		<path fill="#808080" d="M192.311,379.784h-0.917v-10.126l-2.652,0.313v-0.635l3.569-0.711V379.784z"/>
		<path fill="#808080" d="M202.46,376.2h1.742v0.771h-1.742v2.812h-0.91v-2.812h-5.22v-0.52l5.129-7.796h1.001V376.2z
			 M197.416,376.2h4.134v-6.397l-0.022-0.007l-0.413,0.879L197.416,376.2z"/>
	</g>
	<line fill="none" stroke="#E6E6E6" stroke-miterlimit="10" x1="56" y1="398.684" x2="496" y2="398.684"/>
	<g>
		<path fill="#0067AC" d="M90.108,432.828h-8.441v-1.622l4-4.288c0.589-0.674,1.002-1.234,1.24-1.682
			c0.237-0.447,0.356-0.869,0.356-1.266c0-0.532-0.138-0.96-0.412-1.286s-0.675-0.488-1.201-0.488c-0.584,0-1.021,0.19-1.312,0.573
			c-0.291,0.382-0.438,0.901-0.438,1.558h-2.479c0-1.16,0.377-2.123,1.13-2.891c0.753-0.769,1.786-1.151,3.1-1.151
			c1.297,0,2.303,0.325,3.019,0.977s1.074,1.54,1.074,2.667c0,0.758-0.199,1.446-0.599,2.063s-1.083,1.446-2.051,2.488l-2.242,2.445
			h5.257V432.828z"/>
		<path fill="#0067AC" d="M99.976,428.013c0,1.671-0.367,2.921-1.104,3.749c-0.736,0.829-1.758,1.244-3.065,1.244
			c-1.313,0-2.342-0.415-3.083-1.244c-0.741-0.828-1.112-2.078-1.112-3.749v-2.726c0-1.664,0.368-2.913,1.104-3.749
			c0.735-0.836,1.76-1.253,3.073-1.253c1.308,0,2.333,0.417,3.074,1.253s1.112,2.085,1.112,3.749V428.013z M97.505,425.032
			c0-1.002-0.145-1.725-0.434-2.17c-0.288-0.444-0.716-0.666-1.282-0.666c-0.571,0-0.999,0.222-1.282,0.666
			c-0.282,0.445-0.424,1.168-0.424,2.17v3.219c0,1.013,0.143,1.741,0.429,2.187s0.717,0.667,1.295,0.667
			c0.566,0,0.991-0.222,1.273-0.663c0.283-0.441,0.425-1.172,0.425-2.19V425.032z"/>
		<path fill="#0067AC" d="M107.33,432.828h-2.472v-9.749h-2.496V421.5l4.968-1.036V432.828z"/>
		<path fill="#0067AC" d="M118.87,428.226h1.401v1.919h-1.401v2.684h-2.471v-2.684h-5.045l-0.11-1.486l5.13-8.194h2.496V428.226z
			 M113.555,428.226h2.845v-4.501l-0.025-0.009l-0.221,0.391L113.555,428.226z"/>
		<path fill="#0067AC" d="M135.727,431.248c-0.374,0.465-0.94,0.874-1.702,1.228s-1.752,0.53-2.969,0.53
			c-1.539,0-2.78-0.463-3.724-1.388c-0.942-0.926-1.413-2.153-1.413-3.682v-2.581c0-1.523,0.452-2.749,1.358-3.678
			c0.906-0.928,2.098-1.393,3.575-1.393c1.551,0,2.711,0.354,3.481,1.062c0.771,0.708,1.233,1.701,1.393,2.98h-2.412
			c-0.112-0.69-0.351-1.218-0.713-1.583s-0.923-0.548-1.682-0.548c-0.775,0-1.391,0.288-1.847,0.866
			c-0.456,0.577-0.684,1.336-0.684,2.275v2.599c0,0.957,0.236,1.724,0.709,2.302c0.473,0.577,1.125,0.866,1.957,0.866
			c0.589,0,1.055-0.059,1.397-0.175c0.342-0.115,0.607-0.265,0.794-0.445v-2.242h-2.191v-1.715h4.671V431.248z"/>
		<path fill="#0067AC" d="M141.722,432.998c-1.353,0-2.418-0.416-3.197-1.249c-0.778-0.832-1.167-1.916-1.167-3.252v-0.34
			c0-1.393,0.369-2.522,1.107-3.393c0.739-0.869,1.751-1.301,3.036-1.295c1.268,0,2.237,0.368,2.908,1.104s1.007,1.752,1.007,3.048
			v1.351h-5.554c0.073,0.646,0.288,1.161,0.646,1.546c0.356,0.384,0.849,0.577,1.478,0.577c0.561,0,1.017-0.054,1.371-0.161
			c0.354-0.108,0.749-0.28,1.185-0.519l0.544,1.639c-0.368,0.278-0.839,0.504-1.41,0.68S142.452,432.998,141.722,432.998z
			 M141.501,425.381c-0.47,0-0.836,0.174-1.1,0.521c-0.264,0.349-0.435,0.826-0.514,1.432h3.1v-0.221
			c0-0.538-0.121-0.961-0.361-1.27C142.386,425.534,142.011,425.381,141.501,425.381z"/>
		<path fill="#0067AC" d="M149.127,423.64l0.11,1.273l0.025,0.009c0.3-0.465,0.669-0.822,1.108-1.074
			c0.438-0.251,0.938-0.378,1.498-0.378c0.945,0,1.675,0.284,2.188,0.854c0.512,0.569,0.769,1.49,0.769,2.765v5.74h-2.488v-5.732
			c0-0.628-0.122-1.069-0.365-1.32c-0.244-0.251-0.623-0.378-1.138-0.378c-0.34,0-0.636,0.067-0.888,0.199
			c-0.252,0.133-0.469,0.321-0.649,0.565v6.666h-2.479v-9.188H149.127z"/>
		<path fill="#0067AC" d="M160.743,432.998c-1.353,0-2.418-0.416-3.197-1.249c-0.778-0.832-1.167-1.916-1.167-3.252v-0.34
			c0-1.393,0.369-2.522,1.108-3.393c0.738-0.869,1.751-1.301,3.035-1.295c1.269,0,2.238,0.368,2.909,1.104s1.006,1.752,1.006,3.048
			v1.351h-5.554c0.074,0.646,0.289,1.161,0.646,1.546c0.356,0.384,0.849,0.577,1.478,0.577c0.561,0,1.018-0.054,1.371-0.161
			c0.354-0.108,0.749-0.28,1.185-0.519l0.544,1.639c-0.368,0.278-0.838,0.504-1.41,0.68
			C162.125,432.91,161.474,432.998,160.743,432.998z M160.522,425.381c-0.47,0-0.836,0.174-1.1,0.521
			c-0.263,0.349-0.435,0.826-0.514,1.432h3.1v-0.221c0-0.538-0.12-0.961-0.361-1.27
			C161.407,425.534,161.032,425.381,160.522,425.381z"/>
		<path fill="#0067AC" d="M170.814,425.831l-1.01-0.026c-0.374,0-0.678,0.072-0.913,0.217s-0.414,0.353-0.539,0.624v6.183h-2.472
			v-9.188h2.302l0.11,1.308l0.017,0.009c0.215-0.47,0.488-0.835,0.819-1.096s0.727-0.391,1.185-0.391c0.137,0,0.272,0.01,0.408,0.03
			c0.136,0.02,0.255,0.044,0.356,0.072L170.814,425.831z"/>
		<path fill="#0067AC" d="M177.422,432.828c-0.074-0.17-0.139-0.349-0.195-0.535c-0.058-0.187-0.103-0.38-0.136-0.577
			c-0.289,0.391-0.638,0.702-1.045,0.934c-0.407,0.232-0.889,0.349-1.443,0.349c-0.917,0-1.637-0.246-2.157-0.734
			c-0.521-0.489-0.781-1.166-0.781-2.025c0-0.918,0.34-1.62,1.019-2.106c0.68-0.486,1.699-0.73,3.058-0.73h1.266v-0.73
			c0-0.452-0.115-0.798-0.345-1.035c-0.229-0.238-0.575-0.357-1.04-0.357c-0.419,0-0.737,0.095-0.955,0.285
			c-0.219,0.189-0.327,0.46-0.327,0.811h-2.471c0-0.821,0.354-1.511,1.065-2.067c0.711-0.558,1.66-0.837,2.849-0.837
			c1.121,0,2.02,0.272,2.696,0.819s1.015,1.347,1.015,2.399v3.796c0,0.441,0.032,0.848,0.098,1.219
			c0.065,0.37,0.169,0.745,0.311,1.125H177.422z M175.273,431.172c0.379,0,0.72-0.079,1.022-0.237
			c0.304-0.159,0.54-0.363,0.71-0.611v-1.521h-1.266c-0.544,0-0.947,0.128-1.21,0.387c-0.264,0.258-0.396,0.579-0.396,0.964
			c0,0.312,0.101,0.56,0.302,0.743C174.638,431.079,174.916,431.172,175.273,431.172z"/>
		<path fill="#0067AC" d="M183.978,432.828h-2.479v-13.247h2.479V432.828z"/>
		<path fill="#0067AC" d="M198.15,427.394h-5.121v3.532h5.987v1.902h-8.467v-12.364h8.449v1.91h-5.97v3.108h5.121V427.394z"/>
		<path fill="#0067AC" d="M202.939,432.828h-2.479v-13.247h2.479V432.828z"/>
		<path fill="#0067AC" d="M209.045,432.998c-1.353,0-2.418-0.416-3.197-1.249c-0.778-0.832-1.167-1.916-1.167-3.252v-0.34
			c0-1.393,0.369-2.522,1.107-3.393c0.739-0.869,1.752-1.301,3.036-1.295c1.268,0,2.237,0.368,2.908,1.104s1.007,1.752,1.007,3.048
			v1.351h-5.554c0.074,0.646,0.289,1.161,0.646,1.546c0.356,0.384,0.849,0.577,1.478,0.577c0.561,0,1.018-0.054,1.371-0.161
			c0.354-0.108,0.749-0.28,1.185-0.519l0.544,1.639c-0.368,0.278-0.839,0.504-1.41,0.68S209.775,432.998,209.045,432.998z
			 M208.824,425.381c-0.47,0-0.836,0.174-1.1,0.521c-0.263,0.349-0.435,0.826-0.514,1.432h3.1v-0.221
			c0-0.538-0.121-0.961-0.361-1.27C209.709,425.534,209.334,425.381,208.824,425.381z"/>
		<path fill="#0067AC" d="M217.962,431.096c0.458,0,0.829-0.128,1.112-0.382c0.282-0.255,0.425-0.598,0.425-1.028h2.326
			c0,0.969-0.363,1.763-1.091,2.383c-0.728,0.619-1.635,0.93-2.722,0.93c-1.404,0-2.465-0.425-3.181-1.274
			c-0.716-0.849-1.074-1.967-1.074-3.354v-0.255c0-1.382,0.358-2.501,1.074-3.358c0.716-0.858,1.771-1.287,3.163-1.287
			c1.161,0,2.09,0.32,2.786,0.96s1.044,1.509,1.044,2.606h-2.326c0-0.481-0.137-0.877-0.408-1.188s-0.651-0.467-1.138-0.467
			c-0.662,0-1.114,0.246-1.354,0.738c-0.24,0.493-0.361,1.157-0.361,1.996v0.255c0,0.854,0.119,1.522,0.357,2.004
			C216.832,430.855,217.288,431.096,217.962,431.096z"/>
		<path fill="#0067AC" d="M226.14,421.39v2.25h1.579v1.741h-1.579v4.67c0,0.368,0.069,0.626,0.208,0.773
			c0.138,0.146,0.326,0.221,0.564,0.221c0.142,0,0.263-0.008,0.365-0.021c0.102-0.014,0.218-0.038,0.348-0.072l0.204,1.767
			c-0.221,0.085-0.46,0.152-0.718,0.203c-0.257,0.052-0.53,0.077-0.819,0.077c-0.86,0-1.513-0.23-1.957-0.692
			s-0.667-1.21-0.667-2.246v-4.679h-1.239v-1.741h1.239v-2.25H226.14z"/>
		<path fill="#0067AC" d="M231.634,421.44h-2.479v-1.859h2.479V421.44z M231.634,432.828h-2.479v-9.188h2.479V432.828z"/>
		<path fill="#0067AC" d="M233.289,428.148c0-1.398,0.377-2.527,1.13-3.388s1.817-1.291,3.192-1.291
			c1.387,0,2.459,0.431,3.215,1.291s1.134,1.989,1.134,3.388v0.179c0,1.41-0.377,2.54-1.13,3.393s-1.819,1.278-3.201,1.278
			c-1.387,0-2.457-0.426-3.21-1.278s-1.13-1.982-1.13-3.393V428.148z M235.761,428.327c0,0.855,0.145,1.529,0.433,2.025
			c0.289,0.496,0.767,0.743,1.436,0.743c0.651,0,1.122-0.249,1.414-0.747c0.291-0.499,0.437-1.172,0.437-2.021v-0.179
			c0-0.832-0.146-1.502-0.441-2.008c-0.294-0.506-0.77-0.76-1.427-0.76c-0.651,0-1.122,0.255-1.413,0.764
			c-0.292,0.51-0.438,1.178-0.438,2.004V428.327z"/>
		<path fill="#0067AC" d="M245.756,423.64l0.11,1.273l0.025,0.009c0.3-0.465,0.669-0.822,1.107-1.074
			c0.439-0.251,0.938-0.378,1.499-0.378c0.945,0,1.675,0.284,2.187,0.854c0.513,0.569,0.769,1.49,0.769,2.765v5.74h-2.487v-5.732
			c0-0.628-0.122-1.069-0.365-1.32c-0.244-0.251-0.623-0.378-1.139-0.378c-0.339,0-0.635,0.067-0.887,0.199
			c-0.253,0.133-0.469,0.321-0.65,0.565v6.666h-2.479v-9.188H245.756z"/>
	</g>
	<g>
		<path fill="#808080" d="M87.132,445.179h0.917v7.971c0,1.034-0.298,1.847-0.894,2.435c-0.597,0.589-1.381,0.883-2.354,0.883
			c-1.064,0-1.896-0.268-2.495-0.803c-0.6-0.535-0.898-1.343-0.898-2.423h0.918c0,0.82,0.208,1.435,0.626,1.842
			c0.418,0.408,1.034,0.611,1.85,0.611c0.688,0,1.248-0.227,1.682-0.68c0.433-0.453,0.649-1.075,0.649-1.865V445.179z"/>
		<path fill="#808080" d="M95.883,456.307c-0.062-0.286-0.104-0.525-0.13-0.719s-0.038-0.39-0.038-0.589l-0.023-0.008
			c-0.3,0.429-0.7,0.78-1.199,1.055c-0.5,0.275-1.073,0.413-1.72,0.413c-0.82,0-1.45-0.209-1.888-0.627
			c-0.438-0.418-0.657-0.993-0.657-1.727c0-0.78,0.325-1.396,0.974-1.846c0.65-0.452,1.546-0.677,2.687-0.677h1.827v-1.024
			c0-0.601-0.188-1.067-0.562-1.398c-0.375-0.331-0.908-0.497-1.602-0.497c-0.652,0-1.185,0.159-1.598,0.479
			c-0.412,0.317-0.619,0.712-0.619,1.181l-0.909-0.008c0-0.652,0.295-1.221,0.883-1.704c0.589-0.484,1.349-0.727,2.281-0.727
			s1.671,0.229,2.217,0.684c0.545,0.457,0.817,1.125,0.817,2.007v4.065c0,0.296,0.016,0.579,0.046,0.849
			c0.03,0.271,0.087,0.543,0.168,0.818H95.883z M92.879,455.656c0.673,0,1.257-0.15,1.755-0.455
			c0.496-0.302,0.856-0.698,1.081-1.188v-1.728h-1.842c-0.846,0-1.514,0.174-2.003,0.524c-0.489,0.348-0.733,0.79-0.733,1.325
			c0,0.453,0.151,0.82,0.455,1.101C91.895,455.517,92.324,455.656,92.879,455.656z"/>
		<path fill="#808080" d="M99.896,448.037l0.076,1.528l0.022,0.008c0.266-0.525,0.625-0.938,1.078-1.238s0.985-0.451,1.598-0.451
			c0.892,0,1.566,0.26,2.024,0.779c0.459,0.521,0.688,1.358,0.688,2.515v5.129h-0.917v-5.113c0-0.942-0.168-1.598-0.505-1.964
			c-0.336-0.367-0.841-0.551-1.513-0.551c-0.622,0-1.139,0.179-1.549,0.535s-0.717,0.81-0.92,1.36v5.732h-0.917v-8.27H99.896z"/>
		<path fill="#808080" d="M113.193,454.984h-0.022c-0.26,0.474-0.609,0.838-1.048,1.093c-0.438,0.255-0.968,0.382-1.589,0.382
			c-0.892,0-1.58-0.288-2.063-0.863c-0.484-0.576-0.727-1.498-0.727-2.767v-4.792h0.917v4.807c0,1.029,0.168,1.758,0.505,2.187
			c0.336,0.428,0.828,0.642,1.475,0.642c0.708,0,1.265-0.153,1.671-0.459c0.404-0.306,0.688-0.736,0.852-1.291v-5.885h0.917v8.27
			h-0.811L113.193,454.984z"/>
		<path fill="#808080" d="M121.723,456.307c-0.062-0.286-0.104-0.525-0.13-0.719s-0.038-0.39-0.038-0.589l-0.023-0.008
			c-0.3,0.429-0.7,0.78-1.199,1.055c-0.5,0.275-1.073,0.413-1.72,0.413c-0.82,0-1.45-0.209-1.888-0.627
			c-0.438-0.418-0.657-0.993-0.657-1.727c0-0.78,0.325-1.396,0.974-1.846c0.65-0.452,1.546-0.677,2.687-0.677h1.827v-1.024
			c0-0.601-0.188-1.067-0.562-1.398c-0.375-0.331-0.908-0.497-1.602-0.497c-0.652,0-1.185,0.159-1.598,0.479
			c-0.412,0.317-0.619,0.712-0.619,1.181l-0.909-0.008c0-0.652,0.295-1.221,0.883-1.704c0.589-0.484,1.349-0.727,2.281-0.727
			s1.671,0.229,2.217,0.684c0.545,0.457,0.817,1.125,0.817,2.007v4.065c0,0.296,0.016,0.579,0.046,0.849
			c0.03,0.271,0.087,0.543,0.168,0.818H121.723z M118.719,455.656c0.673,0,1.257-0.15,1.755-0.455
			c0.496-0.302,0.856-0.698,1.081-1.188v-1.728h-1.842c-0.846,0-1.514,0.174-2.003,0.524c-0.489,0.348-0.733,0.79-0.733,1.325
			c0,0.453,0.151,0.82,0.455,1.101C117.734,455.517,118.164,455.656,118.719,455.656z"/>
		<path fill="#808080" d="M128.708,448.824l-0.68-0.046c-0.586,0-1.062,0.159-1.426,0.478c-0.365,0.318-0.625,0.766-0.783,1.341
			v5.71h-0.917v-8.27h0.802l0.115,1.375v0.039l0.022,0.007c0.234-0.499,0.548-0.886,0.94-1.161s0.871-0.413,1.437-0.413
			c0.117,0,0.23,0.01,0.34,0.026c0.109,0.019,0.2,0.037,0.271,0.058L128.708,448.824z"/>
		<path fill="#808080" d="M132.713,454.066l0.306,1.017h0.022l2.507-7.046h1.024l-3.592,9.591c-0.22,0.576-0.496,1.057-0.829,1.44
			c-0.334,0.386-0.835,0.578-1.502,0.578c-0.107,0-0.236-0.013-0.387-0.034c-0.15-0.024-0.263-0.048-0.34-0.073l0.107-0.765
			c0.062,0.011,0.159,0.022,0.294,0.034c0.135,0.014,0.233,0.02,0.295,0.02c0.412,0,0.723-0.116,0.928-0.348
			c0.207-0.232,0.42-0.62,0.639-1.165l0.436-1.116l-3.194-8.162h1.017L132.713,454.066z"/>
		<path fill="#808080" d="M147.279,452.722h1.743v0.772h-1.743v2.812h-0.909v-2.812h-5.22v-0.521l5.128-7.795h1.001V452.722z
			 M142.235,452.722h4.135v-6.396l-0.022-0.008l-0.413,0.879L142.235,452.722z"/>
		<path fill="#808080" d="M151.827,445.92v2.117h1.734v0.749h-1.734v5.388c0,0.551,0.09,0.936,0.271,1.158
			c0.182,0.221,0.428,0.332,0.738,0.332c0.133,0,0.252-0.006,0.359-0.02c0.106-0.012,0.244-0.034,0.412-0.064l0.13,0.688
			c-0.137,0.057-0.3,0.103-0.488,0.138c-0.188,0.036-0.38,0.054-0.573,0.054c-0.571,0-1.009-0.178-1.312-0.53
			c-0.303-0.355-0.454-0.939-0.454-1.755v-5.388h-1.36v-0.749h1.36v-2.117H151.827z"/>
		<path fill="#808080" d="M156.39,449.504l0.023,0.008c0.274-0.504,0.64-0.901,1.096-1.192c0.456-0.29,0.985-0.436,1.587-0.436
			c0.886,0,1.559,0.263,2.018,0.787c0.458,0.525,0.688,1.368,0.688,2.53v5.105h-0.917v-5.113c0-0.922-0.168-1.572-0.505-1.949
			c-0.336-0.377-0.841-0.565-1.513-0.565c-0.602,0-1.11,0.171-1.525,0.512c-0.415,0.342-0.732,0.78-0.951,1.315v5.801h-0.917
			v-11.923h0.917V449.504z"/>
		<path fill="#808080" d="M165.049,455.939c0,0.479-0.094,0.938-0.282,1.376c-0.189,0.438-0.451,0.817-0.788,1.139l-0.542-0.397
			c0.244-0.342,0.423-0.676,0.535-1.002c0.111-0.325,0.168-0.692,0.168-1.1v-1.086h0.909V455.939z"/>
		<path fill="#808080" d="M177.735,456.307h-6.908v-0.703l3.646-4.135c0.688-0.774,1.166-1.412,1.437-1.911
			c0.27-0.499,0.405-0.988,0.405-1.468c0-0.703-0.193-1.261-0.577-1.673c-0.385-0.413-0.938-0.619-1.662-0.619
			c-0.861,0-1.508,0.23-1.938,0.69c-0.431,0.463-0.646,1.093-0.646,1.893h-0.909c0-0.968,0.309-1.771,0.925-2.407
			c0.616-0.638,1.473-0.956,2.568-0.956c0.973,0,1.743,0.272,2.312,0.813c0.567,0.544,0.853,1.286,0.853,2.229
			c0,0.622-0.188,1.24-0.565,1.854c-0.378,0.614-0.918,1.318-1.621,2.113l-3.103,3.508h5.785V456.307z"/>
		<path fill="#808080" d="M186.219,451.988c0,1.473-0.293,2.586-0.879,3.344c-0.586,0.756-1.432,1.135-2.537,1.135
			c-1.101,0-1.949-0.38-2.545-1.139c-0.596-0.76-0.895-1.873-0.895-3.34v-2.484c0-1.462,0.296-2.575,0.887-3.34
			c0.591-0.764,1.437-1.146,2.537-1.146s1.947,0.383,2.542,1.146c0.593,0.765,0.89,1.878,0.89,3.34V451.988z M185.302,449.352
			c0-1.167-0.209-2.051-0.627-2.652c-0.417-0.602-1.047-0.901-1.888-0.901c-0.84,0-1.469,0.3-1.884,0.901s-0.623,1.485-0.623,2.652
			v2.774c0,1.156,0.21,2.04,0.632,2.651c0.419,0.611,1.05,0.917,1.891,0.917c0.836,0,1.461-0.305,1.876-0.912
			c0.415-0.61,0.623-1.495,0.623-2.656V449.352z"/>
		<path fill="#808080" d="M192.311,456.307h-0.917V446.18l-2.652,0.313v-0.635l3.569-0.711V456.307z"/>
		<path fill="#808080" d="M202.46,452.722h1.742v0.772h-1.742v2.812h-0.91v-2.812h-5.22v-0.521l5.129-7.795h1.001V452.722z
			 M197.416,452.722h4.134v-6.396l-0.022-0.008l-0.413,0.879L197.416,452.722z"/>
	</g>
	<line fill="none" stroke="#E6E6E6" stroke-miterlimit="10" x1="56" y1="474.684" x2="496" y2="474.684"/>
	<g>
		<g>
			<polygon fill="#0067AC" points="463.992,275.529 461.655,275.529 465.226,281.544 461.655,287.703 463.992,287.703 
				467.544,281.616 			"/>
		</g>
	</g>
	<g>
		<g>
			<polygon fill="#0067AC" points="464.331,353.79 461.994,353.79 465.564,359.805 461.994,365.964 464.331,365.964 
				467.883,359.877 			"/>
		</g>
	</g>
	<g>
		<g>
			<polygon fill="#0067AC" points="464.622,428.572 462.285,428.572 465.854,434.588 462.285,440.746 464.622,440.746 
				468.173,434.659 			"/>
		</g>
	</g>
	<g>
		<g>
			<path fill="#00244C" d="M80.358,221.642v-12.364h3.608c1.308,0,2.314,0.267,3.02,0.799c0.704,0.531,1.057,1.35,1.057,2.454
				c0,0.645-0.174,1.198-0.522,1.66c-0.348,0.461-0.825,0.78-1.431,0.955v0.025c0.741,0.136,1.342,0.485,1.801,1.049
				c0.458,0.562,0.688,1.224,0.688,1.982c0,1.126-0.351,1.982-1.053,2.564c-0.702,0.583-1.667,0.875-2.896,0.875H80.358z
				 M81.368,214.822h2.845c0.911,0,1.608-0.191,2.09-0.577s0.722-0.968,0.722-1.749c0-0.799-0.255-1.39-0.765-1.775
				c-0.51-0.385-1.273-0.577-2.293-0.577h-2.599V214.822z M81.368,215.681v5.104h3.262c0.934,0,1.655-0.221,2.165-0.663
				c0.51-0.441,0.765-1.074,0.765-1.901c0-0.76-0.232-1.372-0.697-1.839c-0.464-0.467-1.154-0.7-2.071-0.7H81.368z"/>
			<path fill="#00244C" d="M96.671,221.642c-0.068-0.317-0.116-0.583-0.145-0.798c-0.028-0.216-0.042-0.434-0.042-0.654
				l-0.025-0.009c-0.334,0.476-0.779,0.866-1.334,1.172c-0.554,0.306-1.191,0.459-1.91,0.459c-0.911,0-1.611-0.232-2.098-0.696
				s-0.73-1.104-0.73-1.919c0-0.866,0.361-1.55,1.083-2.051s1.717-0.752,2.984-0.752h2.03v-1.138c0-0.668-0.208-1.186-0.624-1.554
				c-0.417-0.369-1.01-0.553-1.779-0.553c-0.725,0-1.316,0.177-1.775,0.531c-0.458,0.354-0.688,0.79-0.688,1.312l-1.011-0.008
				c0-0.726,0.327-1.355,0.981-1.895c0.653-0.538,1.498-0.807,2.534-0.807s1.857,0.254,2.463,0.761s0.908,1.249,0.908,2.229v4.518
				c0,0.328,0.018,0.643,0.052,0.943c0.033,0.3,0.096,0.603,0.187,0.908H96.671z M93.334,220.92c0.747,0,1.396-0.168,1.948-0.506
				c0.552-0.337,0.953-0.776,1.202-1.32v-1.919h-2.047c-0.94,0-1.682,0.193-2.225,0.582c-0.544,0.388-0.815,0.879-0.815,1.473
				c0,0.505,0.168,0.912,0.505,1.224C92.24,220.764,92.716,220.92,93.334,220.92z"/>
			<path fill="#00244C" d="M101.342,221.642h-1.011v-13.247h1.011V221.642z"/>
			<path fill="#00244C" d="M105.29,221.642h-1.011v-13.247h1.011V221.642z"/>
			<path fill="#00244C" d="M107.532,216.912c0-1.381,0.365-2.499,1.095-3.351c0.73-0.852,1.719-1.278,2.964-1.278
				c1.251,0,2.242,0.427,2.973,1.278s1.095,1.97,1.095,3.351v0.279c0,1.388-0.363,2.504-1.091,3.351s-1.714,1.27-2.959,1.27
				c-1.257,0-2.251-0.423-2.981-1.27c-0.729-0.847-1.095-1.963-1.095-3.351V216.912z M108.551,217.191
				c0,1.088,0.265,1.986,0.794,2.696c0.529,0.711,1.284,1.066,2.264,1.066c0.968,0,1.717-0.355,2.246-1.066
				c0.528-0.71,0.794-1.608,0.794-2.696v-0.279c0-1.065-0.268-1.958-0.803-2.68s-1.286-1.083-2.255-1.083
				c-0.974,0-1.724,0.361-2.25,1.083s-0.79,1.614-0.79,2.68V217.191z"/>
			<path fill="#00244C" d="M119.251,210.102v2.352h1.928v0.832h-1.928v5.987c0,0.611,0.1,1.04,0.301,1.286s0.475,0.37,0.82,0.37
				c0.146,0,0.279-0.007,0.398-0.021s0.271-0.038,0.459-0.072l0.145,0.765c-0.153,0.062-0.334,0.113-0.544,0.152
				s-0.422,0.06-0.637,0.06c-0.635,0-1.119-0.197-1.456-0.59c-0.338-0.394-0.506-1.044-0.506-1.949v-5.987h-1.512v-0.832h1.512
				v-2.352H119.251z"/>
		</g>
	</g>
	<g>
		<path fill="#00244C" d="M165.118,218.143l0.391,1.953h0.025l0.476-1.953l2.616-8.865h0.959l2.616,8.865l0.458,1.962h0.025
			l0.416-1.962l2.157-8.865h1.036l-3.1,12.364h-0.96l-2.776-9.485l-0.331-1.351h-0.025l-0.331,1.351l-2.803,9.485H165l-3.1-12.364
			h1.044L165.118,218.143z"/>
		<path fill="#00244C" d="M179.24,214.084l0.025,0.009c0.306-0.561,0.712-1.003,1.219-1.325s1.094-0.484,1.763-0.484
			c0.984,0,1.731,0.293,2.241,0.875c0.51,0.583,0.765,1.521,0.765,2.811v5.673h-1.02v-5.681c0-1.024-0.187-1.746-0.561-2.166
			c-0.373-0.419-0.934-0.628-1.681-0.628c-0.669,0-1.233,0.19-1.694,0.568c-0.461,0.379-0.813,0.866-1.058,1.461v6.445h-1.019
			v-13.247h1.019V214.084z"/>
		<path fill="#00244C" d="M191.443,221.812c-1.223,0-2.212-0.414-2.968-1.244s-1.134-1.911-1.134-3.248v-0.467
			c0-1.342,0.375-2.439,1.125-3.291s1.671-1.278,2.765-1.278c1.148,0,2.039,0.351,2.67,1.049c0.631,0.699,0.947,1.657,0.947,2.875
			v0.866h-6.488v0.246c0,1.053,0.28,1.923,0.841,2.606c0.561,0.685,1.308,1.028,2.242,1.028c0.561,0,1.051-0.081,1.474-0.242
			c0.422-0.161,0.821-0.417,1.201-0.769l0.434,0.696c-0.346,0.361-0.768,0.648-1.266,0.857
			C192.787,221.706,192.174,221.812,191.443,221.812z M191.231,213.149c-0.765,0-1.4,0.285-1.907,0.854
			c-0.507,0.569-0.816,1.308-0.93,2.212h5.443v-0.254c0-0.815-0.229-1.488-0.688-2.018
			C192.691,213.415,192.052,213.149,191.231,213.149z"/>
		<path fill="#00244C" d="M201.09,213.328l-0.756-0.051c-0.651,0-1.179,0.177-1.583,0.53c-0.405,0.354-0.695,0.851-0.871,1.49v6.344
			h-1.019v-9.188h0.892l0.127,1.529v0.042l0.025,0.009c0.261-0.556,0.609-0.985,1.045-1.291s0.968-0.459,1.597-0.459
			c0.13,0,0.256,0.011,0.378,0.03c0.121,0.02,0.222,0.041,0.301,0.063L201.09,213.328z"/>
		<path fill="#00244C" d="M206.159,221.812c-1.223,0-2.212-0.414-2.968-1.244s-1.134-1.911-1.134-3.248v-0.467
			c0-1.342,0.376-2.439,1.126-3.291c0.749-0.852,1.671-1.278,2.764-1.278c1.149,0,2.04,0.351,2.671,1.049
			c0.631,0.699,0.946,1.657,0.946,2.875v0.866h-6.487v0.246c0,1.053,0.28,1.923,0.841,2.606c0.561,0.685,1.308,1.028,2.241,1.028
			c0.561,0,1.052-0.081,1.474-0.242s0.822-0.417,1.202-0.769l0.433,0.696c-0.346,0.361-0.767,0.648-1.266,0.857
			C207.504,221.706,206.89,221.812,206.159,221.812z M205.947,213.149c-0.765,0-1.399,0.285-1.906,0.854
			c-0.507,0.569-0.817,1.308-0.93,2.212h5.443v-0.254c0-0.815-0.229-1.488-0.688-2.018
			C207.408,213.415,206.769,213.149,205.947,213.149z"/>
		<path fill="#00244C" d="M216.087,221.642v-12.364h3.592c1.568,0,2.83,0.494,3.787,1.482c0.957,0.987,1.436,2.291,1.436,3.91v1.588
			c0,1.631-0.48,2.935-1.439,3.915c-0.96,0.979-2.246,1.469-3.859,1.469H216.087z M217.097,210.144v10.641h2.506
			c1.33,0,2.376-0.415,3.138-1.244c0.762-0.83,1.142-1.924,1.142-3.282v-1.613c0-1.359-0.378-2.449-1.134-3.27
			c-0.755-0.82-1.778-1.231-3.069-1.231H217.097z"/>
		<path fill="#00244C" d="M226.804,216.912c0-1.381,0.365-2.499,1.095-3.351c0.73-0.852,1.718-1.278,2.964-1.278
			c1.251,0,2.242,0.427,2.973,1.278c0.729,0.852,1.095,1.97,1.095,3.351v0.279c0,1.388-0.363,2.504-1.091,3.351
			s-1.714,1.27-2.959,1.27c-1.257,0-2.251-0.423-2.981-1.27c-0.729-0.847-1.095-1.963-1.095-3.351V216.912z M227.822,217.191
			c0,1.088,0.265,1.986,0.794,2.696c0.529,0.711,1.284,1.066,2.264,1.066c0.968,0,1.717-0.355,2.246-1.066
			c0.528-0.71,0.794-1.608,0.794-2.696v-0.279c0-1.065-0.268-1.958-0.803-2.68s-1.287-1.083-2.255-1.083
			c-0.974,0-1.724,0.361-2.25,1.083s-0.79,1.614-0.79,2.68V217.191z"/>
		<path fill="#00244C" d="M242.802,221.642h-1.019v-12.364h1.019V221.642z"/>
		<path fill="#00244C" d="M254.003,219.553l0.255,0.875h0.033l0.255-0.875l3.72-10.275h1.096l-4.603,12.364h-0.969l-4.603-12.364
			h1.104L254.003,219.553z"/>
		<path fill="#00244C" d="M260.058,216.912c0-1.381,0.365-2.499,1.096-3.351c0.729-0.852,1.718-1.278,2.963-1.278
			c1.251,0,2.242,0.427,2.973,1.278s1.095,1.97,1.095,3.351v0.279c0,1.388-0.363,2.504-1.091,3.351s-1.714,1.27-2.959,1.27
			c-1.257,0-2.251-0.423-2.98-1.27c-0.73-0.847-1.096-1.963-1.096-3.351V216.912z M261.076,217.191c0,1.088,0.266,1.986,0.794,2.696
			c0.529,0.711,1.284,1.066,2.264,1.066c0.968,0,1.717-0.355,2.246-1.066c0.528-0.71,0.794-1.608,0.794-2.696v-0.279
			c0-1.065-0.268-1.958-0.803-2.68s-1.286-1.083-2.255-1.083c-0.974,0-1.724,0.361-2.25,1.083s-0.79,1.614-0.79,2.68V217.191z"/>
		<path fill="#00244C" d="M271.776,210.102v2.352h1.928v0.832h-1.928v5.987c0,0.611,0.1,1.04,0.301,1.286
			c0.202,0.246,0.475,0.37,0.82,0.37c0.146,0,0.28-0.007,0.398-0.021c0.119-0.015,0.272-0.038,0.459-0.072l0.145,0.765
			c-0.153,0.062-0.334,0.113-0.544,0.152s-0.422,0.06-0.637,0.06c-0.635,0-1.119-0.197-1.456-0.59
			c-0.338-0.394-0.506-1.044-0.506-1.949v-5.987h-1.512v-0.832h1.512v-2.352H271.776z"/>
		<path fill="#00244C" d="M279.368,221.812c-1.224,0-2.213-0.414-2.968-1.244c-0.756-0.83-1.134-1.911-1.134-3.248v-0.467
			c0-1.342,0.375-2.439,1.125-3.291s1.671-1.278,2.764-1.278c1.149,0,2.04,0.351,2.671,1.049c0.631,0.699,0.947,1.657,0.947,2.875
			v0.866h-6.488v0.246c0,1.053,0.28,1.923,0.841,2.606c0.561,0.685,1.308,1.028,2.242,1.028c0.561,0,1.051-0.081,1.473-0.242
			c0.423-0.161,0.822-0.417,1.202-0.769l0.433,0.696c-0.346,0.361-0.767,0.648-1.265,0.857
			C280.712,221.706,280.098,221.812,279.368,221.812z M279.155,213.149c-0.764,0-1.399,0.285-1.906,0.854
			c-0.507,0.569-0.816,1.308-0.93,2.212h5.443v-0.254c0-0.815-0.229-1.488-0.688-2.018
			C280.616,213.415,279.977,213.149,279.155,213.149z"/>
	</g>
	<g>
		<path fill="#00244C" d="M316.938,221.642v-12.364h3.592c1.569,0,2.831,0.494,3.787,1.482c0.958,0.987,1.436,2.291,1.436,3.91
			v1.588c0,1.631-0.479,2.935-1.438,3.915c-0.96,0.979-2.247,1.469-3.86,1.469H316.938z M317.948,210.144v10.641h2.505
			c1.332,0,2.376-0.415,3.139-1.244c0.761-0.83,1.142-1.924,1.142-3.282v-1.613c0-1.359-0.378-2.449-1.133-3.27
			c-0.756-0.82-1.78-1.231-3.071-1.231H317.948z"/>
		<path fill="#00244C" d="M331.765,221.812c-1.224,0-2.212-0.414-2.968-1.244s-1.134-1.911-1.134-3.248v-0.467
			c0-1.342,0.375-2.439,1.126-3.291c0.749-0.852,1.671-1.278,2.763-1.278c1.15,0,2.04,0.351,2.672,1.049
			c0.63,0.699,0.946,1.657,0.946,2.875v0.866h-6.488v0.246c0,1.053,0.28,1.923,0.841,2.606c0.561,0.685,1.308,1.028,2.242,1.028
			c0.56,0,1.051-0.081,1.474-0.242c0.422-0.161,0.822-0.417,1.201-0.769l0.433,0.696c-0.345,0.361-0.766,0.648-1.265,0.857
			C333.109,221.706,332.494,221.812,331.765,221.812z M331.552,213.149c-0.764,0-1.399,0.285-1.905,0.854
			c-0.508,0.569-0.817,1.308-0.931,2.212h5.443v-0.254c0-0.815-0.229-1.488-0.688-2.018
			C333.013,213.415,332.374,213.149,331.552,213.149z"/>
		<path fill="#00244C" d="M338.651,210.102v2.352h1.928v0.832h-1.928v5.987c0,0.611,0.1,1.04,0.302,1.286
			c0.201,0.246,0.475,0.37,0.819,0.37c0.147,0,0.28-0.007,0.398-0.021c0.119-0.015,0.272-0.038,0.459-0.072l0.145,0.765
			c-0.153,0.062-0.333,0.113-0.544,0.152c-0.209,0.039-0.421,0.06-0.637,0.06c-0.634,0-1.119-0.197-1.455-0.59
			c-0.338-0.394-0.507-1.044-0.507-1.949v-5.987h-1.511v-0.832h1.511v-2.352H338.651z"/>
		<path fill="#00244C" d="M348.519,221.642c-0.067-0.317-0.115-0.583-0.145-0.798c-0.027-0.216-0.042-0.434-0.042-0.654
			l-0.025-0.009c-0.333,0.476-0.778,0.866-1.334,1.172c-0.553,0.306-1.19,0.459-1.91,0.459c-0.91,0-1.61-0.232-2.098-0.696
			c-0.485-0.464-0.73-1.104-0.73-1.919c0-0.866,0.362-1.55,1.084-2.051s1.717-0.752,2.984-0.752h2.029v-1.138
			c0-0.668-0.207-1.186-0.623-1.554c-0.417-0.369-1.01-0.553-1.78-0.553c-0.724,0-1.316,0.177-1.774,0.531
			c-0.459,0.354-0.688,0.79-0.688,1.312l-1.011-0.008c0-0.726,0.328-1.355,0.982-1.895c0.653-0.538,1.498-0.807,2.533-0.807
			c1.036,0,1.858,0.254,2.463,0.761c0.606,0.507,0.909,1.249,0.909,2.229v4.518c0,0.328,0.017,0.643,0.051,0.943
			c0.034,0.3,0.097,0.603,0.187,0.908H348.519z M345.182,220.92c0.747,0,1.397-0.168,1.949-0.506
			c0.552-0.337,0.953-0.776,1.201-1.32v-1.919h-2.047c-0.939,0-1.682,0.193-2.225,0.582c-0.544,0.388-0.815,0.879-0.815,1.473
			c0,0.505,0.168,0.912,0.506,1.224C344.088,220.764,344.564,220.92,345.182,220.92z"/>
		<path fill="#00244C" d="M353.189,209.821h-1.011v-1.427h1.011V209.821z M353.189,221.642h-1.011v-9.188h1.011V221.642z"/>
		<path fill="#00244C" d="M357.138,221.642h-1.011v-13.247h1.011V221.642z"/>
		<path fill="#00244C" d="M365.451,219.307c0-0.441-0.171-0.819-0.518-1.134c-0.345-0.314-0.987-0.577-1.928-0.786
			c-1.121-0.242-1.938-0.555-2.449-0.934c-0.513-0.379-0.77-0.935-0.77-1.664c0-0.719,0.291-1.316,0.871-1.792
			c0.579-0.476,1.369-0.714,2.364-0.714c1.06,0,1.889,0.254,2.488,0.761c0.602,0.507,0.9,1.167,0.9,1.982h-1.02
			c0-0.515-0.209-0.956-0.628-1.324c-0.418-0.369-0.999-0.553-1.741-0.553c-0.752,0-1.311,0.158-1.676,0.476
			c-0.365,0.318-0.549,0.693-0.549,1.13c0,0.43,0.156,0.781,0.467,1.053c0.312,0.271,0.955,0.515,1.928,0.73
			c1.111,0.25,1.933,0.579,2.468,0.989s0.802,0.986,0.802,1.729c0,0.781-0.304,1.402-0.912,1.863
			c-0.609,0.461-1.434,0.692-2.477,0.692c-1.138,0-2.021-0.264-2.649-0.79c-0.628-0.526-0.942-1.177-0.942-1.953h1.011
			c0.041,0.68,0.308,1.164,0.804,1.452c0.494,0.289,1.088,0.434,1.777,0.434c0.748,0,1.332-0.157,1.75-0.472
			C365.242,220.168,365.451,219.776,365.451,219.307z"/>
	</g>
	<g>
		<g>
			<path fill="#00244C" d="M412.454,216.642h-5.121v3.532h5.987v1.902h-8.467v-12.364h8.449v1.911h-5.97v3.107h5.121V216.642z"/>
			<path fill="#00244C" d="M417.243,222.076h-2.479v-13.247h2.479V222.076z"/>
			<path fill="#00244C" d="M423.349,222.246c-1.353,0-2.418-0.416-3.197-1.248c-0.778-0.832-1.167-1.916-1.167-3.253v-0.339
				c0-1.393,0.369-2.524,1.107-3.393c0.739-0.869,1.751-1.301,3.036-1.295c1.268,0,2.237,0.368,2.908,1.104s1.007,1.753,1.007,3.049
				v1.35h-5.554c0.073,0.646,0.288,1.16,0.646,1.546c0.356,0.386,0.849,0.577,1.478,0.577c0.561,0,1.017-0.054,1.371-0.161
				c0.354-0.106,0.749-0.28,1.185-0.518l0.544,1.639c-0.368,0.276-0.839,0.504-1.41,0.68
				C424.73,222.158,424.079,222.246,423.349,222.246z M423.128,214.629c-0.47,0-0.836,0.174-1.1,0.522
				c-0.264,0.348-0.435,0.824-0.514,1.431h3.1v-0.221c0-0.538-0.121-0.961-0.361-1.27S423.638,214.629,423.128,214.629z"/>
			<path fill="#00244C" d="M432.266,220.344c0.458,0,0.829-0.127,1.112-0.382c0.282-0.255,0.425-0.598,0.425-1.027h2.326
				c0,0.968-0.363,1.762-1.091,2.382s-1.635,0.93-2.722,0.93c-1.404,0-2.465-0.425-3.181-1.273c-0.716-0.85-1.074-1.967-1.074-3.354
				v-0.255c0-1.381,0.358-2.501,1.074-3.358s1.771-1.286,3.163-1.286c1.161,0,2.09,0.319,2.786,0.959
				c0.696,0.641,1.044,1.509,1.044,2.607h-2.326c0-0.48-0.137-0.878-0.408-1.189c-0.271-0.311-0.651-0.467-1.138-0.467
				c-0.662,0-1.114,0.246-1.354,0.739c-0.24,0.492-0.361,1.158-0.361,1.995v0.255c0,0.854,0.119,1.523,0.357,2.004
				C431.136,220.103,431.592,220.344,432.266,220.344z"/>
			<path fill="#00244C" d="M440.443,210.638v2.251h1.579v1.74h-1.579v4.671c0,0.368,0.069,0.625,0.208,0.772
				c0.138,0.147,0.326,0.221,0.564,0.221c0.142,0,0.263-0.007,0.365-0.021c0.102-0.014,0.218-0.038,0.348-0.072l0.204,1.767
				c-0.221,0.085-0.46,0.153-0.718,0.204c-0.257,0.051-0.53,0.076-0.819,0.076c-0.86,0-1.514-0.23-1.957-0.692
				c-0.444-0.461-0.667-1.21-0.667-2.246v-4.679h-1.239v-1.74h1.239v-2.251H440.443z"/>
			<path fill="#00244C" d="M445.938,210.688h-2.48v-1.859h2.48V210.688z M445.938,222.076h-2.48v-9.188h2.48V222.076z"/>
			<path fill="#00244C" d="M447.593,217.397c0-1.397,0.376-2.527,1.13-3.389c0.753-0.86,1.817-1.29,3.192-1.29
				c1.387,0,2.459,0.43,3.215,1.29c0.756,0.861,1.134,1.991,1.134,3.389v0.179c0,1.409-0.377,2.54-1.13,3.392
				c-0.753,0.853-1.819,1.278-3.201,1.278c-1.387,0-2.457-0.426-3.21-1.278c-0.754-0.852-1.13-1.982-1.13-3.392V217.397z
				 M450.064,217.576c0,0.854,0.145,1.529,0.433,2.024c0.289,0.495,0.767,0.743,1.436,0.743c0.651,0,1.122-0.249,1.414-0.747
				c0.291-0.497,0.437-1.172,0.437-2.021v-0.179c0-0.832-0.146-1.501-0.441-2.009c-0.295-0.507-0.77-0.76-1.427-0.76
				c-0.651,0-1.122,0.255-1.413,0.765c-0.292,0.509-0.438,1.177-0.438,2.004V217.576z"/>
			<path fill="#00244C" d="M460.059,212.889l0.111,1.273l0.025,0.009c0.3-0.464,0.669-0.822,1.107-1.074
				c0.439-0.253,0.938-0.378,1.499-0.378c0.945,0,1.675,0.284,2.187,0.854c0.513,0.568,0.769,1.49,0.769,2.764v5.74h-2.488v-5.731
				c0-0.629-0.121-1.068-0.364-1.321c-0.244-0.252-0.623-0.377-1.139-0.377c-0.34,0-0.635,0.065-0.887,0.199
				c-0.253,0.133-0.469,0.321-0.65,0.564v6.666h-2.479v-9.188H460.059z"/>
			<path fill="#00244C" d="M472.576,219.546c0-0.277-0.129-0.513-0.387-0.705c-0.257-0.191-0.749-0.368-1.473-0.526
				c-1.104-0.226-1.928-0.55-2.472-0.973c-0.543-0.422-0.815-1.015-0.815-1.778c0-0.811,0.329-1.486,0.985-2.03
				c0.656-0.543,1.552-0.814,2.684-0.814c1.194,0,2.136,0.273,2.823,0.819s1.032,1.258,1.032,2.136h-2.472
				c0-0.374-0.114-0.676-0.344-0.904c-0.229-0.229-0.576-0.345-1.04-0.345c-0.408,0-0.725,0.098-0.951,0.289
				c-0.227,0.192-0.34,0.438-0.34,0.739c0,0.288,0.117,0.521,0.353,0.696s0.726,0.336,1.474,0.483
				c1.154,0.233,2.001,0.562,2.539,0.989c0.537,0.428,0.807,1.035,0.807,1.822c0,0.844-0.347,1.521-1.04,2.033
				c-0.694,0.513-1.635,0.769-2.824,0.769c-1.251,0-2.227-0.308-2.925-0.921c-0.699-0.614-1.049-1.338-1.049-2.17h2.344
				c0.017,0.497,0.176,0.854,0.476,1.07c0.3,0.215,0.702,0.322,1.205,0.322c0.465,0,0.815-0.088,1.054-0.264
				C472.457,220.109,472.576,219.863,472.576,219.546z"/>
		</g>
	</g>
	<rect x="385" y="244.184" fill="#D71920" width="110" height="2"/>
	<polyline fill="#D71920" points="433.208,244.839 439.662,238.384 446.115,244.839 	"/>
</g>
<g id="devices">
	<g>
		<path fill="none" stroke="#D3D6DB" stroke-miterlimit="10" d="M30.162,357.213c0,0.223,0.183,0.421,0.404,0.439l3.933,0.338
			c0.223,0.02,0.405-0.148,0.405-0.372v-152.27c0-0.224-0.183-0.39-0.405-0.371l-3.933,0.336c-0.222,0.021-0.404,0.218-0.404,0.441
			V357.213z"/>
		<polygon fill="none" stroke="#D3D6DB" stroke-miterlimit="10" points="515.42,204.129 520.162,203.723 520.162,141.812 
			515.42,141.407 		"/>
		<path fill="none" stroke="#D3D6DB" stroke-miterlimit="10" d="M482.674,32.467c-44.518-9.58-124.405-12.765-207.174-12.765
			c-106.149,0-170.535,7.022-204.778,12.765c-25.298,4.24-35.817,20.369-35.817,34.47l-0.678,434.256l1.761,434.075
			c0,19.173,15.869,30.807,35.827,34.84c19.958,4.03,73.75,12.577,203.756,12.577c137.795,0,178.561-8.071,203.617-12.577
			c25.057-4.509,36.775-19.73,36.775-38.902V70.013C515.963,51.725,504.271,37.115,482.674,32.467 M511.898,931.339
			c0,19.002-9.717,30.08-34.543,34.546c-24.832,4.468-65.23,12.462-201.785,12.462c-128.836,0-182.143-8.466-201.922-12.462
			s-34.545-15.544-34.545-34.546V70.826c0-13.975,8.391-29.936,33.461-34.139c33.936-5.69,97.744-12.65,202.936-12.65
			c82.023,0,161.193,3.156,205.307,12.65c21.404,4.605,31.092,20.096,31.092,34.139V931.339z"/>
		<path fill="#FFFFFF" stroke="#D3D6DB" stroke-miterlimit="10" d="M480.803,36.69c-44.109-9.496-123.273-12.651-205.301-12.651
			c-105.192,0-169,6.957-202.938,12.651C47.496,40.895,39.107,56.85,39.107,70.824v860.519c0,19.002,14.759,30.546,34.545,34.545
			c19.776,3.998,73.078,12.456,201.919,12.456c136.554,0,176.948-7.988,201.782-12.456c24.834-4.47,34.545-15.543,34.545-34.545
			V70.824C511.898,56.781,502.215,41.297,480.803,36.69z M494.777,878.217H55.414V97.392h439.363V878.217z"/>
		<path fill="none" stroke="#D3D6DB" stroke-miterlimit="10" d="M120.184,68.081c0,3.573-2.896,6.47-6.47,6.47
			c-3.571,0-6.468-2.896-6.468-6.47c0-3.572,2.896-6.469,6.468-6.469C117.287,61.612,120.184,64.509,120.184,68.081"/>
		<path fill="none" stroke="#D3D6DB" stroke-miterlimit="10" d="M118.455,68.081c0,2.618-2.122,4.741-4.741,4.741
			c-2.618,0-4.741-2.123-4.741-4.741s2.123-4.742,4.741-4.742C116.333,63.339,118.455,65.463,118.455,68.081"/>
		<circle fill="none" stroke="#D3D6DB" stroke-miterlimit="10" cx="113.714" cy="68.081" r="4.741"/>
		<path fill="none" stroke="#D3D6DB" stroke-miterlimit="10" d="M115.107,68.081c0,0.77-0.625,1.395-1.394,1.395
			c-0.771,0-1.394-0.625-1.394-1.395c0-0.771,0.623-1.394,1.394-1.394C114.482,66.688,115.107,67.311,115.107,68.081"/>
		<path fill="none" stroke="#D3D6DB" stroke-miterlimit="10" d="M432.646,66.659c0,2.862-2.319,5.181-5.181,5.181
			c-2.862,0-5.181-2.318-5.181-5.181s2.318-5.183,5.181-5.183C430.327,61.477,432.646,63.797,432.646,66.659"/>
		<path fill="none" stroke="#D3D6DB" stroke-miterlimit="10" d="M447.5,66.659c0,1.86-1.51,3.369-3.371,3.369
			s-3.369-1.509-3.369-3.369c0-1.862,1.508-3.37,3.369-3.37S447.5,64.797,447.5,66.659"/>
		<path fill="none" stroke="#D3D6DB" stroke-miterlimit="10" d="M286.744,66.659c0,6.396-5.185,11.581-11.582,11.581
			c-6.396,0-11.582-5.185-11.582-11.581c0-6.397,5.186-11.583,11.582-11.583C281.56,55.076,286.744,60.262,286.744,66.659"/>
		<circle fill="none" stroke="#D3D6DB" stroke-miterlimit="10" cx="275.162" cy="66.659" r="11.582"/>
		<path fill="none" stroke="#D3D6DB" stroke-miterlimit="10" d="M267.516,66.734c0,0.66-0.533,1.195-1.193,1.195
			c-0.658,0-1.193-0.535-1.193-1.195c0-0.658,0.535-1.194,1.193-1.194C266.982,65.54,267.516,66.076,267.516,66.734"/>
		<path fill="none" stroke="#D3D6DB" stroke-miterlimit="10" d="M268.075,69.91c0,0.658-0.534,1.194-1.194,1.194
			s-1.193-0.536-1.193-1.194c0-0.659,0.533-1.193,1.193-1.193S268.075,69.251,268.075,69.91"/>
		<path fill="none" stroke="#D3D6DB" stroke-miterlimit="10" d="M271.175,69.555c0,0.658-0.534,1.193-1.194,1.193
			s-1.193-0.535-1.193-1.193c0-0.659,0.533-1.193,1.193-1.193S271.175,68.896,271.175,69.555"/>
		<path fill="none" stroke="#D3D6DB" stroke-miterlimit="10" d="M273.282,71.561c0,0.66-0.534,1.195-1.194,1.195
			c-0.658,0-1.192-0.535-1.192-1.195c0-0.659,0.534-1.193,1.192-1.193C272.748,70.367,273.282,70.901,273.282,71.561"/>
		<path fill="none" stroke="#D3D6DB" stroke-miterlimit="10" d="M269.98,72.868c0,0.66-0.535,1.194-1.193,1.194
			c-0.66,0-1.194-0.534-1.194-1.194c0-0.659,0.534-1.193,1.194-1.193C269.445,71.675,269.98,72.209,269.98,72.868"/>
		<path fill="none" stroke="#D3D6DB" stroke-miterlimit="10" d="M273.029,74.863c0,0.658-0.533,1.194-1.193,1.194
			s-1.195-0.536-1.195-1.194c0-0.659,0.535-1.194,1.195-1.194S273.029,74.204,273.029,74.863"/>
		<path fill="none" stroke="#D3D6DB" stroke-miterlimit="10" d="M274.959,69.122c0,0.659-0.534,1.194-1.194,1.194
			c-0.659,0-1.192-0.535-1.192-1.194c0-0.658,0.533-1.193,1.192-1.193C274.425,67.929,274.959,68.464,274.959,69.122"/>
		<path fill="none" stroke="#D3D6DB" stroke-miterlimit="10" d="M278.107,69.275c0,0.659-0.533,1.193-1.192,1.193
			s-1.192-0.534-1.192-1.193s0.533-1.194,1.192-1.194S278.107,68.616,278.107,69.275"/>
		<path fill="none" stroke="#D3D6DB" stroke-miterlimit="10" d="M281.511,69.555c0,0.658-0.532,1.193-1.192,1.193
			c-0.658,0-1.193-0.535-1.193-1.193c0-0.659,0.535-1.193,1.193-1.193C280.979,68.361,281.511,68.896,281.511,69.555"/>
		<path fill="none" stroke="#D3D6DB" stroke-miterlimit="10" d="M279.303,71.941c0,0.659-0.535,1.194-1.195,1.194
			c-0.659,0-1.192-0.535-1.192-1.194c0-0.658,0.533-1.193,1.192-1.193C278.768,70.748,279.303,71.283,279.303,71.941"/>
		<path fill="none" stroke="#D3D6DB" stroke-miterlimit="10" d="M282.707,72.868c0,0.66-0.535,1.194-1.196,1.194
			c-0.658,0-1.192-0.534-1.192-1.194c0-0.659,0.534-1.193,1.192-1.193C282.172,71.675,282.707,72.209,282.707,72.868"/>
		<path fill="none" stroke="#D3D6DB" stroke-miterlimit="10" d="M279.734,74.863c0,0.658-0.533,1.194-1.195,1.194
			c-0.658,0-1.193-0.536-1.193-1.194c0-0.659,0.535-1.194,1.193-1.194C279.201,73.669,279.734,74.204,279.734,74.863"/>
		<path fill="none" stroke="#D3D6DB" stroke-miterlimit="10" d="M276.152,72.476c0,0.659-0.535,1.194-1.193,1.194
			s-1.194-0.535-1.194-1.194s0.536-1.194,1.194-1.194S276.152,71.816,276.152,72.476"/>
		<path fill="none" stroke="#D3D6DB" stroke-miterlimit="10" d="M276.356,75.549c0,0.66-0.535,1.194-1.194,1.194
			c-0.66,0-1.193-0.534-1.193-1.194c0-0.658,0.533-1.193,1.193-1.193C275.821,74.355,276.356,74.891,276.356,75.549"/>
		<path fill="none" stroke="#D3D6DB" stroke-miterlimit="10" d="M284.764,70.088c0,0.659-0.533,1.193-1.194,1.193
			c-0.658,0-1.193-0.534-1.193-1.193c0-0.658,0.535-1.194,1.193-1.194C284.23,68.894,284.764,69.43,284.764,70.088"/>
		<path fill="none" stroke="#D3D6DB" stroke-miterlimit="10" d="M268.075,63.179c0,0.659-0.534,1.194-1.194,1.194
			s-1.193-0.535-1.193-1.194c0-0.658,0.533-1.194,1.193-1.194S268.075,62.521,268.075,63.179"/>
		<path fill="none" stroke="#D3D6DB" stroke-miterlimit="10" d="M270.463,60.334c0,0.658-0.535,1.194-1.193,1.194
			c-0.66,0-1.194-0.536-1.194-1.194s0.534-1.193,1.194-1.193C269.928,59.141,270.463,59.676,270.463,60.334"/>
		<path fill="none" stroke="#D3D6DB" stroke-miterlimit="10" d="M273.41,58.455c0,0.658-0.535,1.193-1.193,1.193
			c-0.661,0-1.195-0.535-1.195-1.193c0-0.66,0.534-1.195,1.195-1.195C272.875,57.26,273.41,57.795,273.41,58.455"/>
		<path fill="none" stroke="#D3D6DB" stroke-miterlimit="10" d="M276.559,57.769c0,0.659-0.533,1.194-1.193,1.194
			c-0.658,0-1.193-0.535-1.193-1.194s0.535-1.194,1.193-1.194C276.025,56.574,276.559,57.109,276.559,57.769"/>
		<path fill="none" stroke="#D3D6DB" stroke-miterlimit="10" d="M279.938,58.455c0,0.658-0.534,1.193-1.194,1.193
			c-0.659,0-1.192-0.535-1.192-1.193c0-0.66,0.533-1.195,1.192-1.195C279.403,57.26,279.938,57.795,279.938,58.455"/>
		<path fill="none" stroke="#D3D6DB" stroke-miterlimit="10" d="M282.808,60.334c0,0.658-0.533,1.194-1.194,1.194
			c-0.658,0-1.193-0.536-1.193-1.194s0.535-1.193,1.193-1.193C282.274,59.141,282.808,59.676,282.808,60.334"/>
		<path fill="none" stroke="#D3D6DB" stroke-miterlimit="10" d="M284.764,63.179c0,0.659-0.533,1.194-1.194,1.194
			c-0.658,0-1.193-0.535-1.193-1.194c0-0.658,0.535-1.194,1.193-1.194C284.23,61.984,284.764,62.521,284.764,63.179"/>
		<path fill="none" stroke="#D3D6DB" stroke-miterlimit="10" d="M281.613,63.585c0,0.659-0.533,1.194-1.193,1.194
			c-0.658,0-1.194-0.535-1.194-1.194s0.536-1.194,1.194-1.194C281.08,62.391,281.613,62.926,281.613,63.585"/>
		<path fill="none" stroke="#D3D6DB" stroke-miterlimit="10" d="M278.107,63.991c0,0.659-0.533,1.194-1.192,1.194
			s-1.192-0.535-1.192-1.194s0.533-1.193,1.192-1.193S278.107,63.332,278.107,63.991"/>
		<path fill="none" stroke="#D3D6DB" stroke-miterlimit="10" d="M274.959,63.991c0,0.659-0.534,1.194-1.194,1.194
			c-0.659,0-1.192-0.535-1.192-1.194s0.533-1.193,1.192-1.193C274.425,62.798,274.959,63.332,274.959,63.991"/>
		<path fill="none" stroke="#D3D6DB" stroke-miterlimit="10" d="M271.428,63.712c0,0.659-0.533,1.194-1.193,1.194
			c-0.659,0-1.193-0.535-1.193-1.194s0.534-1.193,1.193-1.193C270.895,62.519,271.428,63.053,271.428,63.712"/>
		<path fill="none" stroke="#D3D6DB" stroke-miterlimit="10" d="M273.562,61.324c0,0.66-0.534,1.194-1.194,1.194
			c-0.658,0-1.192-0.534-1.192-1.194c0-0.658,0.534-1.193,1.192-1.193C273.027,60.131,273.562,60.666,273.562,61.324"/>
		<path fill="none" stroke="#D3D6DB" stroke-miterlimit="10" d="M276.559,60.664c0,0.66-0.533,1.193-1.193,1.193
			c-0.658,0-1.193-0.533-1.193-1.193c0-0.659,0.535-1.193,1.193-1.193C276.025,59.471,276.559,60.005,276.559,60.664"/>
		<path fill="none" stroke="#D3D6DB" stroke-miterlimit="10" d="M279.303,61.527c0,0.66-0.535,1.194-1.195,1.194
			c-0.659,0-1.192-0.534-1.192-1.194c0-0.658,0.533-1.193,1.192-1.193C278.768,60.334,279.303,60.869,279.303,61.527"/>
		<path fill="none" stroke="#D3D6DB" stroke-miterlimit="10" d="M270.463,66.734c0,0.66-0.535,1.195-1.193,1.195
			c-0.66,0-1.194-0.535-1.194-1.195c0-0.658,0.534-1.194,1.194-1.194C269.928,65.54,270.463,66.076,270.463,66.734"/>
		<path fill="none" stroke="#D3D6DB" stroke-miterlimit="10" d="M273.41,66.734c0,0.66-0.535,1.195-1.193,1.195
			c-0.661,0-1.195-0.535-1.195-1.195c0-0.658,0.534-1.194,1.195-1.194C272.875,65.54,273.41,66.076,273.41,66.734"/>
		<path fill="none" stroke="#D3D6DB" stroke-miterlimit="10" d="M276.356,66.734c0,0.66-0.535,1.195-1.194,1.195
			c-0.66,0-1.193-0.535-1.193-1.195c0-0.658,0.533-1.194,1.193-1.194C275.821,65.54,276.356,66.076,276.356,66.734"/>
		<path fill="none" stroke="#D3D6DB" stroke-miterlimit="10" d="M279.303,66.734c0,0.66-0.535,1.195-1.195,1.195
			c-0.659,0-1.192-0.535-1.192-1.195c0-0.658,0.533-1.194,1.192-1.194C278.768,65.54,279.303,66.076,279.303,66.734"/>
		<path fill="none" stroke="#D3D6DB" stroke-miterlimit="10" d="M282.248,66.734c0,0.66-0.532,1.195-1.193,1.195
			c-0.658,0-1.193-0.535-1.193-1.195c0-0.658,0.535-1.194,1.193-1.194C281.716,65.54,282.248,66.076,282.248,66.734"/>
		<path fill="none" stroke="#D3D6DB" stroke-miterlimit="10" d="M285.196,66.734c0,0.66-0.534,1.195-1.194,1.195
			c-0.659,0-1.194-0.535-1.194-1.195c0-0.658,0.535-1.194,1.194-1.194C284.662,65.54,285.196,66.076,285.196,66.734"/>
	</g>
</g>
</svg>
