<?xml version="1.0" encoding="utf-8"?>
<!-- Generator: Adobe Illustrator 16.0.4, SVG Export Plug-In . SVG Version: 6.00 Build 0)  -->
<!DOCTYPE svg PUBLIC "-//W3C//DTD SVG 1.1//EN" "http://www.w3.org/Graphics/SVG/1.1/DTD/svg11.dtd">
<svg version="1.1" xmlns="http://www.w3.org/2000/svg" xmlns:xlink="http://www.w3.org/1999/xlink" x="0px" y="0px" width="550px"
	 height="1000px" viewBox="0 0 550 1000" enable-background="new 0 0 550 1000" xml:space="preserve">
<g id="raster_map">
	<g>
		<defs>
			<rect id="SVGID_1_" x="56" y="328.896" width="440" height="492"/>
		</defs>
		<clipPath id="SVGID_2_">
			<use xlink:href="#SVGID_1_"  overflow="visible"/>
		</clipPath>
		<g transform="matrix(1 0 0 1 3.814697e-06 0)" clip-path="url(#SVGID_2_)">
			
				<image overflow="visible" width="761" height="963" xlink:href="7F47E379BCBE5D50.jpg"  transform="matrix(0.5769 0 0 0.5057 56.9854 333.7588)">
			</image>
		</g>
	</g>
</g>
<g id="screens">
	<rect x="187.5" y="265.396" fill="none" stroke="#00244C" stroke-miterlimit="10" width="132" height="52"/>
	<rect x="319.5" y="265.396" fill="none" stroke="#00244C" stroke-miterlimit="10" width="151" height="52"/>
	<rect x="79.5" y="265.396" fill="#00234B" stroke="#00244C" stroke-miterlimit="10" width="108" height="52"/>
	<path fill="#333333" d="M80.619,119.775l-8.953-15.507c-0.486-0.843-1.281-0.843-1.767,0l-8.954,15.507
		c-0.485,0.843-0.088,1.531,0.884,1.531h17.908C80.708,121.307,81.104,120.618,80.619,119.775z M72.019,118.847h-2.471v-2.391h2.471
		V118.847z M72.019,114.941h-2.471v-5.659h2.471V114.941z"/>
	<rect x="56" y="127.896" fill="#00244C" width="440" height="59"/>
	<g>
		<path fill="#FFFFFF" d="M466.154,153.072c-0.092-0.071-0.197-0.12-0.319-0.149c-0.12-0.026-0.25-0.041-0.387-0.041
			c-0.138,0-0.269,0.015-0.392,0.041c-0.123,0.029-0.23,0.078-0.322,0.149c-0.092,0.07-0.163,0.163-0.216,0.279
			c-0.052,0.115-0.078,0.26-0.078,0.435c0,0.17,0.026,0.312,0.078,0.43c0.053,0.117,0.124,0.212,0.216,0.282
			c0.092,0.071,0.199,0.122,0.322,0.152s0.254,0.045,0.392,0.045c0.137,0,0.267-0.015,0.387-0.045
			c0.122-0.03,0.228-0.081,0.319-0.152c0.09-0.07,0.164-0.165,0.219-0.282c0.054-0.117,0.081-0.26,0.081-0.43
			c0-0.175-0.027-0.319-0.081-0.435C466.318,153.235,466.244,153.143,466.154,153.072z"/>
		<rect x="464.519" y="155.539" fill="#FFFFFF" width="1.852" height="6.783"/>
		<path fill="#FFFFFF" d="M465.443,148.611c-5.005,0-9.076,4.072-9.076,9.077c0,5.006,4.071,9.078,9.076,9.078
			c5.006,0,9.078-4.072,9.078-9.078C474.521,152.684,470.449,148.611,465.443,148.611z M465.443,165.455
			c-4.282,0-7.766-3.482-7.766-7.767c0-4.283,3.483-7.767,7.766-7.767c4.283,0,7.767,3.483,7.767,7.767
			C473.21,161.973,469.727,165.455,465.443,165.455z"/>
	</g>
	<g>
		<path fill="#FFFFFF" d="M130.047,163.217l0.28,0.963h0.038l0.28-0.963l4.091-11.303h1.206l-5.062,13.601h-1.065l-5.062-13.601
			h1.214L130.047,163.217z"/>
		<path fill="#FFFFFF" d="M147.17,152.867h-4.614v12.647h-1.121v-12.647h-4.614v-0.953h10.35V152.867z"/>
		<path fill="#FFFFFF" d="M161.929,162.181c0-0.761-0.271-1.368-0.813-1.827c-0.542-0.457-1.513-0.869-2.914-1.237
			c-1.52-0.38-2.654-0.861-3.404-1.447c-0.751-0.586-1.125-1.395-1.125-2.429c0-1.059,0.421-1.911,1.265-2.555
			c0.845-0.646,1.951-0.967,3.32-0.967c1.427,0,2.566,0.386,3.419,1.158c0.854,0.771,1.28,1.743,1.28,2.914h-1.112
			c0-0.928-0.317-1.68-0.952-2.256c-0.636-0.576-1.514-0.864-2.635-0.864c-1.107,0-1.965,0.24-2.567,0.72
			c-0.604,0.479-0.907,1.087-0.907,1.821c0,0.697,0.277,1.271,0.832,1.719c0.554,0.448,1.537,0.85,2.952,1.205
			c1.487,0.38,2.606,0.881,3.357,1.504c0.751,0.622,1.126,1.463,1.126,2.521c0,1.108-0.438,1.979-1.312,2.606
			c-0.875,0.629-2.013,0.943-3.414,0.943c-1.389,0-2.585-0.337-3.587-1.013c-1.004-0.676-1.505-1.692-1.505-3.051h1.112
			c0,1.084,0.39,1.875,1.167,2.373c0.779,0.498,1.716,0.747,2.812,0.747c1.096,0,1.971-0.233,2.624-0.7
			C161.602,163.6,161.929,162.971,161.929,162.181z"/>
		<path fill="#FFFFFF" d="M166.954,152.82v2.588h2.12v0.915h-2.12v6.586c0,0.672,0.11,1.144,0.332,1.415
			c0.221,0.271,0.521,0.406,0.901,0.406c0.161,0,0.308-0.008,0.438-0.023s0.299-0.042,0.504-0.079l0.16,0.841
			c-0.168,0.068-0.369,0.124-0.598,0.168c-0.231,0.043-0.465,0.065-0.702,0.065c-0.697,0-1.231-0.216-1.602-0.649
			c-0.37-0.433-0.555-1.147-0.555-2.144v-6.586h-1.663v-0.915h1.663v-2.588H166.954z"/>
		<path fill="#FFFFFF" d="M177.809,165.515c-0.074-0.348-0.128-0.641-0.159-0.878c-0.031-0.236-0.046-0.477-0.046-0.719l-0.029-0.01
			c-0.366,0.523-0.855,0.953-1.466,1.289c-0.611,0.336-1.311,0.505-2.103,0.505c-1.002,0-1.771-0.255-2.306-0.767
			c-0.537-0.51-0.804-1.214-0.804-2.11c0-0.953,0.396-1.706,1.19-2.256c0.794-0.552,1.889-0.827,3.283-0.827h2.233v-1.252
			c0-0.734-0.229-1.304-0.688-1.709c-0.457-0.405-1.109-0.607-1.957-0.607c-0.797,0-1.447,0.195-1.951,0.584
			c-0.505,0.39-0.758,0.87-0.758,1.443l-1.11-0.01c0-0.796,0.358-1.491,1.078-2.083c0.719-0.592,1.649-0.888,2.789-0.888
			s2.041,0.279,2.709,0.836c0.665,0.558,0.998,1.376,0.998,2.452v4.97c0,0.362,0.019,0.707,0.057,1.037
			c0.037,0.33,0.105,0.663,0.205,0.999H177.809z M174.137,164.721c0.822,0,1.537-0.185,2.145-0.556
			c0.607-0.37,1.047-0.854,1.322-1.452v-2.111h-2.252c-1.034,0-1.85,0.214-2.447,0.641c-0.599,0.426-0.897,0.966-0.897,1.62
			c0,0.555,0.186,1.003,0.557,1.345C172.934,164.551,173.458,164.721,174.137,164.721z"/>
		<path fill="#FFFFFF" d="M183.31,152.82v2.588h2.121v0.915h-2.121v6.586c0,0.672,0.11,1.144,0.332,1.415
			c0.221,0.271,0.521,0.406,0.901,0.406c0.162,0,0.309-0.008,0.439-0.023s0.299-0.042,0.505-0.079l0.158,0.841
			c-0.169,0.068-0.367,0.124-0.599,0.168c-0.229,0.043-0.463,0.065-0.699,0.065c-0.698,0-1.232-0.216-1.603-0.649
			c-0.371-0.433-0.557-1.147-0.557-2.144v-6.586h-1.662v-0.915h1.662v-2.588H183.31z"/>
		<path fill="#FFFFFF" d="M191.661,165.702c-1.346,0-2.434-0.456-3.265-1.369c-0.831-0.912-1.247-2.103-1.247-3.572v-0.514
			c0-1.477,0.412-2.683,1.237-3.62s1.839-1.406,3.041-1.406c1.264,0,2.243,0.385,2.938,1.153c0.694,0.77,1.042,1.824,1.042,3.163
			v0.952h-7.137v0.271c0,1.158,0.308,2.114,0.924,2.867c0.617,0.754,1.438,1.131,2.467,1.131c0.616,0,1.156-0.09,1.621-0.267
			c0.463-0.178,0.904-0.459,1.321-0.846l0.476,0.767c-0.379,0.398-0.844,0.713-1.391,0.943
			C193.14,165.586,192.464,165.702,191.661,165.702z M191.428,156.174c-0.841,0-1.54,0.312-2.098,0.939
			c-0.557,0.625-0.898,1.437-1.022,2.433h5.987v-0.28c0-0.896-0.251-1.636-0.756-2.219
			C193.034,156.465,192.33,156.174,191.428,156.174z"/>
		<path fill="#FFFFFF" d="M210.241,158.93h-6.549v5.642h7.501v0.943h-8.612v-13.601h8.565v0.953h-7.454v5.109h6.549V158.93z"/>
		<path fill="#FFFFFF" d="M214.546,165.515h-1.11v-14.571h1.11V165.515z"/>
		<path fill="#FFFFFF" d="M221.533,165.702c-1.345,0-2.433-0.456-3.265-1.369c-0.831-0.912-1.246-2.103-1.246-3.572v-0.514
			c0-1.477,0.412-2.683,1.237-3.62c0.824-0.938,1.839-1.406,3.041-1.406c1.264,0,2.242,0.385,2.938,1.153
			c0.693,0.77,1.042,1.824,1.042,3.163v0.952h-7.137v0.271c0,1.158,0.308,2.114,0.924,2.867c0.616,0.754,1.438,1.131,2.466,1.131
			c0.616,0,1.156-0.09,1.621-0.267c0.464-0.178,0.904-0.459,1.322-0.846l0.476,0.767c-0.38,0.398-0.844,0.713-1.391,0.943
			C223.013,165.586,222.337,165.702,221.533,165.702z M221.301,156.174c-0.841,0-1.541,0.312-2.098,0.939
			c-0.557,0.625-0.898,1.437-1.022,2.433h5.986v-0.28c0-0.896-0.251-1.636-0.755-2.219
			C222.907,156.465,222.202,156.174,221.301,156.174z"/>
		<path fill="#FFFFFF" d="M231.239,164.759c0.76,0,1.408-0.206,1.947-0.617c0.538-0.411,0.826-0.992,0.863-1.746h1.075
			c-0.032,0.971-0.421,1.765-1.168,2.382c-0.747,0.616-1.652,0.925-2.718,0.925c-1.401,0-2.471-0.462-3.209-1.388
			c-0.738-0.924-1.106-2.144-1.106-3.657v-0.392c0-1.501,0.368-2.717,1.106-3.648c0.738-0.931,1.805-1.396,3.199-1.396
			c1.121,0,2.043,0.325,2.765,0.972c0.723,0.648,1.099,1.522,1.131,2.625h-1.075c-0.03-0.81-0.311-1.453-0.84-1.929
			c-0.529-0.477-1.189-0.715-1.98-0.715c-1.108,0-1.916,0.383-2.424,1.149c-0.508,0.766-0.761,1.746-0.761,2.942v0.392
			c0,1.222,0.253,2.21,0.761,2.966C229.313,164.381,230.124,164.759,231.239,164.759z"/>
		<path fill="#FFFFFF" d="M239.02,152.82v2.588h2.121v0.915h-2.121v6.586c0,0.672,0.11,1.144,0.332,1.415
			c0.221,0.271,0.521,0.406,0.901,0.406c0.162,0,0.309-0.008,0.439-0.023s0.299-0.042,0.505-0.079l0.157,0.841
			c-0.168,0.068-0.366,0.124-0.598,0.168c-0.229,0.043-0.463,0.065-0.699,0.065c-0.698,0-1.232-0.216-1.603-0.649
			c-0.371-0.433-0.557-1.147-0.557-2.144v-6.586h-1.662v-0.915h1.662v-2.588H239.02z"/>
		<path fill="#FFFFFF" d="M244.728,152.513h-1.112v-1.569h1.112V152.513z M244.728,165.515h-1.112v-10.106h1.112V165.515z"/>
		<path fill="#FFFFFF" d="M247.194,160.312c0-1.52,0.4-2.748,1.204-3.686c0.803-0.938,1.89-1.406,3.261-1.406
			c1.375,0,2.466,0.469,3.27,1.406c0.803,0.938,1.204,2.166,1.204,3.686v0.308c0,1.526-0.4,2.755-1.2,3.686
			c-0.801,0.931-1.886,1.396-3.255,1.396c-1.383,0-2.477-0.466-3.279-1.396c-0.804-0.931-1.204-2.159-1.204-3.686V160.312z
			 M248.314,160.62c0,1.196,0.291,2.185,0.873,2.966c0.583,0.782,1.412,1.173,2.49,1.173c1.064,0,1.888-0.391,2.47-1.173
			c0.582-0.781,0.874-1.77,0.874-2.966v-0.308c0-1.172-0.294-2.153-0.883-2.948c-0.589-0.793-1.415-1.19-2.479-1.19
			c-1.072,0-1.897,0.397-2.477,1.19c-0.579,0.795-0.868,1.776-0.868,2.948V160.62z"/>
		<path fill="#FFFFFF" d="M259.486,155.408l0.094,1.868l0.027,0.009c0.324-0.641,0.763-1.146,1.317-1.513
			c0.554-0.368,1.204-0.552,1.952-0.552c1.09,0,1.915,0.318,2.476,0.953c0.561,0.636,0.841,1.659,0.841,3.073v6.268h-1.121v-6.249
			c0-1.152-0.205-1.952-0.616-2.4s-1.027-0.673-1.85-0.673c-0.761,0-1.391,0.219-1.892,0.654c-0.501,0.437-0.877,0.99-1.126,1.662
			v7.006h-1.121v-10.106H259.486z"/>
	</g>
	<g>
		<rect x="56" y="97.629" width="440" height="30.556"/>
		<polygon fill="#FFFFFF" points="453.222,119.629 452,119.629 452,109.669 449.556,109.7 449.556,108.599 453.222,108.18 		"/>
		<path fill="#FFFFFF" d="M465.444,119.629h-7.332v-1.207l3.742-4.104c0.661-0.74,1.128-1.328,1.365-1.762
			c0.236-0.436,0.363-0.88,0.363-1.334c0-0.564-0.158-1.04-0.488-1.425c-0.327-0.385-0.761-0.578-1.304-0.578
			c-0.78,0-1.354-0.017-1.726,0.385c-0.369,0.402-0.553,1.471-0.553,1.471h-1.466l-0.015,0.171
			c-0.025-0.973,0.296-1.682,0.969-2.344c0.672-0.662,1.604-0.938,2.792-0.938c1.015,0,1.822,0.323,2.426,0.914
			c0.603,0.593,0.903,1.361,0.903,2.275c0,0.616-0.182,1.238-0.546,1.856s-0.875,1.285-1.534,1.994l-2.971,3.297l0.016,0.105h5.357
			V119.629z"/>
		<path fill="#FFFFFF" d="M469.001,112.679h-1.527v-1.583h1.527V112.679z M469.001,119.476h-1.527v-1.583h1.527V119.476z"/>
		<path fill="#FFFFFF" d="M472.778,113.518h1.802c0.676,0,1.156-0.367,1.439-0.705c0.28-0.339,0.423-0.91,0.423-1.517
			c0-0.646-0.161-1.187-0.482-1.523c-0.32-0.334-0.793-0.528-1.421-0.528c-0.594,0-1.071,0.131-1.43,0.481
			c-0.36,0.347-0.539,1.349-0.539,1.349h-1.467l-0.016-0.016c-0.024-0.854,0.284-1.563,0.928-2.161
			c0.643-0.597,1.485-0.888,2.523-0.888c1.047,0,1.879,0.28,2.499,0.836c0.621,0.557,0.931,1.353,0.931,2.38
			c0,0.467-0.14,0.932-0.422,1.394c-0.282,0.464-0.704,0.817-1.27,1.06c0.678,0.225,1.158,0.572,1.441,1.049
			c0.28,0.477,0.421,1.008,0.421,1.599c0,1.029-0.337,1.839-1.012,2.43c-0.676,0.589-1.538,0.883-2.589,0.883
			c-1.029,0-1.881-0.277-2.554-0.834c-0.677-0.556-1.001-1.578-0.976-2.529l0.024-0.313h1.46c0,1.223,0.182,1.331,0.546,1.681
			c0.363,0.351,0.865,0.659,1.499,0.659c0.647,0,1.154-0.107,1.523-0.457c0.365-0.352,0.549-0.836,0.549-1.521
			c0-0.696-0.162-0.983-0.489-1.314c-0.324-0.328-0.839-0.27-1.542-0.27h-1.802V113.518z"/>
		<path fill="#FFFFFF" d="M487.444,115.169c0,1.445-0.416,2.551-1.057,3.318c-0.639,0.768-1.562,1.151-2.675,1.151
			c-1.111,0-1.988-0.386-2.635-1.156c-0.647-0.771-0.967-1.875-0.967-3.313v-2.676c0-1.438,0.295-2.544,0.938-3.316
			c0.645-0.773,1.507-1.16,2.614-1.16c1.109,0,2.079,0.387,2.724,1.16c0.645,0.772,1.058,1.878,1.058,3.316V115.169z
			 M486.223,112.165c0-0.976-0.428-1.711-0.784-2.205c-0.353-0.493-0.992-0.741-1.664-0.741s-1.372,0.248-1.725,0.741
			c-0.352,0.494-0.716,1.229-0.716,2.205v3.31c0,0.977,0.304,1.714,0.66,2.214c0.357,0.498,0.935,0.748,1.606,0.748
			c0.674,0,1.467-0.248,1.816-0.745c0.349-0.495,0.806-1.233,0.806-2.217V112.165z"/>
		<path fill="#FFFFFF" d="M409.368,121.66h3.585v-8.783l-3.585,3.97V121.66z M413.824,121.66h3.614v-13.875l-3.614,4.083V121.66z
			 M418.338,106.805v14.883l3.563-0.027v-18.774L418.338,106.805z M408.441,121.66v-3.807l-3.51,3.807H408.441z"/>
		<path fill="#FFFFFF" d="M384.633,110.962l2.364,2.748c1.828-1.419,4.158-2.271,6.699-2.271c2.538,0,4.872,0.853,6.698,2.271
			l2.36-2.743c-2.47-1.921-5.626-3.072-9.059-3.072C390.259,107.895,387.105,109.046,384.633,110.962 M381.713,107.568l2.363,2.745
			c2.621-2.034,5.971-3.26,9.62-3.26c3.645,0,6.996,1.226,9.619,3.26l2.365-2.745C398.724,102.168,388.669,102.168,381.713,107.568
			 M390.614,117.911h-0.002l3.084,3.584l3.084-3.584c-0.832-0.702-1.91-1.129-3.084-1.129
			C392.52,116.782,391.442,117.207,390.614,117.911 M387.563,114.368l2.49,2.894h0.004c0.981-0.828,2.249-1.331,3.639-1.331
			c1.387,0,2.657,0.507,3.638,1.335l2.494-2.897c-1.676-1.299-3.807-2.077-6.132-2.077S389.235,113.069,387.563,114.368"/>
		<polygon fill-rule="evenodd" clip-rule="evenodd" fill="#FFFFFF" points="443.444,122.072 443.444,104.961 439.778,104.961 
			439.778,103.74 433.666,103.74 433.666,104.961 430,104.961 430,122.072 		"/>
	</g>
	<rect x="56" y="821.631" width="440" height="58.667"/>
	<g opacity="0.4">
		<g>
			<defs>
				<rect id="SVGID_49_" x="133.614" y="842.408" width="40.327" height="20.778"/>
			</defs>
			<clipPath id="SVGID_4_">
				<use xlink:href="#SVGID_49_"  overflow="visible"/>
			</clipPath>
			<path clip-path="url(#SVGID_4_)" fill="#FFFFFF" d="M165.388,848.52h-27.347l5.349-6.111h-3.364l-6.411,7.334l6.411,7.334h3.364
				l-5.349-6.112h27.347c2.787,0,6.111,0.848,6.111,4.889s-3.324,4.89-6.111,4.89h-14.055v2.444h14.055
				c5.357,0,8.554-2.743,8.554-7.334S170.745,848.52,165.388,848.52"/>
		</g>
	</g>
	<g opacity="0.4">
		<g>
			<defs>
				<rect id="SVGID_51_" x="254" y="840.612" width="44" height="22.574"/>
			</defs>
			<clipPath id="SVGID_6_">
				<use xlink:href="#SVGID_51_"  overflow="visible"/>
			</clipPath>
			<path clip-path="url(#SVGID_6_)" fill-rule="evenodd" clip-rule="evenodd" fill="#FFFFFF" d="M275.972,840.613L254,848.412
				v14.774h44v-14.738L275.972,840.613z M275.972,843.166l19.584,6.885v10.691h-39.11v-10.657L275.972,843.166z"/>
		</g>
	</g>
	<g opacity="0.4">
		<g>
			<defs>
				<rect id="SVGID_53_" x="378.666" y="841.797" width="41.556" height="21.39"/>
			</defs>
			<clipPath id="SVGID_8_">
				<use xlink:href="#SVGID_53_"  overflow="visible"/>
			</clipPath>
			<path clip-path="url(#SVGID_8_)" fill-rule="evenodd" clip-rule="evenodd" fill="#FFFFFF" d="M378.669,862.575h34.219v-14.628
				v-0.037h-34.219V862.575z M381.113,850.354h29.331v9.776h-29.331V850.354z M388.445,841.799v2.444h29.331v12.222h2.443v-14.629
				v-0.037H388.445z"/>
			<path clip-path="url(#SVGID_8_)" fill-rule="evenodd" clip-rule="evenodd" fill="#FFFFFF" d="M378.666,863.187h34.223V848.52
				h-34.223V863.187z M410.444,860.742h-29.333v-9.778h29.333V860.742z"/>
			<polygon clip-path="url(#SVGID_8_)" fill-rule="evenodd" clip-rule="evenodd" fill="#FFFFFF" points="388.444,842.408 
				388.444,844.854 417.778,844.854 417.778,858.298 420.222,858.298 420.222,844.854 420.222,842.408 			"/>
		</g>
	</g>
	<g>
		<path fill="#FFFFFF" d="M112.583,293.011h-5.639l-1.291,3.49h-1.053l4.696-12.364h0.959l4.662,12.364h-1.053L112.583,293.011z
			 M107.267,292.145h4.993l-2.479-6.76L107.267,292.145z"/>
		<path fill="#FFFFFF" d="M117.712,296.501h-1.011v-13.247h1.011V296.501z"/>
		<path fill="#FFFFFF" d="M121.661,296.501h-1.011v-13.247h1.011V296.501z"/>
		<path fill="#FFFFFF" d="M136.055,293.47c0-0.69-0.247-1.244-0.739-1.66c-0.492-0.417-1.376-0.792-2.649-1.126
			c-1.382-0.346-2.413-0.783-3.095-1.315c-0.683-0.533-1.023-1.269-1.023-2.208c0-0.963,0.384-1.737,1.15-2.323
			s1.773-0.879,3.019-0.879c1.297,0,2.333,0.352,3.108,1.054s1.163,1.585,1.163,2.649h-1.011c0-0.844-0.288-1.528-0.866-2.051
			c-0.577-0.523-1.375-0.786-2.395-0.786c-1.008,0-1.785,0.219-2.335,0.654s-0.824,0.987-0.824,1.656
			c0,0.634,0.253,1.154,0.756,1.562c0.504,0.407,1.399,0.772,2.684,1.095c1.353,0.346,2.371,0.801,3.053,1.367
			c0.683,0.566,1.023,1.331,1.023,2.293c0,1.008-0.397,1.798-1.193,2.369c-0.795,0.571-1.83,0.858-3.104,0.858
			c-1.263,0-2.35-0.307-3.261-0.922s-1.367-1.539-1.367-2.772h1.011c0,0.985,0.354,1.704,1.062,2.157
			c0.707,0.452,1.56,0.679,2.556,0.679s1.792-0.212,2.387-0.637C135.757,294.76,136.055,294.188,136.055,293.47z"/>
		<path fill="#FFFFFF" d="M140.292,284.681h-1.011v-1.427h1.011V284.681z M140.292,296.501h-1.011v-9.188h1.011V296.501z"/>
		<path fill="#FFFFFF" d="M144.571,284.961v2.352h1.928v0.832h-1.928v5.987c0,0.611,0.101,1.04,0.302,1.286s0.474,0.369,0.819,0.369
			c0.147,0,0.28-0.007,0.399-0.021s0.271-0.038,0.458-0.072l0.145,0.764c-0.152,0.062-0.333,0.113-0.543,0.153
			s-0.422,0.06-0.637,0.06c-0.635,0-1.119-0.196-1.457-0.591c-0.337-0.394-0.505-1.042-0.505-1.948v-5.987h-1.512v-0.832h1.512
			v-2.352H144.571z"/>
		<path fill="#FFFFFF" d="M152.163,296.671c-1.223,0-2.212-0.415-2.968-1.244s-1.134-1.912-1.134-3.248v-0.467
			c0-1.342,0.376-2.438,1.125-3.291c0.75-0.853,1.672-1.278,2.765-1.278c1.148,0,2.04,0.35,2.671,1.049
			c0.631,0.7,0.946,1.658,0.946,2.875v0.866h-6.487v0.246c0,1.053,0.28,1.922,0.841,2.606c0.561,0.686,1.308,1.028,2.241,1.028
			c0.561,0,1.052-0.081,1.474-0.242s0.822-0.418,1.201-0.769l0.434,0.696c-0.346,0.362-0.767,0.647-1.266,0.857
			C153.508,296.566,152.894,296.671,152.163,296.671z M151.951,288.009c-0.765,0-1.399,0.285-1.906,0.854
			c-0.507,0.569-0.817,1.307-0.93,2.212h5.442v-0.254c0-0.815-0.229-1.487-0.688-2.018
			C153.412,288.273,152.772,288.009,151.951,288.009z"/>
		<path fill="#FFFFFF" d="M163.084,294.166c0-0.442-0.173-0.82-0.519-1.134c-0.345-0.314-0.987-0.576-1.927-0.786
			c-1.121-0.243-1.938-0.554-2.45-0.934s-0.769-0.935-0.769-1.664c0-0.72,0.29-1.316,0.87-1.792s1.369-0.714,2.365-0.714
			c1.059,0,1.888,0.254,2.488,0.761c0.601,0.506,0.9,1.167,0.9,1.982h-1.02c0-0.516-0.21-0.957-0.628-1.325
			c-0.419-0.367-1-0.552-1.741-0.552c-0.753,0-1.312,0.159-1.677,0.476c-0.365,0.317-0.548,0.694-0.548,1.13
			c0,0.431,0.155,0.781,0.467,1.053s0.953,0.516,1.928,0.73c1.109,0.249,1.932,0.578,2.467,0.989s0.803,0.986,0.803,1.728
			c0,0.781-0.305,1.402-0.913,1.864c-0.609,0.462-1.434,0.692-2.476,0.692c-1.138,0-2.021-0.264-2.649-0.79
			c-0.628-0.526-0.942-1.178-0.942-1.953h1.011c0.04,0.68,0.307,1.163,0.802,1.452s1.089,0.434,1.779,0.434
			c0.747,0,1.331-0.157,1.749-0.472C162.874,295.027,163.084,294.635,163.084,294.166z"/>
	</g>
	<g>
		<g>
			<polygon fill="#B1B3B5" points="90.392,144.478 72.203,147.984 72.203,168.963 90.392,176.321 108.581,168.963 108.581,147.984 
							"/>
			<g>
				<g>
					<polygon fill="#FFFFFF" points="73.273,168.242 90.392,175.167 90.392,164.129 73.273,158.555 					"/>
					<polygon fill="#D71921" points="88.252,174.301 90.392,175.167 90.392,164.129 88.252,163.433 					"/>
					<polygon fill="#D71921" points="79.693,170.879 83.972,172.566 83.972,162.038 79.693,160.646 					"/>
					<polygon fill="#D71921" points="73.273,168.242 75.413,169.101 75.413,159.248 73.273,158.555 					"/>
					<polygon fill="#0067AB" points="73.273,158.555 90.392,164.129 90.392,153.092 73.273,148.868 					"/>
					<polygon fill="#FFFFFF" points="86.764,156.734 86.127,154.334 85.488,156.376 83.424,155.794 85.095,157.638 84.488,159.576 
						86.074,158.72 87.796,160.618 87.138,158.145 88.724,157.285 					"/>
					<polygon fill="#FFFFFF" points="78.178,154.316 77.566,152.02 76.957,153.973 74.98,153.417 76.579,155.181 76.001,157.033 
						77.514,156.213 79.165,158.035 78.535,155.663 80.048,154.843 					"/>
				</g>
				<g>
					<polygon fill="#B1B3B5" points="107.511,168.242 90.392,175.167 90.392,164.129 107.511,158.555 					"/>
					<polygon fill="#8A0304" points="92.532,174.301 90.392,175.167 90.392,164.129 92.532,163.433 					"/>
					<polygon fill="#8A0304" points="101.091,170.879 96.812,172.566 96.812,162.038 101.091,160.646 					"/>
					<polygon fill="#8A0304" points="107.511,168.242 105.371,169.101 105.371,159.248 107.511,158.555 					"/>
					<polygon fill="#004071" points="107.511,158.555 90.392,164.129 90.392,153.092 107.511,148.868 					"/>
					<polygon fill="#B1B3B5" points="95.295,156.376 94.657,154.334 94.02,156.734 92.06,157.285 93.646,158.145 92.988,160.619 
						94.709,158.72 96.296,159.576 95.689,157.638 97.358,155.794 					"/>
					<polygon fill="#B1B3B5" points="105.803,153.417 103.828,153.973 103.217,152.02 102.606,154.316 100.734,154.843 
						102.249,155.663 101.619,158.035 103.269,156.213 104.783,157.033 104.204,155.181 					"/>
				</g>
				<g>
					<polygon fill="#FFFFFF" points="107.511,148.868 90.392,145.567 73.273,148.868 90.392,153.092 					"/>
					<line fill="#0067AB" x1="94.325" y1="147.646" x2="97.003" y2="148.188"/>
					<g>
						<polygon fill="#B1B3B5" points="94.325,141.539 86.539,143.04 86.539,150.512 94.325,148.782 						"/>
						<polygon fill="#004071" points="94.325,147.646 94.325,148.782 97.003,148.188 						"/>
						<polygon fill="#004071" points="83.861,149.883 86.539,149.311 86.539,150.512 						"/>
					</g>
				</g>
			</g>
		</g>
	</g>
	<g>
		<path fill="#00234B" d="M217.394,290.514h-5.953v5.13h6.819v0.857h-7.829v-12.364h7.786v0.866h-6.776v4.646h5.953V290.514z"/>
		<path fill="#00234B" d="M225.987,296.501c-0.068-0.316-0.116-0.583-0.145-0.798s-0.042-0.434-0.042-0.654l-0.025-0.009
			c-0.334,0.476-0.779,0.866-1.334,1.172c-0.554,0.306-1.191,0.459-1.91,0.459c-0.911,0-1.611-0.232-2.098-0.696
			c-0.486-0.465-0.73-1.104-0.73-1.919c0-0.866,0.361-1.55,1.083-2.051s1.717-0.752,2.984-0.752h2.03v-1.138
			c0-0.669-0.208-1.187-0.624-1.555c-0.417-0.367-1.01-0.552-1.779-0.552c-0.725,0-1.316,0.178-1.775,0.531
			c-0.458,0.353-0.688,0.791-0.688,1.312l-1.011-0.008c0-0.725,0.327-1.356,0.981-1.895c0.653-0.537,1.498-0.807,2.534-0.807
			s1.857,0.254,2.463,0.761c0.605,0.506,0.908,1.25,0.908,2.229v4.518c0,0.329,0.018,0.644,0.052,0.942
			c0.033,0.3,0.096,0.604,0.187,0.909H225.987z M222.65,295.779c0.747,0,1.396-0.169,1.948-0.506
			c0.552-0.336,0.953-0.776,1.202-1.32v-1.919h-2.047c-0.94,0-1.682,0.194-2.225,0.582c-0.544,0.387-0.815,0.879-0.815,1.473
			c0,0.504,0.168,0.911,0.505,1.224C221.557,295.624,222.032,295.779,222.65,295.779z"/>
		<path fill="#00234B" d="M233.749,288.188l-0.756-0.051c-0.651,0-1.179,0.177-1.584,0.53s-0.694,0.851-0.87,1.49v6.344h-1.02
			v-9.188h0.892l0.128,1.528v0.043l0.025,0.009c0.261-0.555,0.608-0.985,1.044-1.291c0.437-0.306,0.969-0.459,1.597-0.459
			c0.13,0,0.257,0.01,0.378,0.03c0.122,0.021,0.223,0.04,0.302,0.063L233.749,288.188z"/>
		<path fill="#00234B" d="M236.576,296.501h-1.01v-13.247h1.01V296.501z"/>
		<path fill="#00234B" d="M241.994,294.013l0.34,1.13h0.025l2.785-7.83h1.139l-3.991,10.657c-0.244,0.64-0.551,1.173-0.922,1.601
			c-0.371,0.429-0.927,0.642-1.669,0.642c-0.118,0-0.261-0.013-0.429-0.038c-0.167-0.025-0.293-0.053-0.378-0.081l0.119-0.849
			c0.068,0.011,0.177,0.024,0.327,0.038s0.259,0.021,0.327,0.021c0.458,0,0.802-0.128,1.031-0.386
			c0.229-0.259,0.466-0.689,0.709-1.295l0.484-1.24l-3.55-9.069h1.13L241.994,294.013z"/>
		<path fill="#00234B" d="M255.912,294.412l0.255,0.874h0.034l0.255-0.874l3.72-10.275h1.095l-4.603,12.364H255.7l-4.603-12.364
			h1.104L255.912,294.412z"/>
		<path fill="#00234B" d="M261.967,291.771c0-1.381,0.365-2.497,1.096-3.35s1.718-1.278,2.964-1.278
			c1.251,0,2.242,0.426,2.972,1.278c0.73,0.853,1.096,1.969,1.096,3.35v0.28c0,1.387-0.363,2.505-1.091,3.351s-1.714,1.27-2.96,1.27
			c-1.257,0-2.25-0.424-2.98-1.27s-1.096-1.964-1.096-3.351V291.771z M262.986,292.051c0,1.087,0.265,1.986,0.794,2.696
			s1.284,1.066,2.263,1.066c0.969,0,1.718-0.356,2.246-1.066c0.529-0.71,0.794-1.609,0.794-2.696v-0.28
			c0-1.063-0.268-1.957-0.802-2.679c-0.535-0.722-1.287-1.083-2.255-1.083c-0.974,0-1.724,0.361-2.25,1.083
			c-0.527,0.722-0.79,1.615-0.79,2.679V292.051z"/>
		<path fill="#00234B" d="M273.686,284.961v2.352h1.928v0.832h-1.928v5.987c0,0.611,0.101,1.04,0.302,1.286s0.474,0.369,0.819,0.369
			c0.147,0,0.28-0.007,0.399-0.021s0.271-0.038,0.458-0.072l0.145,0.764c-0.152,0.062-0.333,0.113-0.543,0.153
			s-0.422,0.06-0.637,0.06c-0.635,0-1.119-0.196-1.457-0.591c-0.337-0.394-0.505-1.042-0.505-1.948v-5.987h-1.512v-0.832h1.512
			v-2.352H273.686z"/>
		<path fill="#00234B" d="M278.874,284.681h-1.01v-1.427h1.01V284.681z M278.874,296.501h-1.01v-9.188h1.01V296.501z"/>
		<path fill="#00234B" d="M282.611,287.312l0.084,1.698l0.026,0.009c0.294-0.583,0.693-1.042,1.197-1.376
			c0.503-0.333,1.095-0.501,1.774-0.501c0.991,0,1.741,0.289,2.25,0.866c0.51,0.578,0.765,1.509,0.765,2.794v5.698h-1.019v-5.681
			c0-1.048-0.188-1.775-0.561-2.183c-0.374-0.408-0.935-0.611-1.682-0.611c-0.69,0-1.264,0.197-1.72,0.594s-0.797,0.9-1.023,1.512
			v6.369h-1.019v-9.188H282.611z"/>
		<path fill="#00234B" d="M290.967,291.983c0-1.495,0.308-2.675,0.922-3.541c0.613-0.866,1.49-1.3,2.628-1.3
			c0.662,0,1.226,0.139,1.689,0.416c0.465,0.278,0.85,0.674,1.155,1.189l0.025-0.009l0.119-1.427h0.857v9.069
			c0,1.206-0.322,2.145-0.968,2.815s-1.565,1.006-2.76,1.006c-0.47,0-0.951-0.054-1.444-0.161c-0.492-0.107-0.937-0.264-1.333-0.467
			l0.264-0.815c0.401,0.192,0.801,0.339,1.197,0.438s0.829,0.148,1.299,0.148c0.911,0,1.594-0.259,2.047-0.777
			c0.452-0.518,0.679-1.246,0.679-2.187v-1.121l-0.025-0.008c-0.306,0.458-0.69,0.809-1.154,1.053
			c-0.465,0.243-1.02,0.365-1.665,0.365c-1.126,0-1.997-0.401-2.61-1.206c-0.614-0.804-0.922-1.904-0.922-3.304V291.983z
			 M291.986,292.161c0,1.127,0.222,2.014,0.666,2.663c0.444,0.648,1.123,0.972,2.034,0.972c0.668,0,1.217-0.148,1.647-0.445
			c0.431-0.298,0.767-0.712,1.01-1.244v-4.263c-0.227-0.544-0.547-0.983-0.963-1.316c-0.417-0.334-0.976-0.501-1.678-0.501
			c-0.911,0-1.592,0.362-2.042,1.087c-0.45,0.724-0.675,1.681-0.675,2.87V292.161z"/>
	</g>
	<g>
		<path fill="#00234B" d="M343.676,291.363v5.138h-1.011v-12.364h4.255c1.324,0,2.335,0.325,3.031,0.977s1.045,1.528,1.045,2.633
			c0,1.121-0.349,2.004-1.045,2.649s-1.707,0.968-3.031,0.968H343.676z M343.676,290.497h3.244c1.042,0,1.812-0.255,2.313-0.765
			c0.501-0.509,0.752-1.165,0.752-1.97c0-0.81-0.251-1.472-0.752-1.987s-1.271-0.772-2.313-0.772h-3.244V290.497z"/>
		<path fill="#00234B" d="M352.465,291.771c0-1.381,0.365-2.497,1.096-3.35s1.718-1.278,2.963-1.278
			c1.251,0,2.242,0.426,2.973,1.278s1.096,1.969,1.096,3.35v0.28c0,1.387-0.363,2.505-1.092,3.351
			c-0.728,0.846-1.713,1.27-2.959,1.27c-1.257,0-2.25-0.424-2.98-1.27s-1.096-1.964-1.096-3.351V291.771z M353.483,292.051
			c0,1.087,0.266,1.986,0.794,2.696c0.529,0.71,1.284,1.066,2.264,1.066c0.968,0,1.717-0.356,2.246-1.066s0.794-1.609,0.794-2.696
			v-0.28c0-1.063-0.268-1.957-0.803-2.679s-1.286-1.083-2.255-1.083c-0.974,0-1.724,0.361-2.25,1.083s-0.79,1.615-0.79,2.679
			V292.051z"/>
		<path fill="#00234B" d="M363.853,296.501h-1.011v-13.247h1.011V296.501z"/>
		<path fill="#00234B" d="M367.801,296.501h-1.01v-13.247h1.01V296.501z"/>
		<path fill="#00234B" d="M371.75,284.681h-1.011v-1.427h1.011V284.681z M371.75,296.501h-1.011v-9.188h1.011V296.501z"/>
		<path fill="#00234B" d="M375.486,287.312l0.085,1.698l0.025,0.009c0.295-0.583,0.693-1.042,1.197-1.376
			c0.504-0.333,1.096-0.501,1.774-0.501c0.991,0,1.741,0.289,2.251,0.866c0.509,0.578,0.764,1.509,0.764,2.794v5.698h-1.019v-5.681
			c0-1.048-0.187-1.775-0.561-2.183c-0.374-0.408-0.935-0.611-1.682-0.611c-0.69,0-1.264,0.197-1.72,0.594s-0.796,0.9-1.022,1.512
			v6.369h-1.02v-9.188H375.486z"/>
		<path fill="#00234B" d="M383.842,291.983c0-1.495,0.308-2.675,0.922-3.541s1.49-1.3,2.628-1.3c0.662,0,1.226,0.139,1.69,0.416
			c0.464,0.278,0.849,0.674,1.154,1.189l0.025-0.009l0.119-1.427h0.857v9.069c0,1.206-0.322,2.145-0.968,2.815
			s-1.565,1.006-2.76,1.006c-0.47,0-0.951-0.054-1.443-0.161c-0.493-0.107-0.937-0.264-1.334-0.467l0.264-0.815
			c0.401,0.192,0.801,0.339,1.197,0.438s0.83,0.148,1.3,0.148c0.911,0,1.594-0.259,2.046-0.777c0.453-0.518,0.68-1.246,0.68-2.187
			v-1.121l-0.025-0.008c-0.306,0.458-0.69,0.809-1.155,1.053c-0.465,0.243-1.019,0.365-1.664,0.365
			c-1.127,0-1.997-0.401-2.611-1.206c-0.614-0.804-0.922-1.904-0.922-3.304V291.983z M384.861,292.161
			c0,1.127,0.223,2.014,0.666,2.663c0.444,0.648,1.123,0.972,2.034,0.972c0.668,0,1.217-0.148,1.647-0.445
			c0.431-0.298,0.767-0.712,1.011-1.244v-4.263c-0.227-0.544-0.548-0.983-0.964-1.316c-0.416-0.334-0.975-0.501-1.678-0.501
			c-0.911,0-1.592,0.362-2.042,1.087c-0.45,0.724-0.675,1.681-0.675,2.87V292.161z"/>
		<path fill="#00234B" d="M405.514,293.47c0-0.69-0.246-1.244-0.739-1.66c-0.492-0.417-1.376-0.792-2.649-1.126
			c-1.382-0.346-2.413-0.783-3.095-1.315c-0.683-0.533-1.023-1.269-1.023-2.208c0-0.963,0.384-1.737,1.15-2.323
			s1.773-0.879,3.019-0.879c1.297,0,2.333,0.352,3.108,1.054s1.163,1.585,1.163,2.649h-1.011c0-0.844-0.288-1.528-0.866-2.051
			c-0.577-0.523-1.375-0.786-2.395-0.786c-1.008,0-1.785,0.219-2.335,0.654s-0.823,0.987-0.823,1.656
			c0,0.634,0.252,1.154,0.755,1.562c0.504,0.407,1.399,0.772,2.684,1.095c1.353,0.346,2.371,0.801,3.053,1.367
			c0.683,0.566,1.023,1.331,1.023,2.293c0,1.008-0.397,1.798-1.193,2.369c-0.795,0.571-1.829,0.858-3.104,0.858
			c-1.263,0-2.35-0.307-3.261-0.922s-1.367-1.539-1.367-2.772h1.011c0,0.985,0.354,1.704,1.062,2.157
			c0.707,0.452,1.56,0.679,2.556,0.679s1.792-0.212,2.387-0.637C405.216,294.76,405.514,294.188,405.514,293.47z"/>
		<path fill="#00234B" d="M409.751,284.681h-1.011v-1.427h1.011V284.681z M409.751,296.501h-1.011v-9.188h1.011V296.501z"/>
		<path fill="#00234B" d="M414.03,284.961v2.352h1.928v0.832h-1.928v5.987c0,0.611,0.101,1.04,0.302,1.286s0.474,0.369,0.819,0.369
			c0.147,0,0.28-0.007,0.399-0.021s0.271-0.038,0.459-0.072l0.144,0.764c-0.152,0.062-0.333,0.113-0.543,0.153
			s-0.422,0.06-0.637,0.06c-0.635,0-1.119-0.196-1.457-0.591c-0.337-0.394-0.505-1.042-0.505-1.948v-5.987H411.5v-0.832h1.512
			v-2.352H414.03z"/>
		<path fill="#00234B" d="M421.622,296.671c-1.223,0-2.212-0.415-2.968-1.244s-1.134-1.912-1.134-3.248v-0.467
			c0-1.342,0.376-2.438,1.126-3.291c0.749-0.853,1.671-1.278,2.764-1.278c1.148,0,2.04,0.35,2.671,1.049
			c0.631,0.7,0.946,1.658,0.946,2.875v0.866h-6.487v0.246c0,1.053,0.28,1.922,0.841,2.606c0.561,0.686,1.308,1.028,2.241,1.028
			c0.561,0,1.052-0.081,1.474-0.242s0.822-0.418,1.201-0.769l0.434,0.696c-0.346,0.362-0.767,0.647-1.266,0.857
			C422.967,296.566,422.353,296.671,421.622,296.671z M421.41,288.009c-0.765,0-1.399,0.285-1.906,0.854
			c-0.507,0.569-0.817,1.307-0.93,2.212h5.443v-0.254c0-0.815-0.229-1.487-0.688-2.018
			C422.871,288.273,422.231,288.009,421.41,288.009z"/>
		<path fill="#00234B" d="M432.543,294.166c0-0.442-0.173-0.82-0.518-1.134c-0.346-0.314-0.988-0.576-1.928-0.786
			c-1.121-0.243-1.938-0.554-2.45-0.934s-0.769-0.935-0.769-1.664c0-0.72,0.29-1.316,0.87-1.792s1.369-0.714,2.365-0.714
			c1.059,0,1.888,0.254,2.488,0.761c0.601,0.506,0.9,1.167,0.9,1.982h-1.02c0-0.516-0.21-0.957-0.628-1.325
			c-0.419-0.367-1-0.552-1.741-0.552c-0.753,0-1.312,0.159-1.677,0.476c-0.365,0.317-0.548,0.694-0.548,1.13
			c0,0.431,0.155,0.781,0.467,1.053s0.954,0.516,1.928,0.73c1.109,0.249,1.932,0.578,2.467,0.989s0.803,0.986,0.803,1.728
			c0,0.781-0.305,1.402-0.913,1.864c-0.609,0.462-1.434,0.692-2.476,0.692c-1.138,0-2.021-0.264-2.649-0.79
			c-0.628-0.526-0.942-1.178-0.942-1.953h1.011c0.04,0.68,0.307,1.163,0.802,1.452s1.089,0.434,1.779,0.434
			c0.747,0,1.331-0.157,1.749-0.472C432.333,295.027,432.543,294.635,432.543,294.166z"/>
	</g>
	<line fill="none" stroke="#E6E6E6" stroke-miterlimit="10" x1="56" y1="417.396" x2="496" y2="417.396"/>
	<g>
		<g>
			
				<image overflow="visible" opacity="0.75" width="1212" height="638" xlink:href="7F47E379BCBE5D50.png"  transform="matrix(0.24 0 0 0.24 139.2607 469.6455)">
			</image>
			<g>
				<polygon fill="#FFFFFF" points="415,484.896 154,484.896 154,583.896 260.504,583.896 284.261,607.654 308.017,583.896 
					415,583.896 				"/>
			</g>
		</g>
		<g>
			<path fill="#0067AC" d="M171.503,516.385v-12.364h4.246c1.478,0,2.606,0.276,3.388,0.832s1.172,1.406,1.172,2.556
				c0,0.583-0.146,1.096-0.438,1.537c-0.291,0.442-0.724,0.773-1.295,0.994v0.025c0.736,0.158,1.284,0.494,1.644,1.006
				c0.359,0.513,0.539,1.117,0.539,1.813c0,1.206-0.375,2.107-1.125,2.704c-0.75,0.598-1.854,0.896-3.308,0.896H171.503z
				 M173.982,509.2h1.852c0.668,0,1.167-0.132,1.498-0.398s0.497-0.666,0.497-1.198c0-0.589-0.167-1.015-0.501-1.277
				c-0.334-0.264-0.86-0.396-1.579-0.396h-1.767V509.2z M173.982,510.916v3.566h2.344c0.656,0,1.148-0.149,1.474-0.45
				s0.488-0.722,0.488-1.266c0-0.599-0.143-1.058-0.43-1.375c-0.286-0.317-0.745-0.476-1.38-0.476H173.982z"/>
			<path fill="#0067AC" d="M186.524,516.555c-1.353,0-2.418-0.416-3.197-1.249c-0.778-0.832-1.167-1.915-1.167-3.252v-0.34
				c0-1.393,0.369-2.523,1.108-3.393c0.738-0.868,1.751-1.3,3.035-1.295c1.269,0,2.238,0.369,2.909,1.104s1.006,1.752,1.006,3.048
				v1.351h-5.554c0.074,0.646,0.289,1.16,0.646,1.546c0.356,0.385,0.849,0.577,1.478,0.577c0.561,0,1.018-0.055,1.371-0.161
				c0.354-0.107,0.749-0.28,1.185-0.519l0.544,1.639c-0.368,0.277-0.838,0.505-1.41,0.68
				C187.906,516.466,187.255,516.555,186.524,516.555z M186.304,508.938c-0.47,0-0.836,0.174-1.1,0.521
				c-0.263,0.349-0.435,0.825-0.514,1.432h3.1v-0.221c0-0.539-0.12-0.962-0.361-1.27
				C187.188,509.092,186.813,508.938,186.304,508.938z"/>
			<path fill="#0067AC" d="M193.93,507.196l0.11,1.273l0.025,0.009c0.3-0.464,0.669-0.822,1.108-1.074
				c0.438-0.252,0.938-0.378,1.499-0.378c0.945,0,1.674,0.284,2.187,0.854c0.512,0.569,0.769,1.49,0.769,2.765v5.74h-2.488v-5.732
				c0-0.628-0.121-1.068-0.365-1.32s-0.622-0.378-1.138-0.378c-0.34,0-0.636,0.066-0.888,0.199
				c-0.252,0.134-0.469,0.322-0.649,0.565v6.666h-2.479v-9.188H193.93z"/>
			<path fill="#0067AC" d="M203.746,507.196l0.11,1.273l0.025,0.009c0.3-0.464,0.67-0.822,1.108-1.074
				c0.439-0.252,0.938-0.378,1.499-0.378c0.945,0,1.675,0.284,2.187,0.854s0.769,1.49,0.769,2.765v5.74h-2.488v-5.732
				c0-0.628-0.121-1.068-0.365-1.32c-0.243-0.252-0.622-0.378-1.138-0.378c-0.34,0-0.635,0.066-0.888,0.199
				c-0.252,0.134-0.469,0.322-0.649,0.565v6.666h-2.479v-9.188H203.746z"/>
			<path fill="#0067AC" d="M213.902,504.997h-2.479v-1.859h2.479V504.997z M213.902,516.385h-2.479v-9.188h2.479V516.385z"/>
			<path fill="#0067AC" d="M218.208,507.196l0.11,1.273l0.025,0.009c0.3-0.464,0.669-0.822,1.108-1.074
				c0.438-0.252,0.938-0.378,1.499-0.378c0.944,0,1.674,0.284,2.187,0.854c0.512,0.569,0.769,1.49,0.769,2.765v5.74h-2.488v-5.732
				c0-0.628-0.122-1.068-0.365-1.32c-0.244-0.252-0.622-0.378-1.138-0.378c-0.34,0-0.636,0.066-0.888,0.199
				c-0.252,0.134-0.469,0.322-0.649,0.565v6.666h-2.479v-9.188H218.208z"/>
			<path fill="#0067AC" d="M225.375,511.867c0-1.478,0.31-2.654,0.93-3.528c0.62-0.875,1.51-1.312,2.671-1.312
				c0.526,0,0.98,0.112,1.363,0.336c0.382,0.223,0.715,0.553,0.997,0.989l0.179-1.155h2.157v8.917c0,1.234-0.381,2.204-1.143,2.912
				s-1.824,1.062-3.188,1.062c-0.486,0-0.992-0.064-1.516-0.195c-0.524-0.131-1.015-0.311-1.474-0.543l0.459-1.69
				c0.384,0.182,0.77,0.323,1.154,0.425s0.796,0.152,1.231,0.152c0.668,0,1.166-0.188,1.494-0.564
				c0.329-0.376,0.493-0.899,0.493-1.566v-0.569l-0.025-0.008c-0.266,0.339-0.579,0.596-0.938,0.768
				c-0.359,0.173-0.779,0.26-1.261,0.26c-1.155,0-2.041-0.406-2.658-1.219s-0.926-1.91-0.926-3.291V511.867z M227.854,512.045
				c0,0.815,0.134,1.449,0.399,1.902s0.711,0.68,1.333,0.68c0.385,0,0.707-0.066,0.964-0.2c0.257-0.133,0.469-0.335,0.633-0.606
				v-3.991c-0.164-0.284-0.376-0.5-0.633-0.649c-0.257-0.15-0.573-0.226-0.947-0.226c-0.617,0-1.062,0.265-1.337,0.794
				s-0.412,1.235-0.412,2.119V512.045z"/>
			<path fill="#0067AC" d="M238.529,504.946v2.25h1.579v1.741h-1.579v4.67c0,0.369,0.069,0.625,0.208,0.773
				c0.138,0.147,0.326,0.221,0.564,0.221c0.142,0,0.263-0.007,0.365-0.021c0.102-0.015,0.218-0.038,0.348-0.072l0.204,1.767
				c-0.221,0.085-0.46,0.152-0.718,0.203c-0.257,0.052-0.53,0.077-0.819,0.077c-0.86,0-1.513-0.231-1.957-0.692
				s-0.667-1.21-0.667-2.246v-4.679h-1.239v-1.741h1.239v-2.25H238.529z"/>
			<path fill="#0067AC" d="M240.779,511.705c0-1.397,0.376-2.526,1.129-3.388c0.754-0.861,1.817-1.291,3.193-1.291
				c1.387,0,2.458,0.43,3.214,1.291s1.134,1.99,1.134,3.388v0.179c0,1.41-0.376,2.541-1.129,3.393
				c-0.754,0.852-1.82,1.278-3.202,1.278c-1.387,0-2.456-0.427-3.21-1.278c-0.753-0.852-1.129-1.982-1.129-3.393V511.705z
				 M243.25,511.884c0,0.854,0.145,1.53,0.434,2.025c0.288,0.495,0.767,0.743,1.435,0.743c0.651,0,1.123-0.25,1.414-0.747
				c0.291-0.498,0.438-1.172,0.438-2.021v-0.179c0-0.832-0.146-1.501-0.441-2.008s-0.771-0.76-1.427-0.76
				c-0.651,0-1.123,0.255-1.414,0.764c-0.291,0.51-0.438,1.178-0.438,2.004V511.884z"/>
			<path fill="#0067AC" d="M253.245,507.196l0.11,1.273l0.025,0.009c0.3-0.464,0.669-0.822,1.108-1.074s0.938-0.378,1.499-0.378
				c0.945,0,1.675,0.284,2.187,0.854s0.769,1.49,0.769,2.765v5.74h-2.488v-5.732c0-0.628-0.121-1.068-0.365-1.32
				c-0.243-0.252-0.622-0.378-1.138-0.378c-0.34,0-0.635,0.066-0.888,0.199c-0.252,0.134-0.469,0.322-0.649,0.565v6.666h-2.479
				v-9.188H253.245z"/>
			<path fill="#0067AC" d="M274.831,505.931h-3.906v10.454h-2.479v-10.454h-3.889v-1.91h10.274V505.931z"/>
			<path fill="#0067AC" d="M275.111,511.705c0-1.397,0.377-2.526,1.13-3.388s1.817-1.291,3.192-1.291
				c1.387,0,2.459,0.43,3.215,1.291s1.134,1.99,1.134,3.388v0.179c0,1.41-0.377,2.541-1.13,3.393s-1.819,1.278-3.201,1.278
				c-1.387,0-2.457-0.427-3.21-1.278s-1.13-1.982-1.13-3.393V511.705z M277.583,511.884c0,0.854,0.145,1.53,0.433,2.025
				c0.289,0.495,0.768,0.743,1.436,0.743c0.651,0,1.122-0.25,1.414-0.747c0.291-0.498,0.438-1.172,0.438-2.021v-0.179
				c0-0.832-0.147-1.501-0.442-2.008c-0.294-0.507-0.77-0.76-1.427-0.76c-0.65,0-1.122,0.255-1.413,0.764
				c-0.292,0.51-0.438,1.178-0.438,2.004V511.884z"/>
			<path fill="#0067AC" d="M293.301,513.234h0.026l1.223-6.038h2.326l-2.335,9.188h-2.072l-1.715-5.682h-0.034l-1.716,5.682h-2.063
				l-2.335-9.188h2.327l1.214,6.046h0.025l1.741-6.046h1.656L293.301,513.234z"/>
			<path fill="#0067AC" d="M300.375,507.196l0.11,1.273l0.025,0.009c0.3-0.464,0.669-0.822,1.108-1.074s0.938-0.378,1.499-0.378
				c0.944,0,1.675,0.284,2.187,0.854s0.769,1.49,0.769,2.765v5.74h-2.488v-5.732c0-0.628-0.121-1.068-0.365-1.32
				c-0.243-0.252-0.622-0.378-1.138-0.378c-0.34,0-0.636,0.066-0.888,0.199c-0.252,0.134-0.469,0.322-0.649,0.565v6.666h-2.479
				v-9.188H300.375z"/>
			<path fill="#0067AC" d="M322.454,516.385h-2.472v-5.138h-5.044v5.138h-2.479v-12.364h2.479v5.315h5.044v-5.315h2.472V516.385z"/>
			<path fill="#0067AC" d="M329.961,516.385c-0.074-0.17-0.139-0.349-0.195-0.535c-0.058-0.187-0.103-0.379-0.137-0.577
				c-0.288,0.391-0.637,0.701-1.044,0.934s-0.89,0.349-1.443,0.349c-0.917,0-1.637-0.245-2.157-0.734
				c-0.521-0.49-0.781-1.165-0.781-2.025c0-0.918,0.34-1.619,1.02-2.106c0.679-0.487,1.698-0.73,3.057-0.73h1.266v-0.73
				c0-0.453-0.115-0.798-0.345-1.035c-0.229-0.238-0.575-0.357-1.04-0.357c-0.418,0-0.737,0.096-0.955,0.285
				c-0.219,0.189-0.327,0.459-0.327,0.811h-2.471c0-0.82,0.354-1.51,1.065-2.067c0.711-0.559,1.66-0.837,2.849-0.837
				c1.121,0,2.02,0.273,2.696,0.819s1.015,1.347,1.015,2.399v3.796c0,0.441,0.032,0.848,0.098,1.219s0.169,0.746,0.311,1.125
				H329.961z M327.812,514.729c0.379,0,0.72-0.08,1.023-0.237c0.303-0.158,0.539-0.362,0.709-0.611v-1.521h-1.266
				c-0.544,0-0.947,0.129-1.21,0.387c-0.264,0.257-0.396,0.578-0.396,0.964c0,0.311,0.101,0.559,0.302,0.743
				C327.177,514.637,327.455,514.729,327.812,514.729z"/>
			<path fill="#0067AC" d="M336.517,516.385h-2.479v-13.247h2.479V516.385z"/>
			<path fill="#0067AC" d="M341.161,516.385h-2.479v-13.247h2.479V516.385z"/>
		</g>
		<g>
			<path fill="#808080" d="M178.304,539.863h-6.909v-0.703l3.646-4.135c0.688-0.774,1.167-1.412,1.438-1.911
				c0.27-0.499,0.404-0.988,0.404-1.468c0-0.703-0.192-1.261-0.576-1.673c-0.386-0.413-0.939-0.619-1.663-0.619
				c-0.86,0-1.507,0.229-1.938,0.691c-0.431,0.461-0.646,1.092-0.646,1.892h-0.909c0-0.968,0.309-1.771,0.925-2.407
				c0.616-0.638,1.473-0.956,2.567-0.956c0.974,0,1.744,0.271,2.312,0.814c0.568,0.542,0.853,1.285,0.853,2.228
				c0,0.622-0.188,1.239-0.565,1.854c-0.377,0.613-0.917,1.318-1.62,2.113l-3.103,3.508h5.785V539.863z"/>
			<path fill="#808080" d="M186.979,539.863h-6.909v-0.703l3.646-4.135c0.688-0.774,1.167-1.412,1.437-1.911
				c0.271-0.499,0.405-0.988,0.405-1.468c0-0.703-0.192-1.261-0.576-1.673c-0.386-0.413-0.939-0.619-1.663-0.619
				c-0.861,0-1.507,0.229-1.938,0.691c-0.431,0.461-0.646,1.092-0.646,1.892h-0.909c0-0.968,0.308-1.771,0.924-2.407
				c0.617-0.638,1.473-0.956,2.568-0.956c0.974,0,1.743,0.271,2.312,0.814c0.568,0.542,0.853,1.285,0.853,2.228
				c0,0.622-0.188,1.239-0.565,1.854c-0.377,0.613-0.917,1.318-1.62,2.113l-3.104,3.508h5.786V539.863z"/>
			<path fill="#808080" d="M189.142,534.826l0.618-6.091h5.403v0.848h-4.623l-0.413,3.967c0.285-0.26,0.593-0.457,0.921-0.593
				c0.329-0.134,0.786-0.21,1.372-0.225c0.968-0.016,1.737,0.296,2.308,0.937c0.571,0.639,0.856,1.521,0.856,2.647
				c0,1.151-0.277,2.057-0.829,2.718c-0.554,0.659-1.405,0.989-2.557,0.989c-0.938,0-1.708-0.254-2.312-0.76
				c-0.603-0.508-0.905-1.283-0.905-2.328h0.879c0,0.765,0.209,1.341,0.627,1.731c0.418,0.389,0.988,0.584,1.712,0.584
				c0.841,0,1.462-0.244,1.865-0.733c0.402-0.489,0.604-1.218,0.604-2.186c0-0.851-0.202-1.521-0.608-2.015
				c-0.404-0.49-0.981-0.737-1.73-0.737c-0.729,0-1.276,0.112-1.644,0.337c-0.366,0.224-0.634,0.568-0.802,1.031L189.142,534.826z"
				/>
			<path fill="#808080" d="M202.837,528.735l4.111,9.852l4.127-9.852h1.208v11.128h-0.909v-4.915l0.076-4.929l-0.023-0.008
				l-4.157,9.852h-0.635l-4.149-9.813l-0.023,0.008l0.084,4.891v4.915h-0.909v-11.128H202.837z"/>
			<path fill="#808080" d="M220.186,539.863c-0.062-0.286-0.104-0.525-0.13-0.719s-0.038-0.39-0.038-0.589l-0.023-0.008
				c-0.3,0.429-0.7,0.78-1.199,1.055c-0.5,0.275-1.073,0.413-1.72,0.413c-0.82,0-1.449-0.209-1.888-0.627s-0.657-0.993-0.657-1.727
				c0-0.78,0.325-1.395,0.974-1.847c0.65-0.45,1.546-0.676,2.687-0.676h1.827v-1.024c0-0.601-0.188-1.067-0.562-1.398
				c-0.375-0.331-0.908-0.497-1.602-0.497c-0.652,0-1.185,0.16-1.598,0.478c-0.412,0.319-0.618,0.713-0.618,1.182l-0.91-0.008
				c0-0.652,0.295-1.221,0.883-1.704c0.589-0.484,1.349-0.727,2.281-0.727s1.672,0.228,2.217,0.685
				c0.545,0.455,0.817,1.124,0.817,2.006v4.065c0,0.296,0.016,0.579,0.046,0.849c0.03,0.271,0.087,0.543,0.168,0.818H220.186z
				 M217.182,539.213c0.673,0,1.257-0.151,1.755-0.454c0.496-0.304,0.856-0.699,1.081-1.188v-1.728h-1.842
				c-0.846,0-1.514,0.175-2.003,0.523c-0.488,0.35-0.733,0.791-0.733,1.326c0,0.453,0.151,0.82,0.455,1.101
				C216.197,539.073,216.627,539.213,217.182,539.213z"/>
			<path fill="#808080" d="M224.389,529.225h-0.909v-1.284h0.909V529.225z M224.389,539.863h-0.909v-8.27h0.909V539.863z"/>
			<path fill="#808080" d="M227.752,531.594l0.076,1.528l0.023,0.008c0.265-0.525,0.624-0.938,1.077-1.238s0.986-0.451,1.598-0.451
				c0.892,0,1.566,0.26,2.025,0.779c0.458,0.521,0.688,1.358,0.688,2.515v5.129h-0.917v-5.113c0-0.942-0.168-1.598-0.505-1.964
				c-0.336-0.367-0.84-0.551-1.513-0.551c-0.622,0-1.138,0.179-1.548,0.535s-0.717,0.81-0.921,1.36v5.732h-0.917v-8.27H227.752z"/>
			<path fill="#808080" d="M246.056,537.135c0-0.622-0.222-1.12-0.664-1.494c-0.443-0.375-1.238-0.713-2.385-1.013
				c-1.243-0.312-2.173-0.706-2.786-1.185c-0.614-0.479-0.921-1.142-0.921-1.987c0-0.866,0.345-1.562,1.036-2.091
				c0.689-0.526,1.596-0.791,2.717-0.791c1.167,0,2.099,0.316,2.797,0.948s1.047,1.427,1.047,2.385h-0.909
				c0-0.76-0.26-1.375-0.779-1.846c-0.52-0.472-1.238-0.707-2.155-0.707c-0.907,0-1.607,0.196-2.102,0.588
				c-0.495,0.393-0.742,0.89-0.742,1.49c0,0.571,0.228,1.04,0.681,1.406c0.453,0.367,1.259,0.696,2.415,0.986
				c1.218,0.311,2.133,0.721,2.748,1.23c0.613,0.51,0.921,1.197,0.921,2.063c0,0.907-0.358,1.617-1.074,2.132
				c-0.717,0.515-1.647,0.772-2.793,0.772c-1.137,0-2.115-0.276-2.936-0.83c-0.82-0.552-1.23-1.384-1.23-2.494h0.91
				c0,0.886,0.318,1.533,0.955,1.94c0.637,0.408,1.403,0.611,2.301,0.611c0.896,0,1.612-0.19,2.147-0.573
				C245.788,538.296,246.056,537.781,246.056,537.135z"/>
			<path fill="#808080" d="M250.168,529.477v2.117h1.734v0.749h-1.734v5.388c0,0.551,0.09,0.937,0.271,1.157
				c0.181,0.223,0.428,0.333,0.738,0.333c0.133,0,0.252-0.007,0.359-0.019c0.106-0.014,0.244-0.035,0.412-0.065l0.13,0.688
				c-0.138,0.057-0.3,0.103-0.489,0.138c-0.188,0.036-0.379,0.054-0.572,0.054c-0.571,0-1.009-0.177-1.312-0.531
				c-0.304-0.354-0.454-0.938-0.454-1.754v-5.388h-1.36v-0.749h1.36v-2.117H250.168z"/>
			<path fill="#808080" d="M254.929,539.863h-1.047v-1.208h1.047V539.863z"/>
			<path fill="#808080" d="M171.808,562.472v-11.128h3.248c1.177,0,2.082,0.239,2.718,0.719c0.633,0.479,0.951,1.215,0.951,2.208
				c0,0.581-0.156,1.08-0.471,1.494c-0.312,0.416-0.742,0.702-1.287,0.86v0.022c0.667,0.123,1.207,0.437,1.62,0.944
				c0.412,0.507,0.619,1.102,0.619,1.784c0,1.015-0.316,1.783-0.948,2.309c-0.632,0.524-1.5,0.787-2.606,0.787H171.808z
				 M172.717,556.334h2.561c0.82,0,1.447-0.173,1.88-0.52c0.434-0.346,0.649-0.871,0.649-1.574c0-0.719-0.229-1.251-0.688-1.598
				c-0.458-0.346-1.146-0.52-2.063-0.52h-2.339V556.334z M172.717,557.106v4.593h2.935c0.841,0,1.491-0.198,1.949-0.596
				c0.459-0.397,0.688-0.968,0.688-1.712c0-0.683-0.208-1.234-0.626-1.655c-0.418-0.419-1.04-0.63-1.865-0.63H172.717z"/>
			<path fill="#808080" d="M184.44,562.624c-1.1,0-1.991-0.373-2.67-1.119c-0.682-0.747-1.021-1.721-1.021-2.924v-0.42
				c0-1.208,0.338-2.194,1.013-2.962c0.675-0.766,1.505-1.15,2.488-1.15c1.034,0,1.835,0.314,2.403,0.944
				c0.567,0.629,0.853,1.491,0.853,2.587v0.779h-5.839v0.222c0,0.948,0.252,1.73,0.756,2.347c0.505,0.616,1.178,0.925,2.018,0.925
				c0.505,0,0.946-0.072,1.326-0.219c0.38-0.144,0.74-0.375,1.082-0.69l0.39,0.626c-0.311,0.326-0.69,0.584-1.139,0.772
				S185.099,562.624,184.44,562.624z M184.25,554.829c-0.688,0-1.261,0.256-1.716,0.768c-0.457,0.513-0.735,1.176-0.837,1.991h4.898
				v-0.229c0-0.733-0.206-1.339-0.618-1.814C185.564,555.066,184.988,554.829,184.25,554.829z"/>
			<path fill="#808080" d="M190.15,554.202l0.076,1.528l0.022,0.008c0.266-0.524,0.624-0.938,1.078-1.238
				c0.453-0.301,0.985-0.451,1.597-0.451c0.892,0,1.567,0.261,2.025,0.78c0.459,0.52,0.688,1.357,0.688,2.515v5.128h-0.917v-5.113
				c0-0.942-0.169-1.597-0.505-1.964s-0.841-0.551-1.514-0.551c-0.621,0-1.138,0.179-1.548,0.535s-0.717,0.811-0.92,1.36v5.732
				h-0.917v-8.27H190.15z"/>
			<path fill="#808080" d="M198.862,554.202l0.077,1.528l0.022,0.008c0.265-0.524,0.624-0.938,1.078-1.238
				c0.453-0.301,0.985-0.451,1.597-0.451c0.892,0,1.567,0.261,2.025,0.78c0.459,0.52,0.688,1.357,0.688,2.515v5.128h-0.917v-5.113
				c0-0.942-0.168-1.597-0.504-1.964c-0.337-0.367-0.841-0.551-1.514-0.551c-0.621,0-1.138,0.179-1.548,0.535
				s-0.717,0.811-0.921,1.36v5.732h-0.917v-8.27H198.862z"/>
			<path fill="#808080" d="M207.767,551.833h-0.91v-1.284h0.91V551.833z M207.767,562.472h-0.91v-8.27h0.91V562.472z"/>
			<path fill="#808080" d="M211.129,554.202l0.076,1.528l0.023,0.008c0.265-0.524,0.624-0.938,1.077-1.238
				c0.454-0.301,0.986-0.451,1.598-0.451c0.892,0,1.566,0.261,2.025,0.78s0.688,1.357,0.688,2.515v5.128h-0.917v-5.113
				c0-0.942-0.168-1.597-0.504-1.964c-0.337-0.367-0.841-0.551-1.514-0.551c-0.621,0-1.138,0.179-1.548,0.535
				s-0.717,0.811-0.921,1.36v5.732h-0.917v-8.27H211.129z"/>
			<path fill="#808080" d="M218.649,558.405c0-1.345,0.276-2.407,0.83-3.187c0.552-0.779,1.341-1.17,2.364-1.17
				c0.597,0,1.104,0.125,1.521,0.375s0.764,0.606,1.039,1.07l0.023-0.008l0.106-1.284h0.772v8.162c0,1.086-0.291,1.93-0.872,2.534
				c-0.58,0.603-1.408,0.905-2.483,0.905c-0.423,0-0.856-0.049-1.3-0.146c-0.442-0.097-0.843-0.236-1.199-0.42l0.236-0.733
				c0.362,0.173,0.722,0.304,1.078,0.394c0.356,0.088,0.746,0.134,1.169,0.134c0.82,0,1.435-0.234,1.842-0.699
				c0.408-0.467,0.611-1.123,0.611-1.969v-1.009l-0.022-0.008c-0.275,0.413-0.622,0.729-1.039,0.948
				c-0.418,0.219-0.918,0.328-1.498,0.328c-1.015,0-1.798-0.361-2.35-1.085c-0.554-0.724-0.83-1.715-0.83-2.973V558.405z
				 M219.566,558.566c0,1.014,0.2,1.812,0.601,2.396c0.399,0.584,1.01,0.875,1.83,0.875c0.602,0,1.096-0.133,1.482-0.401
				c0.388-0.267,0.69-0.641,0.909-1.119v-3.837c-0.203-0.489-0.492-0.884-0.867-1.185c-0.374-0.301-0.878-0.451-1.509-0.451
				c-0.82,0-1.433,0.326-1.839,0.979c-0.404,0.652-0.607,1.514-0.607,2.583V558.566z"/>
			<path fill="#808080" d="M229.051,552.085v2.117h1.735v0.749h-1.735v5.388c0,0.551,0.091,0.937,0.271,1.158
				s0.427,0.332,0.737,0.332c0.133,0,0.253-0.007,0.359-0.019c0.107-0.014,0.245-0.034,0.413-0.065l0.13,0.688
				c-0.138,0.056-0.301,0.102-0.489,0.138c-0.188,0.035-0.38,0.053-0.573,0.053c-0.57,0-1.008-0.177-1.312-0.531
				c-0.303-0.354-0.454-0.938-0.454-1.754v-5.388h-1.36v-0.749h1.36v-2.117H229.051z"/>
			<path fill="#808080" d="M232.032,558.215c0-1.243,0.328-2.248,0.985-3.016c0.657-0.766,1.547-1.15,2.667-1.15
				c1.126,0,2.018,0.385,2.676,1.15c0.657,0.768,0.985,1.772,0.985,3.016v0.252c0,1.248-0.328,2.254-0.981,3.015
				c-0.655,0.763-1.543,1.143-2.664,1.143c-1.131,0-2.025-0.38-2.683-1.143c-0.657-0.761-0.985-1.767-0.985-3.015V558.215z
				 M232.949,558.467c0,0.979,0.237,1.787,0.714,2.427c0.477,0.639,1.155,0.959,2.037,0.959c0.871,0,1.545-0.32,2.021-0.959
				c0.476-0.64,0.715-1.448,0.715-2.427v-0.252c0-0.958-0.24-1.763-0.723-2.411c-0.48-0.65-1.157-0.975-2.029-0.975
				c-0.876,0-1.551,0.324-2.025,0.975c-0.474,0.648-0.71,1.453-0.71,2.411V558.467z"/>
			<path fill="#808080" d="M242.09,554.202l0.076,1.528l0.022,0.008c0.266-0.524,0.625-0.938,1.078-1.238s0.985-0.451,1.598-0.451
				c0.892,0,1.566,0.261,2.024,0.78c0.459,0.52,0.688,1.357,0.688,2.515v5.128h-0.917v-5.113c0-0.942-0.169-1.597-0.505-1.964
				s-0.841-0.551-1.513-0.551c-0.622,0-1.139,0.179-1.549,0.535s-0.717,0.811-0.92,1.36v5.732h-0.917v-8.27H242.09z"/>
			<path fill="#808080" d="M257.184,560.592l0.229,0.787h0.03l0.229-0.787l3.348-9.248h0.985l-4.142,11.128h-0.871l-4.143-11.128
				h0.993L257.184,560.592z"/>
			<path fill="#808080" d="M271.192,552.123h-3.775v10.349H266.5v-10.349h-3.775v-0.779h8.468V552.123z"/>
			<path fill="#808080" d="M283.207,558.153c0,1.473-0.293,2.588-0.879,3.344c-0.586,0.757-1.432,1.135-2.537,1.135
				c-1.101,0-1.949-0.38-2.545-1.139c-0.597-0.759-0.895-1.872-0.895-3.34v-2.483c0-1.463,0.296-2.576,0.887-3.34
				c0.591-0.765,1.437-1.146,2.537-1.146s1.947,0.382,2.542,1.146c0.593,0.764,0.89,1.877,0.89,3.34V558.153z M282.29,555.517
				c0-1.167-0.209-2.051-0.627-2.652c-0.418-0.601-1.047-0.901-1.888-0.901s-1.469,0.301-1.885,0.901
				c-0.415,0.602-0.622,1.485-0.622,2.652v2.774c0,1.156,0.21,2.041,0.631,2.652c0.42,0.611,1.051,0.917,1.892,0.917
				c0.835,0,1.46-0.305,1.876-0.914c0.415-0.608,0.623-1.493,0.623-2.655V555.517z"/>
			<path fill="#808080" d="M288.021,561.86c0.866,0,1.544-0.278,2.033-0.833c0.489-0.556,0.733-1.371,0.733-2.446v-1.069
				l-0.022-0.008c-0.265,0.458-0.621,0.812-1.066,1.058c-0.446,0.248-0.954,0.371-1.524,0.371c-1.034,0-1.856-0.346-2.465-1.035
				c-0.609-0.69-0.913-1.606-0.913-2.748c0-1.146,0.319-2.094,0.959-2.843c0.639-0.749,1.448-1.123,2.427-1.123
				c1.095,0,1.961,0.344,2.599,1.031c0.637,0.688,0.955,1.712,0.955,3.072v3.279c0,1.314-0.336,2.32-1.009,3.019
				s-1.574,1.047-2.706,1.047c-0.402,0-0.801-0.038-1.196-0.114c-0.395-0.076-0.775-0.193-1.142-0.352l0.168-0.765
				c0.356,0.163,0.698,0.28,1.028,0.352C287.207,561.824,287.589,561.86,288.021,561.86z M288.175,558.161
				c0.678,0,1.233-0.167,1.67-0.501c0.436-0.333,0.75-0.755,0.943-1.265v-1.177c0-1.075-0.227-1.886-0.68-2.435
				c-0.453-0.547-1.083-0.821-1.888-0.821c-0.733,0-1.33,0.306-1.788,0.917c-0.459,0.611-0.688,1.368-0.688,2.27
				c0,0.877,0.215,1.598,0.646,2.163C286.82,557.878,287.416,558.161,288.175,558.161z"/>
			<path fill="#808080" d="M295.871,556.411h1.062c0.83,0,1.449-0.199,1.856-0.597c0.408-0.397,0.612-0.922,0.612-1.574
				c0-0.708-0.193-1.265-0.577-1.67c-0.386-0.404-0.973-0.607-1.762-0.607c-0.729,0-1.317,0.206-1.766,0.619
				c-0.448,0.412-0.673,0.971-0.673,1.674h-0.917c0-0.907,0.312-1.646,0.936-2.217c0.624-0.57,1.431-0.855,2.42-0.855
				c1.014,0,1.81,0.268,2.389,0.802c0.577,0.535,0.867,1.297,0.867,2.285c0,0.535-0.16,1.028-0.479,1.479
				c-0.318,0.452-0.775,0.787-1.371,1.006v0.022c0.698,0.199,1.215,0.53,1.551,0.994c0.337,0.464,0.505,1.023,0.505,1.682
				c0,1.009-0.315,1.79-0.944,2.346s-1.456,0.833-2.479,0.833c-0.994,0-1.836-0.274-2.525-0.821
				c-0.691-0.548-1.036-1.334-1.036-2.357h0.917c0,0.723,0.242,1.305,0.726,1.746c0.484,0.44,1.124,0.661,1.919,0.661
				c0.805,0,1.425-0.201,1.861-0.604c0.435-0.402,0.653-0.993,0.653-1.772c0-0.8-0.228-1.382-0.681-1.747
				c-0.453-0.363-1.121-0.546-2.002-0.546h-1.062V556.411z"/>
			<path fill="#808080" d="M306.41,551.184c0.387,0,0.765,0.043,1.131,0.13c0.367,0.086,0.698,0.211,0.994,0.374l-0.237,0.749
				c-0.301-0.168-0.589-0.289-0.863-0.362c-0.275-0.075-0.617-0.111-1.024-0.111c-0.841,0-1.528,0.315-2.063,0.947
				s-0.803,1.48-0.803,2.545v0.91l0.023,0.008c0.306-0.383,0.69-0.686,1.153-0.91c0.464-0.224,0.986-0.336,1.567-0.336
				c1.019,0,1.813,0.339,2.384,1.017c0.571,0.678,0.856,1.579,0.856,2.705c0,1.121-0.308,2.031-0.921,2.733
				c-0.614,0.699-1.431,1.05-2.449,1.05c-1.045,0-1.895-0.376-2.55-1.127c-0.654-0.752-0.981-1.805-0.981-3.16v-2.805
				c0-1.31,0.359-2.363,1.078-3.16C304.423,551.582,305.325,551.184,306.41,551.184z M306.104,555.876
				c-0.632,0-1.173,0.158-1.624,0.474c-0.45,0.316-0.763,0.731-0.937,1.246v0.817c0,1.085,0.241,1.932,0.722,2.537
				c0.482,0.606,1.113,0.91,1.893,0.91c0.759,0,1.357-0.288,1.796-0.864c0.438-0.575,0.657-1.291,0.657-2.147
				c0-0.906-0.213-1.629-0.638-2.167C307.547,556.146,306.925,555.876,306.104,555.876z"/>
			<path fill="#808080" d="M318.096,562.472h-6.909v-0.703l3.646-4.135c0.688-0.774,1.167-1.411,1.438-1.911
				c0.27-0.499,0.404-0.988,0.404-1.467c0-0.703-0.192-1.262-0.576-1.674c-0.386-0.413-0.939-0.619-1.663-0.619
				c-0.86,0-1.507,0.23-1.938,0.692c-0.431,0.46-0.646,1.091-0.646,1.891h-0.909c0-0.968,0.308-1.771,0.925-2.407
				c0.616-0.637,1.473-0.955,2.567-0.955c0.974,0,1.744,0.271,2.312,0.814c0.568,0.541,0.853,1.284,0.853,2.227
				c0,0.622-0.188,1.239-0.565,1.854c-0.377,0.613-0.917,1.317-1.62,2.112l-3.103,3.508h5.785V562.472z"/>
		</g>
		<g>
			<g>
				<polygon fill="#0067AC" points="384.134,528.124 381.797,528.124 385.366,534.139 381.797,540.298 384.134,540.298 
					387.685,534.211 				"/>
			</g>
		</g>
	</g>
	<line fill="none" stroke="#E6E6E6" stroke-miterlimit="10" x1="56" y1="246.396" x2="496" y2="246.396"/>
	<g>
		<g>
			<path fill="#00244C" d="M81.228,221.627v-12.363h3.609c1.308,0,2.313,0.267,3.019,0.798s1.058,1.351,1.058,2.454
				c0,0.646-0.175,1.199-0.522,1.66c-0.349,0.461-0.825,0.78-1.431,0.955v0.025c0.741,0.137,1.342,0.486,1.8,1.049
				c0.459,0.563,0.688,1.224,0.688,1.983c0,1.126-0.351,1.981-1.053,2.564c-0.702,0.582-1.667,0.874-2.896,0.874H81.228z
				 M82.238,214.809h2.845c0.911,0,1.607-0.192,2.089-0.577c0.481-0.386,0.722-0.969,0.722-1.75c0-0.798-0.255-1.389-0.764-1.774
				c-0.51-0.386-1.274-0.577-2.293-0.577h-2.599V214.809z M82.238,215.666v5.104h3.261c0.934,0,1.656-0.221,2.165-0.662
				c0.51-0.441,0.765-1.075,0.765-1.902c0-0.759-0.231-1.371-0.696-1.838c-0.465-0.468-1.155-0.701-2.072-0.701H82.238z"/>
			<path fill="#00244C" d="M97.54,221.627c-0.067-0.317-0.116-0.582-0.144-0.798c-0.028-0.216-0.043-0.433-0.043-0.653l-0.025-0.009
				c-0.334,0.476-0.778,0.866-1.333,1.172s-1.191,0.458-1.911,0.458c-0.911,0-1.61-0.232-2.098-0.696
				c-0.486-0.463-0.729-1.104-0.729-1.919c0-0.866,0.36-1.55,1.082-2.051s1.718-0.751,2.985-0.751h2.029v-1.139
				c0-0.667-0.208-1.186-0.624-1.554s-1.009-0.552-1.779-0.552c-0.725,0-1.316,0.177-1.774,0.53
				c-0.459,0.354-0.688,0.791-0.688,1.312l-1.01-0.009c0-0.726,0.326-1.355,0.98-1.894s1.499-0.807,2.535-0.807
				s1.856,0.253,2.462,0.76s0.909,1.249,0.909,2.229v4.518c0,0.327,0.017,0.642,0.051,0.942s0.096,0.603,0.187,0.908H97.54z
				 M94.203,220.905c0.747,0,1.396-0.168,1.949-0.505c0.552-0.337,0.952-0.777,1.201-1.32v-1.919h-2.047
				c-0.939,0-1.681,0.193-2.225,0.581c-0.543,0.389-0.815,0.879-0.815,1.474c0,0.504,0.169,0.912,0.506,1.223
				S93.586,220.905,94.203,220.905z"/>
			<path fill="#00244C" d="M102.211,221.627H101.2V208.38h1.011V221.627z"/>
			<path fill="#00244C" d="M106.159,221.627h-1.01V208.38h1.01V221.627z"/>
			<path fill="#00244C" d="M108.401,216.897c0-1.381,0.365-2.498,1.096-3.35c0.73-0.853,1.718-1.278,2.964-1.278
				c1.251,0,2.241,0.426,2.972,1.278c0.73,0.852,1.096,1.969,1.096,3.35v0.28c0,1.388-0.363,2.503-1.092,3.35
				c-0.728,0.847-1.713,1.27-2.959,1.27c-1.257,0-2.25-0.423-2.98-1.27s-1.096-1.962-1.096-3.35V216.897z M109.421,217.178
				c0,1.087,0.265,1.985,0.794,2.696c0.528,0.711,1.283,1.065,2.263,1.065c0.968,0,1.717-0.354,2.246-1.065s0.794-1.609,0.794-2.696
				v-0.28c0-1.064-0.268-1.957-0.803-2.679c-0.534-0.723-1.286-1.083-2.254-1.083c-0.975,0-1.725,0.36-2.251,1.083
				c-0.526,0.722-0.789,1.614-0.789,2.679V217.178z"/>
			<path fill="#00244C" d="M120.12,210.087v2.353h1.928v0.832h-1.928v5.986c0,0.611,0.101,1.041,0.302,1.287
				s0.474,0.369,0.819,0.369c0.146,0,0.28-0.007,0.399-0.021c0.118-0.014,0.271-0.038,0.458-0.072l0.145,0.765
				c-0.152,0.062-0.334,0.114-0.543,0.153c-0.21,0.039-0.423,0.059-0.638,0.059c-0.634,0-1.119-0.196-1.456-0.59
				s-0.505-1.044-0.505-1.949v-5.986h-1.512v-0.832h1.512v-2.353H120.12z"/>
		</g>
	</g>
	<g>
		<g>
			<path fill="#00244C" d="M171.567,217.747h0.025l1.579-8.483h2.396l-2.65,12.363h-2.284l-2.105-8.144h-0.034l-2.105,8.144h-2.285
				l-2.649-12.363h2.403l1.58,8.475h0.025l2.148-8.475h1.791L171.567,217.747z"/>
			<path fill="#00244C" d="M179.474,213.561l0.025,0.008c0.282-0.412,0.63-0.733,1.04-0.959c0.41-0.227,0.873-0.34,1.389-0.34
				c0.979,0,1.736,0.311,2.271,0.934c0.534,0.624,0.802,1.614,0.802,2.973v5.451h-2.479v-5.469c0-0.725-0.123-1.232-0.369-1.523
				c-0.246-0.292-0.624-0.438-1.134-0.438c-0.351,0-0.652,0.06-0.904,0.178c-0.252,0.119-0.465,0.293-0.641,0.519v6.733h-2.48
				V208.38h2.48V213.561z"/>
			<path fill="#00244C" d="M190.938,221.797c-1.354,0-2.419-0.416-3.197-1.248c-0.779-0.832-1.168-1.916-1.168-3.252v-0.34
				c0-1.393,0.369-2.523,1.108-3.393c0.738-0.869,1.751-1.3,3.036-1.295c1.268,0,2.237,0.368,2.908,1.104s1.006,1.753,1.006,3.049
				v1.351h-5.554c0.074,0.646,0.289,1.159,0.646,1.545s0.85,0.578,1.478,0.578c0.561,0,1.018-0.055,1.372-0.162
				c0.354-0.106,0.749-0.28,1.185-0.518l0.543,1.639c-0.367,0.277-0.838,0.505-1.409,0.68
				C192.318,221.709,191.667,221.797,190.938,221.797z M190.717,214.18c-0.47,0-0.837,0.175-1.101,0.522
				c-0.263,0.349-0.435,0.825-0.514,1.431h3.1v-0.221c0-0.538-0.12-0.961-0.36-1.27C191.602,214.335,191.226,214.18,190.717,214.18z
				"/>
			<path fill="#00244C" d="M201.009,214.63l-1.011-0.025c-0.374,0-0.678,0.072-0.913,0.217s-0.414,0.353-0.539,0.624v6.182h-2.471
				v-9.188h2.301l0.11,1.308l0.017,0.009c0.215-0.471,0.488-0.836,0.82-1.096c0.331-0.26,0.726-0.391,1.185-0.391
				c0.136,0,0.271,0.01,0.407,0.029s0.255,0.044,0.356,0.072L201.009,214.63z"/>
			<path fill="#00244C" d="M206.299,221.797c-1.353,0-2.418-0.416-3.197-1.248c-0.778-0.832-1.167-1.916-1.167-3.252v-0.34
				c0-1.393,0.369-2.523,1.107-3.393c0.739-0.869,1.751-1.3,3.036-1.295c1.268,0,2.237,0.368,2.908,1.104s1.007,1.753,1.007,3.049
				v1.351h-5.554c0.073,0.646,0.288,1.159,0.646,1.545c0.356,0.386,0.849,0.578,1.478,0.578c0.561,0,1.017-0.055,1.371-0.162
				c0.354-0.106,0.749-0.28,1.185-0.518l0.544,1.639c-0.368,0.277-0.839,0.505-1.41,0.68S207.029,221.797,206.299,221.797z
				 M206.078,214.18c-0.47,0-0.837,0.175-1.1,0.522c-0.264,0.349-0.435,0.825-0.514,1.431h3.1v-0.221
				c0-0.538-0.121-0.961-0.361-1.27C206.963,214.335,206.588,214.18,206.078,214.18z"/>
			<path fill="#00244C" d="M215.971,221.627v-12.363h3.991c1.716,0,3.076,0.49,4.081,1.473c1.004,0.982,1.507,2.285,1.507,3.911
				v1.604c0,1.636-0.504,2.941-1.512,3.915c-1.008,0.973-2.38,1.46-4.118,1.46H215.971z M218.451,211.174v8.552h1.341
				c1.133,0,1.96-0.308,2.484-0.922c0.523-0.614,0.785-1.465,0.785-2.552v-1.622c0-1.092-0.259-1.941-0.776-2.547
				c-0.519-0.606-1.335-0.909-2.45-0.909H218.451z"/>
			<path fill="#00244C" d="M226.968,216.948c0-1.397,0.377-2.527,1.13-3.388c0.753-0.861,1.817-1.291,3.192-1.291
				c1.387,0,2.459,0.43,3.215,1.291c0.756,0.86,1.134,1.99,1.134,3.388v0.179c0,1.409-0.377,2.541-1.13,3.393
				s-1.819,1.277-3.201,1.277c-1.387,0-2.457-0.426-3.21-1.277s-1.13-1.983-1.13-3.393V216.948z M229.439,217.127
				c0,0.854,0.145,1.53,0.433,2.025c0.289,0.495,0.767,0.743,1.436,0.743c0.651,0,1.122-0.25,1.414-0.748
				c0.291-0.497,0.437-1.172,0.437-2.021v-0.179c0-0.832-0.146-1.501-0.441-2.008c-0.294-0.507-0.77-0.761-1.427-0.761
				c-0.651,0-1.122,0.255-1.413,0.765c-0.292,0.51-0.438,1.177-0.438,2.004V217.127z"/>
			<path fill="#00244C" d="M244.334,221.627h-2.479v-12.363h2.479V221.627z"/>
			<path fill="#00244C" d="M255.365,218.341l0.169,0.739h0.026l0.161-0.722l2.691-9.095h2.616l-4.204,12.363h-2.547l-4.204-12.363
				h2.624L255.365,218.341z"/>
			<path fill="#00244C" d="M261.301,216.948c0-1.397,0.376-2.527,1.129-3.388c0.754-0.861,1.817-1.291,3.193-1.291
				c1.387,0,2.458,0.43,3.214,1.291c0.756,0.86,1.134,1.99,1.134,3.388v0.179c0,1.409-0.376,2.541-1.129,3.393
				c-0.754,0.852-1.82,1.277-3.202,1.277c-1.387,0-2.456-0.426-3.21-1.277c-0.753-0.852-1.129-1.983-1.129-3.393V216.948z
				 M263.771,217.127c0,0.854,0.145,1.53,0.434,2.025c0.288,0.495,0.767,0.743,1.435,0.743c0.651,0,1.123-0.25,1.414-0.748
				c0.291-0.497,0.438-1.172,0.438-2.021v-0.179c0-0.832-0.147-1.501-0.441-2.008c-0.295-0.507-0.771-0.761-1.427-0.761
				c-0.651,0-1.123,0.255-1.414,0.765s-0.438,1.177-0.438,2.004V217.127z"/>
			<path fill="#00244C" d="M274.454,210.188v2.251h1.58v1.74h-1.58v4.671c0,0.368,0.07,0.625,0.208,0.772
				c0.139,0.148,0.327,0.221,0.565,0.221c0.142,0,0.263-0.007,0.365-0.021c0.102-0.015,0.218-0.038,0.348-0.072l0.204,1.766
				c-0.221,0.085-0.461,0.153-0.718,0.204s-0.53,0.076-0.819,0.076c-0.86,0-1.514-0.23-1.957-0.691
				c-0.444-0.461-0.667-1.21-0.667-2.246v-4.68h-1.24v-1.74h1.24v-2.251H274.454z"/>
			<path fill="#00244C" d="M281.409,221.797c-1.353,0-2.418-0.416-3.197-1.248c-0.778-0.832-1.167-1.916-1.167-3.252v-0.34
				c0-1.393,0.369-2.523,1.107-3.393c0.739-0.869,1.751-1.3,3.036-1.295c1.268,0,2.237,0.368,2.908,1.104s1.007,1.753,1.007,3.049
				v1.351h-5.554c0.073,0.646,0.288,1.159,0.646,1.545c0.356,0.386,0.849,0.578,1.478,0.578c0.561,0,1.017-0.055,1.371-0.162
				c0.354-0.106,0.749-0.28,1.185-0.518l0.544,1.639c-0.368,0.277-0.839,0.505-1.41,0.68S282.14,221.797,281.409,221.797z
				 M281.188,214.18c-0.47,0-0.837,0.175-1.1,0.522c-0.264,0.349-0.435,0.825-0.514,1.431h3.1v-0.221
				c0-0.538-0.121-0.961-0.361-1.27C282.073,214.335,281.698,214.18,281.188,214.18z"/>
		</g>
	</g>
	<g>
		<path fill="#00244C" d="M317.807,221.627v-12.363h3.593c1.569,0,2.831,0.494,3.787,1.481c0.958,0.987,1.435,2.292,1.435,3.91
			v1.588c0,1.631-0.479,2.936-1.438,3.915c-0.96,0.98-2.247,1.469-3.861,1.469H317.807z M318.817,210.13v10.64h2.505
			c1.332,0,2.377-0.414,3.139-1.244c0.762-0.829,1.142-1.923,1.142-3.282v-1.613c0-1.358-0.377-2.449-1.133-3.27
			s-1.78-1.23-3.07-1.23H318.817z"/>
		<path fill="#00244C" d="M332.634,221.797c-1.223,0-2.211-0.414-2.967-1.244c-0.756-0.829-1.135-1.911-1.135-3.248v-0.467
			c0-1.342,0.375-2.438,1.126-3.29c0.749-0.853,1.671-1.278,2.764-1.278c1.149,0,2.039,0.35,2.671,1.049
			c0.63,0.698,0.946,1.656,0.946,2.874v0.866h-6.488v0.246c0,1.054,0.281,1.923,0.841,2.607c0.561,0.685,1.308,1.027,2.242,1.027
			c0.561,0,1.052-0.08,1.475-0.242c0.421-0.161,0.821-0.417,1.2-0.769l0.434,0.696c-0.345,0.362-0.767,0.649-1.266,0.858
			C333.979,221.692,333.364,221.797,332.634,221.797z M332.422,213.136c-0.765,0-1.399,0.284-1.906,0.854
			c-0.508,0.568-0.816,1.307-0.931,2.212h5.443v-0.255c0-0.815-0.229-1.487-0.688-2.017
			C333.882,213.4,333.243,213.136,332.422,213.136z"/>
		<path fill="#00244C" d="M339.521,210.087v2.353h1.928v0.832h-1.928v5.986c0,0.611,0.101,1.041,0.303,1.287
			c0.2,0.246,0.474,0.369,0.818,0.369c0.147,0,0.28-0.007,0.399-0.021c0.119-0.014,0.271-0.038,0.458-0.072l0.145,0.765
			c-0.152,0.062-0.333,0.114-0.543,0.153c-0.209,0.039-0.422,0.059-0.638,0.059c-0.633,0-1.119-0.196-1.455-0.59
			c-0.338-0.394-0.506-1.044-0.506-1.949v-5.986h-1.512v-0.832h1.512v-2.353H339.521z"/>
		<path fill="#00244C" d="M349.389,221.627c-0.068-0.317-0.116-0.582-0.145-0.798c-0.027-0.216-0.043-0.433-0.043-0.653
			l-0.025-0.009c-0.333,0.476-0.777,0.866-1.333,1.172c-0.554,0.306-1.19,0.458-1.911,0.458c-0.91,0-1.609-0.232-2.097-0.696
			c-0.486-0.463-0.73-1.104-0.73-1.919c0-0.866,0.361-1.55,1.083-2.051s1.718-0.751,2.984-0.751h2.029v-1.139
			c0-0.667-0.207-1.186-0.623-1.554s-1.009-0.552-1.78-0.552c-0.724,0-1.315,0.177-1.774,0.53c-0.459,0.354-0.688,0.791-0.688,1.312
			l-1.011-0.009c0-0.726,0.327-1.355,0.981-1.894s1.498-0.807,2.534-0.807s1.857,0.253,2.463,0.76s0.908,1.249,0.908,2.229v4.518
			c0,0.327,0.017,0.642,0.051,0.942s0.097,0.603,0.187,0.908H349.389z M346.051,220.905c0.747,0,1.397-0.168,1.95-0.505
			c0.552-0.337,0.952-0.777,1.2-1.32v-1.919h-2.046c-0.939,0-1.682,0.193-2.226,0.581c-0.543,0.389-0.814,0.879-0.814,1.474
			c0,0.504,0.168,0.912,0.506,1.223C344.957,220.749,345.435,220.905,346.051,220.905z"/>
		<path fill="#00244C" d="M354.059,209.807h-1.011v-1.427h1.011V209.807z M354.059,221.627h-1.011v-9.188h1.011V221.627z"/>
		<path fill="#00244C" d="M358.008,221.627h-1.011V208.38h1.011V221.627z"/>
		<path fill="#00244C" d="M366.321,219.292c0-0.441-0.172-0.819-0.519-1.134c-0.345-0.313-0.986-0.576-1.928-0.785
			c-1.121-0.243-1.938-0.556-2.449-0.935c-0.513-0.378-0.769-0.934-0.769-1.664c0-0.719,0.29-1.316,0.871-1.792
			c0.579-0.476,1.369-0.713,2.364-0.713c1.06,0,1.889,0.253,2.488,0.76c0.601,0.507,0.899,1.168,0.899,1.983h-1.019
			c0-0.515-0.209-0.957-0.629-1.325c-0.418-0.368-0.998-0.552-1.74-0.552c-0.753,0-1.312,0.158-1.677,0.476
			s-0.549,0.692-0.549,1.129c0,0.43,0.156,0.781,0.468,1.054c0.312,0.271,0.954,0.515,1.928,0.729
			c1.11,0.25,1.933,0.579,2.468,0.989c0.534,0.41,0.801,0.986,0.801,1.729c0,0.781-0.304,1.403-0.911,1.864
			c-0.61,0.461-1.434,0.691-2.477,0.691c-1.138,0-2.021-0.263-2.649-0.789c-0.629-0.526-0.942-1.178-0.942-1.953h1.01
			c0.041,0.679,0.308,1.163,0.804,1.452c0.494,0.288,1.089,0.433,1.778,0.433c0.747,0,1.331-0.157,1.749-0.471
			C366.112,220.154,366.321,219.763,366.321,219.292z"/>
	</g>
	<g>
		<path fill="#00244C" d="M414.304,216.075h-5.952v5.129h6.818v0.858h-7.829v-12.364h7.787v0.866h-6.776v4.645h5.952V216.075z"/>
		<path fill="#00244C" d="M418.219,222.062h-1.011v-13.248h1.011V222.062z"/>
		<path fill="#00244C" d="M424.57,222.232c-1.223,0-2.212-0.415-2.968-1.244c-0.756-0.83-1.134-1.912-1.134-3.248v-0.468
			c0-1.342,0.376-2.438,1.126-3.29c0.749-0.852,1.671-1.278,2.764-1.278c1.149,0,2.04,0.35,2.671,1.049s0.946,1.657,0.946,2.874
			v0.866h-6.487v0.247c0,1.053,0.28,1.922,0.841,2.606s1.308,1.027,2.241,1.027c0.561,0,1.052-0.08,1.474-0.241
			c0.422-0.162,0.822-0.417,1.202-0.769l0.433,0.696c-0.346,0.361-0.767,0.648-1.266,0.857
			C425.915,222.127,425.301,222.232,424.57,222.232z M424.358,213.57c-0.765,0-1.399,0.284-1.906,0.854s-0.817,1.307-0.93,2.212
			h5.443v-0.255c0-0.814-0.229-1.487-0.688-2.017C425.819,213.835,425.18,213.57,424.358,213.57z"/>
		<path fill="#00244C" d="M433.394,221.374c0.69,0,1.281-0.187,1.771-0.561c0.49-0.373,0.752-0.903,0.786-1.588h0.977
			c-0.028,0.884-0.383,1.605-1.062,2.166c-0.68,0.561-1.503,0.841-2.472,0.841c-1.273,0-2.246-0.421-2.917-1.262
			s-1.006-1.948-1.006-3.324v-0.356c0-1.364,0.335-2.47,1.006-3.316s1.641-1.27,2.909-1.27c1.019,0,1.856,0.294,2.513,0.883
			c0.657,0.59,1,1.385,1.028,2.387h-0.977c-0.028-0.735-0.283-1.32-0.765-1.754c-0.481-0.433-1.081-0.649-1.8-0.649
			c-1.009,0-1.743,0.349-2.204,1.045s-0.692,1.588-0.692,2.675v0.356c0,1.109,0.231,2.008,0.692,2.696
			C431.643,221.03,432.381,221.374,433.394,221.374z"/>
		<path fill="#00244C" d="M440.468,210.521v2.353h1.928v0.832h-1.928v5.987c0,0.611,0.1,1.04,0.301,1.286
			c0.202,0.246,0.475,0.369,0.82,0.369c0.146,0,0.28-0.007,0.398-0.021c0.119-0.015,0.272-0.039,0.459-0.072l0.145,0.764
			c-0.153,0.063-0.334,0.114-0.544,0.153s-0.422,0.06-0.637,0.06c-0.635,0-1.119-0.197-1.456-0.591
			c-0.338-0.393-0.506-1.043-0.506-1.948v-5.987h-1.512v-0.832h1.512v-2.353H440.468z"/>
		<path fill="#00244C" d="M445.656,210.241h-1.011v-1.427h1.011V210.241z M445.656,222.062h-1.011v-9.188h1.011V222.062z"/>
		<path fill="#00244C" d="M447.897,217.332c0-1.381,0.365-2.498,1.096-3.35s1.718-1.278,2.964-1.278
			c1.251,0,2.242,0.427,2.972,1.278c0.73,0.852,1.096,1.969,1.096,3.35v0.28c0,1.388-0.363,2.504-1.091,3.351s-1.714,1.27-2.96,1.27
			c-1.257,0-2.25-0.423-2.98-1.27s-1.096-1.963-1.096-3.351V217.332z M448.917,217.612c0,1.087,0.265,1.985,0.794,2.696
			s1.284,1.065,2.263,1.065c0.969,0,1.718-0.354,2.246-1.065c0.529-0.711,0.794-1.609,0.794-2.696v-0.28
			c0-1.064-0.268-1.957-0.802-2.679c-0.535-0.722-1.287-1.083-2.255-1.083c-0.974,0-1.724,0.361-2.25,1.083
			c-0.527,0.722-0.79,1.614-0.79,2.679V217.612z"/>
		<path fill="#00244C" d="M459.073,212.874l0.085,1.698l0.025,0.009c0.295-0.583,0.693-1.041,1.197-1.376
			c0.504-0.334,1.096-0.501,1.774-0.501c0.991,0,1.741,0.289,2.251,0.866s0.764,1.508,0.764,2.794v5.698h-1.019v-5.682
			c0-1.048-0.187-1.774-0.561-2.182c-0.374-0.408-0.935-0.612-1.682-0.612c-0.69,0-1.264,0.199-1.72,0.595s-0.796,0.9-1.022,1.512
			v6.369h-1.02v-9.188H459.073z"/>
		<path fill="#00244C" d="M473.331,219.727c0-0.441-0.173-0.819-0.519-1.133c-0.345-0.314-0.987-0.577-1.927-0.786
			c-1.121-0.243-1.938-0.556-2.45-0.934c-0.512-0.379-0.769-0.935-0.769-1.665c0-0.718,0.29-1.316,0.87-1.791
			c0.58-0.476,1.369-0.714,2.365-0.714c1.059,0,1.888,0.253,2.488,0.76s0.9,1.168,0.9,1.983h-1.02c0-0.515-0.21-0.956-0.628-1.325
			c-0.419-0.368-1-0.552-1.741-0.552c-0.753,0-1.312,0.158-1.677,0.476c-0.365,0.317-0.548,0.693-0.548,1.13
			c0,0.43,0.155,0.781,0.467,1.053s0.953,0.515,1.928,0.73c1.109,0.249,1.932,0.579,2.467,0.989s0.803,0.985,0.803,1.728
			c0,0.781-0.305,1.403-0.913,1.864c-0.609,0.461-1.434,0.692-2.476,0.692c-1.138,0-2.021-0.264-2.649-0.79
			c-0.628-0.526-0.942-1.177-0.942-1.953h1.011c0.04,0.68,0.307,1.163,0.802,1.452s1.089,0.433,1.779,0.433
			c0.747,0,1.331-0.157,1.749-0.471C473.121,220.589,473.331,220.197,473.331,219.727z"/>
	</g>
	<rect x="146" y="243.896" fill="#D71920" width="153" height="2"/>
	<polyline fill="#D71920" points="216.807,244.824 223.261,238.37 229.715,244.824 	"/>
</g>
<g id="devices">
	<g>
		<path fill="none" stroke="#D3D6DB" stroke-miterlimit="10" d="M30.162,357.213c0,0.223,0.183,0.421,0.404,0.439l3.933,0.338
			c0.223,0.02,0.405-0.148,0.405-0.372v-152.27c0-0.224-0.183-0.39-0.405-0.371l-3.933,0.336c-0.222,0.021-0.404,0.218-0.404,0.441
			V357.213z"/>
		<polygon fill="none" stroke="#D3D6DB" stroke-miterlimit="10" points="515.42,204.129 520.162,203.723 520.162,141.812 
			515.42,141.407 		"/>
		<path fill="none" stroke="#D3D6DB" stroke-miterlimit="10" d="M482.674,32.467c-44.518-9.58-124.405-12.765-207.174-12.765
			c-106.149,0-170.535,7.022-204.778,12.765c-25.298,4.24-35.817,20.369-35.817,34.47l-0.678,434.256l1.761,434.075
			c0,19.173,15.869,30.807,35.827,34.84c19.958,4.03,73.75,12.577,203.756,12.577c137.795,0,178.561-8.071,203.617-12.577
			c25.057-4.509,36.775-19.73,36.775-38.902V70.013C515.963,51.725,504.271,37.115,482.674,32.467 M511.898,931.339
			c0,19.002-9.717,30.08-34.543,34.546c-24.832,4.468-65.23,12.462-201.785,12.462c-128.836,0-182.143-8.466-201.922-12.462
			s-34.545-15.544-34.545-34.546V70.826c0-13.975,8.391-29.936,33.461-34.139c33.936-5.69,97.744-12.65,202.936-12.65
			c82.023,0,161.193,3.156,205.307,12.65c21.404,4.605,31.092,20.096,31.092,34.139V931.339z"/>
		<path fill="#FFFFFF" stroke="#D3D6DB" stroke-miterlimit="10" d="M480.803,36.69c-44.109-9.496-123.273-12.651-205.301-12.651
			c-105.192,0-169,6.957-202.938,12.651C47.496,40.895,39.107,56.85,39.107,70.824v860.519c0,19.002,14.759,30.546,34.545,34.545
			c19.776,3.998,73.078,12.456,201.919,12.456c136.554,0,176.948-7.988,201.782-12.456c24.834-4.47,34.545-15.543,34.545-34.545
			V70.824C511.898,56.781,502.215,41.297,480.803,36.69z M494.777,878.217H55.414V97.392h439.363V878.217z"/>
		<path fill="none" stroke="#D3D6DB" stroke-miterlimit="10" d="M120.184,68.081c0,3.573-2.896,6.47-6.47,6.47
			c-3.571,0-6.468-2.896-6.468-6.47c0-3.572,2.896-6.469,6.468-6.469C117.287,61.612,120.184,64.509,120.184,68.081"/>
		<path fill="none" stroke="#D3D6DB" stroke-miterlimit="10" d="M118.455,68.081c0,2.618-2.122,4.741-4.741,4.741
			c-2.618,0-4.741-2.123-4.741-4.741s2.123-4.742,4.741-4.742C116.333,63.339,118.455,65.463,118.455,68.081"/>
		<circle fill="none" stroke="#D3D6DB" stroke-miterlimit="10" cx="113.714" cy="68.081" r="4.741"/>
		<path fill="none" stroke="#D3D6DB" stroke-miterlimit="10" d="M115.107,68.081c0,0.77-0.625,1.395-1.394,1.395
			c-0.771,0-1.394-0.625-1.394-1.395c0-0.771,0.623-1.394,1.394-1.394C114.482,66.688,115.107,67.311,115.107,68.081"/>
		<path fill="none" stroke="#D3D6DB" stroke-miterlimit="10" d="M432.646,66.659c0,2.862-2.319,5.181-5.181,5.181
			c-2.862,0-5.181-2.318-5.181-5.181s2.318-5.183,5.181-5.183C430.327,61.477,432.646,63.797,432.646,66.659"/>
		<path fill="none" stroke="#D3D6DB" stroke-miterlimit="10" d="M447.5,66.659c0,1.86-1.51,3.369-3.371,3.369
			s-3.369-1.509-3.369-3.369c0-1.862,1.508-3.37,3.369-3.37S447.5,64.797,447.5,66.659"/>
		<path fill="none" stroke="#D3D6DB" stroke-miterlimit="10" d="M286.744,66.659c0,6.396-5.185,11.581-11.582,11.581
			c-6.396,0-11.582-5.185-11.582-11.581c0-6.397,5.186-11.583,11.582-11.583C281.56,55.076,286.744,60.262,286.744,66.659"/>
		<circle fill="none" stroke="#D3D6DB" stroke-miterlimit="10" cx="275.162" cy="66.659" r="11.582"/>
		<path fill="none" stroke="#D3D6DB" stroke-miterlimit="10" d="M267.516,66.734c0,0.66-0.533,1.195-1.193,1.195
			c-0.658,0-1.193-0.535-1.193-1.195c0-0.658,0.535-1.194,1.193-1.194C266.982,65.54,267.516,66.076,267.516,66.734"/>
		<path fill="none" stroke="#D3D6DB" stroke-miterlimit="10" d="M268.075,69.91c0,0.658-0.534,1.194-1.194,1.194
			s-1.193-0.536-1.193-1.194c0-0.659,0.533-1.193,1.193-1.193S268.075,69.251,268.075,69.91"/>
		<path fill="none" stroke="#D3D6DB" stroke-miterlimit="10" d="M271.175,69.555c0,0.658-0.534,1.193-1.194,1.193
			s-1.193-0.535-1.193-1.193c0-0.659,0.533-1.193,1.193-1.193S271.175,68.896,271.175,69.555"/>
		<path fill="none" stroke="#D3D6DB" stroke-miterlimit="10" d="M273.282,71.561c0,0.66-0.534,1.195-1.194,1.195
			c-0.658,0-1.192-0.535-1.192-1.195c0-0.659,0.534-1.193,1.192-1.193C272.748,70.367,273.282,70.901,273.282,71.561"/>
		<path fill="none" stroke="#D3D6DB" stroke-miterlimit="10" d="M269.98,72.868c0,0.66-0.535,1.194-1.193,1.194
			c-0.66,0-1.194-0.534-1.194-1.194c0-0.659,0.534-1.193,1.194-1.193C269.445,71.675,269.98,72.209,269.98,72.868"/>
		<path fill="none" stroke="#D3D6DB" stroke-miterlimit="10" d="M273.029,74.863c0,0.658-0.533,1.194-1.193,1.194
			s-1.195-0.536-1.195-1.194c0-0.659,0.535-1.194,1.195-1.194S273.029,74.204,273.029,74.863"/>
		<path fill="none" stroke="#D3D6DB" stroke-miterlimit="10" d="M274.959,69.122c0,0.659-0.534,1.194-1.194,1.194
			c-0.659,0-1.192-0.535-1.192-1.194c0-0.658,0.533-1.193,1.192-1.193C274.425,67.929,274.959,68.464,274.959,69.122"/>
		<path fill="none" stroke="#D3D6DB" stroke-miterlimit="10" d="M278.107,69.275c0,0.659-0.533,1.193-1.192,1.193
			s-1.192-0.534-1.192-1.193s0.533-1.194,1.192-1.194S278.107,68.616,278.107,69.275"/>
		<path fill="none" stroke="#D3D6DB" stroke-miterlimit="10" d="M281.511,69.555c0,0.658-0.532,1.193-1.192,1.193
			c-0.658,0-1.193-0.535-1.193-1.193c0-0.659,0.535-1.193,1.193-1.193C280.979,68.361,281.511,68.896,281.511,69.555"/>
		<path fill="none" stroke="#D3D6DB" stroke-miterlimit="10" d="M279.303,71.941c0,0.659-0.535,1.194-1.195,1.194
			c-0.659,0-1.192-0.535-1.192-1.194c0-0.658,0.533-1.193,1.192-1.193C278.768,70.748,279.303,71.283,279.303,71.941"/>
		<path fill="none" stroke="#D3D6DB" stroke-miterlimit="10" d="M282.707,72.868c0,0.66-0.535,1.194-1.196,1.194
			c-0.658,0-1.192-0.534-1.192-1.194c0-0.659,0.534-1.193,1.192-1.193C282.172,71.675,282.707,72.209,282.707,72.868"/>
		<path fill="none" stroke="#D3D6DB" stroke-miterlimit="10" d="M279.734,74.863c0,0.658-0.533,1.194-1.195,1.194
			c-0.658,0-1.193-0.536-1.193-1.194c0-0.659,0.535-1.194,1.193-1.194C279.201,73.669,279.734,74.204,279.734,74.863"/>
		<path fill="none" stroke="#D3D6DB" stroke-miterlimit="10" d="M276.152,72.476c0,0.659-0.535,1.194-1.193,1.194
			s-1.194-0.535-1.194-1.194s0.536-1.194,1.194-1.194S276.152,71.816,276.152,72.476"/>
		<path fill="none" stroke="#D3D6DB" stroke-miterlimit="10" d="M276.356,75.549c0,0.66-0.535,1.194-1.194,1.194
			c-0.66,0-1.193-0.534-1.193-1.194c0-0.658,0.533-1.193,1.193-1.193C275.821,74.355,276.356,74.891,276.356,75.549"/>
		<path fill="none" stroke="#D3D6DB" stroke-miterlimit="10" d="M284.764,70.088c0,0.659-0.533,1.193-1.194,1.193
			c-0.658,0-1.193-0.534-1.193-1.193c0-0.658,0.535-1.194,1.193-1.194C284.23,68.894,284.764,69.43,284.764,70.088"/>
		<path fill="none" stroke="#D3D6DB" stroke-miterlimit="10" d="M268.075,63.179c0,0.659-0.534,1.194-1.194,1.194
			s-1.193-0.535-1.193-1.194c0-0.658,0.533-1.194,1.193-1.194S268.075,62.521,268.075,63.179"/>
		<path fill="none" stroke="#D3D6DB" stroke-miterlimit="10" d="M270.463,60.334c0,0.658-0.535,1.194-1.193,1.194
			c-0.66,0-1.194-0.536-1.194-1.194s0.534-1.193,1.194-1.193C269.928,59.141,270.463,59.676,270.463,60.334"/>
		<path fill="none" stroke="#D3D6DB" stroke-miterlimit="10" d="M273.41,58.455c0,0.658-0.535,1.193-1.193,1.193
			c-0.661,0-1.195-0.535-1.195-1.193c0-0.66,0.534-1.195,1.195-1.195C272.875,57.26,273.41,57.795,273.41,58.455"/>
		<path fill="none" stroke="#D3D6DB" stroke-miterlimit="10" d="M276.559,57.769c0,0.659-0.533,1.194-1.193,1.194
			c-0.658,0-1.193-0.535-1.193-1.194s0.535-1.194,1.193-1.194C276.025,56.574,276.559,57.109,276.559,57.769"/>
		<path fill="none" stroke="#D3D6DB" stroke-miterlimit="10" d="M279.938,58.455c0,0.658-0.534,1.193-1.194,1.193
			c-0.659,0-1.192-0.535-1.192-1.193c0-0.66,0.533-1.195,1.192-1.195C279.403,57.26,279.938,57.795,279.938,58.455"/>
		<path fill="none" stroke="#D3D6DB" stroke-miterlimit="10" d="M282.808,60.334c0,0.658-0.533,1.194-1.194,1.194
			c-0.658,0-1.193-0.536-1.193-1.194s0.535-1.193,1.193-1.193C282.274,59.141,282.808,59.676,282.808,60.334"/>
		<path fill="none" stroke="#D3D6DB" stroke-miterlimit="10" d="M284.764,63.179c0,0.659-0.533,1.194-1.194,1.194
			c-0.658,0-1.193-0.535-1.193-1.194c0-0.658,0.535-1.194,1.193-1.194C284.23,61.984,284.764,62.521,284.764,63.179"/>
		<path fill="none" stroke="#D3D6DB" stroke-miterlimit="10" d="M281.613,63.585c0,0.659-0.533,1.194-1.193,1.194
			c-0.658,0-1.194-0.535-1.194-1.194s0.536-1.194,1.194-1.194C281.08,62.391,281.613,62.926,281.613,63.585"/>
		<path fill="none" stroke="#D3D6DB" stroke-miterlimit="10" d="M278.107,63.991c0,0.659-0.533,1.194-1.192,1.194
			s-1.192-0.535-1.192-1.194s0.533-1.193,1.192-1.193S278.107,63.332,278.107,63.991"/>
		<path fill="none" stroke="#D3D6DB" stroke-miterlimit="10" d="M274.959,63.991c0,0.659-0.534,1.194-1.194,1.194
			c-0.659,0-1.192-0.535-1.192-1.194s0.533-1.193,1.192-1.193C274.425,62.798,274.959,63.332,274.959,63.991"/>
		<path fill="none" stroke="#D3D6DB" stroke-miterlimit="10" d="M271.428,63.712c0,0.659-0.533,1.194-1.193,1.194
			c-0.659,0-1.193-0.535-1.193-1.194s0.534-1.193,1.193-1.193C270.895,62.519,271.428,63.053,271.428,63.712"/>
		<path fill="none" stroke="#D3D6DB" stroke-miterlimit="10" d="M273.562,61.324c0,0.66-0.534,1.194-1.194,1.194
			c-0.658,0-1.192-0.534-1.192-1.194c0-0.658,0.534-1.193,1.192-1.193C273.027,60.131,273.562,60.666,273.562,61.324"/>
		<path fill="none" stroke="#D3D6DB" stroke-miterlimit="10" d="M276.559,60.664c0,0.66-0.533,1.193-1.193,1.193
			c-0.658,0-1.193-0.533-1.193-1.193c0-0.659,0.535-1.193,1.193-1.193C276.025,59.471,276.559,60.005,276.559,60.664"/>
		<path fill="none" stroke="#D3D6DB" stroke-miterlimit="10" d="M279.303,61.527c0,0.66-0.535,1.194-1.195,1.194
			c-0.659,0-1.192-0.534-1.192-1.194c0-0.658,0.533-1.193,1.192-1.193C278.768,60.334,279.303,60.869,279.303,61.527"/>
		<path fill="none" stroke="#D3D6DB" stroke-miterlimit="10" d="M270.463,66.734c0,0.66-0.535,1.195-1.193,1.195
			c-0.66,0-1.194-0.535-1.194-1.195c0-0.658,0.534-1.194,1.194-1.194C269.928,65.54,270.463,66.076,270.463,66.734"/>
		<path fill="none" stroke="#D3D6DB" stroke-miterlimit="10" d="M273.41,66.734c0,0.66-0.535,1.195-1.193,1.195
			c-0.661,0-1.195-0.535-1.195-1.195c0-0.658,0.534-1.194,1.195-1.194C272.875,65.54,273.41,66.076,273.41,66.734"/>
		<path fill="none" stroke="#D3D6DB" stroke-miterlimit="10" d="M276.356,66.734c0,0.66-0.535,1.195-1.194,1.195
			c-0.66,0-1.193-0.535-1.193-1.195c0-0.658,0.533-1.194,1.193-1.194C275.821,65.54,276.356,66.076,276.356,66.734"/>
		<path fill="none" stroke="#D3D6DB" stroke-miterlimit="10" d="M279.303,66.734c0,0.66-0.535,1.195-1.195,1.195
			c-0.659,0-1.192-0.535-1.192-1.195c0-0.658,0.533-1.194,1.192-1.194C278.768,65.54,279.303,66.076,279.303,66.734"/>
		<path fill="none" stroke="#D3D6DB" stroke-miterlimit="10" d="M282.248,66.734c0,0.66-0.532,1.195-1.193,1.195
			c-0.658,0-1.193-0.535-1.193-1.195c0-0.658,0.535-1.194,1.193-1.194C281.716,65.54,282.248,66.076,282.248,66.734"/>
		<path fill="none" stroke="#D3D6DB" stroke-miterlimit="10" d="M285.196,66.734c0,0.66-0.534,1.195-1.194,1.195
			c-0.659,0-1.194-0.535-1.194-1.195c0-0.658,0.535-1.194,1.194-1.194C284.662,65.54,285.196,66.076,285.196,66.734"/>
	</g>
</g>
</svg>
