<?xml version="1.0" encoding="utf-8"?>
<!-- Generator: Adobe Illustrator 16.0.4, SVG Export Plug-In . SVG Version: 6.00 Build 0)  -->
<!DOCTYPE svg PUBLIC "-//W3C//DTD SVG 1.1//EN" "http://www.w3.org/Graphics/SVG/1.1/DTD/svg11.dtd">
<svg version="1.1" xmlns="http://www.w3.org/2000/svg" xmlns:xlink="http://www.w3.org/1999/xlink" x="0px" y="0px" width="550px"
	 height="1000px" viewBox="0 0 550 1000" enable-background="new 0 0 550 1000" xml:space="preserve">
<g id="raster_map" display="none">
</g>
<g id="screens">
	<g>
		<rect x="55" y="96.801" fill="#00244C" width="440" height="782"/>
		<g>
			<rect x="54.896" y="98.058" width="439.819" height="30.544"/>
			<polygon fill="#FFFFFF" points="451.954,120.049 450.733,120.049 450.733,110.094 448.29,110.125 448.29,109.023 
				451.954,108.605 			"/>
			<path fill="#FFFFFF" d="M464.172,120.049h-7.329v-1.206l3.741-4.103c0.661-0.74,1.128-1.327,1.364-1.761
				c0.236-0.435,0.363-0.879,0.363-1.333c0-0.563-0.157-1.04-0.487-1.424c-0.327-0.384-0.761-0.577-1.305-0.577
				c-0.779,0-1.354-0.017-1.724,0.384c-0.369,0.402-0.553,1.47-0.553,1.47h-1.466l-0.015,0.171
				c-0.025-0.973,0.296-1.682,0.969-2.343c0.671-0.662,1.603-0.937,2.791-0.937c1.015,0,1.821,0.322,2.425,0.913
				c0.602,0.593,0.902,1.361,0.902,2.275c0,0.616-0.182,1.238-0.546,1.855c-0.364,0.618-0.874,1.285-1.532,1.993l-2.971,3.295
				l0.017,0.106h5.354V120.049z"/>
			<path fill="#FFFFFF" d="M467.728,113.102H466.2v-1.582h1.527V113.102z M467.728,119.896H466.2v-1.583h1.527V119.896z"/>
			<path fill="#FFFFFF" d="M471.503,113.941h1.802c0.675,0,1.155-0.367,1.438-0.706c0.28-0.339,0.423-0.909,0.423-1.515
				c0-0.645-0.162-1.187-0.482-1.523c-0.32-0.334-0.793-0.528-1.42-0.528c-0.594,0-1.071,0.131-1.43,0.48
				c-0.359,0.347-0.539,1.348-0.539,1.348h-1.466l-0.016-0.016c-0.024-0.854,0.284-1.562,0.927-2.16
				c0.643-0.597,1.485-0.887,2.523-0.887c1.046,0,1.877,0.28,2.498,0.835c0.62,0.557,0.93,1.352,0.93,2.379
				c0,0.466-0.14,0.931-0.422,1.393c-0.282,0.463-0.703,0.816-1.269,1.059c0.678,0.224,1.157,0.571,1.44,1.048
				c0.28,0.476,0.421,1.008,0.421,1.598c0,1.029-0.337,1.838-1.012,2.429c-0.675,0.589-1.537,0.882-2.587,0.882
				c-1.029,0-1.881-0.277-2.554-0.833c-0.677-0.555-1-1.577-0.975-2.528l0.024-0.314h1.459c0,1.222,0.182,1.331,0.546,1.681
				c0.363,0.35,0.864,0.659,1.499,0.659c0.646,0,1.153-0.108,1.522-0.458c0.365-0.351,0.549-0.835,0.549-1.521
				c0-0.696-0.163-0.982-0.489-1.313c-0.324-0.329-0.839-0.27-1.541-0.27h-1.802V113.941z"/>
			<path fill="#FFFFFF" d="M486.163,115.592c0,1.444-0.416,2.549-1.056,3.316c-0.639,0.768-1.562,1.151-2.674,1.151
				s-1.988-0.385-2.634-1.155c-0.647-0.771-0.967-1.874-0.967-3.312v-2.675c0-1.438,0.295-2.543,0.938-3.315
				c0.645-0.773,1.506-1.159,2.612-1.159c1.109,0,2.079,0.386,2.724,1.159c0.645,0.772,1.057,1.878,1.057,3.315V115.592z
				 M484.941,112.589c0-0.976-0.428-1.71-0.783-2.205c-0.353-0.493-0.992-0.74-1.664-0.74c-0.671,0-1.371,0.248-1.724,0.74
				c-0.352,0.494-0.716,1.229-0.716,2.205v3.309c0,0.975,0.305,1.713,0.66,2.212c0.357,0.499,0.935,0.748,1.606,0.748
				c0.673,0,1.466-0.248,1.815-0.745c0.349-0.495,0.805-1.233,0.805-2.215V112.589z"/>
			<path fill="#FFFFFF" d="M408.119,122.08h3.583v-8.78l-3.583,3.969V122.08z M412.573,122.08h3.612V108.21l-3.612,4.082V122.08z
				 M417.085,107.231v14.876l3.562-0.028v-18.766L417.085,107.231z M407.192,122.08v-3.805l-3.508,3.805H407.192z"/>
			<path fill="#FFFFFF" d="M383.394,111.386l2.363,2.747c1.827-1.418,4.157-2.27,6.696-2.27c2.537,0,4.87,0.852,6.695,2.27
				l2.36-2.742c-2.47-1.92-5.624-3.071-9.056-3.071C389.018,108.32,385.865,109.471,383.394,111.386 M380.475,107.994l2.362,2.744
				c2.62-2.034,5.969-3.259,9.616-3.259c3.644,0,6.994,1.225,9.616,3.259l2.364-2.744
				C397.479,102.595,387.428,102.595,380.475,107.994 M389.373,118.333h-0.003l3.083,3.582l3.083-3.582
				c-0.831-0.702-1.909-1.129-3.083-1.129C391.277,117.204,390.201,117.628,389.373,118.333 M386.323,114.792l2.489,2.892h0.004
				c0.98-0.828,2.248-1.33,3.637-1.33c1.387,0,2.656,0.506,3.637,1.333l2.493-2.895c-1.675-1.299-3.806-2.077-6.13-2.077
				S387.994,113.493,386.323,114.792"/>
			<polygon fill-rule="evenodd" clip-rule="evenodd" fill="#FFFFFF" points="442.181,122.492 442.181,105.388 438.517,105.388 
				438.517,104.167 432.407,104.167 432.407,105.388 428.742,105.388 428.742,122.492 			"/>
		</g>
		<rect x="54.896" y="821.764" width="439.819" height="58.643"/>
		<g opacity="0.4">
			<g>
				<defs>
					<rect id="SVGID_3_" x="132.478" y="842.533" width="40.311" height="20.769"/>
				</defs>
				<clipPath id="SVGID_2_">
					<use xlink:href="#SVGID_3_"  overflow="visible"/>
				</clipPath>
				<path clip-path="url(#SVGID_2_)" fill="#FFFFFF" d="M164.239,848.641h-27.336l5.347-6.107h-3.363l-6.409,7.33l6.409,7.33h3.363
					l-5.347-6.108h27.336c2.786,0,6.109,0.847,6.109,4.887c0,4.038-3.323,4.887-6.109,4.887h-14.049v2.443h14.049
					c5.355,0,8.55-2.741,8.55-7.33S169.594,848.641,164.239,848.641"/>
			</g>
		</g>
		<g opacity="0.4">
			<g>
				<defs>
					<rect id="SVGID_5_" x="252.815" y="840.737" width="43.982" height="22.564"/>
				</defs>
				<clipPath id="SVGID_4_">
					<use xlink:href="#SVGID_5_"  overflow="visible"/>
				</clipPath>
				<path clip-path="url(#SVGID_4_)" fill-rule="evenodd" clip-rule="evenodd" fill="#FFFFFF" d="M274.777,840.738l-21.962,7.796
					v14.768h43.982v-14.732L274.777,840.738z M274.777,843.29l19.576,6.882v10.687h-39.095v-10.652L274.777,843.29z"/>
			</g>
		</g>
		<g opacity="0.4">
			<g>
				<defs>
					<rect id="SVGID_7_" x="377.43" y="841.922" width="41.539" height="21.38"/>
				</defs>
				<clipPath id="SVGID_6_">
					<use xlink:href="#SVGID_7_"  overflow="visible"/>
				</clipPath>
				<path clip-path="url(#SVGID_6_)" fill-rule="evenodd" clip-rule="evenodd" fill="#FFFFFF" d="M377.433,862.69h34.204v-14.622
					v-0.037h-34.204V862.69z M379.876,850.476h29.319v9.772h-29.319V850.476z M387.205,841.923v2.443h29.318v12.217h2.442V841.96
					v-0.037H387.205z"/>
				<path clip-path="url(#SVGID_6_)" fill-rule="evenodd" clip-rule="evenodd" fill="#FFFFFF" d="M377.43,863.302h34.208v-14.661
					H377.43V863.302z M409.195,860.858h-29.321v-9.773h29.321V860.858z"/>
				<polygon clip-path="url(#SVGID_6_)" fill-rule="evenodd" clip-rule="evenodd" fill="#FFFFFF" points="387.204,842.533 
					387.204,844.977 416.525,844.977 416.525,858.415 418.969,858.415 418.969,844.977 418.969,842.533 				"/>
			</g>
		</g>
		<g>
			<g>
				<path fill="#929497" d="M275.359,467.849h3.293l1.648,6.419c0.211,0.758,0.399,1.496,0.559,2.206
					c0.163,0.711,0.35,1.446,0.561,2.207h0.085c0.196-0.761,0.38-1.496,0.548-2.207c0.17-0.71,0.352-1.447,0.55-2.206l1.626-6.419
					h3.167l-4.139,13.769h-3.737L275.359,467.849z"/>
				<path fill="#929497" d="M287.292,476.38c0-0.873,0.14-1.651,0.421-2.335c0.282-0.683,0.658-1.257,1.131-1.721
					c0.471-0.464,1.017-0.819,1.635-1.066c0.619-0.245,1.262-0.369,1.922-0.369c0.661,0,1.299,0.124,1.911,0.369
					c0.611,0.247,1.155,0.602,1.625,1.066c0.472,0.464,0.85,1.039,1.132,1.721c0.281,0.684,0.422,1.462,0.422,2.335
					c0,0.872-0.141,1.649-0.422,2.332c-0.282,0.684-0.66,1.257-1.132,1.722c-0.47,0.465-1.014,0.82-1.625,1.066
					c-0.612,0.247-1.25,0.371-1.911,0.371c-0.66,0-1.303-0.124-1.922-0.371c-0.618-0.246-1.164-0.601-1.635-1.066
					c-0.473-0.464-0.849-1.038-1.131-1.722C287.432,478.029,287.292,477.252,287.292,476.38z M290.479,476.38
					c0,0.915,0.16,1.64,0.477,2.176c0.316,0.534,0.797,0.801,1.445,0.801c0.633,0,1.111-0.267,1.435-0.801
					c0.326-0.536,0.485-1.261,0.485-2.176c0-0.917-0.159-1.641-0.485-2.175c-0.323-0.536-0.802-0.803-1.435-0.803
					c-0.648,0-1.129,0.268-1.445,0.803C290.639,474.739,290.479,475.463,290.479,476.38z"/>
				<path fill="#929497" d="M299.727,473.57h-1.435v-2.3l1.604-0.128l0.36-2.786h2.576v2.786h2.513v2.429h-2.513v4.203
					c0,0.592,0.123,1.018,0.369,1.279c0.246,0.261,0.573,0.391,0.982,0.391c0.169,0,0.342-0.022,0.517-0.063
					c0.177-0.043,0.336-0.092,0.477-0.148l0.485,2.259c-0.281,0.085-0.612,0.17-0.992,0.253c-0.381,0.085-0.824,0.128-1.332,0.128
					c-0.646,0-1.199-0.1-1.656-0.296c-0.459-0.196-0.832-0.471-1.12-0.823c-0.288-0.353-0.5-0.778-0.633-1.278
					c-0.135-0.5-0.202-1.053-0.202-1.658V473.57z"/>
				<path fill="#929497" d="M308.716,469.602c-0.522,0-0.952-0.153-1.288-0.456c-0.337-0.301-0.508-0.692-0.508-1.17
					c0-0.479,0.171-0.867,0.508-1.161c0.336-0.296,0.766-0.444,1.288-0.444c0.534,0,0.969,0.147,1.299,0.444
					c0.332,0.294,0.496,0.682,0.496,1.161c0,0.478-0.164,0.869-0.496,1.17C309.685,469.449,309.25,469.602,308.716,469.602z
					 M307.175,471.141h3.104v10.477h-3.104V471.141z"/>
				<path fill="#929497" d="M312.717,471.141h2.535l0.209,1.331h0.084c0.452-0.423,0.945-0.792,1.48-1.109
					c0.533-0.316,1.16-0.475,1.878-0.475c1.14,0,1.969,0.374,2.482,1.12c0.515,0.746,0.77,1.78,0.77,3.105v6.505h-3.104v-6.104
					c0-0.762-0.102-1.281-0.306-1.563s-0.531-0.422-0.982-0.422c-0.395,0-0.732,0.087-1.014,0.264
					c-0.281,0.176-0.59,0.425-0.929,0.75v7.075h-3.104V471.141z"/>
				<path fill="#929497" d="M323.791,483.41c0-0.843,0.5-1.547,1.5-2.11v-0.084c-0.281-0.183-0.515-0.416-0.696-0.697
					c-0.183-0.28-0.274-0.639-0.274-1.076c0-0.381,0.111-0.743,0.338-1.089c0.226-0.345,0.507-0.637,0.844-0.875v-0.085
					c-0.367-0.253-0.695-0.614-0.981-1.087c-0.289-0.471-0.433-1.018-0.433-1.637c0-0.634,0.118-1.187,0.357-1.658
					c0.241-0.472,0.562-0.867,0.963-1.183c0.4-0.316,0.862-0.552,1.382-0.708c0.522-0.155,1.063-0.232,1.626-0.232
					c0.622,0,1.162,0.085,1.627,0.253h3.822v2.26h-1.668c0.099,0.156,0.178,0.352,0.242,0.592c0.064,0.239,0.098,0.499,0.098,0.782
					c0,0.605-0.107,1.13-0.319,1.572c-0.211,0.444-0.504,0.811-0.876,1.099c-0.373,0.289-0.811,0.503-1.311,0.645
					c-0.5,0.14-1.037,0.21-1.615,0.21c-0.407,0-0.83-0.071-1.267-0.21c-0.141,0.113-0.239,0.223-0.295,0.337
					c-0.057,0.112-0.085,0.261-0.085,0.444c0,0.267,0.115,0.464,0.348,0.591c0.234,0.126,0.646,0.191,1.236,0.191h1.689
					c1.293,0,2.285,0.207,2.967,0.622c0.684,0.415,1.025,1.095,1.025,2.037c0,0.549-0.138,1.054-0.413,1.51
					c-0.274,0.457-0.664,0.852-1.171,1.183c-0.507,0.33-1.12,0.591-1.838,0.782c-0.717,0.19-1.528,0.284-2.43,0.284
					c-0.619,0-1.191-0.052-1.721-0.158c-0.527-0.105-0.992-0.263-1.393-0.476c-0.4-0.211-0.716-0.486-0.94-0.823
					C323.904,484.277,323.791,483.875,323.791,483.41z M326.346,482.925c0,0.395,0.213,0.694,0.635,0.898s0.986,0.306,1.69,0.306
					c0.703,0,1.282-0.123,1.731-0.369c0.448-0.248,0.674-0.553,0.674-0.92c0-0.323-0.135-0.54-0.411-0.652
					c-0.274-0.114-0.673-0.17-1.192-0.17h-1.076c-0.367,0-0.662-0.011-0.888-0.033c-0.226-0.02-0.423-0.052-0.592-0.093
					C326.539,482.229,326.346,482.574,326.346,482.925z M328.416,476.42c0.408,0,0.749-0.142,1.024-0.43
					c0.275-0.29,0.411-0.73,0.411-1.321c0-0.549-0.136-0.969-0.411-1.257c-0.275-0.288-0.616-0.433-1.024-0.433
					c-0.407,0-0.75,0.141-1.024,0.422c-0.274,0.282-0.411,0.704-0.411,1.268c0,0.591,0.137,1.031,0.411,1.321
					C327.666,476.278,328.009,476.42,328.416,476.42z"/>
				<path fill="#929497" d="M277.133,487.724h3.105v13.768h-3.105V487.724z"/>
				<path fill="#929497" d="M282.937,491.018h2.533l0.211,1.33h0.083c0.452-0.422,0.944-0.792,1.48-1.109
					c0.534-0.315,1.16-0.475,1.878-0.475c1.141,0,1.969,0.373,2.483,1.12c0.512,0.746,0.77,1.78,0.77,3.104v6.504h-3.104v-6.104
					c0-0.761-0.102-1.28-0.308-1.562c-0.203-0.282-0.53-0.423-0.981-0.423c-0.394,0-0.731,0.087-1.013,0.263
					c-0.282,0.177-0.591,0.427-0.93,0.751v7.074h-3.104V491.018z"/>
				<path fill="#929497" d="M300.596,489.096c-0.395-0.142-0.752-0.213-1.078-0.213c-0.379,0-0.673,0.117-0.885,0.35
					c-0.213,0.233-0.318,0.616-0.318,1.151v0.634h1.88v2.428h-1.88v8.047h-3.104v-8.047h-1.395v-2.301l1.395-0.105v-0.57
					c0-0.55,0.066-1.071,0.199-1.562c0.135-0.496,0.356-0.923,0.666-1.289c0.31-0.367,0.711-0.655,1.203-0.867
					c0.494-0.211,1.092-0.316,1.796-0.316c0.436,0,0.834,0.042,1.192,0.126c0.359,0.085,0.66,0.17,0.897,0.253L300.596,489.096z"/>
				<path fill="#929497" d="M300.976,496.255c0-0.872,0.141-1.65,0.423-2.333c0.281-0.684,0.657-1.256,1.129-1.723
					c0.473-0.465,1.018-0.819,1.638-1.065c0.618-0.246,1.258-0.37,1.921-0.37c0.661,0,1.299,0.124,1.912,0.37
					c0.611,0.246,1.153,0.601,1.625,1.065c0.471,0.467,0.848,1.039,1.13,1.723c0.282,0.683,0.424,1.461,0.424,2.333
					s-0.142,1.65-0.424,2.333c-0.282,0.684-0.659,1.256-1.13,1.722c-0.472,0.464-1.014,0.82-1.625,1.065
					c-0.613,0.247-1.251,0.371-1.912,0.371c-0.663,0-1.303-0.124-1.921-0.371c-0.62-0.245-1.165-0.602-1.638-1.065
					c-0.472-0.466-0.848-1.038-1.129-1.722C301.116,497.905,300.976,497.127,300.976,496.255z M304.165,496.255
					c0,0.915,0.156,1.64,0.476,2.175c0.315,0.535,0.798,0.803,1.445,0.803c0.633,0,1.111-0.268,1.436-0.803s0.485-1.26,0.485-2.175
					s-0.161-1.64-0.485-2.175s-0.803-0.803-1.436-0.803c-0.647,0-1.13,0.268-1.445,0.803
					C304.321,494.615,304.165,495.34,304.165,496.255z"/>
				<path fill="#929497" d="M313.049,491.018h2.533l0.211,1.837h0.085c0.382-0.718,0.837-1.245,1.373-1.585
					c0.534-0.337,1.07-0.506,1.604-0.506c0.296,0,0.539,0.019,0.73,0.054c0.189,0.035,0.361,0.089,0.517,0.159l-0.507,2.681
					c-0.196-0.057-0.382-0.098-0.549-0.127c-0.17-0.027-0.367-0.041-0.593-0.041c-0.394,0-0.805,0.139-1.233,0.421
					c-0.43,0.283-0.786,0.781-1.068,1.5v6.082h-3.104V491.018z"/>
				<path fill="#929497" d="M321.295,491.018h2.535l0.211,1.352h0.086c0.437-0.437,0.9-0.813,1.392-1.131
					c0.494-0.315,1.085-0.475,1.775-0.475c0.746,0,1.349,0.151,1.807,0.455c0.456,0.302,0.819,0.735,1.087,1.297
					c0.465-0.477,0.953-0.889,1.468-1.233c0.513-0.345,1.122-0.519,1.827-0.519c1.125,0,1.952,0.377,2.48,1.13
					c0.527,0.753,0.793,1.785,0.793,3.095v6.504h-3.106v-6.104c0-0.761-0.102-1.28-0.305-1.562
					c-0.204-0.282-0.531-0.423-0.982-0.423c-0.521,0-1.119,0.338-1.795,1.014v7.074h-3.104v-6.104c0-0.761-0.103-1.28-0.307-1.562
					c-0.203-0.282-0.531-0.423-0.982-0.423c-0.535,0-1.125,0.338-1.773,1.014v7.074h-3.105V491.018z"/>
				<path fill="#929497" d="M338.616,498.578c0-1.099,0.465-1.959,1.395-2.576c0.93-0.619,2.429-1.034,4.498-1.246
					c-0.028-0.465-0.169-0.834-0.421-1.109c-0.257-0.275-0.663-0.412-1.227-0.412c-0.451,0-0.9,0.085-1.351,0.255
					c-0.451,0.168-0.93,0.4-1.437,0.696l-1.099-2.049c0.676-0.407,1.384-0.738,2.122-0.992c0.74-0.253,1.525-0.381,2.355-0.381
					c1.351,0,2.383,0.385,3.095,1.151c0.709,0.768,1.065,1.96,1.065,3.58v5.997h-2.534l-0.231-1.078h-0.064
					c-0.451,0.396-0.927,0.716-1.426,0.961c-0.501,0.247-1.045,0.371-1.637,0.371c-0.479,0-0.908-0.082-1.287-0.244
					c-0.381-0.162-0.704-0.388-0.973-0.676c-0.268-0.288-0.473-0.623-0.623-1.002C338.69,499.443,338.616,499.028,338.616,498.578z
					 M341.574,498.345c0,0.338,0.107,0.589,0.326,0.751c0.22,0.16,0.51,0.242,0.877,0.242c0.365,0,0.676-0.078,0.93-0.232
					c0.253-0.155,0.52-0.373,0.802-0.655v-1.836c-1.113,0.154-1.88,0.38-2.302,0.677
					C341.784,497.584,341.574,497.937,341.574,498.345z"/>
				<path fill="#929497" d="M350.298,493.445h-1.435v-2.301l1.604-0.127l0.358-2.788h2.576v2.788h2.513v2.428h-2.513v4.203
					c0,0.591,0.123,1.018,0.369,1.279c0.246,0.26,0.574,0.39,0.982,0.39c0.168,0,0.342-0.022,0.518-0.063
					c0.176-0.042,0.335-0.092,0.475-0.148l0.484,2.26c-0.279,0.085-0.609,0.17-0.991,0.253c-0.38,0.085-0.823,0.128-1.329,0.128
					c-0.648,0-1.201-0.099-1.659-0.296c-0.457-0.198-0.829-0.473-1.12-0.824c-0.288-0.353-0.5-0.777-0.633-1.277
					s-0.2-1.054-0.2-1.659V493.445z"/>
				<path fill="#939598" d="M359.287,489.478c-0.522,0-0.952-0.153-1.289-0.457c-0.338-0.301-0.508-0.692-0.508-1.172
					c0-0.477,0.17-0.867,0.508-1.16c0.337-0.296,0.767-0.445,1.289-0.445c0.533,0,0.968,0.148,1.297,0.445
					c0.331,0.293,0.499,0.683,0.499,1.16c0,0.479-0.168,0.871-0.499,1.172C360.255,489.324,359.82,489.478,359.287,489.478z
					 M357.744,491.018h3.104v10.475h-3.104V491.018z"/>
				<path fill="#929497" d="M362.664,496.255c0-0.872,0.141-1.65,0.423-2.333c0.282-0.684,0.658-1.256,1.129-1.723
					c0.474-0.465,1.017-0.819,1.638-1.065c0.619-0.246,1.26-0.37,1.924-0.37c0.659,0,1.297,0.124,1.909,0.37
					c0.613,0.246,1.155,0.601,1.627,1.065c0.471,0.467,0.847,1.039,1.129,1.723c0.28,0.683,0.423,1.461,0.423,2.333
					s-0.143,1.65-0.423,2.333c-0.282,0.684-0.658,1.256-1.129,1.722c-0.472,0.464-1.014,0.82-1.627,1.065
					c-0.612,0.247-1.25,0.371-1.909,0.371c-0.664,0-1.305-0.124-1.924-0.371c-0.621-0.245-1.164-0.602-1.638-1.065
					c-0.471-0.466-0.847-1.038-1.129-1.722C362.805,497.905,362.664,497.127,362.664,496.255z M365.854,496.255
					c0,0.915,0.158,1.64,0.476,2.175c0.315,0.535,0.798,0.803,1.448,0.803c0.632,0,1.109-0.268,1.434-0.803
					c0.323-0.535,0.486-1.26,0.486-2.175s-0.163-1.64-0.486-2.175c-0.324-0.535-0.802-0.803-1.434-0.803
					c-0.65,0-1.133,0.268-1.448,0.803C366.012,494.615,365.854,495.34,365.854,496.255z"/>
				<path fill="#929497" d="M374.736,491.018h2.535l0.212,1.33h0.082c0.452-0.422,0.942-0.792,1.479-1.109
					c0.533-0.315,1.16-0.475,1.879-0.475c1.141,0,1.967,0.373,2.48,1.12c0.514,0.746,0.772,1.78,0.772,3.104v6.504h-3.105v-6.104
					c0-0.761-0.104-1.28-0.308-1.562c-0.203-0.282-0.531-0.423-0.98-0.423c-0.395,0-0.73,0.087-1.013,0.263
					c-0.283,0.177-0.592,0.427-0.929,0.751v7.074h-3.105V491.018z"/>
				<path fill="#929497" d="M277.133,507.6h5.027c0.743,0,1.446,0.072,2.102,0.222c0.654,0.147,1.224,0.394,1.709,0.738
					c0.486,0.346,0.869,0.802,1.15,1.372s0.422,1.271,0.422,2.101c0,0.804-0.143,1.5-0.431,2.093
					c-0.289,0.591-0.681,1.076-1.173,1.457c-0.493,0.379-1.063,0.662-1.711,0.845c-0.647,0.182-1.338,0.274-2.068,0.274h-1.922
					v4.665h-3.105V507.6z M281.97,514.23c1.689,0,2.534-0.732,2.534-2.198c0-0.716-0.217-1.224-0.645-1.518
					c-0.432-0.296-1.059-0.444-1.89-0.444h-1.731v4.16H281.97z"/>
				<path fill="#929497" d="M289.234,510.894h2.534l0.211,1.838h0.085c0.378-0.719,0.838-1.247,1.371-1.583
					c0.537-0.34,1.07-0.508,1.605-0.508c0.296,0,0.539,0.017,0.729,0.054c0.19,0.033,0.362,0.087,0.519,0.157l-0.507,2.681
					c-0.199-0.056-0.379-0.097-0.551-0.125c-0.168-0.029-0.365-0.042-0.59-0.042c-0.395,0-0.807,0.141-1.236,0.422
					c-0.429,0.282-0.784,0.781-1.066,1.499v6.08h-3.104V510.894z"/>
				<path fill="#929497" d="M296.721,516.131c0-0.874,0.141-1.649,0.421-2.334c0.282-0.682,0.659-1.257,1.131-1.721
					c0.472-0.465,1.019-0.82,1.637-1.066c0.62-0.245,1.26-0.369,1.922-0.369s1.299,0.124,1.911,0.369
					c0.612,0.246,1.154,0.602,1.627,1.066c0.47,0.464,0.848,1.039,1.129,1.721c0.282,0.685,0.422,1.46,0.422,2.334
					c0,0.873-0.14,1.648-0.422,2.333c-0.281,0.682-0.659,1.256-1.129,1.72c-0.473,0.466-1.015,0.82-1.627,1.068
					c-0.612,0.245-1.249,0.368-1.911,0.368s-1.302-0.123-1.922-0.368c-0.618-0.248-1.165-0.603-1.637-1.068
					c-0.472-0.464-0.849-1.038-1.131-1.72C296.861,517.779,296.721,517.004,296.721,516.131z M299.909,516.131
					c0,0.913,0.157,1.639,0.476,2.176c0.317,0.533,0.798,0.799,1.446,0.799c0.632,0,1.112-0.266,1.437-0.799
					c0.324-0.537,0.485-1.263,0.485-2.176c0-0.915-0.161-1.641-0.485-2.175c-0.324-0.535-0.805-0.802-1.437-0.802
					c-0.648,0-1.129,0.267-1.446,0.802C300.066,514.49,299.909,515.216,299.909,516.131z"/>
				<path fill="#929497" d="M308.711,510.894h3.104v10.411c0,0.575-0.058,1.118-0.178,1.624c-0.121,0.508-0.325,0.95-0.613,1.331
					c-0.288,0.38-0.672,0.681-1.15,0.907c-0.48,0.226-1.077,0.339-1.795,0.339c-0.436,0-0.8-0.028-1.089-0.083
					c-0.288-0.058-0.536-0.128-0.749-0.212l0.55-2.282c0.141,0.043,0.272,0.078,0.4,0.105c0.126,0.03,0.268,0.043,0.421,0.043
					c0.41,0,0.694-0.135,0.857-0.401c0.161-0.267,0.242-0.697,0.242-1.288V510.894z M310.274,509.352
					c-0.522,0-0.95-0.15-1.288-0.454c-0.338-0.303-0.508-0.692-0.508-1.172c0-0.479,0.17-0.865,0.508-1.161
					c0.338-0.297,0.766-0.444,1.288-0.444c0.521,0,0.95,0.147,1.288,0.444c0.336,0.296,0.506,0.683,0.506,1.161
					c0,0.479-0.17,0.869-0.506,1.172C311.225,509.201,310.795,509.352,310.274,509.352z"/>
				<path fill="#929497" d="M313.664,516.131c0-0.845,0.141-1.607,0.421-2.292c0.281-0.683,0.651-1.26,1.11-1.73
					c0.457-0.473,0.981-0.836,1.572-1.089c0.59-0.253,1.205-0.379,1.838-0.379c0.744,0,1.398,0.126,1.952,0.379
					c0.558,0.253,1.02,0.605,1.394,1.057c0.372,0.451,0.652,0.982,0.834,1.595s0.273,1.277,0.273,1.995
					c0,0.282-0.013,0.538-0.042,0.771c-0.027,0.233-0.055,0.413-0.085,0.537h-6.27c0.141,0.804,0.453,1.384,0.94,1.743
					c0.485,0.358,1.08,0.538,1.784,0.538c0.745,0,1.499-0.233,2.259-0.696l1.034,1.878c-0.536,0.367-1.129,0.654-1.784,0.868
					c-0.654,0.209-1.298,0.315-1.931,0.315c-0.748,0-1.444-0.123-2.093-0.368c-0.646-0.248-1.21-0.607-1.688-1.078
					c-0.479-0.471-0.852-1.045-1.119-1.723C313.796,517.777,313.664,517.004,313.664,516.131z M320.42,515.054
					c0-0.605-0.134-1.098-0.399-1.478c-0.268-0.381-0.719-0.57-1.353-0.57c-0.492,0-0.927,0.165-1.299,0.495
					c-0.373,0.333-0.615,0.85-0.729,1.553H320.42z"/>
				<path fill="#929497" d="M324.35,516.131c0-0.874,0.148-1.649,0.443-2.334c0.296-0.682,0.693-1.257,1.194-1.721
					c0.499-0.465,1.079-0.82,1.742-1.066c0.661-0.245,1.351-0.369,2.07-0.369c0.646,0,1.231,0.109,1.751,0.327
					c0.522,0.218,0.959,0.511,1.311,0.876l-1.414,1.922c-0.494-0.408-0.98-0.611-1.459-0.611c-0.759,0-1.357,0.267-1.795,0.802
					c-0.438,0.534-0.654,1.26-0.654,2.175c0,0.913,0.222,1.639,0.664,2.176c0.442,0.533,1.004,0.799,1.68,0.799
					c0.381,0,0.725-0.076,1.035-0.23c0.31-0.153,0.592-0.331,0.845-0.527l1.246,1.964c-0.506,0.449-1.069,0.779-1.69,0.993
					c-0.619,0.209-1.218,0.315-1.794,0.315c-0.733,0-1.411-0.123-2.038-0.368c-0.629-0.248-1.173-0.603-1.637-1.068
					c-0.465-0.464-0.83-1.038-1.099-1.72C324.482,517.779,324.35,517.004,324.35,516.131z"/>
				<path fill="#929497" d="M335.281,513.321h-1.436v-2.302l1.605-0.126l0.359-2.788h2.576v2.788h2.513v2.428h-2.513v4.2
					c0,0.593,0.123,1.02,0.37,1.279c0.245,0.261,0.572,0.39,0.982,0.39c0.167,0,0.339-0.021,0.517-0.062
					c0.175-0.043,0.336-0.094,0.477-0.147l0.484,2.259c-0.281,0.085-0.613,0.169-0.992,0.254c-0.381,0.084-0.824,0.126-1.331,0.126
					c-0.647,0-1.199-0.101-1.657-0.295c-0.459-0.197-0.831-0.472-1.119-0.824c-0.289-0.351-0.499-0.777-0.633-1.277
					c-0.136-0.5-0.203-1.053-0.203-1.657V513.321z"/>
			</g>
			<g>
				<polygon fill="#FFFFFF" points="210.411,508.136 210.411,538.199 198.572,533.403 198.572,504.28 				"/>
				<polygon fill="#D71920" points="210.411,538.199 216.332,540.597 216.332,510.062 210.411,508.136 				"/>
				<polygon fill="#D71920" points="186.734,528.735 198.572,533.403 198.572,504.28 186.734,500.426 				"/>
				<polygon fill="#D71920" points="168.976,521.439 174.894,523.812 174.894,496.56 168.976,494.641 				"/>
				<polygon fill="#FFFFFF" points="186.734,500.426 186.734,528.624 174.894,523.812 174.894,496.568 				"/>
				<polygon fill="#0067AC" points="168.976,494.641 216.332,510.062 216.332,479.525 168.976,467.844 				"/>
				<polygon fill="#8B0304" points="222.251,538.199 216.332,540.597 216.332,510.062 222.251,508.136 				"/>
				<polygon fill="#8B0304" points="245.928,528.735 234.09,533.403 234.09,504.28 245.928,500.426 				"/>
				<polygon fill="#8B0304" points="263.688,521.439 257.769,523.812 257.769,496.56 263.688,494.641 				"/>
				<polygon fill="#004071" points="263.688,494.641 216.332,510.062 216.332,479.525 263.688,467.844 				"/>
				<polygon fill="#FFFFFF" points="263.688,467.844 216.332,458.712 168.976,467.844 216.332,479.525 				"/>
				<polygon fill="#FFFFFF" points="206.294,489.603 204.53,482.964 202.767,488.613 197.056,487.004 201.676,492.105 
					200.001,497.467 204.386,495.097 209.15,500.35 207.33,493.506 211.717,491.131 				"/>
				<polygon fill="#FFFFFF" points="182.542,482.917 180.853,476.563 179.166,481.965 173.696,480.428 178.122,485.307 
					176.521,490.431 180.709,488.162 185.274,493.204 183.53,486.641 187.717,484.372 				"/>
				<polygon fill="#B1B3B6" points="229.895,488.613 228.132,482.964 226.367,489.603 220.946,491.131 225.332,493.506 
					223.511,500.353 228.276,495.097 232.661,497.467 230.985,492.105 235.605,487.004 				"/>
				<polygon fill="#B1B3B6" points="258.963,480.428 253.499,481.965 251.808,476.563 250.122,482.917 244.943,484.372 
					249.133,486.641 247.389,493.204 251.952,488.162 256.142,490.431 254.542,485.307 				"/>
				<path fill="#B1B3B6" d="M227.213,457.796V447.57l-21.54,4.154v6.028l-39.657,7.648v58.031l50.316,20.36l50.314-20.36V465.4
					L227.213,457.796z M263.688,521.439l-5.919,2.372v-27.243l-11.84,3.857v28.31l-11.838,4.668V504.28l-11.839,3.855v30.063
					l-5.919,2.397l-47.356-19.157v-53.595l36.697-7.076v11.622l21.54-4.783v-6.797l36.475,7.034V521.439z"/>
				<polygon fill="#004071" points="227.213,464.464 227.213,467.607 234.62,465.961 				"/>
				<polygon fill="#004071" points="198.266,470.652 205.673,469.069 205.673,472.391 				"/>
			</g>
		</g>
		<rect x="495" y="129.374" fill="#60C9F8" width="0" height="6.99"/>
	</g>
</g>
<g id="devices">
	<g>
		<path fill="none" stroke="#D3D6DB" stroke-miterlimit="10" d="M30.162,356.212c0,0.223,0.183,0.421,0.405,0.44l3.932,0.337
			c0.223,0.02,0.405-0.148,0.405-0.372v-152.27c0-0.224-0.183-0.39-0.405-0.371l-3.932,0.336c-0.222,0.02-0.405,0.218-0.405,0.441
			V356.212z"/>
		<polygon fill="none" stroke="#D3D6DB" stroke-miterlimit="10" points="515.42,203.129 520.162,202.723 520.162,140.813 
			515.42,140.407 		"/>
		<path fill="none" stroke="#D3D6DB" stroke-miterlimit="10" d="M482.674,31.466C438.156,21.887,358.269,18.702,275.5,18.702
			c-106.149,0-170.535,7.023-204.778,12.764c-25.298,4.241-35.817,20.369-35.817,34.47l-0.678,434.256l1.761,434.075
			c0,19.173,15.869,30.807,35.827,34.84c19.958,4.03,73.751,12.577,203.756,12.577c137.795,0,178.561-8.071,203.617-12.577
			c25.057-4.509,36.775-19.73,36.775-38.902V69.013C515.963,50.725,504.271,36.115,482.674,31.466 M511.898,930.339
			c0,19.002-9.717,30.08-34.543,34.546c-24.832,4.468-65.23,12.462-201.785,12.462c-128.836,0-182.143-8.466-201.922-12.462
			c-19.779-3.996-34.544-15.544-34.544-34.546V69.826c0-13.974,8.39-29.936,33.461-34.139c33.936-5.69,97.743-12.65,202.935-12.65
			c82.023,0,161.193,3.157,205.307,12.65c21.404,4.605,31.092,20.096,31.092,34.139V930.339z"/>
		<path fill="#FFFFFF" stroke="#D3D6DB" stroke-miterlimit="10" d="M480.803,35.69c-44.109-9.496-123.273-12.652-205.301-12.652
			c-105.192,0-169,6.958-202.938,12.652c-25.068,4.205-33.457,20.159-33.457,34.134v860.519c0,19.002,14.759,30.546,34.545,34.545
			c19.776,3.998,73.078,12.456,201.919,12.456c136.554,0,176.948-7.988,201.782-12.456c24.834-4.47,34.545-15.543,34.545-34.545
			V69.824C511.898,55.781,502.215,40.296,480.803,35.69z M494.777,877.217H55.415V96.392h439.363V877.217z"/>
		<path fill="none" stroke="#D3D6DB" stroke-miterlimit="10" d="M120.184,67.081c0,3.573-2.896,6.469-6.47,6.469
			c-3.572,0-6.468-2.896-6.468-6.469c0-3.572,2.896-6.469,6.468-6.469C117.287,60.612,120.184,63.509,120.184,67.081"/>
		<path fill="none" stroke="#D3D6DB" stroke-miterlimit="10" d="M118.456,67.081c0,2.618-2.123,4.742-4.742,4.742
			c-2.618,0-4.741-2.124-4.741-4.742c0-2.618,2.123-4.742,4.741-4.742C116.333,62.339,118.456,64.463,118.456,67.081"/>
		<circle fill="none" stroke="#D3D6DB" stroke-miterlimit="10" cx="113.714" cy="67.081" r="4.741"/>
		<path fill="none" stroke="#D3D6DB" stroke-miterlimit="10" d="M115.108,67.081c0,0.77-0.625,1.395-1.394,1.395
			c-0.77,0-1.394-0.625-1.394-1.395c0-0.77,0.624-1.394,1.394-1.394C114.483,65.687,115.108,66.311,115.108,67.081"/>
		<path fill="none" stroke="#D3D6DB" stroke-miterlimit="10" d="M432.646,65.659c0,2.862-2.319,5.181-5.181,5.181
			c-2.862,0-5.181-2.319-5.181-5.181c0-2.863,2.318-5.183,5.181-5.183C430.327,60.477,432.646,62.796,432.646,65.659"/>
		<path fill="none" stroke="#D3D6DB" stroke-miterlimit="10" d="M447.5,65.659c0,1.86-1.51,3.369-3.371,3.369
			s-3.369-1.509-3.369-3.369c0-1.862,1.508-3.371,3.369-3.371S447.5,63.797,447.5,65.659"/>
		<path fill="none" stroke="#D3D6DB" stroke-miterlimit="10" d="M286.744,65.659c0,6.396-5.185,11.582-11.582,11.582
			c-6.397,0-11.582-5.185-11.582-11.582c0-6.397,5.185-11.583,11.582-11.583C281.56,54.077,286.744,59.262,286.744,65.659"/>
		<circle fill="none" stroke="#D3D6DB" stroke-miterlimit="10" cx="275.162" cy="65.659" r="11.582"/>
		<path fill="none" stroke="#D3D6DB" stroke-miterlimit="10" d="M267.516,65.735c0,0.66-0.534,1.194-1.194,1.194
			c-0.658,0-1.193-0.535-1.193-1.194c0-0.658,0.535-1.195,1.193-1.195C266.982,64.54,267.516,65.077,267.516,65.735"/>
		<path fill="none" stroke="#D3D6DB" stroke-miterlimit="10" d="M268.075,68.91c0,0.659-0.535,1.194-1.194,1.194
			s-1.193-0.536-1.193-1.194c0-0.659,0.534-1.193,1.193-1.193S268.075,68.251,268.075,68.91"/>
		<path fill="none" stroke="#D3D6DB" stroke-miterlimit="10" d="M271.175,68.554c0,0.659-0.534,1.194-1.194,1.194
			c-0.66,0-1.194-0.535-1.194-1.194c0-0.659,0.534-1.193,1.194-1.193C270.641,67.361,271.175,67.896,271.175,68.554"/>
		<path fill="none" stroke="#D3D6DB" stroke-miterlimit="10" d="M273.282,70.561c0,0.659-0.534,1.194-1.194,1.194
			c-0.658,0-1.192-0.535-1.192-1.194c0-0.66,0.534-1.194,1.192-1.194C272.748,69.367,273.282,69.901,273.282,70.561"/>
		<path fill="none" stroke="#D3D6DB" stroke-miterlimit="10" d="M269.981,71.868c0,0.66-0.535,1.194-1.194,1.194
			c-0.66,0-1.194-0.534-1.194-1.194c0-0.659,0.534-1.193,1.194-1.193C269.446,70.675,269.981,71.209,269.981,71.868"/>
		<path fill="none" stroke="#D3D6DB" stroke-miterlimit="10" d="M273.029,73.863c0,0.659-0.533,1.194-1.193,1.194
			s-1.195-0.536-1.195-1.194c0-0.659,0.535-1.194,1.195-1.194S273.029,73.204,273.029,73.863"/>
		<path fill="none" stroke="#D3D6DB" stroke-miterlimit="10" d="M274.959,68.122c0,0.66-0.534,1.194-1.194,1.194
			c-0.659,0-1.192-0.535-1.192-1.194c0-0.658,0.533-1.193,1.192-1.193C274.425,66.929,274.959,67.464,274.959,68.122"/>
		<path fill="none" stroke="#D3D6DB" stroke-miterlimit="10" d="M278.107,68.275c0,0.66-0.533,1.194-1.192,1.194
			s-1.192-0.535-1.192-1.194c0-0.659,0.533-1.194,1.192-1.194S278.107,67.616,278.107,68.275"/>
		<path fill="none" stroke="#D3D6DB" stroke-miterlimit="10" d="M281.511,68.554c0,0.659-0.532,1.194-1.192,1.194
			c-0.658,0-1.193-0.535-1.193-1.194c0-0.659,0.535-1.193,1.193-1.193C280.979,67.361,281.511,67.896,281.511,68.554"/>
		<path fill="none" stroke="#D3D6DB" stroke-miterlimit="10" d="M279.303,70.942c0,0.659-0.535,1.194-1.195,1.194
			c-0.659,0-1.192-0.535-1.192-1.194c0-0.659,0.533-1.193,1.192-1.193C278.768,69.749,279.303,70.283,279.303,70.942"/>
		<path fill="none" stroke="#D3D6DB" stroke-miterlimit="10" d="M282.707,71.868c0,0.66-0.535,1.194-1.196,1.194
			c-0.658,0-1.192-0.534-1.192-1.194c0-0.659,0.534-1.193,1.192-1.193C282.172,70.675,282.707,71.209,282.707,71.868"/>
		<path fill="none" stroke="#D3D6DB" stroke-miterlimit="10" d="M279.734,73.863c0,0.659-0.533,1.194-1.195,1.194
			c-0.658,0-1.193-0.536-1.193-1.194c0-0.659,0.535-1.194,1.193-1.194C279.201,72.669,279.734,73.204,279.734,73.863"/>
		<path fill="none" stroke="#D3D6DB" stroke-miterlimit="10" d="M276.152,71.476c0,0.659-0.535,1.194-1.193,1.194
			s-1.194-0.536-1.194-1.194c0-0.659,0.536-1.195,1.194-1.195S276.152,70.816,276.152,71.476"/>
		<path fill="none" stroke="#D3D6DB" stroke-miterlimit="10" d="M276.356,74.549c0,0.659-0.535,1.194-1.194,1.194
			c-0.66,0-1.193-0.535-1.193-1.194s0.533-1.194,1.193-1.194C275.821,73.355,276.356,73.89,276.356,74.549"/>
		<path fill="none" stroke="#D3D6DB" stroke-miterlimit="10" d="M284.764,69.088c0,0.659-0.533,1.193-1.194,1.193
			c-0.658,0-1.193-0.534-1.193-1.193c0-0.659,0.535-1.194,1.193-1.194C284.23,67.894,284.764,68.429,284.764,69.088"/>
		<path fill="none" stroke="#D3D6DB" stroke-miterlimit="10" d="M268.075,62.179c0,0.66-0.535,1.194-1.194,1.194
			s-1.193-0.535-1.193-1.194c0-0.658,0.534-1.194,1.193-1.194S268.075,61.521,268.075,62.179"/>
		<path fill="none" stroke="#D3D6DB" stroke-miterlimit="10" d="M270.463,59.334c0,0.659-0.535,1.194-1.193,1.194
			c-0.661,0-1.194-0.536-1.194-1.194s0.534-1.194,1.194-1.194C269.928,58.14,270.463,58.675,270.463,59.334"/>
		<path fill="none" stroke="#D3D6DB" stroke-miterlimit="10" d="M273.41,57.455c0,0.659-0.535,1.194-1.193,1.194
			c-0.661,0-1.195-0.536-1.195-1.194c0-0.66,0.534-1.194,1.195-1.194C272.875,56.26,273.41,56.795,273.41,57.455"/>
		<path fill="none" stroke="#D3D6DB" stroke-miterlimit="10" d="M276.559,56.769c0,0.659-0.533,1.194-1.193,1.194
			c-0.658,0-1.193-0.535-1.193-1.194c0-0.66,0.535-1.194,1.193-1.194C276.025,55.574,276.559,56.109,276.559,56.769"/>
		<path fill="none" stroke="#D3D6DB" stroke-miterlimit="10" d="M279.938,57.455c0,0.659-0.534,1.194-1.194,1.194
			c-0.659,0-1.192-0.536-1.192-1.194c0-0.66,0.533-1.194,1.192-1.194C279.403,56.26,279.938,56.795,279.938,57.455"/>
		<path fill="none" stroke="#D3D6DB" stroke-miterlimit="10" d="M282.808,59.334c0,0.659-0.533,1.194-1.194,1.194
			c-0.658,0-1.193-0.536-1.193-1.194s0.535-1.194,1.193-1.194C282.274,58.14,282.808,58.675,282.808,59.334"/>
		<path fill="none" stroke="#D3D6DB" stroke-miterlimit="10" d="M284.764,62.179c0,0.66-0.533,1.194-1.194,1.194
			c-0.658,0-1.193-0.535-1.193-1.194c0-0.658,0.535-1.194,1.193-1.194C284.23,60.985,284.764,61.521,284.764,62.179"/>
		<path fill="none" stroke="#D3D6DB" stroke-miterlimit="10" d="M281.613,62.585c0,0.659-0.533,1.194-1.193,1.194
			c-0.658,0-1.194-0.535-1.194-1.194c0-0.659,0.536-1.194,1.194-1.194C281.08,61.391,281.613,61.926,281.613,62.585"/>
		<path fill="none" stroke="#D3D6DB" stroke-miterlimit="10" d="M278.107,62.991c0,0.66-0.533,1.194-1.192,1.194
			s-1.192-0.534-1.192-1.194c0-0.659,0.533-1.193,1.192-1.193S278.107,62.333,278.107,62.991"/>
		<path fill="none" stroke="#D3D6DB" stroke-miterlimit="10" d="M274.959,62.991c0,0.66-0.534,1.194-1.194,1.194
			c-0.659,0-1.192-0.534-1.192-1.194c0-0.659,0.533-1.193,1.192-1.193C274.425,61.798,274.959,62.333,274.959,62.991"/>
		<path fill="none" stroke="#D3D6DB" stroke-miterlimit="10" d="M271.428,62.712c0,0.659-0.533,1.194-1.193,1.194
			c-0.659,0-1.193-0.535-1.193-1.194s0.534-1.193,1.193-1.193C270.895,61.519,271.428,62.053,271.428,62.712"/>
		<path fill="none" stroke="#D3D6DB" stroke-miterlimit="10" d="M273.562,60.325c0,0.659-0.534,1.194-1.194,1.194
			c-0.658,0-1.192-0.535-1.192-1.194s0.534-1.194,1.192-1.194C273.027,59.131,273.562,59.666,273.562,60.325"/>
		<path fill="none" stroke="#D3D6DB" stroke-miterlimit="10" d="M276.559,59.665c0,0.659-0.533,1.193-1.193,1.193
			c-0.658,0-1.193-0.534-1.193-1.193c0-0.66,0.535-1.194,1.193-1.194C276.025,58.47,276.559,59.005,276.559,59.665"/>
		<path fill="none" stroke="#D3D6DB" stroke-miterlimit="10" d="M279.303,60.527c0,0.66-0.535,1.194-1.195,1.194
			c-0.659,0-1.192-0.535-1.192-1.194c0-0.659,0.533-1.193,1.192-1.193C278.768,59.334,279.303,59.869,279.303,60.527"/>
		<path fill="none" stroke="#D3D6DB" stroke-miterlimit="10" d="M270.463,65.735c0,0.66-0.535,1.194-1.193,1.194
			c-0.661,0-1.194-0.535-1.194-1.194c0-0.658,0.534-1.195,1.194-1.195C269.928,64.54,270.463,65.077,270.463,65.735"/>
		<path fill="none" stroke="#D3D6DB" stroke-miterlimit="10" d="M273.41,65.735c0,0.66-0.535,1.194-1.193,1.194
			c-0.661,0-1.195-0.535-1.195-1.194c0-0.658,0.534-1.195,1.195-1.195C272.875,64.54,273.41,65.077,273.41,65.735"/>
		<path fill="none" stroke="#D3D6DB" stroke-miterlimit="10" d="M276.356,65.735c0,0.66-0.535,1.194-1.194,1.194
			c-0.66,0-1.193-0.535-1.193-1.194c0-0.658,0.533-1.195,1.193-1.195C275.821,64.54,276.356,65.077,276.356,65.735"/>
		<path fill="none" stroke="#D3D6DB" stroke-miterlimit="10" d="M279.303,65.735c0,0.66-0.535,1.194-1.195,1.194
			c-0.659,0-1.192-0.535-1.192-1.194c0-0.658,0.533-1.195,1.192-1.195C278.768,64.54,279.303,65.077,279.303,65.735"/>
		<path fill="none" stroke="#D3D6DB" stroke-miterlimit="10" d="M282.248,65.735c0,0.66-0.532,1.194-1.193,1.194
			c-0.658,0-1.193-0.535-1.193-1.194c0-0.658,0.535-1.195,1.193-1.195C281.716,64.54,282.248,65.077,282.248,65.735"/>
		<path fill="none" stroke="#D3D6DB" stroke-miterlimit="10" d="M285.196,65.735c0,0.66-0.534,1.194-1.194,1.194
			c-0.659,0-1.194-0.535-1.194-1.194c0-0.658,0.535-1.195,1.194-1.195C284.662,64.54,285.196,65.077,285.196,65.735"/>
	</g>
</g>
</svg>
