<?xml version="1.0" encoding="utf-8"?>
<!-- Generator: Adobe Illustrator 16.0.4, SVG Export Plug-In . SVG Version: 6.00 Build 0)  -->
<!DOCTYPE svg PUBLIC "-//W3C//DTD SVG 1.1//EN" "http://www.w3.org/Graphics/SVG/1.1/DTD/svg11.dtd">
<svg version="1.1" id="Layer_1" xmlns="http://www.w3.org/2000/svg" xmlns:xlink="http://www.w3.org/1999/xlink" x="0px" y="0px"
	 width="260px" height="140px" viewBox="0 0 260 140" enable-background="new 0 0 260 140" xml:space="preserve">
<path fill="#38A7DD" d="M186,70.867c0,30.584-24.793,55.378-55.377,55.378s-55.378-24.794-55.378-55.378
	c0-30.584,24.793-55.377,55.378-55.377S186,40.283,186,70.867"/>
<path fill="#FFFFFF" d="M118.242,57.292c-1.995-0.977-4.234-1.523-6.603-1.523c-3.52,0-6.76,1.214-9.33,3.24v-0.893v-0.424v-1.923
	h-0.041c-2.025,0-3.959,0.4-5.727,1.129v0.794v0.424v25.5v0.37v0.849c1.768,0.729,3.702,1.13,5.727,1.13h0.041v-1.979v-0.37v-12.75
	c0-5.144,4.187-9.33,9.33-9.33c0.964,0,1.89,0.146,2.765,0.417C115.416,60.193,116.715,58.615,118.242,57.292"/>
<path fill="#FFFFFF" d="M144.607,74.705c0.318-1.225,0.492-2.511,0.492-3.837c0-2.141,0.726-4.119,1.943-5.696
	c0.014-0.017,0.023-0.031,0.041-0.047c0.071-0.099,0.149-0.194,0.23-0.285c0.037-0.044,0.074-0.088,0.115-0.132
	c0.064-0.078,0.133-0.153,0.211-0.228c0.02-0.027,0.044-0.054,0.071-0.078c0.081-0.085,0.166-0.17,0.251-0.251
	c0.044-0.044,0.084-0.084,0.129-0.122c0.081-0.082,0.166-0.156,0.254-0.227c0.021-0.017,0.037-0.034,0.059-0.051
	c0.088-0.078,0.18-0.152,0.274-0.224c0.048-0.041,0.095-0.075,0.143-0.112c0.112-0.085,0.23-0.167,0.346-0.248
	c0.136-0.095,0.274-0.183,0.414-0.268c0.143-0.085,0.288-0.17,0.438-0.251c0.121-0.064,0.243-0.129,0.369-0.19
	c0.092-0.044,0.187-0.088,0.281-0.129c0.149-0.064,0.303-0.129,0.459-0.187c0.067-0.027,0.135-0.051,0.203-0.075
	c0.01-0.003,0.02-0.007,0.03-0.01c0.099-0.037,0.196-0.068,0.295-0.098c0.271-0.085,0.546-0.156,0.825-0.214
	c0.033-0.01,0.07-0.017,0.104-0.024c0.143-0.03,0.282-0.054,0.425-0.074c0.081-0.014,0.166-0.024,0.25-0.034
	c0.021-0.003,0.041-0.007,0.064-0.007c0.086-0.014,0.17-0.021,0.255-0.027c0.085-0.01,0.173-0.013,0.258-0.02
	c0.048-0.003,0.099-0.007,0.146-0.007c0.146-0.01,0.296-0.014,0.445-0.014c0.107,0,0.221,0.003,0.328,0.007
	c0.105,0.003,0.211,0.007,0.316,0.017c0.119,0.007,0.237,0.017,0.355,0.03c0.126,0.014,0.255,0.031,0.381,0.048
	c0.014,0.003,0.023,0.003,0.037,0.007c0.148,0.023,0.295,0.047,0.441,0.078c0.107,0.021,0.213,0.044,0.322,0.071
	c0.084,0.021,0.173,0.044,0.261,0.068c0.108,0.027,0.221,0.061,0.329,0.095c0.01,0.003,0.021,0.007,0.031,0.01
	c0.152,0.048,0.298,0.099,0.447,0.153c0.01,0.003,0.023,0.01,0.033,0.014c0.126,0.047,0.245,0.095,0.367,0.149
	c0.017,0.007,0.033,0.014,0.051,0.021c0.078,0.034,0.159,0.071,0.24,0.108c0.078,0.037,0.16,0.075,0.238,0.115
	c0.055,0.027,0.108,0.054,0.162,0.085c0.062,0.03,0.123,0.064,0.181,0.098c0.062,0.034,0.118,0.068,0.177,0.102
	c0.129,0.075,0.258,0.156,0.383,0.237c0.018,0.01,0.037,0.024,0.055,0.034c1.906-0.794,3.637-1.91,5.137-3.271
	c-0.041-0.041-0.086-0.078-0.126-0.115c-0.092-0.082-0.18-0.163-0.271-0.241c-0.044-0.038-0.091-0.078-0.136-0.115
	c-0.014-0.01-0.027-0.024-0.041-0.034c-0.098-0.085-0.196-0.166-0.299-0.244c-0.037-0.034-0.074-0.061-0.111-0.088
	c-0.115-0.091-0.234-0.18-0.354-0.268c-0.037-0.03-0.077-0.061-0.115-0.088c-0.003-0.003-0.006-0.003-0.01-0.006
	c-0.047-0.034-0.098-0.071-0.146-0.105c-0.037-0.027-0.077-0.054-0.118-0.082c-0.011-0.006-0.017-0.013-0.026-0.017
	c-0.027-0.021-0.055-0.041-0.082-0.058c-0.061-0.044-0.125-0.085-0.187-0.123c-0.038-0.023-0.075-0.051-0.115-0.074
	c-0.014-0.01-0.03-0.021-0.048-0.031c-0.051-0.034-0.102-0.064-0.152-0.095c-0.048-0.03-0.096-0.061-0.143-0.088
	c-0.045-0.027-0.088-0.054-0.133-0.078c-0.055-0.034-0.108-0.068-0.166-0.098c-0.061-0.034-0.122-0.068-0.184-0.102
	c-0.037-0.024-0.078-0.044-0.118-0.068c-0.038-0.021-0.075-0.041-0.115-0.061c-0.167-0.092-0.336-0.176-0.506-0.258
	c-0.067-0.034-0.14-0.068-0.21-0.099c-0.064-0.03-0.129-0.061-0.193-0.088l-0.184-0.082c-0.122-0.054-0.244-0.105-0.369-0.156
	c-0.059-0.023-0.115-0.047-0.174-0.067c-0.143-0.058-0.288-0.109-0.434-0.16c-0.023-0.01-0.048-0.017-0.072-0.027
	c-0.102-0.034-0.203-0.068-0.305-0.098c-0.018-0.007-0.031-0.014-0.047-0.017c-0.014-0.003-0.031-0.01-0.045-0.014
	c-0.152-0.051-0.312-0.095-0.469-0.139c-0.01-0.003-0.023-0.007-0.033-0.01c-0.037-0.01-0.074-0.021-0.111-0.031
	c-0.146-0.041-0.296-0.078-0.445-0.112c-0.184-0.044-0.373-0.085-0.56-0.123c-0.092-0.02-0.184-0.034-0.274-0.051
	c-0.068-0.013-0.137-0.023-0.204-0.037c-0.023-0.003-0.051-0.007-0.075-0.01c-0.013-0.003-0.029-0.007-0.051-0.007
	c-0.043-0.007-0.084-0.014-0.129-0.021c-0.088-0.013-0.176-0.027-0.268-0.037c-0.055-0.007-0.108-0.014-0.163-0.021
	c-0.01,0-0.023-0.003-0.034-0.003c-0.047-0.007-0.095-0.01-0.143-0.017c-0.118-0.014-0.233-0.024-0.352-0.031
	c-0.014,0-0.024-0.003-0.038-0.003c-0.026-0.003-0.058-0.007-0.085-0.007c-0.119-0.007-0.24-0.017-0.363-0.023
	c-0.027,0-0.054-0.003-0.081-0.003h-0.007c-0.044,0-0.088-0.003-0.136-0.003c-0.169-0.007-0.339-0.01-0.509-0.01h-0.01
	c-0.156,0-0.312,0.003-0.469,0.007c-0.027,0-0.051,0.003-0.078,0.003h-0.003c-0.075,0.003-0.149,0.007-0.228,0.01
	c-0.074,0.003-0.149,0.007-0.225,0.013c-0.026,0-0.057,0.003-0.084,0.007h-0.018c-0.033,0.003-0.067,0.003-0.102,0.007
	c-0.111,0.01-0.224,0.021-0.336,0.031c-0.044,0.003-0.084,0.01-0.125,0.013c-0.085,0.01-0.17,0.021-0.255,0.031
	c-0.021,0.003-0.04,0.003-0.062,0.007c-0.21,0.027-0.416,0.061-0.623,0.098c-0.021,0-0.045,0.003-0.064,0.01
	c-0.123,0.021-0.248,0.044-0.37,0.071c-0.112,0.021-0.224,0.047-0.336,0.071c-0.011,0.003-0.021,0.003-0.03,0.007
	c-0.244,0.058-0.485,0.119-0.723,0.187c-0.143,0.041-0.285,0.085-0.428,0.129c-0.129,0.041-0.258,0.085-0.387,0.129
	c-0.136,0.047-0.268,0.095-0.4,0.146c-0.143,0.054-0.281,0.108-0.424,0.169c-0.004,0-0.011,0-0.014,0.003
	c-0.105,0.044-0.211,0.088-0.316,0.136c-0.037,0.017-0.074,0.034-0.111,0.051c-0.119,0.051-0.238,0.108-0.356,0.166
	c-0.102,0.047-0.204,0.099-0.302,0.153c-0.085,0.041-0.166,0.084-0.248,0.129c-0.078,0.041-0.152,0.081-0.23,0.125
	c-0.051,0.027-0.099,0.054-0.149,0.085c-0.051,0.027-0.099,0.054-0.146,0.084c-0.188,0.112-0.373,0.224-0.553,0.343
	c-0.184,0.119-0.363,0.241-0.543,0.367c-0.099,0.071-0.193,0.142-0.292,0.213c-0.095,0.075-0.194,0.146-0.288,0.221
	c-0.19,0.149-0.377,0.305-0.561,0.465c-0.092,0.078-0.18,0.159-0.271,0.241c-0.041,0.038-0.081,0.075-0.125,0.115
	c-0.715,0.665-1.363,1.399-1.939,2.19c0-0.001-0.001-0.002-0.002-0.003c-0.018,0.025-0.035,0.051-0.053,0.076
	c-0.013,0.017-0.024,0.035-0.037,0.053c-0.128,0.18-0.252,0.362-0.373,0.548c-0.018,0.029-0.036,0.057-0.055,0.086
	c-0.396,0.62-0.748,1.27-1.051,1.947c-0.01,0.021-0.02,0.042-0.029,0.063c-0.098,0.221-0.19,0.444-0.277,0.67
	c-0.002,0.004-0.004,0.008-0.005,0.012c-0.179,0.464-0.335,0.939-0.468,1.424c-0.01,0.038-0.02,0.076-0.029,0.114
	c-0.055,0.206-0.105,0.414-0.152,0.623c-0.008,0.037-0.016,0.073-0.023,0.109c-0.102,0.477-0.18,0.961-0.234,1.453
	c-0.008,0.064-0.014,0.129-0.02,0.193c-0.019,0.184-0.033,0.368-0.045,0.553c-0.004,0.068-0.009,0.137-0.012,0.206
	c-0.012,0.244-0.02,0.489-0.02,0.736c0,1.886-0.563,3.643-1.531,5.113c-1.669,2.538-4.543,4.217-7.799,4.217
	c-5.144,0-9.33-4.187-9.33-9.33c0-5.144,4.187-9.33,9.33-9.33c3.256,0,6.13,1.679,7.799,4.217c0.201-0.679,0.441-1.344,0.723-1.988
	c0.557-1.292,1.263-2.507,2.094-3.624c-2.728-2.704-6.48-4.374-10.616-4.374c-3.451,0-6.636,1.164-9.181,3.122
	c-1.541,1.181-2.85,2.657-3.837,4.339c-1.323,2.243-2.08,4.852-2.08,7.637c0,8.326,6.772,15.098,15.098,15.098
	c4.135,0,7.888-1.67,10.616-4.374c0.584-0.573,1.116-1.197,1.598-1.858c0,0,0,0,0,0.001C143.305,78.24,144.122,76.54,144.607,74.705
	"/>
<path fill="#FFFFFF" d="M159.512,78.685c-0.125,0.085-0.251,0.163-0.383,0.237c-0.059,0.034-0.116,0.068-0.178,0.103
	c-0.057,0.033-0.118,0.067-0.18,0.098c-0.054,0.031-0.107,0.058-0.162,0.085c-0.078,0.041-0.16,0.078-0.238,0.115
	c-0.081,0.037-0.162,0.075-0.24,0.108c-0.018,0.007-0.034,0.014-0.051,0.021c-0.119,0.055-0.244,0.103-0.367,0.149
	c-0.01,0.004-0.023,0.01-0.033,0.014c-0.149,0.055-0.295,0.105-0.447,0.152c-0.119,0.038-0.238,0.075-0.36,0.105
	c-0.088,0.023-0.177,0.048-0.261,0.068c-0.149,0.037-0.299,0.067-0.451,0.098c-0.115,0.021-0.234,0.041-0.35,0.058
	c-0.064,0.011-0.133,0.018-0.197,0.027c-0.176,0.023-0.359,0.041-0.539,0.051c-0.105,0.011-0.211,0.014-0.315,0.018
	c-0.108,0.003-0.222,0.007-0.329,0.007c-0.112,0-0.225-0.004-0.336-0.007c-0.085-0.004-0.17-0.007-0.255-0.014
	c-2.762-0.17-5.198-1.551-6.796-3.613c-0.586,1.754-1.438,3.386-2.507,4.852c-0.126,0.169-0.251,0.339-0.38,0.505
	c0.044,0.041,0.084,0.078,0.125,0.116c0.092,0.081,0.18,0.162,0.271,0.24c0.184,0.16,0.37,0.315,0.561,0.465
	c0.094,0.075,0.193,0.146,0.288,0.221c0.099,0.071,0.193,0.143,0.292,0.214c0.355,0.251,0.723,0.488,1.096,0.709
	c0.095,0.058,0.196,0.115,0.295,0.17c0.078,0.044,0.152,0.085,0.23,0.125c0.082,0.045,0.163,0.089,0.248,0.129
	c0.098,0.055,0.2,0.105,0.302,0.153c0.118,0.058,0.237,0.115,0.356,0.166c0.037,0.017,0.074,0.034,0.111,0.051
	c0.105,0.048,0.211,0.092,0.316,0.136c0.146,0.061,0.291,0.119,0.438,0.173c0.133,0.051,0.265,0.099,0.4,0.146
	c0.512,0.176,1.035,0.328,1.567,0.451c0.112,0.023,0.224,0.051,0.335,0.071c0.123,0.026,0.248,0.051,0.371,0.071
	c0.02,0.006,0.043,0.01,0.064,0.01c0.207,0.037,0.413,0.071,0.623,0.099c0.021,0.003,0.041,0.003,0.062,0.007
	c0.085,0.01,0.17,0.02,0.255,0.03c0.184,0.021,0.377,0.041,0.562,0.051h0.018c0.027,0.004,0.058,0.007,0.084,0.007
	c0.075,0.007,0.15,0.01,0.225,0.014c0.078,0.003,0.152,0.007,0.228,0.01h0.003c0.027,0,0.051,0.004,0.078,0.004
	c0.156,0.003,0.312,0.007,0.469,0.007h0.01c0.17,0,0.34-0.004,0.509-0.011c0.048,0,0.092-0.003,0.136-0.003h0.007
	c0.146-0.007,0.298-0.018,0.444-0.027c0.027,0,0.059-0.003,0.085-0.007c0.014,0,0.024-0.003,0.038-0.003
	c0.176-0.014,0.352-0.031,0.528-0.052c0.19-0.02,0.374-0.047,0.56-0.077c0.021,0,0.038-0.004,0.051-0.007
	c0.188-0.031,0.37-0.062,0.554-0.099c0.187-0.037,0.376-0.078,0.56-0.122c0.149-0.034,0.299-0.071,0.444-0.112
	c0.038-0.01,0.075-0.021,0.112-0.03c0.184-0.051,0.366-0.105,0.546-0.163c0.261-0.081,0.522-0.173,0.776-0.274
	c0.086-0.027,0.17-0.062,0.256-0.096c0.186-0.074,0.369-0.152,0.553-0.237c0.023-0.01,0.047-0.021,0.07-0.033
	c0.113-0.048,0.225-0.099,0.333-0.153c0.21-0.102,0.417-0.207,0.621-0.318c0.099-0.055,0.193-0.109,0.288-0.167
	c0.061-0.03,0.119-0.064,0.18-0.102c0.041-0.023,0.078-0.047,0.119-0.074c0.105-0.058,0.207-0.122,0.309-0.187
	c0.018-0.011,0.034-0.021,0.047-0.031c0.078-0.048,0.151-0.101,0.228-0.15c0.003-0.002,0.006-0.004,0.009-0.006
	c0.098-0.065,0.197-0.128,0.293-0.196c0.052-0.037,0.105-0.074,0.156-0.112c0.038-0.026,0.078-0.058,0.115-0.088
	c0.275-0.2,0.547-0.41,0.805-0.635c0.184-0.152,0.359-0.309,0.533-0.472c-1.5-1.36-3.23-2.477-5.137-3.271
	C159.549,78.661,159.529,78.675,159.512,78.685"/>
</svg>
