<svg id="Layer_1" data-name="Layer 1" xmlns="http://www.w3.org/2000/svg" xmlns:xlink="http://www.w3.org/1999/xlink" viewBox="0 0 796 278"><defs><style>.cls-1,.cls-12,.cls-13{fill:none;}.cls-2{fill:#231f20;}.cls-3{fill:#5f5643;}.cls-4{fill:#776c5a;}.cls-5{fill:#9abd51;}.cls-6{fill:#4d4d4d;}.cls-7{fill:#c99d4f;}.cls-8{fill:#dce2e5;}.cls-9{opacity:0.3;}.cls-10{fill:#73a3ec;}.cls-11{fill:#fff;}.cls-12{stroke:#333;stroke-width:8px;}.cls-12,.cls-13{stroke-miterlimit:10;}.cls-13{stroke:#73a3ec;stroke-width:4px;}.cls-14{fill:#9fb50b;}.cls-15{fill:#e570a0;}.cls-16{fill:#474440;}.cls-17{fill:url(#USGS_22_Gravel_Beach);}</style><pattern id="USGS_22_Gravel_Beach" data-name="USGS 22 Gravel Beach" width="72" height="72" patternUnits="userSpaceOnUse" viewBox="0 0 72 72"><rect class="cls-1" width="72" height="72"/><path class="cls-2" d="M21,3.1A0.39,0.39,0,0,1,20.75,3a0.36,0.36,0,0,1,0-.5,0.36,0.36,0,0,1,.6.25,0.39,0.39,0,0,1-.1.25A0.39,0.39,0,0,1,21,3.1Z"/><path class="cls-2" d="M20,8.35a0.39,0.39,0,0,1-.25-0.1A0.4,0.4,0,0,1,19.65,8a0.33,0.33,0,0,1,.11-0.25,0.36,0.36,0,0,1,.49,0,0.35,0.35,0,0,1,.1.25,0.39,0.39,0,0,1-.1.25A0.37,0.37,0,0,1,20,8.35Z"/><path class="cls-2" d="M20.25,10.6A0.39,0.39,0,0,1,20,10.5a0.36,0.36,0,0,1,0-.5,0.37,0.37,0,0,1,.5,0,0.36,0.36,0,0,1,0,.5A0.39,0.39,0,0,1,20.25,10.6Z"/><path class="cls-2" d="M15.25,10.6A0.39,0.39,0,0,1,15,10.5a0.4,0.4,0,0,1-.1-0.25A0.35,0.35,0,0,1,15.5,10a0.36,0.36,0,0,1,0,.5A0.39,0.39,0,0,1,15.25,10.6Z"/><path class="cls-2" d="M22.75,20.1A0.39,0.39,0,0,1,22.5,20a0.36,0.36,0,0,1,0-.5,0.36,0.36,0,0,1,.6.25A0.39,0.39,0,0,1,23,20,0.39,0.39,0,0,1,22.75,20.1Z"/><path class="cls-2" d="M15.25,23.1A0.39,0.39,0,0,1,15,23a0.4,0.4,0,0,1-.1-0.25A0.33,0.33,0,0,1,15,22.5a0.36,0.36,0,0,1,.49,0,0.35,0.35,0,0,1,.1.25,0.39,0.39,0,0,1-.1.25A0.39,0.39,0,0,1,15.25,23.1Z"/><path class="cls-2" d="M14,24.1a0.39,0.39,0,0,1-.25-0.1,0.36,0.36,0,0,1,0-.5,0.36,0.36,0,0,1,.6.25,0.39,0.39,0,0,1-.1.25A0.37,0.37,0,0,1,14,24.1Z"/><path class="cls-2" d="M24,27.1a0.39,0.39,0,0,1-.25-0.1,0.4,0.4,0,0,1-.1-0.25,0.33,0.33,0,0,1,.11-0.25,0.36,0.36,0,0,1,.49,0,0.39,0.39,0,0,1,.1.25,0.35,0.35,0,0,1-.1.24A0.35,0.35,0,0,1,24,27.1Z"/><path class="cls-2" d="M30.75,25.85a0.39,0.39,0,0,1-.25-0.1,0.36,0.36,0,0,1,0-.5,0.36,0.36,0,0,1,.6.25,0.39,0.39,0,0,1-.1.25A0.39,0.39,0,0,1,30.75,25.85Z"/><path class="cls-2" d="M31.25,23.35a0.39,0.39,0,0,1-.25-0.1A0.4,0.4,0,0,1,30.9,23,0.33,0.33,0,0,1,31,22.75a0.35,0.35,0,0,1,.59.25,0.39,0.39,0,0,1-.1.25A0.37,0.37,0,0,1,31.25,23.35Z"/><path class="cls-2" d="M29.25,18.35a0.39,0.39,0,0,1-.25-0.1,0.36,0.36,0,0,1,0-.5,0.36,0.36,0,0,1,.6.25,0.39,0.39,0,0,1-.1.25A0.39,0.39,0,0,1,29.25,18.35Z"/><path class="cls-2" d="M34,19.85a0.39,0.39,0,0,1-.25-0.1,0.36,0.36,0,0,1,0-.5,0.36,0.36,0,0,1,.6.25,0.39,0.39,0,0,1-.1.25A0.39,0.39,0,0,1,34,19.85Z"/><path class="cls-2" d="M31.5,14.85a0.39,0.39,0,0,1-.25-0.1,0.36,0.36,0,0,1,0-.5,0.36,0.36,0,0,1,.6.25,0.39,0.39,0,0,1-.1.25A0.39,0.39,0,0,1,31.5,14.85Z"/><path class="cls-2" d="M31.75,11.85a0.39,0.39,0,0,1-.25-0.1,0.36,0.36,0,0,1,0-.5,0.37,0.37,0,0,1,.5,0,0.36,0.36,0,0,1,0,.5A0.39,0.39,0,0,1,31.75,11.85Z"/><path class="cls-2" d="M32.25,7.1A0.39,0.39,0,0,1,32,7a0.36,0.36,0,0,1,0-.5,0.36,0.36,0,0,1,.6.25,0.39,0.39,0,0,1-.1.25A0.39,0.39,0,0,1,32.25,7.1Z"/><path class="cls-2" d="M32,3.1A0.39,0.39,0,0,1,31.75,3a0.4,0.4,0,0,1-.1-0.25,0.33,0.33,0,0,1,.11-0.25,0.35,0.35,0,0,1,.59.25,0.39,0.39,0,0,1-.1.25A0.39,0.39,0,0,1,32,3.1Z"/><path class="cls-2" d="M34,1.35a0.36,0.36,0,0,1-.25-0.11A0.33,0.33,0,0,1,33.65,1,0.33,0.33,0,0,1,33.76.75a0.35,0.35,0,0,1,.59.25,0.34,0.34,0,0,1-.11.25A0.34,0.34,0,0,1,34,1.35Z"/><path class="cls-2" d="M41.5,7.1A0.39,0.39,0,0,1,41.25,7a0.35,0.35,0,0,1-.1-0.25,0.4,0.4,0,0,1,.1-0.25,0.35,0.35,0,0,1,.49,0,0.36,0.36,0,0,1,.11.25,0.39,0.39,0,0,1-.1.25A0.39,0.39,0,0,1,41.5,7.1Z"/><path class="cls-2" d="M45.5,6.85a0.39,0.39,0,0,1-.25-0.1,0.36,0.36,0,0,1,0-.5,0.36,0.36,0,0,1,.6.25,0.39,0.39,0,0,1-.1.25A0.39,0.39,0,0,1,45.5,6.85Z"/><path class="cls-2" d="M42.5,13.6a0.39,0.39,0,0,1-.25-0.1,0.4,0.4,0,0,1-.1-0.25A0.33,0.33,0,0,1,42.26,13a0.35,0.35,0,0,1,.59.25,0.39,0.39,0,0,1-.1.25A0.39,0.39,0,0,1,42.5,13.6Z"/><path class="cls-2" d="M47,14.35a0.39,0.39,0,0,1-.25-0.1,0.4,0.4,0,0,1-.1-0.25,0.33,0.33,0,0,1,.11-0.25,0.35,0.35,0,0,1,.49,0,0.39,0.39,0,0,1,.1.25,0.33,0.33,0,0,1-.1.24A0.35,0.35,0,0,1,47,14.35Z"/><path class="cls-2" d="M47,16.35a0.39,0.39,0,0,1-.25-0.1,0.4,0.4,0,0,1-.1-0.25,0.33,0.33,0,0,1,.11-0.25,0.35,0.35,0,0,1,.49,0,0.39,0.39,0,0,1,.1.25,0.37,0.37,0,0,1-.1.24A0.35,0.35,0,0,1,47,16.35Z"/><path class="cls-2" d="M39,20.85a0.39,0.39,0,0,1-.25-0.1,0.36,0.36,0,0,1,0-.5,0.35,0.35,0,0,1,.49,0,0.34,0.34,0,0,1,.11.25,0.39,0.39,0,0,1-.1.25A0.39,0.39,0,0,1,39,20.85Z"/><path class="cls-2" d="M50.25,13.6A0.39,0.39,0,0,1,50,13.5a0.36,0.36,0,0,1,0-.5,0.37,0.37,0,0,1,.5,0,0.36,0.36,0,0,1,0,.5A0.39,0.39,0,0,1,50.25,13.6Z"/><path class="cls-2" d="M52.25,12.1A0.36,0.36,0,0,1,52,12a0.35,0.35,0,0,1-.1-0.24A0.33,0.33,0,0,1,52,11.5a0.36,0.36,0,0,1,.49,0,0.35,0.35,0,0,1,.1.25,0.39,0.39,0,0,1-.1.25A0.39,0.39,0,0,1,52.25,12.1Z"/><path class="cls-2" d="M54.75,11.1A0.36,0.36,0,0,1,54.5,11a0.35,0.35,0,0,1-.1-0.24,0.33,0.33,0,0,1,.11-0.25,0.35,0.35,0,0,1,.59.25A0.39,0.39,0,0,1,55,11,0.39,0.39,0,0,1,54.75,11.1Z"/><path class="cls-2" d="M56.5,0.85a0.39,0.39,0,0,1-.25-0.1A0.4,0.4,0,0,1,56.15.5a0.4,0.4,0,0,1,.1-0.25,0.36,0.36,0,0,1,.5,0,0.35,0.35,0,0,1,.1.24,0.39,0.39,0,0,1-.1.25A0.39,0.39,0,0,1,56.5.85Z"/><path class="cls-2" d="M68,3.1A0.39,0.39,0,0,1,67.75,3a0.4,0.4,0,0,1-.1-0.25,0.33,0.33,0,0,1,.11-0.25,0.36,0.36,0,0,1,.49,0,0.35,0.35,0,0,1,.1.25,0.39,0.39,0,0,1-.1.25A0.37,0.37,0,0,1,68,3.1Z"/><path class="cls-2" d="M68,10.35a0.36,0.36,0,0,1-.25-0.11,0.35,0.35,0,0,1-.1-0.24,0.4,0.4,0,0,1,.1-0.25,0.37,0.37,0,0,1,.5,0,0.39,0.39,0,0,1,.1.25,0.34,0.34,0,0,1-.11.25A0.34,0.34,0,0,1,68,10.35Z"/><path class="cls-2" d="M64.25,12.35a0.39,0.39,0,0,1-.25-0.1,0.36,0.36,0,0,1,0-.5,0.36,0.36,0,0,1,.6.25,0.39,0.39,0,0,1-.1.25A0.39,0.39,0,0,1,64.25,12.35Z"/><path class="cls-2" d="M65.25,15.85a0.39,0.39,0,0,1-.25-0.1,0.4,0.4,0,0,1-.1-0.25,0.35,0.35,0,0,1,.6-0.25,0.36,0.36,0,0,1,0,.5A0.39,0.39,0,0,1,65.25,15.85Z"/><path class="cls-2" d="M64,19.85a0.36,0.36,0,0,1-.25-0.11,0.35,0.35,0,0,1-.1-0.24,0.4,0.4,0,0,1,.1-0.25,0.37,0.37,0,0,1,.5,0,0.39,0.39,0,0,1,.1.25,0.34,0.34,0,0,1-.11.25A0.34,0.34,0,0,1,64,19.85Z"/><path class="cls-2" d="M66.25,19.85a0.39,0.39,0,0,1-.25-0.1,0.4,0.4,0,0,1-.1-0.25A0.33,0.33,0,0,1,66,19.25a0.36,0.36,0,0,1,.49,0,0.35,0.35,0,0,1,.1.25,0.39,0.39,0,0,1-.1.25A0.39,0.39,0,0,1,66.25,19.85Z"/><path class="cls-2" d="M68,21.35a0.39,0.39,0,0,1-.25-0.1,0.36,0.36,0,0,1,0-.5,0.37,0.37,0,0,1,.5,0,0.36,0.36,0,0,1,0,.5A0.39,0.39,0,0,1,68,21.35Z"/><path class="cls-2" d="M7,52.35a0.39,0.39,0,0,1-.25-0.1,0.36,0.36,0,0,1,0-.5,0.38,0.38,0,0,1,.5,0,0.36,0.36,0,0,1,0,.5A0.39,0.39,0,0,1,7,52.35Z"/><path class="cls-2" d="M7.25,54.6A0.39,0.39,0,0,1,7,54.5,0.36,0.36,0,0,1,7,54a0.37,0.37,0,0,1,.5,0,0.36,0.36,0,0,1,0,.5A0.39,0.39,0,0,1,7.25,54.6Z"/><path class="cls-2" d="M2.25,54.6A0.39,0.39,0,0,1,2,54.5,0.36,0.36,0,0,1,2,54a0.38,0.38,0,0,1,.5,0,0.36,0.36,0,0,1,0,.5A0.39,0.39,0,0,1,2.25,54.6Z"/><path class="cls-2" d="M9.75,64.1A0.39,0.39,0,0,1,9.5,64a0.36,0.36,0,0,1,0-.5,0.36,0.36,0,0,1,.6.25A0.39,0.39,0,0,1,10,64,0.39,0.39,0,0,1,9.75,64.1Z"/><path class="cls-2" d="M1,68.1A0.39,0.39,0,0,1,.75,68a0.36,0.36,0,0,1,0-.5,0.38,0.38,0,0,1,.5,0,0.36,0.36,0,0,1,0,.5A0.39,0.39,0,0,1,1,68.1Z"/><path class="cls-2" d="M11,71.1a0.39,0.39,0,0,1-.25-0.1,0.36,0.36,0,0,1,0-.5,0.38,0.38,0,0,1,.5,0,0.36,0.36,0,0,1,0,.5A0.39,0.39,0,0,1,11,71.1Z"/><path class="cls-2" d="M18.25,67.35a0.39,0.39,0,0,1-.25-0.1A0.4,0.4,0,0,1,17.9,67a0.38,0.38,0,0,1,.1-0.25,0.37,0.37,0,0,1,.49,0,0.36,0.36,0,0,1,.11.25,0.39,0.39,0,0,1-.1.25A0.39,0.39,0,0,1,18.25,67.35Z"/><path class="cls-2" d="M16.25,62.35a0.39,0.39,0,0,1-.25-0.1,0.36,0.36,0,0,1,0-.5,0.37,0.37,0,0,1,.5,0,0.36,0.36,0,0,1,0,.5A0.39,0.39,0,0,1,16.25,62.35Z"/><path class="cls-2" d="M19.5,57.85a0.39,0.39,0,0,1-.25-0.1,0.4,0.4,0,0,1-.1-0.25,0.33,0.33,0,0,1,.11-0.25,0.36,0.36,0,0,1,.49,0,0.35,0.35,0,0,1,.1.25,0.39,0.39,0,0,1-.1.25A0.39,0.39,0,0,1,19.5,57.85Z"/><path class="cls-2" d="M18.75,55.85a0.39,0.39,0,0,1-.25-0.1,0.4,0.4,0,0,1-.1-0.25,0.33,0.33,0,0,1,.11-0.25,0.36,0.36,0,0,1,.49,0,0.35,0.35,0,0,1,.1.25,0.39,0.39,0,0,1-.1.25A0.39,0.39,0,0,1,18.75,55.85Z"/><path class="cls-2" d="M16.25,54.85a0.39,0.39,0,0,1-.25-0.1,0.4,0.4,0,0,1-.1-0.25A0.33,0.33,0,0,1,16,54.25a0.36,0.36,0,0,1,.49,0,0.35,0.35,0,0,1,.1.25,0.39,0.39,0,0,1-.1.25A0.39,0.39,0,0,1,16.25,54.85Z"/><path class="cls-2" d="M19.25,51.1A0.39,0.39,0,0,1,19,51a0.4,0.4,0,0,1-.1-0.25A0.33,0.33,0,0,1,19,50.5a0.36,0.36,0,0,1,.49,0,0.35,0.35,0,0,1,.1.25,0.39,0.39,0,0,1-.1.25A0.39,0.39,0,0,1,19.25,51.1Z"/><path class="cls-2" d="M19,47.1a0.39,0.39,0,0,1-.25-0.1,0.36,0.36,0,0,1,0-.5,0.38,0.38,0,0,1,.5,0,0.36,0.36,0,0,1,0,.5A0.39,0.39,0,0,1,19,47.1Z"/><path class="cls-2" d="M16.25,47.35a0.39,0.39,0,0,1-.25-0.1,0.36,0.36,0,0,1,0-.5,0.37,0.37,0,0,1,.5,0,0.36,0.36,0,0,1,0,.5A0.39,0.39,0,0,1,16.25,47.35Z"/><path class="cls-2" d="M32.5,50.85a0.39,0.39,0,0,1-.25-0.1,0.4,0.4,0,0,1-.1-0.25,0.33,0.33,0,0,1,.11-0.25,0.35,0.35,0,0,1,.59.25,0.39,0.39,0,0,1-.1.25A0.39,0.39,0,0,1,32.5,50.85Z"/><path class="cls-2" d="M27.25,54.35a0.39,0.39,0,0,1-.25-0.1,0.36,0.36,0,0,1,0-.5,0.37,0.37,0,0,1,.5,0,0.36,0.36,0,0,1,0,.5A0.39,0.39,0,0,1,27.25,54.35Z"/><path class="cls-2" d="M32,55.85a0.39,0.39,0,0,1-.25-0.1,0.36,0.36,0,0,1,0-.5,0.37,0.37,0,0,1,.5,0,0.36,0.36,0,0,1,0,.5A0.39,0.39,0,0,1,32,55.85Z"/><path class="cls-2" d="M32,57.6a0.34,0.34,0,0,1-.24-0.1,0.35,0.35,0,0,1,0-.5,0.37,0.37,0,0,1,.5,0,0.35,0.35,0,0,1,.1.25,0.39,0.39,0,0,1-.1.25A0.39,0.39,0,0,1,32,57.6Z"/><path class="cls-2" d="M34,58.35a0.39,0.39,0,0,1-.25-0.1,0.36,0.36,0,0,1,0-.5,0.37,0.37,0,0,1,.5,0,0.36,0.36,0,0,1,0,.5A0.39,0.39,0,0,1,34,58.35Z"/><path class="cls-2" d="M26,64.85a0.39,0.39,0,0,1-.25-0.1,0.36,0.36,0,0,1,0-.5,0.36,0.36,0,0,1,.6.25,0.39,0.39,0,0,1-.1.25A0.39,0.39,0,0,1,26,64.85Z"/><path class="cls-2" d="M36,56.35a0.39,0.39,0,0,1-.25-0.1,0.36,0.36,0,0,1,0-.5,0.36,0.36,0,0,1,.6.25,0.39,0.39,0,0,1-.1.25A0.39,0.39,0,0,1,36,56.35Z"/><path class="cls-2" d="M39.25,56.1A0.34,0.34,0,0,1,39,56a0.36,0.36,0,0,1-.11-0.25A0.4,0.4,0,0,1,39,55.5a0.37,0.37,0,0,1,.5,0,0.36,0.36,0,0,1,0,.5A0.39,0.39,0,0,1,39.25,56.1Z"/><path class="cls-2" d="M41.75,50.85a0.39,0.39,0,0,1-.25-0.1,0.36,0.36,0,0,1,0-.5,0.37,0.37,0,0,1,.5,0,0.36,0.36,0,0,1,0,.5A0.39,0.39,0,0,1,41.75,50.85Z"/><path class="cls-2" d="M43.5,44.85a0.36,0.36,0,0,1-.25-0.11,0.35,0.35,0,0,1-.1-0.24,0.4,0.4,0,0,1,.1-0.25,0.37,0.37,0,0,1,.5,0,0.36,0.36,0,0,1,0,.5A0.39,0.39,0,0,1,43.5,44.85Z"/><path class="cls-2" d="M51,50.6a0.39,0.39,0,0,1-.25-0.1,0.37,0.37,0,0,1-.1-0.25,0.4,0.4,0,0,1,.1-0.25,0.36,0.36,0,0,1,.5,0,0.36,0.36,0,0,1,0,.5A0.39,0.39,0,0,1,51,50.6Z"/><path class="cls-2" d="M52,46.6a0.36,0.36,0,0,1-.25-0.11,0.35,0.35,0,0,1-.1-0.24A0.33,0.33,0,0,1,51.76,46a0.36,0.36,0,0,1,.49,0,0.35,0.35,0,0,1,.1.25,0.39,0.39,0,0,1-.1.25A0.39,0.39,0,0,1,52,46.6Z"/><path class="cls-2" d="M55,47.1A0.33,0.33,0,0,1,54.75,47a0.35,0.35,0,0,1-.1-0.24,0.38,0.38,0,0,1,.1-0.25,0.36,0.36,0,0,1,.49,0,0.34,0.34,0,0,1,.11.25,0.39,0.39,0,0,1-.1.25A0.39,0.39,0,0,1,55,47.1Z"/><path class="cls-2" d="M55,54.35a0.33,0.33,0,0,1-.25-0.11,0.35,0.35,0,0,1-.1-0.24,0.33,0.33,0,0,1,.11-0.25,0.36,0.36,0,0,1,.49,0,0.35,0.35,0,0,1,.1.25,0.39,0.39,0,0,1-.1.25A0.39,0.39,0,0,1,55,54.35Z"/><path class="cls-2" d="M51.25,56.35a0.39,0.39,0,0,1-.25-0.1,0.36,0.36,0,0,1,0-.5,0.37,0.37,0,0,1,.5,0,0.35,0.35,0,0,1,.1.25,0.39,0.39,0,0,1-.1.25A0.37,0.37,0,0,1,51.25,56.35Z"/><path class="cls-2" d="M51,63.85a0.39,0.39,0,0,1-.25-0.1,0.4,0.4,0,0,1-.1-0.25,0.31,0.31,0,0,1,.1-0.24,0.34,0.34,0,0,1,.49,0,0.36,0.36,0,0,1,.11.25,0.39,0.39,0,0,1-.1.25A0.37,0.37,0,0,1,51,63.85Z"/><path class="cls-2" d="M53.25,63.85a0.39,0.39,0,0,1-.25-0.1,0.4,0.4,0,0,1-.1-0.25A0.33,0.33,0,0,1,53,63.25a0.36,0.36,0,0,1,.49,0,0.32,0.32,0,0,1,.1.24,0.39,0.39,0,0,1-.1.25A0.39,0.39,0,0,1,53.25,63.85Z"/><path class="cls-2" d="M56,63.1a0.39,0.39,0,0,1-.25-0.1,0.36,0.36,0,0,1,0-.5,0.36,0.36,0,0,1,.6.25,0.39,0.39,0,0,1-.1.25A0.39,0.39,0,0,1,56,63.1Z"/><path class="cls-2" d="M58.25,61.6A0.36,0.36,0,0,1,58,61.49a0.35,0.35,0,0,1-.1-0.24A0.4,0.4,0,0,1,58,61a0.37,0.37,0,0,1,.5,0,0.37,0.37,0,0,1,.1.25,0.39,0.39,0,0,1-.1.25A0.39,0.39,0,0,1,58.25,61.6Z"/><path class="cls-2" d="M21,27.1a0.39,0.39,0,0,1-.25-0.1,0.36,0.36,0,0,1,0-.5,0.36,0.36,0,0,1,.6.25,0.39,0.39,0,0,1-.1.25A0.39,0.39,0,0,1,21,27.1Z"/><path class="cls-2" d="M22.75,24.1A0.39,0.39,0,0,1,22.5,24a0.36,0.36,0,0,1,0-.5,0.37,0.37,0,0,1,.5,0,0.36,0.36,0,0,1,0,.5A0.39,0.39,0,0,1,22.75,24.1Z"/><path class="cls-2" d="M39,24.85a0.39,0.39,0,0,1-.25-0.1,0.36,0.36,0,0,1,0-.5,0.37,0.37,0,0,1,.5,0,0.36,0.36,0,0,1,0,.5A0.39,0.39,0,0,1,39,24.85Z"/><path class="cls-2" d="M46.25,29.1A0.39,0.39,0,0,1,46,29a0.35,0.35,0,0,1,0-.49,0.34,0.34,0,0,1,.49,0,0.36,0.36,0,0,1,.11.25,0.39,0.39,0,0,1-.1.25A0.39,0.39,0,0,1,46.25,29.1Z"/><path class="cls-2" d="M55.25,28.1A0.39,0.39,0,0,1,55,28a0.36,0.36,0,0,1,0-.5,0.37,0.37,0,0,1,.5,0,0.36,0.36,0,0,1,0,.5A0.39,0.39,0,0,1,55.25,28.1Z"/><path class="cls-2" d="M51.25,25.35a0.39,0.39,0,0,1-.25-0.1,0.36,0.36,0,0,1,0-.5,0.37,0.37,0,0,1,.5,0,0.35,0.35,0,0,1,.1.25,0.39,0.39,0,0,1-.1.25A0.39,0.39,0,0,1,51.25,25.35Z"/><path class="cls-2" d="M52,29.6a0.37,0.37,0,0,1-.25-0.1,0.36,0.36,0,0,1,0-.5,0.36,0.36,0,0,1,.6.25,0.39,0.39,0,0,1-.1.25A0.39,0.39,0,0,1,52,29.6Z"/><path class="cls-2" d="M62.5,35.6a0.39,0.39,0,0,1-.25-0.1,0.4,0.4,0,0,1-.1-0.25A0.33,0.33,0,0,1,62.26,35a0.36,0.36,0,0,1,.49,0,0.32,0.32,0,0,1,.1.24,0.39,0.39,0,0,1-.1.25A0.39,0.39,0,0,1,62.5,35.6Z"/><path class="cls-2" d="M56.75,39.1A0.39,0.39,0,0,1,56.5,39a0.36,0.36,0,0,1,0-.5,0.36,0.36,0,0,1,.6.25A0.39,0.39,0,0,1,57,39,0.39,0.39,0,0,1,56.75,39.1Z"/><path class="cls-2" d="M48.25,37.35a0.34,0.34,0,0,1-.24-0.1A0.36,0.36,0,0,1,47.9,37a0.4,0.4,0,0,1,.1-0.25,0.36,0.36,0,0,1,.5,0,0.33,0.33,0,0,1,.1.24,0.39,0.39,0,0,1-.1.25A0.39,0.39,0,0,1,48.25,37.35Z"/><path class="cls-2" d="M48,41.35a0.33,0.33,0,0,1-.25-0.11,0.35,0.35,0,0,1-.1-0.24,0.4,0.4,0,0,1,.1-0.25,0.38,0.38,0,0,1,.5,0,0.36,0.36,0,0,1,0,.5A0.39,0.39,0,0,1,48,41.35Z"/><path class="cls-2" d="M53.5,45.1A0.34,0.34,0,0,1,53.25,45a0.32,0.32,0,0,1-.1-0.24,0.34,0.34,0,0,1,.11-0.25,0.36,0.36,0,0,1,.49,0,0.36,0.36,0,0,1,0,.5A0.39,0.39,0,0,1,53.5,45.1Z"/><path class="cls-2" d="M62.25,48.1A0.39,0.39,0,0,1,62,48a0.4,0.4,0,0,1-.1-0.25A0.33,0.33,0,0,1,62,47.5a0.36,0.36,0,0,1,.49,0,0.32,0.32,0,0,1,.1.24,0.39,0.39,0,0,1-.1.25A0.39,0.39,0,0,1,62.25,48.1Z"/><path class="cls-2" d="M65,51.85a0.39,0.39,0,0,1-.25-0.1,0.4,0.4,0,0,1-.1-0.25,0.33,0.33,0,0,1,.11-0.25,0.36,0.36,0,0,1,.49,0,0.35,0.35,0,0,1,.1.25,0.39,0.39,0,0,1-.1.25A0.39,0.39,0,0,1,65,51.85Z"/><path class="cls-2" d="M69.5,45.1a0.39,0.39,0,0,1-.25-0.1,0.36,0.36,0,0,1,0-.5,0.37,0.37,0,0,1,.5,0,0.36,0.36,0,0,1,0,.5A0.39,0.39,0,0,1,69.5,45.1Z"/><path class="cls-2" d="M60,39.1A0.33,0.33,0,0,1,59.75,39a0.35,0.35,0,0,1-.1-0.24,0.34,0.34,0,0,1,.11-0.25,0.35,0.35,0,0,1,.49,0,0.36,0.36,0,0,1,0,.5A0.37,0.37,0,0,1,60,39.1Z"/><path class="cls-2" d="M32.5,47.1a0.39,0.39,0,0,1-.25-0.1,0.36,0.36,0,0,1,0-.5,0.36,0.36,0,0,1,.6.25,0.39,0.39,0,0,1-.1.25A0.39,0.39,0,0,1,32.5,47.1Z"/><path class="cls-2" d="M26.25,37.85a0.39,0.39,0,0,1-.25-0.1,0.36,0.36,0,0,1,0-.5,0.36,0.36,0,0,1,.6.25,0.39,0.39,0,0,1-.1.25A0.39,0.39,0,0,1,26.25,37.85Z"/><path class="cls-2" d="M29.75,35.6a0.34,0.34,0,0,1-.24-0.1,0.36,0.36,0,0,1-.11-0.25A0.33,0.33,0,0,1,29.51,35,0.36,0.36,0,0,1,30,35a0.35,0.35,0,0,1,.1.25,0.39,0.39,0,0,1-.1.25A0.39,0.39,0,0,1,29.75,35.6Z"/><path class="cls-2" d="M10.5,29.6a0.39,0.39,0,0,1-.25-0.1,0.36,0.36,0,0,1,0-.5,0.37,0.37,0,0,1,.49,0,0.33,0.33,0,0,1,.11.25,0.39,0.39,0,0,1-.1.25A0.39,0.39,0,0,1,10.5,29.6Z"/><path class="cls-2" d="M6,31.6a0.39,0.39,0,0,1-.25-0.1,0.36,0.36,0,0,1,0-.5,0.36,0.36,0,0,1,.49,0,0.33,0.33,0,0,1,.11.25,0.37,0.37,0,0,1-.1.25A0.39,0.39,0,0,1,6,31.6Z"/><path class="cls-2" d="M2.5,35.35a0.39,0.39,0,0,1-.25-0.1,0.36,0.36,0,0,1,0-.5,0.37,0.37,0,0,1,.5,0,0.35,0.35,0,0,1,.1.25,0.33,0.33,0,0,1-.1.24A0.35,0.35,0,0,1,2.5,35.35Z"/><path class="cls-2" d="M17,42.1a0.39,0.39,0,0,1-.25-0.1,0.4,0.4,0,0,1-.1-0.25,0.33,0.33,0,0,1,.11-0.25,0.35,0.35,0,0,1,.59.25,0.39,0.39,0,0,1-.1.25A0.37,0.37,0,0,1,17,42.1Z"/><path class="cls-2" d="M12.75,36.1A0.39,0.39,0,0,1,12.5,36a0.4,0.4,0,0,1-.1-0.25,0.33,0.33,0,0,1,.11-0.25,0.36,0.36,0,0,1,.49,0,0.35,0.35,0,0,1,.1.25A0.39,0.39,0,0,1,13,36,0.37,0.37,0,0,1,12.75,36.1Z"/><path class="cls-2" d="M26.5,30.35a0.39,0.39,0,0,1-.25-0.1,0.36,0.36,0,0,1,0-.5,0.37,0.37,0,0,1,.5,0,0.36,0.36,0,0,1,0,.5A0.39,0.39,0,0,1,26.5,30.35Z"/><path class="cls-2" d="M39.25,30.85a0.39,0.39,0,0,1-.25-0.1,0.36,0.36,0,0,1,0-.5,0.37,0.37,0,0,1,.5,0,0.36,0.36,0,0,1,0,.5A0.37,0.37,0,0,1,39.25,30.85Z"/><path class="cls-2" d="M38.25,32.85a0.39,0.39,0,0,1-.25-0.1,0.36,0.36,0,0,1,0-.5,0.37,0.37,0,0,1,.5,0,0.36,0.36,0,0,1,0,.5A0.39,0.39,0,0,1,38.25,32.85Z"/><path class="cls-2" d="M28,42.1a0.39,0.39,0,0,1-.25-0.1,0.36,0.36,0,0,1,0-.5,0.37,0.37,0,0,1,.5,0,0.36,0.36,0,0,1,0,.5A0.39,0.39,0,0,1,28,42.1Z"/><path class="cls-2" d="M6.5,20.6a0.39,0.39,0,0,1-.25-0.1,0.36,0.36,0,0,1,0-.5,0.37,0.37,0,0,1,.5,0,0.36,0.36,0,0,1,0,.5A0.39,0.39,0,0,1,6.5,20.6Z"/><path class="cls-2" d="M9.75,18.85a0.39,0.39,0,0,1-.25-0.1,0.36,0.36,0,0,1,0-.5,0.36,0.36,0,0,1,.6.25,0.39,0.39,0,0,1-.1.25A0.39,0.39,0,0,1,9.75,18.85Z"/><path class="cls-2" d="M11.75,23.6a0.39,0.39,0,0,1-.25-0.1,0.4,0.4,0,0,1-.1-0.25A0.33,0.33,0,0,1,11.51,23,0.36,0.36,0,0,1,12,23a0.35,0.35,0,0,1,.1.25,0.39,0.39,0,0,1-.1.25A0.37,0.37,0,0,1,11.75,23.6Z"/><path class="cls-2" d="M3,25.85a0.39,0.39,0,0,1-.25-0.1,0.36,0.36,0,0,1,0-.5,0.38,0.38,0,0,1,.5,0,0.36,0.36,0,0,1,0,.5A0.39,0.39,0,0,1,3,25.85Z"/><path class="cls-2" d="M64.25,29.6A0.34,0.34,0,0,1,64,29.5a0.36,0.36,0,0,1-.11-0.25A0.4,0.4,0,0,1,64,29a0.36,0.36,0,0,1,.6.25,0.39,0.39,0,0,1-.1.25A0.39,0.39,0,0,1,64.25,29.6Z"/><path class="cls-2" d="M69.5,29.85a0.39,0.39,0,0,1-.25-0.1,0.4,0.4,0,0,1-.1-0.25,0.34,0.34,0,0,1,.11-0.25,0.36,0.36,0,0,1,.49,0,0.35,0.35,0,0,1,.1.25,0.39,0.39,0,0,1-.1.25A0.37,0.37,0,0,1,69.5,29.85Z"/><path class="cls-2" d="M1.5,9.1A0.39,0.39,0,0,1,1.25,9a0.36,0.36,0,0,1,0-.5,0.38,0.38,0,0,1,.5,0,0.36,0.36,0,0,1,0,.5A0.39,0.39,0,0,1,1.5,9.1Z"/><path class="cls-2" d="M16.5,6.1A0.39,0.39,0,0,1,16.25,6a0.4,0.4,0,0,1-.1-0.25,0.35,0.35,0,0,1,.6-0.25,0.36,0.36,0,0,1,0,.5A0.39,0.39,0,0,1,16.5,6.1Z"/><path class="cls-2" d="M3.75,6.1A0.39,0.39,0,0,1,3.5,6a0.36,0.36,0,0,1,0-.5,0.36,0.36,0,0,1,.6.25A0.39,0.39,0,0,1,4,6,0.39,0.39,0,0,1,3.75,6.1Z"/><path class="cls-2" d="M12.75,14.35a0.39,0.39,0,0,1-.25-0.1,0.36,0.36,0,0,1,0-.5,0.36,0.36,0,0,1,.6.25,0.39,0.39,0,0,1-.1.25A0.39,0.39,0,0,1,12.75,14.35Z"/><path class="cls-2" d="M18.5,19.35a0.39,0.39,0,0,1-.25-0.1,0.4,0.4,0,0,1-.1-0.25,0.38,0.38,0,0,1,.1-0.25,0.36,0.36,0,0,1,.6.25,0.39,0.39,0,0,1-.1.25A0.39,0.39,0,0,1,18.5,19.35Z"/><path class="cls-2" d="M21.25,37.1A0.39,0.39,0,0,1,21,37a0.4,0.4,0,0,1-.1-0.25A0.38,0.38,0,0,1,21,36.5a0.37,0.37,0,0,1,.49,0,0.36,0.36,0,0,1,.11.25,0.39,0.39,0,0,1-.1.25A0.39,0.39,0,0,1,21.25,37.1Z"/><path class="cls-2" d="M0.75,44.35a0.39,0.39,0,0,1-.25-0.1A0.4,0.4,0,0,1,.4,44a0.33,0.33,0,0,1,.11-0.25,0.36,0.36,0,0,1,.49,0,0.35,0.35,0,0,1,.1.25,0.39,0.39,0,0,1-.1.25A0.39,0.39,0,0,1,.75,44.35Z"/><path class="cls-2" d="M68,66.1a0.39,0.39,0,0,1-.25-0.1,0.4,0.4,0,0,1-.1-0.25,0.33,0.33,0,0,1,.11-0.25,0.36,0.36,0,0,1,.49,0,0.35,0.35,0,0,1,.1.25,0.39,0.39,0,0,1-.1.25A0.39,0.39,0,0,1,68,66.1Z"/><path class="cls-2" d="M59.75,69.85a0.39,0.39,0,0,1-.25-0.1,0.35,0.35,0,0,1-.1-0.25,0.4,0.4,0,0,1,.1-0.25,0.37,0.37,0,0,1,.5,0,0.35,0.35,0,0,1,.1.25,0.37,0.37,0,0,1-.1.25A0.39,0.39,0,0,1,59.75,69.85Z"/><path class="cls-2" d="M40.5,68.1a0.39,0.39,0,0,1-.25-0.1,0.36,0.36,0,0,1,0-.5,0.37,0.37,0,0,1,.5,0,0.36,0.36,0,0,1,0,.5A0.37,0.37,0,0,1,40.5,68.1Z"/><path class="cls-2" d="M4.5,60.1A0.39,0.39,0,0,1,4.25,60a0.36,0.36,0,0,1,0-.5,0.36,0.36,0,0,1,.6.25,0.39,0.39,0,0,1-.1.25A0.39,0.39,0,0,1,4.5,60.1Z"/><path class="cls-2" d="M26.5,59.6a0.39,0.39,0,0,1-.25-0.1,0.36,0.36,0,0,1,0-.5,0.36,0.36,0,0,1,.6.25,0.39,0.39,0,0,1-.1.25A0.39,0.39,0,0,1,26.5,59.6Z"/><path class="cls-2" d="M37.25,48.6A0.39,0.39,0,0,1,37,48.5a0.4,0.4,0,0,1-.1-0.25A0.38,0.38,0,0,1,37,48a0.37,0.37,0,0,1,.5,0,0.36,0.36,0,0,1,0,.5A0.37,0.37,0,0,1,37.25,48.6Z"/><path class="cls-2" d="M8.75,40.35a0.39,0.39,0,0,1-.25-0.1,0.36,0.36,0,0,1,0-.5,0.36,0.36,0,0,1,.6.25,0.39,0.39,0,0,1-.1.25A0.39,0.39,0,0,1,8.75,40.35Z"/><path class="cls-2" d="M52.25,38.1A0.36,0.36,0,0,1,52,38a0.35,0.35,0,0,1-.1-0.24A0.33,0.33,0,0,1,52,37.5a0.36,0.36,0,0,1,.49,0,0.35,0.35,0,0,1,.1.25,0.39,0.39,0,0,1-.1.25A0.39,0.39,0,0,1,52.25,38.1Z"/><path class="cls-2" d="M60.75,46.1A0.39,0.39,0,0,1,60.5,46a0.4,0.4,0,0,1-.1-0.25,0.33,0.33,0,0,1,.11-0.25,0.36,0.36,0,0,1,.49,0,0.35,0.35,0,0,1,.1.25A0.39,0.39,0,0,1,61,46,0.39,0.39,0,0,1,60.75,46.1Z"/><path class="cls-2" d="M51.25,66.35a0.39,0.39,0,0,1-.25-0.1,0.36,0.36,0,0,1,0-.5,0.37,0.37,0,0,1,.5,0,0.39,0.39,0,0,1,.1.25,0.35,0.35,0,0,1-.1.25A0.39,0.39,0,0,1,51.25,66.35Z"/><path class="cls-2" d="M40,37.85a0.39,0.39,0,0,1-.25-0.1,0.36,0.36,0,0,1,0-.5,0.36,0.36,0,0,1,.6.25,0.39,0.39,0,0,1-.1.25A0.39,0.39,0,0,1,40,37.85Z"/><path class="cls-2" d="M27.5,13.6a0.39,0.39,0,0,1-.25-0.1,0.36,0.36,0,0,1,0-.5,0.36,0.36,0,0,1,.6.25,0.39,0.39,0,0,1-.1.25A0.39,0.39,0,0,1,27.5,13.6Z"/><path class="cls-2" d="M19.75,26.6a0.39,0.39,0,0,1-.25-0.1,0.4,0.4,0,0,1-.1-0.25A0.38,0.38,0,0,1,19.5,26,0.37,0.37,0,0,1,20,26a0.36,0.36,0,0,1,.11.25,0.39,0.39,0,0,1-.1.25A0.39,0.39,0,0,1,19.75,26.6Z"/><path class="cls-2" d="M11.75,1.85a0.39,0.39,0,0,1-.25-0.1,0.4,0.4,0,0,1-.1-0.25,0.4,0.4,0,0,1,.1-0.25,0.38,0.38,0,0,1,.5,0,0.39,0.39,0,0,1,.1.25,0.39,0.39,0,0,1-.1.25A0.39,0.39,0,0,1,11.75,1.85Z"/><path class="cls-2" d="M55.25,3.85A0.39,0.39,0,0,1,55,3.75a0.4,0.4,0,0,1-.1-0.25A0.33,0.33,0,0,1,55,3.25a0.36,0.36,0,0,1,.49,0,0.35,0.35,0,0,1,.1.25,0.39,0.39,0,0,1-.1.25A0.39,0.39,0,0,1,55.25,3.85Z"/><path class="cls-2" d="M47.25,69.85a0.39,0.39,0,0,1-.25-0.1,0.38,0.38,0,0,1-.1-0.25,0.4,0.4,0,0,1,.1-0.25,0.36,0.36,0,0,1,.6.25,0.39,0.39,0,0,1-.1.25A0.39,0.39,0,0,1,47.25,69.85Z"/><path class="cls-2" d="M4.75,40.35a0.39,0.39,0,0,1-.25-0.1A0.4,0.4,0,0,1,4.4,40a0.33,0.33,0,0,1,.11-0.25,0.36,0.36,0,0,1,.49,0,0.35,0.35,0,0,1,.1.25,0.39,0.39,0,0,1-.1.25A0.39,0.39,0,0,1,4.75,40.35Z"/><path class="cls-2" d="M68.75,13.35a0.39,0.39,0,0,1-.25-0.1,0.36,0.36,0,0,1,0-.5,0.37,0.37,0,0,1,.5,0,0.36,0.36,0,0,1,0,.5A0.39,0.39,0,0,1,68.75,13.35Z"/><path class="cls-2" d="M23.25,14.1A0.39,0.39,0,0,1,23,14a0.36,0.36,0,0,1,0-.5,0.36,0.36,0,0,1,.6.25,0.39,0.39,0,0,1-.1.25A0.39,0.39,0,0,1,23.25,14.1Z"/><path class="cls-2" d="M20.5,17.35a0.39,0.39,0,0,1-.25-0.1,0.36,0.36,0,0,1,0-.5,0.37,0.37,0,0,1,.5,0,0.36,0.36,0,0,1,0,.5A0.39,0.39,0,0,1,20.5,17.35Z"/><path class="cls-2" d="M14.75,17.35a0.39,0.39,0,0,1-.25-0.1A0.4,0.4,0,0,1,14.4,17a0.33,0.33,0,0,1,.11-0.25,0.36,0.36,0,0,1,.49,0,0.35,0.35,0,0,1,.1.25,0.39,0.39,0,0,1-.1.25A0.39,0.39,0,0,1,14.75,17.35Z"/><path class="cls-2" d="M6,11.85a0.39,0.39,0,0,1-.25-0.1,0.36,0.36,0,0,1,0-.5,0.36,0.36,0,0,1,.49,0,0.33,0.33,0,0,1,.11.25,0.39,0.39,0,0,1-.1.25A0.39,0.39,0,0,1,6,11.85Z"/><path class="cls-2" d="M7,2.85a0.36,0.36,0,0,1-.24-0.1A0.36,0.36,0,0,1,6.65,2.5a0.4,0.4,0,0,1,.1-0.25,0.36,0.36,0,0,1,.6.25,0.39,0.39,0,0,1-.1.25A0.39,0.39,0,0,1,7,2.85Z"/><path class="cls-2" d="M10,8.35a0.39,0.39,0,0,1-.25-0.1,0.36,0.36,0,0,1,0-.5,0.36,0.36,0,0,1,.6.25,0.39,0.39,0,0,1-.1.25A0.39,0.39,0,0,1,10,8.35Z"/><path class="cls-2" d="M14.25,8.35A0.39,0.39,0,0,1,14,8.25,0.4,0.4,0,0,1,13.9,8,0.33,0.33,0,0,1,14,7.75a0.36,0.36,0,0,1,.49,0,0.35,0.35,0,0,1,.1.25,0.39,0.39,0,0,1-.1.25A0.39,0.39,0,0,1,14.25,8.35Z"/><path class="cls-2" d="M25.75,7.1A0.39,0.39,0,0,1,25.5,7a0.36,0.36,0,0,1,0-.5,0.36,0.36,0,0,1,.6.25A0.39,0.39,0,0,1,26,7,0.39,0.39,0,0,1,25.75,7.1Z"/><path class="cls-2" d="M37,7.6a0.39,0.39,0,0,1-.25-0.1,0.36,0.36,0,0,1,0-.5,0.37,0.37,0,0,1,.5,0,0.36,0.36,0,0,1,0,.5A0.39,0.39,0,0,1,37,7.6Z"/><path class="cls-2" d="M37.5,4.35a0.39,0.39,0,0,1-.25-0.1A0.4,0.4,0,0,1,37.15,4a0.33,0.33,0,0,1,.11-0.25,0.35,0.35,0,0,1,.59.25,0.39,0.39,0,0,1-.1.25A0.39,0.39,0,0,1,37.5,4.35Z"/><path class="cls-2" d="M43.25,2.35A0.39,0.39,0,0,1,43,2.25,0.4,0.4,0,0,1,42.9,2,0.4,0.4,0,0,1,43,1.75a0.37,0.37,0,0,1,.5,0,0.39,0.39,0,0,1,.1.25,0.39,0.39,0,0,1-.1.25A0.41,0.41,0,0,1,43.25,2.35Z"/><path class="cls-2" d="M49.5,8.35a0.39,0.39,0,0,1-.25-0.1,0.36,0.36,0,0,1,0-.5,0.37,0.37,0,0,1,.5,0,0.36,0.36,0,0,1,0,.5A0.39,0.39,0,0,1,49.5,8.35Z"/><path class="cls-2" d="M46,9.35a0.39,0.39,0,0,1-.25-0.1,0.36,0.36,0,0,1,0-.5,0.37,0.37,0,0,1,.5,0,0.36,0.36,0,0,1,0,.5A0.37,0.37,0,0,1,46,9.35Z"/><path class="cls-2" d="M35.75,11.1A0.39,0.39,0,0,1,35.5,11a0.4,0.4,0,0,1-.1-0.25,0.38,0.38,0,0,1,.1-0.25,0.36,0.36,0,0,1,.6.25A0.39,0.39,0,0,1,36,11,0.39,0.39,0,0,1,35.75,11.1Z"/><path class="cls-2" d="M39.25,15.1A0.39,0.39,0,0,1,39,15a0.36,0.36,0,0,1,0-.5,0.36,0.36,0,0,1,.6.25,0.39,0.39,0,0,1-.1.25A0.39,0.39,0,0,1,39.25,15.1Z"/><path class="cls-2" d="M24.75,18.1A0.39,0.39,0,0,1,24.5,18a0.36,0.36,0,0,1,0-.5,0.36,0.36,0,0,1,.6.25A0.39,0.39,0,0,1,25,18,0.39,0.39,0,0,1,24.75,18.1Z"/><path class="cls-2" d="M8.25,27.35A0.39,0.39,0,0,1,8,27.25a0.36,0.36,0,0,1,0-.5,0.36,0.36,0,0,1,.6.25,0.39,0.39,0,0,1-.1.25A0.39,0.39,0,0,1,8.25,27.35Z"/><path class="cls-2" d="M16,31.85a0.39,0.39,0,0,1-.25-0.1,0.36,0.36,0,0,1,0-.5,0.38,0.38,0,0,1,.5,0,0.36,0.36,0,0,1,0,.5A0.39,0.39,0,0,1,16,31.85Z"/><path class="cls-2" d="M10.5,33.6a0.39,0.39,0,0,1-.25-0.1,0.4,0.4,0,0,1-.1-0.25A0.33,0.33,0,0,1,10.26,33a0.36,0.36,0,0,1,.49,0,0.35,0.35,0,0,1,.1.25,0.37,0.37,0,0,1-.1.25A0.39,0.39,0,0,1,10.5,33.6Z"/><path class="cls-2" d="M5.25,37.1A0.39,0.39,0,0,1,5,37a0.36,0.36,0,0,1,0-.5,0.38,0.38,0,0,1,.5,0,0.37,0.37,0,0,1,.1.25,0.39,0.39,0,0,1-.1.25A0.39,0.39,0,0,1,5.25,37.1Z"/><path class="cls-2" d="M3.25,20.6A0.39,0.39,0,0,1,3,20.5,0.36,0.36,0,0,1,3,20a0.38,0.38,0,0,1,.5,0,0.36,0.36,0,0,1,0,.5A0.39,0.39,0,0,1,3.25,20.6Z"/><path class="cls-2" d="M20.5,30.85a0.39,0.39,0,0,1-.25-0.1,0.4,0.4,0,0,1-.1-0.25,0.33,0.33,0,0,1,.11-0.25,0.35,0.35,0,0,1,.59.25,0.39,0.39,0,0,1-.1.25A0.39,0.39,0,0,1,20.5,30.85Z"/><path class="cls-2" d="M17.5,35.6a0.39,0.39,0,0,1-.25-0.1,0.36,0.36,0,0,1,0-.5,0.37,0.37,0,0,1,.5,0,0.36,0.36,0,0,1,0,.5A0.39,0.39,0,0,1,17.5,35.6Z"/><path class="cls-2" d="M16,39.1a0.39,0.39,0,0,1-.25-0.1,0.4,0.4,0,0,1-.1-0.25,0.33,0.33,0,0,1,.11-0.25,0.36,0.36,0,0,1,.49,0,0.35,0.35,0,0,1,.1.25,0.39,0.39,0,0,1-.1.25A0.37,0.37,0,0,1,16,39.1Z"/><path class="cls-2" d="M12.75,41.35a0.39,0.39,0,0,1-.25-0.1A0.4,0.4,0,0,1,12.4,41a0.33,0.33,0,0,1,.11-0.25,0.36,0.36,0,0,1,.49,0,0.35,0.35,0,0,1,.1.25,0.39,0.39,0,0,1-.1.25A0.39,0.39,0,0,1,12.75,41.35Z"/><path class="cls-2" d="M12.75,46.6a0.39,0.39,0,0,1-.25-0.1,0.4,0.4,0,0,1-.1-0.25A0.33,0.33,0,0,1,12.51,46,0.36,0.36,0,0,1,13,46a0.35,0.35,0,0,1,.1.25,0.39,0.39,0,0,1-.1.25A0.39,0.39,0,0,1,12.75,46.6Z"/><path class="cls-2" d="M5.75,48.6a0.39,0.39,0,0,1-.25-0.1,0.36,0.36,0,0,1,0-.5A0.38,0.38,0,0,1,6,48a0.36,0.36,0,0,1,0,.5A0.39,0.39,0,0,1,5.75,48.6Z"/><path class="cls-2" d="M11,54.6a0.39,0.39,0,0,1-.25-0.1,0.36,0.36,0,0,1,0-.5,0.38,0.38,0,0,1,.5,0,0.36,0.36,0,0,1,0,.5A0.39,0.39,0,0,1,11,54.6Z"/><path class="cls-2" d="M15.5,58.6a0.39,0.39,0,0,1-.25-0.1,0.36,0.36,0,0,1,0-.5,0.37,0.37,0,0,1,.5,0,0.36,0.36,0,0,1,0,.5A0.39,0.39,0,0,1,15.5,58.6Z"/><path class="cls-2" d="M6,63.6a0.39,0.39,0,0,1-.25-0.1,0.36,0.36,0,0,1,0-.5,0.38,0.38,0,0,1,.5,0,0.35,0.35,0,0,1,.1.25,0.39,0.39,0,0,1-.1.25A0.39,0.39,0,0,1,6,63.6Z"/><path class="cls-2" d="M2.25,62.1A0.39,0.39,0,0,1,2,62a0.36,0.36,0,0,1,0-.5,0.37,0.37,0,0,1,.49,0,0.34,0.34,0,0,1,.11.25,0.39,0.39,0,0,1-.1.25A0.39,0.39,0,0,1,2.25,62.1Z"/><path class="cls-2" d="M9,68.1A0.39,0.39,0,0,1,8.75,68a0.36,0.36,0,0,1,0-.5,0.36,0.36,0,0,1,.6.25,0.39,0.39,0,0,1-.1.25A0.37,0.37,0,0,1,9,68.1Z"/><path class="cls-2" d="M13.5,69.6a0.39,0.39,0,0,1-.25-0.1,0.36,0.36,0,0,1,0-.5,0.38,0.38,0,0,1,.5,0,0.36,0.36,0,0,1,0,.5A0.39,0.39,0,0,1,13.5,69.6Z"/><path class="cls-2" d="M21.5,68.6a0.39,0.39,0,0,1-.25-0.1,0.4,0.4,0,0,1-.1-0.25A0.33,0.33,0,0,1,21.26,68a0.35,0.35,0,0,1,.59.25,0.39,0.39,0,0,1-.1.25A0.39,0.39,0,0,1,21.5,68.6Z"/><path class="cls-2" d="M23,65.85a0.39,0.39,0,0,1-.25-0.1,0.36,0.36,0,0,1,0-.5,0.37,0.37,0,0,1,.5,0,0.36,0.36,0,0,1,0,.5A0.37,0.37,0,0,1,23,65.85Z"/><path class="cls-2" d="M22.25,60.1A0.39,0.39,0,0,1,22,60a0.36,0.36,0,0,1,0-.5,0.38,0.38,0,0,1,.5,0,0.36,0.36,0,0,1,0,.5A0.37,0.37,0,0,1,22.25,60.1Z"/><path class="cls-2" d="M24.25,57.6A0.39,0.39,0,0,1,24,57.5a0.4,0.4,0,0,1-.1-0.25A0.35,0.35,0,0,1,24.5,57a0.37,0.37,0,0,1,.1.25,0.39,0.39,0,0,1-.1.25A0.37,0.37,0,0,1,24.25,57.6Z"/><path class="cls-2" d="M26.25,47.85a0.39,0.39,0,0,1-.25-0.1,0.36,0.36,0,0,1,0-.5,0.37,0.37,0,0,1,.5,0,0.36,0.36,0,0,1,0,.5A0.39,0.39,0,0,1,26.25,47.85Z"/><path class="cls-2" d="M25.75,43.6a0.39,0.39,0,0,1-.25-0.1,0.36,0.36,0,0,1,0-.5,0.37,0.37,0,0,1,.5,0,0.36,0.36,0,0,1,0,.5A0.39,0.39,0,0,1,25.75,43.6Z"/><path class="cls-2" d="M32.25,31.1A0.39,0.39,0,0,1,32,31a0.4,0.4,0,0,1-.1-0.25A0.33,0.33,0,0,1,32,30.5a0.35,0.35,0,0,1,.59.25,0.39,0.39,0,0,1-.1.25A0.39,0.39,0,0,1,32.25,31.1Z"/><path class="cls-2" d="M34.25,27.85a0.39,0.39,0,0,1-.25-0.1,0.4,0.4,0,0,1-.1-0.25,0.35,0.35,0,0,1,.1-0.25,0.37,0.37,0,0,1,.5,0,0.36,0.36,0,0,1,0,.5A0.37,0.37,0,0,1,34.25,27.85Z"/><path class="cls-2" d="M41.75,25.85a0.39,0.39,0,0,1-.25-0.1,0.36,0.36,0,0,1,0-.5,0.37,0.37,0,0,1,.5,0,0.36,0.36,0,0,1,0,.5A0.39,0.39,0,0,1,41.75,25.85Z"/><path class="cls-2" d="M43,20.85a0.36,0.36,0,0,1-.25-0.11,0.33,0.33,0,0,1-.1-0.24,0.4,0.4,0,0,1,.1-0.25,0.37,0.37,0,0,1,.5,0,0.39,0.39,0,0,1,.1.25,0.34,0.34,0,0,1-.11.25A0.34,0.34,0,0,1,43,20.85Z"/><path class="cls-2" d="M36.5,19.35a0.39,0.39,0,0,1-.25-0.1,0.37,0.37,0,0,1-.1-0.25,0.31,0.31,0,0,1,.1-0.24,0.35,0.35,0,0,1,.5,0,0.36,0.36,0,0,1,0,.5A0.39,0.39,0,0,1,36.5,19.35Z"/><path class="cls-2" d="M27.75,22.35a0.39,0.39,0,0,1-.25-0.1,0.36,0.36,0,0,1,0-.5,0.37,0.37,0,0,1,.5,0,0.36,0.36,0,0,1,0,.5A0.39,0.39,0,0,1,27.75,22.35Z"/><path class="cls-2" d="M52,22.1A0.33,0.33,0,0,1,51.75,22a0.35,0.35,0,0,1-.1-0.24,0.4,0.4,0,0,1,.1-0.25,0.36,0.36,0,0,1,.6.25,0.39,0.39,0,0,1-.1.25A0.37,0.37,0,0,1,52,22.1Z"/><path class="cls-2" d="M43.25,17.85a0.37,0.37,0,0,1-.25-0.1,0.36,0.36,0,0,1,0-.5,0.38,0.38,0,0,1,.5,0,0.36,0.36,0,0,1,0,.5A0.39,0.39,0,0,1,43.25,17.85Z"/><path class="cls-2" d="M50.5,18.1a0.37,0.37,0,0,1-.25-0.1,0.36,0.36,0,0,1,0-.5,0.36,0.36,0,0,1,.6.25,0.39,0.39,0,0,1-.1.25A0.39,0.39,0,0,1,50.5,18.1Z"/><path class="cls-2" d="M59.5,17.35a0.39,0.39,0,0,1-.25-0.1,0.4,0.4,0,0,1-.1-0.25,0.33,0.33,0,0,1,.11-0.25,0.36,0.36,0,0,1,.49,0,0.35,0.35,0,0,1,.1.25,0.39,0.39,0,0,1-.1.25A0.39,0.39,0,0,1,59.5,17.35Z"/><path class="cls-2" d="M58.25,14.1A0.37,0.37,0,0,1,58,14a0.36,0.36,0,0,1,0-.5,0.36,0.36,0,0,1,.6.25,0.39,0.39,0,0,1-.1.25A0.39,0.39,0,0,1,58.25,14.1Z"/><path class="cls-2" d="M61.5,11.1a0.39,0.39,0,0,1-.25-0.1,0.4,0.4,0,0,1-.1-0.25,0.33,0.33,0,0,1,.11-0.25,0.36,0.36,0,0,1,.49,0,0.32,0.32,0,0,1,.1.24,0.39,0.39,0,0,1-.1.25A0.39,0.39,0,0,1,61.5,11.1Z"/><path class="cls-2" d="M58.75,7.6a0.39,0.39,0,0,1-.25-0.1,0.35,0.35,0,0,1-.1-0.25A0.31,0.31,0,0,1,58.5,7a0.35,0.35,0,0,1,.6.24,0.39,0.39,0,0,1-.1.25A0.39,0.39,0,0,1,58.75,7.6Z"/><path class="cls-2" d="M60,4.85a0.34,0.34,0,0,1-.25-0.11,0.35,0.35,0,0,1-.1-0.24,0.33,0.33,0,0,1,.11-0.25,0.36,0.36,0,0,1,.49,0,0.35,0.35,0,0,1,.1.25,0.39,0.39,0,0,1-.1.25A0.39,0.39,0,0,1,60,4.85Z"/><path class="cls-2" d="M67.5,6.1A0.39,0.39,0,0,1,67.25,6a0.36,0.36,0,0,1-.1-0.25,0.35,0.35,0,0,1,.6-0.25,0.36,0.36,0,0,1,0,.5A0.39,0.39,0,0,1,67.5,6.1Z"/><path class="cls-2" d="M70.75,8.6a0.39,0.39,0,0,1-.25-0.1,0.36,0.36,0,0,1-.1-0.25A0.38,0.38,0,0,1,70.5,8,0.37,0.37,0,0,1,71,8a0.36,0.36,0,0,1,.11.25,0.39,0.39,0,0,1-.1.25A0.39,0.39,0,0,1,70.75,8.6Z"/><path class="cls-2" d="M65.75,9.85a0.39,0.39,0,0,1-.25-0.1,0.4,0.4,0,0,1-.1-0.25A0.35,0.35,0,0,1,66,9.25a0.36,0.36,0,0,1,0,.5A0.39,0.39,0,0,1,65.75,9.85Z"/><path class="cls-2" d="M60.25,23.85a0.39,0.39,0,0,1-.25-0.1,0.36,0.36,0,0,1,0-.5,0.37,0.37,0,0,1,.5,0,0.36,0.36,0,0,1,0,.5A0.39,0.39,0,0,1,60.25,23.85Z"/><path class="cls-2" d="M55.5,23.85a0.39,0.39,0,0,1-.25-0.1,0.36,0.36,0,0,1,0-.5,0.38,0.38,0,0,1,.5,0,0.36,0.36,0,0,1,0,.5A0.39,0.39,0,0,1,55.5,23.85Z"/><path class="cls-2" d="M55.5,18.85a0.34,0.34,0,0,1-.25-0.11,0.35,0.35,0,0,1-.1-0.24,0.33,0.33,0,0,1,.11-0.25,0.36,0.36,0,0,1,.49,0,0.35,0.35,0,0,1,.1.25,0.39,0.39,0,0,1-.1.25A0.39,0.39,0,0,1,55.5,18.85Z"/><path class="cls-2" d="M65,25.85a0.39,0.39,0,0,1-.25-0.1,0.4,0.4,0,0,1-.1-0.25,0.33,0.33,0,0,1,.11-0.25,0.36,0.36,0,0,1,.49,0,0.35,0.35,0,0,1,.1.25,0.39,0.39,0,0,1-.1.25A0.39,0.39,0,0,1,65,25.85Z"/><path class="cls-2" d="M57.75,30.85a0.33,0.33,0,0,1-.25-0.11,0.35,0.35,0,0,1-.1-0.24,0.33,0.33,0,0,1,.11-0.25,0.36,0.36,0,0,1,.49,0,0.35,0.35,0,0,1,.1.25,0.39,0.39,0,0,1-.1.25A0.39,0.39,0,0,1,57.75,30.85Z"/><path class="cls-2" d="M52.75,32.85a0.36,0.36,0,0,1-.25-0.11,0.35,0.35,0,0,1-.1-0.24,0.33,0.33,0,0,1,.11-0.25,0.36,0.36,0,0,1,.49,0,0.35,0.35,0,0,1,.1.25,0.39,0.39,0,0,1-.1.25A0.39,0.39,0,0,1,52.75,32.85Z"/><path class="cls-2" d="M47.5,33.85a0.36,0.36,0,0,1-.25-0.11,0.35,0.35,0,0,1-.1-0.24,0.33,0.33,0,0,1,.11-0.25,0.36,0.36,0,0,1,.49,0,0.35,0.35,0,0,1,.1.25,0.39,0.39,0,0,1-.1.25A0.39,0.39,0,0,1,47.5,33.85Z"/><path class="cls-2" d="M44.25,39.35A0.36,0.36,0,0,1,44,39.24,0.35,0.35,0,0,1,43.9,39a0.4,0.4,0,0,1,.1-0.25,0.37,0.37,0,0,1,.5,0,0.37,0.37,0,0,1,.1.25,0.33,0.33,0,0,1-.11.25A0.34,0.34,0,0,1,44.25,39.35Z"/><path class="cls-2" d="M34,41.6a0.39,0.39,0,0,1-.25-0.1,0.36,0.36,0,0,1,0-.5,0.37,0.37,0,0,1,.5,0,0.36,0.36,0,0,1,0,.5A0.39,0.39,0,0,1,34,41.6Z"/><path class="cls-2" d="M40.75,48.1A0.39,0.39,0,0,1,40.5,48a0.36,0.36,0,0,1,0-.5,0.35,0.35,0,0,1,.49,0,0.34,0.34,0,0,1,.11.25A0.39,0.39,0,0,1,41,48,0.39,0.39,0,0,1,40.75,48.1Z"/><path class="cls-2" d="M45.75,52.35a0.39,0.39,0,0,1-.25-0.1A0.4,0.4,0,0,1,45.4,52a0.33,0.33,0,0,1,.11-0.25,0.35,0.35,0,0,1,.59.25,0.39,0.39,0,0,1-.1.25A0.39,0.39,0,0,1,45.75,52.35Z"/><path class="cls-2" d="M46.5,56.85a0.39,0.39,0,0,1-.25-0.1,0.36,0.36,0,0,1,0-.5,0.35,0.35,0,0,1,.49,0,0.36,0.36,0,0,1,.11.25,0.39,0.39,0,0,1-.1.25A0.39,0.39,0,0,1,46.5,56.85Z"/><path class="cls-2" d="M42,59.6a0.34,0.34,0,0,1-.24-0.1,0.36,0.36,0,0,1-.11-0.25,0.4,0.4,0,0,1,.1-0.25,0.37,0.37,0,0,1,.5,0,0.36,0.36,0,0,1,0,.5A0.39,0.39,0,0,1,42,59.6Z"/><path class="cls-2" d="M40,62.85a0.39,0.39,0,0,1-.25-0.1,0.36,0.36,0,0,1,0-.5,0.37,0.37,0,0,1,.5,0,0.36,0.36,0,0,1,0,.5A0.37,0.37,0,0,1,40,62.85Z"/><path class="cls-2" d="M36,62.85a0.39,0.39,0,0,1-.25-0.1,0.4,0.4,0,0,1-.1-0.25,0.33,0.33,0,0,1,.11-0.25,0.35,0.35,0,0,1,.59.25,0.39,0.39,0,0,1-.1.25A0.39,0.39,0,0,1,36,62.85Z"/><path class="cls-2" d="M36.5,52.85a0.39,0.39,0,0,1-.25-0.1,0.35,0.35,0,0,1-.1-0.25,0.4,0.4,0,0,1,.1-0.25,0.36,0.36,0,0,1,.5,0,0.32,0.32,0,0,1,.1.24,0.39,0.39,0,0,1-.1.25A0.39,0.39,0,0,1,36.5,52.85Z"/><path class="cls-2" d="M30,63.6a0.34,0.34,0,0,1-.24-0.1,0.36,0.36,0,0,1-.11-0.25A0.33,0.33,0,0,1,29.76,63a0.36,0.36,0,0,1,.49,0,0.35,0.35,0,0,1,.1.25,0.39,0.39,0,0,1-.1.25A0.39,0.39,0,0,1,30,63.6Z"/><path class="cls-2" d="M31.5,68.6a0.39,0.39,0,0,1-.25-0.1,0.36,0.36,0,0,1,0-.5,0.37,0.37,0,0,1,.5,0,0.36,0.36,0,0,1,0,.5A0.39,0.39,0,0,1,31.5,68.6Z"/><path class="cls-2" d="M37,71.1a0.39,0.39,0,0,1-.25-0.1,0.38,0.38,0,0,1-.1-0.25,0.33,0.33,0,0,1,.11-0.25,0.36,0.36,0,0,1,.49,0,0.35,0.35,0,0,1,.1.25,0.37,0.37,0,0,1-.1.25A0.39,0.39,0,0,1,37,71.1Z"/><path class="cls-2" d="M63,57.1a0.39,0.39,0,0,1-.25-0.1,0.4,0.4,0,0,1-.1-0.25,0.33,0.33,0,0,1,.11-0.25,0.36,0.36,0,0,1,.49,0,0.35,0.35,0,0,1,.1.25,0.39,0.39,0,0,1-.1.25A0.39,0.39,0,0,1,63,57.1Z"/><path class="cls-2" d="M60,50.85a0.33,0.33,0,0,1-.25-0.11,0.35,0.35,0,0,1-.1-0.24,0.35,0.35,0,0,1,.59-0.25,0.36,0.36,0,0,1,.11.25,0.39,0.39,0,0,1-.1.25A0.37,0.37,0,0,1,60,50.85Z"/><path class="cls-2" d="M54.5,50.6a0.39,0.39,0,0,1-.25-0.1,0.38,0.38,0,0,1-.1-0.25,0.35,0.35,0,0,1,.7,0,0.35,0.35,0,0,1-.1.24A0.34,0.34,0,0,1,54.5,50.6Z"/><path class="cls-2" d="M54.75,41.85a0.36,0.36,0,0,1-.25-0.11,0.33,0.33,0,0,1-.1-0.24,0.4,0.4,0,0,1,.1-0.25,0.37,0.37,0,0,1,.5,0,0.39,0.39,0,0,1,.1.25,0.34,0.34,0,0,1-.11.25A0.34,0.34,0,0,1,54.75,41.85Z"/><path class="cls-2" d="M62.5,42.35a0.39,0.39,0,0,1-.25-0.1,0.36,0.36,0,0,1,0-.5,0.37,0.37,0,0,1,.5,0,0.36,0.36,0,0,1,0,.5A0.39,0.39,0,0,1,62.5,42.35Z"/><path class="cls-2" d="M67,47.6a0.34,0.34,0,0,1-.24-0.1,0.36,0.36,0,0,1-.11-0.25,0.4,0.4,0,0,1,.1-0.25,0.36,0.36,0,0,1,.49,0,0.32,0.32,0,0,1,.11.25,0.39,0.39,0,0,1-.1.25A0.39,0.39,0,0,1,67,47.6Z"/><path class="cls-2" d="M69.5,54.35a0.34,0.34,0,0,1-.24-0.1A0.36,0.36,0,0,1,69.15,54a0.4,0.4,0,0,1,.1-0.25,0.36,0.36,0,0,1,.6.25,0.39,0.39,0,0,1-.1.25A0.39,0.39,0,0,1,69.5,54.35Z"/><path class="cls-2" d="M63.5,61.85a0.34,0.34,0,0,1-.24-0.1,0.36,0.36,0,0,1-.11-0.25,0.4,0.4,0,0,1,.1-0.25,0.36,0.36,0,0,1,.49,0,0.32,0.32,0,0,1,.11.25,0.39,0.39,0,0,1-.1.25A0.39,0.39,0,0,1,63.5,61.85Z"/><path class="cls-2" d="M70.25,61.1A0.39,0.39,0,0,1,70,61a0.4,0.4,0,0,1-.1-0.25A0.33,0.33,0,0,1,70,60.5a0.36,0.36,0,0,1,.49,0,0.35,0.35,0,0,1,.1.25,0.39,0.39,0,0,1-.1.25A0.39,0.39,0,0,1,70.25,61.1Z"/><path class="cls-2" d="M64.75,65.6a0.39,0.39,0,0,1-.25-0.1,0.36,0.36,0,0,1,0-.5,0.36,0.36,0,0,1,.5,0,0.35,0.35,0,0,1,.1.24,0.39,0.39,0,0,1-.1.25A0.39,0.39,0,0,1,64.75,65.6Z"/><path class="cls-2" d="M65.75,68.35a0.39,0.39,0,0,1-.25-0.1,0.36,0.36,0,0,1,0-.5,0.37,0.37,0,0,1,.5,0,0.36,0.36,0,0,1,0,.5A0.39,0.39,0,0,1,65.75,68.35Z"/><path class="cls-2" d="M62.5,70.35a0.39,0.39,0,0,1-.25-0.1,0.4,0.4,0,0,1-.1-0.25,0.34,0.34,0,0,1,.11-0.25,0.36,0.36,0,0,1,.49,0,0.32,0.32,0,0,1,.1.24,0.39,0.39,0,0,1-.1.25A0.39,0.39,0,0,1,62.5,70.35Z"/><path class="cls-2" d="M52.75,69.85a0.35,0.35,0,0,1-.25-0.1,0.36,0.36,0,0,1,0-.5,0.36,0.36,0,0,1,.6.25,0.39,0.39,0,0,1-.1.25A0.37,0.37,0,0,1,52.75,69.85Z"/><path class="cls-2" d="M44.75,66.6a0.34,0.34,0,0,1-.25-0.11,0.35,0.35,0,0,1-.1-0.24A0.33,0.33,0,0,1,44.51,66,0.36,0.36,0,0,1,45,66a0.35,0.35,0,0,1,.1.25,0.39,0.39,0,0,1-.1.25A0.39,0.39,0,0,1,44.75,66.6Z"/><path class="cls-2" d="M28.5,71.35a0.39,0.39,0,0,1-.25-0.1,0.36,0.36,0,0,1-.1-0.25,0.33,0.33,0,0,1,.11-0.25,0.35,0.35,0,0,1,.59.25,0.33,0.33,0,0,1-.11.25A0.34,0.34,0,0,1,28.5,71.35Z"/><path class="cls-2" d="M3,29.6a0.39,0.39,0,0,1-.25-0.1,0.36,0.36,0,0,1,0-.5,0.38,0.38,0,0,1,.5,0,0.36,0.36,0,0,1,0,.5A0.39,0.39,0,0,1,3,29.6Z"/><path class="cls-2" d="M13.25,5.1A0.36,0.36,0,0,1,13,5a0.32,0.32,0,0,1-.1-0.24A0.38,0.38,0,0,1,13,4.5a0.36,0.36,0,0,1,.6.25,0.33,0.33,0,0,1-.11.25A0.34,0.34,0,0,1,13.25,5.1Z"/><path class="cls-2" d="M70.25,34.6A0.39,0.39,0,0,1,70,34.5a0.4,0.4,0,0,1-.1-0.25A0.33,0.33,0,0,1,70,34a0.36,0.36,0,0,1,.49,0,0.35,0.35,0,0,1,.1.25,0.39,0.39,0,0,1-.1.25A0.39,0.39,0,0,1,70.25,34.6Z"/><path class="cls-2" d="M71.25,41.35a0.39,0.39,0,0,1-.25-0.1,0.36,0.36,0,0,1,0-.5,0.37,0.37,0,0,1,.5,0,0.36,0.36,0,0,1,0,.5A0.39,0.39,0,0,1,71.25,41.35Z"/><path class="cls-2" d="M1,51.85a0.39,0.39,0,0,1-.25-0.1,0.4,0.4,0,0,1-.1-0.25,0.33,0.33,0,0,1,.11-0.25,0.36,0.36,0,0,1,.49,0,0.35,0.35,0,0,1,.1.25,0.39,0.39,0,0,1-.1.25A0.39,0.39,0,0,1,1,51.85Z"/><path class="cls-2" d="M72,23.6a0.39,0.39,0,0,1-.25-0.1,0.36,0.36,0,0,1,0-.5,0.38,0.38,0,0,1,.5,0,0.36,0.36,0,0,1,0,.5A0.39,0.39,0,0,1,72,23.6Z"/><path class="cls-2" d="M69,26.6a0.39,0.39,0,0,1-.25-0.1,0.36,0.36,0,0,1,0-.5,0.37,0.37,0,0,1,.5,0,0.39,0.39,0,0,1,.1.25,0.35,0.35,0,0,1-.1.25A0.39,0.39,0,0,1,69,26.6Z"/><path class="cls-2" d="M68.5,60.35a0.39,0.39,0,0,1-.25-0.1,0.4,0.4,0,0,1-.1-0.25,0.35,0.35,0,0,1,.6-0.25,0.36,0.36,0,0,1,0,.5A0.39,0.39,0,0,1,68.5,60.35Z"/><path class="cls-2" d="M71.5,68.35a0.39,0.39,0,0,1-.25-0.1,0.36,0.36,0,0,1,0-.5,0.37,0.37,0,0,1,.5,0,0.39,0.39,0,0,1,.1.25,0.35,0.35,0,0,1-.1.25A0.39,0.39,0,0,1,71.5,68.35Z"/><path class="cls-2" d="M0.5,57.85a0.39,0.39,0,0,1-.25-0.1,0.36,0.36,0,0,1,0-.5,0.38,0.38,0,0,1,.5,0,0.36,0.36,0,0,1,0,.5A0.39,0.39,0,0,1,.5,57.85Z"/><path class="cls-2" d="M2.75,71.35a0.39,0.39,0,0,1-.25-0.1,0.36,0.36,0,0,1,0-.5,0.36,0.36,0,0,1,.6.25,0.39,0.39,0,0,1-.1.25A0.39,0.39,0,0,1,2.75,71.35Z"/><path class="cls-2" d="M70.25,24.1A0.39,0.39,0,0,1,70,24a0.4,0.4,0,0,1-.1-0.25A0.33,0.33,0,0,1,70,23.5a0.36,0.36,0,0,1,.49,0,0.35,0.35,0,0,1,.1.25,0.39,0.39,0,0,1-.1.25A0.39,0.39,0,0,1,70.25,24.1Z"/><path class="cls-2" d="M1.25,16.85A0.39,0.39,0,0,1,1,16.75a0.36,0.36,0,0,1,0-.5,0.38,0.38,0,0,1,.5,0,0.36,0.36,0,0,1,0,.5A0.39,0.39,0,0,1,1.25,16.85Z"/><path class="cls-2" d="M18,13.15a0.65,0.65,0,0,1-.65-0.65A0.66,0.66,0,0,1,17.54,12a0.68,0.68,0,0,1,.92,0A0.65,0.65,0,0,1,18,13.15Z"/><path class="cls-2" d="M29.25,11.15A0.66,0.66,0,0,1,28.79,11a0.68,0.68,0,0,1-.19-0.46A0.66,0.66,0,0,1,28.79,10a0.67,0.67,0,0,1,.92,0,0.66,0.66,0,0,1,.19.46A0.65,0.65,0,0,1,29.25,11.15Z"/><path class="cls-2" d="M29.25,3.65A0.65,0.65,0,0,1,28.6,3a0.64,0.64,0,0,1,.19-0.46,0.68,0.68,0,0,1,.92,0,0.65,0.65,0,0,1,0,.92A0.68,0.68,0,0,1,29.25,3.65Z"/><path class="cls-2" d="M40.25,10.65A0.65,0.65,0,0,1,39.6,10a0.66,0.66,0,0,1,.19-0.46,0.68,0.68,0,0,1,.92,0,0.63,0.63,0,0,1,.19.46,0.68,0.68,0,0,1-.19.46A0.66,0.66,0,0,1,40.25,10.65Z"/><path class="cls-2" d="M45,12.15a0.61,0.61,0,0,1-.46-0.2,0.63,0.63,0,0,1-.19-0.45A0.66,0.66,0,0,1,44.54,11a0.68,0.68,0,0,1,.92,0,0.63,0.63,0,0,1,.19.46,0.61,0.61,0,0,1-.2.46A0.6,0.6,0,0,1,45,12.15Z"/><path class="cls-2" d="M47.25,23.15A0.65,0.65,0,0,1,46.79,22a0.68,0.68,0,0,1,.92,0A0.65,0.65,0,0,1,47.25,23.15Z"/><path class="cls-2" d="M54.75,7.15A0.64,0.64,0,0,1,54.29,7a0.65,0.65,0,0,1,0-.92,0.68,0.68,0,0,1,.92,0,0.64,0.64,0,0,1,.19.46,0.66,0.66,0,0,1-.19.46A0.64,0.64,0,0,1,54.75,7.15Z"/><path class="cls-2" d="M64,6.9a0.65,0.65,0,0,1-.46-1.11,0.68,0.68,0,0,1,.92,0A0.65,0.65,0,0,1,64,6.9Z"/><path class="cls-2" d="M65,2.9a0.66,0.66,0,0,1-.46-0.19,0.68,0.68,0,0,1-.19-0.46,0.66,0.66,0,0,1,.19-0.46,0.68,0.68,0,0,1,.92,0,0.68,0.68,0,0,1,.19.46,0.62,0.62,0,0,1-.18.45A0.67,0.67,0,0,1,65,2.9Z"/><path class="cls-2" d="M69.5,18.4A0.65,0.65,0,0,1,69,17.29a0.67,0.67,0,0,1,.92,0A0.65,0.65,0,0,1,69.5,18.4Z"/><path class="cls-2" d="M8,47.4a0.64,0.64,0,0,1-.46-0.19,0.68,0.68,0,0,1-.19-0.46,0.66,0.66,0,0,1,.19-0.46,0.68,0.68,0,0,1,.92,0,0.66,0.66,0,0,1,.19.46,0.68,0.68,0,0,1-.19.46A0.64,0.64,0,0,1,8,47.4Z"/><path class="cls-2" d="M5,57.15A0.64,0.64,0,0,1,4.54,57a0.65,0.65,0,0,1,0-.92,0.67,0.67,0,0,1,.92,0,0.65,0.65,0,0,1,0,.92A0.64,0.64,0,0,1,5,57.15Z"/><path class="cls-2" d="M2.25,67.4a0.66,0.66,0,0,1-.46-0.19,0.68,0.68,0,0,1-.19-0.46,0.66,0.66,0,0,1,.19-0.46,0.68,0.68,0,0,1,.92,0,0.66,0.66,0,0,1,.19.46,0.68,0.68,0,0,1-.19.46A0.66,0.66,0,0,1,2.25,67.4Z"/><path class="cls-2" d="M17.75,70.15A0.66,0.66,0,0,1,17.29,70a0.68,0.68,0,0,1-.19-0.46A0.66,0.66,0,0,1,17.29,69a0.68,0.68,0,0,1,.92,0,0.66,0.66,0,0,1,.19.46,0.68,0.68,0,0,1-.19.46A0.66,0.66,0,0,1,17.75,70.15Z"/><path class="cls-2" d="M19.25,62.65A0.65,0.65,0,0,1,18.6,62a0.64,0.64,0,0,1,.19-0.46,0.67,0.67,0,0,1,.92,0,0.66,0.66,0,0,1,.19.46,0.68,0.68,0,0,1-.19.46A0.66,0.66,0,0,1,19.25,62.65Z"/><path class="cls-2" d="M21,45.65A0.65,0.65,0,0,1,20.35,45a0.64,0.64,0,0,1,.19-0.46,0.67,0.67,0,0,1,.92,0,0.66,0.66,0,0,1,.19.46,0.68,0.68,0,0,1-.19.46A0.64,0.64,0,0,1,21,45.65Z"/><path class="cls-2" d="M28.5,51.4A0.65,0.65,0,0,1,28,50.29a0.67,0.67,0,0,1,.92,0,0.66,0.66,0,0,1,.19.46,0.68,0.68,0,0,1-.19.46A0.64,0.64,0,0,1,28.5,51.4Z"/><path class="cls-2" d="M34,60.65A0.65,0.65,0,0,1,33.35,60a0.64,0.64,0,0,1,.19-0.46,0.68,0.68,0,0,1,.92,0,0.63,0.63,0,0,1,.19.46,0.64,0.64,0,0,1-.19.46A0.66,0.66,0,0,1,34,60.65Z"/><path class="cls-2" d="M34.25,67.15A0.64,0.64,0,0,1,33.79,67a0.65,0.65,0,0,1,0-.92,0.67,0.67,0,0,1,.92,0,0.65,0.65,0,0,1,0,.92A0.66,0.66,0,0,1,34.25,67.15Z"/><path class="cls-2" d="M41.75,55.4a0.65,0.65,0,0,1-.46-1.11,0.68,0.68,0,0,1,.92,0A0.65,0.65,0,0,1,41.75,55.4Z"/><path class="cls-2" d="M52.25,60.15A0.65,0.65,0,0,1,51.79,59a0.68,0.68,0,0,1,.92,0A0.65,0.65,0,0,1,52.25,60.15Z"/><path class="cls-2" d="M55,65.65a0.66,0.66,0,0,1-.46-0.19A0.68,0.68,0,0,1,54.35,65a0.64,0.64,0,0,1,.19-0.46,0.68,0.68,0,0,1,.92,0,0.64,0.64,0,0,1,.19.46,0.68,0.68,0,0,1-.19.46A0.66,0.66,0,0,1,55,65.65Z"/><path class="cls-2" d="M25.25,24.9a0.66,0.66,0,0,1-.46-0.19,0.68,0.68,0,0,1-.19-0.46,0.66,0.66,0,0,1,.19-0.46,0.68,0.68,0,0,1,.92,0,0.66,0.66,0,0,1,.19.46,0.68,0.68,0,0,1-.19.46A0.66,0.66,0,0,1,25.25,24.9Z"/><path class="cls-2" d="M35.25,23.65a0.64,0.64,0,0,1-.46-0.19,0.65,0.65,0,0,1,0-.92,0.68,0.68,0,0,1,.92,0A0.65,0.65,0,0,1,35.25,23.65Z"/><path class="cls-2" d="M45,29.9a0.65,0.65,0,0,1-.46-1.11,0.68,0.68,0,0,1,.92,0,0.63,0.63,0,0,1,.19.46A0.67,0.67,0,0,1,45,29.9Z"/><path class="cls-2" d="M52,43.4a0.65,0.65,0,0,1-.46-1.11,0.67,0.67,0,0,1,.92,0,0.64,0.64,0,0,1,.19.46A0.65,0.65,0,0,1,52,43.4Z"/><path class="cls-2" d="M67,52.15a0.65,0.65,0,0,1-.65-0.65,0.61,0.61,0,0,1,.2-0.46,0.67,0.67,0,0,1,.91,0A0.65,0.65,0,0,1,67,52.15Z"/><path class="cls-2" d="M47.25,48.15A0.65,0.65,0,0,1,46.79,47a0.68,0.68,0,0,1,.92,0A0.65,0.65,0,0,1,47.25,48.15Z"/><path class="cls-2" d="M37,44.9a0.66,0.66,0,0,1-.46-0.19,0.68,0.68,0,0,1-.19-0.46,0.66,0.66,0,0,1,.19-0.46,0.68,0.68,0,0,1,.92,0,0.66,0.66,0,0,1,.19.46,0.68,0.68,0,0,1-.19.46A0.66,0.66,0,0,1,37,44.9Z"/><path class="cls-2" d="M17,28.9a0.65,0.65,0,0,1-.46-1.11,0.68,0.68,0,0,1,.92,0,0.65,0.65,0,0,1,0,.92A0.64,0.64,0,0,1,17,28.9Z"/><path class="cls-2" d="M11.25,37.15a0.65,0.65,0,0,1-.65-0.65A0.64,0.64,0,0,1,10.79,36a0.67,0.67,0,0,1,.92,0A0.65,0.65,0,0,1,11.25,37.15Z"/><path class="cls-2" d="M67.5,31.15A0.66,0.66,0,0,1,67,31a0.68,0.68,0,0,1-.19-0.46A0.66,0.66,0,0,1,67,30,0.68,0.68,0,0,1,68,30a0.64,0.64,0,0,1,.19.46A0.65,0.65,0,0,1,67.5,31.15Z"/><path class="cls-2" d="M7.25,16.15A0.67,0.67,0,0,1,6.6,15.5,0.66,0.66,0,0,1,6.79,15a0.67,0.67,0,0,1,.92,0,0.65,0.65,0,0,1,0,.92A0.64,0.64,0,0,1,7.25,16.15Z"/><path class="cls-2" d="M8.5,5.65A0.68,0.68,0,0,1,8,5.46,0.66,0.66,0,0,1,7.85,5,0.64,0.64,0,0,1,8,4.54a0.67,0.67,0,0,1,.92,0A0.64,0.64,0,0,1,9.15,5,0.65,0.65,0,0,1,8.5,5.65Z"/><path class="cls-2" d="M3.5,2.9A0.66,0.66,0,0,1,3,2.71a0.68,0.68,0,0,1-.19-0.46A0.66,0.66,0,0,1,3,1.79a0.68,0.68,0,0,1,.92,0,0.66,0.66,0,0,1,.19.46A0.68,0.68,0,0,1,4,2.71,0.66,0.66,0,0,1,3.5,2.9Z"/><path class="cls-2" d="M66.5,37.65A0.65,0.65,0,0,1,66,36.54a0.68,0.68,0,0,1,.92,0,0.64,0.64,0,0,1,.19.46,0.66,0.66,0,0,1-.19.46A0.64,0.64,0,0,1,66.5,37.65Z"/><path class="cls-2" d="M44,63.4a0.66,0.66,0,0,1-.46-0.19,0.68,0.68,0,0,1-.19-0.46,0.66,0.66,0,0,1,.19-0.46,0.67,0.67,0,0,1,.92,0,0.66,0.66,0,0,1,.19.46,0.68,0.68,0,0,1-.19.46A0.66,0.66,0,0,1,44,63.4Z"/><path class="cls-2" d="M25.75,70.4a0.66,0.66,0,0,1-.46-0.19,0.68,0.68,0,0,1-.19-0.46,0.66,0.66,0,0,1,.19-0.46,0.67,0.67,0,0,1,.92,0,0.66,0.66,0,0,1,.19.46,0.68,0.68,0,0,1-.19.46A0.66,0.66,0,0,1,25.75,70.4Z"/><path class="cls-2" d="M22,42.15A0.66,0.66,0,0,1,21.54,42a0.65,0.65,0,0,1,0-.92,0.68,0.68,0,0,1,.92,0A0.65,0.65,0,0,1,22,42.15Z"/><path class="cls-2" d="M24,29.4a0.66,0.66,0,0,1-.46-0.19,0.68,0.68,0,0,1-.19-0.46,0.66,0.66,0,0,1,.19-0.46,0.67,0.67,0,0,1,.92,0,0.64,0.64,0,0,1,.19.46A0.65,0.65,0,0,1,24,29.4Z"/><path class="cls-2" d="M41.5,34.9A0.65,0.65,0,0,1,41,33.79a0.68,0.68,0,0,1,.92,0,0.66,0.66,0,0,1,.19.46,0.68,0.68,0,0,1-.19.46A0.66,0.66,0,0,1,41.5,34.9Z"/><path class="cls-2" d="M67.5,44.15A0.66,0.66,0,0,1,67,44a0.68,0.68,0,0,1-.19-0.46A0.66,0.66,0,0,1,67,43,0.68,0.68,0,0,1,68,43a0.64,0.64,0,0,1,.19.46A0.65,0.65,0,0,1,67.5,44.15Z"/><path class="cls-2" d="M53.25,15.4a0.65,0.65,0,0,1-.46-1.11,0.68,0.68,0,0,1,.92,0,0.66,0.66,0,0,1,.19.46,0.68,0.68,0,0,1-.19.46A0.66,0.66,0,0,1,53.25,15.4Z"/><path class="cls-2" d="M34,16.4a0.66,0.66,0,0,1-.46-0.19,0.68,0.68,0,0,1-.19-0.46,0.64,0.64,0,0,1,.19-0.46,0.68,0.68,0,0,1,.92,0,0.64,0.64,0,0,1,.19.46A0.65,0.65,0,0,1,34,16.4Z"/><path class="cls-2" d="M12.75,19.65a0.65,0.65,0,0,1-.46-1.11,0.67,0.67,0,0,1,.92,0A0.65,0.65,0,0,1,12.75,19.65Z"/><path class="cls-2" d="M49.5,4.9A0.65,0.65,0,0,1,49,3.79a0.68,0.68,0,0,1,.92,0A0.65,0.65,0,0,1,49.5,4.9Z"/><path class="cls-2" d="M59,21.15A0.65,0.65,0,0,1,58.54,20a0.68,0.68,0,0,1,.92,0,0.64,0.64,0,0,1,.19.46A0.65,0.65,0,0,1,59,21.15Z"/><path class="cls-2" d="M67.5,57.65A0.66,0.66,0,0,1,67,57.46,0.68,0.68,0,0,1,66.85,57,0.66,0.66,0,0,1,67,56.54a0.68,0.68,0,0,1,.92,0,0.64,0.64,0,0,1,.19.46A0.65,0.65,0,0,1,67.5,57.65Z"/><path class="cls-2" d="M5.25,70.15A0.64,0.64,0,0,1,4.79,70a0.65,0.65,0,0,1,0-.92,0.67,0.67,0,0,1,.92,0,0.65,0.65,0,0,1,0,.92A0.64,0.64,0,0,1,5.25,70.15Z"/><path class="cls-2" d="M2.75,13.65a0.61,0.61,0,0,1-.46-0.2A0.62,0.62,0,0,1,2.1,13a0.66,0.66,0,0,1,.19-0.46,0.67,0.67,0,0,1,.92,0,0.65,0.65,0,0,1,0,.92A0.64,0.64,0,0,1,2.75,13.65Z"/><path class="cls-2" d="M16.5,3.65A0.65,0.65,0,0,1,16,2.54a0.68,0.68,0,0,1,.92,0A0.65,0.65,0,0,1,16.5,3.65Z"/><path class="cls-2" d="M40.5,4.9A0.65,0.65,0,0,1,40,3.79a0.68,0.68,0,0,1,.92,0,0.64,0.64,0,0,1,.19.46A0.65,0.65,0,0,1,40.5,4.9Z"/><path class="cls-2" d="M2.75,32.4a0.64,0.64,0,0,1-.46-0.19,0.65,0.65,0,0,1,0-.92,0.68,0.68,0,0,1,.92,0A0.65,0.65,0,0,1,2.75,32.4Z"/><path class="cls-2" d="M7.5,25.4A0.64,0.64,0,0,1,7,25.21a0.65,0.65,0,0,1,0-.92,0.68,0.68,0,0,1,.92,0,0.64,0.64,0,0,1,.19.46,0.66,0.66,0,0,1-.19.46A0.64,0.64,0,0,1,7.5,25.4Z"/><path class="cls-2" d="M4,47.15A0.66,0.66,0,0,1,3.54,47a0.68,0.68,0,0,1-.19-0.46A0.66,0.66,0,0,1,3.54,46a0.67,0.67,0,0,1,.92,0,0.66,0.66,0,0,1,.19.46,0.68,0.68,0,0,1-.19.46A0.64,0.64,0,0,1,4,47.15Z"/><path class="cls-2" d="M11,50.9a0.66,0.66,0,0,1-.46-0.19,0.68,0.68,0,0,1-.19-0.46,0.64,0.64,0,0,1,.19-0.46,0.68,0.68,0,0,1,.92,0,0.66,0.66,0,0,1,.19.46,0.68,0.68,0,0,1-.19.46A0.66,0.66,0,0,1,11,50.9Z"/><path class="cls-2" d="M10,60.15A0.64,0.64,0,0,1,9.54,60a0.65,0.65,0,0,1,0-.92,0.68,0.68,0,0,1,.92,0,0.65,0.65,0,0,1,0,.92A0.64,0.64,0,0,1,10,60.15Z"/><path class="cls-2" d="M13.5,66.15A0.66,0.66,0,0,1,13,66a0.68,0.68,0,0,1-.19-0.46A0.64,0.64,0,0,1,13,65,0.67,0.67,0,0,1,14,65a0.66,0.66,0,0,1,.19.46A0.68,0.68,0,0,1,14,66,0.66,0.66,0,0,1,13.5,66.15Z"/><path class="cls-2" d="M22,53.65a0.66,0.66,0,0,1-.46-0.19A0.64,0.64,0,0,1,21.35,53a0.6,0.6,0,0,1,.2-0.46,0.65,0.65,0,0,1,1.1.46,0.68,0.68,0,0,1-.19.46A0.66,0.66,0,0,1,22,53.65Z"/><path class="cls-2" d="M31.25,37.9a0.66,0.66,0,0,1-.46-0.19,0.68,0.68,0,0,1-.19-0.46,0.66,0.66,0,0,1,.19-0.46,0.68,0.68,0,0,1,.92,0,0.66,0.66,0,0,1,.19.46,0.68,0.68,0,0,1-.19.46A0.66,0.66,0,0,1,31.25,37.9Z"/><path class="cls-2" d="M26,34.4a0.65,0.65,0,0,1-.46-1.11,0.67,0.67,0,0,1,.92,0A0.65,0.65,0,0,1,26,34.4Z"/><path class="cls-2" d="M37.25,28.9a0.66,0.66,0,0,1-.46-0.19,0.68,0.68,0,0,1-.19-0.46,0.66,0.66,0,0,1,.19-0.46,0.68,0.68,0,0,1,.92,0,0.66,0.66,0,0,1,.19.46,0.68,0.68,0,0,1-.19.46A0.66,0.66,0,0,1,37.25,28.9Z"/><path class="cls-2" d="M61.75,16.9a0.66,0.66,0,0,1-.46-0.19,0.68,0.68,0,0,1-.19-0.46,0.66,0.66,0,0,1,.19-0.46,0.68,0.68,0,0,1,.92,0,0.64,0.64,0,0,1,.19.46A0.65,0.65,0,0,1,61.75,16.9Z"/><path class="cls-2" d="M61.25,27.4a0.64,0.64,0,0,1-.46-0.19,0.68,0.68,0,0,1-.19-0.46,0.66,0.66,0,0,1,.19-0.46,0.68,0.68,0,0,1,.92,0,0.65,0.65,0,0,1,0,.92A0.64,0.64,0,0,1,61.25,27.4Z"/><path class="cls-2" d="M58.75,57.4a0.66,0.66,0,0,1-.46-0.19,0.68,0.68,0,0,1-.19-0.46,0.66,0.66,0,0,1,.19-0.46,0.68,0.68,0,0,1,.92,0,0.66,0.66,0,0,1,.19.46,0.68,0.68,0,0,1-.19.46A0.66,0.66,0,0,1,58.75,57.4Z"/><path class="cls-2" d="M59.25,44.65a0.64,0.64,0,0,1-.46-0.19,0.65,0.65,0,0,1,0-.92,0.68,0.68,0,0,1,.92,0,0.65,0.65,0,0,1,0,.92A0.64,0.64,0,0,1,59.25,44.65Z"/><path class="cls-2" d="M55.75,35.9a0.66,0.66,0,0,1-.46-0.19,0.68,0.68,0,0,1-.19-0.46,0.66,0.66,0,0,1,.19-0.46,0.68,0.68,0,0,1,.92,0,0.66,0.66,0,0,1,.19.46,0.68,0.68,0,0,1-.19.46A0.66,0.66,0,0,1,55.75,35.9Z"/><path class="cls-2" d="M69.25,70.9a0.68,0.68,0,0,1-.46-0.19,0.65,0.65,0,0,1,0-.92,0.69,0.69,0,0,1,.92,0A0.65,0.65,0,0,1,69.25,70.9Z"/><path class="cls-2" d="M60.75,66.15A0.65,0.65,0,0,1,60.29,65a0.67,0.67,0,0,1,.92,0,0.64,0.64,0,0,1,.19.46A0.65,0.65,0,0,1,60.75,66.15Z"/><path class="cls-2" d="M44.5,71.65A0.65,0.65,0,0,1,44,70.54a0.68,0.68,0,0,1,.92,0A0.65,0.65,0,0,1,44.5,71.65Z"/><path class="cls-2" d="M24.5,1.4A0.65,0.65,0,0,1,23.85.75,0.64,0.64,0,0,1,24,.29a0.67,0.67,0,0,1,.92,0,0.66,0.66,0,0,1,.19.46,0.68,0.68,0,0,1-.19.46A0.64,0.64,0,0,1,24.5,1.4Z"/><path class="cls-2" d="M0,23.6a0.39,0.39,0,0,1-.25-0.1,0.36,0.36,0,0,1,0-.5,0.38,0.38,0,0,1,.5,0,0.39,0.39,0,0,1,.1.25,0.39,0.39,0,0,1-.1.25A0.39,0.39,0,0,1,0,23.6Z"/></pattern></defs><title>stormwater-il-5</title><rect class="cls-3" y="238" width="100" height="10"/><rect class="cls-4" y="248" width="100" height="20"/><rect class="cls-5" y="228" width="100" height="10"/><rect class="cls-6" y="268" width="100" height="10"/><path class="cls-7" d="M244.31,1487H169.69a143.17,143.17,0,0,1-5-57q0.75-6.56,2.14-13,1.19-5.57,2.83-11h74.62q1.65,5.44,2.83,11,1.4,6.43,2.14,13A143.17,143.17,0,0,1,244.31,1487Z" transform="translate(-157 -1259)"/><path class="cls-4" d="M239.39,1482H174.61c-6.84-24-6.84-48,0-71h64.78C246.23,1434,246.23,1458,239.39,1482Z" transform="translate(-157 -1259)"/><path class="cls-8" d="M166.62,1417c0.68,0,1.07.88,0.87,2L166,1428c-0.15,1.09-.81,2-1.47,2s-1.07-.89-0.93-2l1.42-9C165.22,1417.89,165.94,1417,166.62,1417Z" transform="translate(-157 -1259)"/><path class="cls-8" d="M250.4,1428c0.14,1.09-.27,2-0.93,2s-1.31-.89-1.47-2l-1.49-9.05c-0.21-1.08.18-2,.87-2s1.4,0.89,1.6,2Z" transform="translate(-157 -1259)"/><path class="cls-8" d="M166.62,1475c0.68,0,1.07-.88.87-2L166,1464c-0.15-1.09-.81-2-1.47-2s-1.07.89-.93,2l1.42,9C165.22,1474.11,165.94,1475,166.62,1475Z" transform="translate(-157 -1259)"/><path class="cls-8" d="M250.4,1464c0.14-1.09-.27-2-0.93-2s-1.31.89-1.47,2l-1.49,9.05c-0.21,1.08.18,2,.87,2s1.4-.89,1.6-2Z" transform="translate(-157 -1259)"/><g class="cls-9"><path class="cls-8" d="M170,1446.5" transform="translate(-157 -1259)"/><path class="cls-8" d="M234,1482h-1v-71h1v71Zm-9,0h-1v-71h1v71Zm-9,0h-1v-71h1v71Zm-9,0h-1v-71h1v71Zm-9,0h-1v-71h1v71Zm-9,0h-1v-71h1v71Zm-9,0h-1v-71h1v71Z" transform="translate(-157 -1259)"/><path class="cls-8" d="M243,1446.5" transform="translate(-157 -1259)"/></g><path class="cls-10" d="M239.39,1482H174.61a128.37,128.37,0,0,1-4.79-45h74.36A128.39,128.39,0,0,1,239.39,1482Z" transform="translate(-157 -1259)"/><path class="cls-11" d="M196.72,1467.34a1,1,0,0,1,.3.73,1,1,0,0,1-.3.72,1,1,0,0,1-.73.29h-9.26a1.26,1.26,0,0,1-.91-0.35,1.19,1.19,0,0,1-.36-0.9,3.87,3.87,0,0,1,.71-2.28,9.28,9.28,0,0,1,1.78-1.87,22.12,22.12,0,0,1,2.32-1.63q1.25-.77,2.32-1.54a10.33,10.33,0,0,0,1.78-1.58,2.5,2.5,0,0,0,.71-1.63,3.88,3.88,0,0,0-.2-1.36,2.31,2.31,0,0,0-.64-0.92,4.31,4.31,0,0,0-3-.86,10.1,10.1,0,0,0-4.1.86,1.22,1.22,0,0,1-.55.12,0.76,0.76,0,0,1-.56-0.26,1.07,1.07,0,0,1-.25-0.77,0.88,0.88,0,0,1,.53-0.79,11.75,11.75,0,0,1,5.33-1.22,5.78,5.78,0,0,1,3.91,1.34,4.42,4.42,0,0,1,1.61,3.53,5.77,5.77,0,0,1-2.18,4.2,19,19,0,0,1-2.1,1.63l-2.2,1.48q-1.06.71-1.9,1.39a3.93,3.93,0,0,0-1.15,1.38H196A1,1,0,0,1,196.72,1467.34Z" transform="translate(-157 -1259)"/><path class="cls-11" d="M206.5,1452.09a6.16,6.16,0,0,1,2.83.62,5.58,5.58,0,0,1,2,1.78,12.7,12.7,0,0,1,0,12.46,6.18,6.18,0,0,1-9.74,0,12.7,12.7,0,0,1,0-12.46A5.61,5.61,0,0,1,206.5,1452.09Zm0,15.22a3.56,3.56,0,0,0,3.22-1.78,11,11,0,0,0,0-9.62,3.81,3.81,0,0,0-6.44,0,9.12,9.12,0,0,0-1.09,4.8,9,9,0,0,0,1.1,4.82A3.56,3.56,0,0,0,206.5,1467.31Z" transform="translate(-157 -1259)"/><path class="cls-11" d="M221.57,1452.09a6.16,6.16,0,0,1,2.83.62,5.58,5.58,0,0,1,2,1.78,12.7,12.7,0,0,1,0,12.46,6.18,6.18,0,0,1-9.74,0,12.7,12.7,0,0,1,0-12.46A5.61,5.61,0,0,1,221.57,1452.09Zm0,15.22a3.56,3.56,0,0,0,3.22-1.78,11,11,0,0,0,0-9.62,3.81,3.81,0,0,0-6.44,0,9.12,9.12,0,0,0-1.09,4.8,9,9,0,0,0,1.1,4.82A3.56,3.56,0,0,0,221.57,1467.31Z" transform="translate(-157 -1259)"/><polyline class="cls-12" points="23.88 155.5 4 135.38 4 87 4 0"/><polyline class="cls-13" points="24 180 24 156 23.88 155.5 4 135.38 4 87 4 0"/><rect class="cls-3" x="278" y="238" width="100" height="10"/><rect class="cls-4" x="278" y="248" width="100" height="20"/><rect class="cls-5" x="278" y="228" width="100" height="10"/><rect class="cls-6" x="278" y="268" width="100" height="10"/><path class="cls-7" d="M491.12,1487H446.88c-3.27-12-4.25-22.84-2.95-34,0.3-2.59.72-5.53,1.27-8.07,0.47-2.2,1-3.89,1.68-6.89h44.24c0.65,3,1.21,4.57,1.68,6.77,0.55,2.54,1,5.48,1.27,8.07A88.14,88.14,0,0,1,491.12,1487Z" transform="translate(-157 -1259)"/><path class="cls-4" d="M488.21,1484H449.8c-4.06-15-4.06-29,0-43h38.41C492.26,1455,492.26,1469,488.21,1484Z" transform="translate(-157 -1259)"/><path class="cls-8" d="M445.06,1445c0.4,0,.57.88,0.36,2l-0.62,3.76c-0.15,1.09-.59,2-1,2s-0.59-.89-0.44-2L444,1447C444.16,1445.9,444.66,1445,445.06,1445Z" transform="translate(-157 -1259)"/><path class="cls-8" d="M494.62,1450.73c0.15,1.09-.05,2-0.44,2s-0.83-.89-1-2l-0.62-3.76c-0.21-1.08,0-2,.36-2s0.9,0.89,1.09,2Z" transform="translate(-157 -1259)"/><path class="cls-8" d="M445.06,1479.4c0.4,0,.57-0.88.36-2l-0.62-3.76c-0.15-1.09-.59-2-1-2s-0.59.89-.44,2l0.59,3.76C444.16,1478.51,444.66,1479.4,445.06,1479.4Z" transform="translate(-157 -1259)"/><path class="cls-8" d="M494.62,1473.67c0.15-1.09-.05-2-0.44-2s-0.83.89-1,2l-0.62,3.76c-0.21,1.08,0,2,.36,2s0.9-.89,1.09-2Z" transform="translate(-157 -1259)"/><g class="cls-9"><path class="cls-8" d="M447.06,1462.5" transform="translate(-157 -1259)"/><path class="cls-8" d="M485,1484h-1v-43h1v43Zm-5,0h-1v-43h1v43Zm-6,0h0v-43h0v43Zm-5,0h-1v-43h1v43Zm-5,0h-1v-43h1v43Zm-6,0h-1v-43h1v43Zm-5,0h-1v-43h1v43Z" transform="translate(-157 -1259)"/><path class="cls-8" d="M490.35,1462.5" transform="translate(-157 -1259)"/></g><path class="cls-10" d="M488.21,1484H449.8c-2.54-10-3.49-18-2.84-27H491C491.7,1466,490.75,1474,488.21,1484Z" transform="translate(-157 -1259)"/><polyline class="cls-12" points="301.88 187.5 282 167.38 282 42 282 0"/><polyline class="cls-13" points="302 212 302 188 301.88 187.5 282 167.38 282 42 282 0"/><path class="cls-11" d="M458.61,1469.29a7.62,7.62,0,0,1,3.72-.9,5.13,5.13,0,0,1,3.83,1.41,4.91,4.91,0,0,1,1.3,3.56,4.43,4.43,0,0,1-3.32,4.58,8.23,8.23,0,0,1-2.68.4,8.64,8.64,0,0,1-4.71-1.28,0.8,0.8,0,0,1-.44-0.71,1.1,1.1,0,0,1,.24-0.74,0.72,0.72,0,0,1,.56-0.29,1.76,1.76,0,0,1,.78.24,7,7,0,0,0,3.28.79q3.15,0,4-1.61a3.23,3.23,0,0,0,.31-1.5,2.71,2.71,0,0,0-.91-2.16,3.32,3.32,0,0,0-2.26-.79,6.94,6.94,0,0,0-3.63.95,1.85,1.85,0,0,1-.92.26,1.37,1.37,0,0,1-.88-0.34,1.14,1.14,0,0,1-.42-0.94,2.74,2.74,0,0,1,0-.53l1-5.85a1.28,1.28,0,0,1,.38-0.8,1.1,1.1,0,0,1,.78-0.3h7.06a0.94,0.94,0,0,1,.95.95,0.88,0.88,0,0,1-.28.66,0.93,0.93,0,0,1-.67.26h-6.38Z" transform="translate(-157 -1259)"/><path class="cls-11" d="M475.61,1462.54a5.64,5.64,0,0,1,2.6.57,5.11,5.11,0,0,1,1.87,1.63,11.64,11.64,0,0,1,0,11.42,5.67,5.67,0,0,1-8.93,0,11.64,11.64,0,0,1,0-11.42A5.15,5.15,0,0,1,475.61,1462.54Zm0,13.95a3.26,3.26,0,0,0,2.95-1.63,10.12,10.12,0,0,0,0-8.82,3.49,3.49,0,0,0-5.91,0,8.35,8.35,0,0,0-1,4.4,8.26,8.26,0,0,0,1,4.42A3.26,3.26,0,0,0,475.61,1476.48Z" transform="translate(-157 -1259)"/><rect class="cls-3" x="139" y="238" width="100" height="10"/><rect class="cls-4" x="139" y="248" width="100" height="20"/><rect class="cls-5" x="139" y="228" width="100" height="10"/><rect class="cls-6" x="139" y="268" width="100" height="10"/><path class="cls-7" d="M366.73,1487H309.27a112,112,0,0,1-3.83-44c0.39-3.37.93-6.94,1.65-10.25,0.61-2.86,1.33-5.71,2.18-8.71h57.46c0.85,3,1.57,5.77,2.18,8.63,0.72,3.3,1.26,6.88,1.65,10.25A112.39,112.39,0,0,1,366.73,1487Z" transform="translate(-157 -1259)"/><path class="cls-4" d="M362.94,1483H313.06c-5.27-19-5.27-37,0-55h49.88C368.21,1446,368.21,1464,362.94,1483Z" transform="translate(-157 -1259)"/><path class="cls-8" d="M306.91,1432.79c0.53,0,.79.88,0.58,2l-1,6.06c-0.15,1.09-.69,2-1.19,2s-0.8-.89-0.65-2l1-6.06C305.79,1433.67,306.38,1432.79,306.91,1432.79Z" transform="translate(-157 -1259)"/><path class="cls-8" d="M371.36,1440.81c0.15,1.09-.15,2-0.65,2s-1-.89-1.19-2l-1-6.06c-0.21-1.08.06-2,.58-2s1.12,0.89,1.31,2Z" transform="translate(-157 -1259)"/><path class="cls-8" d="M306.91,1477.45c0.53,0,.79-0.88.58-2l-1-6.06c-0.15-1.09-.69-2-1.19-2s-0.8.89-.65,2l1,6.06C305.79,1476.56,306.38,1477.45,306.91,1477.45Z" transform="translate(-157 -1259)"/><path class="cls-8" d="M371.36,1469.42c0.15-1.09-.15-2-0.65-2s-1,.89-1.19,2l-1,6.06c-0.21,1.08.06,2,.58,2s1.12-.89,1.31-2Z" transform="translate(-157 -1259)"/><g class="cls-9"><path class="cls-8" d="M309.51,1455.5" transform="translate(-157 -1259)"/><path class="cls-8" d="M359,1483h-1v-55h1v55Zm-7,0h-1v-55h1v55Zm-7,0h-1v-55h1v55Zm-7,0h-1v-55h1v55Zm-7,0h-1v-55h1v55Zm-7,0h-1v-55h1v55Zm-7,0h-1v-55h1v55Z" transform="translate(-157 -1259)"/><path class="cls-8" d="M365.72,1455.5" transform="translate(-157 -1259)"/></g><path class="cls-10" d="M362.94,1483H313.06a100.79,100.79,0,0,1-3.69-35h57.26A100.79,100.79,0,0,1,362.94,1483Z" transform="translate(-157 -1259)"/><polyline class="cls-12" points="162.88 173.5 143 153.38 143 28 143 0"/><polyline class="cls-13" points="163 198 163 174 162.88 173.5 143 153.38 143 28 143 0"/><path class="cls-11" d="M328.25,1472a0.92,0.92,0,0,1,.27.67,0.88,0.88,0,0,1-.27.66,0.93,0.93,0,0,1-.67.26h-6.8a0.9,0.9,0,0,1-.92-0.92,0.93,0.93,0,0,1,.26-0.67,0.88,0.88,0,0,1,.66-0.27h2.62v-11.15l-2.24,1.1-0.22.09a1.26,1.26,0,0,1-.41,0,0.79,0.79,0,0,1-.56-0.26,1.06,1.06,0,0,1-.26-0.78,0.88,0.88,0,0,1,.57-0.8l3-1.56a1.37,1.37,0,0,1,.62-0.15h0.46a1.05,1.05,0,0,1,1.06,1.06v12.43h2.18A0.91,0.91,0,0,1,328.25,1472Z" transform="translate(-157 -1259)"/><path class="cls-11" d="M337.62,1458a5.64,5.64,0,0,1,2.6.57,5.11,5.11,0,0,1,1.87,1.63,11.64,11.64,0,0,1,0,11.42,5.67,5.67,0,0,1-8.93,0,11.64,11.64,0,0,1,0-11.42A5.15,5.15,0,0,1,337.62,1458Zm0,13.95a3.26,3.26,0,0,0,2.95-1.63,10.12,10.12,0,0,0,0-8.82,3.49,3.49,0,0,0-5.91,0,8.35,8.35,0,0,0-1,4.4,8.26,8.26,0,0,0,1,4.42A3.26,3.26,0,0,0,337.62,1472Z" transform="translate(-157 -1259)"/><path class="cls-11" d="M351.43,1458a5.64,5.64,0,0,1,2.6.57,5.11,5.11,0,0,1,1.87,1.63,11.64,11.64,0,0,1,0,11.42,5.67,5.67,0,0,1-8.93,0,11.64,11.64,0,0,1,0-11.42A5.15,5.15,0,0,1,351.43,1458Zm0,13.95a3.26,3.26,0,0,0,2.95-1.63,10.12,10.12,0,0,0,0-8.82,3.49,3.49,0,0,0-5.91,0,8.35,8.35,0,0,0-1,4.4,8.26,8.26,0,0,0,1,4.42A3.26,3.26,0,0,0,351.43,1472Z" transform="translate(-157 -1259)"/><rect class="cls-3" x="418" y="238" width="100" height="10"/><rect class="cls-4" x="418" y="248" width="100" height="20"/><rect class="cls-5" x="418" y="228" width="100" height="10"/><rect class="cls-6" x="418" y="268" width="100" height="10"/><path class="cls-7" d="M662.31,1487H587.69a143.17,143.17,0,0,1-5-57q0.75-6.56,2.14-13,1.18-5.57,2.83-11h74.62q1.65,5.44,2.83,11,1.4,6.43,2.14,13A143.17,143.17,0,0,1,662.31,1487Z" transform="translate(-157 -1259)"/><path class="cls-4" d="M657.39,1482H592.61c-6.84-24-6.84-48,0-71h64.78C664.23,1434,664.23,1458,657.39,1482Z" transform="translate(-157 -1259)"/><path class="cls-8" d="M584.62,1417c0.68,0,1.07.88,0.87,2L584,1428c-0.15,1.09-.81,2-1.47,2s-1.07-.89-0.93-2l1.42-9C583.22,1417.89,583.94,1417,584.62,1417Z" transform="translate(-157 -1259)"/><path class="cls-8" d="M668.4,1428c0.15,1.09-.27,2-0.93,2s-1.31-.89-1.47-2l-1.49-9.05c-0.21-1.08.18-2,.87-2s1.4,0.89,1.6,2Z" transform="translate(-157 -1259)"/><path class="cls-8" d="M584.62,1475c0.68,0,1.07-.88.87-2L584,1464c-0.15-1.09-.81-2-1.47-2s-1.07.89-.93,2l1.42,9C583.22,1474.11,583.94,1475,584.62,1475Z" transform="translate(-157 -1259)"/><path class="cls-8" d="M668.4,1464c0.15-1.09-.27-2-0.93-2s-1.31.89-1.47,2l-1.49,9.05c-0.21,1.08.18,2,.87,2s1.4-.89,1.6-2Z" transform="translate(-157 -1259)"/><g class="cls-9"><path class="cls-8" d="M588,1446.5" transform="translate(-157 -1259)"/><path class="cls-8" d="M652,1482h-1v-71h1v71Zm-9,0h-1v-71h1v71Zm-9,0h-1v-71h1v71Zm-9,0h-1v-71h1v71Zm-9,0h-1v-71h1v71Zm-9,0h-1v-71h1v71Zm-9,0h-1v-71h1v71Z" transform="translate(-157 -1259)"/><path class="cls-8" d="M661,1446.5" transform="translate(-157 -1259)"/></g><polyline class="cls-12" points="441.88 155.5 422 135.38 422 87 422 0"/><polyline class="cls-13" points="442 180 442 156 441.88 155.5 422 135.38 422 87 422 0"/><rect class="cls-3" x="696" y="238" width="100" height="10"/><rect class="cls-4" x="696" y="248" width="100" height="20"/><rect class="cls-5" x="696" y="228" width="100" height="10"/><rect class="cls-6" x="696" y="268" width="100" height="10"/><path class="cls-7" d="M909.12,1487H864.88c-3.27-12-4.25-22.84-2.95-34,0.3-2.59.72-5.53,1.27-8.07,0.47-2.2,1-3.89,1.68-6.89h44.24c0.65,3,1.21,4.57,1.68,6.77,0.55,2.54,1,5.48,1.27,8.07A88.14,88.14,0,0,1,909.12,1487Z" transform="translate(-157 -1259)"/><path class="cls-4" d="M906.21,1484H867.8c-4.06-15-4.06-29,0-43h38.41C910.26,1455,910.26,1469,906.21,1484Z" transform="translate(-157 -1259)"/><path class="cls-8" d="M863.06,1445c0.4,0,.57.88,0.36,2l-0.62,3.76c-0.15,1.09-.59,2-1,2s-0.59-.89-0.44-2L862,1447C862.16,1445.9,862.66,1445,863.06,1445Z" transform="translate(-157 -1259)"/><path class="cls-8" d="M912.62,1450.73c0.15,1.09-.05,2-0.44,2s-0.83-.89-1-2l-0.62-3.76c-0.21-1.08,0-2,.36-2s0.9,0.89,1.09,2Z" transform="translate(-157 -1259)"/><path class="cls-8" d="M863.06,1479.4c0.4,0,.57-0.88.36-2l-0.62-3.76c-0.15-1.09-.59-2-1-2s-0.59.89-.44,2l0.59,3.76C862.16,1478.51,862.66,1479.4,863.06,1479.4Z" transform="translate(-157 -1259)"/><path class="cls-8" d="M912.62,1473.67c0.15-1.09-.05-2-0.44-2s-0.83.89-1,2l-0.62,3.76c-0.21,1.08,0,2,.36,2s0.9-.89,1.09-2Z" transform="translate(-157 -1259)"/><g class="cls-9"><path class="cls-8" d="M865.06,1462.5" transform="translate(-157 -1259)"/><path class="cls-8" d="M903,1484h-1v-43h1v43Zm-5,0h-1v-43h1v43Zm-6,0h0v-43h0v43Zm-5,0h-1v-43h1v43Zm-5,0h-1v-43h1v43Zm-6,0h-1v-43h1v43Zm-5,0h-1v-43h1v43Z" transform="translate(-157 -1259)"/><path class="cls-8" d="M908.35,1462.5" transform="translate(-157 -1259)"/></g><polyline class="cls-12" points="719.88 187.5 700 167.38 700 42 700 0"/><polyline class="cls-13" points="720 212 720 188 719.88 187.5 700 167.38 700 42 700 0"/><rect class="cls-3" x="557" y="238" width="100" height="10"/><rect class="cls-4" x="557" y="248" width="100" height="20"/><rect class="cls-5" x="557" y="228" width="100" height="10"/><rect class="cls-6" x="557" y="268" width="100" height="10"/><path class="cls-7" d="M784.73,1487H727.27a112,112,0,0,1-3.83-44c0.39-3.37.93-6.94,1.65-10.25,0.61-2.86,1.33-5.71,2.18-8.71h57.46c0.85,3,1.57,5.77,2.18,8.63,0.72,3.3,1.26,6.88,1.65,10.25A112.39,112.39,0,0,1,784.73,1487Z" transform="translate(-157 -1259)"/><path class="cls-4" d="M780.94,1483H731.06c-5.27-19-5.27-37,0-55h49.88C786.21,1446,786.21,1464,780.94,1483Z" transform="translate(-157 -1259)"/><path class="cls-8" d="M724.91,1432.79c0.53,0,.79.88,0.58,2l-1,6.06c-0.15,1.09-.69,2-1.19,2s-0.8-.89-0.65-2l1-6.06C723.79,1433.67,724.38,1432.79,724.91,1432.79Z" transform="translate(-157 -1259)"/><path class="cls-8" d="M789.36,1440.81c0.15,1.09-.15,2-0.65,2s-1-.89-1.19-2l-1-6.06c-0.21-1.08.06-2,.58-2s1.12,0.89,1.31,2Z" transform="translate(-157 -1259)"/><path class="cls-8" d="M724.91,1477.45c0.53,0,.79-0.88.58-2l-1-6.06c-0.15-1.09-.69-2-1.19-2s-0.8.89-.65,2l1,6.06C723.79,1476.56,724.38,1477.45,724.91,1477.45Z" transform="translate(-157 -1259)"/><path class="cls-8" d="M789.36,1469.42c0.15-1.09-.15-2-0.65-2s-1,.89-1.19,2l-1,6.06c-0.21,1.08.06,2,.58,2s1.12-.89,1.31-2Z" transform="translate(-157 -1259)"/><g class="cls-9"><path class="cls-8" d="M727.51,1455.5" transform="translate(-157 -1259)"/><path class="cls-8" d="M777,1483h-1v-55h1v55Zm-7,0h-1v-55h1v55Zm-7,0h-1v-55h1v55Zm-7,0h-1v-55h1v55Zm-7,0h-1v-55h1v55Zm-7,0h-1v-55h1v55Zm-7,0h-1v-55h1v55Z" transform="translate(-157 -1259)"/><path class="cls-8" d="M783.72,1455.5" transform="translate(-157 -1259)"/></g><polyline class="cls-12" points="580.88 173.5 561 153.38 561 28 561 0"/><polyline class="cls-13" points="581 198 581 174 580.88 173.5 561 153.38 561 28 561 0"/><path class="cls-14" d="M632,1445.24c0.35-21.61,18.82-38.78,34.32-52.31" transform="translate(-157 -1259)"/><path class="cls-14" d="M632,1445.24c1.8-4.74,2.29-10.46,2.78-15.53a117.4,117.4,0,0,0-.66-33.84" transform="translate(-157 -1259)"/><path class="cls-14" d="M632.65,1443.77c-2.94-17.82-9.31-34-18.31-49.69" transform="translate(-157 -1259)"/><path class="cls-14" d="M633.09,1443.6c-4.15-1.27-15.91-40.62-21-36.94" transform="translate(-157 -1259)"/><path class="cls-14" d="M633.63,1438.15c4.64-3.81,8.08-8.73,13-12.36,5.13-3.77,11.23-5.63,16.23-9.74" transform="translate(-157 -1259)"/><path class="cls-14" d="M631.18,1444.26c1.8-5.39,1.63-11.6,1.47-17.33-0.32-6.54-.49-13.57-1.63-20.11-1.15-6.21-3.11-12.26-3.92-18.64-0.49-4.09-.82-8-2.29-11.93" transform="translate(-157 -1259)"/><path class="cls-14" d="M632,1442.63c2.29-3.76,2.78-9,3.76-13.08,2.45-9.48,4.57-19.12,7-28.44,1.31-4.74,3.92-8.83,5.56-13.4,0.82-2.13,1.14-4.41,2.94-6.05" transform="translate(-157 -1259)"/><path class="cls-15" d="M623.49,1378.55c-1.47.16-3.92,0-4.57-1.47-0.49-1.31,0-2.13,1.47-2,0-1.63-.33-2.78,1-3.92,1.31-1.47,3.76-1.8,4.74.16-0.82-3.1,3.27-1.63,3.92.17,1,2.61-1.31,4.09-3.11,2.29,3.11,2.13.65,7.68-2.45,5.72-1.8-1.14,1.47-3.27,2-.32-3.27,1.63-5.23-5.89-2.12-4.42a2.5,2.5,0,0,1,.82-2.12" transform="translate(-157 -1259)"/><path class="cls-15" d="M649.65,1387.7c-1.47.16-3.92,0-4.58-1.47-0.49-1.31,0-2.13,1.47-2,0-1.63-.33-2.78,1-3.92,1.31-1.47,3.76-1.8,4.74.16-0.82-3.1,3.27-1.63,3.92.17,1,2.61-1.31,4.08-3.1,2.29,3.1,2.13.65,7.68-2.45,5.72-1.8-1.14,1.47-3.27,2-.32-3.27,1.63-5.23-5.89-2.13-4.42a2.51,2.51,0,0,1,.82-2.12" transform="translate(-157 -1259)"/><path class="cls-15" d="M634,1400.78c-1.47.16-3.92,0-4.58-1.47-0.49-1.31,0-2.12,1.47-2,0-1.63-.33-2.78,1-3.92,1.31-1.47,3.76-1.8,4.74.16-0.82-3.11,3.27-1.64,3.92.16,1,2.61-1.31,4.08-3.11,2.29,3.11,2.13.65,7.68-2.45,5.72-1.8-1.14,1.47-3.27,2-.33-3.27,1.64-5.23-5.88-2.12-4.41a2.51,2.51,0,0,1,.81-2.12" transform="translate(-157 -1259)"/><path class="cls-15" d="M614.34,1398.17c-1.47.16-3.92,0-4.57-1.47-0.49-1.31,0-2.13,1.47-2,0-1.63-.33-2.78,1-3.92,1.31-1.47,3.76-1.8,4.74.17-0.82-3.11,3.27-1.64,3.92.16,1,2.62-1.31,4.09-3.11,2.29,3.11,2.12.65,7.68-2.45,5.72-1.8-1.14,1.47-3.27,2-.33-3.27,1.64-5.23-5.88-2.12-4.41a2.51,2.51,0,0,1,.82-2.13" transform="translate(-157 -1259)"/><path class="cls-15" d="M610.42,1411.24c-1.47.16-3.92,0-4.58-1.47-0.49-1.31,0-2.13,1.47-2,0-1.64-.33-2.78,1-3.92,1.31-1.47,3.76-1.8,4.74.16-0.82-3.11,3.27-1.64,3.92.16,1,2.62-1.31,4.09-3.11,2.29,3.11,2.13.65,7.68-2.45,5.72-1.8-1.14,1.47-3.27,2-.33-3.27,1.63-5.23-5.88-2.12-4.41a2.51,2.51,0,0,1,.82-2.13" transform="translate(-157 -1259)"/><path class="cls-11" d="M623.82,1374.18c0.67,0,1.67-.25,2,0.47l0.13-.51a2.49,2.49,0,0,1-1.22.3c-0.38,0-.9,0-0.64-0.44a0.38,0.38,0,0,0-.65-0.38c-1,1.8,1.92,1.8,2.88,1.17a0.38,0.38,0,0,0,.13-0.51c-0.54-1-1.71-.85-2.69-0.84a0.38,0.38,0,0,0,0,.75h0Z" transform="translate(-157 -1259)"/><path class="cls-11" d="M651.2,1383.4a0.46,0.46,0,0,1-.5-0.37c-0.07-.25.41-0.2,0.53-0.11a0.4,0.4,0,0,1,.12.42c0,0.11-.3-0.1-0.38-0.16-0.37-.3-0.9.22-0.53,0.53a1,1,0,0,0,1.55,0,1.12,1.12,0,0,0-.36-1.45,1.08,1.08,0,0,0-1.65.51,1.17,1.17,0,0,0,1.22,1.35,0.38,0.38,0,0,0,0-.75h0Z" transform="translate(-157 -1259)"/><path class="cls-11" d="M635,1396.88a1.17,1.17,0,0,1,1.12-.38l-0.36-.28a1.11,1.11,0,0,1-.8,1.52,1,1,0,0,1-1.08-1,0.65,0.65,0,0,1,.72-0.27c0.28,0,.45.1,0.28,0.3-0.3.37,0.22,0.9,0.53,0.53,1.17-1.43-1.64-2.27-2.23-.82-0.4,1,.8,2,1.69,2a1.84,1.84,0,0,0,1.62-2.47,0.39,0.39,0,0,0-.36-0.28,1.85,1.85,0,0,0-1.65.6c-0.32.36,0.21,0.9,0.53,0.53h0Z" transform="translate(-157 -1259)"/><path class="cls-11" d="M614.32,1394c0.22,0.18.61,0.56,0.09,0.56s0.35-1,.43-1.07c0.32-.31.63-0.1,0.79,0.23s-0.25.2-.46,0.09l-0.09.69a1.38,1.38,0,0,1,1.81,1l0.28-.36a0.75,0.75,0,0,1-.53,0,0.38,0.38,0,0,0-.2.72,1.76,1.76,0,0,0,.93,0,0.37,0.37,0,0,0,.28-0.36,2.12,2.12,0,0,0-2.76-1.75,0.38,0.38,0,0,0-.09.69,1.31,1.31,0,0,0,1.3.14,0.9,0.9,0,0,0,.27-1,1.24,1.24,0,0,0-2.14-.52c-0.65.63-1.15,2.16,0.18,2.27a1,1,0,0,0,.95-0.53,1.15,1.15,0,0,0-.51-1.31c-0.37-.31-0.9.22-0.53,0.53h0Z" transform="translate(-157 -1259)"/><path class="cls-11" d="M610.72,1406.85c0.25,0.23.59,0.86,0.09,1l0.42,0.17a1.07,1.07,0,0,1,.08-1.1c0.2-.25.5,0.37,0.47,0.54,0-.1.11,0-0.07-0.08a1.3,1.3,0,0,1-.37-0.16,1.2,1.2,0,0,1-.56-0.66l-0.26.46a1.16,1.16,0,0,1,1,.21c0.4,0.27.78-.38,0.38-0.65a1.88,1.88,0,0,0-1.6-.28,0.38,0.38,0,0,0-.26.46,2.13,2.13,0,0,0,1.39,1.32,0.74,0.74,0,0,0,1.07-.83c-0.16-.68-0.77-1.46-1.52-1a1.73,1.73,0,0,0-.4,2.18,0.37,0.37,0,0,0,.42.17c1.08-.32.94-1.61,0.25-2.26a0.38,0.38,0,0,0-.53.53h0Z" transform="translate(-157 -1259)"/><path class="cls-15" d="M662.56,1398c-1.47.16-3.92,0-4.58-1.47-0.49-1.31,0-2.13,1.47-2,0-1.63-.33-2.78,1-3.92,1.31-1.47,3.76-1.8,4.74.16-0.82-3.1,3.27-1.63,3.92.17,1,2.61-1.31,4.09-3.11,2.29,3.11,2.13.65,7.68-2.45,5.72-1.8-1.14,1.47-3.27,2-.32-3.27,1.63-5.23-5.89-2.13-4.42a2.51,2.51,0,0,1,.82-2.12" transform="translate(-157 -1259)"/><path class="cls-11" d="M664.11,1393.73a0.45,0.45,0,0,1-.5-0.37c-0.07-.25.41-0.2,0.53-0.11a0.4,0.4,0,0,1,.12.42c0,0.11-.3-0.1-0.38-0.16-0.37-.3-0.9.22-0.53,0.53a1,1,0,0,0,1.55,0,1.12,1.12,0,0,0-.36-1.45,1.08,1.08,0,0,0-1.65.51,1.17,1.17,0,0,0,1.22,1.35,0.38,0.38,0,0,0,0-.75h0Z" transform="translate(-157 -1259)"/><path class="cls-16" d="M657.24,1482H592.85a127,127,0,0,1-4.76-45H662A127,127,0,0,1,657.24,1482Z" transform="translate(-157 -1259)"/><path class="cls-17" d="M657.24,1482H592.85a127,127,0,0,1-4.76-45H662A127,127,0,0,1,657.24,1482Z" transform="translate(-157 -1259)"/><path class="cls-14" d="M761.39,1454.38c0.27-16.74,14.58-30,26.59-40.52" transform="translate(-157 -1259)"/><path class="cls-14" d="M761.39,1454.38c1.39-3.67,1.77-8.1,2.15-12a90.93,90.93,0,0,0-.51-26.21" transform="translate(-157 -1259)"/><path class="cls-14" d="M761.89,1453.24c-2.28-13.8-7.22-26.34-14.18-38.49" transform="translate(-157 -1259)"/><path class="cls-14" d="M762.23,1453.11c-3.22-1-12.33-31.47-16.24-28.61" transform="translate(-157 -1259)"/><path class="cls-14" d="M762.65,1448.88c3.6-3,6.26-6.77,10.1-9.57s8.7-4.36,12.57-7.55" transform="translate(-157 -1259)"/><path class="cls-14" d="M760.75,1453.61c1.39-4.18,1.27-9,1.14-13.42a128.85,128.85,0,0,0-1.26-15.57c-0.89-4.81-2.41-9.5-3-14.44a38.43,38.43,0,0,0-1.77-9.24" transform="translate(-157 -1259)"/><path class="cls-14" d="M761.39,1452.35c1.77-2.91,2.15-7,2.91-10.13,1.9-7.34,3.54-14.81,5.44-22,1-3.67,3-6.84,4.3-10.38,0.63-1.65.89-3.42,2.28-4.69" transform="translate(-157 -1259)"/><path class="cls-15" d="M754.8,1402.71c-1.14.12-3,0-3.54-1.14s0-1.65,1.14-1.52c0-1.27-.25-2.15.76-3,1-1.14,2.91-1.39,3.67.13-0.63-2.4,2.53-1.26,3,.13,0.76,2-1,3.16-2.41,1.77,2.41,1.65.51,6-1.9,4.43-1.39-.89,1.14-2.53,1.52-0.25-2.53,1.26-4.05-4.56-1.64-3.42a1.94,1.94,0,0,1,.63-1.64" transform="translate(-157 -1259)"/><path class="cls-15" d="M775.06,1409.81c-1.14.12-3,0-3.54-1.14s0-1.65,1.14-1.52c0-1.27-.25-2.15.76-3,1-1.14,2.91-1.39,3.67.13-0.63-2.4,2.53-1.26,3,.13,0.76,2-1,3.16-2.41,1.77,2.41,1.65.51,6-1.9,4.43-1.39-.89,1.14-2.53,1.52-0.25-2.53,1.26-4.05-4.56-1.65-3.42a1.94,1.94,0,0,1,.63-1.64" transform="translate(-157 -1259)"/><path class="cls-15" d="M762.91,1419.93c-1.14.13-3,0-3.55-1.14s0-1.64,1.14-1.52c0-1.26-.25-2.15.76-3,1-1.14,2.91-1.39,3.67.13-0.63-2.41,2.53-1.27,3,.13,0.76,2-1,3.16-2.41,1.77,2.41,1.65.51,6-1.9,4.43-1.39-.89,1.14-2.53,1.52-0.25-2.53,1.27-4.05-4.56-1.65-3.42a1.94,1.94,0,0,1,.63-1.64" transform="translate(-157 -1259)"/><path class="cls-15" d="M747.71,1417.91c-1.14.13-3,0-3.54-1.14s0-1.65,1.14-1.52c0-1.27-.25-2.15.76-3,1-1.14,2.91-1.39,3.67.13-0.63-2.41,2.53-1.27,3,.12,0.76,2-1,3.17-2.41,1.77,2.41,1.64.51,6-1.9,4.43-1.39-.89,1.14-2.53,1.52-0.25-2.53,1.27-4.05-4.56-1.64-3.42a2,2,0,0,1,.63-1.65" transform="translate(-157 -1259)"/><path class="cls-15" d="M744.67,1428c-1.14.13-3,0-3.55-1.14s0-1.65,1.14-1.52c0-1.27-.25-2.15.76-3,1-1.14,2.91-1.39,3.67.13-0.63-2.41,2.53-1.27,3,.13,0.76,2-1,3.16-2.41,1.77,2.41,1.65.51,6-1.9,4.43-1.39-.89,1.14-2.53,1.52-0.25-2.53,1.27-4.05-4.56-1.65-3.42a1.94,1.94,0,0,1,.63-1.65" transform="translate(-157 -1259)"/><path class="cls-11" d="M755.05,1399.42c0.48,0,1.24-.19,1.51.32l0.13-.51a1.82,1.82,0,0,1-.83.22,1.57,1.57,0,0,1-.47,0c-0.16,0-.1,0,0-0.18a0.38,0.38,0,0,0-.65-0.38c-0.8,1.5,1.52,1.55,2.35,1a0.38,0.38,0,0,0,.13-0.51c-0.45-.83-1.36-0.71-2.16-0.69a0.38,0.38,0,0,0,0,.75h0Z" transform="translate(-157 -1259)"/><path class="cls-11" d="M776.26,1406.39c-0.42,0-.28-0.45,0-0.19a0.21,0.21,0,0,1,0,.18s0,0,0,0a0.48,0.48,0,0,1-.21-0.12c-0.37-.3-0.91.23-0.53,0.53a0.85,0.85,0,0,0,1.34,0,1,1,0,0,0-.35-1.25,0.91,0.91,0,0,0-1.38.52,1,1,0,0,0,1,1.1,0.38,0.38,0,0,0,0-.75h0Z" transform="translate(-157 -1259)"/><path class="cls-11" d="M763.74,1417a0.85,0.85,0,0,1,.81-0.27l-0.36-.28a0.78,0.78,0,0,1-.47,1,0.68,0.68,0,0,1-.83-0.64c0-.18.33-0.18,0.46-0.17a0.5,0.5,0,0,1,.23.08s0-.06-0.06,0c-0.3.37,0.23,0.91,0.53,0.53,1-1.23-1.37-2-1.87-.71-0.34.84,0.69,1.69,1.44,1.67a1.52,1.52,0,0,0,1.29-2,0.39,0.39,0,0,0-.36-0.28,1.52,1.52,0,0,0-1.34.49c-0.32.36,0.21,0.89,0.53,0.53h0Z" transform="translate(-157 -1259)"/><path class="cls-11" d="M747.64,1414.76a1.09,1.09,0,0,1,.26.27,1.11,1.11,0,0,0-.11,0,1.12,1.12,0,0,1,.32-0.63,0.28,0.28,0,0,1,.51.07,1.23,1.23,0,0,0,0,.17c0-.07.09,0,0-0.05a1,1,0,0,1-.31-0.12l-0.09.69a1,1,0,0,1,1.3.71l0.28-.36a0.5,0.5,0,0,1-.37,0,0.38,0.38,0,0,0-.2.72,1.45,1.45,0,0,0,.77,0,0.37,0.37,0,0,0,.28-0.36,1.73,1.73,0,0,0-2.25-1.44,0.38,0.38,0,0,0-.09.69,1.07,1.07,0,0,0,1.11.09,0.79,0.79,0,0,0,.23-0.88,1,1,0,0,0-1.79-.46c-0.57.54-.93,1.86,0.21,1.91a0.86,0.86,0,0,0,.78-0.44,1,1,0,0,0-.4-1.13c-0.37-.31-0.9.22-0.53,0.53h0Z" transform="translate(-157 -1259)"/><path class="cls-11" d="M744.85,1424.69c0.14,0.13.42,0.54,0.1,0.64l0.42,0.17a0.79,0.79,0,0,1,0-.72c0.07-.12.06,0,0.14,0.07s0,0.23.22,0.12a0.91,0.91,0,0,1-.73-0.58l-0.26.46a0.83,0.83,0,0,1,.72.15c0.4,0.27.78-.38,0.38-0.65a1.57,1.57,0,0,0-1.3-.23,0.38,0.38,0,0,0-.26.46,1.75,1.75,0,0,0,1.13,1.08,0.65,0.65,0,0,0,.94-0.7,1,1,0,0,0-1.3-.91,1.43,1.43,0,0,0-.35,1.81,0.37,0.37,0,0,0,.42.17,1.09,1.09,0,0,0,.23-1.89,0.38,0.38,0,0,0-.53.53h0Z" transform="translate(-157 -1259)"/><path class="cls-15" d="M785.06,1417.81c-1.14.12-3,0-3.54-1.14s0-1.65,1.14-1.52c0-1.27-.25-2.15.76-3,1-1.14,2.91-1.39,3.67.13-0.63-2.4,2.53-1.26,3,.13,0.76,2-1,3.16-2.41,1.77,2.41,1.65.51,6-1.9,4.43-1.39-.89,1.14-2.53,1.52-0.25-2.53,1.26-4.05-4.56-1.65-3.42a1.94,1.94,0,0,1,.63-1.64" transform="translate(-157 -1259)"/><path class="cls-11" d="M786.26,1414.39c-0.42,0-.28-0.45,0-0.19a0.21,0.21,0,0,1,0,.18s0,0,0,0a0.48,0.48,0,0,1-.21-0.12c-0.37-.3-0.91.23-0.53,0.53a0.85,0.85,0,0,0,1.34,0,1,1,0,0,0-.35-1.25,0.91,0.91,0,0,0-1.38.52,1,1,0,0,0,1,1.1,0.38,0.38,0,0,0,0-.75h0Z" transform="translate(-157 -1259)"/><path class="cls-16" d="M780.94,1483H731.06a100.79,100.79,0,0,1-3.69-35h57.26A100.79,100.79,0,0,1,780.94,1483Z" transform="translate(-157 -1259)"/><path class="cls-17" d="M780.94,1483H731.06a100.79,100.79,0,0,1-3.69-35h57.26A100.79,100.79,0,0,1,780.94,1483Z" transform="translate(-157 -1259)"/><path class="cls-14" d="M891.37,1461.93c0.21-12.91,11.24-23.16,20.5-31.24" transform="translate(-157 -1259)"/><path class="cls-14" d="M891.37,1461.93a36.93,36.93,0,0,0,1.66-9.27,70.09,70.09,0,0,0-.39-20.21" transform="translate(-157 -1259)"/><path class="cls-14" d="M891.76,1461.05a87.78,87.78,0,0,0-10.93-29.68" transform="translate(-157 -1259)"/><path class="cls-14" d="M892,1461c-2.48-.76-9.5-24.26-12.52-22.06" transform="translate(-157 -1259)"/><path class="cls-14" d="M892.34,1457.7c2.77-2.28,4.83-5.22,7.79-7.38s6.7-3.36,9.69-5.82" transform="translate(-157 -1259)"/><path class="cls-14" d="M890.88,1461.35c1.07-3.22,1-6.93.88-10.35a99.37,99.37,0,0,0-1-12c-0.69-3.71-1.86-7.32-2.34-11.13a29.61,29.61,0,0,0-1.37-7.13" transform="translate(-157 -1259)"/><path class="cls-14" d="M891.37,1460.37c1.37-2.25,1.66-5.37,2.25-7.81,1.46-5.66,2.73-11.42,4.2-17,0.78-2.83,2.34-5.27,3.32-8,0.49-1.27.68-2.63,1.76-3.61" transform="translate(-157 -1259)"/><path class="cls-15" d="M886.29,1422.11c-0.88.1-2.34,0-2.73-.88s0-1.27.88-1.17c0-1-.2-1.66.58-2.34a1.69,1.69,0,0,1,2.83.1c-0.49-1.85,2-1,2.34.1,0.59,1.56-.78,2.44-1.85,1.37,1.85,1.27.39,4.59-1.46,3.42-1.07-.68.88-2,1.17-0.19-2,1-3.12-3.52-1.27-2.64a1.5,1.5,0,0,1,.49-1.27" transform="translate(-157 -1259)"/><path class="cls-15" d="M901.91,1427.57c-0.88.1-2.34,0-2.73-.88s0-1.27.88-1.17c0-1-.2-1.66.59-2.34a1.69,1.69,0,0,1,2.83.1c-0.49-1.85,2-1,2.34.1,0.59,1.56-.78,2.44-1.85,1.37,1.85,1.27.39,4.59-1.46,3.42-1.07-.68.88-2,1.17-0.19-2,1-3.12-3.52-1.27-2.64a1.5,1.5,0,0,1,.49-1.27" transform="translate(-157 -1259)"/><path class="cls-15" d="M892.54,1435.38c-0.88.1-2.34,0-2.73-.88s0-1.27.88-1.17c0-1-.2-1.66.58-2.34a1.69,1.69,0,0,1,2.83.1c-0.49-1.85,2-1,2.34.1,0.59,1.56-.78,2.44-1.85,1.37,1.85,1.27.39,4.59-1.46,3.42-1.07-.68.88-2,1.17-0.2-2,1-3.12-3.51-1.27-2.64a1.5,1.5,0,0,1,.49-1.27" transform="translate(-157 -1259)"/><path class="cls-15" d="M880.83,1433.82c-0.88.1-2.34,0-2.73-.88s0-1.27.88-1.17c0-1-.2-1.66.58-2.34a1.69,1.69,0,0,1,2.83.1c-0.49-1.86,2-1,2.34.1,0.59,1.56-.78,2.44-1.85,1.37,1.85,1.27.39,4.59-1.46,3.42-1.07-.68.88-2,1.17-0.2-2,1-3.12-3.51-1.27-2.64a1.5,1.5,0,0,1,.49-1.27" transform="translate(-157 -1259)"/><path class="cls-15" d="M878.48,1441.63c-0.88.1-2.34,0-2.73-.88s0-1.27.88-1.17c0-1-.2-1.66.59-2.34a1.68,1.68,0,0,1,2.83.1c-0.49-1.86,2-1,2.34.1,0.59,1.56-.78,2.44-1.85,1.37,1.85,1.27.39,4.59-1.47,3.42-1.07-.68.88-2,1.17-0.2-2,1-3.12-3.51-1.27-2.64a1.5,1.5,0,0,1,.49-1.27" transform="translate(-157 -1259)"/><path class="cls-11" d="M886.49,1419.65a1.16,1.16,0,0,1,1.09.21l0.13-.51a1.27,1.27,0,0,1-.53.15,1.92,1.92,0,0,1-.34,0c-0.2,0-.07,0,0,0a0.38,0.38,0,0,0-.65-0.38c-0.65,1.25,1.2,1.36,1.93.9a0.38,0.38,0,0,0,.13-0.51,1.66,1.66,0,0,0-1.74-.58,0.38,0.38,0,0,0,0,.75h0Z" transform="translate(-157 -1259)"/><path class="cls-11" d="M902.84,1424.85a0.2,0.2,0,1,0-.08,0,0.1,0.1,0,0,1,0,.09c0-.21.26,0,0-0.16s-0.91.23-.53,0.53a0.74,0.74,0,0,0,1.16,0,0.82,0.82,0,0,0-.28-1.08,0.8,0.8,0,0,0-1.19.4,0.85,0.85,0,0,0,.88,1,0.38,0.38,0,0,0,0-.75h0Z" transform="translate(-157 -1259)"/><path class="cls-11" d="M893.25,1433.16a0.59,0.59,0,0,1,.56-0.18l-0.36-.28c0.25,0.84-.91.84-0.83,0.31,0-.07.16-0.07,0.22-0.07a0.39,0.39,0,0,1,.14,0c0.1,0,0-.13,0-0.09-0.29.38,0.23,0.91,0.53,0.53,0.88-1.12-1.27-1.72-1.58-.64a1.19,1.19,0,0,0,1.13,1.41,1.25,1.25,0,0,0,1.14-1.67,0.39,0.39,0,0,0-.36-0.28,1.27,1.27,0,0,0-1.09.4,0.38,0.38,0,0,0,.53.53h0Z" transform="translate(-157 -1259)"/><path class="cls-11" d="M880.71,1431.45a0.64,0.64,0,0,0,.17.15,0.22,0.22,0,0,1,0-.07c-0.11,0,0,0,0,.06a0.8,0.8,0,0,1,.24-0.4c0.12-.14.18-0.11,0.26,0s0,0.15,0,0,0.14,0-.09-0.15l-0.09.69a0.68,0.68,0,0,1,.89.47l0.28-.36h-0.24a0.38,0.38,0,0,0-.2.72,1.32,1.32,0,0,0,.64,0,0.37,0.37,0,0,0,.28-0.36,1.42,1.42,0,0,0-1.84-1.19,0.38,0.38,0,0,0-.09.69,0.93,0.93,0,0,0,.93.08,0.69,0.69,0,0,0,.22-0.8,0.89,0.89,0,0,0-1.52-.37c-0.52.48-.71,1.51,0.2,1.62a0.74,0.74,0,0,0,.7-0.4,0.82,0.82,0,0,0-.33-1c-0.36-.31-0.9.21-0.53,0.53h0Z" transform="translate(-157 -1259)"/><path class="cls-11" d="M878.56,1439.11s0.27,0.3.12,0.35l0.42,0.17a0.55,0.55,0,0,1,0-.4q0.12-.15,0,0,0.06,0.31.26,0a0.65,0.65,0,0,1-.48-0.39l-0.26.46a0.54,0.54,0,0,1,.49.11,0.38,0.38,0,0,0,.38-0.65,1.35,1.35,0,0,0-1.07-.18,0.38,0.38,0,0,0-.26.46,1.44,1.44,0,0,0,1,.91,0.58,0.58,0,0,0,.75-0.69,0.82,0.82,0,0,0-1.13-.72,1.19,1.19,0,0,0-.3,1.51,0.37,0.37,0,0,0,.42.17,0.93,0.93,0,0,0,.21-1.6,0.38,0.38,0,0,0-.53.53h0Z" transform="translate(-157 -1259)"/><path class="cls-15" d="M909.62,1433.74c-0.88.1-2.34,0-2.73-.88s0-1.27.88-1.17c0-1-.2-1.66.59-2.34a1.69,1.69,0,0,1,2.83.1c-0.49-1.85,2-1,2.34.1,0.59,1.56-.78,2.44-1.85,1.37,1.85,1.27.39,4.59-1.46,3.42-1.07-.68.88-2,1.17-0.19-2,1-3.12-3.52-1.27-2.64a1.5,1.5,0,0,1,.49-1.27" transform="translate(-157 -1259)"/><path class="cls-11" d="M910.55,1431a0.21,0.21,0,1,0-.08,0,0.1,0.1,0,0,1,0,.1c0-.21.26,0,0-0.16s-0.91.23-.53,0.53a0.74,0.74,0,0,0,1.16,0,0.82,0.82,0,0,0-.28-1.09,0.8,0.8,0,0,0-1.19.4,0.85,0.85,0,0,0,.88,1,0.38,0.38,0,0,0,0-.75h0Z" transform="translate(-157 -1259)"/><path class="cls-16" d="M906.44,1484H868a78.4,78.4,0,0,1-2.84-27h44.14A78.44,78.44,0,0,1,906.44,1484Z" transform="translate(-157 -1259)"/><path class="cls-17" d="M906.44,1484H868a78.4,78.4,0,0,1-2.84-27h44.14A78.44,78.44,0,0,1,906.44,1484Z" transform="translate(-157 -1259)"/></svg>