<svg id="Layer_1" data-name="Layer 1" xmlns="http://www.w3.org/2000/svg" viewBox="0 0 795 278"><defs><style>.cls-1{fill:#5f5643;}.cls-2{fill:#776c5a;}.cls-3{fill:#dce2e5;}.cls-4{fill:#874331;}.cls-5{fill:#6d4f3a;}.cls-6{fill:#a59680;}.cls-7{fill:#4c2d18;}.cls-8{fill:#934837;}.cls-9{fill:#dddcc4;}.cls-10{fill:#63362f;}.cls-11{fill:#844a3e;}.cls-12{fill:#4d4d4d;}.cls-13{fill:#73a3ec;}.cls-14{fill:#b76c53;}.cls-15{fill:#f8f7dc;}.cls-16,.cls-28{fill:#fff;}.cls-17{fill:#c1745f;}.cls-18{fill:#bcbbaa;}.cls-19{fill:none;stroke:#301818;stroke-miterlimit:10;}.cls-20{fill:#301818;}.cls-21{fill:#a55d49;}.cls-22{fill:#b26756;}.cls-23{fill:#002868;}.cls-24{fill:#bf0b31;}.cls-24,.cls-25,.cls-28{fill-rule:evenodd;}.cls-25{fill:#fefdfd;}.cls-26{fill:#7c3b2e;}.cls-27{fill:#843d31;}</style></defs><title>stormwater-il-1</title><rect class="cls-1" x="556" y="238" width="100" height="10"/><rect class="cls-2" x="556" y="248" width="100" height="20"/><rect class="cls-3" x="556" y="228" width="100" height="10"/><rect class="cls-4" x="556" y="10" width="100" height="218"/><rect class="cls-5" x="556" width="100" height="10"/><rect class="cls-6" x="559" width="1" height="10"/><rect class="cls-7" x="556" width="3" height="10"/><rect class="cls-6" x="579" width="1" height="10"/><rect class="cls-7" x="576" width="3" height="10"/><rect class="cls-6" x="599" width="1" height="10"/><rect class="cls-7" x="596" width="3" height="10"/><rect class="cls-6" x="619" width="1" height="10"/><rect class="cls-7" x="616" width="3" height="10"/><rect class="cls-6" x="639" width="1" height="10"/><rect class="cls-7" x="636" width="3" height="10"/><rect class="cls-7" x="556" width="100" height="2"/><rect class="cls-6" x="556" y="10" width="100" height="1"/><rect class="cls-8" x="560" y="20" width="8" height="2"/><rect class="cls-8" x="564" y="23" width="8" height="2"/><rect class="cls-8" x="569" y="20" width="8" height="2"/><rect class="cls-8" x="573" y="17" width="8" height="2"/><rect class="cls-8" x="564" y="17" width="8" height="2"/><rect class="cls-8" x="569" y="26" width="8" height="2"/><rect class="cls-8" x="573" y="29" width="8" height="2"/><rect class="cls-8" x="578" y="26" width="8" height="2"/><rect class="cls-8" x="582" y="23" width="8" height="2"/><rect class="cls-8" x="573" y="23" width="8" height="2"/><rect class="cls-8" x="597" y="46" width="8" height="2"/><rect class="cls-8" x="601" y="49" width="8" height="2"/><rect class="cls-8" x="606" y="46" width="8" height="2"/><rect class="cls-8" x="610" y="43" width="8" height="2"/><rect class="cls-8" x="601" y="43" width="8" height="2"/><rect class="cls-8" x="565" y="66" width="8" height="2"/><rect class="cls-8" x="569" y="69" width="8" height="2"/><rect class="cls-8" x="574" y="66" width="8" height="2"/><rect class="cls-8" x="578" y="63" width="8" height="2"/><rect class="cls-8" x="569" y="63" width="8" height="2"/><rect class="cls-8" x="579" y="69" width="8" height="2"/><rect class="cls-8" x="583" y="72" width="8" height="2"/><rect class="cls-8" x="588" y="69" width="8" height="2"/><rect class="cls-8" x="592" y="66" width="8" height="2"/><rect class="cls-8" x="583" y="66" width="8" height="2"/><rect class="cls-8" x="629" y="25" width="8" height="2"/><rect class="cls-8" x="633" y="28" width="8" height="2"/><rect class="cls-8" x="638" y="25" width="8" height="2"/><rect class="cls-8" x="642" y="22" width="8" height="2"/><rect class="cls-8" x="633" y="22" width="8" height="2"/><rect class="cls-8" x="627" y="87" width="8" height="2"/><rect class="cls-8" x="631" y="90" width="8" height="2"/><rect class="cls-8" x="636" y="87" width="8" height="2"/><rect class="cls-8" x="640" y="84" width="8" height="2"/><rect class="cls-8" x="631" y="84" width="8" height="2"/><rect class="cls-8" x="618" y="96" width="8" height="2"/><rect class="cls-8" x="622" y="99" width="8" height="2"/><rect class="cls-8" x="627" y="96" width="8" height="2"/><rect class="cls-8" x="631" y="93" width="8" height="2"/><rect class="cls-8" x="622" y="93" width="8" height="2"/><rect class="cls-8" x="627" y="102" width="8" height="2"/><rect class="cls-8" x="631" y="105" width="8" height="2"/><rect class="cls-8" x="636" y="102" width="8" height="2"/><rect class="cls-8" x="640" y="99" width="8" height="2"/><rect class="cls-8" x="631" y="99" width="8" height="2"/><rect class="cls-8" x="565" y="112" width="8" height="2"/><rect class="cls-8" x="569" y="115" width="8" height="2"/><rect class="cls-8" x="574" y="112" width="8" height="2"/><rect class="cls-8" x="578" y="109" width="8" height="2"/><rect class="cls-8" x="569" y="109" width="8" height="2"/><rect class="cls-8" x="565" y="103" width="8" height="2"/><rect class="cls-8" x="569" y="106" width="8" height="2"/><rect class="cls-8" x="574" y="103" width="8" height="2"/><rect class="cls-8" x="578" y="100" width="8" height="2"/><rect class="cls-8" x="569" y="100" width="8" height="2"/><rect class="cls-8" x="556" y="160" width="8" height="2"/><rect class="cls-8" x="560" y="163" width="8" height="2"/><rect class="cls-8" x="565" y="160" width="8" height="2"/><rect class="cls-8" x="569" y="157" width="8" height="2"/><rect class="cls-8" x="560" y="157" width="8" height="2"/><rect class="cls-8" x="635" y="132" width="8" height="2"/><rect class="cls-8" x="639" y="135" width="8" height="2"/><rect class="cls-8" x="644" y="132" width="8" height="2"/><rect class="cls-8" x="648" y="129" width="8" height="2"/><rect class="cls-8" x="639" y="129" width="8" height="2"/><rect class="cls-8" x="635" y="123" width="8" height="2"/><rect class="cls-8" x="639" y="126" width="8" height="2"/><rect class="cls-8" x="644" y="123" width="8" height="2"/><rect class="cls-8" x="648" y="120" width="8" height="2"/><rect class="cls-8" x="639" y="120" width="8" height="2"/><rect class="cls-8" x="613" y="178" width="8" height="2"/><rect class="cls-8" x="617" y="181" width="8" height="2"/><rect class="cls-8" x="622" y="178" width="8" height="2"/><rect class="cls-8" x="626" y="175" width="8" height="2"/><rect class="cls-8" x="617" y="175" width="8" height="2"/><rect class="cls-8" x="567" y="207" width="8" height="2"/><rect class="cls-8" x="571" y="210" width="8" height="2"/><rect class="cls-8" x="576" y="207" width="8" height="2"/><rect class="cls-8" x="580" y="204" width="8" height="2"/><rect class="cls-8" x="571" y="204" width="8" height="2"/><path class="cls-7" d="M779.91,213h-4a12.91,12.91,0,1,0-25.83,0h-4A16.91,16.91,0,1,1,779.91,213Z" transform="translate(-157 -157)"/><polygon class="cls-6" points="610 38 609.82 40 609.17 46.99 609.08 48 602.92 48 602.83 46.99 602.18 40 602 38 610 38"/><path class="cls-9" d="M775.95,212a13,13,0,0,0-25.9,0H750v46h26V212h-0.05Z" transform="translate(-157 -157)"/><rect class="cls-10" x="594" y="79" width="7" height="10"/><rect class="cls-10" x="602" y="79" width="8" height="10"/><rect class="cls-10" x="611" y="79" width="7" height="10"/><rect class="cls-10" x="594" y="90" width="7" height="10"/><rect class="cls-10" x="602" y="90" width="8" height="10"/><rect class="cls-10" x="611" y="90" width="7" height="10"/><rect class="cls-7" x="590" y="101" width="32" height="6"/><rect class="cls-11" x="594" y="56" width="7" height="10"/><rect class="cls-11" x="602" y="56" width="8" height="10"/><rect class="cls-11" x="611" y="56" width="7" height="10"/><rect class="cls-11" x="594" y="67" width="7" height="10"/><rect class="cls-11" x="602" y="67" width="8" height="10"/><rect class="cls-11" x="611" y="67" width="7" height="10"/><path class="cls-11" d="M758,201.82V212h-7v-0.11A11.35,11.35,0,0,1,758,201.82Z" transform="translate(-157 -157)"/><path class="cls-11" d="M767,201.46V212h-8V201.46A13.86,13.86,0,0,1,767,201.46Z" transform="translate(-157 -157)"/><path class="cls-11" d="M775,211.89V212h-7V201.82A11.35,11.35,0,0,1,775,211.89Z" transform="translate(-157 -157)"/><path class="cls-7" d="M779.91,306h-4a12.91,12.91,0,1,0-25.83,0h-4A16.91,16.91,0,1,1,779.91,306Z" transform="translate(-157 -157)"/><polygon class="cls-6" points="610 131 609.82 133 609.17 139.99 609.08 141 602.92 141 602.83 139.99 602.18 133 602 131 610 131"/><path class="cls-9" d="M775.95,305a13,13,0,0,0-25.9,0H750v46h26V305h-0.05Z" transform="translate(-157 -157)"/><rect class="cls-10" x="594" y="172" width="7" height="10"/><rect class="cls-10" x="602" y="172" width="8" height="10"/><rect class="cls-10" x="611" y="172" width="7" height="10"/><rect class="cls-10" x="594" y="183" width="7" height="10"/><rect class="cls-10" x="602" y="183" width="8" height="10"/><rect class="cls-10" x="611" y="183" width="7" height="10"/><rect class="cls-7" x="590" y="194" width="32" height="6"/><rect class="cls-11" x="594" y="149" width="7" height="10"/><rect class="cls-11" x="602" y="149" width="8" height="10"/><rect class="cls-11" x="611" y="149" width="7" height="10"/><rect class="cls-11" x="594" y="160" width="7" height="10"/><rect class="cls-11" x="602" y="160" width="8" height="10"/><rect class="cls-11" x="611" y="160" width="7" height="10"/><path class="cls-11" d="M758,294.82V305h-7v-0.11A11.35,11.35,0,0,1,758,294.82Z" transform="translate(-157 -157)"/><path class="cls-11" d="M767,294.46V305h-8V294.46A13.86,13.86,0,0,1,767,294.46Z" transform="translate(-157 -157)"/><path class="cls-11" d="M775,304.89V305h-7V294.82A11.35,11.35,0,0,1,775,304.89Z" transform="translate(-157 -157)"/><rect class="cls-12" x="556" y="268" width="100" height="10"/><rect class="cls-1" x="695" y="238" width="100" height="10"/><rect class="cls-2" x="695" y="248" width="100" height="20"/><rect class="cls-3" x="695" y="228" width="100" height="10"/><rect class="cls-4" x="695" y="10" width="100" height="218"/><rect class="cls-5" x="695" width="100" height="10"/><rect class="cls-6" x="698" width="1" height="10"/><rect class="cls-7" x="695" width="3" height="10"/><rect class="cls-6" x="718" width="1" height="10"/><rect class="cls-7" x="715" width="3" height="10"/><rect class="cls-6" x="738" width="1" height="10"/><rect class="cls-7" x="735" width="3" height="10"/><rect class="cls-6" x="758" width="1" height="10"/><rect class="cls-7" x="755" width="3" height="10"/><rect class="cls-6" x="778" width="1" height="10"/><rect class="cls-7" x="775" width="3" height="10"/><rect class="cls-7" x="695" width="100" height="2"/><rect class="cls-6" x="695" y="10" width="100" height="1"/><rect class="cls-8" x="699" y="20" width="8" height="2"/><rect class="cls-8" x="703" y="23" width="8" height="2"/><rect class="cls-8" x="708" y="20" width="8" height="2"/><rect class="cls-8" x="712" y="17" width="8" height="2"/><rect class="cls-8" x="703" y="17" width="8" height="2"/><rect class="cls-8" x="708" y="26" width="8" height="2"/><rect class="cls-8" x="712" y="29" width="8" height="2"/><rect class="cls-8" x="717" y="26" width="8" height="2"/><rect class="cls-8" x="721" y="23" width="8" height="2"/><rect class="cls-8" x="712" y="23" width="8" height="2"/><rect class="cls-8" x="736" y="46" width="8" height="2"/><rect class="cls-8" x="740" y="49" width="8" height="2"/><rect class="cls-8" x="745" y="46" width="8" height="2"/><rect class="cls-8" x="749" y="43" width="8" height="2"/><rect class="cls-8" x="740" y="43" width="8" height="2"/><rect class="cls-8" x="704" y="66" width="8" height="2"/><rect class="cls-8" x="708" y="69" width="8" height="2"/><rect class="cls-8" x="713" y="66" width="8" height="2"/><rect class="cls-8" x="717" y="63" width="8" height="2"/><rect class="cls-8" x="708" y="63" width="8" height="2"/><rect class="cls-8" x="718" y="69" width="8" height="2"/><rect class="cls-8" x="722" y="72" width="8" height="2"/><rect class="cls-8" x="727" y="69" width="8" height="2"/><rect class="cls-8" x="731" y="66" width="8" height="2"/><rect class="cls-8" x="722" y="66" width="8" height="2"/><rect class="cls-8" x="768" y="25" width="8" height="2"/><rect class="cls-8" x="772" y="28" width="8" height="2"/><rect class="cls-8" x="777" y="25" width="8" height="2"/><rect class="cls-8" x="781" y="22" width="8" height="2"/><rect class="cls-8" x="772" y="22" width="8" height="2"/><rect class="cls-8" x="766" y="87" width="8" height="2"/><rect class="cls-8" x="770" y="90" width="8" height="2"/><rect class="cls-8" x="775" y="87" width="8" height="2"/><rect class="cls-8" x="779" y="84" width="8" height="2"/><rect class="cls-8" x="770" y="84" width="8" height="2"/><rect class="cls-8" x="757" y="96" width="8" height="2"/><rect class="cls-8" x="761" y="99" width="8" height="2"/><rect class="cls-8" x="766" y="96" width="8" height="2"/><rect class="cls-8" x="770" y="93" width="8" height="2"/><rect class="cls-8" x="761" y="93" width="8" height="2"/><rect class="cls-8" x="766" y="102" width="8" height="2"/><rect class="cls-8" x="770" y="105" width="8" height="2"/><rect class="cls-8" x="775" y="102" width="8" height="2"/><rect class="cls-8" x="779" y="99" width="8" height="2"/><rect class="cls-8" x="770" y="99" width="8" height="2"/><rect class="cls-8" x="704" y="112" width="8" height="2"/><rect class="cls-8" x="708" y="115" width="8" height="2"/><rect class="cls-8" x="713" y="112" width="8" height="2"/><rect class="cls-8" x="717" y="109" width="8" height="2"/><rect class="cls-8" x="708" y="109" width="8" height="2"/><rect class="cls-8" x="704" y="103" width="8" height="2"/><rect class="cls-8" x="708" y="106" width="8" height="2"/><rect class="cls-8" x="713" y="103" width="8" height="2"/><rect class="cls-8" x="717" y="100" width="8" height="2"/><rect class="cls-8" x="708" y="100" width="8" height="2"/><rect class="cls-8" x="695" y="160" width="8" height="2"/><rect class="cls-8" x="699" y="163" width="8" height="2"/><rect class="cls-8" x="704" y="160" width="8" height="2"/><rect class="cls-8" x="708" y="157" width="8" height="2"/><rect class="cls-8" x="699" y="157" width="8" height="2"/><rect class="cls-8" x="774" y="132" width="8" height="2"/><rect class="cls-8" x="778" y="135" width="8" height="2"/><rect class="cls-8" x="783" y="132" width="8" height="2"/><rect class="cls-8" x="787" y="129" width="8" height="2"/><rect class="cls-8" x="778" y="129" width="8" height="2"/><rect class="cls-8" x="774" y="123" width="8" height="2"/><rect class="cls-8" x="778" y="126" width="8" height="2"/><rect class="cls-8" x="783" y="123" width="8" height="2"/><rect class="cls-8" x="787" y="120" width="8" height="2"/><rect class="cls-8" x="778" y="120" width="8" height="2"/><rect class="cls-8" x="752" y="178" width="8" height="2"/><rect class="cls-8" x="756" y="181" width="8" height="2"/><rect class="cls-8" x="761" y="178" width="8" height="2"/><rect class="cls-8" x="765" y="175" width="8" height="2"/><rect class="cls-8" x="756" y="175" width="8" height="2"/><rect class="cls-8" x="706" y="207" width="8" height="2"/><rect class="cls-8" x="710" y="210" width="8" height="2"/><rect class="cls-8" x="715" y="207" width="8" height="2"/><rect class="cls-8" x="719" y="204" width="8" height="2"/><rect class="cls-8" x="710" y="204" width="8" height="2"/><path class="cls-7" d="M918.91,213h-4a12.91,12.91,0,1,0-25.83,0h-4A16.91,16.91,0,1,1,918.91,213Z" transform="translate(-157 -157)"/><polygon class="cls-6" points="749 38 748.82 40 748.17 46.99 748.08 48 741.92 48 741.83 46.99 741.18 40 741 38 749 38"/><path class="cls-9" d="M914.95,212a13,13,0,0,0-25.9,0H889v46h26V212h-0.05Z" transform="translate(-157 -157)"/><rect class="cls-10" x="733" y="79" width="7" height="10"/><rect class="cls-10" x="741" y="79" width="8" height="10"/><rect class="cls-10" x="750" y="79" width="7" height="10"/><rect class="cls-10" x="733" y="90" width="7" height="10"/><rect class="cls-10" x="741" y="90" width="8" height="10"/><rect class="cls-10" x="750" y="90" width="7" height="10"/><rect class="cls-7" x="729" y="101" width="32" height="6"/><rect class="cls-11" x="733" y="56" width="7" height="10"/><rect class="cls-11" x="741" y="56" width="8" height="10"/><rect class="cls-11" x="750" y="56" width="7" height="10"/><rect class="cls-11" x="733" y="67" width="7" height="10"/><rect class="cls-11" x="741" y="67" width="8" height="10"/><rect class="cls-11" x="750" y="67" width="7" height="10"/><path class="cls-11" d="M897,201.82V212h-7v-0.11A11.35,11.35,0,0,1,897,201.82Z" transform="translate(-157 -157)"/><path class="cls-11" d="M906,201.46V212h-8V201.46A13.86,13.86,0,0,1,906,201.46Z" transform="translate(-157 -157)"/><path class="cls-11" d="M914,211.89V212h-7V201.82A11.35,11.35,0,0,1,914,211.89Z" transform="translate(-157 -157)"/><path class="cls-7" d="M918.91,306h-4a12.91,12.91,0,1,0-25.83,0h-4A16.91,16.91,0,1,1,918.91,306Z" transform="translate(-157 -157)"/><polygon class="cls-6" points="749 131 748.82 133 748.17 139.99 748.08 141 741.92 141 741.83 139.99 741.18 133 741 131 749 131"/><path class="cls-9" d="M914.95,305a13,13,0,0,0-25.9,0H889v46h26V305h-0.05Z" transform="translate(-157 -157)"/><rect class="cls-10" x="733" y="172" width="7" height="10"/><rect class="cls-10" x="741" y="172" width="8" height="10"/><rect class="cls-10" x="750" y="172" width="7" height="10"/><rect class="cls-10" x="733" y="183" width="7" height="10"/><rect class="cls-10" x="741" y="183" width="8" height="10"/><rect class="cls-10" x="750" y="183" width="7" height="10"/><rect class="cls-7" x="729" y="194" width="32" height="6"/><rect class="cls-11" x="733" y="149" width="7" height="10"/><rect class="cls-11" x="741" y="149" width="8" height="10"/><rect class="cls-11" x="750" y="149" width="7" height="10"/><rect class="cls-11" x="733" y="160" width="7" height="10"/><rect class="cls-11" x="741" y="160" width="8" height="10"/><rect class="cls-11" x="750" y="160" width="7" height="10"/><path class="cls-11" d="M897,294.82V305h-7v-0.11A11.35,11.35,0,0,1,897,294.82Z" transform="translate(-157 -157)"/><path class="cls-11" d="M906,294.46V305h-8V294.46A13.86,13.86,0,0,1,906,294.46Z" transform="translate(-157 -157)"/><path class="cls-11" d="M914,304.89V305h-7V294.82A11.35,11.35,0,0,1,914,304.89Z" transform="translate(-157 -157)"/><rect class="cls-12" x="695" y="268" width="100" height="10"/><polygon class="cls-12" points="795 238 795 239 795 245.13 795 248 790.33 248 777.11 268 776.44 268 771.11 268 770.9 268 764.94 268 751.67 248 747 248 747 245.13 747 239 747 238 795 238"/><polygon class="cls-13" points="751.9 238 751.9 228 789.9 228 789.9 238 790.01 238 784.11 247 783.63 247.73 772.9 264.11 772.9 274.13 773 274.13 773 278 769 278 769 277 768.9 277 768.9 264.1 758.17 247.73 757.69 247 751.79 238 751.9 238"/><rect class="cls-3" x="782" y="228" width="5" height="10"/><rect class="cls-3" x="773" y="228" width="5" height="10"/><rect class="cls-3" x="764" y="228" width="5" height="10"/><rect class="cls-3" x="755" y="228" width="5" height="10"/><rect class="cls-3" x="790" y="228" width="5" height="10"/><rect class="cls-3" x="747" y="228" width="5" height="10"/><rect class="cls-1" x="278" y="238" width="100" height="10"/><rect class="cls-2" x="278" y="248" width="100" height="20"/><rect class="cls-3" x="278" y="228" width="100" height="10"/><rect class="cls-14" x="278" y="10" width="100" height="218"/><rect class="cls-15" x="278" width="100" height="10"/><rect class="cls-9" x="281" width="1" height="10"/><rect class="cls-16" x="278" width="3" height="10"/><rect class="cls-9" x="301" width="1" height="10"/><rect class="cls-16" x="298" width="3" height="10"/><rect class="cls-9" x="321" width="1" height="10"/><rect class="cls-16" x="318" width="3" height="10"/><rect class="cls-9" x="341" width="1" height="10"/><rect class="cls-16" x="338" width="3" height="10"/><rect class="cls-9" x="361" width="1" height="10"/><rect class="cls-16" x="358" width="3" height="10"/><rect class="cls-16" x="278" width="100" height="2"/><rect class="cls-9" x="278" y="10" width="100" height="1"/><rect class="cls-17" x="282" y="20" width="8" height="2"/><rect class="cls-17" x="286" y="23" width="8" height="2"/><rect class="cls-17" x="291" y="20" width="8" height="2"/><rect class="cls-17" x="295" y="17" width="8" height="2"/><rect class="cls-17" x="286" y="17" width="8" height="2"/><rect class="cls-17" x="291" y="26" width="8" height="2"/><rect class="cls-17" x="295" y="29" width="8" height="2"/><rect class="cls-17" x="300" y="26" width="8" height="2"/><rect class="cls-17" x="304" y="23" width="8" height="2"/><rect class="cls-17" x="295" y="23" width="8" height="2"/><rect class="cls-17" x="319" y="46" width="8" height="2"/><rect class="cls-17" x="323" y="49" width="8" height="2"/><rect class="cls-17" x="328" y="46" width="8" height="2"/><rect class="cls-17" x="332" y="43" width="8" height="2"/><rect class="cls-17" x="323" y="43" width="8" height="2"/><rect class="cls-17" x="287" y="66" width="8" height="2"/><rect class="cls-17" x="291" y="69" width="8" height="2"/><rect class="cls-17" x="296" y="66" width="8" height="2"/><rect class="cls-17" x="300" y="63" width="8" height="2"/><rect class="cls-17" x="291" y="63" width="8" height="2"/><rect class="cls-17" x="301" y="69" width="8" height="2"/><rect class="cls-17" x="305" y="72" width="8" height="2"/><rect class="cls-17" x="310" y="69" width="8" height="2"/><rect class="cls-17" x="314" y="66" width="8" height="2"/><rect class="cls-17" x="305" y="66" width="8" height="2"/><rect class="cls-17" x="351" y="25" width="8" height="2"/><rect class="cls-17" x="355" y="28" width="8" height="2"/><rect class="cls-17" x="360" y="25" width="8" height="2"/><rect class="cls-17" x="364" y="22" width="8" height="2"/><rect class="cls-17" x="355" y="22" width="8" height="2"/><rect class="cls-17" x="349" y="87" width="8" height="2"/><rect class="cls-17" x="353" y="90" width="8" height="2"/><rect class="cls-17" x="358" y="87" width="8" height="2"/><rect class="cls-17" x="362" y="84" width="8" height="2"/><rect class="cls-17" x="353" y="84" width="8" height="2"/><rect class="cls-17" x="340" y="96" width="8" height="2"/><rect class="cls-17" x="344" y="99" width="8" height="2"/><rect class="cls-17" x="349" y="96" width="8" height="2"/><rect class="cls-17" x="353" y="93" width="8" height="2"/><rect class="cls-17" x="344" y="93" width="8" height="2"/><rect class="cls-17" x="349" y="102" width="8" height="2"/><rect class="cls-17" x="353" y="105" width="8" height="2"/><rect class="cls-17" x="358" y="102" width="8" height="2"/><rect class="cls-17" x="362" y="99" width="8" height="2"/><rect class="cls-17" x="353" y="99" width="8" height="2"/><rect class="cls-17" x="287" y="112" width="8" height="2"/><rect class="cls-17" x="291" y="115" width="8" height="2"/><rect class="cls-17" x="296" y="112" width="8" height="2"/><rect class="cls-17" x="300" y="109" width="8" height="2"/><rect class="cls-17" x="291" y="109" width="8" height="2"/><rect class="cls-17" x="287" y="103" width="8" height="2"/><rect class="cls-17" x="291" y="106" width="8" height="2"/><rect class="cls-17" x="296" y="103" width="8" height="2"/><rect class="cls-17" x="300" y="100" width="8" height="2"/><rect class="cls-17" x="291" y="100" width="8" height="2"/><rect class="cls-17" x="278" y="160" width="8" height="2"/><rect class="cls-17" x="282" y="163" width="8" height="2"/><rect class="cls-17" x="287" y="160" width="8" height="2"/><rect class="cls-17" x="291" y="157" width="8" height="2"/><rect class="cls-17" x="282" y="157" width="8" height="2"/><rect class="cls-17" x="357" y="132" width="8" height="2"/><rect class="cls-17" x="361" y="135" width="8" height="2"/><rect class="cls-17" x="366" y="132" width="8" height="2"/><rect class="cls-17" x="370" y="129" width="8" height="2"/><rect class="cls-17" x="361" y="129" width="8" height="2"/><rect class="cls-17" x="357" y="123" width="8" height="2"/><rect class="cls-17" x="361" y="126" width="8" height="2"/><rect class="cls-17" x="366" y="123" width="8" height="2"/><rect class="cls-17" x="370" y="120" width="8" height="2"/><rect class="cls-17" x="361" y="120" width="8" height="2"/><rect class="cls-17" x="335" y="178" width="8" height="2"/><rect class="cls-17" x="339" y="181" width="8" height="2"/><rect class="cls-17" x="344" y="178" width="8" height="2"/><rect class="cls-17" x="348" y="175" width="8" height="2"/><rect class="cls-17" x="339" y="175" width="8" height="2"/><rect class="cls-17" x="289" y="207" width="8" height="2"/><rect class="cls-17" x="293" y="210" width="8" height="2"/><rect class="cls-17" x="298" y="207" width="8" height="2"/><rect class="cls-17" x="302" y="204" width="8" height="2"/><rect class="cls-17" x="293" y="204" width="8" height="2"/><rect class="cls-9" x="314" y="55" width="26" height="46"/><rect class="cls-10" x="315" y="79" width="7" height="10"/><rect class="cls-10" x="323" y="79" width="8" height="10"/><rect class="cls-10" x="332" y="79" width="7" height="10"/><rect class="cls-10" x="315" y="90" width="7" height="10"/><rect class="cls-10" x="323" y="90" width="8" height="10"/><rect class="cls-10" x="332" y="90" width="7" height="10"/><rect class="cls-18" x="311" y="49" width="32" height="6"/><rect class="cls-18" x="311" y="101" width="32" height="6"/><rect class="cls-11" x="315" y="56" width="7" height="10"/><rect class="cls-11" x="323" y="56" width="8" height="10"/><rect class="cls-11" x="332" y="56" width="7" height="10"/><rect class="cls-11" x="315" y="67" width="7" height="10"/><rect class="cls-11" x="323" y="67" width="8" height="10"/><rect class="cls-11" x="332" y="67" width="7" height="10"/><rect class="cls-9" x="314" y="148" width="26" height="46"/><rect class="cls-10" x="315" y="172" width="7" height="10"/><rect class="cls-10" x="323" y="172" width="8" height="10"/><rect class="cls-10" x="332" y="172" width="7" height="10"/><rect class="cls-10" x="315" y="183" width="7" height="10"/><rect class="cls-10" x="323" y="183" width="8" height="10"/><rect class="cls-10" x="332" y="183" width="7" height="10"/><rect class="cls-18" x="311" y="142" width="32" height="6"/><rect class="cls-18" x="311" y="194" width="32" height="6"/><rect class="cls-11" x="315" y="149" width="7" height="10"/><rect class="cls-11" x="323" y="149" width="8" height="10"/><rect class="cls-11" x="332" y="149" width="7" height="10"/><rect class="cls-11" x="315" y="160" width="7" height="10"/><rect class="cls-11" x="323" y="160" width="8" height="10"/><rect class="cls-11" x="332" y="160" width="7" height="10"/><rect class="cls-12" x="278" y="268" width="100" height="10"/><polygon class="cls-12" points="378 238 378 239 378 245.13 378 248 373.33 248 360.11 268 359.44 268 354.11 268 353.9 268 347.94 268 334.67 248 330 248 330 245.13 330 239 330 238 378 238"/><polygon class="cls-13" points="334.9 238 334.9 228 372.9 228 372.9 238 373.01 238 367.11 247 366.63 247.73 355.9 264.11 355.9 274.13 356 274.13 356 278 352 278 352 277 351.9 277 351.9 264.1 341.17 247.73 340.69 247 334.79 238 334.9 238"/><rect class="cls-3" x="365" y="228" width="5" height="10"/><rect class="cls-3" x="356" y="228" width="5" height="10"/><rect class="cls-3" x="347" y="228" width="5" height="10"/><rect class="cls-3" x="338" y="228" width="5" height="10"/><rect class="cls-3" x="373" y="228" width="5" height="10"/><rect class="cls-3" x="330" y="228" width="5" height="10"/><rect class="cls-1" x="139" y="238" width="100" height="10"/><rect class="cls-2" x="139" y="248" width="100" height="20"/><rect class="cls-3" x="139" y="228" width="100" height="10"/><rect class="cls-14" x="139" y="10" width="100" height="218"/><rect class="cls-15" x="139" width="100" height="10"/><rect class="cls-9" x="142" width="1" height="10"/><rect class="cls-16" x="139" width="3" height="10"/><rect class="cls-9" x="162" width="1" height="10"/><rect class="cls-16" x="159" width="3" height="10"/><rect class="cls-9" x="182" width="1" height="10"/><rect class="cls-16" x="179" width="3" height="10"/><rect class="cls-9" x="202" width="1" height="10"/><rect class="cls-16" x="199" width="3" height="10"/><rect class="cls-9" x="222" width="1" height="10"/><rect class="cls-16" x="219" width="3" height="10"/><rect class="cls-16" x="139" width="100" height="2"/><rect class="cls-9" x="139" y="10" width="100" height="1"/><rect class="cls-17" x="143" y="20" width="8" height="2"/><rect class="cls-17" x="147" y="23" width="8" height="2"/><rect class="cls-17" x="152" y="20" width="8" height="2"/><rect class="cls-17" x="156" y="17" width="8" height="2"/><rect class="cls-17" x="147" y="17" width="8" height="2"/><rect class="cls-17" x="152" y="26" width="8" height="2"/><rect class="cls-17" x="156" y="29" width="8" height="2"/><rect class="cls-17" x="161" y="26" width="8" height="2"/><rect class="cls-17" x="165" y="23" width="8" height="2"/><rect class="cls-17" x="156" y="23" width="8" height="2"/><rect class="cls-17" x="180" y="46" width="8" height="2"/><rect class="cls-17" x="184" y="49" width="8" height="2"/><rect class="cls-17" x="189" y="46" width="8" height="2"/><rect class="cls-17" x="193" y="43" width="8" height="2"/><rect class="cls-17" x="184" y="43" width="8" height="2"/><rect class="cls-17" x="148" y="66" width="8" height="2"/><rect class="cls-17" x="152" y="69" width="8" height="2"/><rect class="cls-17" x="157" y="66" width="8" height="2"/><rect class="cls-17" x="161" y="63" width="8" height="2"/><rect class="cls-17" x="152" y="63" width="8" height="2"/><rect class="cls-17" x="162" y="69" width="8" height="2"/><rect class="cls-17" x="166" y="72" width="8" height="2"/><rect class="cls-17" x="171" y="69" width="8" height="2"/><rect class="cls-17" x="175" y="66" width="8" height="2"/><rect class="cls-17" x="166" y="66" width="8" height="2"/><rect class="cls-17" x="212" y="25" width="8" height="2"/><rect class="cls-17" x="216" y="28" width="8" height="2"/><rect class="cls-17" x="221" y="25" width="8" height="2"/><rect class="cls-17" x="225" y="22" width="8" height="2"/><rect class="cls-17" x="216" y="22" width="8" height="2"/><rect class="cls-17" x="210" y="87" width="8" height="2"/><rect class="cls-17" x="214" y="90" width="8" height="2"/><rect class="cls-17" x="219" y="87" width="8" height="2"/><rect class="cls-17" x="223" y="84" width="8" height="2"/><rect class="cls-17" x="214" y="84" width="8" height="2"/><rect class="cls-17" x="201" y="96" width="8" height="2"/><rect class="cls-17" x="205" y="99" width="8" height="2"/><rect class="cls-17" x="210" y="96" width="8" height="2"/><rect class="cls-17" x="214" y="93" width="8" height="2"/><rect class="cls-17" x="205" y="93" width="8" height="2"/><rect class="cls-17" x="210" y="102" width="8" height="2"/><rect class="cls-17" x="214" y="105" width="8" height="2"/><rect class="cls-17" x="219" y="102" width="8" height="2"/><rect class="cls-17" x="223" y="99" width="8" height="2"/><rect class="cls-17" x="214" y="99" width="8" height="2"/><rect class="cls-17" x="148" y="112" width="8" height="2"/><rect class="cls-17" x="152" y="115" width="8" height="2"/><rect class="cls-17" x="157" y="112" width="8" height="2"/><rect class="cls-17" x="161" y="109" width="8" height="2"/><rect class="cls-17" x="152" y="109" width="8" height="2"/><rect class="cls-17" x="148" y="103" width="8" height="2"/><rect class="cls-17" x="152" y="106" width="8" height="2"/><rect class="cls-17" x="157" y="103" width="8" height="2"/><rect class="cls-17" x="161" y="100" width="8" height="2"/><rect class="cls-17" x="152" y="100" width="8" height="2"/><rect class="cls-17" x="139" y="160" width="8" height="2"/><rect class="cls-17" x="143" y="163" width="8" height="2"/><rect class="cls-17" x="148" y="160" width="8" height="2"/><rect class="cls-17" x="152" y="157" width="8" height="2"/><rect class="cls-17" x="143" y="157" width="8" height="2"/><rect class="cls-17" x="218" y="132" width="8" height="2"/><rect class="cls-17" x="222" y="135" width="8" height="2"/><rect class="cls-17" x="227" y="132" width="8" height="2"/><rect class="cls-17" x="231" y="129" width="8" height="2"/><rect class="cls-17" x="222" y="129" width="8" height="2"/><rect class="cls-17" x="218" y="123" width="8" height="2"/><rect class="cls-17" x="222" y="126" width="8" height="2"/><rect class="cls-17" x="227" y="123" width="8" height="2"/><rect class="cls-17" x="231" y="120" width="8" height="2"/><rect class="cls-17" x="222" y="120" width="8" height="2"/><rect class="cls-17" x="196" y="178" width="8" height="2"/><rect class="cls-17" x="200" y="181" width="8" height="2"/><rect class="cls-17" x="205" y="178" width="8" height="2"/><rect class="cls-17" x="209" y="175" width="8" height="2"/><rect class="cls-17" x="200" y="175" width="8" height="2"/><rect class="cls-17" x="150" y="207" width="8" height="2"/><rect class="cls-17" x="154" y="210" width="8" height="2"/><rect class="cls-17" x="159" y="207" width="8" height="2"/><rect class="cls-17" x="163" y="204" width="8" height="2"/><rect class="cls-17" x="154" y="204" width="8" height="2"/><rect class="cls-9" x="175" y="55" width="26" height="46"/><rect class="cls-10" x="176" y="79" width="7" height="10"/><rect class="cls-10" x="184" y="79" width="8" height="10"/><rect class="cls-10" x="193" y="79" width="7" height="10"/><rect class="cls-10" x="176" y="90" width="7" height="10"/><rect class="cls-10" x="184" y="90" width="8" height="10"/><rect class="cls-10" x="193" y="90" width="7" height="10"/><rect class="cls-18" x="172" y="49" width="32" height="6"/><rect class="cls-18" x="172" y="101" width="32" height="6"/><rect class="cls-11" x="176" y="56" width="7" height="10"/><rect class="cls-11" x="184" y="56" width="8" height="10"/><rect class="cls-11" x="193" y="56" width="7" height="10"/><rect class="cls-11" x="176" y="67" width="7" height="10"/><rect class="cls-11" x="184" y="67" width="8" height="10"/><rect class="cls-11" x="193" y="67" width="7" height="10"/><rect class="cls-9" x="175" y="148" width="26" height="46"/><rect class="cls-10" x="176" y="172" width="7" height="10"/><rect class="cls-10" x="184" y="172" width="8" height="10"/><rect class="cls-10" x="193" y="172" width="7" height="10"/><rect class="cls-10" x="176" y="183" width="7" height="10"/><rect class="cls-10" x="184" y="183" width="8" height="10"/><rect class="cls-10" x="193" y="183" width="7" height="10"/><rect class="cls-18" x="172" y="142" width="32" height="6"/><rect class="cls-18" x="172" y="194" width="32" height="6"/><rect class="cls-11" x="176" y="149" width="7" height="10"/><rect class="cls-11" x="184" y="149" width="8" height="10"/><rect class="cls-11" x="193" y="149" width="7" height="10"/><rect class="cls-11" x="176" y="160" width="7" height="10"/><rect class="cls-11" x="184" y="160" width="8" height="10"/><rect class="cls-11" x="193" y="160" width="7" height="10"/><rect class="cls-12" x="139" y="268" width="100" height="10"/><line class="cls-19" x1="51.5" y1="223" x2="51.5" y2="190"/><line class="cls-19" x1="59.5" y1="215" x2="59.5" y2="182"/><line class="cls-19" x1="67.5" y1="207" x2="67.5" y2="175"/><line class="cls-19" x1="75.5" y1="207" x2="75.5" y2="175"/><line class="cls-19" x1="84.5" y1="207" x2="84.5" y2="175"/><rect class="cls-20" x="93" y="175" width="1" height="32"/><polygon class="cls-20" points="45 228 44 228 44 195.78 67.31 174.25 67.5 174.25 99 174.5 99 175.5 67.69 175.25 45 196.22 45 228"/><polygon class="cls-21" points="60 204 60 212 52 212 52 220 44 220 44 228 100 228 100 220 100 212 100 204 60 204"/><rect class="cls-22" x="88" y="224" width="8" height="2"/><rect class="cls-22" x="79" y="224" width="8" height="2"/><rect class="cls-22" x="68" y="223" width="8" height="2"/><rect class="cls-22" x="73" y="220" width="8" height="2"/><rect class="cls-22" x="77" y="217" width="8" height="2"/><rect class="cls-22" x="68" y="217" width="8" height="2"/><rect class="cls-22" x="77" y="210" width="8" height="2"/><rect class="cls-22" x="81" y="213" width="8" height="2"/><rect class="cls-22" x="86" y="210" width="8" height="2"/><rect class="cls-22" x="90" y="207" width="8" height="2"/><rect class="cls-22" x="81" y="207" width="8" height="2"/><rect class="cls-22" x="83" y="220" width="8" height="2"/><rect class="cls-22" x="44" y="223" width="8" height="2"/><rect class="cls-22" x="49" y="220" width="8" height="2"/><rect class="cls-22" x="58" y="217" width="8" height="2"/><rect class="cls-22" x="57" y="213" width="8" height="2"/><rect class="cls-22" x="62" y="210" width="8" height="2"/><rect class="cls-22" x="66" y="207" width="8" height="2"/><rect class="cls-18" x="58" y="205" width="42" height="2"/><rect class="cls-9" x="58" y="204" width="42" height="2"/><rect class="cls-18" x="50" y="213" width="10" height="2"/><rect class="cls-9" x="50" y="212" width="10" height="2"/><rect class="cls-18" x="42" y="221" width="10" height="2"/><rect class="cls-9" x="42" y="220" width="10" height="2"/><rect class="cls-1" y="238" width="100" height="10"/><rect class="cls-2" y="248" width="100" height="20"/><rect class="cls-3" y="228" width="100" height="10"/><polygon class="cls-20" points="98.84 150.19 98.81 150.13 70.98 103.24 71.87 102.71 99.73 149.66 98.84 150.19"/><path class="cls-23" d="M235.75,273.38c-5.68.71-10.21,3.37-14.34,6.68l-0.13.1-0.9-1.53-0.1-.15-1-1.69-1-1.69-1-1.68-1-1.69-1-1.68-0.78-1.34-0.17-.31c4.21-3.4,8.83-6.12,14.64-6.8l6.94,11.76Zm-14.27-.3h-0.64l0.5,0.4-0.21.66,0.41-.33a0.14,0.14,0,0,1,.22,0c0.12,0.11.25,0.2,0.41,0.32-0.05-.2-0.09-0.36-0.14-0.52a0.16,0.16,0,0,1,.07-0.22l0.4-.26,0,0H221.9l-0.22-.62h0Zm-1.07-1.88a0.15,0.15,0,0,1-.22,0c-0.13-.09-0.27-0.16-0.44-0.25,0.08,0.19.14,0.34,0.21,0.49a0.16,0.16,0,0,1,0,.22c-0.12.11-.23,0.24-0.37,0.39,0.19,0,.34,0,0.49-0.09a0.16,0.16,0,0,1,.21.12c0.06,0.15.12,0.29,0.2,0.47,0-.21.07-0.38,0.1-0.55a0.14,0.14,0,0,1,.14-0.15l0.52-.08-0.56-.33,0.13-.64h0C220.67,271,220.54,271.09,220.42,271.21Zm7.15-3.63h0l0.58,0.23a0.14,0.14,0,0,1,.07.11c0,0.16,0,.32,0,0.52l0.46-.42,0.7,0.29c-0.13-.17-0.22-0.31-0.34-0.44a0.11,0.11,0,0,1,0-.19l0.37-.31-0.61,0a0.17,0.17,0,0,1-.19-0.08l-0.35-.46c0,0.18,0,.33,0,0.48a0.12,0.12,0,0,1-.14.13l-0.37,0a0.91,0.91,0,0,0-.16.05h0Zm-0.59-1c0-.12.08-0.15,0.21-0.14h0.55l-0.65-.36,0.13-.57-0.45.29a0.23,0.23,0,0,1-.18,0c-0.18-.08-0.34-0.18-0.54-0.26l0.32,0.54-0.52.38,0.61,0a0.14,0.14,0,0,1,.16.09c0.08,0.15.17,0.3,0.27,0.47A4,4,0,0,0,227,266.57Zm1.46,7.29-0.29-.59,0.51-.39-0.58,0a0.15,0.15,0,0,1-.17-0.1c-0.06-.15-0.15-0.3-0.24-0.49,0,0.19-.09.35-0.12,0.52a0.11,0.11,0,0,1-.13.1l-0.58,0,0.6,0.34-0.13.62,0.51-.41Zm-8.24-6.54a0.17,0.17,0,0,1,0,.15c-0.09.16-.18,0.31-0.29,0.49l0.51-.22a0.12,0.12,0,0,1,.17,0l0.35,0.42a3.87,3.87,0,0,0,0-.49,0.17,0.17,0,0,1,.14-0.23,2,2,0,0,0,.42-0.19l-0.49-.12a0.12,0.12,0,0,1-.11-0.14c0-.17,0-0.34,0-0.55l-0.38.59-0.57-.2,0,0C220,267,220.09,267.18,220.2,267.32Zm2.2-1.12,0.68,0.1c-0.15-.13-0.27-0.26-0.4-0.36a0.14,0.14,0,0,1,0-.21,2.29,2.29,0,0,0,.19-0.43,4.75,4.75,0,0,0-.44.21,0.18,0.18,0,0,1-.25,0l-0.39-.35c0,0.21.08,0.37,0.12,0.54a0.11,0.11,0,0,1-.07.14,2.55,2.55,0,0,0-.46.27l0.53,0.07a0.13,0.13,0,0,1,.13.12c0,0.16.07,0.33,0.11,0.53Zm3.88,7.82a0.18,0.18,0,0,1-.16-0.24c0-.15,0-0.3,0-0.47l-0.42.5-0.63-.23c0.12,0.17.2,0.31,0.31,0.44a0.14,0.14,0,0,1,0,.21c-0.11.12-.2,0.25-0.32,0.41l0.53-.15a0.13,0.13,0,0,1,.18.07c0.09,0.14.19,0.28,0.31,0.45,0-.21,0-0.38,0-0.55a0.11,0.11,0,0,1,.11-0.13l0.55-.13C226.58,274.14,226.43,274.07,226.28,274Zm-1.48-8.42,0.57-.32c-0.22,0-.4,0-0.59-0.05a0.16,0.16,0,0,1-.18-0.13,2.54,2.54,0,0,0-.2-0.46l-0.14.55-0.76,0,0.57,0.39-0.19.58,0.45-.27a0.16,0.16,0,0,1,.21,0c0.14,0.11.29,0.21,0.47,0.33Zm-4.43,4a0.14,0.14,0,0,1,0-.19c0.11-.13.22-0.27,0.35-0.43-0.19,0-.35.09-0.5,0.14A0.14,0.14,0,0,1,220,269a1.86,1.86,0,0,0-.28-0.41l0,0.39c0,0.25,0,.25-0.24.32l-0.33.11,0,0,0.57,0.22,0,0.63,0,0c0.1-.13.21-0.26,0.31-0.4a0.13,0.13,0,0,1,.19-0.06l0.47,0.19Zm8.34,2.21a0.18,0.18,0,0,1,.2.16c0,0.15.09,0.3,0.15,0.48,0.08-.17.15-0.3,0.2-0.44a0.14,0.14,0,0,1,.19-0.09L230,272l-0.48-.37a0.1,0.1,0,0,1,0-.15c0.07-.14.14-0.28,0.22-0.45a4.31,4.31,0,0,0-.47.21,0.2,0.2,0,0,1-.27,0c-0.12-.11-0.26-0.21-0.43-0.33,0.06,0.18.09,0.32,0.15,0.46a0.14,0.14,0,0,1-.1.22c-0.14.06-.27,0.13-0.41,0.2v0Zm-5.23,3.37,0.31-.59,0.64,0.11c-0.14-.16-0.26-0.29-0.38-0.41a0.11,0.11,0,0,1,0-.16,3.16,3.16,0,0,0,.23-0.48l-0.43.21a0.15,0.15,0,0,1-.22,0c-0.1-.13-0.22-0.24-0.36-0.38,0,0.21,0,.39.07,0.56a0.12,0.12,0,0,1-.09.15l-0.49.25,0.64,0.11Zm5-6,0.4,0.4c0.07,0.07.09,0.12,0,.18a1.71,1.71,0,0,0-.25.39l0.49-.14a0.18,0.18,0,0,1,.22.06l0.41,0.41c0-.18,0-0.34-0.07-0.5s0-.12.12-0.14a3.34,3.34,0,0,0,.5-0.13l-0.57-.17a0.13,0.13,0,0,1-.13-0.12c0-.16,0-0.32-0.07-0.51l-0.37.46Z" transform="translate(-157 -157)"/><path class="cls-24" d="M199.28,306.38l1,1.7c17.49-2.07,24.13-22.52,41.62-24.59l-1-1.7-0.19,0c-17.29,2.19-24,22.36-41.24,24.54Z" transform="translate(-157 -157)"/><path class="cls-24" d="M197.29,303l1,1.7,0.17,0c17.31-2.18,24-22.37,41.28-24.55h0.18l-1-1.7C221.42,280.49,214.79,300.95,197.29,303Z" transform="translate(-157 -157)"/><path class="cls-25" d="M197.29,303c17.5-2.07,24.13-22.52,41.62-24.59l-1-1.7-0.17,0c-17.31,2.18-24,22.37-41.28,24.55h-0.18Z" transform="translate(-157 -157)"/><path class="cls-25" d="M235.92,273.36l-0.17,0c-5.68.71-10.21,3.37-14.34,6.68l-0.13.1-0.12.11c-8.36,6.78-15.15,16.2-26.66,17.66l-0.19,0,1,1.7,0.19,0c17.29-2.19,24-22.36,41.24-24.54l0.19,0Z" transform="translate(-157 -157)"/><path class="cls-25" d="M239.92,280.12h-0.18c-17.31,2.17-24,22.37-41.28,24.55l-0.17,0,1,1.67,0.19,0c17.29-2.18,24-22.36,41.24-24.54l0.19,0Z" transform="translate(-157 -157)"/><path class="cls-24" d="M236.93,275.05l-0.19,0c-17.29,2.19-24,22.36-41.24,24.54l-0.19,0,1,1.67h0.18c17.31-2.18,24-22.37,41.28-24.55l0.17,0Z" transform="translate(-157 -157)"/><path class="cls-24" d="M217.29,273.43l-1-1.69-0.09.07c-8.38,6.8-15.19,16.25-26.74,17.69h-0.14l1,1.7,0.21,0a27.22,27.22,0,0,0,13.15-5.78C208.45,281.8,212.62,277.2,217.29,273.43Z" transform="translate(-157 -157)"/><path class="cls-25" d="M220.28,278.49l-1-1.69c-8.46,6.83-15.29,16.4-27,17.78l1,1.7,0.22,0c10.44-1.33,17-9.23,24.39-15.75C218.7,279.8,219.48,279.13,220.28,278.49Z" transform="translate(-157 -157)"/><path class="cls-24" d="M192.31,294.58c11.67-1.38,18.51-10.95,27-17.78l-1-1.69-0.1.08c-8.37,6.79-15.18,16.23-26.71,17.67h-0.16Z" transform="translate(-157 -157)"/><path class="cls-25" d="M189.32,289.51h0.14c11.55-1.44,18.36-10.89,26.74-17.69l0.09-.07-1-1.68-0.11.08c-8.37,6.79-15.18,16.23-26.71,17.67l-0.15,0Z" transform="translate(-157 -157)"/><path class="cls-24" d="M220.28,278.49c-0.8.64-1.58,1.31-2.36,2C210.54,287,204,294.9,193.53,296.24l-0.22,0,1,1.67,0.19,0c11.51-1.45,18.3-10.87,26.66-17.66l0.13-.11-0.9-1.53Z" transform="translate(-157 -157)"/><path class="cls-25" d="M191.31,292.88h0.16C203,291.43,209.81,282,218.18,275.2l0.1-.08-1-1.68c-4.67,3.77-8.84,8.37-13.61,12a27.22,27.22,0,0,1-13.15,5.78l-0.21,0Z" transform="translate(-157 -157)"/><path class="cls-24" d="M188.33,287.84l0.15,0c11.53-1.44,18.34-10.88,26.71-17.67l0.11-.08-0.78-1.34-0.17-.31c-8.46,6.83-15.3,16.41-27,17.79Z" transform="translate(-157 -157)"/><path class="cls-25" d="M226.89,267a4,4,0,0,0,.09-0.43c0-.12.08-0.15,0.21-0.14h0.55l-0.65-.36,0.13-.57-0.45.29a0.23,0.23,0,0,1-.18,0c-0.18-.08-0.34-0.18-0.54-0.26l0.32,0.54-0.52.38,0.61,0a0.14,0.14,0,0,1,.16.09C226.69,266.67,226.78,266.82,226.89,267Z" transform="translate(-157 -157)"/><path class="cls-25" d="M227.83,273.52l0.61,0.34-0.29-.59,0.51-.39-0.58,0a0.15,0.15,0,0,1-.17-0.1c-0.06-.15-0.15-0.3-0.24-0.49,0,0.19-.09.35-0.12,0.52a0.11,0.11,0,0,1-.13.1l-0.58,0,0.6,0.34-0.13.62Z" transform="translate(-157 -157)"/><path class="cls-25" d="M219.87,266.91c0.11,0.13.23,0.27,0.33,0.41a0.17,0.17,0,0,1,0,.15c-0.09.16-.18,0.31-0.29,0.49l0.51-.22a0.12,0.12,0,0,1,.17,0l0.35,0.42a3.87,3.87,0,0,0,0-.49,0.17,0.17,0,0,1,.14-0.23,2,2,0,0,0,.42-0.19l-0.49-.12a0.12,0.12,0,0,1-.11-0.14c0-.17,0-0.34,0-0.55l-0.38.59-0.57-.2Z" transform="translate(-157 -157)"/><path class="cls-25" d="M222.11,266.78l0.29-.58,0.68,0.1c-0.15-.13-0.27-0.26-0.4-0.36a0.14,0.14,0,0,1,0-.21,2.29,2.29,0,0,0,.19-0.43,4.75,4.75,0,0,0-.44.21,0.18,0.18,0,0,1-.25,0l-0.39-.35c0,0.21.08,0.37,0.12,0.54a0.11,0.11,0,0,1-.07.14,2.55,2.55,0,0,0-.46.27l0.53,0.07a0.13,0.13,0,0,1,.13.12C222,266.41,222.06,266.58,222.11,266.78Z" transform="translate(-157 -157)"/><path class="cls-25" d="M227.56,267.58l0.58,0.23a0.14,0.14,0,0,1,.07.11c0,0.16,0,.32,0,0.52l0.46-.42,0.7,0.29c-0.13-.17-0.22-0.31-0.34-0.44a0.11,0.11,0,0,1,0-.19l0.37-.31-0.61,0a0.17,0.17,0,0,1-.19-0.08l-0.35-.46c0,0.18,0,.33,0,0.48a0.12,0.12,0,0,1-.14.13l-0.37,0a0.91,0.91,0,0,0-.16.05h0Z" transform="translate(-157 -157)"/><path class="cls-25" d="M226.76,274.21c-0.18-.07-0.33-0.14-0.48-0.18a0.18,0.18,0,0,1-.16-0.24c0-.15,0-0.3,0-0.47l-0.42.5-0.63-.23c0.12,0.17.2,0.31,0.31,0.44a0.14,0.14,0,0,1,0,.21c-0.11.12-.2,0.25-0.32,0.41l0.53-.15a0.13,0.13,0,0,1,.18.07c0.09,0.14.19,0.28,0.31,0.45,0-.21,0-0.38,0-0.55a0.11,0.11,0,0,1,.11-0.13Z" transform="translate(-157 -157)"/><path class="cls-25" d="M225,266.21l-0.22-.6,0.57-.32c-0.22,0-.4,0-0.59-0.05a0.16,0.16,0,0,1-.18-0.13,2.54,2.54,0,0,0-.2-0.46l-0.14.55-0.76,0,0.57,0.39-0.19.58,0.45-.27a0.16,0.16,0,0,1,.21,0C224.69,266,224.84,266.09,225,266.21Z" transform="translate(-157 -157)"/><path class="cls-25" d="M220.64,270l-0.27-.46a0.14,0.14,0,0,1,0-.19c0.11-.13.22-0.27,0.35-0.43-0.19,0-.35.09-0.5,0.14A0.14,0.14,0,0,1,220,269a1.86,1.86,0,0,0-.28-0.41l0,0.39c0,0.25,0,.25-0.24.32l-0.33.11,0,0,0.57,0.22,0,0.63,0,0c0.1-.13.21-0.26,0.31-0.4a0.13,0.13,0,0,1,.19-0.06Z" transform="translate(-157 -157)"/><path class="cls-25" d="M228.19,271.74l0.52,0.06a0.18,0.18,0,0,1,.2.16c0,0.15.09,0.3,0.15,0.48,0.08-.17.15-0.3,0.2-0.44a0.14,0.14,0,0,1,.19-0.09L230,272l-0.48-.37a0.1,0.1,0,0,1,0-.15c0.07-.14.14-0.28,0.22-0.45a4.31,4.31,0,0,0-.47.21,0.2,0.2,0,0,1-.27,0c-0.12-.11-0.26-0.21-0.43-0.33,0.06,0.18.09,0.32,0.15,0.46a0.14,0.14,0,0,1-.1.22c-0.14.06-.27,0.13-0.41,0.2v0Z" transform="translate(-157 -157)"/><path class="cls-25" d="M223.38,274.5l0.09,0.67,0.31-.59,0.64,0.11c-0.14-.16-0.26-0.29-0.38-0.41a0.11,0.11,0,0,1,0-.16,3.16,3.16,0,0,0,.23-0.48l-0.43.21a0.15,0.15,0,0,1-.22,0c-0.1-.13-0.22-0.24-0.36-0.38,0,0.21,0,.39.07,0.56a0.12,0.12,0,0,1-.09.15l-0.49.25Z" transform="translate(-157 -157)"/><path class="cls-25" d="M220.8,270.87c-0.13.11-.26,0.22-0.38,0.34a0.15,0.15,0,0,1-.22,0c-0.13-.09-0.27-0.16-0.44-0.25,0.08,0.19.14,0.34,0.21,0.49a0.16,0.16,0,0,1,0,.22c-0.12.11-.23,0.24-0.37,0.39,0.19,0,.34,0,0.49-0.09a0.16,0.16,0,0,1,.21.12c0.06,0.15.12,0.29,0.2,0.47,0-.21.07-0.38,0.1-0.55a0.14,0.14,0,0,1,.14-0.15l0.52-.08-0.56-.33,0.13-.64h0Z" transform="translate(-157 -157)"/><path class="cls-25" d="M229.22,269.33l-0.72-.2,0.4,0.4c0.07,0.07.09,0.12,0,.18a1.71,1.71,0,0,0-.25.39l0.49-.14a0.18,0.18,0,0,1,.22.06l0.41,0.41c0-.18,0-0.34-0.07-0.5s0-.12.12-0.14a3.34,3.34,0,0,0,.5-0.13l-0.57-.17a0.13,0.13,0,0,1-.13-0.12c0-.16,0-0.32-0.07-0.51Z" transform="translate(-157 -157)"/><path class="cls-25" d="M221.69,272.47l-0.21.62h-0.64l0.5,0.4-0.21.66,0.41-.33a0.14,0.14,0,0,1,.22,0c0.12,0.11.25,0.2,0.41,0.32-0.05-.2-0.09-0.36-0.14-0.52a0.16,0.16,0,0,1,.07-0.22l0.4-.26,0,0H221.9l-0.22-.62h0Z" transform="translate(-157 -157)"/><polygon class="cls-25" points="64.69 115.47 64.69 115.48 64.69 115.47 64.69 115.47"/><polygon class="cls-25" points="63.8 113.86 63.8 113.87 63.8 113.87 63.8 113.86"/><path class="cls-25" d="M227.57,267.58h0Z" transform="translate(-157 -157)"/><rect class="cls-20" x="98" y="144" width="2" height="8"/><rect class="cls-12" y="268" width="100" height="10"/><line class="cls-19" x1="468.5" y1="223" x2="468.5" y2="190"/><line class="cls-19" x1="476.5" y1="215" x2="476.5" y2="182"/><line class="cls-19" x1="484.5" y1="207" x2="484.5" y2="175"/><line class="cls-19" x1="492.5" y1="207" x2="492.5" y2="175"/><line class="cls-19" x1="501.5" y1="207" x2="501.5" y2="175"/><rect class="cls-20" x="510" y="175" width="1" height="32"/><polygon class="cls-20" points="462 228 461 228 461 195.78 484.31 174.25 484.5 174.25 516 174.5 516 175.5 484.69 175.25 462 196.22 462 228"/><polygon class="cls-26" points="477 204 477 212 469 212 469 220 461 220 461 228 517 228 517 220 517 212 517 204 477 204"/><rect class="cls-27" x="505" y="224" width="8" height="2"/><rect class="cls-27" x="496" y="224" width="8" height="2"/><rect class="cls-27" x="485" y="223" width="8" height="2"/><rect class="cls-27" x="490" y="220" width="8" height="2"/><rect class="cls-27" x="494" y="217" width="8" height="2"/><rect class="cls-27" x="485" y="217" width="8" height="2"/><rect class="cls-27" x="494" y="210" width="8" height="2"/><rect class="cls-27" x="498" y="213" width="8" height="2"/><rect class="cls-27" x="503" y="210" width="8" height="2"/><rect class="cls-27" x="507" y="207" width="8" height="2"/><rect class="cls-27" x="498" y="207" width="8" height="2"/><rect class="cls-27" x="500" y="220" width="8" height="2"/><rect class="cls-27" x="461" y="223" width="8" height="2"/><rect class="cls-27" x="466" y="220" width="8" height="2"/><rect class="cls-27" x="475" y="217" width="8" height="2"/><rect class="cls-27" x="474" y="213" width="8" height="2"/><rect class="cls-27" x="479" y="210" width="8" height="2"/><rect class="cls-27" x="483" y="207" width="8" height="2"/><rect class="cls-18" x="475" y="205" width="42" height="2"/><rect class="cls-9" x="475" y="204" width="42" height="2"/><rect class="cls-18" x="467" y="213" width="10" height="2"/><rect class="cls-9" x="467" y="212" width="10" height="2"/><rect class="cls-18" x="459" y="221" width="10" height="2"/><rect class="cls-9" x="459" y="220" width="10" height="2"/><rect class="cls-1" x="417" y="238" width="100" height="10"/><rect class="cls-2" x="417" y="248" width="100" height="20"/><rect class="cls-3" x="417" y="228" width="100" height="10"/><g id="cDO6nt.tif"><path class="cls-28" d="M646.25,285.51A6.68,6.68,0,0,0,641,282a0.29,0.29,0,0,0,0,.09c0.42,0.94.85,1.88,1.28,2.82a1.83,1.83,0,0,0,1.23,1,1.24,1.24,0,0,1,.25.09,11.38,11.38,0,0,1-3.21,1.4c0.07-.14.12-0.24,0.16-0.34a2.46,2.46,0,0,0-.05-1.89c-0.36-.89-0.77-1.77-1.16-2.65a6.53,6.53,0,0,0-.41-0.7,0.24,0.24,0,0,0-.14-0.1,19.26,19.26,0,0,1-3.47-1h-0.05c0.16,0.2.33,0.39,0.48,0.58a7.18,7.18,0,0,1,1,1.82,21.14,21.14,0,0,1,.85,3.39,10.22,10.22,0,0,0,.79,2.33l0,0.12-0.31,0a9.23,9.23,0,0,1-2.15-.54,0.24,0.24,0,0,1-.18-0.29,14.76,14.76,0,0,0,.08-3.19,5.59,5.59,0,0,0-.66-2.22,4.34,4.34,0,0,0-1.94-1.76c-0.23-.11-0.47-0.2-0.73-0.31a5.5,5.5,0,0,1,1-2.33,8,8,0,0,0,3.46,2c0.28,0.08.57,0.14,0.86,0.2l0,0-0.43-.49a8.74,8.74,0,0,0-2-1.65,3.19,3.19,0,0,0-1.43-.47,5.34,5.34,0,0,1,1.36-3c0,0.23.07,0.42,0.11,0.61a4.05,4.05,0,0,0,1,1.88,18.39,18.39,0,0,0,2.68,2.58l0.13,0.09h0c0-.15,0-0.3,0-0.45a27.31,27.31,0,0,0,0-3.22,5.19,5.19,0,0,0-.86-2.58l0-.07a8.24,8.24,0,0,1,2.95,1l-0.05.06a1.74,1.74,0,0,0-.66,1.18,12.3,12.3,0,0,0-.07,2.06c0,1,0,1.95,0,2.92a0.12,0.12,0,0,0,.12.14c0.46,0.1.92,0.19,1.37,0.31s1,0.32,1.49.48l0.07,0c-0.22-.3-0.43-0.58-0.63-0.88a8.32,8.32,0,0,1-1.45-3.75,3.85,3.85,0,0,1,.2-1.81,0.43,0.43,0,0,1,.45-0.33,5.25,5.25,0,0,1,1.76.31,0.25,0.25,0,0,1,0,.06,2.82,2.82,0,0,0-.62,2.48,6.42,6.42,0,0,0,.81,2.09,7,7,0,0,0,1.58,1.93,5,5,0,0,0,.71.48,1.91,1.91,0,0,0,1,.19A17.67,17.67,0,0,1,646.25,285.51Z" transform="translate(-157 -157)"/></g><polygon class="cls-20" points="515.84 150.19 515.81 150.13 487.99 103.24 488.87 102.71 516.73 149.66 515.84 150.19"/><path class="cls-23" d="M652.75,273.38c-5.68.71-10.21,3.37-14.34,6.68l-0.13.1-0.9-1.53-0.1-.15-1-1.69-1-1.69-1-1.68-1-1.69-1-1.68-0.78-1.34-0.17-.31c4.21-3.4,8.83-6.12,14.64-6.8l6.95,11.75Zm-14.27-.3h-0.64l0.5,0.4-0.21.66,0.41-.33a0.14,0.14,0,0,1,.22,0c0.12,0.11.25,0.2,0.41,0.32-0.05-.2-0.09-0.36-0.14-0.52a0.16,0.16,0,0,1,.07-0.22l0.4-.26,0,0h-0.6l-0.21-.62h0Zm-1.07-1.88a0.15,0.15,0,0,1-.22,0c-0.13-.09-0.27-0.16-0.44-0.25,0.08,0.19.14,0.34,0.21,0.49a0.15,0.15,0,0,1,0,.22c-0.12.11-.23,0.24-0.37,0.39,0.19,0,.34,0,0.49-0.09a0.16,0.16,0,0,1,.21.12c0.06,0.15.12,0.29,0.2,0.47,0-.21.07-0.38,0.1-0.55a0.14,0.14,0,0,1,.14-0.15l0.53-.08-0.56-.32,0.13-.64h0C637.67,271,637.54,271.09,637.42,271.21Zm7.15-3.63h0l0.58,0.23a0.14,0.14,0,0,1,.07.1c0,0.16,0,.32,0,0.52l0.46-.41,0.7,0.29c-0.13-.17-0.22-0.31-0.34-0.44a0.11,0.11,0,0,1,0-.19l0.38-.31-0.61,0a0.17,0.17,0,0,1-.19-0.08l-0.35-.46c0,0.18,0,.33,0,0.48a0.12,0.12,0,0,1-.14.13l-0.37,0a0.9,0.9,0,0,0-.16.05S644.57,267.57,644.57,267.58Zm-0.59-1c0-.12.08-0.15,0.21-0.14h0.55l-0.65-.36,0.13-.57-0.45.29a0.24,0.24,0,0,1-.18,0c-0.18-.08-0.34-0.18-0.54-0.26l0.32,0.54-0.52.39,0.61,0a0.14,0.14,0,0,1,.16.09c0.08,0.15.17,0.3,0.27,0.47A4.08,4.08,0,0,0,644,266.57Zm1.46,7.29-0.29-.59,0.52-.39-0.58,0a0.15,0.15,0,0,1-.17-0.1c-0.06-.15-0.15-0.3-0.24-0.49,0,0.19-.09.35-0.12,0.52a0.11,0.11,0,0,1-.13.1l-0.58,0,0.6,0.34-0.13.62,0.51-.41Zm-8.24-6.54a0.17,0.17,0,0,1,0,.15c-0.09.16-.18,0.31-0.29,0.49l0.51-.22a0.12,0.12,0,0,1,.17,0l0.35,0.42a4.06,4.06,0,0,0,0-.49,0.17,0.17,0,0,1,.14-0.23,1.92,1.92,0,0,0,.42-0.19l-0.49-.13a0.12,0.12,0,0,1-.11-0.14c0-.17,0-0.34,0-0.55l-0.38.59-0.57-.2,0,0C637,267,637.09,267.18,637.2,267.32Zm2.2-1.11,0.68,0.1c-0.15-.14-0.27-0.26-0.4-0.36a0.14,0.14,0,0,1,0-.21,2.36,2.36,0,0,0,.19-0.43c-0.15.07-.3,0.13-0.44,0.21a0.18,0.18,0,0,1-.25,0l-0.39-.35c0,0.21.08,0.37,0.12,0.54a0.11,0.11,0,0,1-.07.14,2.51,2.51,0,0,0-.46.27l0.53,0.07a0.13,0.13,0,0,1,.13.12c0,0.16.07,0.33,0.12,0.53Zm3.88,7.82a0.18,0.18,0,0,1-.16-0.24c0-.15,0-0.3,0-0.48l-0.42.5-0.63-.23c0.12,0.17.2,0.31,0.31,0.44a0.14,0.14,0,0,1,0,.21c-0.11.12-.2,0.25-0.32,0.41l0.53-.15a0.13,0.13,0,0,1,.18.07c0.09,0.14.19,0.28,0.31,0.45,0-.21,0-0.38,0-0.55a0.11,0.11,0,0,1,.11-0.14l0.55-.14A5.1,5.1,0,0,0,643.28,274Zm-1.48-8.42,0.57-.32c-0.22,0-.4,0-0.59-0.05a0.16,0.16,0,0,1-.18-0.13,2.44,2.44,0,0,0-.2-0.46l-0.14.55-0.76,0,0.57,0.4-0.19.58,0.45-.27a0.16,0.16,0,0,1,.21,0c0.14,0.11.29,0.2,0.47,0.33Zm-4.43,4a0.14,0.14,0,0,1,0-.19c0.11-.13.22-0.27,0.35-0.43-0.19,0-.35.08-0.5,0.14A0.14,0.14,0,0,1,637,269a1.9,1.9,0,0,0-.28-0.41c0,0.13,0,.26,0,0.39s0,0.25-.24.32l-0.33.11,0,0,0.57,0.22,0,0.63,0,0c0.1-.13.21-0.26,0.31-0.4a0.13,0.13,0,0,1,.19-0.06l0.47,0.18Zm8.34,2.21a0.18,0.18,0,0,1,.2.16c0,0.15.09,0.3,0.15,0.48,0.08-.17.15-0.3,0.2-0.44a0.14,0.14,0,0,1,.19-0.09L647,272l-0.48-.37a0.1,0.1,0,0,1,0-.15c0.07-.14.14-0.28,0.22-0.45a4.59,4.59,0,0,0-.47.21,0.2,0.2,0,0,1-.27,0c-0.12-.11-0.26-0.21-0.43-0.33,0.06,0.18.09,0.32,0.15,0.46a0.14,0.14,0,0,1-.1.22c-0.14.06-.27,0.13-0.41,0.2v0Zm-5.23,3.37,0.31-.59,0.64,0.11c-0.14-.16-0.26-0.29-0.38-0.41a0.11,0.11,0,0,1,0-.16,3.1,3.1,0,0,0,.23-0.48l-0.43.21a0.15,0.15,0,0,1-.22,0c-0.1-.13-0.22-0.24-0.36-0.38,0,0.21,0,.39.07,0.56a0.12,0.12,0,0,1-.09.16l-0.49.25,0.64,0.11Zm5-6,0.4,0.4c0.07,0.07.09,0.12,0,.19a1.67,1.67,0,0,0-.25.39l0.49-.14a0.18,0.18,0,0,1,.22.06l0.41,0.41c0-.18,0-0.34-0.07-0.5s0-.12.12-0.14a3.39,3.39,0,0,0,.51-0.13l-0.57-.17a0.13,0.13,0,0,1-.12-0.12c0-.16,0-0.32-0.07-0.51l-0.37.46Z" transform="translate(-157 -157)"/><path class="cls-24" d="M616.28,306.38l1,1.7c17.49-2.07,24.13-22.52,41.62-24.59l-1-1.7-0.19,0c-17.29,2.19-24,22.36-41.24,24.54Z" transform="translate(-157 -157)"/><path class="cls-24" d="M614.29,303l1,1.7,0.17,0c17.31-2.18,24-22.37,41.28-24.55h0.18l-1-1.7C638.42,280.49,631.79,300.95,614.29,303Z" transform="translate(-157 -157)"/><path class="cls-25" d="M614.29,303c17.5-2.07,24.13-22.52,41.62-24.59l-1-1.7-0.17,0c-17.31,2.18-24,22.37-41.28,24.55h-0.18Z" transform="translate(-157 -157)"/><path class="cls-25" d="M652.92,273.36l-0.17,0c-5.68.71-10.21,3.37-14.34,6.68l-0.13.1-0.12.11c-8.36,6.78-15.15,16.2-26.66,17.66l-0.19,0,1,1.7,0.19,0c17.29-2.19,24-22.36,41.24-24.54l0.19,0Z" transform="translate(-157 -157)"/><path class="cls-25" d="M656.92,280.12h-0.18c-17.31,2.17-24,22.37-41.28,24.55l-0.17,0,1,1.67,0.19,0c17.29-2.18,24-22.36,41.24-24.54l0.19,0Z" transform="translate(-157 -157)"/><path class="cls-24" d="M653.93,275.05l-0.19,0c-17.29,2.19-24,22.36-41.24,24.54l-0.19,0,1,1.67h0.18c17.31-2.18,24-22.37,41.28-24.55l0.17,0Z" transform="translate(-157 -157)"/><path class="cls-24" d="M634.29,273.43l-1-1.69-0.09.08c-8.38,6.8-15.19,16.25-26.74,17.69h-0.14l1,1.7,0.2,0a27.22,27.22,0,0,0,13.15-5.78C625.45,281.8,629.62,277.2,634.29,273.43Z" transform="translate(-157 -157)"/><path class="cls-25" d="M637.28,278.49l-1-1.69c-8.46,6.83-15.29,16.4-27,17.77l1,1.7,0.22,0c10.45-1.33,17-9.23,24.39-15.75C635.7,279.8,636.48,279.13,637.28,278.49Z" transform="translate(-157 -157)"/><path class="cls-24" d="M609.31,294.58c11.67-1.38,18.51-10.95,27-17.77l-1-1.69-0.1.08c-8.37,6.79-15.18,16.23-26.71,17.67h-0.16Z" transform="translate(-157 -157)"/><path class="cls-25" d="M606.32,289.51h0.14c11.55-1.44,18.36-10.89,26.74-17.69l0.09-.08-1-1.68-0.11.08c-8.37,6.79-15.18,16.23-26.71,17.67l-0.15,0Z" transform="translate(-157 -157)"/><path class="cls-24" d="M637.28,278.49c-0.8.64-1.58,1.31-2.36,2C627.54,287,621,294.9,610.53,296.24l-0.22,0,1,1.67,0.19,0c11.51-1.45,18.3-10.87,26.66-17.66l0.13-.11-0.9-1.53Z" transform="translate(-157 -157)"/><path class="cls-25" d="M608.31,292.88h0.16c11.53-1.44,18.34-10.88,26.71-17.67l0.1-.08-1-1.68c-4.67,3.77-8.84,8.37-13.61,12a27.22,27.22,0,0,1-13.15,5.78l-0.2,0Z" transform="translate(-157 -157)"/><path class="cls-24" d="M605.33,287.84l0.15,0c11.53-1.44,18.34-10.88,26.71-17.67l0.11-.08-0.78-1.34-0.17-.31c-8.46,6.83-15.3,16.41-27,17.79Z" transform="translate(-157 -157)"/><path class="cls-25" d="M643.89,267a4.08,4.08,0,0,0,.09-0.43c0-.12.08-0.15,0.21-0.14h0.55l-0.65-.36,0.13-.57-0.45.29a0.24,0.24,0,0,1-.18,0c-0.18-.08-0.34-0.18-0.54-0.26l0.32,0.54-0.52.39,0.61,0a0.14,0.14,0,0,1,.16.09C643.69,266.67,643.79,266.82,643.89,267Z" transform="translate(-157 -157)"/><path class="cls-25" d="M644.83,273.52l0.61,0.34-0.29-.59,0.52-.39-0.58,0a0.15,0.15,0,0,1-.17-0.1c-0.06-.15-0.15-0.3-0.24-0.49,0,0.19-.09.35-0.12,0.52a0.11,0.11,0,0,1-.13.1l-0.58,0,0.6,0.34-0.13.62Z" transform="translate(-157 -157)"/><path class="cls-25" d="M636.87,266.91c0.11,0.13.23,0.27,0.33,0.41a0.17,0.17,0,0,1,0,.15c-0.09.16-.18,0.31-0.29,0.49l0.51-.22a0.12,0.12,0,0,1,.17,0l0.35,0.42a4.06,4.06,0,0,0,0-.49,0.17,0.17,0,0,1,.14-0.23,1.92,1.92,0,0,0,.42-0.19l-0.49-.13a0.12,0.12,0,0,1-.11-0.14c0-.17,0-0.34,0-0.55l-0.38.59-0.57-.2Z" transform="translate(-157 -157)"/><path class="cls-25" d="M639.11,266.78l0.29-.58,0.68,0.1c-0.15-.14-0.27-0.26-0.4-0.36a0.14,0.14,0,0,1,0-.21,2.36,2.36,0,0,0,.19-0.43c-0.15.07-.3,0.13-0.44,0.21a0.18,0.18,0,0,1-.25,0l-0.39-.35c0,0.21.08,0.37,0.12,0.54a0.11,0.11,0,0,1-.07.14,2.51,2.51,0,0,0-.46.27l0.53,0.07a0.13,0.13,0,0,1,.13.12C639,266.41,639.06,266.58,639.11,266.78Z" transform="translate(-157 -157)"/><path class="cls-25" d="M644.56,267.58l0.58,0.23a0.14,0.14,0,0,1,.07.1c0,0.16,0,.32,0,0.52l0.46-.41,0.7,0.29c-0.13-.17-0.22-0.31-0.34-0.44a0.11,0.11,0,0,1,0-.19l0.38-.31-0.61,0a0.17,0.17,0,0,1-.19-0.08l-0.35-.46c0,0.18,0,.33,0,0.48a0.12,0.12,0,0,1-.14.13l-0.37,0a0.9,0.9,0,0,0-.16.05h0Z" transform="translate(-157 -157)"/><path class="cls-25" d="M643.76,274.2a5.1,5.1,0,0,0-.48-0.18,0.18,0.18,0,0,1-.16-0.24c0-.15,0-0.3,0-0.48l-0.42.5-0.63-.23c0.12,0.17.2,0.31,0.31,0.44a0.14,0.14,0,0,1,0,.21c-0.11.12-.2,0.25-0.32,0.41l0.53-.15a0.13,0.13,0,0,1,.18.07c0.09,0.14.19,0.28,0.31,0.45,0-.21,0-0.38,0-0.55a0.11,0.11,0,0,1,.11-0.14Z" transform="translate(-157 -157)"/><path class="cls-25" d="M642,266.21l-0.22-.6,0.57-.32c-0.22,0-.4,0-0.59-0.05a0.16,0.16,0,0,1-.18-0.13,2.44,2.44,0,0,0-.2-0.46l-0.14.55-0.76,0,0.57,0.4-0.19.58,0.45-.27a0.16,0.16,0,0,1,.21,0C641.69,266,641.84,266.09,642,266.21Z" transform="translate(-157 -157)"/><path class="cls-25" d="M637.64,270l-0.27-.46a0.14,0.14,0,0,1,0-.19c0.11-.13.22-0.27,0.35-0.43-0.19,0-.35.08-0.5,0.14A0.14,0.14,0,0,1,637,269a1.9,1.9,0,0,0-.28-0.41c0,0.13,0,.26,0,0.39s0,0.25-.24.32l-0.33.11,0,0,0.57,0.22,0,0.63,0,0c0.1-.13.21-0.26,0.31-0.4a0.13,0.13,0,0,1,.19-0.06Z" transform="translate(-157 -157)"/><path class="cls-25" d="M645.19,271.74l0.52,0.06a0.18,0.18,0,0,1,.2.16c0,0.15.09,0.3,0.15,0.48,0.08-.17.15-0.3,0.2-0.44a0.14,0.14,0,0,1,.19-0.09L647,272l-0.48-.37a0.1,0.1,0,0,1,0-.15c0.07-.14.14-0.28,0.22-0.45a4.59,4.59,0,0,0-.47.21,0.2,0.2,0,0,1-.27,0c-0.12-.11-0.26-0.21-0.43-0.33,0.06,0.18.09,0.32,0.15,0.46a0.14,0.14,0,0,1-.1.22c-0.14.06-.27,0.13-0.41,0.2v0Z" transform="translate(-157 -157)"/><path class="cls-25" d="M640.38,274.5l0.09,0.67,0.31-.59,0.64,0.11c-0.14-.16-0.26-0.29-0.38-0.41a0.11,0.11,0,0,1,0-.16,3.1,3.1,0,0,0,.23-0.48l-0.43.21a0.15,0.15,0,0,1-.22,0c-0.1-.13-0.22-0.24-0.36-0.38,0,0.21,0,.39.07,0.56a0.12,0.12,0,0,1-.09.16l-0.49.25Z" transform="translate(-157 -157)"/><path class="cls-25" d="M637.8,270.87c-0.13.11-.26,0.22-0.38,0.34a0.15,0.15,0,0,1-.22,0c-0.13-.09-0.27-0.16-0.44-0.25,0.08,0.19.14,0.34,0.21,0.49a0.15,0.15,0,0,1,0,.22c-0.12.11-.23,0.24-0.37,0.39,0.19,0,.34,0,0.49-0.09a0.16,0.16,0,0,1,.21.12c0.06,0.15.12,0.29,0.2,0.47,0-.21.07-0.38,0.1-0.55a0.14,0.14,0,0,1,.14-0.15l0.53-.08-0.56-.32,0.13-.64h0Z" transform="translate(-157 -157)"/><path class="cls-25" d="M646.22,269.33l-0.72-.2,0.4,0.4c0.07,0.07.09,0.12,0,.19a1.67,1.67,0,0,0-.25.39l0.49-.14a0.18,0.18,0,0,1,.22.06l0.41,0.41c0-.18,0-0.34-0.07-0.5s0-.12.12-0.14a3.39,3.39,0,0,0,.51-0.13l-0.57-.17a0.13,0.13,0,0,1-.12-0.12c0-.16,0-0.32-0.07-0.51Z" transform="translate(-157 -157)"/><path class="cls-25" d="M638.69,272.47l-0.21.62h-0.64l0.5,0.4-0.21.66,0.41-.33a0.14,0.14,0,0,1,.22,0c0.12,0.11.25,0.2,0.41,0.32-0.05-.2-0.09-0.36-0.14-0.52a0.16,0.16,0,0,1,.07-0.22l0.4-.26,0,0h-0.6l-0.21-.62h0Z" transform="translate(-157 -157)"/><polygon class="cls-25" points="481.69 115.47 481.69 115.48 481.69 115.47 481.69 115.47"/><polygon class="cls-25" points="480.8 113.86 480.8 113.87 480.8 113.87 480.8 113.86"/><path class="cls-25" d="M644.57,267.58s0,0,0,0h0Z" transform="translate(-157 -157)"/><rect class="cls-20" x="515" y="144" width="2" height="8"/><rect class="cls-12" x="417" y="268" width="100" height="10"/></svg>