<?xml version="1.0" encoding="UTF-8" standalone="no"?>
<svg width="1765px" height="995px" viewBox="0 0 1765 995" version="1.1" xmlns="http://www.w3.org/2000/svg" xmlns:xlink="http://www.w3.org/1999/xlink">
    <!-- Generator: Sketch 46.2 (44496) - http://www.bohemiancoding.com/sketch -->
    <title>vip-1</title>
    <desc>Created with Sketch.</desc>
    <defs>
        <polygon id="path-1" points="0 995 1764.184 995 1764.184 0.82 0 0.82"></polygon>
    </defs>
    <g id="Page-1" stroke="none" stroke-width="1" fill="none" fill-rule="evenodd">
        <g id="vip-1" transform="translate(0.000000, -1.000000)">
            <polygon id="Fill-1" fill="#E6E6E6" points="1233.092 899.697 1739.092 899.697 1739.092 99.697 1233.092 99.697"></polygon>
            <polygon id="Fill-2" fill="#E6E6E6" points="631.092 899.697 1137.092 899.697 1137.092 99.697 631.092 99.697"></polygon>
            <polygon id="Fill-3" fill="#E6E6E6" points="24.092 899.697 530.092 899.697 530.092 99.697 24.092 99.697"></polygon>
            <path d="M1233.0918,236.1974 L1739.0918,236.1974" id="Stroke-4" stroke="#E6E6E6"></path>
            <polygon id="Fill-5" fill="#FFFFFF" points="174.592 407.197 325.592 407.197 325.592 347.197 174.592 347.197"></polygon>
            <polygon id="Stroke-6" stroke="#000000" points="174.592 407.197 325.592 407.197 325.592 347.197 174.592 347.197"></polygon>
            <polygon id="Fill-7" fill="#FFFFFF" points="325.592 407.197 499.592 407.197 499.592 347.197 325.592 347.197"></polygon>
            <polygon id="Stroke-8" stroke="#000000" points="325.592 407.197 499.592 407.197 499.592 347.197 325.592 347.197"></polygon>
            <polygon id="Fill-9" fill="#000000" points="50.092 406.697 175.092 406.697 175.092 346.697 50.092 346.697"></polygon>
            <polygon id="Fill-10" fill="#000000" points="24.092 167.697 530.092 167.697 530.092 99.697 24.092 99.697"></polygon>
            <text id="VT-State-Election" font-family="Roboto-Regular, Roboto" font-size="22" font-weight="normal" fill="#FFFFFF">
                <tspan x="50.5923" y="136.91635">V</tspan>
                <tspan x="64.5893703" y="136.91635" letter-spacing="-0.4312">T</tspan>
                <tspan x="76.8554359" y="136.91635"> State Election</tspan>
            </text>
            <text id="Bennington-Town-Hall" font-family="Roboto-Regular, Roboto" font-size="20" font-weight="normal" fill="#000000">
                <tspan x="50.5918" y="467.6536">Benning</tspan>
                <tspan x="122.818363" y="467.6536" letter-spacing="-0.236">t</tspan>
                <tspan x="128.920253" y="467.6536">on</tspan>
                <tspan x="151.361659" y="467.6536" letter-spacing="-0.018"> </tspan>
                <tspan x="155.904206" y="467.6536" letter-spacing="-0.972">T</tspan>
                <tspan x="165.899003" y="467.6536">own</tspan>
                <tspan x="203.369706" y="467.6536" letter-spacing="0.38"> </tspan>
                <tspan x="208.700878" y="467.6536">Hall</tspan>
            </text>
            <text id="225-Main-St.-Bennington-VT-09362" font-family="Roboto-Regular, Roboto" font-size="18" font-weight="normal" fill="#000000">
                <tspan x="50.5918" y="494.99735">225 Main St. Benning</tspan>
                <tspan x="220.387698" y="494.99735" letter-spacing="-0.27">t</tspan>
                <tspan x="225.8218" y="494.99735">on V</tspan>
                <tspan x="261.927269" y="494.99735" letter-spacing="-0.36">T</tspan>
                <tspan x="271.955941" y="494.99735"> 09362</tspan>
            </text>
            <text id="Mt-Anthony-Union-High-School" font-family="Roboto-Regular, Roboto" font-size="20" font-weight="normal" fill="#000000">
                <tspan x="50.5918" y="555.6536">Mt Anthony Union High School</tspan>
            </text>
            <text id="1000-County-St,-Bennington-VT-09362" font-family="Roboto-Regular, Roboto" font-size="18" font-weight="normal" fill="#000000">
                <tspan x="50.5918" y="582.99735">1000 County St, Benning</tspan>
                <tspan x="245.717777" y="582.99735" letter-spacing="-0.2664">t</tspan>
                <tspan x="251.155478" y="582.99735">on V</tspan>
                <tspan x="287.260947" y="582.99735" letter-spacing="-0.36">T</tspan>
                <tspan x="297.289619" y="582.99735"> 09362</tspan>
            </text>
            <text id="All-Sites" font-family="Roboto-Regular, Roboto" font-size="20" font-weight="normal" fill="#FFFFFF">
                <tspan x="78.6592" y="377.8939">All Sites</tspan>
            </text>
            <text id="VT-State-Election" font-family="Roboto-Regular, Roboto" font-size="30" font-weight="normal" fill="#000000">
                <tspan x="61.1816" y="282.04135">V</tspan>
                <tspan x="80.2685141" y="282.04135" letter-spacing="-0.588">T</tspan>
                <tspan x="96.9949672" y="282.04135"> State Election</tspan>
            </text>
            <text id="January-4th,-2014" font-family="Roboto-Regular, Roboto" font-size="18" font-weight="normal" fill="#000000">
                <tspan x="61.1816" y="312.10385">Janua</tspan>
                <tspan x="110.549764" y="312.10385" letter-spacing="0.1584">r</tspan>
                <tspan x="116.957188" y="312.10385">y 4th, 2014</tspan>
            </text>
            <text id="Early-Voting" font-family="Roboto-Regular, Roboto" font-size="20" font-weight="normal" fill="#000000">
                <tspan x="199.2891" y="377.8939">Early </tspan>
                <tspan x="247.57035" y="377.8939" letter-spacing="-0.444">V</tspan>
                <tspan x="259.401741" y="377.8939">oting</tspan>
            </text>
            <text id="Polling-Sites" font-family="Roboto-Regular, Roboto" font-size="20" font-weight="normal" letter-spacing="-0.13" fill="#000000">
                <tspan x="350.7491" y="377.8939">P</tspan>
                <tspan x="363.109334" y="377.8939">olling Sites</tspan>
            </text>
            <path d="M24.0918,432.1974 L530.0918,432.1974" id="Stroke-11" stroke="#E6E6E6"></path>
            <polygon id="Fill-12" fill="#000000" points="1234.092 167.697 1740.092 167.697 1740.092 99.697 1234.092 99.697"></polygon>
            <text id="Suggested-Routes" font-family="Roboto-Regular, Roboto" font-size="22" font-weight="normal" fill="#FFFFFF">
                <tspan x="1263.6431" y="134.68975">Suggested Routes</tspan>
            </text>
            <path d="M24.0918,236.1974 L530.0918,236.1974" id="Stroke-13" stroke="#E6E6E6"></path>
            <polygon id="Fill-14" fill="#000000" points="434.092 309.697 500.092 309.697 500.092 268.697 434.092 268.697"></polygon>
            <text id="MAP" font-family="Roboto-Regular, Roboto" font-size="20" font-weight="normal" letter-spacing="0.176" fill="#FFFFFF">
                <tspan x="445.4414" y="289.3626">M</tspan>
                <tspan x="463.254119" y="289.3626">AP</tspan>
            </text>
            <polygon id="Fill-15" fill="#000000" points="1259.092 406.697 1373.092 406.697 1373.092 346.697 1259.092 346.697"></polygon>
            <text id="Walk" font-family="Roboto-Regular, Roboto" font-size="20" font-weight="normal" letter-spacing="-0.318" fill="#FFFFFF">
                <tspan x="1294.9463" y="377.6771">W</tspan>
                <tspan x="1312.05018" y="377.6771">alk</tspan>
            </text>
            <polygon id="Fill-16" fill="#FFFFFF" points="1372.592 407.197 1486.592 407.197 1486.592 347.197 1372.592 347.197"></polygon>
            <polygon id="Stroke-17" stroke="#000000" points="1372.592 407.197 1486.592 407.197 1486.592 347.197 1372.592 347.197"></polygon>
            <text id="Bike" font-family="Roboto-Regular, Roboto" font-size="20" font-weight="normal" fill="#000000">
                <tspan x="1411.6709" y="377.6771">Bi</tspan>
                <tspan x="1428.97559" y="377.6771" letter-spacing="-0.214">k</tspan>
                <tspan x="1438.70299" y="377.6771">e</tspan>
            </text>
            <polygon id="Fill-18" fill="#FFFFFF" points="1486.592 407.197 1600.592 407.197 1600.592 347.197 1486.592 347.197"></polygon>
            <polygon id="Stroke-19" stroke="#000000" points="1486.592 407.197 1600.592 407.197 1600.592 347.197 1486.592 347.197"></polygon>
            <text id="Transit" font-family="Roboto-Regular, Roboto" font-size="20" font-weight="normal" letter-spacing="-0.738" fill="#000000">
                <tspan x="1513.9961" y="377.6771">T</tspan>
                <tspan x="1524.45927" y="377.6771" letter-spacing="-0.384">r</tspan>
                <tspan x="1530.45222" y="377.6771">ansit</tspan>
            </text>
            <polygon id="Fill-20" fill="#FFFFFF" points="1600.592 407.197 1713.592 407.197 1713.592 347.197 1600.592 347.197"></polygon>
            <polygon id="Stroke-21" stroke="#000000" points="1600.592 407.197 1713.592 407.197 1713.592 347.197 1600.592 347.197"></polygon>
            <text id="Drive" font-family="Roboto-Regular, Roboto" font-size="20" font-weight="normal" fill="#000000">
                <tspan x="1635.6455" y="377.6771">Dri</tspan>
                <tspan x="1660.38183" y="377.6771" letter-spacing="-0.124">v</tspan>
                <tspan x="1669.81838" y="377.6771">e</tspan>
            </text>
            <text id="Bennington-Town-Hall" font-family="Roboto-Regular, Roboto" font-size="30" font-weight="normal" fill="#000000">
                <tspan x="1259.5918" y="282.04135">Benning</tspan>
                <tspan x="1367.93164" y="282.04135" letter-spacing="-0.354">t</tspan>
                <tspan x="1377.08448" y="282.04135">on</tspan>
                <tspan x="1410.74659" y="282.04135" letter-spacing="-0.027"> </tspan>
                <tspan x="1417.56041" y="282.04135" letter-spacing="-1.458">T</tspan>
                <tspan x="1432.5526" y="282.04135">own</tspan>
                <tspan x="1488.75866" y="282.04135" letter-spacing="0.57"> </tspan>
                <tspan x="1496.75542" y="282.04135">Hall</tspan>
            </text>
            <text id="225-Main-St.-Bennington-VT-09362" font-family="Roboto-Regular, Roboto" font-size="18" font-weight="normal" fill="#000000">
                <tspan x="1259.5918" y="312.10385">225 Main St. Benning</tspan>
                <tspan x="1429.3877" y="312.10385" letter-spacing="-0.27">t</tspan>
                <tspan x="1434.8218" y="312.10385">on V</tspan>
                <tspan x="1470.92727" y="312.10385" letter-spacing="-0.36">T</tspan>
                <tspan x="1480.95594" y="312.10385"> 09362</tspan>
            </text>
            <path d="M1233.0918,236.1974 L1739.0918,236.1974" id="Stroke-22" stroke="#E6E6E6"></path>
            <text id="0.3-mi----6-min" font-family="Roboto-Regular, Roboto" font-size="18" font-weight="normal" fill="#000000">
                <tspan x="1262.6426" y="493.35385">0.3 mi -- 6 min</tspan>
            </text>
            <polygon id="Fill-23" fill="#000000" points="1259.092 872.697 1714.092 872.697 1714.092 812.697 1259.092 812.697"></polygon>
            <text id="Open-in-Google-Maps" font-family="Roboto-Regular, Roboto" font-size="20" font-weight="normal" fill="#FFFFFF">
                <tspan x="1392.4307" y="843.6771">Open in Google Maps</tspan>
            </text>
            <path d="M1234.0918,426.1974 L1740.0918,426.1974" id="Stroke-24" stroke="#E6E6E6"></path>
            <text id="Head-South-on-North-Ave-toward-E-Norwood-Ave" font-family="Roboto-Regular, Roboto" font-size="20" font-weight="normal" fill="#000000">
                <tspan x="1260.4258" y="458.596">Head South on No</tspan>
                <tspan x="1422.24221" y="458.596" letter-spacing="0.472">r</tspan>
                <tspan x="1429.97007" y="458.596">th </tspan>
                <tspan x="1452.47007" y="458.596" letter-spacing="-0.502">A</tspan>
                <tspan x="1464.52666" y="458.596" letter-spacing="-0.118">v</tspan>
                <tspan x="1473.96921" y="458.596">e </tspan>
                <tspan x="1489.51608" y="458.596" letter-spacing="-0.216">t</tspan>
                <tspan x="1495.63797" y="458.596">owa</tspan>
                <tspan x="1532.95242" y="458.596" letter-spacing="-0.164">r</tspan>
                <tspan x="1539.37046" y="458.596">d E No</tspan>
                <tspan x="1597.58335" y="458.596" letter-spacing="0.168">r</tspan>
                <tspan x="1604.68494" y="458.596">wood </tspan>
                <tspan x="1658.75721" y="458.596" letter-spacing="-0.47">A</tspan>
                <tspan x="1670.8458" y="458.596" letter-spacing="-0.12">v</tspan>
                <tspan x="1680.28635" y="458.596">e</tspan>
            </text>
            <path d="M1234.0918,515.1974 L1740.0918,515.1974" id="Stroke-25" stroke="#E6E6E6"></path>
            <text id="0.5-mi----9-min" font-family="Roboto-Regular, Roboto" font-size="18" font-weight="normal" fill="#000000">
                <tspan x="1262.6426" y="582.35385">0.5 mi -- 9 min</tspan>
            </text>
            <text id="Turn-Left-onto-Dove-St" font-family="Roboto-Regular, Roboto" font-size="20" font-weight="normal" letter-spacing="-0.934" fill="#000000">
                <tspan x="1260.4258" y="547.596">T</tspan>
                <tspan x="1270.49766" y="547.596">urn Left on</tspan>
                <tspan x="1366.50352" y="547.596" letter-spacing="-0.216">t</tspan>
                <tspan x="1372.62541" y="547.596">o D</tspan>
                <tspan x="1402.09807" y="547.596" letter-spacing="-0.148">o</tspan>
                <tspan x="1413.20983" y="547.596" letter-spacing="-0.12">v</tspan>
                <tspan x="1422.65038" y="547.596">e St</tspan>
            </text>
            <path d="M1234.0918,604.1974 L1740.0918,604.1974" id="Stroke-26" stroke="#E6E6E6"></path>
            <text id="0.3-mi----7-min" font-family="Roboto-Regular, Roboto" font-size="18" font-weight="normal" fill="#000000">
                <tspan x="1263.6426" y="671.35385">0.3 mi -- 7 min</tspan>
            </text>
            <text id="Turn-Left-onto-1st-Ave" font-family="Roboto-Regular, Roboto" font-size="20" font-weight="normal" letter-spacing="-0.934" fill="#000000">
                <tspan x="1261.4258" y="636.596">T</tspan>
                <tspan x="1271.49766" y="636.596">urn Left on</tspan>
                <tspan x="1367.50352" y="636.596" letter-spacing="-0.216">t</tspan>
                <tspan x="1373.62541" y="636.596">o 1st </tspan>
                <tspan x="1423.01017" y="636.596" letter-spacing="-0.518">A</tspan>
                <tspan x="1435.05077" y="636.596" letter-spacing="-0.118">v</tspan>
                <tspan x="1444.49332" y="636.596">e</tspan>
            </text>
            <path d="M1235.0918,693.1974 L1741.0918,693.1974" id="Stroke-27" stroke="#E6E6E6"></path>
            <text id="Destination-will-be-on-Left" font-family="Roboto-Regular, Roboto" font-size="20" font-weight="normal" fill="#000000">
                <tspan x="1259.4258" y="739.596">Destination will be on Left</tspan>
            </text>
            <path d="M1233.0918,782.1974 L1739.0918,782.1974" id="Stroke-28" stroke="#E6E6E6"></path>
            <text id="BALLOT" font-family="Roboto-Medium, Roboto" font-size="20" font-weight="400" fill="#000000">
                <tspan x="40.3545" y="202.7894">BAL</tspan>
                <tspan x="77.1025469" y="202.7894" letter-spacing="-0.636">L</tspan>
                <tspan x="86.6618594" y="202.7894" letter-spacing="-0.822">O</tspan>
                <tspan x="98.818375" y="202.7894">T</tspan>
            </text>
            <text id="WHERE-DO-I-VOTE" font-family="Roboto-Medium, Roboto" font-size="20" font-weight="400" fill="#000000">
                <tspan x="134.6345" y="202.7894">WHERE DO I </tspan>
                <tspan x="248.999734" y="202.7894" letter-spacing="-0.082">V</tspan>
                <tspan x="261.730234" y="202.7894" letter-spacing="-0.822">O</tspan>
                <tspan x="273.88675" y="202.7894">TE</tspan>
            </text>
            <text id="DETAILS" font-family="Roboto-Medium, Roboto" font-size="20" font-weight="400" fill="#000000">
                <tspan x="314.5945" y="202.7894">D</tspan>
                <tspan x="327.660906" y="202.7894" letter-spacing="0.21">E</tspan>
                <tspan x="339.374812" y="202.7894" letter-spacing="-1.172">T</tspan>
                <tspan x="349.169609" y="202.7894">AILS</tspan>
            </text>
            <text id="ELECTIONS" font-family="Roboto-Medium, Roboto" font-size="20" font-weight="400" fill="#000000">
                <tspan x="414.2545" y="203.2894">ELE</tspan>
                <tspan x="447.692" y="203.2894" letter-spacing="-0.27">C</tspan>
                <tspan x="460.195438" y="203.2894">TIONS</tspan>
            </text>
            <text id="BALLOT" font-family="Roboto-Medium, Roboto" font-size="20" font-weight="400" fill="#000000">
                <tspan x="1250.3345" y="202.7894">BAL</tspan>
                <tspan x="1287.08255" y="202.7894" letter-spacing="-0.636">L</tspan>
                <tspan x="1296.64186" y="202.7894" letter-spacing="-0.822">O</tspan>
                <tspan x="1308.79837" y="202.7894">T</tspan>
            </text>
            <text id="WHERE-DO-I-VOTE" font-family="Roboto-Medium, Roboto" font-size="20" font-weight="400" fill="#000000">
                <tspan x="1344.6145" y="202.7894">WHERE DO I </tspan>
                <tspan x="1458.97973" y="202.7894" letter-spacing="-0.082">V</tspan>
                <tspan x="1471.71023" y="202.7894" letter-spacing="-0.822">O</tspan>
                <tspan x="1483.86675" y="202.7894">TE</tspan>
            </text>
            <text id="DETAILS" font-family="Roboto-Medium, Roboto" font-size="20" font-weight="400" fill="#000000">
                <tspan x="1524.5745" y="202.7894">D</tspan>
                <tspan x="1537.64091" y="202.7894" letter-spacing="0.21">E</tspan>
                <tspan x="1549.35481" y="202.7894" letter-spacing="-1.172">T</tspan>
                <tspan x="1559.14961" y="202.7894">AILS</tspan>
            </text>
            <text id="ELECTIONS" font-family="Roboto-Medium, Roboto" font-size="20" font-weight="400" fill="#000000">
                <tspan x="1624.2345" y="203.2894">ELE</tspan>
                <tspan x="1657.672" y="203.2894" letter-spacing="-0.27">C</tspan>
                <tspan x="1670.17544" y="203.2894">TIONS</tspan>
            </text>
            <polygon id="Fill-29" fill="#FFFFFF" points="781.592 318.197 932.592 318.197 932.592 258.197 781.592 258.197"></polygon>
            <polygon id="Stroke-30" stroke="#000000" points="781.592 318.197 932.592 318.197 932.592 258.197 781.592 258.197"></polygon>
            <polygon id="Fill-31" fill="#FFFFFF" points="932.592 318.197 1106.592 318.197 1106.592 258.197 932.592 258.197"></polygon>
            <polygon id="Stroke-32" stroke="#000000" points="932.592 318.197 1106.592 318.197 1106.592 258.197 932.592 258.197"></polygon>
            <polygon id="Fill-33" fill="#000000" points="657.092 317.697 782.092 317.697 782.092 257.697 657.092 257.697"></polygon>
            <polygon id="Fill-34" fill="#000000" points="631.092 167.697 1137.092 167.697 1137.092 99.697 631.092 99.697"></polygon>
            <text id="VT-State-Election" font-family="Roboto-Regular, Roboto" font-size="22" font-weight="normal" fill="#FFFFFF">
                <tspan x="657.5923" y="136.91635">V</tspan>
                <tspan x="671.58937" y="136.91635" letter-spacing="-0.4312">T</tspan>
                <tspan x="683.855436" y="136.91635"> State Election</tspan>
            </text>
            <text id="All-Sites" font-family="Roboto-Regular, Roboto" font-size="20" font-weight="normal" fill="#FFFFFF">
                <tspan x="685.6592" y="288.8939">All Sites</tspan>
            </text>
            <text id="Early-Voting" font-family="Roboto-Regular, Roboto" font-size="20" font-weight="normal" fill="#000000">
                <tspan x="806.2792" y="288.8939">Early </tspan>
                <tspan x="854.56045" y="288.8939" letter-spacing="-0.444">V</tspan>
                <tspan x="866.391841" y="288.8939">oting</tspan>
            </text>
            <text id="Polling-Sites" font-family="Roboto-Regular, Roboto" font-size="20" font-weight="normal" letter-spacing="-0.13" fill="#000000">
                <tspan x="957.7392" y="288.8939">P</tspan>
                <tspan x="970.099434" y="288.8939">olling Sites</tspan>
            </text>
            <path d="M631.0918,432.1974 L1137.0918,432.1974" id="Stroke-35" stroke="#E6E6E6"></path>
            <path d="M631.0918,236.1974 L1137.0918,236.1974" id="Stroke-36" stroke="#E6E6E6"></path>
            <text id="BALLOT" font-family="Roboto-Medium, Roboto" font-size="20" font-weight="400" fill="#000000">
                <tspan x="647.3545" y="202.7894">BAL</tspan>
                <tspan x="684.102547" y="202.7894" letter-spacing="-0.636">L</tspan>
                <tspan x="693.661859" y="202.7894" letter-spacing="-0.822">O</tspan>
                <tspan x="705.818375" y="202.7894">T</tspan>
            </text>
            <text id="WHERE-DO-I-VOTE" font-family="Roboto-Medium, Roboto" font-size="20" font-weight="400" fill="#000000">
                <tspan x="741.6345" y="202.7894">WHERE DO I </tspan>
                <tspan x="855.999734" y="202.7894" letter-spacing="-0.082">V</tspan>
                <tspan x="868.730234" y="202.7894" letter-spacing="-0.822">O</tspan>
                <tspan x="880.88675" y="202.7894">TE</tspan>
            </text>
            <text id="DETAILS" font-family="Roboto-Medium, Roboto" font-size="20" font-weight="400" fill="#000000">
                <tspan x="921.5945" y="202.7894">D</tspan>
                <tspan x="934.660906" y="202.7894" letter-spacing="0.21">E</tspan>
                <tspan x="946.374812" y="202.7894" letter-spacing="-1.172">T</tspan>
                <tspan x="956.169609" y="202.7894">AILS</tspan>
            </text>
            <text id="ELECTIONS" font-family="Roboto-Medium, Roboto" font-size="20" font-weight="400" fill="#000000">
                <tspan x="1021.2545" y="203.2894">ELE</tspan>
                <tspan x="1054.692" y="203.2894" letter-spacing="-0.27">C</tspan>
                <tspan x="1067.19544" y="203.2894">TIONS</tspan>
            </text>
            <polygon id="Fill-37" fill="#FFFFFF" points="657.592 866.197 1106.592 866.197 1106.592 366.197 657.592 366.197"></polygon>
            <polygon id="Stroke-38" stroke="#000000" points="657.592 866.197 1106.592 866.197 1106.592 366.197 657.592 366.197"></polygon>
            <text id="MAP" font-family="Roboto-Regular, Roboto" font-size="20" font-weight="normal" letter-spacing="0.176" fill="#000000">
                <tspan x="853.7803" y="402.7601">M</tspan>
                <tspan x="871.593019" y="402.7601">AP</tspan>
            </text>
            <polygon id="Fill-39" fill="#000000" points="992.639 652.0909 960.29 684.4399 927.942 652.0909 960.29 619.7419"></polygon>
            <polygon id="Fill-40" fill="#000000" points="884.092 655.697 1058.092 655.697 1058.092 595.697 884.092 595.697"></polygon>
            <text id="Get-Directions" font-family="Roboto-Regular, Roboto" font-size="20" font-weight="normal" fill="#FFFFFF">
                <tspan x="908.3623" y="630.6536">Get Di</tspan>
                <tspan x="962.034175" y="630.6536" letter-spacing="-0.206">r</tspan>
                <tspan x="968.410206" y="630.6536">ections</tspan>
            </text>
            <polygon id="Stroke-41" stroke="#808080" points="24.092 900.954 530.092 900.954 530.092 100.954 24.092 100.954"></polygon>
            <g id="Group-49" transform="translate(0.000000, 0.180000)">
                <path d="M514.6065,994.5 L39.5775,994.5 C17.9955,994.5 0.4995,977.005 0.4995,955.423 L0.4995,40.397 C0.4995,18.816 17.9955,1.32 39.5775,1.32 L514.6065,1.32 C536.1885,1.32 553.6835,18.816 553.6835,40.397 L553.6835,955.423 C553.6835,977.005 536.1885,994.5 514.6065,994.5 Z" id="Stroke-42" stroke="#808080"></path>
                <mask id="mask-2" fill="white">
                    <use xlink:href="#path-1"></use>
                </mask>
                <g id="Clip-45"></g>
                <polygon id="Stroke-44" stroke="#808080" mask="url(#mask-2)" points="629.092 900.774 1135.092 900.774 1135.092 100.774 629.092 100.774"></polygon>
                <path d="M1119.6064,994.5 L644.5774,994.5 C622.9954,994.5 605.5004,977.005 605.5004,955.423 L605.5004,40.397 C605.5004,18.816 622.9954,1.32 644.5774,1.32 L1119.6064,1.32 C1141.1884,1.32 1158.6834,18.816 1158.6834,40.397 L1158.6834,955.423 C1158.6834,977.005 1141.1884,994.5 1119.6064,994.5 Z" id="Stroke-46" stroke="#808080" mask="url(#mask-2)"></path>
                <polygon id="Stroke-47" stroke="#808080" mask="url(#mask-2)" points="1234.092 900.774 1740.092 900.774 1740.092 100.774 1234.092 100.774"></polygon>
                <path d="M1724.6064,994.5 L1249.5774,994.5 C1227.9954,994.5 1210.5004,977.005 1210.5004,955.423 L1210.5004,40.397 C1210.5004,18.816 1227.9954,1.32 1249.5774,1.32 L1724.6064,1.32 C1746.1884,1.32 1763.6834,18.816 1763.6834,40.397 L1763.6834,955.423 C1763.6834,977.005 1746.1884,994.5 1724.6064,994.5 Z" id="Stroke-48" stroke="#808080" mask="url(#mask-2)"></path>
            </g>
        </g>
    </g>
</svg>