<?xml version="1.0" encoding="UTF-8"?>
<svg width="163px" height="43px" viewBox="0 0 163 43" version="1.1" xmlns="http://www.w3.org/2000/svg" xmlns:xlink="http://www.w3.org/1999/xlink">
    <!-- Generator: Sketch 52.2 (67145) - http://www.bohemiancoding.com/sketch -->
    <title>Combined Shape</title>
    <desc>Created with Sketch.</desc>
    <g id="Page-1" stroke="none" stroke-width="1" fill="none" fill-rule="evenodd">
        <g id="AdminOrgProjects" transform="translate(-1084.000000, -639.000000)" fill="#C74702" fill-rule="nonzero">
            <path d="M1085.38586,639.286741 L1097.90171,645.064012 C1098.32047,645.25731 1098.50324,645.753483 1098.30994,646.172244 C1098.25561,646.289956 1098.17461,646.393401 1098.07337,646.474386 L1088.44521,654.176158 C1088.08505,654.464264 1087.55952,654.405846 1087.27141,654.045679 C1087.19043,653.944438 1087.13413,653.825731 1087.10697,653.69896 L1084.21927,640.219917 C1084.12266,639.768929 1084.40993,639.325006 1084.86092,639.228389 C1085.0376,639.190536 1085.2218,639.211012 1085.38586,639.286741 Z M1141.7664,679.884582 C1142.31168,679.97224 1142.68266,680.48534 1142.595,681.030624 C1142.50735,681.575908 1141.99425,681.946888 1141.44896,681.85923 C1140.77773,681.751326 1140.11502,681.639503 1139.46084,681.52376 C1138.917,681.427539 1138.55414,680.908669 1138.65036,680.364831 C1138.74658,679.820993 1139.26545,679.458127 1139.80929,679.554347 C1140.45309,679.668254 1141.10546,679.778332 1141.7664,679.884582 Z M1134.94848,678.585378 C1135.48748,678.705804 1135.8268,679.24037 1135.70637,679.779366 C1135.58595,680.318361 1135.05138,680.657679 1134.51238,680.537254 C1133.84653,680.388485 1133.19083,680.235032 1132.54526,680.07689 C1132.00883,679.945484 1131.6805,679.4041 1131.81191,678.867676 C1131.94331,678.331252 1132.4847,678.00292 1133.02112,678.134326 C1133.65338,678.289207 1134.29583,678.439559 1134.94848,678.585378 Z M1128.24883,676.819782 C1128.77654,676.982713 1129.07225,677.542584 1128.90931,678.070288 C1128.74638,678.597992 1128.18651,678.893699 1127.65881,678.730768 C1127.00331,678.528381 1126.36021,678.320229 1125.72948,678.106307 C1125.20646,677.928914 1124.92628,677.361116 1125.10367,676.838096 C1125.28106,676.315076 1125.84886,676.03489 1126.37188,676.212283 C1126.98509,676.420266 1127.61074,676.622768 1128.24883,676.819782 Z M1121.77881,674.452028 C1122.2857,674.671296 1122.51887,675.259965 1122.2996,675.766858 C1122.08033,676.27375 1121.49166,676.506917 1120.98477,676.287649 C1120.35073,676.01338 1119.73222,675.731809 1119.12925,675.442921 C1118.63118,675.204291 1118.42086,674.607078 1118.65949,674.109007 C1118.89812,673.610937 1119.49534,673.400618 1119.99341,673.639248 C1120.57301,673.916942 1121.16815,674.187873 1121.77881,674.452028 Z M1115.71612,671.291543 C1116.18338,671.585969 1116.32349,672.203438 1116.02906,672.670698 C1115.73464,673.137957 1115.11717,673.278067 1114.64991,672.98364 C1114.06053,672.612266 1113.49105,672.231436 1112.9415,671.841131 C1112.49122,671.521337 1112.38544,670.89707 1112.70523,670.446792 C1113.02503,669.996514 1113.6493,669.890737 1114.09957,670.210531 C1114.61882,670.579308 1115.15766,670.939652 1115.71612,671.291543 Z M1110.28235,667.140053 C1110.69602,667.505969 1110.73474,668.137949 1110.36882,668.55162 C1110.0029,668.965292 1109.37092,669.004006 1108.95725,668.63809 C1108.46928,668.206454 1107.96939,667.751818 1107.45755,667.274172 C1107.05377,666.897369 1107.0319,666.264582 1107.4087,665.860802 C1107.7855,665.457022 1108.41829,665.435153 1108.82207,665.811955 C1109.32116,666.277701 1109.80793,666.720405 1110.28235,667.140053 Z M1105.28963,662.342155 C1105.67501,662.737758 1105.66672,663.370868 1105.27112,663.756247 C1104.87552,664.141626 1104.2424,664.133338 1103.85703,663.737735 C1103.39997,663.268557 1102.93501,662.784266 1102.46214,662.284858 C1102.08241,661.883827 1102.09968,661.250897 1102.50071,660.871171 C1102.90174,660.491444 1103.53467,660.508716 1103.9144,660.909747 C1104.38085,661.402369 1104.83926,661.879839 1105.28963,662.342155 Z M1100.54641,657.245678 C1100.91472,657.657219 1100.87967,658.289413 1100.46813,658.657723 C1100.05659,659.026033 1099.4244,658.990987 1099.05609,658.579445 C1098.61764,658.08953 1098.17329,657.588394 1097.72306,657.076037 C1097.3585,656.661172 1097.39928,656.029322 1097.81414,655.664759 C1098.229,655.300197 1098.86086,655.340975 1099.22542,655.75584 C1099.6717,656.263697 1100.11203,656.76031 1100.54641,657.245678 Z M1095.97743,651.985396 C1096.33407,652.407087 1096.28134,653.038052 1095.85965,653.394697 C1095.43796,653.751341 1094.80699,653.698611 1094.45035,653.276921 C1094.02481,652.773775 1093.59459,652.261722 1093.15969,651.740761 C1092.80576,651.316792 1092.86253,650.686178 1093.2865,650.332245 C1093.71047,649.978311 1094.34109,650.035087 1094.69502,650.459056 C1095.1272,650.976758 1095.55467,651.485539 1095.97743,651.985396 Z M1245.43531,639.280358 C1245.60062,639.207396 1245.78513,639.190019 1245.96116,639.230834 C1246.41046,639.335016 1246.69023,639.783702 1246.58605,640.233003 L1243.4723,653.661625 C1243.44301,653.787922 1243.38472,653.905666 1243.30205,654.005533 C1243.00793,654.360808 1242.48149,654.410388 1242.12622,654.116272 L1232.62882,646.253817 C1232.52896,646.171142 1232.44971,646.066351 1232.39736,645.947742 C1232.21113,645.525793 1232.40221,645.032761 1232.82416,644.846526 L1245.43531,639.280358 Z M1187.04802,679.883747 C1187.70933,679.781065 1188.36237,679.674808 1189.00712,679.564977 C1189.55157,679.472234 1190.06811,679.838409 1190.16085,680.382851 C1190.25359,680.927293 1189.88742,681.443834 1189.34298,681.536576 C1188.68851,681.648061 1188.02582,681.75589 1187.35488,681.860066 C1186.80914,681.944804 1186.29803,681.571083 1186.21329,681.025338 C1186.12855,680.479592 1186.50227,679.968485 1187.04802,679.883747 Z M1193.87795,678.633785 C1194.53233,678.494075 1195.17689,678.350145 1195.81163,678.201997 C1196.34946,678.076469 1196.88722,678.410705 1197.01275,678.948535 C1197.13828,679.486365 1196.80404,680.024124 1196.26621,680.149652 C1195.61908,680.30069 1194.96219,680.447373 1194.29554,680.589704 C1193.75542,680.705018 1193.2241,680.360651 1193.10878,679.820539 C1192.99347,679.280427 1193.33783,678.749099 1193.87795,678.633785 Z M1200.60494,676.948871 C1201.24628,676.761641 1201.87571,676.569327 1202.49323,676.371937 C1203.01929,676.20378 1203.58207,676.493921 1203.75023,677.019983 C1203.91838,677.546046 1203.62824,678.108822 1203.10218,678.276978 C1202.46844,678.479552 1201.82286,678.676801 1201.16542,678.868732 C1200.63526,679.023503 1200.08002,678.719194 1199.92525,678.189039 C1199.77048,677.658884 1200.07479,677.103642 1200.60494,676.948871 Z M1207.12861,674.705085 C1207.74635,674.455493 1208.34927,674.199641 1208.93737,673.937538 C1209.44182,673.712713 1210.03301,673.939396 1210.25784,674.443849 C1210.48266,674.948301 1210.25598,675.539497 1209.75153,675.764322 C1209.14177,676.036078 1208.51721,676.301115 1207.87785,676.559444 C1207.36578,676.766339 1206.78295,676.518949 1206.57605,676.006881 C1206.36916,675.494814 1206.61655,674.91198 1207.12861,674.705085 Z M1213.32204,671.709829 C1213.89456,671.377724 1214.44828,671.037786 1214.9832,670.690032 C1215.44624,670.389012 1216.06564,670.520355 1216.36665,670.983394 C1216.66767,671.446434 1216.53633,672.065826 1216.07329,672.366846 C1215.50971,672.733225 1214.92714,673.090881 1214.32558,673.439832 C1213.84786,673.716951 1213.23593,673.554327 1212.95881,673.0766 C1212.68169,672.598872 1212.84432,671.986948 1213.32204,671.709829 Z M1218.88375,667.789799 C1219.37032,667.387458 1219.87022,666.961144 1220.3834,666.510871 C1220.79854,666.146621 1221.43036,666.187876 1221.79461,666.603016 C1222.15886,667.018156 1222.11761,667.649975 1221.70247,668.014224 C1221.17489,668.477131 1220.66016,668.916089 1220.15826,669.331112 C1219.73263,669.683056 1219.10229,669.623328 1218.75035,669.197706 C1218.3984,668.772084 1218.45813,668.141743 1218.88375,667.789799 Z M1224.01174,663.14381 C1224.47357,662.694259 1224.94394,662.229178 1225.42285,661.748572 C1225.81268,661.357356 1226.44584,661.356234 1226.83706,661.746065 C1227.22828,662.135896 1227.2294,662.76906 1226.83957,663.160276 C1226.35358,663.647993 1225.87598,664.120216 1225.40677,664.576949 C1225.01102,664.962176 1224.37791,664.953646 1223.99269,664.557895 C1223.60746,664.162145 1223.61599,663.529037 1224.01174,663.14381 Z M1228.87815,658.169492 C1229.32349,657.694912 1229.77509,657.208898 1230.23296,656.711451 C1230.60699,656.305096 1231.23961,656.278887 1231.64597,656.652912 C1232.05232,657.026937 1232.07853,657.659559 1231.7045,658.065913 C1231.24233,658.568041 1230.78635,659.058757 1230.33658,659.538063 C1229.95866,659.940797 1229.32581,659.960912 1228.92308,659.582991 C1228.52034,659.205071 1228.50023,658.572225 1228.87815,658.169492 Z M1233.56489,653.014822 C1233.9983,652.524592 1234.43666,652.02533 1234.87995,651.517037 C1235.24296,651.100808 1235.87465,651.057661 1236.29088,651.420664 C1236.70711,651.783668 1236.75025,652.415362 1236.38725,652.831591 C1235.94101,653.343256 1235.49968,653.845905 1235.06326,654.339538 C1234.69745,654.753303 1234.06548,654.792178 1233.65172,654.426367 C1233.23795,654.060557 1233.19908,653.428587 1233.56489,653.014822 Z" id="Combined-Shape"></path>
        </g>
    </g>
</svg>